G75*
G70*
%OFA0B0*%
%FSLAX24Y24*%
%IPPOS*%
%LPD*%
%AMOC8*
5,1,8,0,0,1.08239X$1,22.5*
%
%ADD10C,0.0160*%
%ADD11C,0.0000*%
D10*
X001557Y000183D02*
X001557Y032429D01*
X014077Y032429D01*
X014077Y000183D01*
X001557Y000183D01*
D11*
X002302Y001681D02*
X002305Y001749D01*
X002314Y001817D01*
X002330Y001883D01*
X002351Y001948D01*
X002378Y002011D01*
X002411Y002071D01*
X002449Y002127D01*
X002492Y002180D01*
X002540Y002229D01*
X002592Y002273D01*
X002648Y002313D01*
X002707Y002347D01*
X002769Y002376D01*
X002833Y002398D01*
X002899Y002415D01*
X002967Y002426D01*
X003035Y002431D01*
X003103Y002429D01*
X003171Y002421D01*
X003238Y002408D01*
X003303Y002388D01*
X003366Y002362D01*
X003427Y002331D01*
X003485Y002294D01*
X003538Y002252D01*
X003588Y002205D01*
X003634Y002154D01*
X003674Y002099D01*
X003710Y002041D01*
X003740Y001980D01*
X003764Y001916D01*
X003783Y001850D01*
X003795Y001783D01*
X003801Y001715D01*
X003801Y001647D01*
X003795Y001579D01*
X003783Y001512D01*
X003764Y001446D01*
X003740Y001382D01*
X003710Y001321D01*
X003674Y001263D01*
X003634Y001208D01*
X003588Y001157D01*
X003538Y001110D01*
X003485Y001068D01*
X003427Y001031D01*
X003366Y001000D01*
X003303Y000974D01*
X003238Y000954D01*
X003171Y000941D01*
X003103Y000933D01*
X003035Y000931D01*
X002967Y000936D01*
X002899Y000947D01*
X002833Y000964D01*
X002769Y000986D01*
X002707Y001015D01*
X002648Y001049D01*
X002592Y001089D01*
X002540Y001133D01*
X002492Y001182D01*
X002449Y001235D01*
X002411Y001291D01*
X002378Y001351D01*
X002351Y001414D01*
X002330Y001479D01*
X002314Y001545D01*
X002305Y001613D01*
X002302Y001681D01*
X002402Y009681D02*
X002405Y009740D01*
X002413Y009799D01*
X002426Y009856D01*
X002445Y009913D01*
X002468Y009967D01*
X002497Y010019D01*
X002530Y010068D01*
X002567Y010114D01*
X002608Y010156D01*
X002653Y010194D01*
X002702Y010229D01*
X002753Y010258D01*
X002807Y010283D01*
X002862Y010303D01*
X002920Y010317D01*
X002978Y010327D01*
X003037Y010331D01*
X003096Y010329D01*
X003155Y010323D01*
X003213Y010311D01*
X003270Y010293D01*
X003324Y010271D01*
X003377Y010244D01*
X003427Y010212D01*
X003474Y010176D01*
X003517Y010135D01*
X003556Y010091D01*
X003591Y010044D01*
X003622Y009993D01*
X003648Y009940D01*
X003669Y009885D01*
X003685Y009828D01*
X003696Y009770D01*
X003701Y009711D01*
X003701Y009651D01*
X003696Y009592D01*
X003685Y009534D01*
X003669Y009477D01*
X003648Y009422D01*
X003622Y009369D01*
X003591Y009318D01*
X003556Y009271D01*
X003517Y009227D01*
X003474Y009186D01*
X003427Y009150D01*
X003377Y009118D01*
X003324Y009091D01*
X003270Y009069D01*
X003213Y009051D01*
X003155Y009039D01*
X003096Y009033D01*
X003037Y009031D01*
X002978Y009035D01*
X002920Y009045D01*
X002862Y009059D01*
X002807Y009079D01*
X002753Y009104D01*
X002702Y009133D01*
X002653Y009168D01*
X002608Y009206D01*
X002567Y009248D01*
X002530Y009294D01*
X002497Y009343D01*
X002468Y009395D01*
X002445Y009449D01*
X002426Y009506D01*
X002413Y009563D01*
X002405Y009622D01*
X002402Y009681D01*
X001662Y014731D02*
X001665Y014789D01*
X001673Y014847D01*
X001686Y014904D01*
X001704Y014959D01*
X001727Y015012D01*
X001755Y015064D01*
X001788Y015112D01*
X001824Y015157D01*
X001865Y015199D01*
X001910Y015237D01*
X001957Y015270D01*
X002008Y015299D01*
X002060Y015324D01*
X002115Y015343D01*
X002172Y015358D01*
X002229Y015367D01*
X002287Y015371D01*
X002346Y015370D01*
X002404Y015363D01*
X002461Y015351D01*
X002516Y015334D01*
X002570Y015312D01*
X002622Y015285D01*
X002671Y015254D01*
X002717Y015218D01*
X002760Y015178D01*
X002798Y015135D01*
X002833Y015088D01*
X002863Y015038D01*
X002889Y014986D01*
X002910Y014932D01*
X002925Y014875D01*
X002936Y014818D01*
X002941Y014760D01*
X002941Y014702D01*
X002936Y014644D01*
X002925Y014587D01*
X002910Y014530D01*
X002889Y014476D01*
X002863Y014424D01*
X002833Y014374D01*
X002798Y014327D01*
X002760Y014284D01*
X002717Y014244D01*
X002671Y014208D01*
X002622Y014177D01*
X002570Y014150D01*
X002516Y014128D01*
X002461Y014111D01*
X002404Y014099D01*
X002346Y014092D01*
X002287Y014091D01*
X002229Y014095D01*
X002172Y014104D01*
X002115Y014119D01*
X002060Y014138D01*
X002008Y014163D01*
X001957Y014192D01*
X001910Y014225D01*
X001865Y014263D01*
X001824Y014305D01*
X001788Y014350D01*
X001755Y014398D01*
X001727Y014450D01*
X001704Y014503D01*
X001686Y014558D01*
X001673Y014615D01*
X001665Y014673D01*
X001662Y014731D01*
X006162Y014731D02*
X006165Y014789D01*
X006173Y014847D01*
X006186Y014904D01*
X006204Y014959D01*
X006227Y015012D01*
X006255Y015064D01*
X006288Y015112D01*
X006324Y015157D01*
X006365Y015199D01*
X006410Y015237D01*
X006457Y015270D01*
X006508Y015299D01*
X006560Y015324D01*
X006615Y015343D01*
X006672Y015358D01*
X006729Y015367D01*
X006787Y015371D01*
X006846Y015370D01*
X006904Y015363D01*
X006961Y015351D01*
X007016Y015334D01*
X007070Y015312D01*
X007122Y015285D01*
X007171Y015254D01*
X007217Y015218D01*
X007260Y015178D01*
X007298Y015135D01*
X007333Y015088D01*
X007363Y015038D01*
X007389Y014986D01*
X007410Y014932D01*
X007425Y014875D01*
X007436Y014818D01*
X007441Y014760D01*
X007441Y014702D01*
X007436Y014644D01*
X007425Y014587D01*
X007410Y014530D01*
X007389Y014476D01*
X007363Y014424D01*
X007333Y014374D01*
X007298Y014327D01*
X007260Y014284D01*
X007217Y014244D01*
X007171Y014208D01*
X007122Y014177D01*
X007070Y014150D01*
X007016Y014128D01*
X006961Y014111D01*
X006904Y014099D01*
X006846Y014092D01*
X006787Y014091D01*
X006729Y014095D01*
X006672Y014104D01*
X006615Y014119D01*
X006560Y014138D01*
X006508Y014163D01*
X006457Y014192D01*
X006410Y014225D01*
X006365Y014263D01*
X006324Y014305D01*
X006288Y014350D01*
X006255Y014398D01*
X006227Y014450D01*
X006204Y014503D01*
X006186Y014558D01*
X006173Y014615D01*
X006165Y014673D01*
X006162Y014731D01*
X008162Y014731D02*
X008165Y014789D01*
X008173Y014847D01*
X008186Y014904D01*
X008204Y014959D01*
X008227Y015012D01*
X008255Y015064D01*
X008288Y015112D01*
X008324Y015157D01*
X008365Y015199D01*
X008410Y015237D01*
X008457Y015270D01*
X008508Y015299D01*
X008560Y015324D01*
X008615Y015343D01*
X008672Y015358D01*
X008729Y015367D01*
X008787Y015371D01*
X008846Y015370D01*
X008904Y015363D01*
X008961Y015351D01*
X009016Y015334D01*
X009070Y015312D01*
X009122Y015285D01*
X009171Y015254D01*
X009217Y015218D01*
X009260Y015178D01*
X009298Y015135D01*
X009333Y015088D01*
X009363Y015038D01*
X009389Y014986D01*
X009410Y014932D01*
X009425Y014875D01*
X009436Y014818D01*
X009441Y014760D01*
X009441Y014702D01*
X009436Y014644D01*
X009425Y014587D01*
X009410Y014530D01*
X009389Y014476D01*
X009363Y014424D01*
X009333Y014374D01*
X009298Y014327D01*
X009260Y014284D01*
X009217Y014244D01*
X009171Y014208D01*
X009122Y014177D01*
X009070Y014150D01*
X009016Y014128D01*
X008961Y014111D01*
X008904Y014099D01*
X008846Y014092D01*
X008787Y014091D01*
X008729Y014095D01*
X008672Y014104D01*
X008615Y014119D01*
X008560Y014138D01*
X008508Y014163D01*
X008457Y014192D01*
X008410Y014225D01*
X008365Y014263D01*
X008324Y014305D01*
X008288Y014350D01*
X008255Y014398D01*
X008227Y014450D01*
X008204Y014503D01*
X008186Y014558D01*
X008173Y014615D01*
X008165Y014673D01*
X008162Y014731D01*
X011902Y009681D02*
X011905Y009740D01*
X011913Y009799D01*
X011926Y009856D01*
X011945Y009913D01*
X011968Y009967D01*
X011997Y010019D01*
X012030Y010068D01*
X012067Y010114D01*
X012108Y010156D01*
X012153Y010194D01*
X012202Y010229D01*
X012253Y010258D01*
X012307Y010283D01*
X012362Y010303D01*
X012420Y010317D01*
X012478Y010327D01*
X012537Y010331D01*
X012596Y010329D01*
X012655Y010323D01*
X012713Y010311D01*
X012770Y010293D01*
X012824Y010271D01*
X012877Y010244D01*
X012927Y010212D01*
X012974Y010176D01*
X013017Y010135D01*
X013056Y010091D01*
X013091Y010044D01*
X013122Y009993D01*
X013148Y009940D01*
X013169Y009885D01*
X013185Y009828D01*
X013196Y009770D01*
X013201Y009711D01*
X013201Y009651D01*
X013196Y009592D01*
X013185Y009534D01*
X013169Y009477D01*
X013148Y009422D01*
X013122Y009369D01*
X013091Y009318D01*
X013056Y009271D01*
X013017Y009227D01*
X012974Y009186D01*
X012927Y009150D01*
X012877Y009118D01*
X012824Y009091D01*
X012770Y009069D01*
X012713Y009051D01*
X012655Y009039D01*
X012596Y009033D01*
X012537Y009031D01*
X012478Y009035D01*
X012420Y009045D01*
X012362Y009059D01*
X012307Y009079D01*
X012253Y009104D01*
X012202Y009133D01*
X012153Y009168D01*
X012108Y009206D01*
X012067Y009248D01*
X012030Y009294D01*
X011997Y009343D01*
X011968Y009395D01*
X011945Y009449D01*
X011926Y009506D01*
X011913Y009563D01*
X011905Y009622D01*
X011902Y009681D01*
X012662Y014731D02*
X012665Y014789D01*
X012673Y014847D01*
X012686Y014904D01*
X012704Y014959D01*
X012727Y015012D01*
X012755Y015064D01*
X012788Y015112D01*
X012824Y015157D01*
X012865Y015199D01*
X012910Y015237D01*
X012957Y015270D01*
X013008Y015299D01*
X013060Y015324D01*
X013115Y015343D01*
X013172Y015358D01*
X013229Y015367D01*
X013287Y015371D01*
X013346Y015370D01*
X013404Y015363D01*
X013461Y015351D01*
X013516Y015334D01*
X013570Y015312D01*
X013622Y015285D01*
X013671Y015254D01*
X013717Y015218D01*
X013760Y015178D01*
X013798Y015135D01*
X013833Y015088D01*
X013863Y015038D01*
X013889Y014986D01*
X013910Y014932D01*
X013925Y014875D01*
X013936Y014818D01*
X013941Y014760D01*
X013941Y014702D01*
X013936Y014644D01*
X013925Y014587D01*
X013910Y014530D01*
X013889Y014476D01*
X013863Y014424D01*
X013833Y014374D01*
X013798Y014327D01*
X013760Y014284D01*
X013717Y014244D01*
X013671Y014208D01*
X013622Y014177D01*
X013570Y014150D01*
X013516Y014128D01*
X013461Y014111D01*
X013404Y014099D01*
X013346Y014092D01*
X013287Y014091D01*
X013229Y014095D01*
X013172Y014104D01*
X013115Y014119D01*
X013060Y014138D01*
X013008Y014163D01*
X012957Y014192D01*
X012910Y014225D01*
X012865Y014263D01*
X012824Y014305D01*
X012788Y014350D01*
X012755Y014398D01*
X012727Y014450D01*
X012704Y014503D01*
X012686Y014558D01*
X012673Y014615D01*
X012665Y014673D01*
X012662Y014731D01*
X011902Y026681D02*
X011905Y026740D01*
X011913Y026799D01*
X011926Y026856D01*
X011945Y026913D01*
X011968Y026967D01*
X011997Y027019D01*
X012030Y027068D01*
X012067Y027114D01*
X012108Y027156D01*
X012153Y027194D01*
X012202Y027229D01*
X012253Y027258D01*
X012307Y027283D01*
X012362Y027303D01*
X012420Y027317D01*
X012478Y027327D01*
X012537Y027331D01*
X012596Y027329D01*
X012655Y027323D01*
X012713Y027311D01*
X012770Y027293D01*
X012824Y027271D01*
X012877Y027244D01*
X012927Y027212D01*
X012974Y027176D01*
X013017Y027135D01*
X013056Y027091D01*
X013091Y027044D01*
X013122Y026993D01*
X013148Y026940D01*
X013169Y026885D01*
X013185Y026828D01*
X013196Y026770D01*
X013201Y026711D01*
X013201Y026651D01*
X013196Y026592D01*
X013185Y026534D01*
X013169Y026477D01*
X013148Y026422D01*
X013122Y026369D01*
X013091Y026318D01*
X013056Y026271D01*
X013017Y026227D01*
X012974Y026186D01*
X012927Y026150D01*
X012877Y026118D01*
X012824Y026091D01*
X012770Y026069D01*
X012713Y026051D01*
X012655Y026039D01*
X012596Y026033D01*
X012537Y026031D01*
X012478Y026035D01*
X012420Y026045D01*
X012362Y026059D01*
X012307Y026079D01*
X012253Y026104D01*
X012202Y026133D01*
X012153Y026168D01*
X012108Y026206D01*
X012067Y026248D01*
X012030Y026294D01*
X011997Y026343D01*
X011968Y026395D01*
X011945Y026449D01*
X011926Y026506D01*
X011913Y026563D01*
X011905Y026622D01*
X011902Y026681D01*
X002402Y026681D02*
X002405Y026740D01*
X002413Y026799D01*
X002426Y026856D01*
X002445Y026913D01*
X002468Y026967D01*
X002497Y027019D01*
X002530Y027068D01*
X002567Y027114D01*
X002608Y027156D01*
X002653Y027194D01*
X002702Y027229D01*
X002753Y027258D01*
X002807Y027283D01*
X002862Y027303D01*
X002920Y027317D01*
X002978Y027327D01*
X003037Y027331D01*
X003096Y027329D01*
X003155Y027323D01*
X003213Y027311D01*
X003270Y027293D01*
X003324Y027271D01*
X003377Y027244D01*
X003427Y027212D01*
X003474Y027176D01*
X003517Y027135D01*
X003556Y027091D01*
X003591Y027044D01*
X003622Y026993D01*
X003648Y026940D01*
X003669Y026885D01*
X003685Y026828D01*
X003696Y026770D01*
X003701Y026711D01*
X003701Y026651D01*
X003696Y026592D01*
X003685Y026534D01*
X003669Y026477D01*
X003648Y026422D01*
X003622Y026369D01*
X003591Y026318D01*
X003556Y026271D01*
X003517Y026227D01*
X003474Y026186D01*
X003427Y026150D01*
X003377Y026118D01*
X003324Y026091D01*
X003270Y026069D01*
X003213Y026051D01*
X003155Y026039D01*
X003096Y026033D01*
X003037Y026031D01*
X002978Y026035D01*
X002920Y026045D01*
X002862Y026059D01*
X002807Y026079D01*
X002753Y026104D01*
X002702Y026133D01*
X002653Y026168D01*
X002608Y026206D01*
X002567Y026248D01*
X002530Y026294D01*
X002497Y026343D01*
X002468Y026395D01*
X002445Y026449D01*
X002426Y026506D01*
X002413Y026563D01*
X002405Y026622D01*
X002402Y026681D01*
X007052Y001681D02*
X007055Y001749D01*
X007064Y001817D01*
X007080Y001883D01*
X007101Y001948D01*
X007128Y002011D01*
X007161Y002071D01*
X007199Y002127D01*
X007242Y002180D01*
X007290Y002229D01*
X007342Y002273D01*
X007398Y002313D01*
X007457Y002347D01*
X007519Y002376D01*
X007583Y002398D01*
X007649Y002415D01*
X007717Y002426D01*
X007785Y002431D01*
X007853Y002429D01*
X007921Y002421D01*
X007988Y002408D01*
X008053Y002388D01*
X008116Y002362D01*
X008177Y002331D01*
X008235Y002294D01*
X008288Y002252D01*
X008338Y002205D01*
X008384Y002154D01*
X008424Y002099D01*
X008460Y002041D01*
X008490Y001980D01*
X008514Y001916D01*
X008533Y001850D01*
X008545Y001783D01*
X008551Y001715D01*
X008551Y001647D01*
X008545Y001579D01*
X008533Y001512D01*
X008514Y001446D01*
X008490Y001382D01*
X008460Y001321D01*
X008424Y001263D01*
X008384Y001208D01*
X008338Y001157D01*
X008288Y001110D01*
X008235Y001068D01*
X008177Y001031D01*
X008116Y001000D01*
X008053Y000974D01*
X007988Y000954D01*
X007921Y000941D01*
X007853Y000933D01*
X007785Y000931D01*
X007717Y000936D01*
X007649Y000947D01*
X007583Y000964D01*
X007519Y000986D01*
X007457Y001015D01*
X007398Y001049D01*
X007342Y001089D01*
X007290Y001133D01*
X007242Y001182D01*
X007199Y001235D01*
X007161Y001291D01*
X007128Y001351D01*
X007101Y001414D01*
X007080Y001479D01*
X007064Y001545D01*
X007055Y001613D01*
X007052Y001681D01*
X011802Y001681D02*
X011805Y001749D01*
X011814Y001817D01*
X011830Y001883D01*
X011851Y001948D01*
X011878Y002011D01*
X011911Y002071D01*
X011949Y002127D01*
X011992Y002180D01*
X012040Y002229D01*
X012092Y002273D01*
X012148Y002313D01*
X012207Y002347D01*
X012269Y002376D01*
X012333Y002398D01*
X012399Y002415D01*
X012467Y002426D01*
X012535Y002431D01*
X012603Y002429D01*
X012671Y002421D01*
X012738Y002408D01*
X012803Y002388D01*
X012866Y002362D01*
X012927Y002331D01*
X012985Y002294D01*
X013038Y002252D01*
X013088Y002205D01*
X013134Y002154D01*
X013174Y002099D01*
X013210Y002041D01*
X013240Y001980D01*
X013264Y001916D01*
X013283Y001850D01*
X013295Y001783D01*
X013301Y001715D01*
X013301Y001647D01*
X013295Y001579D01*
X013283Y001512D01*
X013264Y001446D01*
X013240Y001382D01*
X013210Y001321D01*
X013174Y001263D01*
X013134Y001208D01*
X013088Y001157D01*
X013038Y001110D01*
X012985Y001068D01*
X012927Y001031D01*
X012866Y001000D01*
X012803Y000974D01*
X012738Y000954D01*
X012671Y000941D01*
X012603Y000933D01*
X012535Y000931D01*
X012467Y000936D01*
X012399Y000947D01*
X012333Y000964D01*
X012269Y000986D01*
X012207Y001015D01*
X012148Y001049D01*
X012092Y001089D01*
X012040Y001133D01*
X011992Y001182D01*
X011949Y001235D01*
X011911Y001291D01*
X011878Y001351D01*
X011851Y001414D01*
X011830Y001479D01*
X011814Y001545D01*
X011805Y001613D01*
X011802Y001681D01*
M02*
