%
M48
M72
T01C0.0236
T02C0.0320
T03C0.0350
T04C0.0354
T05C0.0400
T06C0.1280
T07C0.1300
T08C0.1500
%
T01
X6552Y16431
X5552Y19931
X7802Y19931
X8552Y20431
X3302Y18931
T02
X5802Y29431
X5802Y30431
X7302Y29431
X8302Y29431
X9802Y29431
X9802Y30431
T03
X9802Y18231
X10302Y17231
X10802Y18231
X11302Y17231
X11802Y18231
X12302Y17231
X12802Y18231
X9302Y17231
X6302Y18231
X5802Y17231
X5302Y18231
X4802Y17231
X4302Y18231
X3802Y17231
X3302Y18231
X2802Y17231
T04
X7052Y31431
X7802Y31431
X8552Y31431
T05
X8552Y21181
X9552Y21181
X10552Y21181
X11552Y21181
X7552Y21181
X6552Y21181
X5552Y21181
X4552Y21181
T06
X2302Y14731
X6802Y14731
X8802Y14731
X13302Y14731
T07
X12552Y9681
X12552Y26681
X3052Y26681
X3052Y9681
T08
X3052Y1681
X7802Y1681
X12552Y1681
M30
