G75*
G70*
%OFA0B0*%
%FSLAX24Y24*%
%IPPOS*%
%LPD*%
%AMOC8*
5,1,8,0,0,1.08239X$1,22.5*
%
%ADD10C,0.0050*%
%ADD11C,0.0030*%
%ADD12OC8,0.0520*%
%ADD13C,0.0550*%
%ADD14OC8,0.0554*%
%ADD15R,0.0600X0.0600*%
%ADD16C,0.0600*%
%ADD17C,0.0160*%
%ADD18C,0.0320*%
D10*
X004649Y000699D02*
X004750Y000597D01*
X004954Y000597D01*
X005056Y000699D01*
X005056Y001106D01*
X004954Y001207D01*
X004750Y001207D01*
X004649Y001106D01*
X004649Y000699D01*
X005256Y000597D02*
X005562Y000597D01*
X005663Y000699D01*
X005663Y000902D01*
X005562Y001004D01*
X005256Y001004D01*
X005256Y000393D01*
X005864Y000699D02*
X005864Y000902D01*
X005966Y001004D01*
X006169Y001004D01*
X006271Y000902D01*
X006271Y000800D01*
X005864Y000800D01*
X005864Y000699D02*
X005966Y000597D01*
X006169Y000597D01*
X006472Y000597D02*
X006472Y001004D01*
X006777Y001004D01*
X006879Y000902D01*
X006879Y000597D01*
X007080Y000699D02*
X007181Y000597D01*
X007385Y000597D01*
X007487Y000699D01*
X007487Y000800D01*
X007385Y000902D01*
X007181Y000902D01*
X007080Y001004D01*
X007080Y001106D01*
X007181Y001207D01*
X007385Y001207D01*
X007487Y001106D01*
X007687Y001004D02*
X007992Y001004D01*
X008094Y000902D01*
X008094Y000699D01*
X007992Y000597D01*
X007687Y000597D01*
X007687Y000393D02*
X007687Y001004D01*
X008295Y001004D02*
X008295Y000597D01*
X008295Y000800D02*
X008498Y001004D01*
X008600Y001004D01*
X008801Y001004D02*
X008903Y001004D01*
X008903Y000597D01*
X008801Y000597D02*
X009005Y000597D01*
X009206Y000597D02*
X009206Y001004D01*
X009512Y001004D01*
X009614Y000902D01*
X009614Y000597D01*
X009916Y000699D02*
X010018Y000597D01*
X009916Y000699D02*
X009916Y001106D01*
X009814Y001004D02*
X010018Y001004D01*
X010219Y000902D02*
X010321Y001004D01*
X010626Y001004D01*
X010525Y000800D02*
X010626Y000699D01*
X010525Y000597D01*
X010219Y000597D01*
X010321Y000800D02*
X010219Y000902D01*
X010321Y000800D02*
X010525Y000800D01*
X008903Y001207D02*
X008903Y001309D01*
D11*
X010667Y013997D02*
X010914Y013997D01*
X011037Y014120D01*
X010914Y014244D01*
X010667Y014244D01*
X010729Y014365D02*
X010667Y014427D01*
X010667Y014550D01*
X010729Y014612D01*
X010975Y014612D01*
X011037Y014550D01*
X011037Y014427D01*
X010975Y014365D01*
X010729Y014365D01*
X010667Y014733D02*
X010975Y014733D01*
X011037Y014795D01*
X011037Y014919D01*
X010975Y014980D01*
X010667Y014980D01*
X010667Y015102D02*
X010667Y015349D01*
X010667Y015225D02*
X011037Y015225D01*
X006037Y014919D02*
X006037Y014733D01*
X005667Y014733D01*
X005667Y014919D01*
X005729Y014980D01*
X005975Y014980D01*
X006037Y014919D01*
X006037Y014612D02*
X005667Y014612D01*
X005667Y014365D02*
X006037Y014612D01*
X006037Y014365D02*
X005667Y014365D01*
X005729Y014244D02*
X005667Y014182D01*
X005667Y014059D01*
X005729Y013997D01*
X005975Y013997D01*
X006037Y014059D01*
X006037Y014182D01*
X005975Y014244D01*
X005852Y014244D01*
X005852Y014120D01*
X004037Y014120D02*
X003914Y014244D01*
X003667Y014244D01*
X003729Y014365D02*
X003975Y014365D01*
X004037Y014427D01*
X004037Y014550D01*
X003975Y014612D01*
X003975Y014733D02*
X004037Y014795D01*
X004037Y014919D01*
X003975Y014980D01*
X003975Y014733D02*
X003729Y014733D01*
X003667Y014795D01*
X003667Y014919D01*
X003729Y014980D01*
X003729Y014612D02*
X003667Y014550D01*
X003667Y014427D01*
X003729Y014365D01*
X003667Y013997D02*
X003914Y013997D01*
X004037Y014120D01*
D12*
X005302Y020482D03*
X006302Y020482D03*
X006802Y021982D03*
X007802Y021982D03*
X009802Y021982D03*
X010802Y021982D03*
D13*
X010802Y009532D03*
X010302Y008532D03*
X009802Y009532D03*
X009302Y008532D03*
X011302Y008532D03*
X011802Y009532D03*
X012302Y008532D03*
X012802Y009532D03*
X006302Y009532D03*
X005802Y008532D03*
X005302Y009532D03*
X004802Y008532D03*
X004302Y009532D03*
X003802Y008532D03*
X003302Y009532D03*
X002802Y008532D03*
D14*
X007052Y023482D03*
X007802Y023482D03*
X008552Y023482D03*
D15*
X004552Y014482D03*
D16*
X005552Y014482D03*
X006552Y014482D03*
X007552Y014482D03*
X008552Y014482D03*
X009552Y014482D03*
X010552Y014482D03*
X011552Y014482D03*
D17*
X006602Y009532D01*
X006302Y009532D01*
X005802Y009732D02*
X010552Y014482D01*
X009552Y014482D02*
X005302Y010232D01*
X005302Y009532D01*
X005802Y009732D02*
X005802Y008532D01*
X004802Y008532D02*
X004802Y010732D01*
X008552Y014482D01*
X007552Y014482D02*
X004302Y011232D01*
X004302Y009532D01*
X003802Y008532D02*
X003802Y011732D01*
X006552Y014482D01*
X005552Y014482D02*
X003302Y012232D01*
X003302Y009532D01*
X002802Y008532D02*
X002802Y012732D01*
X004552Y014482D01*
D18*
X004552Y020982D01*
X005052Y020482D01*
X005302Y020482D01*
X004552Y020982D02*
X007052Y023482D01*
X006802Y023232D01*
X006802Y021982D01*
X007802Y021982D02*
X007802Y020232D01*
X005552Y017982D01*
X005552Y014482D01*
X006552Y014482D02*
X006552Y017732D01*
X010802Y021982D01*
X010802Y022232D01*
X009552Y023482D01*
X008552Y023482D01*
X007802Y023482D02*
X007802Y021982D01*
M02*
