%
M48
M72
T01C0.0320
T02C0.0350
T03C0.0354
T04C0.0400
T05C0.1280
T06C0.1300
%
T01
X5302Y20482
X6302Y20482
X6802Y21982
X7802Y21982
X9802Y21982
X10802Y21982
T02
X10802Y9532
X10302Y8532
X9802Y9532
X9302Y8532
X11302Y8532
X11802Y9532
X12302Y8532
X12802Y9532
X6302Y9532
X5802Y8532
X5302Y9532
X4802Y8532
X4302Y9532
X3802Y8532
X3302Y9532
X2802Y8532
T03
X7052Y23482
X7802Y23482
X8552Y23482
T04
X8552Y14482
X9552Y14482
X10552Y14482
X11552Y14482
X7552Y14482
X6552Y14482
X5552Y14482
X4552Y14482
T05
X2302Y6032
X6802Y6032
X8802Y6032
X13302Y6032
T06
X2552Y1232
X2552Y18732
X13052Y18732
X13052Y1232
M30
