G75*
G70*
%OFA0B0*%
%FSLAX24Y24*%
%IPPOS*%
%LPD*%
%AMOC8*
5,1,8,0,0,1.08239X$1,22.5*
%
%ADD10C,0.0050*%
%ADD11OC8,0.0520*%
%ADD12C,0.0550*%
%ADD13OC8,0.0554*%
%ADD14R,0.0600X0.0600*%
%ADD15C,0.0600*%
%ADD16C,0.0160*%
%ADD17C,0.0320*%
D10*
X003582Y015597D02*
X003989Y015597D01*
X004189Y015699D02*
X004291Y015597D01*
X004393Y015597D01*
X004495Y015699D01*
X004495Y016207D01*
X004596Y016207D02*
X004393Y016207D01*
X004797Y016106D02*
X004797Y015699D01*
X004899Y015597D01*
X005102Y015597D01*
X005204Y015699D01*
X005204Y016106D01*
X005102Y016207D01*
X004899Y016207D01*
X004797Y016106D01*
X004757Y017097D02*
X004757Y017707D01*
X004655Y017707D01*
X004352Y017504D02*
X004454Y017402D01*
X004454Y017199D01*
X004352Y017097D01*
X004149Y017097D01*
X004047Y017199D01*
X004047Y017402D01*
X004149Y017504D01*
X004352Y017504D01*
X004655Y017097D02*
X004858Y017097D01*
X005060Y017097D02*
X005263Y017097D01*
X005162Y017097D02*
X005162Y017707D01*
X005060Y017707D01*
X005465Y017402D02*
X005465Y017199D01*
X005567Y017097D01*
X005770Y017097D01*
X005872Y017300D02*
X005465Y017300D01*
X005465Y017402D02*
X005567Y017504D01*
X005770Y017504D01*
X005872Y017402D01*
X005872Y017300D01*
X006073Y017300D02*
X006276Y017504D01*
X006378Y017504D01*
X006073Y017504D02*
X006073Y017097D01*
X006114Y016207D02*
X006318Y016207D01*
X006420Y016106D01*
X006420Y016004D01*
X006013Y015597D01*
X006420Y015597D01*
X006620Y015699D02*
X007027Y016106D01*
X007027Y015699D01*
X006926Y015597D01*
X006722Y015597D01*
X006620Y015699D01*
X006620Y016106D01*
X006722Y016207D01*
X006926Y016207D01*
X007027Y016106D01*
X007228Y016106D02*
X007330Y016207D01*
X007533Y016207D01*
X007635Y016106D01*
X007228Y015699D01*
X007330Y015597D01*
X007533Y015597D01*
X007635Y015699D01*
X007635Y016106D01*
X007836Y016106D02*
X007836Y016004D01*
X007937Y015902D01*
X008141Y015902D01*
X008243Y015800D01*
X008243Y015699D01*
X008141Y015597D01*
X007937Y015597D01*
X007836Y015699D01*
X007836Y015800D01*
X007937Y015902D01*
X008141Y015902D02*
X008243Y016004D01*
X008243Y016106D01*
X008141Y016207D01*
X007937Y016207D01*
X007836Y016106D01*
X007896Y017097D02*
X008100Y017097D01*
X008202Y017300D02*
X007795Y017300D01*
X007795Y017199D02*
X007795Y017402D01*
X007896Y017504D01*
X008100Y017504D01*
X008202Y017402D01*
X008202Y017300D01*
X008402Y017097D02*
X008402Y017504D01*
X008708Y017504D01*
X008809Y017402D01*
X008809Y017097D01*
X009010Y017097D02*
X009315Y017097D01*
X009417Y017199D01*
X009315Y017300D01*
X009112Y017300D01*
X009010Y017402D01*
X009112Y017504D01*
X009417Y017504D01*
X009618Y017402D02*
X009618Y017199D01*
X009720Y017097D01*
X009923Y017097D01*
X010025Y017199D01*
X010025Y017402D01*
X009923Y017504D01*
X009720Y017504D01*
X009618Y017402D01*
X010226Y017300D02*
X010429Y017504D01*
X010531Y017504D01*
X010226Y017504D02*
X010226Y017097D01*
X010368Y016207D02*
X010572Y016207D01*
X010674Y016106D01*
X010674Y016004D01*
X010267Y015597D01*
X010674Y015597D01*
X010874Y015597D02*
X011281Y015597D01*
X011078Y015597D02*
X011078Y016207D01*
X010874Y016004D01*
X010368Y016207D02*
X010267Y016106D01*
X010064Y015699D02*
X010064Y015597D01*
X009963Y015597D01*
X009963Y015699D01*
X010064Y015699D01*
X009762Y016106D02*
X009355Y015699D01*
X009355Y015597D01*
X009154Y015699D02*
X009154Y016106D01*
X008747Y015699D01*
X008849Y015597D01*
X009053Y015597D01*
X009154Y015699D01*
X009154Y016106D02*
X009053Y016207D01*
X008849Y016207D01*
X008747Y016106D01*
X008747Y015699D01*
X008545Y015699D02*
X008545Y015597D01*
X008443Y015597D01*
X008443Y015699D01*
X008545Y015699D01*
X007896Y017097D02*
X007795Y017199D01*
X007594Y017199D02*
X007492Y017097D01*
X007187Y017097D01*
X007289Y017300D02*
X007187Y017402D01*
X007289Y017504D01*
X007594Y017504D01*
X007492Y017300D02*
X007289Y017300D01*
X007492Y017300D02*
X007594Y017199D01*
X007228Y016106D02*
X007228Y015699D01*
X006114Y016207D02*
X006013Y016106D01*
X003846Y017504D02*
X003744Y017504D01*
X003541Y017300D01*
X003541Y017097D02*
X003541Y017504D01*
X003582Y016207D02*
X003582Y015597D01*
X009355Y016207D02*
X009762Y016207D01*
X009762Y016106D01*
D11*
X009957Y020482D03*
X008957Y020482D03*
X008457Y021982D03*
X007457Y021982D03*
X005457Y021982D03*
X004457Y021982D03*
D12*
X002957Y008532D03*
X002457Y009532D03*
X003457Y009532D03*
X003957Y008532D03*
X004457Y009532D03*
X004957Y008532D03*
X005457Y009532D03*
X005957Y008532D03*
X008957Y009532D03*
X009457Y008532D03*
X009957Y009532D03*
X010457Y008532D03*
X010957Y009532D03*
X011457Y008532D03*
X011957Y009532D03*
X012457Y008532D03*
D13*
X008207Y023482D03*
X007457Y023482D03*
X006707Y023482D03*
D14*
X010707Y014482D03*
D15*
X009707Y014482D03*
X008707Y014482D03*
X007707Y014482D03*
X006707Y014482D03*
X005707Y014482D03*
X004707Y014482D03*
X003707Y014482D03*
D16*
X002457Y013232D01*
X002457Y009532D01*
X002957Y008532D02*
X002957Y012732D01*
X004707Y014482D01*
X005707Y014482D02*
X003457Y012232D01*
X003457Y009532D01*
X003957Y008532D02*
X003957Y011732D01*
X006707Y014482D01*
X007707Y014482D02*
X004457Y011232D01*
X004457Y009532D01*
X004957Y008532D02*
X004957Y010732D01*
X008707Y014482D01*
X009707Y014482D02*
X005457Y010232D01*
X005457Y009532D01*
X005957Y009732D02*
X005957Y008532D01*
X005957Y009732D02*
X010707Y014482D01*
D17*
X008957Y020482D02*
X008457Y020482D01*
X007957Y020982D01*
X006457Y020982D01*
X005457Y021982D01*
M02*
