G75*
G70*
%OFA0B0*%
%FSLAX24Y24*%
%IPPOS*%
%LPD*%
%AMOC8*
5,1,8,0,0,1.08239X$1,22.5*
%
%ADD10OC8,0.0600*%
%ADD11C,0.1360*%
%ADD12C,0.0630*%
%ADD13OC8,0.0634*%
%ADD14R,0.0680X0.0680*%
%ADD15C,0.0680*%
%ADD16C,0.1380*%
D10*
X008957Y020482D03*
X008457Y021982D03*
X007457Y021982D03*
X005457Y021982D03*
X004457Y021982D03*
X009957Y020482D03*
D11*
X008457Y006032D03*
X006457Y006032D03*
X001957Y006032D03*
X012957Y006032D03*
D12*
X012457Y008532D03*
X011957Y009532D03*
X011457Y008532D03*
X010957Y009532D03*
X010457Y008532D03*
X009957Y009532D03*
X009457Y008532D03*
X008957Y009532D03*
X005957Y008532D03*
X005457Y009532D03*
X004957Y008532D03*
X004457Y009532D03*
X003957Y008532D03*
X003457Y009532D03*
X002957Y008532D03*
X002457Y009532D03*
D13*
X006707Y023482D03*
X007457Y023482D03*
X008207Y023482D03*
D14*
X010707Y014482D03*
D15*
X009707Y014482D03*
X008707Y014482D03*
X007707Y014482D03*
X006707Y014482D03*
X005707Y014482D03*
X004707Y014482D03*
X003707Y014482D03*
D16*
X002207Y001232D03*
X002207Y018732D03*
X012707Y018732D03*
X012707Y001232D03*
M02*
