G75*
G70*
%OFA0B0*%
%FSLAX24Y24*%
%IPPOS*%
%LPD*%
%AMOC8*
5,1,8,0,0,1.08239X$1,22.5*
%
%ADD10C,0.0160*%
%ADD11C,0.0050*%
%ADD12C,0.0030*%
%ADD13OC8,0.0520*%
%ADD14C,0.0000*%
%ADD15C,0.0550*%
%ADD16OC8,0.0554*%
%ADD17R,0.0600X0.0600*%
%ADD18C,0.0600*%
%ADD19C,0.0320*%
D10*
X001557Y000234D02*
X001557Y024480D01*
X014077Y024480D01*
X014077Y000234D01*
X001557Y000234D01*
X002802Y008532D02*
X002802Y012732D01*
X004552Y014482D01*
X005552Y014482D02*
X003302Y012232D01*
X003302Y009532D01*
X003802Y008532D02*
X003802Y011732D01*
X006552Y014482D01*
X007552Y014482D02*
X004302Y011232D01*
X004302Y009532D01*
X004802Y008532D02*
X004802Y010732D01*
X008552Y014482D01*
X009552Y014482D02*
X005302Y010232D01*
X005302Y009532D01*
X005802Y009732D02*
X005802Y008532D01*
X006302Y009532D02*
X006602Y009532D01*
X011552Y014482D01*
X010552Y014482D02*
X005802Y009732D01*
D11*
X008903Y001309D02*
X008903Y001207D01*
X008903Y001004D02*
X008801Y001004D01*
X008903Y001004D02*
X008903Y000597D01*
X008801Y000597D02*
X009005Y000597D01*
X009206Y000597D02*
X009206Y001004D01*
X009512Y001004D01*
X009614Y000902D01*
X009614Y000597D01*
X009916Y000699D02*
X010018Y000597D01*
X009916Y000699D02*
X009916Y001106D01*
X009814Y001004D02*
X010018Y001004D01*
X010219Y000902D02*
X010321Y001004D01*
X010626Y001004D01*
X010525Y000800D02*
X010626Y000699D01*
X010525Y000597D01*
X010219Y000597D01*
X010321Y000800D02*
X010219Y000902D01*
X010321Y000800D02*
X010525Y000800D01*
X008600Y001004D02*
X008498Y001004D01*
X008295Y000800D01*
X008295Y000597D02*
X008295Y001004D01*
X008094Y000902D02*
X008094Y000699D01*
X007992Y000597D01*
X007687Y000597D01*
X007687Y000393D02*
X007687Y001004D01*
X007992Y001004D01*
X008094Y000902D01*
X007487Y000800D02*
X007487Y000699D01*
X007385Y000597D01*
X007181Y000597D01*
X007080Y000699D01*
X006879Y000597D02*
X006879Y000902D01*
X006777Y001004D01*
X006472Y001004D01*
X006472Y000597D01*
X006271Y000800D02*
X005864Y000800D01*
X005864Y000699D02*
X005864Y000902D01*
X005966Y001004D01*
X006169Y001004D01*
X006271Y000902D01*
X006271Y000800D01*
X006169Y000597D02*
X005966Y000597D01*
X005864Y000699D01*
X005663Y000699D02*
X005663Y000902D01*
X005562Y001004D01*
X005256Y001004D01*
X005256Y000393D01*
X005256Y000597D02*
X005562Y000597D01*
X005663Y000699D01*
X005056Y000699D02*
X005056Y001106D01*
X004954Y001207D01*
X004750Y001207D01*
X004649Y001106D01*
X004649Y000699D01*
X004750Y000597D01*
X004954Y000597D01*
X005056Y000699D01*
X007080Y001004D02*
X007181Y000902D01*
X007385Y000902D01*
X007487Y000800D01*
X007487Y001106D02*
X007385Y001207D01*
X007181Y001207D01*
X007080Y001106D01*
X007080Y001004D01*
D12*
X006164Y015247D02*
X005917Y015247D01*
X005917Y015494D02*
X006164Y015494D01*
X006287Y015370D01*
X006164Y015247D01*
X006225Y015615D02*
X005979Y015615D01*
X005917Y015677D01*
X005917Y015800D01*
X005979Y015862D01*
X006225Y015862D01*
X006287Y015800D01*
X006287Y015677D01*
X006225Y015615D01*
X006225Y015983D02*
X006287Y016045D01*
X006287Y016169D01*
X006225Y016230D01*
X005917Y016230D01*
X005917Y016352D02*
X005917Y016599D01*
X005917Y016475D02*
X006287Y016475D01*
X006225Y015983D02*
X005917Y015983D01*
X005287Y015983D02*
X005287Y016169D01*
X005225Y016230D01*
X004979Y016230D01*
X004917Y016169D01*
X004917Y015983D01*
X005287Y015983D01*
X005287Y015862D02*
X004917Y015862D01*
X004917Y015615D02*
X005287Y015862D01*
X005287Y015615D02*
X004917Y015615D01*
X004979Y015494D02*
X004917Y015432D01*
X004917Y015309D01*
X004979Y015247D01*
X005225Y015247D01*
X005287Y015309D01*
X005287Y015432D01*
X005225Y015494D01*
X005102Y015494D01*
X005102Y015370D01*
X004287Y015370D02*
X004164Y015494D01*
X003917Y015494D01*
X003979Y015615D02*
X003917Y015677D01*
X003917Y015800D01*
X003979Y015862D01*
X003979Y015983D02*
X004225Y015983D01*
X004287Y016045D01*
X004287Y016169D01*
X004225Y016230D01*
X003979Y016230D02*
X003917Y016169D01*
X003917Y016045D01*
X003979Y015983D01*
X004225Y015862D02*
X004287Y015800D01*
X004287Y015677D01*
X004225Y015615D01*
X003979Y015615D01*
X003917Y015247D02*
X004164Y015247D01*
X004287Y015370D01*
D13*
X005302Y020482D03*
X006302Y020482D03*
X006802Y021982D03*
X007802Y021982D03*
X009802Y021982D03*
X010802Y021982D03*
D14*
X012402Y018732D02*
X012405Y018791D01*
X012413Y018850D01*
X012426Y018907D01*
X012445Y018964D01*
X012468Y019018D01*
X012497Y019070D01*
X012530Y019119D01*
X012567Y019165D01*
X012608Y019207D01*
X012653Y019245D01*
X012702Y019280D01*
X012753Y019309D01*
X012807Y019334D01*
X012862Y019354D01*
X012920Y019368D01*
X012978Y019378D01*
X013037Y019382D01*
X013096Y019380D01*
X013155Y019374D01*
X013213Y019362D01*
X013270Y019344D01*
X013324Y019322D01*
X013377Y019295D01*
X013427Y019263D01*
X013474Y019227D01*
X013517Y019186D01*
X013556Y019142D01*
X013591Y019095D01*
X013622Y019044D01*
X013648Y018991D01*
X013669Y018936D01*
X013685Y018879D01*
X013696Y018821D01*
X013701Y018762D01*
X013701Y018702D01*
X013696Y018643D01*
X013685Y018585D01*
X013669Y018528D01*
X013648Y018473D01*
X013622Y018420D01*
X013591Y018369D01*
X013556Y018322D01*
X013517Y018278D01*
X013474Y018237D01*
X013427Y018201D01*
X013377Y018169D01*
X013324Y018142D01*
X013270Y018120D01*
X013213Y018102D01*
X013155Y018090D01*
X013096Y018084D01*
X013037Y018082D01*
X012978Y018086D01*
X012920Y018096D01*
X012862Y018110D01*
X012807Y018130D01*
X012753Y018155D01*
X012702Y018184D01*
X012653Y018219D01*
X012608Y018257D01*
X012567Y018299D01*
X012530Y018345D01*
X012497Y018394D01*
X012468Y018446D01*
X012445Y018500D01*
X012426Y018557D01*
X012413Y018614D01*
X012405Y018673D01*
X012402Y018732D01*
X012662Y006032D02*
X012665Y006090D01*
X012673Y006148D01*
X012686Y006205D01*
X012704Y006260D01*
X012727Y006313D01*
X012755Y006365D01*
X012788Y006413D01*
X012824Y006458D01*
X012865Y006500D01*
X012910Y006538D01*
X012957Y006571D01*
X013008Y006600D01*
X013060Y006625D01*
X013115Y006644D01*
X013172Y006659D01*
X013229Y006668D01*
X013287Y006672D01*
X013346Y006671D01*
X013404Y006664D01*
X013461Y006652D01*
X013516Y006635D01*
X013570Y006613D01*
X013622Y006586D01*
X013671Y006555D01*
X013717Y006519D01*
X013760Y006479D01*
X013798Y006436D01*
X013833Y006389D01*
X013863Y006339D01*
X013889Y006287D01*
X013910Y006233D01*
X013925Y006176D01*
X013936Y006119D01*
X013941Y006061D01*
X013941Y006003D01*
X013936Y005945D01*
X013925Y005888D01*
X013910Y005831D01*
X013889Y005777D01*
X013863Y005725D01*
X013833Y005675D01*
X013798Y005628D01*
X013760Y005585D01*
X013717Y005545D01*
X013671Y005509D01*
X013622Y005478D01*
X013570Y005451D01*
X013516Y005429D01*
X013461Y005412D01*
X013404Y005400D01*
X013346Y005393D01*
X013287Y005392D01*
X013229Y005396D01*
X013172Y005405D01*
X013115Y005420D01*
X013060Y005439D01*
X013008Y005464D01*
X012957Y005493D01*
X012910Y005526D01*
X012865Y005564D01*
X012824Y005606D01*
X012788Y005651D01*
X012755Y005699D01*
X012727Y005751D01*
X012704Y005804D01*
X012686Y005859D01*
X012673Y005916D01*
X012665Y005974D01*
X012662Y006032D01*
X012402Y001232D02*
X012405Y001291D01*
X012413Y001350D01*
X012426Y001407D01*
X012445Y001464D01*
X012468Y001518D01*
X012497Y001570D01*
X012530Y001619D01*
X012567Y001665D01*
X012608Y001707D01*
X012653Y001745D01*
X012702Y001780D01*
X012753Y001809D01*
X012807Y001834D01*
X012862Y001854D01*
X012920Y001868D01*
X012978Y001878D01*
X013037Y001882D01*
X013096Y001880D01*
X013155Y001874D01*
X013213Y001862D01*
X013270Y001844D01*
X013324Y001822D01*
X013377Y001795D01*
X013427Y001763D01*
X013474Y001727D01*
X013517Y001686D01*
X013556Y001642D01*
X013591Y001595D01*
X013622Y001544D01*
X013648Y001491D01*
X013669Y001436D01*
X013685Y001379D01*
X013696Y001321D01*
X013701Y001262D01*
X013701Y001202D01*
X013696Y001143D01*
X013685Y001085D01*
X013669Y001028D01*
X013648Y000973D01*
X013622Y000920D01*
X013591Y000869D01*
X013556Y000822D01*
X013517Y000778D01*
X013474Y000737D01*
X013427Y000701D01*
X013377Y000669D01*
X013324Y000642D01*
X013270Y000620D01*
X013213Y000602D01*
X013155Y000590D01*
X013096Y000584D01*
X013037Y000582D01*
X012978Y000586D01*
X012920Y000596D01*
X012862Y000610D01*
X012807Y000630D01*
X012753Y000655D01*
X012702Y000684D01*
X012653Y000719D01*
X012608Y000757D01*
X012567Y000799D01*
X012530Y000845D01*
X012497Y000894D01*
X012468Y000946D01*
X012445Y001000D01*
X012426Y001057D01*
X012413Y001114D01*
X012405Y001173D01*
X012402Y001232D01*
X008162Y006032D02*
X008165Y006090D01*
X008173Y006148D01*
X008186Y006205D01*
X008204Y006260D01*
X008227Y006313D01*
X008255Y006365D01*
X008288Y006413D01*
X008324Y006458D01*
X008365Y006500D01*
X008410Y006538D01*
X008457Y006571D01*
X008508Y006600D01*
X008560Y006625D01*
X008615Y006644D01*
X008672Y006659D01*
X008729Y006668D01*
X008787Y006672D01*
X008846Y006671D01*
X008904Y006664D01*
X008961Y006652D01*
X009016Y006635D01*
X009070Y006613D01*
X009122Y006586D01*
X009171Y006555D01*
X009217Y006519D01*
X009260Y006479D01*
X009298Y006436D01*
X009333Y006389D01*
X009363Y006339D01*
X009389Y006287D01*
X009410Y006233D01*
X009425Y006176D01*
X009436Y006119D01*
X009441Y006061D01*
X009441Y006003D01*
X009436Y005945D01*
X009425Y005888D01*
X009410Y005831D01*
X009389Y005777D01*
X009363Y005725D01*
X009333Y005675D01*
X009298Y005628D01*
X009260Y005585D01*
X009217Y005545D01*
X009171Y005509D01*
X009122Y005478D01*
X009070Y005451D01*
X009016Y005429D01*
X008961Y005412D01*
X008904Y005400D01*
X008846Y005393D01*
X008787Y005392D01*
X008729Y005396D01*
X008672Y005405D01*
X008615Y005420D01*
X008560Y005439D01*
X008508Y005464D01*
X008457Y005493D01*
X008410Y005526D01*
X008365Y005564D01*
X008324Y005606D01*
X008288Y005651D01*
X008255Y005699D01*
X008227Y005751D01*
X008204Y005804D01*
X008186Y005859D01*
X008173Y005916D01*
X008165Y005974D01*
X008162Y006032D01*
X006162Y006032D02*
X006165Y006090D01*
X006173Y006148D01*
X006186Y006205D01*
X006204Y006260D01*
X006227Y006313D01*
X006255Y006365D01*
X006288Y006413D01*
X006324Y006458D01*
X006365Y006500D01*
X006410Y006538D01*
X006457Y006571D01*
X006508Y006600D01*
X006560Y006625D01*
X006615Y006644D01*
X006672Y006659D01*
X006729Y006668D01*
X006787Y006672D01*
X006846Y006671D01*
X006904Y006664D01*
X006961Y006652D01*
X007016Y006635D01*
X007070Y006613D01*
X007122Y006586D01*
X007171Y006555D01*
X007217Y006519D01*
X007260Y006479D01*
X007298Y006436D01*
X007333Y006389D01*
X007363Y006339D01*
X007389Y006287D01*
X007410Y006233D01*
X007425Y006176D01*
X007436Y006119D01*
X007441Y006061D01*
X007441Y006003D01*
X007436Y005945D01*
X007425Y005888D01*
X007410Y005831D01*
X007389Y005777D01*
X007363Y005725D01*
X007333Y005675D01*
X007298Y005628D01*
X007260Y005585D01*
X007217Y005545D01*
X007171Y005509D01*
X007122Y005478D01*
X007070Y005451D01*
X007016Y005429D01*
X006961Y005412D01*
X006904Y005400D01*
X006846Y005393D01*
X006787Y005392D01*
X006729Y005396D01*
X006672Y005405D01*
X006615Y005420D01*
X006560Y005439D01*
X006508Y005464D01*
X006457Y005493D01*
X006410Y005526D01*
X006365Y005564D01*
X006324Y005606D01*
X006288Y005651D01*
X006255Y005699D01*
X006227Y005751D01*
X006204Y005804D01*
X006186Y005859D01*
X006173Y005916D01*
X006165Y005974D01*
X006162Y006032D01*
X001902Y001232D02*
X001905Y001291D01*
X001913Y001350D01*
X001926Y001407D01*
X001945Y001464D01*
X001968Y001518D01*
X001997Y001570D01*
X002030Y001619D01*
X002067Y001665D01*
X002108Y001707D01*
X002153Y001745D01*
X002202Y001780D01*
X002253Y001809D01*
X002307Y001834D01*
X002362Y001854D01*
X002420Y001868D01*
X002478Y001878D01*
X002537Y001882D01*
X002596Y001880D01*
X002655Y001874D01*
X002713Y001862D01*
X002770Y001844D01*
X002824Y001822D01*
X002877Y001795D01*
X002927Y001763D01*
X002974Y001727D01*
X003017Y001686D01*
X003056Y001642D01*
X003091Y001595D01*
X003122Y001544D01*
X003148Y001491D01*
X003169Y001436D01*
X003185Y001379D01*
X003196Y001321D01*
X003201Y001262D01*
X003201Y001202D01*
X003196Y001143D01*
X003185Y001085D01*
X003169Y001028D01*
X003148Y000973D01*
X003122Y000920D01*
X003091Y000869D01*
X003056Y000822D01*
X003017Y000778D01*
X002974Y000737D01*
X002927Y000701D01*
X002877Y000669D01*
X002824Y000642D01*
X002770Y000620D01*
X002713Y000602D01*
X002655Y000590D01*
X002596Y000584D01*
X002537Y000582D01*
X002478Y000586D01*
X002420Y000596D01*
X002362Y000610D01*
X002307Y000630D01*
X002253Y000655D01*
X002202Y000684D01*
X002153Y000719D01*
X002108Y000757D01*
X002067Y000799D01*
X002030Y000845D01*
X001997Y000894D01*
X001968Y000946D01*
X001945Y001000D01*
X001926Y001057D01*
X001913Y001114D01*
X001905Y001173D01*
X001902Y001232D01*
X001662Y006032D02*
X001665Y006090D01*
X001673Y006148D01*
X001686Y006205D01*
X001704Y006260D01*
X001727Y006313D01*
X001755Y006365D01*
X001788Y006413D01*
X001824Y006458D01*
X001865Y006500D01*
X001910Y006538D01*
X001957Y006571D01*
X002008Y006600D01*
X002060Y006625D01*
X002115Y006644D01*
X002172Y006659D01*
X002229Y006668D01*
X002287Y006672D01*
X002346Y006671D01*
X002404Y006664D01*
X002461Y006652D01*
X002516Y006635D01*
X002570Y006613D01*
X002622Y006586D01*
X002671Y006555D01*
X002717Y006519D01*
X002760Y006479D01*
X002798Y006436D01*
X002833Y006389D01*
X002863Y006339D01*
X002889Y006287D01*
X002910Y006233D01*
X002925Y006176D01*
X002936Y006119D01*
X002941Y006061D01*
X002941Y006003D01*
X002936Y005945D01*
X002925Y005888D01*
X002910Y005831D01*
X002889Y005777D01*
X002863Y005725D01*
X002833Y005675D01*
X002798Y005628D01*
X002760Y005585D01*
X002717Y005545D01*
X002671Y005509D01*
X002622Y005478D01*
X002570Y005451D01*
X002516Y005429D01*
X002461Y005412D01*
X002404Y005400D01*
X002346Y005393D01*
X002287Y005392D01*
X002229Y005396D01*
X002172Y005405D01*
X002115Y005420D01*
X002060Y005439D01*
X002008Y005464D01*
X001957Y005493D01*
X001910Y005526D01*
X001865Y005564D01*
X001824Y005606D01*
X001788Y005651D01*
X001755Y005699D01*
X001727Y005751D01*
X001704Y005804D01*
X001686Y005859D01*
X001673Y005916D01*
X001665Y005974D01*
X001662Y006032D01*
X001902Y018732D02*
X001905Y018791D01*
X001913Y018850D01*
X001926Y018907D01*
X001945Y018964D01*
X001968Y019018D01*
X001997Y019070D01*
X002030Y019119D01*
X002067Y019165D01*
X002108Y019207D01*
X002153Y019245D01*
X002202Y019280D01*
X002253Y019309D01*
X002307Y019334D01*
X002362Y019354D01*
X002420Y019368D01*
X002478Y019378D01*
X002537Y019382D01*
X002596Y019380D01*
X002655Y019374D01*
X002713Y019362D01*
X002770Y019344D01*
X002824Y019322D01*
X002877Y019295D01*
X002927Y019263D01*
X002974Y019227D01*
X003017Y019186D01*
X003056Y019142D01*
X003091Y019095D01*
X003122Y019044D01*
X003148Y018991D01*
X003169Y018936D01*
X003185Y018879D01*
X003196Y018821D01*
X003201Y018762D01*
X003201Y018702D01*
X003196Y018643D01*
X003185Y018585D01*
X003169Y018528D01*
X003148Y018473D01*
X003122Y018420D01*
X003091Y018369D01*
X003056Y018322D01*
X003017Y018278D01*
X002974Y018237D01*
X002927Y018201D01*
X002877Y018169D01*
X002824Y018142D01*
X002770Y018120D01*
X002713Y018102D01*
X002655Y018090D01*
X002596Y018084D01*
X002537Y018082D01*
X002478Y018086D01*
X002420Y018096D01*
X002362Y018110D01*
X002307Y018130D01*
X002253Y018155D01*
X002202Y018184D01*
X002153Y018219D01*
X002108Y018257D01*
X002067Y018299D01*
X002030Y018345D01*
X001997Y018394D01*
X001968Y018446D01*
X001945Y018500D01*
X001926Y018557D01*
X001913Y018614D01*
X001905Y018673D01*
X001902Y018732D01*
D15*
X003302Y009532D03*
X002802Y008532D03*
X003802Y008532D03*
X004302Y009532D03*
X004802Y008532D03*
X005302Y009532D03*
X005802Y008532D03*
X006302Y009532D03*
X009302Y008532D03*
X009802Y009532D03*
X010302Y008532D03*
X010802Y009532D03*
X011302Y008532D03*
X011802Y009532D03*
X012302Y008532D03*
X012802Y009532D03*
D16*
X008552Y023482D03*
X007802Y023482D03*
X007052Y023482D03*
D17*
X004552Y014482D03*
D18*
X005552Y014482D03*
X006552Y014482D03*
X007552Y014482D03*
X008552Y014482D03*
X009552Y014482D03*
X010552Y014482D03*
X011552Y014482D03*
D19*
X007802Y020232D02*
X007802Y021982D01*
X007802Y023482D01*
X007052Y023482D02*
X006802Y023232D01*
X006802Y021982D01*
X007052Y023482D02*
X004552Y020982D01*
X005052Y020482D01*
X005302Y020482D01*
X004552Y020982D02*
X004552Y014482D01*
X005552Y014482D02*
X005552Y017982D01*
X007802Y020232D01*
X006552Y017732D02*
X006552Y014482D01*
X006552Y017732D02*
X010802Y021982D01*
X010802Y022232D01*
X009552Y023482D01*
X008552Y023482D01*
M02*
