G75*
G70*
%OFA0B0*%
%FSLAX24Y24*%
%IPPOS*%
%LPD*%
%AMOC8*
5,1,8,0,0,1.08239X$1,22.5*
%
%ADD10OC8,0.0600*%
%ADD11C,0.1360*%
%ADD12C,0.0630*%
%ADD13OC8,0.0634*%
%ADD14R,0.0680X0.0680*%
%ADD15C,0.0680*%
%ADD16C,0.1380*%
D10*
X005302Y020482D03*
X006302Y020482D03*
X006802Y021982D03*
X007802Y021982D03*
X009802Y021982D03*
X010802Y021982D03*
D11*
X008802Y006032D03*
X006802Y006032D03*
X002302Y006032D03*
X013302Y006032D03*
D12*
X012302Y008532D03*
X011802Y009532D03*
X011302Y008532D03*
X010802Y009532D03*
X010302Y008532D03*
X009802Y009532D03*
X009302Y008532D03*
X006302Y009532D03*
X005802Y008532D03*
X005302Y009532D03*
X004802Y008532D03*
X004302Y009532D03*
X003802Y008532D03*
X003302Y009532D03*
X002802Y008532D03*
X012802Y009532D03*
D13*
X008552Y023482D03*
X007802Y023482D03*
X007052Y023482D03*
D14*
X004552Y014482D03*
D15*
X005552Y014482D03*
X006552Y014482D03*
X007552Y014482D03*
X008552Y014482D03*
X009552Y014482D03*
X010552Y014482D03*
X011552Y014482D03*
D16*
X002552Y001232D03*
X002552Y018732D03*
X013052Y018732D03*
X013052Y001232D03*
M02*
