G75*
G70*
%OFA0B0*%
%FSLAX24Y24*%
%IPPOS*%
%LPD*%
%AMOC8*
5,1,8,0,0,1.08239X$1,22.5*
%
%ADD10C,0.0160*%
%ADD11C,0.0060*%
%ADD12C,0.0080*%
%ADD13C,0.0010*%
%ADD14C,0.0050*%
%ADD15C,0.0000*%
%ADD16C,0.0020*%
%ADD17R,0.0230X0.0240*%
%ADD18C,0.0100*%
%ADD19C,0.0040*%
D10*
X001557Y000234D02*
X001557Y024480D01*
X014077Y024480D01*
X014077Y000234D01*
X001557Y000234D01*
D11*
X006043Y002169D02*
X006150Y002062D01*
X006257Y002062D01*
X006363Y002169D01*
X006363Y002702D01*
X006257Y002702D02*
X006470Y002702D01*
X006688Y002489D02*
X006901Y002702D01*
X006901Y002062D01*
X006688Y002062D02*
X007115Y002062D01*
X008332Y002119D02*
X008439Y002012D01*
X008546Y002012D01*
X008652Y002119D01*
X008652Y002652D01*
X008546Y002652D02*
X008759Y002652D01*
X008977Y002546D02*
X009083Y002652D01*
X009297Y002652D01*
X009404Y002546D01*
X009404Y002439D01*
X008977Y002012D01*
X009404Y002012D01*
X005702Y020482D02*
X005704Y020537D01*
X005712Y020591D01*
X005724Y020644D01*
X005741Y020696D01*
X005763Y020746D01*
X005789Y020794D01*
X005820Y020839D01*
X005854Y020881D01*
X005892Y020921D01*
X005934Y020956D01*
X005979Y020987D01*
X006026Y021015D01*
X006076Y021038D01*
X006127Y021056D01*
X006180Y021069D01*
X006234Y021078D01*
X006288Y021082D01*
X006343Y021081D01*
X006397Y021074D01*
X006451Y021063D01*
X006503Y021047D01*
X006554Y021027D01*
X006602Y021002D01*
X006648Y020972D01*
X006691Y020939D01*
X006731Y020901D01*
X006767Y020861D01*
X006800Y020817D01*
X006828Y020770D01*
X006852Y020721D01*
X006872Y020670D01*
X006887Y020617D01*
X006896Y020564D01*
X006901Y020509D01*
X006901Y020455D01*
X006896Y020400D01*
X006887Y020347D01*
X006872Y020294D01*
X006852Y020243D01*
X006828Y020194D01*
X006800Y020147D01*
X006767Y020103D01*
X006731Y020063D01*
X006691Y020025D01*
X006648Y019992D01*
X006602Y019962D01*
X006554Y019937D01*
X006503Y019917D01*
X006451Y019901D01*
X006397Y019890D01*
X006343Y019883D01*
X006288Y019882D01*
X006234Y019886D01*
X006180Y019895D01*
X006127Y019908D01*
X006076Y019926D01*
X006026Y019949D01*
X005979Y019977D01*
X005934Y020008D01*
X005892Y020043D01*
X005854Y020083D01*
X005820Y020125D01*
X005789Y020170D01*
X005763Y020218D01*
X005741Y020268D01*
X005724Y020320D01*
X005712Y020373D01*
X005704Y020427D01*
X005702Y020482D01*
X006452Y021482D02*
X008152Y021482D01*
X008172Y021484D01*
X008190Y021490D01*
X008208Y021499D01*
X008223Y021511D01*
X008235Y021526D01*
X008244Y021544D01*
X008250Y021562D01*
X008252Y021582D01*
X008252Y022382D01*
X008250Y022402D01*
X008244Y022420D01*
X008235Y022438D01*
X008223Y022453D01*
X008208Y022465D01*
X008190Y022474D01*
X008172Y022480D01*
X008152Y022482D01*
X006452Y022482D01*
X006432Y022480D01*
X006414Y022474D01*
X006396Y022465D01*
X006381Y022453D01*
X006369Y022438D01*
X006360Y022420D01*
X006354Y022402D01*
X006352Y022382D01*
X006352Y021582D01*
X006354Y021562D01*
X006360Y021544D01*
X006369Y021526D01*
X006381Y021511D01*
X006396Y021499D01*
X006414Y021490D01*
X006432Y021484D01*
X006452Y021482D01*
X007152Y021982D02*
X007202Y021982D01*
X007402Y021982D02*
X007452Y021982D01*
X009302Y021982D02*
X009306Y022073D01*
X009319Y022163D01*
X009339Y022252D01*
X009368Y022338D01*
X009404Y022422D01*
X009448Y022502D01*
X009498Y022577D01*
X009556Y022648D01*
X009619Y022713D01*
X009689Y022772D01*
X009763Y022824D01*
X009842Y022870D01*
X009925Y022908D01*
X010010Y022939D01*
X010099Y022961D01*
X010188Y022976D01*
X010279Y022982D01*
X010370Y022980D01*
X010461Y022969D01*
X010550Y022951D01*
X010637Y022924D01*
X010721Y022890D01*
X010802Y022848D01*
X010879Y022799D01*
X010951Y022743D01*
X011017Y022681D01*
X011078Y022613D01*
X011132Y022540D01*
X011179Y022462D01*
X011219Y022380D01*
X011252Y022295D01*
X011276Y022208D01*
X011293Y022118D01*
X011301Y022028D01*
X011301Y021936D01*
X011293Y021846D01*
X011276Y021756D01*
X011252Y021669D01*
X011219Y021584D01*
X011179Y021502D01*
X011132Y021424D01*
X011078Y021351D01*
X011017Y021283D01*
X010951Y021221D01*
X010879Y021165D01*
X010802Y021116D01*
X010721Y021074D01*
X010637Y021040D01*
X010550Y021013D01*
X010461Y020995D01*
X010370Y020984D01*
X010279Y020982D01*
X010188Y020988D01*
X010099Y021003D01*
X010010Y021025D01*
X009925Y021056D01*
X009842Y021094D01*
X009763Y021140D01*
X009689Y021192D01*
X009619Y021251D01*
X009556Y021316D01*
X009498Y021387D01*
X009448Y021462D01*
X009404Y021542D01*
X009368Y021626D01*
X009339Y021712D01*
X009319Y021801D01*
X009306Y021891D01*
X009302Y021982D01*
D12*
X011302Y021232D02*
X011302Y022732D01*
X011302Y014982D02*
X011052Y014732D01*
X010802Y014982D01*
X010302Y014982D01*
X010052Y014732D01*
X009802Y014982D01*
X009302Y014982D01*
X009052Y014732D01*
X008802Y014982D01*
X008302Y014982D01*
X008052Y014732D01*
X007802Y014982D01*
X007302Y014982D01*
X007052Y014732D01*
X006802Y014982D01*
X006302Y014982D01*
X006052Y014732D01*
X005802Y014982D01*
X005302Y014982D01*
X005052Y014732D01*
X004802Y014982D01*
X004302Y014982D01*
X004052Y014732D01*
X004052Y014232D01*
X004302Y013982D01*
X004802Y013982D01*
X005052Y014232D01*
X005302Y013982D01*
X005802Y013982D01*
X006052Y014232D01*
X006302Y013982D01*
X006802Y013982D01*
X007052Y014232D01*
X007302Y013982D01*
X007802Y013982D01*
X008052Y014232D01*
X008302Y013982D01*
X008802Y013982D01*
X009052Y014232D01*
X009302Y013982D01*
X009802Y013982D01*
X010052Y014232D01*
X010302Y013982D01*
X010802Y013982D01*
X011052Y014232D01*
X011302Y013982D01*
X011802Y013982D01*
X012052Y014232D01*
X012052Y014732D01*
X011802Y014982D01*
X011302Y014982D01*
X011402Y009986D02*
X011402Y009982D01*
X011702Y009982D01*
X011902Y009982D02*
X012202Y009982D01*
X012202Y008882D01*
X011902Y009082D02*
X011702Y009082D01*
X011402Y008882D02*
X011402Y009982D01*
X011202Y009982D02*
X011202Y008882D01*
X010902Y009082D02*
X010702Y009082D01*
X010402Y008882D02*
X010402Y009986D01*
X010402Y009982D02*
X010702Y009982D01*
X010902Y009982D02*
X011202Y009982D01*
X010202Y009982D02*
X010202Y008882D01*
X009902Y009082D02*
X009702Y009082D01*
X009402Y008882D02*
X009402Y009986D01*
X009402Y009982D02*
X009702Y009982D01*
X009902Y009982D02*
X010202Y009982D01*
X009202Y009982D02*
X009202Y008882D01*
X009202Y008132D02*
X009202Y008032D01*
X009402Y008032D01*
X009402Y008132D01*
X010202Y008132D02*
X010202Y008032D01*
X010402Y008032D01*
X010402Y008132D01*
X011202Y008132D02*
X011202Y008032D01*
X011402Y008032D01*
X011402Y008132D01*
X012202Y008132D02*
X012202Y008032D01*
X012402Y008032D01*
X012402Y008132D01*
X012402Y008882D02*
X012402Y009986D01*
X012402Y009982D02*
X012702Y009982D01*
X012902Y009986D02*
X014011Y009986D01*
X014011Y002978D01*
X008093Y002978D01*
X008093Y009986D01*
X009202Y009986D01*
X008752Y009982D02*
X008752Y009582D01*
X008402Y009582D01*
X008402Y009982D01*
X007511Y009986D02*
X007511Y002978D01*
X001593Y002978D01*
X001593Y009986D01*
X002702Y009986D01*
X002702Y009982D02*
X002702Y008882D01*
X002902Y008882D02*
X002902Y009986D01*
X002902Y009982D02*
X003202Y009982D01*
X003402Y009982D02*
X003702Y009982D01*
X003702Y008882D01*
X003902Y008882D02*
X003902Y009986D01*
X003902Y009982D02*
X004202Y009982D01*
X004402Y009982D02*
X004702Y009982D01*
X004702Y008882D01*
X004902Y008882D02*
X004902Y009982D01*
X005202Y009982D01*
X005402Y009982D02*
X005702Y009982D01*
X005702Y008882D01*
X005902Y008882D02*
X005902Y009986D01*
X005902Y009982D02*
X006202Y009982D01*
X006402Y009986D02*
X007511Y009986D01*
X007202Y009982D02*
X007202Y009582D01*
X006852Y009582D01*
X006852Y009982D01*
X006402Y009082D02*
X006202Y009082D01*
X005902Y008132D02*
X005902Y008032D01*
X005702Y008032D01*
X005702Y008132D01*
X005402Y009082D02*
X005202Y009082D01*
X004902Y009982D02*
X004902Y009986D01*
X004402Y009082D02*
X004202Y009082D01*
X003902Y008132D02*
X003902Y008032D01*
X003702Y008032D01*
X003702Y008132D01*
X003402Y009082D02*
X003202Y009082D01*
X002902Y008132D02*
X002902Y008032D01*
X002702Y008032D01*
X002702Y008132D01*
X002252Y009582D02*
X001902Y009582D01*
X001902Y009982D01*
X002252Y009982D02*
X002252Y009582D01*
X004702Y008132D02*
X004702Y008032D01*
X004902Y008032D01*
X004902Y008132D01*
X012702Y009082D02*
X012902Y009082D01*
X013352Y009582D02*
X013352Y009982D01*
X013702Y009982D02*
X013702Y009582D01*
X013352Y009582D01*
D13*
X011334Y022762D02*
X011262Y022708D01*
X011263Y022709D02*
X011208Y022777D01*
X011148Y022840D01*
X011084Y022899D01*
X011016Y022953D01*
X010944Y023002D01*
X010868Y023046D01*
X010790Y023084D01*
X010709Y023116D01*
X010626Y023143D01*
X010542Y023163D01*
X010456Y023177D01*
X010369Y023185D01*
X010282Y023187D01*
X010195Y023182D01*
X010109Y023171D01*
X010023Y023154D01*
X009939Y023131D01*
X009857Y023102D01*
X009778Y023067D01*
X009701Y023026D01*
X009627Y022980D01*
X009556Y022929D01*
X009490Y022872D01*
X009428Y022811D01*
X009370Y022746D01*
X009317Y022677D01*
X009270Y022604D01*
X009228Y022528D01*
X009191Y022449D01*
X009160Y022367D01*
X009135Y022284D01*
X009117Y022199D01*
X009104Y022112D01*
X009098Y022026D01*
X009098Y021938D01*
X009104Y021852D01*
X009117Y021765D01*
X009135Y021680D01*
X009160Y021597D01*
X009191Y021515D01*
X009228Y021436D01*
X009270Y021360D01*
X009317Y021287D01*
X009370Y021218D01*
X009428Y021153D01*
X009490Y021092D01*
X009556Y021035D01*
X009627Y020984D01*
X009701Y020938D01*
X009778Y020897D01*
X009857Y020862D01*
X009939Y020833D01*
X010023Y020810D01*
X010109Y020793D01*
X010195Y020782D01*
X010282Y020777D01*
X010369Y020779D01*
X010456Y020787D01*
X010542Y020801D01*
X010626Y020821D01*
X010709Y020848D01*
X010790Y020880D01*
X010868Y020918D01*
X010944Y020962D01*
X011016Y021011D01*
X011084Y021065D01*
X011148Y021124D01*
X011208Y021187D01*
X011263Y021255D01*
X011334Y021202D01*
X011335Y021201D01*
X011276Y021128D01*
X011212Y021060D01*
X011143Y020997D01*
X011069Y020939D01*
X010992Y020886D01*
X010911Y020839D01*
X010827Y020798D01*
X010740Y020763D01*
X010651Y020735D01*
X010560Y020713D01*
X010468Y020698D01*
X010374Y020689D01*
X010281Y020687D01*
X010187Y020692D01*
X010094Y020704D01*
X010003Y020722D01*
X009912Y020747D01*
X009824Y020778D01*
X009738Y020816D01*
X009656Y020860D01*
X009576Y020909D01*
X009501Y020965D01*
X009429Y021025D01*
X009363Y021091D01*
X009301Y021161D01*
X009244Y021235D01*
X009193Y021314D01*
X009147Y021396D01*
X009108Y021481D01*
X009075Y021568D01*
X009048Y021658D01*
X009028Y021749D01*
X009015Y021842D01*
X009008Y021935D01*
X009008Y022029D01*
X009015Y022122D01*
X009028Y022215D01*
X009048Y022306D01*
X009075Y022396D01*
X009108Y022483D01*
X009147Y022568D01*
X009193Y022650D01*
X009244Y022729D01*
X009301Y022803D01*
X009363Y022873D01*
X009429Y022939D01*
X009501Y022999D01*
X009576Y023055D01*
X009656Y023104D01*
X009738Y023148D01*
X009824Y023186D01*
X009912Y023217D01*
X010003Y023242D01*
X010094Y023260D01*
X010187Y023272D01*
X010281Y023277D01*
X010374Y023275D01*
X010468Y023266D01*
X010560Y023251D01*
X010651Y023229D01*
X010740Y023201D01*
X010827Y023166D01*
X010911Y023125D01*
X010992Y023078D01*
X011069Y023025D01*
X011143Y022967D01*
X011212Y022904D01*
X011276Y022836D01*
X011335Y022763D01*
X011328Y022758D01*
X011269Y022830D01*
X011205Y022897D01*
X011137Y022960D01*
X011064Y023018D01*
X010987Y023070D01*
X010907Y023117D01*
X010823Y023158D01*
X010737Y023192D01*
X010648Y023220D01*
X010558Y023242D01*
X010466Y023257D01*
X010374Y023266D01*
X010281Y023268D01*
X010188Y023263D01*
X010096Y023251D01*
X010005Y023233D01*
X009915Y023208D01*
X009827Y023177D01*
X009742Y023140D01*
X009660Y023096D01*
X009581Y023047D01*
X009506Y022992D01*
X009435Y022932D01*
X009369Y022867D01*
X009308Y022797D01*
X009251Y022723D01*
X009200Y022646D01*
X009155Y022564D01*
X009116Y022480D01*
X009083Y022393D01*
X009057Y022304D01*
X009037Y022213D01*
X009024Y022121D01*
X009017Y022028D01*
X009017Y021936D01*
X009024Y021843D01*
X009037Y021751D01*
X009057Y021660D01*
X009083Y021571D01*
X009116Y021484D01*
X009155Y021400D01*
X009200Y021318D01*
X009251Y021241D01*
X009308Y021167D01*
X009369Y021097D01*
X009435Y021032D01*
X009506Y020972D01*
X009581Y020917D01*
X009660Y020868D01*
X009742Y020824D01*
X009827Y020787D01*
X009915Y020756D01*
X010005Y020731D01*
X010096Y020713D01*
X010188Y020701D01*
X010281Y020696D01*
X010374Y020698D01*
X010466Y020707D01*
X010558Y020722D01*
X010648Y020744D01*
X010737Y020772D01*
X010823Y020806D01*
X010907Y020847D01*
X010987Y020894D01*
X011064Y020946D01*
X011137Y021004D01*
X011205Y021067D01*
X011269Y021134D01*
X011328Y021206D01*
X011321Y021212D01*
X011262Y021140D01*
X011199Y021073D01*
X011131Y021011D01*
X011059Y020953D01*
X010982Y020901D01*
X010903Y020855D01*
X010820Y020815D01*
X010734Y020780D01*
X010646Y020752D01*
X010556Y020731D01*
X010465Y020715D01*
X010373Y020707D01*
X010281Y020705D01*
X010189Y020710D01*
X010097Y020722D01*
X010007Y020740D01*
X009918Y020764D01*
X009831Y020795D01*
X009746Y020832D01*
X009665Y020875D01*
X009586Y020924D01*
X009512Y020979D01*
X009441Y021038D01*
X009376Y021103D01*
X009315Y021172D01*
X009259Y021246D01*
X009208Y021323D01*
X009163Y021404D01*
X009125Y021488D01*
X009092Y021574D01*
X009066Y021662D01*
X009046Y021752D01*
X009033Y021844D01*
X009026Y021936D01*
X009026Y022028D01*
X009033Y022120D01*
X009046Y022212D01*
X009066Y022302D01*
X009092Y022390D01*
X009125Y022476D01*
X009163Y022560D01*
X009208Y022641D01*
X009259Y022718D01*
X009315Y022792D01*
X009376Y022861D01*
X009441Y022926D01*
X009512Y022985D01*
X009586Y023040D01*
X009665Y023089D01*
X009746Y023132D01*
X009831Y023169D01*
X009918Y023200D01*
X010007Y023224D01*
X010097Y023242D01*
X010189Y023254D01*
X010281Y023259D01*
X010373Y023257D01*
X010465Y023249D01*
X010556Y023233D01*
X010646Y023212D01*
X010734Y023184D01*
X010820Y023149D01*
X010903Y023109D01*
X010982Y023063D01*
X011059Y023011D01*
X011131Y022953D01*
X011199Y022891D01*
X011262Y022824D01*
X011321Y022752D01*
X011313Y022747D01*
X011256Y022818D01*
X011193Y022885D01*
X011125Y022947D01*
X011053Y023003D01*
X010978Y023055D01*
X010898Y023101D01*
X010816Y023141D01*
X010731Y023175D01*
X010644Y023203D01*
X010554Y023225D01*
X010464Y023240D01*
X010373Y023248D01*
X010281Y023250D01*
X010190Y023245D01*
X010099Y023234D01*
X010009Y023216D01*
X009920Y023191D01*
X009834Y023161D01*
X009750Y023124D01*
X009669Y023081D01*
X009591Y023032D01*
X009517Y022978D01*
X009448Y022919D01*
X009382Y022855D01*
X009321Y022786D01*
X009266Y022713D01*
X009216Y022636D01*
X009171Y022556D01*
X009133Y022473D01*
X009101Y022387D01*
X009074Y022299D01*
X009055Y022210D01*
X009041Y022119D01*
X009035Y022028D01*
X009035Y021936D01*
X009041Y021845D01*
X009055Y021754D01*
X009074Y021665D01*
X009101Y021577D01*
X009133Y021491D01*
X009171Y021408D01*
X009216Y021328D01*
X009266Y021251D01*
X009321Y021178D01*
X009382Y021109D01*
X009448Y021045D01*
X009517Y020986D01*
X009591Y020932D01*
X009669Y020883D01*
X009750Y020840D01*
X009834Y020803D01*
X009920Y020773D01*
X010009Y020748D01*
X010099Y020730D01*
X010190Y020719D01*
X010281Y020714D01*
X010373Y020716D01*
X010464Y020724D01*
X010554Y020739D01*
X010644Y020761D01*
X010731Y020789D01*
X010816Y020823D01*
X010898Y020863D01*
X010978Y020909D01*
X011053Y020961D01*
X011125Y021017D01*
X011193Y021079D01*
X011256Y021146D01*
X011313Y021217D01*
X011306Y021223D01*
X011249Y021152D01*
X011186Y021086D01*
X011119Y021024D01*
X011048Y020968D01*
X010973Y020917D01*
X010894Y020871D01*
X010812Y020831D01*
X010728Y020797D01*
X010641Y020770D01*
X010553Y020748D01*
X010463Y020733D01*
X010372Y020725D01*
X010281Y020723D01*
X010190Y020728D01*
X010100Y020739D01*
X010011Y020757D01*
X009923Y020781D01*
X009837Y020812D01*
X009754Y020848D01*
X009674Y020891D01*
X009596Y020939D01*
X009523Y020993D01*
X009454Y021052D01*
X009389Y021115D01*
X009328Y021184D01*
X009273Y021256D01*
X009224Y021332D01*
X009179Y021412D01*
X009141Y021494D01*
X009109Y021580D01*
X009083Y021667D01*
X009064Y021756D01*
X009050Y021846D01*
X009044Y021937D01*
X009044Y022027D01*
X009050Y022118D01*
X009064Y022208D01*
X009083Y022297D01*
X009109Y022384D01*
X009141Y022470D01*
X009179Y022552D01*
X009224Y022632D01*
X009273Y022708D01*
X009328Y022780D01*
X009389Y022849D01*
X009454Y022912D01*
X009523Y022971D01*
X009596Y023025D01*
X009674Y023073D01*
X009754Y023116D01*
X009837Y023152D01*
X009923Y023183D01*
X010011Y023207D01*
X010100Y023225D01*
X010190Y023236D01*
X010281Y023241D01*
X010372Y023239D01*
X010463Y023231D01*
X010553Y023216D01*
X010641Y023194D01*
X010728Y023167D01*
X010812Y023133D01*
X010894Y023093D01*
X010973Y023047D01*
X011048Y022996D01*
X011119Y022940D01*
X011186Y022878D01*
X011249Y022812D01*
X011306Y022741D01*
X011299Y022736D01*
X011242Y022806D01*
X011180Y022872D01*
X011113Y022933D01*
X011043Y022989D01*
X010968Y023040D01*
X010890Y023085D01*
X010809Y023125D01*
X010725Y023158D01*
X010639Y023186D01*
X010551Y023207D01*
X010462Y023222D01*
X010372Y023230D01*
X010281Y023232D01*
X010191Y023227D01*
X010102Y023216D01*
X010013Y023198D01*
X009926Y023174D01*
X009841Y023144D01*
X009758Y023107D01*
X009678Y023065D01*
X009602Y023017D01*
X009529Y022964D01*
X009460Y022906D01*
X009395Y022842D01*
X009335Y022775D01*
X009281Y022703D01*
X009231Y022627D01*
X009187Y022548D01*
X009150Y022466D01*
X009118Y022382D01*
X009092Y022295D01*
X009072Y022207D01*
X009059Y022117D01*
X009053Y022027D01*
X009053Y021937D01*
X009059Y021847D01*
X009072Y021757D01*
X009092Y021669D01*
X009118Y021582D01*
X009150Y021498D01*
X009187Y021416D01*
X009231Y021337D01*
X009281Y021261D01*
X009335Y021189D01*
X009395Y021122D01*
X009460Y021058D01*
X009529Y021000D01*
X009602Y020947D01*
X009678Y020899D01*
X009758Y020857D01*
X009841Y020820D01*
X009926Y020790D01*
X010013Y020766D01*
X010102Y020748D01*
X010191Y020737D01*
X010281Y020732D01*
X010372Y020734D01*
X010462Y020742D01*
X010551Y020757D01*
X010639Y020778D01*
X010725Y020806D01*
X010809Y020839D01*
X010890Y020879D01*
X010968Y020924D01*
X011043Y020975D01*
X011113Y021031D01*
X011180Y021092D01*
X011242Y021158D01*
X011299Y021228D01*
X011292Y021233D01*
X011235Y021164D01*
X011174Y021099D01*
X011108Y021038D01*
X011037Y020982D01*
X010963Y020932D01*
X010886Y020887D01*
X010805Y020847D01*
X010722Y020814D01*
X010636Y020787D01*
X010549Y020766D01*
X010460Y020751D01*
X010371Y020743D01*
X010281Y020741D01*
X010192Y020746D01*
X010103Y020757D01*
X010015Y020775D01*
X009929Y020799D01*
X009844Y020829D01*
X009762Y020865D01*
X009683Y020907D01*
X009607Y020954D01*
X009534Y021007D01*
X009466Y021065D01*
X009402Y021128D01*
X009342Y021195D01*
X009288Y021267D01*
X009239Y021342D01*
X009196Y021420D01*
X009158Y021501D01*
X009126Y021585D01*
X009101Y021671D01*
X009081Y021759D01*
X009068Y021848D01*
X009062Y021937D01*
X009062Y022027D01*
X009068Y022116D01*
X009081Y022205D01*
X009101Y022293D01*
X009126Y022379D01*
X009158Y022463D01*
X009196Y022544D01*
X009239Y022622D01*
X009288Y022697D01*
X009342Y022769D01*
X009402Y022836D01*
X009466Y022899D01*
X009534Y022957D01*
X009607Y023010D01*
X009683Y023057D01*
X009762Y023099D01*
X009844Y023135D01*
X009929Y023165D01*
X010015Y023189D01*
X010103Y023207D01*
X010192Y023218D01*
X010281Y023223D01*
X010371Y023221D01*
X010460Y023213D01*
X010549Y023198D01*
X010636Y023177D01*
X010722Y023150D01*
X010805Y023117D01*
X010886Y023077D01*
X010963Y023032D01*
X011037Y022982D01*
X011108Y022926D01*
X011174Y022865D01*
X011235Y022800D01*
X011292Y022731D01*
X011285Y022725D01*
X011228Y022794D01*
X011167Y022859D01*
X011102Y022919D01*
X011032Y022975D01*
X010958Y023025D01*
X010881Y023069D01*
X010801Y023108D01*
X010719Y023141D01*
X010634Y023169D01*
X010547Y023189D01*
X010459Y023204D01*
X010371Y023212D01*
X010282Y023214D01*
X010193Y023209D01*
X010104Y023198D01*
X010017Y023181D01*
X009931Y023157D01*
X009847Y023127D01*
X009766Y023091D01*
X009687Y023050D01*
X009612Y023002D01*
X009540Y022950D01*
X009472Y022892D01*
X009408Y022830D01*
X009349Y022763D01*
X009295Y022692D01*
X009247Y022618D01*
X009204Y022540D01*
X009166Y022459D01*
X009135Y022376D01*
X009109Y022290D01*
X009090Y022203D01*
X009077Y022115D01*
X009071Y022027D01*
X009071Y021937D01*
X009077Y021849D01*
X009090Y021761D01*
X009109Y021674D01*
X009135Y021588D01*
X009166Y021505D01*
X009204Y021424D01*
X009247Y021346D01*
X009295Y021272D01*
X009349Y021201D01*
X009408Y021134D01*
X009472Y021072D01*
X009540Y021014D01*
X009612Y020962D01*
X009687Y020914D01*
X009766Y020873D01*
X009847Y020837D01*
X009931Y020807D01*
X010017Y020783D01*
X010104Y020766D01*
X010193Y020755D01*
X010282Y020750D01*
X010371Y020752D01*
X010459Y020760D01*
X010547Y020775D01*
X010634Y020795D01*
X010719Y020823D01*
X010801Y020856D01*
X010881Y020895D01*
X010958Y020939D01*
X011032Y020989D01*
X011102Y021045D01*
X011167Y021105D01*
X011228Y021170D01*
X011285Y021239D01*
X011277Y021244D01*
X011222Y021176D01*
X011161Y021111D01*
X011096Y021052D01*
X011027Y020997D01*
X010953Y020947D01*
X010877Y020903D01*
X010798Y020864D01*
X010715Y020831D01*
X010631Y020804D01*
X010545Y020783D01*
X010458Y020769D01*
X010370Y020761D01*
X010282Y020759D01*
X010193Y020764D01*
X010106Y020775D01*
X010019Y020792D01*
X009934Y020816D01*
X009851Y020845D01*
X009770Y020881D01*
X009692Y020922D01*
X009617Y020969D01*
X009545Y021021D01*
X009478Y021078D01*
X009415Y021140D01*
X009356Y021207D01*
X009303Y021277D01*
X009254Y021351D01*
X009212Y021428D01*
X009174Y021508D01*
X009143Y021591D01*
X009118Y021676D01*
X009099Y021762D01*
X009086Y021850D01*
X009080Y021938D01*
X009080Y022026D01*
X009086Y022114D01*
X009099Y022202D01*
X009118Y022288D01*
X009143Y022373D01*
X009174Y022456D01*
X009212Y022536D01*
X009254Y022613D01*
X009303Y022687D01*
X009356Y022757D01*
X009415Y022824D01*
X009478Y022886D01*
X009545Y022943D01*
X009617Y022995D01*
X009692Y023042D01*
X009770Y023083D01*
X009851Y023119D01*
X009934Y023148D01*
X010019Y023172D01*
X010106Y023189D01*
X010193Y023200D01*
X010282Y023205D01*
X010370Y023203D01*
X010458Y023195D01*
X010545Y023181D01*
X010631Y023160D01*
X010715Y023133D01*
X010798Y023100D01*
X010877Y023061D01*
X010953Y023017D01*
X011027Y022967D01*
X011096Y022912D01*
X011161Y022853D01*
X011222Y022788D01*
X011277Y022720D01*
X011270Y022714D01*
X011215Y022782D01*
X011155Y022846D01*
X011090Y022906D01*
X011021Y022960D01*
X010949Y023009D01*
X010873Y023053D01*
X010794Y023092D01*
X010712Y023125D01*
X010629Y023151D01*
X010544Y023172D01*
X010457Y023186D01*
X010370Y023194D01*
X010282Y023196D01*
X010194Y023191D01*
X010107Y023180D01*
X010021Y023163D01*
X009937Y023140D01*
X009854Y023110D01*
X009774Y023075D01*
X009696Y023034D01*
X009622Y022987D01*
X009551Y022936D01*
X009484Y022879D01*
X009421Y022818D01*
X009363Y022752D01*
X009310Y022682D01*
X009262Y022608D01*
X009220Y022532D01*
X009183Y022452D01*
X009152Y022370D01*
X009127Y022286D01*
X009108Y022200D01*
X009095Y022113D01*
X009089Y022026D01*
X009089Y021938D01*
X009095Y021851D01*
X009108Y021764D01*
X009127Y021678D01*
X009152Y021594D01*
X009183Y021512D01*
X009220Y021432D01*
X009262Y021356D01*
X009310Y021282D01*
X009363Y021212D01*
X009421Y021146D01*
X009484Y021085D01*
X009551Y021028D01*
X009622Y020977D01*
X009696Y020930D01*
X009774Y020889D01*
X009854Y020854D01*
X009937Y020824D01*
X010021Y020801D01*
X010107Y020784D01*
X010194Y020773D01*
X010282Y020768D01*
X010370Y020770D01*
X010457Y020778D01*
X010544Y020792D01*
X010629Y020813D01*
X010712Y020839D01*
X010794Y020872D01*
X010873Y020911D01*
X010949Y020955D01*
X011021Y021004D01*
X011090Y021058D01*
X011155Y021118D01*
X011215Y021182D01*
X011270Y021250D01*
D14*
X011108Y020667D02*
X010958Y020517D01*
X010798Y020592D02*
X010798Y020292D01*
X010723Y020217D01*
X010498Y020217D01*
X010498Y020667D01*
X010723Y020667D01*
X010798Y020592D01*
X011108Y020667D02*
X011108Y020217D01*
X010958Y020217D02*
X011258Y020217D01*
X010338Y020217D02*
X010037Y020217D01*
X010037Y020667D01*
X010338Y020667D01*
X010188Y020442D02*
X010037Y020442D01*
X009877Y020217D02*
X009577Y020217D01*
X009577Y020667D01*
X008652Y023132D02*
X006952Y023132D01*
X006702Y023382D01*
X006702Y023832D01*
X008902Y023832D01*
X008902Y023382D01*
X008652Y023132D01*
X007927Y021117D02*
X007927Y020817D01*
X007927Y020967D02*
X007477Y020967D01*
X007627Y020817D01*
X007552Y020657D02*
X007477Y020582D01*
X007477Y020432D01*
X007552Y020357D01*
X007852Y020357D01*
X007927Y020432D01*
X007927Y020582D01*
X007852Y020657D01*
X005677Y019997D02*
X005677Y019696D01*
X005677Y019847D02*
X005227Y019847D01*
X005377Y019696D01*
X005452Y019536D02*
X005527Y019461D01*
X005527Y019236D01*
X005677Y019236D02*
X005227Y019236D01*
X005227Y019461D01*
X005302Y019536D01*
X005452Y019536D01*
X005527Y019386D02*
X005677Y019536D01*
X003868Y015427D02*
X003868Y014977D01*
X003718Y014977D02*
X004018Y014977D01*
X003718Y015277D02*
X003868Y015427D01*
X003558Y015352D02*
X003558Y015202D01*
X003483Y015127D01*
X003257Y015127D01*
X003257Y014977D02*
X003257Y015427D01*
X003483Y015427D01*
X003558Y015352D01*
X003097Y015427D02*
X002947Y015427D01*
X003022Y015427D02*
X003022Y015052D01*
X002947Y014977D01*
X002872Y014977D01*
X002797Y015052D01*
D15*
X001902Y018732D02*
X001905Y018791D01*
X001913Y018850D01*
X001926Y018907D01*
X001945Y018964D01*
X001968Y019018D01*
X001997Y019070D01*
X002030Y019119D01*
X002067Y019165D01*
X002108Y019207D01*
X002153Y019245D01*
X002202Y019280D01*
X002253Y019309D01*
X002307Y019334D01*
X002362Y019354D01*
X002420Y019368D01*
X002478Y019378D01*
X002537Y019382D01*
X002596Y019380D01*
X002655Y019374D01*
X002713Y019362D01*
X002770Y019344D01*
X002824Y019322D01*
X002877Y019295D01*
X002927Y019263D01*
X002974Y019227D01*
X003017Y019186D01*
X003056Y019142D01*
X003091Y019095D01*
X003122Y019044D01*
X003148Y018991D01*
X003169Y018936D01*
X003185Y018879D01*
X003196Y018821D01*
X003201Y018762D01*
X003201Y018702D01*
X003196Y018643D01*
X003185Y018585D01*
X003169Y018528D01*
X003148Y018473D01*
X003122Y018420D01*
X003091Y018369D01*
X003056Y018322D01*
X003017Y018278D01*
X002974Y018237D01*
X002927Y018201D01*
X002877Y018169D01*
X002824Y018142D01*
X002770Y018120D01*
X002713Y018102D01*
X002655Y018090D01*
X002596Y018084D01*
X002537Y018082D01*
X002478Y018086D01*
X002420Y018096D01*
X002362Y018110D01*
X002307Y018130D01*
X002253Y018155D01*
X002202Y018184D01*
X002153Y018219D01*
X002108Y018257D01*
X002067Y018299D01*
X002030Y018345D01*
X001997Y018394D01*
X001968Y018446D01*
X001945Y018500D01*
X001926Y018557D01*
X001913Y018614D01*
X001905Y018673D01*
X001902Y018732D01*
X001662Y006032D02*
X001665Y006090D01*
X001673Y006148D01*
X001686Y006205D01*
X001704Y006260D01*
X001727Y006313D01*
X001755Y006365D01*
X001788Y006413D01*
X001824Y006458D01*
X001865Y006500D01*
X001910Y006538D01*
X001957Y006571D01*
X002008Y006600D01*
X002060Y006625D01*
X002115Y006644D01*
X002172Y006659D01*
X002229Y006668D01*
X002287Y006672D01*
X002346Y006671D01*
X002404Y006664D01*
X002461Y006652D01*
X002516Y006635D01*
X002570Y006613D01*
X002622Y006586D01*
X002671Y006555D01*
X002717Y006519D01*
X002760Y006479D01*
X002798Y006436D01*
X002833Y006389D01*
X002863Y006339D01*
X002889Y006287D01*
X002910Y006233D01*
X002925Y006176D01*
X002936Y006119D01*
X002941Y006061D01*
X002941Y006003D01*
X002936Y005945D01*
X002925Y005888D01*
X002910Y005831D01*
X002889Y005777D01*
X002863Y005725D01*
X002833Y005675D01*
X002798Y005628D01*
X002760Y005585D01*
X002717Y005545D01*
X002671Y005509D01*
X002622Y005478D01*
X002570Y005451D01*
X002516Y005429D01*
X002461Y005412D01*
X002404Y005400D01*
X002346Y005393D01*
X002287Y005392D01*
X002229Y005396D01*
X002172Y005405D01*
X002115Y005420D01*
X002060Y005439D01*
X002008Y005464D01*
X001957Y005493D01*
X001910Y005526D01*
X001865Y005564D01*
X001824Y005606D01*
X001788Y005651D01*
X001755Y005699D01*
X001727Y005751D01*
X001704Y005804D01*
X001686Y005859D01*
X001673Y005916D01*
X001665Y005974D01*
X001662Y006032D01*
X001902Y001232D02*
X001905Y001291D01*
X001913Y001350D01*
X001926Y001407D01*
X001945Y001464D01*
X001968Y001518D01*
X001997Y001570D01*
X002030Y001619D01*
X002067Y001665D01*
X002108Y001707D01*
X002153Y001745D01*
X002202Y001780D01*
X002253Y001809D01*
X002307Y001834D01*
X002362Y001854D01*
X002420Y001868D01*
X002478Y001878D01*
X002537Y001882D01*
X002596Y001880D01*
X002655Y001874D01*
X002713Y001862D01*
X002770Y001844D01*
X002824Y001822D01*
X002877Y001795D01*
X002927Y001763D01*
X002974Y001727D01*
X003017Y001686D01*
X003056Y001642D01*
X003091Y001595D01*
X003122Y001544D01*
X003148Y001491D01*
X003169Y001436D01*
X003185Y001379D01*
X003196Y001321D01*
X003201Y001262D01*
X003201Y001202D01*
X003196Y001143D01*
X003185Y001085D01*
X003169Y001028D01*
X003148Y000973D01*
X003122Y000920D01*
X003091Y000869D01*
X003056Y000822D01*
X003017Y000778D01*
X002974Y000737D01*
X002927Y000701D01*
X002877Y000669D01*
X002824Y000642D01*
X002770Y000620D01*
X002713Y000602D01*
X002655Y000590D01*
X002596Y000584D01*
X002537Y000582D01*
X002478Y000586D01*
X002420Y000596D01*
X002362Y000610D01*
X002307Y000630D01*
X002253Y000655D01*
X002202Y000684D01*
X002153Y000719D01*
X002108Y000757D01*
X002067Y000799D01*
X002030Y000845D01*
X001997Y000894D01*
X001968Y000946D01*
X001945Y001000D01*
X001926Y001057D01*
X001913Y001114D01*
X001905Y001173D01*
X001902Y001232D01*
X006162Y006032D02*
X006165Y006090D01*
X006173Y006148D01*
X006186Y006205D01*
X006204Y006260D01*
X006227Y006313D01*
X006255Y006365D01*
X006288Y006413D01*
X006324Y006458D01*
X006365Y006500D01*
X006410Y006538D01*
X006457Y006571D01*
X006508Y006600D01*
X006560Y006625D01*
X006615Y006644D01*
X006672Y006659D01*
X006729Y006668D01*
X006787Y006672D01*
X006846Y006671D01*
X006904Y006664D01*
X006961Y006652D01*
X007016Y006635D01*
X007070Y006613D01*
X007122Y006586D01*
X007171Y006555D01*
X007217Y006519D01*
X007260Y006479D01*
X007298Y006436D01*
X007333Y006389D01*
X007363Y006339D01*
X007389Y006287D01*
X007410Y006233D01*
X007425Y006176D01*
X007436Y006119D01*
X007441Y006061D01*
X007441Y006003D01*
X007436Y005945D01*
X007425Y005888D01*
X007410Y005831D01*
X007389Y005777D01*
X007363Y005725D01*
X007333Y005675D01*
X007298Y005628D01*
X007260Y005585D01*
X007217Y005545D01*
X007171Y005509D01*
X007122Y005478D01*
X007070Y005451D01*
X007016Y005429D01*
X006961Y005412D01*
X006904Y005400D01*
X006846Y005393D01*
X006787Y005392D01*
X006729Y005396D01*
X006672Y005405D01*
X006615Y005420D01*
X006560Y005439D01*
X006508Y005464D01*
X006457Y005493D01*
X006410Y005526D01*
X006365Y005564D01*
X006324Y005606D01*
X006288Y005651D01*
X006255Y005699D01*
X006227Y005751D01*
X006204Y005804D01*
X006186Y005859D01*
X006173Y005916D01*
X006165Y005974D01*
X006162Y006032D01*
X008162Y006032D02*
X008165Y006090D01*
X008173Y006148D01*
X008186Y006205D01*
X008204Y006260D01*
X008227Y006313D01*
X008255Y006365D01*
X008288Y006413D01*
X008324Y006458D01*
X008365Y006500D01*
X008410Y006538D01*
X008457Y006571D01*
X008508Y006600D01*
X008560Y006625D01*
X008615Y006644D01*
X008672Y006659D01*
X008729Y006668D01*
X008787Y006672D01*
X008846Y006671D01*
X008904Y006664D01*
X008961Y006652D01*
X009016Y006635D01*
X009070Y006613D01*
X009122Y006586D01*
X009171Y006555D01*
X009217Y006519D01*
X009260Y006479D01*
X009298Y006436D01*
X009333Y006389D01*
X009363Y006339D01*
X009389Y006287D01*
X009410Y006233D01*
X009425Y006176D01*
X009436Y006119D01*
X009441Y006061D01*
X009441Y006003D01*
X009436Y005945D01*
X009425Y005888D01*
X009410Y005831D01*
X009389Y005777D01*
X009363Y005725D01*
X009333Y005675D01*
X009298Y005628D01*
X009260Y005585D01*
X009217Y005545D01*
X009171Y005509D01*
X009122Y005478D01*
X009070Y005451D01*
X009016Y005429D01*
X008961Y005412D01*
X008904Y005400D01*
X008846Y005393D01*
X008787Y005392D01*
X008729Y005396D01*
X008672Y005405D01*
X008615Y005420D01*
X008560Y005439D01*
X008508Y005464D01*
X008457Y005493D01*
X008410Y005526D01*
X008365Y005564D01*
X008324Y005606D01*
X008288Y005651D01*
X008255Y005699D01*
X008227Y005751D01*
X008204Y005804D01*
X008186Y005859D01*
X008173Y005916D01*
X008165Y005974D01*
X008162Y006032D01*
X012402Y001232D02*
X012405Y001291D01*
X012413Y001350D01*
X012426Y001407D01*
X012445Y001464D01*
X012468Y001518D01*
X012497Y001570D01*
X012530Y001619D01*
X012567Y001665D01*
X012608Y001707D01*
X012653Y001745D01*
X012702Y001780D01*
X012753Y001809D01*
X012807Y001834D01*
X012862Y001854D01*
X012920Y001868D01*
X012978Y001878D01*
X013037Y001882D01*
X013096Y001880D01*
X013155Y001874D01*
X013213Y001862D01*
X013270Y001844D01*
X013324Y001822D01*
X013377Y001795D01*
X013427Y001763D01*
X013474Y001727D01*
X013517Y001686D01*
X013556Y001642D01*
X013591Y001595D01*
X013622Y001544D01*
X013648Y001491D01*
X013669Y001436D01*
X013685Y001379D01*
X013696Y001321D01*
X013701Y001262D01*
X013701Y001202D01*
X013696Y001143D01*
X013685Y001085D01*
X013669Y001028D01*
X013648Y000973D01*
X013622Y000920D01*
X013591Y000869D01*
X013556Y000822D01*
X013517Y000778D01*
X013474Y000737D01*
X013427Y000701D01*
X013377Y000669D01*
X013324Y000642D01*
X013270Y000620D01*
X013213Y000602D01*
X013155Y000590D01*
X013096Y000584D01*
X013037Y000582D01*
X012978Y000586D01*
X012920Y000596D01*
X012862Y000610D01*
X012807Y000630D01*
X012753Y000655D01*
X012702Y000684D01*
X012653Y000719D01*
X012608Y000757D01*
X012567Y000799D01*
X012530Y000845D01*
X012497Y000894D01*
X012468Y000946D01*
X012445Y001000D01*
X012426Y001057D01*
X012413Y001114D01*
X012405Y001173D01*
X012402Y001232D01*
X012662Y006032D02*
X012665Y006090D01*
X012673Y006148D01*
X012686Y006205D01*
X012704Y006260D01*
X012727Y006313D01*
X012755Y006365D01*
X012788Y006413D01*
X012824Y006458D01*
X012865Y006500D01*
X012910Y006538D01*
X012957Y006571D01*
X013008Y006600D01*
X013060Y006625D01*
X013115Y006644D01*
X013172Y006659D01*
X013229Y006668D01*
X013287Y006672D01*
X013346Y006671D01*
X013404Y006664D01*
X013461Y006652D01*
X013516Y006635D01*
X013570Y006613D01*
X013622Y006586D01*
X013671Y006555D01*
X013717Y006519D01*
X013760Y006479D01*
X013798Y006436D01*
X013833Y006389D01*
X013863Y006339D01*
X013889Y006287D01*
X013910Y006233D01*
X013925Y006176D01*
X013936Y006119D01*
X013941Y006061D01*
X013941Y006003D01*
X013936Y005945D01*
X013925Y005888D01*
X013910Y005831D01*
X013889Y005777D01*
X013863Y005725D01*
X013833Y005675D01*
X013798Y005628D01*
X013760Y005585D01*
X013717Y005545D01*
X013671Y005509D01*
X013622Y005478D01*
X013570Y005451D01*
X013516Y005429D01*
X013461Y005412D01*
X013404Y005400D01*
X013346Y005393D01*
X013287Y005392D01*
X013229Y005396D01*
X013172Y005405D01*
X013115Y005420D01*
X013060Y005439D01*
X013008Y005464D01*
X012957Y005493D01*
X012910Y005526D01*
X012865Y005564D01*
X012824Y005606D01*
X012788Y005651D01*
X012755Y005699D01*
X012727Y005751D01*
X012704Y005804D01*
X012686Y005859D01*
X012673Y005916D01*
X012665Y005974D01*
X012662Y006032D01*
X012402Y018732D02*
X012405Y018791D01*
X012413Y018850D01*
X012426Y018907D01*
X012445Y018964D01*
X012468Y019018D01*
X012497Y019070D01*
X012530Y019119D01*
X012567Y019165D01*
X012608Y019207D01*
X012653Y019245D01*
X012702Y019280D01*
X012753Y019309D01*
X012807Y019334D01*
X012862Y019354D01*
X012920Y019368D01*
X012978Y019378D01*
X013037Y019382D01*
X013096Y019380D01*
X013155Y019374D01*
X013213Y019362D01*
X013270Y019344D01*
X013324Y019322D01*
X013377Y019295D01*
X013427Y019263D01*
X013474Y019227D01*
X013517Y019186D01*
X013556Y019142D01*
X013591Y019095D01*
X013622Y019044D01*
X013648Y018991D01*
X013669Y018936D01*
X013685Y018879D01*
X013696Y018821D01*
X013701Y018762D01*
X013701Y018702D01*
X013696Y018643D01*
X013685Y018585D01*
X013669Y018528D01*
X013648Y018473D01*
X013622Y018420D01*
X013591Y018369D01*
X013556Y018322D01*
X013517Y018278D01*
X013474Y018237D01*
X013427Y018201D01*
X013377Y018169D01*
X013324Y018142D01*
X013270Y018120D01*
X013213Y018102D01*
X013155Y018090D01*
X013096Y018084D01*
X013037Y018082D01*
X012978Y018086D01*
X012920Y018096D01*
X012862Y018110D01*
X012807Y018130D01*
X012753Y018155D01*
X012702Y018184D01*
X012653Y018219D01*
X012608Y018257D01*
X012567Y018299D01*
X012530Y018345D01*
X012497Y018394D01*
X012468Y018446D01*
X012445Y018500D01*
X012426Y018557D01*
X012413Y018614D01*
X012405Y018673D01*
X012402Y018732D01*
D16*
X013952Y003982D02*
X008152Y003982D01*
X007452Y003982D02*
X001652Y003982D01*
D17*
X005817Y020482D03*
D18*
X007202Y021682D02*
X007202Y021982D01*
X007202Y022282D01*
X007402Y022282D02*
X007402Y021982D01*
X007402Y021682D01*
D19*
X009072Y023502D02*
X009226Y023502D01*
X009149Y023502D02*
X009149Y023962D01*
X009072Y023962D02*
X009226Y023962D01*
X009379Y023885D02*
X009379Y023579D01*
X009456Y023502D01*
X009609Y023502D01*
X009686Y023579D01*
X009839Y023502D02*
X010146Y023502D01*
X009993Y023502D02*
X009993Y023962D01*
X009839Y023809D01*
X009686Y023885D02*
X009609Y023962D01*
X009456Y023962D01*
X009379Y023885D01*
M02*
