G75*
G70*
%OFA0B0*%
%FSLAX24Y24*%
%IPPOS*%
%LPD*%
%AMOC8*
5,1,8,0,0,1.08239X$1,22.5*
%
%ADD10C,0.0000*%
%ADD11C,0.0060*%
%ADD12C,0.0080*%
%ADD13C,0.0010*%
%ADD14C,0.0050*%
%ADD15R,0.1000X0.0200*%
%ADD16R,0.0300X0.0750*%
%ADD17C,0.0020*%
%ADD18R,0.0230X0.0240*%
%ADD19C,0.0100*%
D10*
X000746Y000107D02*
X000746Y031104D01*
X013616Y031104D01*
X013616Y000107D01*
X000746Y000107D01*
X001461Y001605D02*
X001464Y001670D01*
X001473Y001735D01*
X001488Y001799D01*
X001508Y001861D01*
X001534Y001922D01*
X001566Y001979D01*
X001602Y002033D01*
X001644Y002084D01*
X001690Y002131D01*
X001739Y002174D01*
X001793Y002212D01*
X001850Y002244D01*
X001909Y002272D01*
X001971Y002294D01*
X002035Y002310D01*
X002099Y002320D01*
X002165Y002325D01*
X002230Y002323D01*
X002295Y002316D01*
X002359Y002303D01*
X002422Y002283D01*
X002483Y002259D01*
X002541Y002229D01*
X002596Y002193D01*
X002648Y002153D01*
X002696Y002108D01*
X002740Y002059D01*
X002779Y002007D01*
X002813Y001951D01*
X002841Y001892D01*
X002865Y001831D01*
X002882Y001767D01*
X002894Y001703D01*
X002900Y001638D01*
X002900Y001572D01*
X002894Y001507D01*
X002882Y001443D01*
X002865Y001379D01*
X002841Y001318D01*
X002813Y001259D01*
X002779Y001203D01*
X002740Y001151D01*
X002696Y001102D01*
X002648Y001057D01*
X002596Y001017D01*
X002541Y000981D01*
X002483Y000951D01*
X002422Y000927D01*
X002359Y000907D01*
X002295Y000894D01*
X002230Y000887D01*
X002165Y000885D01*
X002099Y000890D01*
X002035Y000900D01*
X001971Y000916D01*
X001909Y000938D01*
X001850Y000966D01*
X001793Y000998D01*
X001739Y001036D01*
X001690Y001079D01*
X001644Y001126D01*
X001602Y001177D01*
X001566Y001231D01*
X001534Y001288D01*
X001508Y001349D01*
X001488Y001411D01*
X001473Y001475D01*
X001464Y001540D01*
X001461Y001605D01*
X003181Y003855D02*
X003185Y003946D01*
X003198Y004036D01*
X003218Y004125D01*
X003247Y004211D01*
X003283Y004295D01*
X003327Y004375D01*
X003377Y004450D01*
X003435Y004521D01*
X003498Y004586D01*
X003568Y004645D01*
X003642Y004697D01*
X003721Y004743D01*
X003804Y004781D01*
X003889Y004812D01*
X003978Y004834D01*
X004067Y004849D01*
X004158Y004855D01*
X004249Y004853D01*
X004340Y004842D01*
X004429Y004824D01*
X004516Y004797D01*
X004600Y004763D01*
X004681Y004721D01*
X004758Y004672D01*
X004830Y004616D01*
X004896Y004554D01*
X004957Y004486D01*
X005011Y004413D01*
X005058Y004335D01*
X005098Y004253D01*
X005131Y004168D01*
X005155Y004081D01*
X005172Y003991D01*
X005180Y003901D01*
X005180Y003809D01*
X005172Y003719D01*
X005155Y003629D01*
X005131Y003542D01*
X005098Y003457D01*
X005058Y003375D01*
X005011Y003297D01*
X004957Y003224D01*
X004896Y003156D01*
X004830Y003094D01*
X004758Y003038D01*
X004681Y002989D01*
X004600Y002947D01*
X004516Y002913D01*
X004429Y002886D01*
X004340Y002868D01*
X004249Y002857D01*
X004158Y002855D01*
X004067Y002861D01*
X003978Y002876D01*
X003889Y002898D01*
X003804Y002929D01*
X003721Y002967D01*
X003642Y003013D01*
X003568Y003065D01*
X003498Y003124D01*
X003435Y003189D01*
X003377Y003260D01*
X003327Y003335D01*
X003283Y003415D01*
X003247Y003499D01*
X003218Y003585D01*
X003198Y003674D01*
X003185Y003764D01*
X003181Y003855D01*
X004291Y009155D02*
X004294Y009213D01*
X004302Y009271D01*
X004315Y009328D01*
X004333Y009383D01*
X004356Y009436D01*
X004384Y009488D01*
X004417Y009536D01*
X004453Y009581D01*
X004494Y009623D01*
X004539Y009661D01*
X004586Y009694D01*
X004637Y009723D01*
X004689Y009748D01*
X004744Y009767D01*
X004801Y009782D01*
X004858Y009791D01*
X004916Y009795D01*
X004975Y009794D01*
X005033Y009787D01*
X005090Y009775D01*
X005145Y009758D01*
X005199Y009736D01*
X005251Y009709D01*
X005300Y009678D01*
X005346Y009642D01*
X005389Y009602D01*
X005427Y009559D01*
X005462Y009512D01*
X005492Y009462D01*
X005518Y009410D01*
X005539Y009356D01*
X005554Y009299D01*
X005565Y009242D01*
X005570Y009184D01*
X005570Y009126D01*
X005565Y009068D01*
X005554Y009011D01*
X005539Y008954D01*
X005518Y008900D01*
X005492Y008848D01*
X005462Y008798D01*
X005427Y008751D01*
X005389Y008708D01*
X005346Y008668D01*
X005300Y008632D01*
X005251Y008601D01*
X005199Y008574D01*
X005145Y008552D01*
X005090Y008535D01*
X005033Y008523D01*
X004975Y008516D01*
X004916Y008515D01*
X004858Y008519D01*
X004801Y008528D01*
X004744Y008543D01*
X004689Y008562D01*
X004637Y008587D01*
X004586Y008616D01*
X004539Y008649D01*
X004494Y008687D01*
X004453Y008729D01*
X004417Y008774D01*
X004384Y008822D01*
X004356Y008874D01*
X004333Y008927D01*
X004315Y008982D01*
X004302Y009039D01*
X004294Y009097D01*
X004291Y009155D01*
X008791Y009155D02*
X008794Y009213D01*
X008802Y009271D01*
X008815Y009328D01*
X008833Y009383D01*
X008856Y009436D01*
X008884Y009488D01*
X008917Y009536D01*
X008953Y009581D01*
X008994Y009623D01*
X009039Y009661D01*
X009086Y009694D01*
X009137Y009723D01*
X009189Y009748D01*
X009244Y009767D01*
X009301Y009782D01*
X009358Y009791D01*
X009416Y009795D01*
X009475Y009794D01*
X009533Y009787D01*
X009590Y009775D01*
X009645Y009758D01*
X009699Y009736D01*
X009751Y009709D01*
X009800Y009678D01*
X009846Y009642D01*
X009889Y009602D01*
X009927Y009559D01*
X009962Y009512D01*
X009992Y009462D01*
X010018Y009410D01*
X010039Y009356D01*
X010054Y009299D01*
X010065Y009242D01*
X010070Y009184D01*
X010070Y009126D01*
X010065Y009068D01*
X010054Y009011D01*
X010039Y008954D01*
X010018Y008900D01*
X009992Y008848D01*
X009962Y008798D01*
X009927Y008751D01*
X009889Y008708D01*
X009846Y008668D01*
X009800Y008632D01*
X009751Y008601D01*
X009699Y008574D01*
X009645Y008552D01*
X009590Y008535D01*
X009533Y008523D01*
X009475Y008516D01*
X009416Y008515D01*
X009358Y008519D01*
X009301Y008528D01*
X009244Y008543D01*
X009189Y008562D01*
X009137Y008587D01*
X009086Y008616D01*
X009039Y008649D01*
X008994Y008687D01*
X008953Y008729D01*
X008917Y008774D01*
X008884Y008822D01*
X008856Y008874D01*
X008833Y008927D01*
X008815Y008982D01*
X008802Y009039D01*
X008794Y009097D01*
X008791Y009155D01*
X009181Y003855D02*
X009185Y003946D01*
X009198Y004036D01*
X009218Y004125D01*
X009247Y004211D01*
X009283Y004295D01*
X009327Y004375D01*
X009377Y004450D01*
X009435Y004521D01*
X009498Y004586D01*
X009568Y004645D01*
X009642Y004697D01*
X009721Y004743D01*
X009804Y004781D01*
X009889Y004812D01*
X009978Y004834D01*
X010067Y004849D01*
X010158Y004855D01*
X010249Y004853D01*
X010340Y004842D01*
X010429Y004824D01*
X010516Y004797D01*
X010600Y004763D01*
X010681Y004721D01*
X010758Y004672D01*
X010830Y004616D01*
X010896Y004554D01*
X010957Y004486D01*
X011011Y004413D01*
X011058Y004335D01*
X011098Y004253D01*
X011131Y004168D01*
X011155Y004081D01*
X011172Y003991D01*
X011180Y003901D01*
X011180Y003809D01*
X011172Y003719D01*
X011155Y003629D01*
X011131Y003542D01*
X011098Y003457D01*
X011058Y003375D01*
X011011Y003297D01*
X010957Y003224D01*
X010896Y003156D01*
X010830Y003094D01*
X010758Y003038D01*
X010681Y002989D01*
X010600Y002947D01*
X010516Y002913D01*
X010429Y002886D01*
X010340Y002868D01*
X010249Y002857D01*
X010158Y002855D01*
X010067Y002861D01*
X009978Y002876D01*
X009889Y002898D01*
X009804Y002929D01*
X009721Y002967D01*
X009642Y003013D01*
X009568Y003065D01*
X009498Y003124D01*
X009435Y003189D01*
X009377Y003260D01*
X009327Y003335D01*
X009283Y003415D01*
X009247Y003499D01*
X009218Y003585D01*
X009198Y003674D01*
X009185Y003764D01*
X009181Y003855D01*
X011711Y001605D02*
X011714Y001670D01*
X011723Y001735D01*
X011738Y001799D01*
X011758Y001861D01*
X011784Y001922D01*
X011816Y001979D01*
X011852Y002033D01*
X011894Y002084D01*
X011940Y002131D01*
X011989Y002174D01*
X012043Y002212D01*
X012100Y002244D01*
X012159Y002272D01*
X012221Y002294D01*
X012285Y002310D01*
X012349Y002320D01*
X012415Y002325D01*
X012480Y002323D01*
X012545Y002316D01*
X012609Y002303D01*
X012672Y002283D01*
X012733Y002259D01*
X012791Y002229D01*
X012846Y002193D01*
X012898Y002153D01*
X012946Y002108D01*
X012990Y002059D01*
X013029Y002007D01*
X013063Y001951D01*
X013091Y001892D01*
X013115Y001831D01*
X013132Y001767D01*
X013144Y001703D01*
X013150Y001638D01*
X013150Y001572D01*
X013144Y001507D01*
X013132Y001443D01*
X013115Y001379D01*
X013091Y001318D01*
X013063Y001259D01*
X013029Y001203D01*
X012990Y001151D01*
X012946Y001102D01*
X012898Y001057D01*
X012846Y001017D01*
X012791Y000981D01*
X012733Y000951D01*
X012672Y000927D01*
X012609Y000907D01*
X012545Y000894D01*
X012480Y000887D01*
X012415Y000885D01*
X012349Y000890D01*
X012285Y000900D01*
X012221Y000916D01*
X012159Y000938D01*
X012100Y000966D01*
X012043Y000998D01*
X011989Y001036D01*
X011940Y001079D01*
X011894Y001126D01*
X011852Y001177D01*
X011816Y001231D01*
X011784Y001288D01*
X011758Y001349D01*
X011738Y001411D01*
X011723Y001475D01*
X011714Y001540D01*
X011711Y001605D01*
X011711Y029855D02*
X011714Y029920D01*
X011723Y029985D01*
X011738Y030049D01*
X011758Y030111D01*
X011784Y030172D01*
X011816Y030229D01*
X011852Y030283D01*
X011894Y030334D01*
X011940Y030381D01*
X011989Y030424D01*
X012043Y030462D01*
X012100Y030494D01*
X012159Y030522D01*
X012221Y030544D01*
X012285Y030560D01*
X012349Y030570D01*
X012415Y030575D01*
X012480Y030573D01*
X012545Y030566D01*
X012609Y030553D01*
X012672Y030533D01*
X012733Y030509D01*
X012791Y030479D01*
X012846Y030443D01*
X012898Y030403D01*
X012946Y030358D01*
X012990Y030309D01*
X013029Y030257D01*
X013063Y030201D01*
X013091Y030142D01*
X013115Y030081D01*
X013132Y030017D01*
X013144Y029953D01*
X013150Y029888D01*
X013150Y029822D01*
X013144Y029757D01*
X013132Y029693D01*
X013115Y029629D01*
X013091Y029568D01*
X013063Y029509D01*
X013029Y029453D01*
X012990Y029401D01*
X012946Y029352D01*
X012898Y029307D01*
X012846Y029267D01*
X012791Y029231D01*
X012733Y029201D01*
X012672Y029177D01*
X012609Y029157D01*
X012545Y029144D01*
X012480Y029137D01*
X012415Y029135D01*
X012349Y029140D01*
X012285Y029150D01*
X012221Y029166D01*
X012159Y029188D01*
X012100Y029216D01*
X012043Y029248D01*
X011989Y029286D01*
X011940Y029329D01*
X011894Y029376D01*
X011852Y029427D01*
X011816Y029481D01*
X011784Y029538D01*
X011758Y029599D01*
X011738Y029661D01*
X011723Y029725D01*
X011714Y029790D01*
X011711Y029855D01*
X001461Y029855D02*
X001464Y029920D01*
X001473Y029985D01*
X001488Y030049D01*
X001508Y030111D01*
X001534Y030172D01*
X001566Y030229D01*
X001602Y030283D01*
X001644Y030334D01*
X001690Y030381D01*
X001739Y030424D01*
X001793Y030462D01*
X001850Y030494D01*
X001909Y030522D01*
X001971Y030544D01*
X002035Y030560D01*
X002099Y030570D01*
X002165Y030575D01*
X002230Y030573D01*
X002295Y030566D01*
X002359Y030553D01*
X002422Y030533D01*
X002483Y030509D01*
X002541Y030479D01*
X002596Y030443D01*
X002648Y030403D01*
X002696Y030358D01*
X002740Y030309D01*
X002779Y030257D01*
X002813Y030201D01*
X002841Y030142D01*
X002865Y030081D01*
X002882Y030017D01*
X002894Y029953D01*
X002900Y029888D01*
X002900Y029822D01*
X002894Y029757D01*
X002882Y029693D01*
X002865Y029629D01*
X002841Y029568D01*
X002813Y029509D01*
X002779Y029453D01*
X002740Y029401D01*
X002696Y029352D01*
X002648Y029307D01*
X002596Y029267D01*
X002541Y029231D01*
X002483Y029201D01*
X002422Y029177D01*
X002359Y029157D01*
X002295Y029144D01*
X002230Y029137D01*
X002165Y029135D01*
X002099Y029140D01*
X002035Y029150D01*
X001971Y029166D01*
X001909Y029188D01*
X001850Y029216D01*
X001793Y029248D01*
X001739Y029286D01*
X001690Y029329D01*
X001644Y029376D01*
X001602Y029427D01*
X001566Y029481D01*
X001534Y029538D01*
X001508Y029599D01*
X001488Y029661D01*
X001473Y029725D01*
X001464Y029790D01*
X001461Y029855D01*
D11*
X006931Y026605D02*
X006935Y026696D01*
X006948Y026786D01*
X006968Y026875D01*
X006997Y026961D01*
X007033Y027045D01*
X007077Y027125D01*
X007127Y027200D01*
X007185Y027271D01*
X007248Y027336D01*
X007318Y027395D01*
X007392Y027447D01*
X007471Y027493D01*
X007554Y027531D01*
X007639Y027562D01*
X007728Y027584D01*
X007817Y027599D01*
X007908Y027605D01*
X007999Y027603D01*
X008090Y027592D01*
X008179Y027574D01*
X008266Y027547D01*
X008350Y027513D01*
X008431Y027471D01*
X008508Y027422D01*
X008580Y027366D01*
X008646Y027304D01*
X008707Y027236D01*
X008761Y027163D01*
X008808Y027085D01*
X008848Y027003D01*
X008881Y026918D01*
X008905Y026831D01*
X008922Y026741D01*
X008930Y026651D01*
X008930Y026559D01*
X008922Y026469D01*
X008905Y026379D01*
X008881Y026292D01*
X008848Y026207D01*
X008808Y026125D01*
X008761Y026047D01*
X008707Y025974D01*
X008646Y025906D01*
X008580Y025844D01*
X008508Y025788D01*
X008431Y025739D01*
X008350Y025697D01*
X008266Y025663D01*
X008179Y025636D01*
X008090Y025618D01*
X007999Y025607D01*
X007908Y025605D01*
X007817Y025611D01*
X007728Y025626D01*
X007639Y025648D01*
X007554Y025679D01*
X007471Y025717D01*
X007392Y025763D01*
X007318Y025815D01*
X007248Y025874D01*
X007185Y025939D01*
X007127Y026010D01*
X007077Y026085D01*
X007033Y026165D01*
X006997Y026249D01*
X006968Y026335D01*
X006948Y026424D01*
X006935Y026514D01*
X006931Y026605D01*
X007831Y028605D02*
X007833Y028660D01*
X007841Y028714D01*
X007853Y028767D01*
X007870Y028819D01*
X007892Y028869D01*
X007918Y028917D01*
X007949Y028962D01*
X007983Y029004D01*
X008021Y029044D01*
X008063Y029079D01*
X008108Y029110D01*
X008155Y029138D01*
X008205Y029161D01*
X008256Y029179D01*
X008309Y029192D01*
X008363Y029201D01*
X008417Y029205D01*
X008472Y029204D01*
X008526Y029197D01*
X008580Y029186D01*
X008632Y029170D01*
X008683Y029150D01*
X008731Y029125D01*
X008777Y029095D01*
X008820Y029062D01*
X008860Y029024D01*
X008896Y028984D01*
X008929Y028940D01*
X008957Y028893D01*
X008981Y028844D01*
X009001Y028793D01*
X009016Y028740D01*
X009025Y028687D01*
X009030Y028632D01*
X009030Y028578D01*
X009025Y028523D01*
X009016Y028470D01*
X009001Y028417D01*
X008981Y028366D01*
X008957Y028317D01*
X008929Y028270D01*
X008896Y028226D01*
X008860Y028186D01*
X008820Y028148D01*
X008777Y028115D01*
X008731Y028085D01*
X008683Y028060D01*
X008632Y028040D01*
X008580Y028024D01*
X008526Y028013D01*
X008472Y028006D01*
X008417Y028005D01*
X008363Y028009D01*
X008309Y028018D01*
X008256Y028031D01*
X008205Y028049D01*
X008155Y028072D01*
X008108Y028100D01*
X008063Y028131D01*
X008021Y028166D01*
X007983Y028206D01*
X007949Y028248D01*
X007918Y028293D01*
X007892Y028341D01*
X007870Y028391D01*
X007853Y028443D01*
X007841Y028496D01*
X007833Y028550D01*
X007831Y028605D01*
X010398Y010905D02*
X010398Y009305D01*
X011398Y009305D01*
X011398Y010905D01*
X010398Y010905D01*
X010648Y010505D02*
X010898Y010105D01*
X011148Y010105D01*
X010898Y010105D02*
X010898Y010705D01*
X011148Y010505D02*
X010898Y010105D01*
X010648Y010105D01*
X010898Y010105D02*
X010898Y009855D01*
X010648Y010505D02*
X011148Y010505D01*
X005993Y005185D02*
X005566Y005185D01*
X005780Y005185D02*
X005780Y005826D01*
X005566Y005612D01*
X005349Y005826D02*
X005135Y005826D01*
X005242Y005826D02*
X005242Y005292D01*
X005135Y005185D01*
X005029Y005185D01*
X004922Y005292D01*
X003831Y008667D02*
X003031Y008667D01*
X003011Y008669D01*
X002993Y008675D01*
X002975Y008684D01*
X002960Y008696D01*
X002948Y008711D01*
X002939Y008729D01*
X002933Y008747D01*
X002931Y008767D01*
X002931Y010467D01*
X002933Y010487D01*
X002939Y010505D01*
X002948Y010523D01*
X002960Y010538D01*
X002975Y010550D01*
X002993Y010559D01*
X003011Y010565D01*
X003031Y010567D01*
X003831Y010567D01*
X003851Y010565D01*
X003869Y010559D01*
X003887Y010550D01*
X003902Y010538D01*
X003914Y010523D01*
X003923Y010505D01*
X003929Y010487D01*
X003931Y010467D01*
X003931Y008767D01*
X003929Y008747D01*
X003923Y008729D01*
X003914Y008711D01*
X003902Y008696D01*
X003887Y008684D01*
X003869Y008675D01*
X003851Y008669D01*
X003831Y008667D01*
X003431Y009467D02*
X003431Y009517D01*
X003431Y009717D02*
X003431Y009767D01*
X001831Y008102D02*
X001833Y008157D01*
X001841Y008211D01*
X001853Y008264D01*
X001870Y008316D01*
X001892Y008366D01*
X001918Y008414D01*
X001949Y008459D01*
X001983Y008501D01*
X002021Y008541D01*
X002063Y008576D01*
X002108Y008607D01*
X002155Y008635D01*
X002205Y008658D01*
X002256Y008676D01*
X002309Y008689D01*
X002363Y008698D01*
X002417Y008702D01*
X002472Y008701D01*
X002526Y008694D01*
X002580Y008683D01*
X002632Y008667D01*
X002683Y008647D01*
X002731Y008622D01*
X002777Y008592D01*
X002820Y008559D01*
X002860Y008521D01*
X002896Y008481D01*
X002929Y008437D01*
X002957Y008390D01*
X002981Y008341D01*
X003001Y008290D01*
X003016Y008237D01*
X003025Y008184D01*
X003030Y008129D01*
X003030Y008075D01*
X003025Y008020D01*
X003016Y007967D01*
X003001Y007914D01*
X002981Y007863D01*
X002957Y007814D01*
X002929Y007767D01*
X002896Y007723D01*
X002860Y007683D01*
X002820Y007645D01*
X002777Y007612D01*
X002731Y007582D01*
X002683Y007557D01*
X002632Y007537D01*
X002580Y007521D01*
X002526Y007510D01*
X002472Y007503D01*
X002417Y007502D01*
X002363Y007506D01*
X002309Y007515D01*
X002256Y007528D01*
X002205Y007546D01*
X002155Y007569D01*
X002108Y007597D01*
X002063Y007628D01*
X002021Y007663D01*
X001983Y007703D01*
X001949Y007745D01*
X001918Y007790D01*
X001892Y007838D01*
X001870Y007888D01*
X001853Y007940D01*
X001841Y007993D01*
X001833Y008047D01*
X001831Y008102D01*
D12*
X004222Y006102D02*
X004222Y013109D01*
X005331Y013109D01*
X005331Y013105D02*
X005331Y012005D01*
X005531Y012005D02*
X005531Y013109D01*
X005531Y013105D02*
X005831Y013105D01*
X006031Y013105D02*
X006331Y013105D01*
X006331Y012005D01*
X006531Y012005D02*
X006531Y013109D01*
X006531Y013105D02*
X006831Y013105D01*
X007031Y013105D02*
X007331Y013105D01*
X007331Y012005D01*
X007531Y012005D02*
X007531Y013105D01*
X007831Y013105D01*
X008031Y013105D02*
X008331Y013105D01*
X008331Y012005D01*
X008531Y012005D02*
X008531Y013109D01*
X008531Y013105D02*
X008831Y013105D01*
X009031Y013109D02*
X010140Y013109D01*
X010140Y006102D01*
X004222Y006102D01*
X005331Y011155D02*
X005331Y011255D01*
X005331Y011155D02*
X005531Y011155D01*
X005531Y011255D01*
X005831Y012205D02*
X006031Y012205D01*
X006331Y011255D02*
X006331Y011155D01*
X006531Y011155D01*
X006531Y011255D01*
X006831Y012205D02*
X007031Y012205D01*
X007331Y011255D02*
X007331Y011155D01*
X007531Y011155D01*
X007531Y011255D01*
X007831Y012205D02*
X008031Y012205D01*
X008331Y011255D02*
X008331Y011155D01*
X008531Y011155D01*
X008531Y011255D01*
X008831Y012205D02*
X009031Y012205D01*
X009481Y012705D02*
X009481Y013105D01*
X009481Y012705D02*
X009831Y012705D01*
X009831Y013105D01*
X007531Y013105D02*
X007531Y013109D01*
X004881Y013105D02*
X004881Y012705D01*
X004531Y012705D01*
X004531Y013105D01*
X006931Y025855D02*
X006931Y027355D01*
D13*
X006899Y025825D02*
X006971Y025879D01*
X006970Y025878D02*
X007025Y025810D01*
X007085Y025747D01*
X007149Y025688D01*
X007217Y025634D01*
X007289Y025585D01*
X007365Y025541D01*
X007443Y025503D01*
X007524Y025471D01*
X007607Y025444D01*
X007691Y025424D01*
X007777Y025410D01*
X007864Y025402D01*
X007951Y025400D01*
X008038Y025405D01*
X008124Y025416D01*
X008210Y025433D01*
X008294Y025456D01*
X008376Y025485D01*
X008455Y025520D01*
X008532Y025561D01*
X008606Y025607D01*
X008677Y025658D01*
X008743Y025715D01*
X008805Y025776D01*
X008863Y025841D01*
X008916Y025910D01*
X008963Y025983D01*
X009005Y026059D01*
X009042Y026138D01*
X009073Y026220D01*
X009098Y026303D01*
X009116Y026388D01*
X009129Y026475D01*
X009135Y026561D01*
X009135Y026649D01*
X009129Y026735D01*
X009116Y026822D01*
X009098Y026907D01*
X009073Y026990D01*
X009042Y027072D01*
X009005Y027151D01*
X008963Y027227D01*
X008916Y027300D01*
X008863Y027369D01*
X008805Y027434D01*
X008743Y027495D01*
X008677Y027552D01*
X008606Y027603D01*
X008532Y027649D01*
X008455Y027690D01*
X008376Y027725D01*
X008294Y027754D01*
X008210Y027777D01*
X008124Y027794D01*
X008038Y027805D01*
X007951Y027810D01*
X007864Y027808D01*
X007777Y027800D01*
X007691Y027786D01*
X007607Y027766D01*
X007524Y027739D01*
X007443Y027707D01*
X007365Y027669D01*
X007289Y027625D01*
X007217Y027576D01*
X007149Y027522D01*
X007085Y027463D01*
X007025Y027400D01*
X006970Y027332D01*
X006899Y027385D01*
X006898Y027386D01*
X006957Y027459D01*
X007021Y027527D01*
X007090Y027590D01*
X007164Y027648D01*
X007241Y027701D01*
X007322Y027748D01*
X007406Y027789D01*
X007493Y027824D01*
X007582Y027852D01*
X007673Y027874D01*
X007765Y027889D01*
X007859Y027898D01*
X007952Y027900D01*
X008046Y027895D01*
X008139Y027883D01*
X008230Y027865D01*
X008321Y027840D01*
X008409Y027809D01*
X008495Y027771D01*
X008577Y027727D01*
X008657Y027678D01*
X008732Y027622D01*
X008804Y027562D01*
X008870Y027496D01*
X008932Y027426D01*
X008989Y027352D01*
X009040Y027273D01*
X009086Y027191D01*
X009125Y027106D01*
X009158Y027019D01*
X009185Y026929D01*
X009205Y026838D01*
X009218Y026745D01*
X009225Y026652D01*
X009225Y026558D01*
X009218Y026465D01*
X009205Y026372D01*
X009185Y026281D01*
X009158Y026191D01*
X009125Y026104D01*
X009086Y026019D01*
X009040Y025937D01*
X008989Y025858D01*
X008932Y025784D01*
X008870Y025714D01*
X008804Y025648D01*
X008732Y025588D01*
X008657Y025532D01*
X008577Y025483D01*
X008495Y025439D01*
X008409Y025401D01*
X008321Y025370D01*
X008230Y025345D01*
X008139Y025327D01*
X008046Y025315D01*
X007952Y025310D01*
X007859Y025312D01*
X007765Y025321D01*
X007673Y025336D01*
X007582Y025358D01*
X007493Y025386D01*
X007406Y025421D01*
X007322Y025462D01*
X007241Y025509D01*
X007164Y025562D01*
X007090Y025620D01*
X007021Y025683D01*
X006957Y025751D01*
X006898Y025824D01*
X006905Y025829D01*
X006964Y025757D01*
X007028Y025690D01*
X007096Y025627D01*
X007169Y025569D01*
X007246Y025517D01*
X007326Y025470D01*
X007410Y025429D01*
X007496Y025395D01*
X007585Y025367D01*
X007675Y025345D01*
X007767Y025330D01*
X007859Y025321D01*
X007952Y025319D01*
X008045Y025324D01*
X008137Y025336D01*
X008228Y025354D01*
X008318Y025379D01*
X008406Y025410D01*
X008491Y025447D01*
X008573Y025491D01*
X008652Y025540D01*
X008727Y025595D01*
X008798Y025655D01*
X008864Y025720D01*
X008925Y025790D01*
X008982Y025864D01*
X009033Y025941D01*
X009078Y026023D01*
X009117Y026107D01*
X009150Y026194D01*
X009176Y026283D01*
X009196Y026374D01*
X009209Y026466D01*
X009216Y026559D01*
X009216Y026651D01*
X009209Y026744D01*
X009196Y026836D01*
X009176Y026927D01*
X009150Y027016D01*
X009117Y027103D01*
X009078Y027187D01*
X009033Y027269D01*
X008982Y027346D01*
X008925Y027420D01*
X008864Y027490D01*
X008798Y027555D01*
X008727Y027615D01*
X008652Y027670D01*
X008573Y027719D01*
X008491Y027763D01*
X008406Y027800D01*
X008318Y027831D01*
X008228Y027856D01*
X008137Y027874D01*
X008045Y027886D01*
X007952Y027891D01*
X007859Y027889D01*
X007767Y027880D01*
X007675Y027865D01*
X007585Y027843D01*
X007496Y027815D01*
X007410Y027781D01*
X007326Y027740D01*
X007246Y027693D01*
X007169Y027641D01*
X007096Y027583D01*
X007028Y027520D01*
X006964Y027453D01*
X006905Y027381D01*
X006912Y027375D01*
X006971Y027447D01*
X007034Y027514D01*
X007102Y027576D01*
X007174Y027634D01*
X007251Y027686D01*
X007330Y027732D01*
X007413Y027772D01*
X007499Y027807D01*
X007587Y027835D01*
X007677Y027856D01*
X007768Y027872D01*
X007860Y027880D01*
X007952Y027882D01*
X008044Y027877D01*
X008136Y027865D01*
X008226Y027847D01*
X008315Y027823D01*
X008402Y027792D01*
X008487Y027755D01*
X008568Y027712D01*
X008647Y027663D01*
X008721Y027608D01*
X008792Y027549D01*
X008857Y027484D01*
X008918Y027415D01*
X008974Y027341D01*
X009025Y027264D01*
X009070Y027183D01*
X009108Y027099D01*
X009141Y027013D01*
X009167Y026925D01*
X009187Y026835D01*
X009200Y026743D01*
X009207Y026651D01*
X009207Y026559D01*
X009200Y026467D01*
X009187Y026375D01*
X009167Y026285D01*
X009141Y026197D01*
X009108Y026111D01*
X009070Y026027D01*
X009025Y025946D01*
X008974Y025869D01*
X008918Y025795D01*
X008857Y025726D01*
X008792Y025661D01*
X008721Y025602D01*
X008647Y025547D01*
X008568Y025498D01*
X008487Y025455D01*
X008402Y025418D01*
X008315Y025387D01*
X008226Y025363D01*
X008136Y025345D01*
X008044Y025333D01*
X007952Y025328D01*
X007860Y025330D01*
X007768Y025338D01*
X007677Y025354D01*
X007587Y025375D01*
X007499Y025403D01*
X007413Y025438D01*
X007330Y025478D01*
X007251Y025524D01*
X007174Y025576D01*
X007102Y025634D01*
X007034Y025696D01*
X006971Y025763D01*
X006912Y025835D01*
X006920Y025840D01*
X006977Y025769D01*
X007040Y025702D01*
X007108Y025640D01*
X007180Y025584D01*
X007255Y025532D01*
X007335Y025486D01*
X007417Y025446D01*
X007502Y025412D01*
X007589Y025384D01*
X007679Y025362D01*
X007769Y025347D01*
X007860Y025339D01*
X007952Y025337D01*
X008043Y025342D01*
X008134Y025353D01*
X008224Y025371D01*
X008313Y025396D01*
X008399Y025426D01*
X008483Y025463D01*
X008564Y025506D01*
X008642Y025555D01*
X008716Y025609D01*
X008785Y025668D01*
X008851Y025732D01*
X008912Y025801D01*
X008967Y025874D01*
X009017Y025951D01*
X009062Y026031D01*
X009100Y026114D01*
X009132Y026200D01*
X009159Y026288D01*
X009178Y026377D01*
X009192Y026468D01*
X009198Y026559D01*
X009198Y026651D01*
X009192Y026742D01*
X009178Y026833D01*
X009159Y026922D01*
X009132Y027010D01*
X009100Y027096D01*
X009062Y027179D01*
X009017Y027259D01*
X008967Y027336D01*
X008912Y027409D01*
X008851Y027478D01*
X008785Y027542D01*
X008716Y027601D01*
X008642Y027655D01*
X008564Y027704D01*
X008483Y027747D01*
X008399Y027784D01*
X008313Y027814D01*
X008224Y027839D01*
X008134Y027857D01*
X008043Y027868D01*
X007952Y027873D01*
X007860Y027871D01*
X007769Y027863D01*
X007679Y027848D01*
X007589Y027826D01*
X007502Y027798D01*
X007417Y027764D01*
X007335Y027724D01*
X007255Y027678D01*
X007180Y027626D01*
X007108Y027570D01*
X007040Y027508D01*
X006977Y027441D01*
X006920Y027370D01*
X006927Y027364D01*
X006984Y027435D01*
X007047Y027501D01*
X007114Y027563D01*
X007185Y027619D01*
X007260Y027670D01*
X007339Y027716D01*
X007421Y027756D01*
X007505Y027790D01*
X007592Y027817D01*
X007680Y027839D01*
X007770Y027854D01*
X007861Y027862D01*
X007952Y027864D01*
X008043Y027859D01*
X008133Y027848D01*
X008222Y027830D01*
X008310Y027806D01*
X008396Y027775D01*
X008479Y027739D01*
X008559Y027696D01*
X008637Y027648D01*
X008710Y027594D01*
X008779Y027535D01*
X008844Y027472D01*
X008905Y027403D01*
X008960Y027331D01*
X009009Y027255D01*
X009054Y027175D01*
X009092Y027093D01*
X009124Y027007D01*
X009150Y026920D01*
X009169Y026831D01*
X009183Y026741D01*
X009189Y026650D01*
X009189Y026560D01*
X009183Y026469D01*
X009169Y026379D01*
X009150Y026290D01*
X009124Y026203D01*
X009092Y026117D01*
X009054Y026035D01*
X009009Y025955D01*
X008960Y025879D01*
X008905Y025807D01*
X008844Y025738D01*
X008779Y025675D01*
X008710Y025616D01*
X008637Y025562D01*
X008559Y025514D01*
X008479Y025471D01*
X008396Y025435D01*
X008310Y025404D01*
X008222Y025380D01*
X008133Y025362D01*
X008043Y025351D01*
X007952Y025346D01*
X007861Y025348D01*
X007770Y025356D01*
X007680Y025371D01*
X007592Y025393D01*
X007505Y025420D01*
X007421Y025454D01*
X007339Y025494D01*
X007260Y025540D01*
X007185Y025591D01*
X007114Y025647D01*
X007047Y025709D01*
X006984Y025775D01*
X006927Y025846D01*
X006934Y025851D01*
X006991Y025781D01*
X007053Y025715D01*
X007120Y025654D01*
X007190Y025598D01*
X007265Y025547D01*
X007343Y025502D01*
X007424Y025462D01*
X007508Y025429D01*
X007594Y025401D01*
X007682Y025380D01*
X007771Y025365D01*
X007861Y025357D01*
X007952Y025355D01*
X008042Y025360D01*
X008131Y025371D01*
X008220Y025389D01*
X008307Y025413D01*
X008392Y025443D01*
X008475Y025480D01*
X008555Y025522D01*
X008631Y025570D01*
X008704Y025623D01*
X008773Y025681D01*
X008838Y025745D01*
X008898Y025812D01*
X008952Y025884D01*
X009002Y025960D01*
X009046Y026039D01*
X009083Y026121D01*
X009115Y026205D01*
X009141Y026292D01*
X009161Y026380D01*
X009174Y026470D01*
X009180Y026560D01*
X009180Y026650D01*
X009174Y026740D01*
X009161Y026830D01*
X009141Y026918D01*
X009115Y027005D01*
X009083Y027089D01*
X009046Y027171D01*
X009002Y027250D01*
X008952Y027326D01*
X008898Y027398D01*
X008838Y027465D01*
X008773Y027529D01*
X008704Y027587D01*
X008631Y027640D01*
X008555Y027688D01*
X008475Y027730D01*
X008392Y027767D01*
X008307Y027797D01*
X008220Y027821D01*
X008131Y027839D01*
X008042Y027850D01*
X007952Y027855D01*
X007861Y027853D01*
X007771Y027845D01*
X007682Y027830D01*
X007594Y027809D01*
X007508Y027781D01*
X007424Y027748D01*
X007343Y027708D01*
X007265Y027663D01*
X007190Y027612D01*
X007120Y027556D01*
X007053Y027495D01*
X006991Y027429D01*
X006934Y027359D01*
X006941Y027354D01*
X006998Y027423D01*
X007059Y027488D01*
X007125Y027549D01*
X007196Y027605D01*
X007270Y027655D01*
X007347Y027700D01*
X007428Y027740D01*
X007511Y027773D01*
X007597Y027800D01*
X007684Y027821D01*
X007773Y027836D01*
X007862Y027844D01*
X007952Y027846D01*
X008041Y027841D01*
X008130Y027830D01*
X008218Y027812D01*
X008304Y027788D01*
X008389Y027758D01*
X008471Y027722D01*
X008550Y027680D01*
X008626Y027633D01*
X008699Y027580D01*
X008767Y027522D01*
X008831Y027459D01*
X008891Y027392D01*
X008945Y027320D01*
X008994Y027245D01*
X009037Y027167D01*
X009075Y027086D01*
X009107Y027002D01*
X009132Y026916D01*
X009152Y026828D01*
X009165Y026739D01*
X009171Y026650D01*
X009171Y026560D01*
X009165Y026471D01*
X009152Y026382D01*
X009132Y026294D01*
X009107Y026208D01*
X009075Y026124D01*
X009037Y026043D01*
X008994Y025965D01*
X008945Y025890D01*
X008891Y025818D01*
X008831Y025751D01*
X008767Y025688D01*
X008699Y025630D01*
X008626Y025577D01*
X008550Y025530D01*
X008471Y025488D01*
X008389Y025452D01*
X008304Y025422D01*
X008218Y025398D01*
X008130Y025380D01*
X008041Y025369D01*
X007952Y025364D01*
X007862Y025366D01*
X007773Y025374D01*
X007684Y025389D01*
X007597Y025410D01*
X007511Y025437D01*
X007428Y025470D01*
X007347Y025510D01*
X007270Y025555D01*
X007196Y025605D01*
X007125Y025661D01*
X007059Y025722D01*
X006998Y025787D01*
X006941Y025856D01*
X006948Y025862D01*
X007005Y025793D01*
X007066Y025728D01*
X007131Y025668D01*
X007201Y025612D01*
X007275Y025562D01*
X007352Y025518D01*
X007432Y025479D01*
X007514Y025446D01*
X007599Y025418D01*
X007686Y025398D01*
X007774Y025383D01*
X007862Y025375D01*
X007951Y025373D01*
X008040Y025378D01*
X008129Y025389D01*
X008216Y025406D01*
X008302Y025430D01*
X008386Y025460D01*
X008467Y025496D01*
X008546Y025537D01*
X008621Y025585D01*
X008693Y025637D01*
X008761Y025695D01*
X008825Y025757D01*
X008884Y025824D01*
X008938Y025895D01*
X008986Y025969D01*
X009029Y026047D01*
X009067Y026128D01*
X009098Y026211D01*
X009124Y026297D01*
X009143Y026384D01*
X009156Y026472D01*
X009162Y026560D01*
X009162Y026650D01*
X009156Y026738D01*
X009143Y026826D01*
X009124Y026913D01*
X009098Y026999D01*
X009067Y027082D01*
X009029Y027163D01*
X008986Y027241D01*
X008938Y027315D01*
X008884Y027386D01*
X008825Y027453D01*
X008761Y027515D01*
X008693Y027573D01*
X008621Y027625D01*
X008546Y027673D01*
X008467Y027714D01*
X008386Y027750D01*
X008302Y027780D01*
X008216Y027804D01*
X008129Y027821D01*
X008040Y027832D01*
X007951Y027837D01*
X007862Y027835D01*
X007774Y027827D01*
X007686Y027812D01*
X007599Y027792D01*
X007514Y027764D01*
X007432Y027731D01*
X007352Y027692D01*
X007275Y027648D01*
X007201Y027598D01*
X007131Y027542D01*
X007066Y027482D01*
X007005Y027417D01*
X006948Y027348D01*
X006956Y027343D01*
X007011Y027411D01*
X007072Y027476D01*
X007137Y027535D01*
X007206Y027590D01*
X007280Y027640D01*
X007356Y027684D01*
X007435Y027723D01*
X007518Y027756D01*
X007602Y027783D01*
X007688Y027804D01*
X007775Y027818D01*
X007863Y027826D01*
X007951Y027828D01*
X008040Y027823D01*
X008127Y027812D01*
X008214Y027795D01*
X008299Y027771D01*
X008382Y027742D01*
X008463Y027706D01*
X008541Y027665D01*
X008616Y027618D01*
X008688Y027566D01*
X008755Y027509D01*
X008818Y027447D01*
X008877Y027380D01*
X008930Y027310D01*
X008979Y027236D01*
X009021Y027159D01*
X009059Y027079D01*
X009090Y026996D01*
X009115Y026911D01*
X009134Y026825D01*
X009147Y026737D01*
X009153Y026649D01*
X009153Y026561D01*
X009147Y026473D01*
X009134Y026385D01*
X009115Y026299D01*
X009090Y026214D01*
X009059Y026131D01*
X009021Y026051D01*
X008979Y025974D01*
X008930Y025900D01*
X008877Y025830D01*
X008818Y025763D01*
X008755Y025701D01*
X008688Y025644D01*
X008616Y025592D01*
X008541Y025545D01*
X008463Y025504D01*
X008382Y025468D01*
X008299Y025439D01*
X008214Y025415D01*
X008127Y025398D01*
X008040Y025387D01*
X007951Y025382D01*
X007863Y025384D01*
X007775Y025392D01*
X007688Y025406D01*
X007602Y025427D01*
X007518Y025454D01*
X007435Y025487D01*
X007356Y025526D01*
X007280Y025570D01*
X007206Y025620D01*
X007137Y025675D01*
X007072Y025734D01*
X007011Y025799D01*
X006956Y025867D01*
X006963Y025873D01*
X007018Y025805D01*
X007078Y025741D01*
X007143Y025681D01*
X007212Y025627D01*
X007284Y025578D01*
X007360Y025534D01*
X007439Y025495D01*
X007521Y025462D01*
X007604Y025436D01*
X007689Y025415D01*
X007776Y025401D01*
X007863Y025393D01*
X007951Y025391D01*
X008039Y025396D01*
X008126Y025407D01*
X008212Y025424D01*
X008296Y025447D01*
X008379Y025477D01*
X008459Y025512D01*
X008537Y025553D01*
X008611Y025600D01*
X008682Y025651D01*
X008749Y025708D01*
X008812Y025769D01*
X008870Y025835D01*
X008923Y025905D01*
X008971Y025979D01*
X009013Y026055D01*
X009050Y026135D01*
X009081Y026217D01*
X009106Y026301D01*
X009125Y026387D01*
X009138Y026474D01*
X009144Y026561D01*
X009144Y026649D01*
X009138Y026736D01*
X009125Y026823D01*
X009106Y026909D01*
X009081Y026993D01*
X009050Y027075D01*
X009013Y027155D01*
X008971Y027231D01*
X008923Y027305D01*
X008870Y027375D01*
X008812Y027441D01*
X008749Y027502D01*
X008682Y027559D01*
X008611Y027610D01*
X008537Y027657D01*
X008459Y027698D01*
X008379Y027733D01*
X008296Y027763D01*
X008212Y027786D01*
X008126Y027803D01*
X008039Y027814D01*
X007951Y027819D01*
X007863Y027817D01*
X007776Y027809D01*
X007689Y027795D01*
X007604Y027774D01*
X007521Y027748D01*
X007439Y027715D01*
X007360Y027676D01*
X007284Y027632D01*
X007212Y027583D01*
X007143Y027529D01*
X007078Y027469D01*
X007018Y027405D01*
X006963Y027337D01*
X002200Y011197D02*
X002278Y011242D01*
X002278Y011241D02*
X002306Y011197D01*
X002337Y011155D01*
X002370Y011115D01*
X002406Y011077D01*
X002445Y011042D01*
X002486Y011010D01*
X002530Y010980D01*
X002575Y010954D01*
X002622Y010931D01*
X002670Y010911D01*
X002720Y010895D01*
X002770Y010882D01*
X002822Y010873D01*
X002874Y010867D01*
X002926Y010865D01*
X002927Y010776D01*
X002926Y010775D01*
X002871Y010777D01*
X002817Y010783D01*
X002762Y010792D01*
X002709Y010805D01*
X002657Y010821D01*
X002605Y010840D01*
X002555Y010863D01*
X002507Y010889D01*
X002460Y010918D01*
X002416Y010950D01*
X002373Y010985D01*
X002333Y011023D01*
X002296Y011063D01*
X002261Y011105D01*
X002229Y011150D01*
X002200Y011196D01*
X002208Y011201D01*
X002238Y011152D01*
X002273Y011105D01*
X002310Y011061D01*
X002350Y011019D01*
X002393Y010980D01*
X002439Y010944D01*
X002487Y010912D01*
X002537Y010883D01*
X002589Y010857D01*
X002642Y010835D01*
X002697Y010817D01*
X002754Y010803D01*
X002811Y010793D01*
X002868Y010786D01*
X002926Y010784D01*
X002926Y010793D01*
X002869Y010795D01*
X002812Y010802D01*
X002755Y010812D01*
X002700Y010826D01*
X002645Y010844D01*
X002592Y010865D01*
X002541Y010891D01*
X002491Y010920D01*
X002444Y010952D01*
X002399Y010987D01*
X002356Y011025D01*
X002316Y011067D01*
X002280Y011110D01*
X002246Y011157D01*
X002215Y011205D01*
X002223Y011210D01*
X002253Y011162D01*
X002287Y011116D01*
X002323Y011073D01*
X002363Y011032D01*
X002405Y010994D01*
X002449Y010959D01*
X002496Y010927D01*
X002545Y010899D01*
X002596Y010874D01*
X002649Y010852D01*
X002702Y010835D01*
X002757Y010821D01*
X002813Y010811D01*
X002869Y010804D01*
X002926Y010802D01*
X002926Y010811D01*
X002870Y010813D01*
X002814Y010819D01*
X002759Y010829D01*
X002705Y010843D01*
X002652Y010861D01*
X002600Y010882D01*
X002549Y010907D01*
X002501Y010935D01*
X002455Y010966D01*
X002410Y011001D01*
X002369Y011038D01*
X002330Y011079D01*
X002294Y011121D01*
X002261Y011167D01*
X002231Y011214D01*
X002239Y011219D01*
X002268Y011172D01*
X002301Y011127D01*
X002337Y011085D01*
X002375Y011045D01*
X002416Y011008D01*
X002460Y010973D01*
X002506Y010942D01*
X002554Y010915D01*
X002603Y010890D01*
X002655Y010869D01*
X002707Y010852D01*
X002761Y010838D01*
X002816Y010828D01*
X002871Y010822D01*
X002926Y010820D01*
X002926Y010829D01*
X002871Y010831D01*
X002817Y010837D01*
X002763Y010847D01*
X002710Y010861D01*
X002658Y010878D01*
X002607Y010898D01*
X002558Y010923D01*
X002511Y010950D01*
X002465Y010981D01*
X002422Y011014D01*
X002381Y011051D01*
X002343Y011091D01*
X002308Y011133D01*
X002276Y011177D01*
X002247Y011223D01*
X002255Y011228D01*
X002283Y011182D01*
X002315Y011138D01*
X002350Y011097D01*
X002388Y011058D01*
X002428Y011021D01*
X002470Y010988D01*
X002515Y010958D01*
X002562Y010930D01*
X002611Y010907D01*
X002661Y010886D01*
X002712Y010869D01*
X002765Y010856D01*
X002818Y010846D01*
X002872Y010840D01*
X002926Y010838D01*
X002926Y010847D01*
X002873Y010849D01*
X002819Y010855D01*
X002767Y010865D01*
X002715Y010878D01*
X002664Y010895D01*
X002614Y010915D01*
X002566Y010938D01*
X002520Y010965D01*
X002476Y010995D01*
X002434Y011028D01*
X002394Y011064D01*
X002357Y011103D01*
X002322Y011144D01*
X002291Y011187D01*
X002262Y011232D01*
X002270Y011237D01*
X002298Y011192D01*
X002329Y011149D01*
X002363Y011109D01*
X002400Y011071D01*
X002439Y011035D01*
X002481Y011003D01*
X002525Y010973D01*
X002571Y010946D01*
X002618Y010923D01*
X002667Y010903D01*
X002717Y010886D01*
X002769Y010873D01*
X002821Y010864D01*
X002873Y010858D01*
X002926Y010856D01*
X002935Y010776D02*
X002935Y010866D01*
X002936Y010865D02*
X002990Y010867D01*
X003043Y010873D01*
X003096Y010883D01*
X003148Y010897D01*
X003199Y010914D01*
X003249Y010935D01*
X003297Y010959D01*
X003343Y010987D01*
X003387Y011018D01*
X003428Y011052D01*
X003468Y011089D01*
X003504Y011128D01*
X003572Y011071D01*
X003573Y011070D01*
X003535Y011029D01*
X003495Y010991D01*
X003452Y010955D01*
X003407Y010922D01*
X003360Y010892D01*
X003312Y010866D01*
X003261Y010842D01*
X003209Y010822D01*
X003156Y010806D01*
X003102Y010792D01*
X003047Y010783D01*
X002992Y010777D01*
X002936Y010775D01*
X002936Y010784D01*
X002991Y010786D01*
X003046Y010792D01*
X003100Y010801D01*
X003154Y010814D01*
X003206Y010831D01*
X003258Y010850D01*
X003308Y010874D01*
X003356Y010900D01*
X003402Y010930D01*
X003447Y010962D01*
X003489Y010997D01*
X003529Y011036D01*
X003566Y011076D01*
X003559Y011082D01*
X003522Y011042D01*
X003483Y011004D01*
X003441Y010969D01*
X003397Y010937D01*
X003351Y010908D01*
X003303Y010882D01*
X003254Y010859D01*
X003203Y010839D01*
X003151Y010823D01*
X003098Y010810D01*
X003045Y010801D01*
X002990Y010795D01*
X002936Y010793D01*
X002936Y010802D01*
X002990Y010804D01*
X003043Y010810D01*
X003096Y010819D01*
X003149Y010832D01*
X003200Y010848D01*
X003251Y010867D01*
X003299Y010890D01*
X003347Y010915D01*
X003392Y010944D01*
X003436Y010976D01*
X003477Y011011D01*
X003516Y011048D01*
X003552Y011088D01*
X003545Y011094D01*
X003509Y011054D01*
X003471Y011017D01*
X003430Y010983D01*
X003387Y010952D01*
X003342Y010923D01*
X003295Y010898D01*
X003247Y010875D01*
X003197Y010856D01*
X003146Y010840D01*
X003095Y010828D01*
X003042Y010819D01*
X002989Y010813D01*
X002936Y010811D01*
X002936Y010820D01*
X002993Y010822D01*
X003050Y010829D01*
X003106Y010839D01*
X003161Y010854D01*
X003215Y010872D01*
X003268Y010894D01*
X003318Y010920D01*
X003367Y010949D01*
X003414Y010982D01*
X003458Y011018D01*
X003500Y011057D01*
X003538Y011099D01*
X003532Y011105D01*
X003493Y011064D01*
X003452Y011025D01*
X003409Y010989D01*
X003362Y010957D01*
X003314Y010928D01*
X003264Y010902D01*
X003212Y010881D01*
X003158Y010862D01*
X003104Y010848D01*
X003048Y010838D01*
X002992Y010831D01*
X002936Y010829D01*
X002936Y010838D01*
X002992Y010840D01*
X003047Y010847D01*
X003102Y010857D01*
X003156Y010871D01*
X003209Y010889D01*
X003260Y010911D01*
X003310Y010936D01*
X003358Y010965D01*
X003403Y010997D01*
X003446Y011032D01*
X003487Y011070D01*
X003525Y011111D01*
X003518Y011117D01*
X003481Y011076D01*
X003440Y011039D01*
X003398Y011004D01*
X003353Y010972D01*
X003305Y010944D01*
X003256Y010919D01*
X003205Y010897D01*
X003153Y010880D01*
X003100Y010866D01*
X003046Y010856D01*
X002991Y010849D01*
X002936Y010847D01*
X002936Y010856D01*
X002990Y010858D01*
X003045Y010864D01*
X003098Y010874D01*
X003151Y010888D01*
X003202Y010906D01*
X003252Y010927D01*
X003301Y010952D01*
X003348Y010980D01*
X003392Y011011D01*
X003434Y011045D01*
X003474Y011083D01*
X003511Y011123D01*
X002926Y012464D02*
X002926Y012374D01*
X002926Y012375D02*
X002872Y012373D01*
X002819Y012367D01*
X002766Y012357D01*
X002714Y012343D01*
X002663Y012326D01*
X002614Y012305D01*
X002566Y012281D01*
X002520Y012253D01*
X002476Y012222D01*
X002434Y012188D01*
X002395Y012152D01*
X002358Y012112D01*
X002325Y012070D01*
X002294Y012026D01*
X002267Y011980D01*
X002188Y012022D01*
X002216Y012071D01*
X002248Y012117D01*
X002283Y012162D01*
X002320Y012204D01*
X002361Y012243D01*
X002404Y012280D01*
X002449Y012314D01*
X002496Y012345D01*
X002546Y012372D01*
X002597Y012396D01*
X002649Y012417D01*
X002703Y012434D01*
X002758Y012447D01*
X002813Y012457D01*
X002870Y012463D01*
X002926Y012465D01*
X002926Y012456D01*
X002870Y012454D01*
X002815Y012448D01*
X002760Y012438D01*
X002705Y012425D01*
X002652Y012408D01*
X002600Y012388D01*
X002550Y012364D01*
X002501Y012337D01*
X002454Y012307D01*
X002409Y012273D01*
X002367Y012237D01*
X002327Y012198D01*
X002290Y012156D01*
X002255Y012112D01*
X002224Y012066D01*
X002196Y012018D01*
X002204Y012014D01*
X002232Y012061D01*
X002263Y012107D01*
X002297Y012150D01*
X002333Y012192D01*
X002373Y012230D01*
X002415Y012266D01*
X002459Y012299D01*
X002505Y012329D01*
X002554Y012356D01*
X002604Y012379D01*
X002655Y012400D01*
X002708Y012416D01*
X002761Y012429D01*
X002816Y012439D01*
X002871Y012445D01*
X002926Y012447D01*
X002926Y012438D01*
X002871Y012436D01*
X002817Y012430D01*
X002763Y012421D01*
X002710Y012408D01*
X002658Y012391D01*
X002607Y012371D01*
X002558Y012348D01*
X002510Y012321D01*
X002464Y012292D01*
X002420Y012259D01*
X002379Y012224D01*
X002340Y012185D01*
X002303Y012145D01*
X002270Y012102D01*
X002239Y012056D01*
X002212Y012009D01*
X002220Y012005D01*
X002247Y012052D01*
X002277Y012096D01*
X002310Y012139D01*
X002346Y012179D01*
X002385Y012217D01*
X002426Y012252D01*
X002469Y012284D01*
X002515Y012314D01*
X002562Y012340D01*
X002611Y012363D01*
X002661Y012383D01*
X002713Y012399D01*
X002765Y012412D01*
X002818Y012421D01*
X002872Y012427D01*
X002926Y012429D01*
X002926Y012420D01*
X002869Y012418D01*
X002812Y012411D01*
X002756Y012401D01*
X002701Y012386D01*
X002647Y012368D01*
X002595Y012346D01*
X002544Y012320D01*
X002495Y012291D01*
X002449Y012258D01*
X002404Y012222D01*
X002363Y012183D01*
X002324Y012141D01*
X002289Y012097D01*
X002256Y012050D01*
X002227Y012001D01*
X002235Y011997D01*
X002264Y012045D01*
X002296Y012092D01*
X002331Y012136D01*
X002369Y012177D01*
X002410Y012215D01*
X002454Y012251D01*
X002500Y012283D01*
X002548Y012312D01*
X002599Y012338D01*
X002651Y012360D01*
X002704Y012378D01*
X002758Y012392D01*
X002814Y012402D01*
X002870Y012409D01*
X002926Y012411D01*
X002926Y012402D01*
X002870Y012400D01*
X002815Y012393D01*
X002760Y012383D01*
X002706Y012369D01*
X002654Y012351D01*
X002602Y012330D01*
X002553Y012304D01*
X002505Y012276D01*
X002459Y012244D01*
X002416Y012209D01*
X002376Y012171D01*
X002338Y012130D01*
X002303Y012086D01*
X002272Y012040D01*
X002243Y011992D01*
X002251Y011988D01*
X002279Y012036D01*
X002310Y012081D01*
X002345Y012124D01*
X002382Y012164D01*
X002422Y012202D01*
X002465Y012237D01*
X002510Y012268D01*
X002557Y012297D01*
X002606Y012321D01*
X002657Y012343D01*
X002709Y012360D01*
X002762Y012374D01*
X002816Y012384D01*
X002871Y012391D01*
X002926Y012393D01*
X002926Y012384D01*
X002872Y012382D01*
X002818Y012376D01*
X002764Y012366D01*
X002712Y012352D01*
X002660Y012334D01*
X002610Y012313D01*
X002561Y012289D01*
X002515Y012261D01*
X002470Y012229D01*
X002428Y012195D01*
X002389Y012158D01*
X002352Y012118D01*
X002318Y012076D01*
X002287Y012031D01*
X002259Y011984D01*
X003576Y012164D02*
X003507Y012107D01*
X003508Y012107D02*
X003471Y012147D01*
X003432Y012185D01*
X003390Y012219D01*
X003346Y012251D01*
X003300Y012279D01*
X003251Y012304D01*
X003201Y012325D01*
X003150Y012343D01*
X003097Y012356D01*
X003044Y012366D01*
X002990Y012373D01*
X002936Y012375D01*
X002935Y012464D01*
X002936Y012465D01*
X002992Y012463D01*
X003048Y012457D01*
X003103Y012447D01*
X003158Y012434D01*
X003211Y012417D01*
X003264Y012397D01*
X003315Y012373D01*
X003364Y012346D01*
X003411Y012315D01*
X003456Y012282D01*
X003499Y012246D01*
X003539Y012207D01*
X003577Y012165D01*
X003570Y012159D01*
X003533Y012200D01*
X003493Y012239D01*
X003451Y012275D01*
X003406Y012308D01*
X003359Y012338D01*
X003311Y012365D01*
X003260Y012388D01*
X003208Y012409D01*
X003155Y012425D01*
X003101Y012438D01*
X003047Y012448D01*
X002992Y012454D01*
X002936Y012456D01*
X002936Y012447D01*
X002991Y012445D01*
X003046Y012439D01*
X003100Y012430D01*
X003153Y012417D01*
X003205Y012400D01*
X003257Y012380D01*
X003306Y012357D01*
X003355Y012330D01*
X003401Y012301D01*
X003445Y012268D01*
X003487Y012232D01*
X003526Y012194D01*
X003563Y012153D01*
X003556Y012148D01*
X003520Y012188D01*
X003481Y012226D01*
X003439Y012261D01*
X003396Y012293D01*
X003350Y012323D01*
X003302Y012349D01*
X003253Y012372D01*
X003203Y012392D01*
X003151Y012408D01*
X003098Y012421D01*
X003044Y012430D01*
X002990Y012436D01*
X002936Y012438D01*
X002936Y012429D01*
X002990Y012427D01*
X003043Y012421D01*
X003096Y012412D01*
X003148Y012399D01*
X003200Y012383D01*
X003250Y012364D01*
X003298Y012341D01*
X003345Y012315D01*
X003391Y012286D01*
X003434Y012254D01*
X003475Y012219D01*
X003513Y012182D01*
X003549Y012142D01*
X003542Y012136D01*
X003507Y012175D01*
X003469Y012212D01*
X003428Y012247D01*
X003385Y012278D01*
X003341Y012307D01*
X003294Y012333D01*
X003246Y012355D01*
X003197Y012375D01*
X003146Y012391D01*
X003094Y012403D01*
X003042Y012412D01*
X002989Y012418D01*
X002936Y012420D01*
X002936Y012411D01*
X002988Y012409D01*
X003041Y012403D01*
X003092Y012394D01*
X003143Y012382D01*
X003194Y012366D01*
X003243Y012347D01*
X003290Y012325D01*
X003336Y012299D01*
X003380Y012271D01*
X003422Y012240D01*
X003463Y012206D01*
X003500Y012169D01*
X003535Y012130D01*
X003529Y012124D01*
X003491Y012166D01*
X003450Y012205D01*
X003407Y012241D01*
X003361Y012273D01*
X003313Y012303D01*
X003263Y012328D01*
X003211Y012350D01*
X003158Y012368D01*
X003103Y012383D01*
X003048Y012393D01*
X002992Y012400D01*
X002936Y012402D01*
X002936Y012393D01*
X002992Y012391D01*
X003047Y012384D01*
X003101Y012374D01*
X003155Y012360D01*
X003208Y012342D01*
X003259Y012320D01*
X003308Y012295D01*
X003356Y012266D01*
X003401Y012234D01*
X003444Y012198D01*
X003484Y012160D01*
X003522Y012119D01*
X003515Y012113D01*
X003478Y012154D01*
X003438Y012192D01*
X003396Y012226D01*
X003351Y012258D01*
X003304Y012287D01*
X003255Y012312D01*
X003204Y012333D01*
X003153Y012351D01*
X003099Y012365D01*
X003045Y012375D01*
X002991Y012382D01*
X002936Y012384D01*
X002441Y011233D02*
X002481Y011264D01*
X002480Y011263D02*
X002511Y011228D01*
X002544Y011195D01*
X002579Y011165D01*
X002618Y011138D01*
X002658Y011114D01*
X002700Y011094D01*
X002743Y011077D01*
X002788Y011063D01*
X002833Y011053D01*
X002879Y011047D01*
X002926Y011045D01*
X002927Y010996D01*
X002926Y010995D01*
X002880Y010997D01*
X002833Y011003D01*
X002788Y011012D01*
X002743Y011024D01*
X002699Y011040D01*
X002656Y011059D01*
X002615Y011081D01*
X002576Y011106D01*
X002539Y011133D01*
X002504Y011164D01*
X002471Y011197D01*
X002441Y011232D01*
X002448Y011238D01*
X002480Y011200D01*
X002516Y011165D01*
X002554Y011133D01*
X002595Y011104D01*
X002638Y011078D01*
X002683Y011056D01*
X002730Y011038D01*
X002778Y011023D01*
X002826Y011013D01*
X002876Y011006D01*
X002926Y011004D01*
X002926Y011013D01*
X002877Y011015D01*
X002828Y011022D01*
X002780Y011032D01*
X002733Y011046D01*
X002687Y011064D01*
X002642Y011086D01*
X002600Y011111D01*
X002560Y011140D01*
X002522Y011171D01*
X002487Y011206D01*
X002455Y011243D01*
X002462Y011249D01*
X002494Y011212D01*
X002528Y011178D01*
X002565Y011147D01*
X002605Y011119D01*
X002647Y011094D01*
X002690Y011073D01*
X002735Y011055D01*
X002782Y011041D01*
X002829Y011031D01*
X002878Y011024D01*
X002926Y011022D01*
X002926Y011031D01*
X002878Y011033D01*
X002831Y011040D01*
X002784Y011050D01*
X002738Y011063D01*
X002694Y011081D01*
X002651Y011102D01*
X002610Y011126D01*
X002571Y011154D01*
X002534Y011185D01*
X002500Y011218D01*
X002469Y011254D01*
X002476Y011260D01*
X002507Y011224D01*
X002540Y011191D01*
X002576Y011161D01*
X002615Y011134D01*
X002655Y011110D01*
X002698Y011089D01*
X002741Y011072D01*
X002786Y011058D01*
X002832Y011048D01*
X002879Y011042D01*
X002926Y011040D01*
X002935Y010996D02*
X002935Y011046D01*
X002936Y011045D02*
X002983Y011047D01*
X003029Y011053D01*
X003074Y011063D01*
X003119Y011077D01*
X003162Y011094D01*
X003204Y011114D01*
X003244Y011138D01*
X003283Y011165D01*
X003318Y011195D01*
X003351Y011228D01*
X003382Y011263D01*
X003421Y011233D01*
X003421Y011232D01*
X003391Y011197D01*
X003358Y011164D01*
X003323Y011133D01*
X003286Y011106D01*
X003247Y011081D01*
X003206Y011059D01*
X003163Y011040D01*
X003119Y011024D01*
X003074Y011012D01*
X003029Y011003D01*
X002982Y010997D01*
X002936Y010995D01*
X002936Y011004D01*
X002986Y011006D01*
X003036Y011013D01*
X003084Y011023D01*
X003132Y011038D01*
X003179Y011056D01*
X003224Y011078D01*
X003267Y011104D01*
X003308Y011133D01*
X003346Y011165D01*
X003382Y011200D01*
X003414Y011238D01*
X003407Y011243D01*
X003375Y011206D01*
X003340Y011171D01*
X003302Y011140D01*
X003262Y011111D01*
X003220Y011086D01*
X003175Y011064D01*
X003129Y011046D01*
X003082Y011032D01*
X003034Y011022D01*
X002985Y011015D01*
X002936Y011013D01*
X002936Y011022D01*
X002984Y011024D01*
X003033Y011031D01*
X003080Y011041D01*
X003127Y011055D01*
X003172Y011073D01*
X003215Y011094D01*
X003257Y011119D01*
X003297Y011147D01*
X003334Y011178D01*
X003368Y011212D01*
X003400Y011249D01*
X003393Y011254D01*
X003362Y011218D01*
X003328Y011185D01*
X003291Y011154D01*
X003252Y011126D01*
X003211Y011102D01*
X003168Y011081D01*
X003124Y011063D01*
X003078Y011050D01*
X003031Y011040D01*
X002984Y011033D01*
X002936Y011031D01*
X002936Y011040D01*
X002983Y011042D01*
X003030Y011048D01*
X003076Y011058D01*
X003121Y011072D01*
X003164Y011089D01*
X003207Y011110D01*
X003247Y011134D01*
X003286Y011161D01*
X003322Y011191D01*
X003355Y011224D01*
X003386Y011260D01*
X002927Y012244D02*
X002927Y012194D01*
X002926Y012195D02*
X002879Y012193D01*
X002831Y012186D01*
X002785Y012176D01*
X002739Y012162D01*
X002695Y012144D01*
X002653Y012123D01*
X002612Y012099D01*
X002574Y012071D01*
X002538Y012039D01*
X002504Y012006D01*
X002474Y011969D01*
X002435Y011998D01*
X002434Y011999D01*
X002464Y012036D01*
X002497Y012070D01*
X002532Y012101D01*
X002570Y012130D01*
X002610Y012156D01*
X002651Y012179D01*
X002695Y012199D01*
X002739Y012215D01*
X002785Y012228D01*
X002831Y012237D01*
X002879Y012243D01*
X002926Y012245D01*
X002926Y012236D01*
X002879Y012234D01*
X002833Y012228D01*
X002787Y012219D01*
X002742Y012206D01*
X002698Y012190D01*
X002656Y012171D01*
X002615Y012148D01*
X002575Y012123D01*
X002538Y012095D01*
X002503Y012063D01*
X002471Y012030D01*
X002441Y011994D01*
X002448Y011988D01*
X002478Y012024D01*
X002510Y012057D01*
X002544Y012088D01*
X002581Y012116D01*
X002619Y012141D01*
X002660Y012163D01*
X002701Y012182D01*
X002745Y012198D01*
X002789Y012210D01*
X002834Y012219D01*
X002880Y012225D01*
X002926Y012227D01*
X002926Y012218D01*
X002881Y012216D01*
X002836Y012210D01*
X002791Y012201D01*
X002748Y012189D01*
X002705Y012174D01*
X002664Y012155D01*
X002624Y012133D01*
X002586Y012108D01*
X002550Y012081D01*
X002516Y012050D01*
X002484Y012018D01*
X002456Y011983D01*
X002463Y011977D01*
X002491Y012012D01*
X002522Y012044D01*
X002556Y012074D01*
X002591Y012101D01*
X002628Y012125D01*
X002668Y012147D01*
X002708Y012165D01*
X002750Y012181D01*
X002793Y012193D01*
X002837Y012201D01*
X002881Y012207D01*
X002926Y012209D01*
X002926Y012200D01*
X002878Y012198D01*
X002831Y012191D01*
X002784Y012181D01*
X002738Y012167D01*
X002693Y012149D01*
X002650Y012128D01*
X002609Y012103D01*
X002571Y012074D01*
X002534Y012043D01*
X002501Y012009D01*
X002470Y011972D01*
X003436Y011987D02*
X003395Y011958D01*
X003396Y011958D02*
X003368Y011993D01*
X003338Y012026D01*
X003305Y012057D01*
X003270Y012084D01*
X003233Y012109D01*
X003194Y012131D01*
X003154Y012150D01*
X003112Y012166D01*
X003069Y012178D01*
X003025Y012187D01*
X002981Y012193D01*
X002936Y012195D01*
X002935Y012244D01*
X002936Y012245D01*
X002985Y012243D01*
X003033Y012237D01*
X003081Y012227D01*
X003127Y012213D01*
X003173Y012196D01*
X003217Y012176D01*
X003259Y012152D01*
X003300Y012125D01*
X003338Y012094D01*
X003374Y012061D01*
X003407Y012026D01*
X003437Y011987D01*
X003429Y011982D01*
X003400Y012020D01*
X003367Y012055D01*
X003332Y012088D01*
X003294Y012117D01*
X003255Y012144D01*
X003213Y012168D01*
X003169Y012188D01*
X003125Y012205D01*
X003078Y012218D01*
X003031Y012228D01*
X002984Y012234D01*
X002936Y012236D01*
X002936Y012227D01*
X002983Y012225D01*
X003030Y012219D01*
X003076Y012209D01*
X003122Y012196D01*
X003166Y012180D01*
X003209Y012160D01*
X003250Y012136D01*
X003289Y012110D01*
X003326Y012081D01*
X003361Y012049D01*
X003393Y012014D01*
X003422Y011977D01*
X003415Y011972D01*
X003386Y012008D01*
X003354Y012042D01*
X003320Y012074D01*
X003284Y012103D01*
X003245Y012129D01*
X003205Y012152D01*
X003162Y012171D01*
X003119Y012188D01*
X003074Y012201D01*
X003029Y012210D01*
X002982Y012216D01*
X002936Y012218D01*
X002936Y012209D01*
X002982Y012207D01*
X003027Y012201D01*
X003072Y012192D01*
X003116Y012179D01*
X003159Y012163D01*
X003201Y012144D01*
X003240Y012121D01*
X003278Y012096D01*
X003314Y012067D01*
X003348Y012036D01*
X003379Y012002D01*
X003407Y011966D01*
X003400Y011961D01*
X003372Y011997D01*
X003342Y012030D01*
X003308Y012060D01*
X003273Y012088D01*
X003236Y012114D01*
X003196Y012136D01*
X003156Y012155D01*
X003113Y012171D01*
X003070Y012183D01*
X003026Y012192D01*
X002981Y012198D01*
X002936Y012200D01*
D14*
X002877Y012545D02*
X003102Y012545D01*
X003177Y012621D01*
X003177Y012921D01*
X003102Y012996D01*
X002877Y012996D01*
X002877Y012545D01*
X002716Y012545D02*
X002416Y012545D01*
X002416Y012996D01*
X002716Y012996D01*
X002566Y012771D02*
X002416Y012771D01*
X002256Y012545D02*
X001956Y012545D01*
X001956Y012996D01*
X001916Y009943D02*
X001916Y009492D01*
X001766Y009492D02*
X002066Y009492D01*
X001766Y009793D02*
X001916Y009943D01*
X001606Y009868D02*
X001531Y009943D01*
X001381Y009943D01*
X001306Y009868D01*
X001306Y009568D01*
X001381Y009492D01*
X001531Y009492D01*
X001606Y009568D01*
X002570Y007229D02*
X002795Y007229D01*
X002870Y007154D01*
X002870Y007004D01*
X002795Y006929D01*
X002570Y006929D01*
X002720Y006929D02*
X002870Y006779D01*
X003030Y006779D02*
X003330Y007079D01*
X003330Y007154D01*
X003255Y007229D01*
X003105Y007229D01*
X003030Y007154D01*
X003030Y006779D02*
X003330Y006779D01*
X002570Y006779D02*
X002570Y007229D01*
X003337Y012545D02*
X003637Y012846D01*
X003637Y012921D01*
X003562Y012996D01*
X003412Y012996D01*
X003337Y012921D01*
X003337Y012545D02*
X003637Y012545D01*
X007114Y024670D02*
X007415Y024670D01*
X007575Y024670D02*
X007575Y025121D01*
X007875Y025121D01*
X008035Y025121D02*
X008035Y024670D01*
X008260Y024670D01*
X008335Y024746D01*
X008335Y025046D01*
X008260Y025121D01*
X008035Y025121D01*
X007875Y024670D02*
X007575Y024670D01*
X007575Y024896D02*
X007725Y024896D01*
X007114Y025121D02*
X007114Y024670D01*
X008495Y024670D02*
X008796Y024670D01*
X008646Y024670D02*
X008646Y025121D01*
X008495Y024971D01*
X008196Y029230D02*
X007895Y029230D01*
X008046Y029230D02*
X008046Y029681D01*
X007895Y029531D01*
X007735Y029606D02*
X007735Y029456D01*
X007660Y029381D01*
X007435Y029381D01*
X007585Y029381D02*
X007735Y029230D01*
X007735Y029606D02*
X007660Y029681D01*
X007435Y029681D01*
X007435Y029230D01*
X008281Y030005D02*
X006581Y030005D01*
X006331Y030255D01*
X006331Y030705D01*
X008531Y030705D01*
X008531Y030255D01*
X008281Y030005D01*
X011741Y009079D02*
X011741Y008779D01*
X011741Y008929D02*
X011290Y008929D01*
X011441Y008779D01*
X011366Y008619D02*
X011290Y008544D01*
X011290Y008318D01*
X011741Y008318D01*
X011741Y008544D01*
X011666Y008619D01*
X011366Y008619D01*
D15*
X010898Y009555D03*
D16*
X010898Y008930D03*
X010898Y011280D03*
D17*
X010081Y007105D02*
X004281Y007105D01*
D18*
X002916Y008102D03*
X007946Y028605D03*
D19*
X003731Y009717D02*
X003431Y009717D01*
X003131Y009717D01*
X003131Y009517D02*
X003431Y009517D01*
X003731Y009517D01*
M02*
