<?xml version="1.0" encoding="UTF-8" standalone="no"?>
<!-- Created with Inkscape (http://www.inkscape.org/) -->
<svg
   xmlns:svg="http://www.w3.org/2000/svg"
   xmlns="http://www.w3.org/2000/svg"
   version="1.0"
   width="990"
   height="765"
   viewBox="0 0 117000 82670"
   id="svg2">
  <defs
     id="defs351" />
  <title
     id="title4">SVG Picture created as faceplate_sticker-SilkS_Cmp.svg </title>
  <desc
     id="desc6">Picture generated by wxSVG v0101 </desc>
  <g
     id="g8"
     style="fill:#000000;stroke:#000000;stroke-width:1" />
  <g
     id="g10"
     style="fill:#000000;fill-opacity:0;stroke:#000000;stroke-width:10;stroke-linecap:round;stroke-linejoin:round;stroke-opacity:1">
    <path
       d="M 32748,20000 L 32752,20000"
       id="path12" />
    <path
       d="M 32750,19998 L 32750,20002"
       id="path14" />
  </g>
  <g
     id="g16"
     style="fill:#000000;fill-opacity:0;stroke:#000000;stroke-width:420;stroke-linecap:round;stroke-linejoin:round;stroke-opacity:1">
    <path
       d="M 13379,21350 L 13157,21050"
       id="path18" />
    <path
       d="M 13157,21050 L 13157,18950"
       id="path20" />
    <path
       d="M 13157,18950 L 13379,18650"
       id="path22" />
    <path
       d="M 13379,18650 L 14490,18650"
       id="path24" />
    <path
       d="M 14490,18650 L 14712,18950"
       id="path26" />
    <path
       d="M 14712,18950 L 14712,21050"
       id="path28" />
    <path
       d="M 14712,21050 L 14490,21350"
       id="path30" />
    <path
       d="M 14490,21350 L 13379,21350"
       id="path32" />
  </g>
  <g
     id="g34"
     style="fill:#000000;fill-opacity:0;stroke:#000000;stroke-width:420;stroke-linecap:round;stroke-linejoin:round;stroke-opacity:1">
    <path
       d="M 15799,22250 L 15799,19550"
       id="path36" />
    <g
       id="g38"
       style="stroke-linecap:round">
      <path
         d="M 15799,19550 L 15799,19550"
         id="path40" />
    </g>
  </g>
  <g
     id="g42"
     style="fill:#000000;fill-opacity:0;stroke:#000000;stroke-width:420;stroke-linecap:round;stroke-linejoin:round;stroke-opacity:1">
    <path
       d="M 15799,19850 L 16021,19550"
       id="path44" />
    <path
       d="M 16021,19550 L 17132,19550"
       id="path46" />
    <path
       d="M 17132,19550 L 17354,19850"
       id="path48" />
    <path
       d="M 17354,19850 L 17354,21050"
       id="path50" />
    <path
       d="M 17354,21050 L 17132,21350"
       id="path52" />
    <path
       d="M 17132,21350 L 16021,21350"
       id="path54" />
    <path
       d="M 16021,21350 L 15799,21050"
       id="path56" />
    <g
       id="g58"
       style="stroke-linecap:round">
      <path
         d="M 15799,21050 L 15799,21050"
         id="path60" />
    </g>
  </g>
  <g
     id="g62"
     style="fill:#000000;fill-opacity:0;stroke:#000000;stroke-width:420;stroke-linecap:round;stroke-linejoin:round;stroke-opacity:1">
    <path
       d="M 18441,20450 L 19996,20450"
       id="path64" />
    <path
       d="M 19996,20450 L 19996,19850"
       id="path66" />
    <path
       d="M 19996,19850 L 19774,19550"
       id="path68" />
    <path
       d="M 19774,19550 L 18663,19550"
       id="path70" />
    <path
       d="M 18663,19550 L 18441,19850"
       id="path72" />
    <path
       d="M 18441,19850 L 18441,21050"
       id="path74" />
    <path
       d="M 18441,21050 L 18663,21350"
       id="path76" />
    <path
       d="M 18663,21350 L 19774,21350"
       id="path78" />
    <path
       d="M 19774,21350 L 19996,21050"
       id="path80" />
    <g
       id="g82"
       style="stroke-linecap:round">
      <path
         d="M 19996,21050 L 19996,21050"
         id="path84" />
    </g>
  </g>
  <g
     id="g86"
     style="fill:#000000;fill-opacity:0;stroke:#000000;stroke-width:420;stroke-linecap:round;stroke-linejoin:round;stroke-opacity:1">
    <path
       d="M 21083,21350 L 21083,19550"
       id="path88" />
    <g
       id="g90"
       style="stroke-linecap:round">
      <path
         d="M 21083,19550 L 21083,19550"
         id="path92" />
    </g>
  </g>
  <g
     id="g94"
     style="fill:#000000;fill-opacity:0;stroke:#000000;stroke-width:420;stroke-linecap:round;stroke-linejoin:round;stroke-opacity:1">
    <path
       d="M 21083,19850 L 21305,19550"
       id="path96" />
    <path
       d="M 21305,19550 L 22194,19550"
       id="path98" />
    <path
       d="M 22194,19550 L 22416,19850"
       id="path100" />
    <path
       d="M 22416,19850 L 22416,21350"
       id="path102" />
    <g
       id="g104"
       style="stroke-linecap:round">
      <path
         d="M 22416,21350 L 22416,21350"
         id="path106" />
    </g>
  </g>
  <g
     id="g108"
     style="fill:#000000;fill-opacity:0;stroke:#000000;stroke-width:420;stroke-linecap:round;stroke-linejoin:round;stroke-opacity:1">
    <path
       d="M 23725,21050 L 23947,21350"
       id="path110" />
    <path
       d="M 23947,21350 L 25058,21350"
       id="path112" />
    <path
       d="M 25058,21350 L 25280,21050"
       id="path114" />
    <path
       d="M 25280,21050 L 25280,20150"
       id="path116" />
    <path
       d="M 25280,20150 L 25058,19850"
       id="path118" />
    <path
       d="M 25058,19850 L 23947,19850"
       id="path120" />
    <path
       d="M 23947,19850 L 23725,19550"
       id="path122" />
    <path
       d="M 23725,19550 L 23725,18950"
       id="path124" />
    <path
       d="M 23725,18950 L 23947,18650"
       id="path126" />
    <path
       d="M 23947,18650 L 25058,18650"
       id="path128" />
    <path
       d="M 25058,18650 L 25280,18950"
       id="path130" />
    <g
       id="g132"
       style="stroke-linecap:round">
      <path
         d="M 25280,18950 L 25280,18950"
         id="path134" />
    </g>
  </g>
  <g
     id="g136"
     style="fill:#000000;fill-opacity:0;stroke:#000000;stroke-width:420;stroke-linecap:round;stroke-linejoin:round;stroke-opacity:1">
    <path
       d="M 26367,22250 L 26367,19550"
       id="path138" />
    <g
       id="g140"
       style="stroke-linecap:round">
      <path
         d="M 26367,19550 L 26367,19550"
         id="path142" />
    </g>
  </g>
  <g
     id="g144"
     style="fill:#000000;fill-opacity:0;stroke:#000000;stroke-width:420;stroke-linecap:round;stroke-linejoin:round;stroke-opacity:1">
    <path
       d="M 26367,19850 L 26589,19550"
       id="path146" />
    <path
       d="M 26589,19550 L 27700,19550"
       id="path148" />
    <path
       d="M 27700,19550 L 27922,19850"
       id="path150" />
    <path
       d="M 27922,19850 L 27922,21050"
       id="path152" />
    <path
       d="M 27922,21050 L 27700,21350"
       id="path154" />
    <path
       d="M 27700,21350 L 26589,21350"
       id="path156" />
    <path
       d="M 26589,21350 L 26367,21050"
       id="path158" />
    <g
       id="g160"
       style="stroke-linecap:round">
      <path
         d="M 26367,21050 L 26367,21050"
         id="path162" />
    </g>
  </g>
  <g
     id="g164"
     style="fill:#000000;fill-opacity:0;stroke:#000000;stroke-width:420;stroke-linecap:round;stroke-linejoin:round;stroke-opacity:1">
    <path
       d="M 29009,21350 L 29009,19550"
       id="path166" />
    <g
       id="g168"
       style="stroke-linecap:round">
      <path
         d="M 29009,19550 L 29009,19550"
         id="path170" />
    </g>
  </g>
  <g
     id="g172"
     style="fill:#000000;fill-opacity:0;stroke:#000000;stroke-width:420;stroke-linecap:round;stroke-linejoin:round;stroke-opacity:1">
    <path
       d="M 29009,20150 L 29453,19550"
       id="path174" />
    <path
       d="M 29453,19550 L 30120,19550"
       id="path176" />
    <path
       d="M 30120,19550 L 30564,20150"
       id="path178" />
    <g
       id="g180"
       style="stroke-linecap:round">
      <path
         d="M 30564,20150 L 30564,20150"
         id="path182" />
    </g>
  </g>
  <g
     id="g184"
     style="fill:#000000;fill-opacity:0;stroke:#000000;stroke-width:420;stroke-linecap:round;stroke-linejoin:round;stroke-opacity:1">
    <path
       d="M 32317,18650 L 32317,18950"
       id="path186" />
    <g
       id="g188"
       style="stroke-linecap:round">
      <path
         d="M 32317,18950 L 32317,18950"
         id="path190" />
    </g>
  </g>
  <g
     id="g192"
     style="fill:#000000;fill-opacity:0;stroke:#000000;stroke-width:420;stroke-linecap:round;stroke-linejoin:round;stroke-opacity:1">
    <path
       d="M 32317,19850 L 32317,21050"
       id="path194" />
    <path
       d="M 32317,21050 L 32540,21350"
       id="path196" />
    <path
       d="M 32540,21350 L 32762,21350"
       id="path198" />
    <g
       id="g200"
       style="stroke-linecap:round">
      <path
         d="M 32762,21350 L 32762,21350"
         id="path202" />
    </g>
  </g>
  <g
     id="g204"
     style="fill:#000000;fill-opacity:0;stroke:#000000;stroke-width:420;stroke-linecap:round;stroke-linejoin:round;stroke-opacity:1">
    <path
       d="M 34293,21350 L 34293,19550"
       id="path206" />
    <g
       id="g208"
       style="stroke-linecap:round">
      <path
         d="M 34293,19550 L 34293,19550"
         id="path210" />
    </g>
  </g>
  <g
     id="g212"
     style="fill:#000000;fill-opacity:0;stroke:#000000;stroke-width:420;stroke-linecap:round;stroke-linejoin:round;stroke-opacity:1">
    <path
       d="M 34293,19850 L 34515,19550"
       id="path214" />
    <path
       d="M 34515,19550 L 35404,19550"
       id="path216" />
    <path
       d="M 35404,19550 L 35626,19850"
       id="path218" />
    <path
       d="M 35626,19850 L 35626,21350"
       id="path220" />
    <g
       id="g222"
       style="stroke-linecap:round">
      <path
         d="M 35626,21350 L 35626,21350"
         id="path224" />
    </g>
  </g>
  <g
     id="g226"
     style="fill:#000000;fill-opacity:0;stroke:#000000;stroke-width:420;stroke-linecap:round;stroke-linejoin:round;stroke-opacity:1">
    <path
       d="M 38268,21050 L 38046,21350"
       id="path228" />
    <path
       d="M 38046,21350 L 37379,21350"
       id="path230" />
    <path
       d="M 37379,21350 L 37157,21050"
       id="path232" />
    <path
       d="M 37157,21050 L 37157,18650"
       id="path234" />
    <g
       id="g236"
       style="stroke-linecap:round">
      <path
         d="M 37157,18650 L 37157,18650"
         id="path238" />
    </g>
  </g>
  <g
     id="g240"
     style="fill:#000000;fill-opacity:0;stroke:#000000;stroke-width:420;stroke-linecap:round;stroke-linejoin:round;stroke-opacity:1">
    <path
       d="M 37157,19550 L 37824,19550"
       id="path242" />
    <g
       id="g244"
       style="stroke-linecap:round">
      <path
         d="M 37824,19550 L 37824,19550"
         id="path246" />
    </g>
  </g>
  <g
     id="g248"
     style="fill:#000000;fill-opacity:0;stroke:#000000;stroke-width:420;stroke-linecap:round;stroke-linejoin:round;stroke-opacity:1">
    <path
       d="M 39577,21050 L 39799,21350"
       id="path250" />
    <path
       d="M 39799,21350 L 40910,21350"
       id="path252" />
    <path
       d="M 40910,21350 L 41132,21050"
       id="path254" />
    <path
       d="M 41132,21050 L 41132,20750"
       id="path256" />
    <path
       d="M 41132,20750 L 40910,20450"
       id="path258" />
    <path
       d="M 40910,20450 L 39799,20450"
       id="path260" />
    <path
       d="M 39799,20450 L 39577,20150"
       id="path262" />
    <path
       d="M 39577,20150 L 39577,19850"
       id="path264" />
    <path
       d="M 39577,19850 L 39799,19550"
       id="path266" />
    <path
       d="M 39799,19550 L 40910,19550"
       id="path268" />
    <path
       d="M 40910,19550 L 41132,19850"
       id="path270" />
    <g
       id="g272"
       style="stroke-linecap:round">
      <path
         d="M 41132,19850 L 41132,19850"
         id="path274" />
    </g>
  </g>
  <g
     id="g276"
     style="fill:#000000;fill-opacity:0;stroke:#000000;stroke-width:420;stroke-linecap:round;stroke-linejoin:round;stroke-opacity:1">
    <path
       d="M 42885,21350 L 42885,21050"
       id="path278" />
    <g
       id="g280"
       style="stroke-linecap:round">
      <path
         d="M 42885,21050 L 42885,21050"
         id="path282" />
    </g>
  </g>
  <g
     id="g284"
     style="fill:#000000;fill-opacity:0;stroke:#000000;stroke-width:420;stroke-linecap:round;stroke-linejoin:round;stroke-opacity:1">
    <path
       d="M 45083,21350 L 44861,21050"
       id="path286" />
    <path
       d="M 44861,21050 L 44861,19850"
       id="path288" />
    <path
       d="M 44861,19850 L 45083,19550"
       id="path290" />
    <path
       d="M 45083,19550 L 46194,19550"
       id="path292" />
    <path
       d="M 46194,19550 L 46416,19850"
       id="path294" />
    <path
       d="M 46416,19850 L 46416,21050"
       id="path296" />
    <path
       d="M 46416,21050 L 46194,21350"
       id="path298" />
    <path
       d="M 46194,21350 L 45083,21350"
       id="path300" />
  </g>
  <g
     id="g302"
     style="fill:#000000;fill-opacity:0;stroke:#000000;stroke-width:420;stroke-linecap:round;stroke-linejoin:round;stroke-opacity:1">
    <path
       d="M 47503,21350 L 47503,19550"
       id="path304" />
    <g
       id="g306"
       style="stroke-linecap:round">
      <path
         d="M 47503,19550 L 47503,19550"
         id="path308" />
    </g>
  </g>
  <g
     id="g310"
     style="fill:#000000;fill-opacity:0;stroke:#000000;stroke-width:420;stroke-linecap:round;stroke-linejoin:round;stroke-opacity:1">
    <path
       d="M 47503,20150 L 47947,19550"
       id="path312" />
    <path
       d="M 47947,19550 L 48614,19550"
       id="path314" />
    <path
       d="M 48614,19550 L 49058,20150"
       id="path316" />
    <g
       id="g318"
       style="stroke-linecap:round">
      <path
         d="M 49058,20150 L 49058,20150"
         id="path320" />
    </g>
  </g>
  <g
     id="g322"
     style="fill:#000000;fill-opacity:0;stroke:#000000;stroke-width:420;stroke-linecap:round;stroke-linejoin:round;stroke-opacity:1">
    <path
       d="M 50145,21950 L 50367,22250"
       id="path324" />
    <path
       d="M 50367,22250 L 51478,22250"
       id="path326" />
    <path
       d="M 51478,22250 L 51700,21950"
       id="path328" />
    <path
       d="M 51700,21950 L 51700,19850"
       id="path330" />
    <path
       d="M 51700,19850 L 51478,19550"
       id="path332" />
    <path
       d="M 51478,19550 L 50367,19550"
       id="path334" />
    <path
       d="M 50367,19550 L 50145,19850"
       id="path336" />
    <path
       d="M 50145,19850 L 50145,21050"
       id="path338" />
    <path
       d="M 50145,21050 L 50367,21350"
       id="path340" />
    <path
       d="M 50367,21350 L 51478,21350"
       id="path342" />
    <path
       d="M 51478,21350 L 51700,21050"
       id="path344" />
    <g
       id="g346"
       style="stroke-linecap:round">
      <path
         d="M 51700,21050 L 51700,21050"
         id="path348" />
    </g>
  </g>
</svg>
