G04 start of page 5 for group -4062 idx -4062
G04 Title: bien sucia, soldermask *
G04 Creator: pcb 20080202 *
G04 CreationDate: Wed Jan 28 18:00:51 2009 UTC *
G04 For: orluke *
G04 Format: Gerber/RS-274X *
G04 PCB-Dimensions: 450000 650000 *
G04 PCB-Coordinate-Origin: lower left *
%MOIN*%
%FSLAX24Y24*%
%LNBACKMASK*%
%ADD15C,0.1280*%
%ADD16C,0.0700*%
%ADD17C,0.0200*%
%ADD21C,0.0760*%
G54D15*X1200Y17200D03*
G54D21*X3000Y14500D03*
G54D16*Y18000D03*
Y17000D03*
G54D21*X4000Y14500D03*
G54D16*X8500Y11500D03*
X8000Y10500D03*
X6500Y11500D03*
X7000Y10500D03*
X5500Y11500D03*
X7500D03*
X6000Y10500D03*
G54D17*G36*
X4650Y10850D02*Y10150D01*
X5350D01*
Y10850D01*
X4650D01*
G37*
G54D15*X4500Y8000D03*
X9000D03*
G54D21*X5000Y14500D03*
X6000D03*
G54D16*Y18000D03*
Y17000D03*
X7000D03*
X10000Y18000D03*
X7000D03*
X8000D03*
X9000D03*
X5000D03*
X4000D03*
X5000Y17000D03*
X4000D03*
G54D21*X7000Y14500D03*
X8000D03*
X9000D03*
X10000D03*
G54D16*X11000Y18000D03*
Y17000D03*
X12000D03*
X13000D03*
X12000Y18000D03*
X13000D03*
X10000Y17000D03*
X8000D03*
X9000D03*
X6000Y30000D03*
X7000D03*
X8000D03*
X3000D03*
X5000D03*
X4000D03*
X6000Y29000D03*
X5000D03*
Y28000D03*
X7000Y29000D03*
X6000Y28000D03*
X7000D03*
X8000Y29000D03*
Y28000D03*
Y27000D03*
Y26000D03*
X7000Y27000D03*
Y26000D03*
X3000Y29000D03*
X4000D03*
X3000Y28000D03*
X4000D03*
X6000Y27000D03*
X5000D03*
X6000Y26000D03*
X3000Y27000D03*
X4000D03*
X3000Y26000D03*
X4000D03*
X3000Y25000D03*
X5000D03*
X4000D03*
X5000Y26000D03*
X6000Y24000D03*
X5000D03*
X6000Y23000D03*
Y25000D03*
X7000Y24000D03*
X8000D03*
X7000Y23000D03*
X8000D03*
X7000Y25000D03*
X8000D03*
X7000Y22000D03*
Y21000D03*
Y20000D03*
Y19000D03*
X8000Y22000D03*
Y21000D03*
Y20000D03*
Y19000D03*
X6000Y21000D03*
X5000D03*
X6000Y20000D03*
X5000D03*
X6000Y19000D03*
X5000D03*
X3000Y24000D03*
X4000D03*
X3000Y23000D03*
Y22000D03*
X5000Y23000D03*
X4000D03*
X6000Y22000D03*
X5000D03*
X4000D03*
X3000Y21000D03*
Y20000D03*
Y19000D03*
X4000Y21000D03*
Y20000D03*
Y19000D03*
X23000Y24000D03*
X25000D03*
X24000D03*
X23000Y23000D03*
X25000D03*
X24000D03*
X25000Y22000D03*
X24000D03*
Y21000D03*
Y20000D03*
Y19000D03*
X25000Y21000D03*
Y20000D03*
Y19000D03*
X23000Y25000D03*
X24000D03*
X25000D03*
X23000Y22000D03*
X20000D03*
X18000D03*
X19000D03*
X23000Y21000D03*
Y20000D03*
Y19000D03*
X18000Y23000D03*
X20000Y21000D03*
X18000D03*
X19000D03*
X20000Y20000D03*
X19000D03*
X20000Y19000D03*
X19000D03*
X18000Y20000D03*
Y19000D03*
X16000Y24000D03*
Y23000D03*
X17000D03*
X16000Y25000D03*
X17000D03*
X15000Y24000D03*
Y23000D03*
Y22000D03*
Y21000D03*
Y25000D03*
X17000Y24000D03*
X18000D03*
X16000Y22000D03*
X17000D03*
X16000Y21000D03*
X17000D03*
X16000Y20000D03*
X17000D03*
X16000Y19000D03*
X17000D03*
X15000Y20000D03*
Y19000D03*
X20000Y24000D03*
Y23000D03*
X19000D03*
Y24000D03*
X20000Y25000D03*
X18000D03*
X19000D03*
X11000Y30000D03*
X10000D03*
X11000Y29000D03*
X10000D03*
X11000Y28000D03*
X10000D03*
X9000Y30000D03*
Y29000D03*
Y28000D03*
Y27000D03*
Y26000D03*
X12000Y30000D03*
X13000D03*
X12000Y29000D03*
X13000D03*
X12000Y28000D03*
X13000D03*
X9000Y25000D03*
X11000Y27000D03*
Y26000D03*
X12000D03*
X13000D03*
X10000Y27000D03*
Y26000D03*
Y24000D03*
Y23000D03*
Y22000D03*
Y25000D03*
X12000Y27000D03*
X13000D03*
X11000Y25000D03*
X12000D03*
X13000D03*
X14000D03*
X11000Y24000D03*
X12000D03*
X13000D03*
X14000D03*
X9000D03*
Y23000D03*
X11000D03*
X12000D03*
X11000Y22000D03*
X12000D03*
X13000Y23000D03*
X14000D03*
X13000Y22000D03*
X14000D03*
X9000D03*
Y21000D03*
Y20000D03*
X14000Y21000D03*
Y20000D03*
X11000Y21000D03*
Y20000D03*
X10000Y21000D03*
Y20000D03*
Y19000D03*
X12000Y21000D03*
X13000D03*
X12000Y20000D03*
X13000D03*
X11000Y19000D03*
X12000D03*
X13000D03*
X14000D03*
X9000D03*
G54D21*X13000Y14500D03*
X14000D03*
X15000D03*
X16000D03*
X17000D03*
X18000D03*
X19000D03*
X20000D03*
G54D16*X18500Y11500D03*
X16500D03*
X15500D03*
X17500D03*
G54D21*X23000Y14500D03*
X24000D03*
X25000D03*
G54D17*G36*
X24650Y10850D02*Y10150D01*
X25350D01*
Y10850D01*
X24650D01*
G37*
G54D15*X24500Y8000D03*
G54D16*X23000Y18000D03*
X25000D03*
X24000D03*
X23000Y17000D03*
X25000D03*
X24000D03*
X18000Y10500D03*
X16000D03*
X17000D03*
G54D17*G36*
X14650Y10850D02*Y10150D01*
X15350D01*
Y10850D01*
X14650D01*
G37*
G54D15*X14500Y8000D03*
X19000D03*
G54D16*X20000Y18000D03*
X19000D03*
X20000Y17000D03*
X19000D03*
X16000Y18000D03*
X17000D03*
X18000D03*
X16000Y17000D03*
X17000D03*
X18000D03*
X14000Y18000D03*
X15000D03*
X14000Y17000D03*
X15000D03*
X30000Y39000D03*
Y40000D03*
X31000D03*
Y39000D03*
X30000Y41000D03*
Y42000D03*
X31000D03*
Y41000D03*
X29000Y39000D03*
Y41000D03*
Y42000D03*
Y40000D03*
X28000Y39000D03*
Y41000D03*
Y42000D03*
Y40000D03*
X27000Y39000D03*
Y41000D03*
Y42000D03*
Y40000D03*
X32000D03*
Y41000D03*
Y42000D03*
X34000Y44000D03*
X30000Y45000D03*
X29000D03*
X28000D03*
X27000D03*
X30000Y46000D03*
X29000D03*
X28000D03*
X27000D03*
X30000Y47000D03*
X29000D03*
X28000D03*
X27000D03*
X32000Y43000D03*
X29000D03*
X28000D03*
X27000D03*
X32000Y44000D03*
X29000D03*
X28000D03*
X27000D03*
X28000Y54000D03*
X27000D03*
X30000D03*
X29000D03*
X30000Y48000D03*
Y51000D03*
Y49000D03*
Y52000D03*
Y50000D03*
Y53000D03*
X27000Y51000D03*
Y48000D03*
Y49000D03*
Y50000D03*
X29000Y52000D03*
Y53000D03*
Y48000D03*
Y49000D03*
Y50000D03*
Y51000D03*
X28000Y52000D03*
Y53000D03*
Y48000D03*
Y49000D03*
Y50000D03*
Y51000D03*
X27000Y52000D03*
Y53000D03*
X38000Y54000D03*
X39000D03*
Y53000D03*
Y51000D03*
Y52000D03*
X40000Y54000D03*
Y53000D03*
Y51000D03*
Y52000D03*
X38000Y53000D03*
Y51000D03*
Y52000D03*
X34000Y54000D03*
X35000D03*
X36000D03*
X37000D03*
X34000Y53000D03*
X35000D03*
X34000Y51000D03*
X35000D03*
X34000Y52000D03*
X35000D03*
X36000Y53000D03*
X37000D03*
X36000Y51000D03*
X37000D03*
X36000Y52000D03*
X37000D03*
X35000Y39000D03*
Y40000D03*
Y41000D03*
X34000Y42000D03*
Y43000D03*
X35000Y42000D03*
Y43000D03*
X36000D03*
Y42000D03*
X37000D03*
X38000D03*
X39000D03*
X40000D03*
X37000Y43000D03*
X38000D03*
X39000D03*
X40000D03*
X33000Y44000D03*
Y43000D03*
Y42000D03*
Y41000D03*
X35000Y44000D03*
X31000D03*
X36000D03*
X37000D03*
X38000D03*
X39000D03*
X40000D03*
X30000Y43000D03*
Y44000D03*
X31000Y43000D03*
X36000Y39000D03*
Y40000D03*
X37000D03*
Y39000D03*
X38000D03*
X39000D03*
X40000D03*
X41000D03*
X36000Y41000D03*
X37000D03*
X38000D03*
X39000D03*
X40000D03*
X38000Y40000D03*
X39000D03*
X40000D03*
X41000D03*
Y41000D03*
X34000Y39000D03*
Y40000D03*
Y41000D03*
X33000Y40000D03*
Y39000D03*
X32000D03*
X33000Y32000D03*
X34000D03*
X35000D03*
X32000Y30000D03*
X33000D03*
X32000Y29000D03*
X31000Y28000D03*
X30000D03*
X32000D03*
X31000Y30000D03*
X30000D03*
X31000Y29000D03*
X30000D03*
X28000Y30000D03*
Y29000D03*
Y28000D03*
Y27000D03*
Y26000D03*
X29000Y30000D03*
Y29000D03*
Y28000D03*
Y27000D03*
Y26000D03*
X31000Y27000D03*
Y26000D03*
X30000Y27000D03*
Y26000D03*
X32000Y27000D03*
Y26000D03*
X23000Y39000D03*
X22000D03*
X24000D03*
X23000Y44000D03*
Y40000D03*
X22000Y44000D03*
Y40000D03*
X26000Y39000D03*
X25000D03*
X26000Y41000D03*
X25000D03*
X26000Y40000D03*
X25000D03*
X24000D03*
X23000Y41000D03*
Y42000D03*
X22000D03*
X23000Y43000D03*
X22000Y41000D03*
X21000D03*
X20000Y39000D03*
X21000D03*
X20000Y40000D03*
X21000D03*
Y42000D03*
X22000Y43000D03*
X20000D03*
X21000D03*
Y44000D03*
X24000Y41000D03*
Y42000D03*
Y43000D03*
Y44000D03*
X26000Y42000D03*
X25000D03*
X26000Y43000D03*
X25000D03*
X26000Y44000D03*
X25000D03*
X26000Y45000D03*
X25000D03*
X18000Y41000D03*
X17000D03*
Y42000D03*
X19000Y41000D03*
X20000D03*
X18000Y42000D03*
X19000D03*
X20000D03*
X19000Y39000D03*
X18000Y40000D03*
X19000D03*
X17000D03*
X18000Y43000D03*
X19000D03*
X17000D03*
X20000Y44000D03*
X18000D03*
X19000D03*
X17000D03*
X20000Y45000D03*
X21000D03*
X15000Y41000D03*
X16000D03*
X15000Y42000D03*
X16000D03*
X15000Y40000D03*
X16000D03*
X18000Y39000D03*
X17000D03*
X16000D03*
X15000D03*
X14000D03*
Y38000D03*
Y37000D03*
X15000Y43000D03*
X16000D03*
X14000D03*
Y42000D03*
Y41000D03*
X26000Y30000D03*
X23000D03*
X25000D03*
X24000D03*
X27000D03*
Y29000D03*
X26000Y28000D03*
X27000D03*
X26000Y29000D03*
X25000D03*
Y28000D03*
G54D15*X22250Y35250D03*
G54D16*X23000Y29000D03*
X24000D03*
X23000Y28000D03*
X24000D03*
X26000Y27000D03*
X25000D03*
X26000Y26000D03*
X25000D03*
X27000Y27000D03*
Y26000D03*
X23000Y27000D03*
X24000D03*
X23000Y26000D03*
X24000D03*
X20000Y30000D03*
X19000D03*
X20000Y29000D03*
X19000D03*
X20000Y28000D03*
X19000D03*
X20000Y27000D03*
X19000D03*
X20000Y26000D03*
X19000D03*
X16000Y30000D03*
X17000D03*
X18000D03*
X16000Y29000D03*
X17000D03*
X18000D03*
X14000Y30000D03*
X15000D03*
X14000Y29000D03*
X15000D03*
X16000Y28000D03*
X15000D03*
X16000Y27000D03*
X15000D03*
X14000Y28000D03*
Y27000D03*
Y26000D03*
X17000Y28000D03*
X18000D03*
X17000Y27000D03*
X18000D03*
X16000Y26000D03*
X15000D03*
X17000D03*
X18000D03*
X14000Y36000D03*
Y35000D03*
Y34000D03*
Y33000D03*
Y32000D03*
X15000Y44000D03*
X16000D03*
X15000Y45000D03*
X16000D03*
X14000D03*
Y44000D03*
X15000Y46000D03*
X14000D03*
X16000D03*
X15000Y47000D03*
X14000D03*
X18000Y45000D03*
X19000D03*
X17000D03*
X18000Y46000D03*
X19000D03*
X17000D03*
X20000D03*
X21000D03*
X20000Y47000D03*
X21000D03*
X18000D03*
X19000D03*
X17000D03*
X18000Y48000D03*
X19000D03*
X17000D03*
X18000Y49000D03*
X19000D03*
X17000D03*
X18000Y50000D03*
X19000D03*
X17000D03*
X18000Y51000D03*
X19000D03*
X17000D03*
X18000Y52000D03*
Y53000D03*
Y54000D03*
X19000Y52000D03*
Y53000D03*
Y54000D03*
X17000Y52000D03*
Y53000D03*
Y54000D03*
X16000Y47000D03*
Y48000D03*
Y49000D03*
Y50000D03*
Y51000D03*
Y52000D03*
X15000Y48000D03*
X14000D03*
X15000Y49000D03*
Y50000D03*
Y51000D03*
Y52000D03*
Y53000D03*
X16000D03*
X15000Y54000D03*
X16000D03*
X20000Y48000D03*
Y49000D03*
Y50000D03*
X21000Y48000D03*
Y49000D03*
X23000D03*
X22000D03*
X23000Y50000D03*
X22000D03*
X21000D03*
X23000Y51000D03*
Y52000D03*
X22000Y51000D03*
X21000D03*
X20000D03*
Y52000D03*
Y53000D03*
Y54000D03*
X22000Y52000D03*
X21000D03*
X23000Y53000D03*
X22000D03*
X21000D03*
X23000Y54000D03*
X22000D03*
X21000D03*
X23000Y45000D03*
X22000D03*
Y46000D03*
Y47000D03*
Y48000D03*
X23000Y46000D03*
Y47000D03*
Y48000D03*
X24000Y45000D03*
Y46000D03*
Y47000D03*
X26000Y46000D03*
Y47000D03*
Y48000D03*
Y49000D03*
Y50000D03*
Y51000D03*
X25000Y46000D03*
Y47000D03*
Y48000D03*
Y49000D03*
Y50000D03*
Y51000D03*
X24000Y48000D03*
Y49000D03*
Y50000D03*
X26000Y52000D03*
Y53000D03*
Y54000D03*
X25000Y52000D03*
Y53000D03*
Y54000D03*
X24000Y51000D03*
Y52000D03*
Y53000D03*
Y54000D03*
X40000Y32000D03*
Y33000D03*
Y34000D03*
Y30000D03*
Y28000D03*
Y27000D03*
X38000Y34000D03*
X39000D03*
X41000Y33000D03*
Y34000D03*
X38000Y32000D03*
X39000D03*
X36000Y30000D03*
X37000D03*
X38000D03*
X41000Y32000D03*
X40000Y29000D03*
X39000D03*
Y28000D03*
X36000Y29000D03*
Y28000D03*
X37000Y29000D03*
X38000D03*
X37000Y28000D03*
X38000D03*
X36000Y27000D03*
X37000D03*
X38000D03*
X40000Y25000D03*
X39000D03*
X36000D03*
X37000D03*
X38000D03*
X41000Y30000D03*
Y29000D03*
Y28000D03*
Y27000D03*
Y26000D03*
Y24000D03*
Y23000D03*
Y22000D03*
Y25000D03*
Y21000D03*
Y20000D03*
Y19000D03*
Y18000D03*
Y17000D03*
X33000Y29000D03*
Y28000D03*
Y27000D03*
Y26000D03*
Y25000D03*
X31000Y24000D03*
X30000D03*
Y23000D03*
X31000Y25000D03*
X30000D03*
X32000D03*
X39000Y27000D03*
Y26000D03*
X40000D03*
Y24000D03*
Y23000D03*
X36000Y26000D03*
X37000D03*
X35000Y24000D03*
X36000Y23000D03*
X35000Y25000D03*
X38000Y26000D03*
X36000Y24000D03*
X37000D03*
X38000D03*
X39000D03*
X34000Y29000D03*
Y28000D03*
Y27000D03*
Y26000D03*
Y24000D03*
Y25000D03*
X32000Y24000D03*
Y23000D03*
X31000D03*
G54D21*X33000Y14500D03*
G54D16*Y24000D03*
Y23000D03*
Y17000D03*
G54D21*X34000Y14500D03*
G54D16*Y17000D03*
X35000D03*
X26000Y24000D03*
X27000D03*
X26000Y25000D03*
X27000D03*
X28000Y24000D03*
Y25000D03*
X29000D03*
Y24000D03*
X26000Y23000D03*
Y22000D03*
Y21000D03*
Y20000D03*
Y19000D03*
Y18000D03*
Y17000D03*
X27000D03*
X28000D03*
X29000D03*
G54D21*X35000Y14500D03*
X36000D03*
X37000D03*
X38000D03*
G54D16*X37000Y17000D03*
X38000D03*
G54D21*X39000Y14500D03*
G54D16*Y17000D03*
G54D21*X40000Y14500D03*
G54D16*X38500Y11500D03*
X36500D03*
X35500D03*
X37500D03*
X38000Y10500D03*
X36000D03*
X37000D03*
G54D17*G36*
X34650Y10850D02*Y10150D01*
X35350D01*
Y10850D01*
X34650D01*
G37*
G54D15*X34500Y8000D03*
X39000D03*
G54D21*X26000Y14500D03*
X27000D03*
X28000D03*
X29000D03*
X30000D03*
G54D16*X28500Y11500D03*
X28000Y10500D03*
X27500Y11500D03*
X26500D03*
X26000Y10500D03*
X27000D03*
X25500Y11500D03*
G54D15*X29000Y8000D03*
X42600Y44400D03*
Y17200D03*
G54D16*X33000Y37000D03*
X34000D03*
X35000D03*
X41000Y38000D03*
X39000Y37000D03*
X40000D03*
X41000D03*
X39000Y38000D03*
X40000D03*
X36000Y37000D03*
X37000D03*
X38000D03*
X32000D03*
X31000D03*
X34000Y38000D03*
X35000D03*
X36000D03*
X37000D03*
X38000D03*
X33000Y36000D03*
X34000D03*
X35000D03*
X33000Y35000D03*
Y34000D03*
Y33000D03*
X34000Y34000D03*
Y35000D03*
X35000D03*
X36000Y32000D03*
X37000D03*
X34000Y33000D03*
X35000D03*
X36000D03*
X37000D03*
X38000D03*
X39000D03*
X35000Y34000D03*
X36000D03*
X37000D03*
X34000Y30000D03*
X35000D03*
X39000D03*
X32000Y32000D03*
Y33000D03*
Y34000D03*
X31000D03*
Y33000D03*
Y32000D03*
X36000Y35000D03*
X32000D03*
X31000D03*
X37000D03*
X38000D03*
X39000D03*
X40000D03*
X36000Y36000D03*
X37000D03*
X38000D03*
X39000D03*
X32000D03*
X31000D03*
X40000D03*
X41000D03*
Y35000D03*
X35000Y29000D03*
Y28000D03*
Y27000D03*
Y26000D03*
Y23000D03*
X37000D03*
X36000Y22000D03*
X35000D03*
X37000D03*
X38000Y23000D03*
X39000D03*
X40000Y22000D03*
X38000D03*
X39000D03*
X36000Y21000D03*
Y20000D03*
X35000D03*
X36000Y19000D03*
X35000D03*
X34000Y23000D03*
X27000D03*
X28000D03*
X29000D03*
X31000Y22000D03*
Y21000D03*
X32000D03*
Y22000D03*
X33000D03*
X34000D03*
X33000Y21000D03*
X34000D03*
X35000D03*
X30000D03*
X29000D03*
X31000Y20000D03*
X30000D03*
X29000D03*
Y19000D03*
Y18000D03*
X30000Y22000D03*
X29000D03*
X27000D03*
X28000D03*
X27000Y21000D03*
X28000D03*
X27000Y20000D03*
X28000D03*
X27000Y19000D03*
X28000D03*
X27000Y18000D03*
X28000D03*
X40000Y21000D03*
X39000D03*
X40000Y20000D03*
X39000D03*
X37000Y21000D03*
Y20000D03*
Y19000D03*
X38000Y21000D03*
Y20000D03*
Y19000D03*
Y18000D03*
X40000Y19000D03*
X39000D03*
X40000Y18000D03*
X39000D03*
X40000Y17000D03*
X36000Y18000D03*
Y17000D03*
X37000Y18000D03*
X32000Y20000D03*
X31000Y19000D03*
X32000D03*
X33000Y20000D03*
Y19000D03*
Y18000D03*
X34000Y20000D03*
Y19000D03*
Y18000D03*
X31000D03*
X30000D03*
X32000D03*
X35000D03*
X30000Y19000D03*
X31000Y17000D03*
X30000D03*
X32000D03*
X4000Y51000D03*
Y50000D03*
X3000Y43000D03*
G54D15*X1200Y44400D03*
G54D16*X3000Y44000D03*
X4000D03*
X3000Y45000D03*
X4000D03*
X3000Y46000D03*
X4000D03*
X3000Y47000D03*
Y48000D03*
Y49000D03*
Y50000D03*
Y51000D03*
X4000Y47000D03*
Y48000D03*
Y49000D03*
X11000Y52000D03*
X10000D03*
X6000D03*
X7000D03*
X8000D03*
X9000D03*
X11000Y53000D03*
X10000D03*
X11000Y54000D03*
X10000D03*
X8000Y53000D03*
X9000D03*
X8000Y54000D03*
X9000D03*
X3000Y52000D03*
Y53000D03*
Y54000D03*
X5000Y52000D03*
Y53000D03*
X4000Y52000D03*
Y53000D03*
X6000D03*
X7000D03*
X6000Y54000D03*
X7000D03*
X5000D03*
X4000D03*
X6000Y43000D03*
X5000D03*
X4000D03*
X7000D03*
Y44000D03*
Y45000D03*
X6000Y44000D03*
X5000D03*
X6000Y45000D03*
X5000D03*
X6000Y46000D03*
Y47000D03*
Y48000D03*
Y49000D03*
Y50000D03*
Y51000D03*
X7000Y46000D03*
Y47000D03*
Y48000D03*
Y49000D03*
Y50000D03*
Y51000D03*
X5000Y46000D03*
Y47000D03*
Y48000D03*
Y49000D03*
Y50000D03*
Y51000D03*
X8000Y43000D03*
Y44000D03*
Y45000D03*
X9000Y43000D03*
Y44000D03*
X11000D03*
X10000D03*
X11000Y45000D03*
X10000D03*
X9000D03*
X11000Y46000D03*
X10000D03*
X9000D03*
X8000D03*
Y47000D03*
Y48000D03*
X11000Y47000D03*
X10000D03*
X9000D03*
X11000Y48000D03*
X10000D03*
X9000D03*
X11000Y49000D03*
X10000D03*
X9000D03*
X8000D03*
Y50000D03*
Y51000D03*
X11000Y50000D03*
X10000D03*
X9000D03*
X11000Y51000D03*
X10000D03*
X9000D03*
X12000Y37000D03*
X13000D03*
X11000D03*
X10000D03*
X12000Y36000D03*
X13000D03*
X12000Y39000D03*
Y38000D03*
X11000Y39000D03*
X10000D03*
X13000Y38000D03*
X11000D03*
X10000D03*
X11000Y36000D03*
Y41000D03*
Y42000D03*
Y43000D03*
Y40000D03*
X10000Y36000D03*
Y41000D03*
Y42000D03*
Y43000D03*
Y40000D03*
X12000Y35000D03*
X13000Y34000D03*
Y35000D03*
Y33000D03*
Y32000D03*
X12000Y34000D03*
Y33000D03*
Y32000D03*
X11000D03*
X10000D03*
X11000Y33000D03*
X10000D03*
X11000Y34000D03*
X10000D03*
Y35000D03*
X11000D03*
X12000Y48000D03*
Y47000D03*
Y46000D03*
X13000Y47500D03*
Y46500D03*
Y45500D03*
Y44500D03*
Y43500D03*
X12000Y45000D03*
Y44000D03*
Y43000D03*
Y42000D03*
Y41000D03*
X13000Y42500D03*
Y41500D03*
Y40500D03*
Y39000D03*
X6000Y32000D03*
X5000D03*
X7000D03*
X8000D03*
X9000D03*
X7000Y33000D03*
X8000D03*
X9000D03*
X7000Y34000D03*
Y37000D03*
Y38000D03*
Y39000D03*
X8000Y34000D03*
Y35000D03*
Y36000D03*
Y37000D03*
Y38000D03*
Y39000D03*
X9000Y34000D03*
Y35000D03*
Y36000D03*
Y37000D03*
Y38000D03*
Y39000D03*
X7000Y35000D03*
Y36000D03*
X5000D03*
Y37000D03*
Y38000D03*
Y39000D03*
X3000Y32000D03*
Y33000D03*
Y34000D03*
Y35000D03*
X4000Y32000D03*
Y33000D03*
Y34000D03*
Y35000D03*
X6000Y33000D03*
X5000D03*
X6000Y34000D03*
X5000D03*
X6000Y35000D03*
X5000D03*
X6000Y36000D03*
Y37000D03*
X4000Y36000D03*
Y37000D03*
Y38000D03*
Y39000D03*
X3000Y36000D03*
Y37000D03*
Y38000D03*
Y39000D03*
Y41000D03*
Y42000D03*
Y40000D03*
X6000Y38000D03*
Y39000D03*
Y41000D03*
Y42000D03*
Y40000D03*
X7000Y41000D03*
X5000D03*
X4000D03*
X8000D03*
X9000D03*
X7000Y42000D03*
X8000D03*
X9000D03*
X5000D03*
X4000D03*
X7000Y40000D03*
X8000D03*
X9000D03*
X5000D03*
X4000D03*
M02*
