G04 start of page 5 for group -4062 idx -4062
G04 Title: bien sucia, soldermask *
G04 Creator: pcb 20080202 *
G04 CreationDate: Wed Jan 28 20:07:03 2009 UTC *
G04 For: orluke *
G04 Format: Gerber/RS-274X *
G04 PCB-Dimensions: 450000 650000 *
G04 PCB-Coordinate-Origin: lower left *
%MOIN*%
%FSLAX24Y24*%
%LNBACKMASK*%
%ADD15C,0.1280*%
%ADD16C,0.0700*%
%ADD17C,0.0200*%
%ADD21C,0.0760*%
G54D15*X1200Y17200D03*
G54D16*X3000Y18000D03*
X4000D03*
X3000Y17000D03*
X4000D03*
G54D21*X3000Y14500D03*
X4000D03*
X5000D03*
G54D16*Y17000D03*
X3000Y20000D03*
Y19000D03*
X5000Y20000D03*
Y19000D03*
X4000Y20000D03*
Y19000D03*
X11000Y24000D03*
Y23000D03*
X10000Y24000D03*
Y23000D03*
X8000Y24000D03*
Y23000D03*
Y22000D03*
Y25000D03*
X9000Y24000D03*
Y23000D03*
Y22000D03*
Y25000D03*
X11000Y22000D03*
Y21000D03*
Y20000D03*
X10000Y22000D03*
Y21000D03*
Y20000D03*
X6000Y24000D03*
X5000D03*
Y23000D03*
X6000Y25000D03*
X5000D03*
X7000Y24000D03*
X6000Y23000D03*
X7000D03*
Y25000D03*
X3000Y24000D03*
X4000D03*
X3000Y23000D03*
X4000D03*
X3000Y25000D03*
X4000D03*
X6000Y22000D03*
X5000D03*
X4000D03*
X7000D03*
X3000D03*
Y21000D03*
X4000D03*
X17000Y18000D03*
X18000D03*
X19000D03*
X16000D03*
X20000Y17000D03*
Y19000D03*
Y18000D03*
Y21000D03*
Y20000D03*
X16000Y17000D03*
X17000D03*
X18000D03*
X19000D03*
X17000Y19000D03*
X16000Y21000D03*
X17000D03*
X18000D03*
X19000D03*
X16000Y20000D03*
X18000Y19000D03*
X19000D03*
X14000Y20000D03*
X15000D03*
X17000D03*
X18000D03*
X19000D03*
X16000Y19000D03*
X12000D03*
X13000D03*
X14000D03*
X15000D03*
X12000Y18000D03*
Y21000D03*
Y20000D03*
X13000Y18000D03*
Y21000D03*
X14000D03*
X15000D03*
X13000Y20000D03*
X12000Y17000D03*
X13000D03*
X14000D03*
Y18000D03*
X15000D03*
Y17000D03*
G54D21*X13000Y14500D03*
X14000D03*
X15000D03*
X16000D03*
X17000D03*
X18000D03*
X19000D03*
X20000D03*
G54D16*X18500Y11500D03*
X18000Y10500D03*
G54D15*X19000Y8000D03*
G54D16*X16500Y11500D03*
X16000Y10500D03*
X17000D03*
G54D17*G36*
X14650Y10850D02*Y10150D01*
X15350D01*
Y10850D01*
X14650D01*
G37*
G54D16*X15500Y11500D03*
G54D15*X14500Y8000D03*
G54D16*X17500Y11500D03*
X20000Y24000D03*
X17000D03*
X18000D03*
X19000D03*
X20000Y23000D03*
X19000D03*
X20000Y22000D03*
X19000D03*
X16000Y23000D03*
X17000D03*
X18000D03*
X17000Y22000D03*
X18000D03*
X20000Y25000D03*
X16000D03*
X17000D03*
X18000D03*
X19000D03*
X16000Y24000D03*
X12000D03*
X13000D03*
X14000D03*
X15000D03*
X12000Y23000D03*
Y22000D03*
X13000D03*
Y23000D03*
X14000D03*
X15000D03*
X16000Y22000D03*
X14000D03*
X15000D03*
X20000Y27000D03*
X18000D03*
X19000D03*
X20000Y26000D03*
X18000D03*
X19000D03*
X16000Y27000D03*
X17000D03*
X16000Y26000D03*
X17000D03*
X11000Y27000D03*
X12000D03*
X13000D03*
X14000D03*
X15000D03*
X10000D03*
X11000Y26000D03*
X10000D03*
X12000D03*
X13000D03*
X14000D03*
X15000D03*
X11000Y25000D03*
X10000D03*
X12000D03*
X13000D03*
X14000D03*
X15000D03*
G54D21*X8000Y14500D03*
G54D16*Y18000D03*
Y17000D03*
G54D21*X9000Y14500D03*
G54D16*Y18000D03*
Y17000D03*
G54D21*X10000Y14500D03*
G54D16*X8000Y19000D03*
X9000D03*
X11000Y17000D03*
X10000D03*
X11000Y19000D03*
X10000D03*
X11000Y18000D03*
X10000D03*
G54D21*X6000Y14500D03*
X7000D03*
G54D16*X6000Y18000D03*
X5000D03*
X6000Y17000D03*
X7000D03*
X6000Y20000D03*
X7000D03*
X8000D03*
X9000D03*
X7000Y18000D03*
X6000Y19000D03*
X7000D03*
X6000Y21000D03*
X5000D03*
X7000D03*
X8000D03*
X9000D03*
X8500Y11500D03*
X8000Y10500D03*
X6500Y11500D03*
X6000Y10500D03*
X7000D03*
X7500Y11500D03*
G54D17*G36*
X4650Y10850D02*Y10150D01*
X5350D01*
Y10850D01*
X4650D01*
G37*
G54D16*X5500Y11500D03*
G54D15*X4500Y8000D03*
X9000D03*
X42600Y44400D03*
G54D16*X41000Y35000D03*
Y36000D03*
Y37000D03*
Y38000D03*
X33000Y37000D03*
Y36000D03*
X31000Y37000D03*
Y36000D03*
X32000D03*
Y37000D03*
X34000Y36000D03*
Y37000D03*
Y38000D03*
X32000D03*
X34000Y35000D03*
X35000D03*
X36000D03*
X37000D03*
X38000D03*
X39000D03*
X40000D03*
X35000Y36000D03*
Y37000D03*
Y38000D03*
X36000Y36000D03*
Y37000D03*
X37000D03*
X38000D03*
X39000D03*
X40000D03*
X37000Y36000D03*
X38000D03*
X39000D03*
X40000D03*
X36000Y38000D03*
X37000D03*
X38000D03*
X39000D03*
X40000D03*
X34000Y39000D03*
Y40000D03*
X35000Y39000D03*
Y40000D03*
X36000D03*
Y39000D03*
X37000D03*
X38000D03*
X39000D03*
X40000D03*
X37000Y40000D03*
X38000D03*
X39000D03*
X40000D03*
X33000Y41000D03*
Y40000D03*
Y39000D03*
Y38000D03*
X35000Y41000D03*
X31000D03*
X32000D03*
X36000D03*
X37000D03*
X38000D03*
X39000D03*
X40000D03*
X30000Y40000D03*
Y41000D03*
X31000Y40000D03*
X32000Y39000D03*
Y40000D03*
X33000Y34000D03*
X32000D03*
X31000D03*
X33000Y33000D03*
X34000D03*
X35000D03*
X31000D03*
X33000Y32000D03*
X31000D03*
X34000D03*
X35000D03*
X34000Y34000D03*
X35000D03*
X36000D03*
X34000Y31000D03*
X35000D03*
X36000D03*
X37000D03*
X38000D03*
X39000D03*
X40000D03*
X41000D03*
X31000D03*
X37000Y34000D03*
X38000D03*
X39000D03*
X40000D03*
X41000D03*
X33000Y24000D03*
X34000D03*
X35000D03*
X36000D03*
X31000D03*
X30000D03*
X32000D03*
X36000Y23000D03*
X35000D03*
X37000D03*
X36000Y22000D03*
X37000D03*
X36000Y21000D03*
X34000Y23000D03*
Y22000D03*
X35000D03*
X33000Y21000D03*
X34000D03*
X35000Y20000D03*
X36000Y19000D03*
X34000D03*
X31000D03*
X30000D03*
X32000D03*
X33000D03*
X31000Y18000D03*
X30000D03*
Y17000D03*
X32000Y18000D03*
Y17000D03*
X31000D03*
X37000Y21000D03*
Y20000D03*
Y19000D03*
X35000D03*
Y18000D03*
Y17000D03*
G54D21*Y14500D03*
G54D16*X36000Y18000D03*
Y17000D03*
G54D21*Y14500D03*
G54D16*X33000Y18000D03*
Y17000D03*
G54D21*Y14500D03*
G54D16*X34000Y18000D03*
Y17000D03*
G54D21*Y14500D03*
G54D16*X37000Y18000D03*
Y17000D03*
X26000Y24000D03*
X23000D03*
X25000D03*
X24000D03*
X28000D03*
X29000D03*
X31000Y23000D03*
X30000D03*
X32000D03*
X33000D03*
X29000D03*
X26000D03*
X23000D03*
X25000D03*
X24000D03*
X27000D03*
X28000D03*
X31000Y22000D03*
X30000D03*
X32000D03*
X33000D03*
X26000D03*
X25000D03*
X24000D03*
X27000D03*
X28000D03*
X29000D03*
X23000D03*
X31000Y21000D03*
X30000D03*
X32000D03*
X26000D03*
X23000D03*
X25000D03*
X24000D03*
X27000D03*
X28000D03*
X29000D03*
X35000D03*
X36000Y20000D03*
X34000D03*
X31000D03*
X30000D03*
X32000D03*
X33000D03*
X29000D03*
X36000Y26000D03*
X35000D03*
X31000D03*
X30000D03*
Y25000D03*
X32000Y26000D03*
X33000D03*
X34000D03*
X36000Y25000D03*
X35000D03*
X31000D03*
X32000D03*
X33000D03*
X34000D03*
X27000Y24000D03*
X23000Y27000D03*
X25000D03*
X24000D03*
X26000D03*
X27000D03*
X26000Y26000D03*
X27000D03*
X26000Y25000D03*
X27000D03*
X28000Y27000D03*
X29000D03*
X28000Y26000D03*
X29000D03*
X28000Y25000D03*
X29000D03*
X23000Y26000D03*
X24000D03*
X23000Y25000D03*
X24000D03*
X25000Y26000D03*
Y25000D03*
X26000Y20000D03*
X23000D03*
X25000D03*
X24000D03*
X23000Y19000D03*
X24000D03*
X23000Y18000D03*
X24000D03*
X25000Y19000D03*
Y18000D03*
X27000Y20000D03*
X26000Y19000D03*
X27000D03*
X28000Y20000D03*
Y19000D03*
Y18000D03*
X29000Y19000D03*
Y18000D03*
X26000D03*
X27000D03*
X26000Y17000D03*
X27000D03*
X29000D03*
X23000D03*
G54D21*Y14500D03*
G54D16*X25000Y17000D03*
G54D21*Y14500D03*
X26000D03*
G54D16*X24000Y17000D03*
G54D21*Y14500D03*
X27000D03*
X28000D03*
X29000D03*
X30000D03*
G54D16*X28000Y17000D03*
X28500Y11500D03*
X28000Y10500D03*
X26500Y11500D03*
X26000Y10500D03*
X27000D03*
G54D17*G36*
X24650Y10850D02*Y10150D01*
X25350D01*
Y10850D01*
X24650D01*
G37*
G54D16*X25500Y11500D03*
X27500D03*
G54D15*X24500Y8000D03*
X29000D03*
G54D16*X40000Y23000D03*
Y22000D03*
Y21000D03*
Y25000D03*
X37000Y24000D03*
X38000D03*
X39000D03*
X41000D03*
X40000D03*
X41000Y23000D03*
X40000Y26000D03*
X39000D03*
Y25000D03*
X41000Y26000D03*
Y25000D03*
X37000Y26000D03*
Y25000D03*
X38000Y26000D03*
Y25000D03*
Y23000D03*
Y22000D03*
Y21000D03*
Y20000D03*
Y19000D03*
Y18000D03*
X39000Y23000D03*
Y22000D03*
Y21000D03*
Y20000D03*
Y19000D03*
Y18000D03*
X41000Y22000D03*
Y21000D03*
Y20000D03*
Y19000D03*
Y18000D03*
Y17000D03*
X40000Y20000D03*
Y19000D03*
Y18000D03*
Y17000D03*
X38000D03*
X39000D03*
G54D15*X42600Y17200D03*
G54D21*X37000Y14500D03*
X38000D03*
X39000D03*
X40000D03*
G54D16*X38500Y11500D03*
X37500D03*
X38000Y10500D03*
G54D15*X39000Y8000D03*
G54D16*X36500Y11500D03*
X35500D03*
X36000Y10500D03*
X37000D03*
G54D17*G36*
X34650Y10850D02*Y10150D01*
X35350D01*
Y10850D01*
X34650D01*
G37*
G54D15*X34500Y8000D03*
X1200Y44400D03*
G54D16*X3000Y38000D03*
Y39000D03*
Y40000D03*
Y41000D03*
Y42000D03*
Y43000D03*
Y44000D03*
Y45000D03*
X12000Y41000D03*
Y40000D03*
Y39000D03*
Y38000D03*
X11000D03*
Y39000D03*
X10000D03*
Y38000D03*
X9000D03*
Y39000D03*
Y40000D03*
Y41000D03*
Y43000D03*
Y44000D03*
Y45000D03*
X11000Y40000D03*
Y41000D03*
Y43000D03*
Y44000D03*
Y45000D03*
X10000Y40000D03*
Y41000D03*
Y43000D03*
Y44000D03*
Y45000D03*
X6000Y38000D03*
X5000D03*
X4000D03*
X7000D03*
X8000D03*
X7000Y39000D03*
X8000D03*
X6000D03*
X5000D03*
X4000D03*
X6000Y40000D03*
X5000D03*
X4000D03*
X7000D03*
X5000Y41000D03*
X4000D03*
X5000Y42000D03*
X4000D03*
X8000Y40000D03*
Y41000D03*
X6000D03*
X7000D03*
X6000Y42000D03*
X7000D03*
X8000D03*
X9000D03*
X6000Y43000D03*
X5000D03*
X4000D03*
X7000D03*
X5000Y44000D03*
X8000Y43000D03*
Y44000D03*
X6000D03*
X7000D03*
X6000Y45000D03*
X7000D03*
X8000D03*
X4000Y44000D03*
X5000Y45000D03*
X4000D03*
X18000Y38000D03*
Y39000D03*
X19000D03*
X20000D03*
X18000Y40000D03*
X19000D03*
X20000D03*
X19000Y38000D03*
X20000D03*
X18000Y36000D03*
X19000D03*
X20000D03*
X18000Y37000D03*
X19000D03*
X20000D03*
X15000Y38000D03*
X17000D03*
X16000D03*
X15000Y39000D03*
Y40000D03*
Y41000D03*
Y36000D03*
Y37000D03*
X17000Y39000D03*
Y40000D03*
Y41000D03*
Y36000D03*
Y37000D03*
X16000Y39000D03*
Y40000D03*
Y36000D03*
Y37000D03*
X13000Y42500D03*
Y41500D03*
Y40500D03*
Y39500D03*
Y38500D03*
Y37500D03*
Y36000D03*
Y35000D03*
Y34000D03*
Y33000D03*
Y31000D03*
Y30000D03*
Y29000D03*
Y32000D03*
X14000Y36000D03*
Y35000D03*
Y34000D03*
Y33000D03*
Y32000D03*
Y31000D03*
Y30000D03*
Y29000D03*
Y40000D03*
Y39000D03*
Y38000D03*
X16000Y41000D03*
Y42000D03*
Y43000D03*
X13000Y44500D03*
Y43500D03*
X14000Y45000D03*
Y44000D03*
Y43000D03*
Y42000D03*
Y41000D03*
X18000D03*
X19000D03*
X20000D03*
X18000Y42000D03*
X19000D03*
X20000D03*
X18000Y43000D03*
Y44000D03*
Y45000D03*
X19000Y43000D03*
Y44000D03*
Y45000D03*
X20000Y43000D03*
Y44000D03*
Y45000D03*
X15000Y42000D03*
Y43000D03*
Y44000D03*
Y45000D03*
Y46000D03*
Y47000D03*
X17000Y42000D03*
Y43000D03*
Y44000D03*
Y45000D03*
Y46000D03*
Y47000D03*
X16000Y44000D03*
Y45000D03*
Y46000D03*
Y47000D03*
X18000Y46000D03*
Y47000D03*
Y48000D03*
Y49000D03*
X19000Y46000D03*
Y47000D03*
Y48000D03*
Y49000D03*
X20000Y46000D03*
Y47000D03*
Y48000D03*
Y49000D03*
X18000Y50000D03*
Y51000D03*
Y52000D03*
Y53000D03*
Y54000D03*
X19000Y50000D03*
Y51000D03*
Y52000D03*
Y53000D03*
Y54000D03*
X20000Y50000D03*
Y51000D03*
Y52000D03*
Y53000D03*
Y54000D03*
X15000Y48000D03*
Y49000D03*
Y50000D03*
X17000Y48000D03*
Y49000D03*
Y50000D03*
Y51000D03*
Y52000D03*
Y53000D03*
X16000Y48000D03*
Y49000D03*
Y50000D03*
Y51000D03*
Y52000D03*
Y53000D03*
X15000Y51000D03*
Y52000D03*
Y53000D03*
Y54000D03*
X17000D03*
X16000D03*
X12000Y36000D03*
Y35000D03*
Y34000D03*
Y33000D03*
Y32000D03*
Y31000D03*
Y30000D03*
X9000D03*
Y31000D03*
Y32000D03*
Y33000D03*
Y34000D03*
Y35000D03*
X11000Y31000D03*
Y32000D03*
Y33000D03*
Y34000D03*
Y35000D03*
Y36000D03*
X10000Y33000D03*
Y34000D03*
Y35000D03*
Y36000D03*
X9000D03*
Y37000D03*
X11000D03*
X10000D03*
X12000Y29000D03*
X11000D03*
X10000D03*
X9000Y26000D03*
X11000Y30000D03*
X10000D03*
Y31000D03*
Y32000D03*
X3000Y27000D03*
X5000D03*
X4000D03*
X3000Y26000D03*
X5000D03*
X4000D03*
X3000Y29000D03*
X7000Y27000D03*
X8000D03*
X9000D03*
X6000D03*
Y26000D03*
X7000D03*
X8000D03*
X7000Y29000D03*
X8000D03*
X9000D03*
X6000D03*
X5000D03*
X4000D03*
X6000Y30000D03*
X5000D03*
X4000D03*
X3000D03*
Y31000D03*
Y32000D03*
X6000Y31000D03*
X5000D03*
X4000D03*
X7000Y30000D03*
X8000D03*
Y31000D03*
Y32000D03*
Y33000D03*
Y34000D03*
X7000Y31000D03*
Y32000D03*
Y33000D03*
X6000Y34000D03*
X7000D03*
X6000Y35000D03*
X7000D03*
X8000D03*
Y36000D03*
Y37000D03*
X6000Y36000D03*
X7000D03*
X6000Y37000D03*
X7000D03*
X6000Y32000D03*
X5000D03*
X4000D03*
X6000Y33000D03*
X5000D03*
X4000D03*
X3000D03*
Y35000D03*
Y36000D03*
Y34000D03*
X4000D03*
X5000D03*
Y35000D03*
X4000D03*
X5000Y36000D03*
X4000D03*
X3000Y37000D03*
X4000D03*
X5000D03*
X4000Y48000D03*
X5000Y47000D03*
X4000D03*
X5000Y48000D03*
X3000Y49000D03*
X4000D03*
X3000Y50000D03*
X4000D03*
X3000Y51000D03*
Y46000D03*
X5000D03*
X4000D03*
X3000Y47000D03*
Y48000D03*
X11000Y49000D03*
Y50000D03*
X10000D03*
Y49000D03*
X9000D03*
X11000Y48000D03*
X10000D03*
X9000D03*
X8000D03*
X12000Y45000D03*
Y44000D03*
Y43000D03*
Y42000D03*
X11000D03*
X10000D03*
X11000Y46000D03*
Y47000D03*
X10000D03*
X9000D03*
X10000Y46000D03*
X9000D03*
X6000Y49000D03*
X5000D03*
Y50000D03*
X7000Y49000D03*
X8000D03*
X6000Y50000D03*
X7000D03*
X8000D03*
X6000Y46000D03*
X7000D03*
X8000D03*
X6000Y47000D03*
Y48000D03*
X7000D03*
Y47000D03*
X8000D03*
X4000Y51000D03*
X6000D03*
X7000D03*
X5000D03*
X6000Y52000D03*
X7000D03*
X5000D03*
X3000D03*
Y53000D03*
Y54000D03*
X4000Y52000D03*
Y53000D03*
Y54000D03*
X6000Y53000D03*
X5000D03*
X6000Y54000D03*
X5000D03*
X7000Y53000D03*
Y54000D03*
X9000Y50000D03*
X10000Y51000D03*
X8000D03*
X9000D03*
X8000Y52000D03*
X9000D03*
X11000Y51000D03*
Y52000D03*
X10000D03*
X11000Y53000D03*
X10000D03*
X8000D03*
Y54000D03*
X9000Y53000D03*
Y54000D03*
X11000D03*
X10000D03*
X28000Y51000D03*
X27000D03*
X30000D03*
X29000D03*
X30000Y45000D03*
Y48000D03*
Y46000D03*
Y49000D03*
Y47000D03*
Y50000D03*
X27000Y48000D03*
Y45000D03*
Y46000D03*
Y47000D03*
X29000Y49000D03*
Y50000D03*
Y45000D03*
Y46000D03*
Y47000D03*
Y48000D03*
X28000Y49000D03*
Y50000D03*
Y45000D03*
Y46000D03*
Y47000D03*
Y48000D03*
X27000Y49000D03*
Y50000D03*
X38000Y51000D03*
X39000D03*
Y50000D03*
Y48000D03*
Y49000D03*
X40000Y51000D03*
Y50000D03*
Y48000D03*
Y49000D03*
X38000Y50000D03*
Y48000D03*
Y49000D03*
X34000Y51000D03*
X35000D03*
X34000Y50000D03*
X35000D03*
X34000Y48000D03*
X35000D03*
X34000Y49000D03*
X35000D03*
X36000Y50000D03*
X37000D03*
X36000Y48000D03*
X37000D03*
X36000Y49000D03*
X37000D03*
X36000Y51000D03*
X37000D03*
X34000Y54000D03*
Y53000D03*
X35000D03*
Y54000D03*
X36000D03*
X37000D03*
X38000D03*
X39000D03*
X40000D03*
X36000Y53000D03*
X37000D03*
X38000D03*
X39000D03*
X40000D03*
Y52000D03*
X34000D03*
X35000D03*
X36000D03*
X37000D03*
X38000D03*
X39000D03*
X34000Y41000D03*
X30000Y42000D03*
X29000D03*
X28000D03*
X30000Y43000D03*
X29000D03*
X28000D03*
X30000Y44000D03*
X29000D03*
X28000D03*
X29000Y41000D03*
X28000D03*
X30000Y38000D03*
Y39000D03*
X31000D03*
Y38000D03*
X30000Y36000D03*
Y37000D03*
X29000Y36000D03*
Y37000D03*
X28000Y36000D03*
Y37000D03*
X29000Y38000D03*
X28000D03*
Y39000D03*
Y40000D03*
X29000Y39000D03*
Y40000D03*
X34000Y29000D03*
X35000D03*
X36000D03*
X37000D03*
X38000D03*
X39000D03*
X40000D03*
X41000D03*
X35000Y30000D03*
X36000D03*
X37000D03*
X38000D03*
X39000D03*
X40000D03*
X41000D03*
X40000Y27000D03*
X35000D03*
X37000D03*
X38000D03*
X39000D03*
X41000D03*
X36000Y32000D03*
X37000D03*
X38000D03*
X39000D03*
X40000D03*
X32000D03*
X36000Y33000D03*
X37000D03*
X38000D03*
X39000D03*
X32000D03*
X40000D03*
G54D15*X22250Y32250D03*
G54D16*X41000Y32000D03*
Y33000D03*
X36000Y27000D03*
X31000D03*
X30000D03*
X32000D03*
X33000D03*
X34000D03*
X33000Y31000D03*
Y30000D03*
X34000D03*
X33000Y29000D03*
X32000D03*
Y30000D03*
Y31000D03*
X31000Y30000D03*
Y29000D03*
X23000Y36000D03*
X22000D03*
X21000D03*
X23000Y38000D03*
X22000D03*
X21000D03*
X23000Y39000D03*
X22000D03*
X21000D03*
X23000Y40000D03*
Y37000D03*
X22000Y40000D03*
Y41000D03*
Y37000D03*
X21000Y40000D03*
Y41000D03*
Y37000D03*
X26000Y36000D03*
X27000D03*
X26000Y38000D03*
Y37000D03*
X27000Y38000D03*
Y37000D03*
X25000Y36000D03*
Y38000D03*
Y39000D03*
Y40000D03*
Y41000D03*
Y37000D03*
X24000Y36000D03*
Y38000D03*
Y39000D03*
Y40000D03*
Y41000D03*
Y37000D03*
X27000Y39000D03*
Y40000D03*
Y41000D03*
Y42000D03*
Y43000D03*
Y44000D03*
X26000Y39000D03*
Y40000D03*
Y41000D03*
X25000Y42000D03*
Y43000D03*
Y44000D03*
X24000Y42000D03*
Y43000D03*
Y44000D03*
X26000Y42000D03*
Y43000D03*
Y44000D03*
X22000Y42000D03*
Y43000D03*
Y44000D03*
Y45000D03*
X21000Y42000D03*
Y43000D03*
Y44000D03*
Y45000D03*
X23000Y41000D03*
Y42000D03*
Y43000D03*
Y44000D03*
Y45000D03*
X25000D03*
Y46000D03*
Y47000D03*
X24000Y45000D03*
Y46000D03*
Y47000D03*
X26000Y45000D03*
Y46000D03*
Y47000D03*
Y48000D03*
Y49000D03*
Y50000D03*
Y51000D03*
Y52000D03*
Y53000D03*
Y54000D03*
X28000D03*
X27000D03*
X29000D03*
X30000D03*
Y53000D03*
X27000Y52000D03*
X30000D03*
X29000D03*
X28000D03*
X29000Y53000D03*
X28000D03*
X27000D03*
X23000Y46000D03*
Y47000D03*
Y48000D03*
X22000Y46000D03*
Y47000D03*
Y48000D03*
Y49000D03*
Y50000D03*
Y51000D03*
X21000Y46000D03*
Y47000D03*
Y48000D03*
Y49000D03*
Y50000D03*
Y51000D03*
X23000Y49000D03*
Y50000D03*
Y51000D03*
Y52000D03*
Y53000D03*
Y54000D03*
X22000Y52000D03*
Y53000D03*
Y54000D03*
X21000Y52000D03*
Y53000D03*
Y54000D03*
X25000Y48000D03*
Y49000D03*
Y50000D03*
Y51000D03*
X24000Y48000D03*
Y49000D03*
Y50000D03*
X25000Y52000D03*
Y53000D03*
Y54000D03*
X24000Y51000D03*
Y52000D03*
Y53000D03*
Y54000D03*
M02*
