G04 start of page 2 for group 0 idx 0
G04 Title: bien sucia, outline *
G04 Creator: pcb 20080202 *
G04 CreationDate: Wed Jan 28 20:07:03 2009 UTC *
G04 For: orluke *
G04 Format: Gerber/RS-274X *
G04 PCB-Dimensions: 450000 650000 *
G04 PCB-Coordinate-Origin: lower left *
%MOIN*%
%FSLAX24Y24*%
%LNFRONT*%
%ADD11C,0.0250*%
%ADD12C,0.0100*%
%ADD13C,0.0060*%
%ADD14C,0.0100*%
%ADD15C,0.1280*%
%ADD16C,0.0700*%
%ADD17C,0.0200*%
%ADD18C,0.0600*%
%ADD19C,0.0350*%
%ADD20C,0.0380*%
G54D11*X34500Y9000D02*X25500D01*
X24500D02*X15500D01*
X15000Y9500D01*
X14500Y9000D01*
X5500D01*
X5000Y9500D01*
X5500Y13000D02*X4000Y14500D01*
G54D12*X5000D02*Y15000D01*
X5500Y15500D01*
G54D11*X5000Y9500D02*Y10500D01*
X4500Y11000D01*
Y13000D01*
X5500D02*Y11500D01*
X4500Y13000D02*X3000Y14500D01*
X14500Y13000D02*X13000Y14500D01*
X15000Y9500D02*Y10500D01*
X15100Y10400D02*X14500Y11000D01*
Y13000D01*
X15500D02*Y11500D01*
G54D12*X15000Y16000D02*X20250D01*
X15500Y15500D02*X20750D01*
X5500D02*X14500D01*
X8000Y13500D02*X9000Y14500D01*
X8500Y13000D02*X10000Y14500D01*
X8500Y11500D02*Y13000D01*
X6000Y10500D02*Y13500D01*
X5000Y14500D01*
X6500Y11500D02*Y14000D01*
X6000Y14500D01*
X7000Y10500D02*Y14500D01*
X7500Y11500D02*Y14000D01*
X8000Y10500D02*Y13500D01*
X7500Y14000D02*X8000Y14500D01*
X18000Y13500D02*X19000Y14500D01*
X18500Y13000D02*X20000Y14500D01*
X18500Y11500D02*Y13000D01*
X16000Y10500D02*Y13500D01*
X15000Y14500D01*
X16500Y11500D02*Y14000D01*
X14500Y15500D02*X15000Y16000D01*
Y14500D02*Y15000D01*
X15500Y15500D01*
G54D11*Y13000D02*X14000Y14500D01*
G54D12*X16500Y14000D02*X16000Y14500D01*
X17000Y10500D02*Y14500D01*
X17500Y11500D02*Y14000D01*
X18000Y14500D01*
Y10500D02*Y13500D01*
X20250Y16000D02*X20750Y16500D01*
Y15500D02*X21250Y16000D01*
X22250Y15500D02*X21750Y16000D01*
X22750D02*X22250Y16500D01*
X24500Y15500D02*X22250D01*
X25000Y16000D02*X22750D01*
X25000Y15000D02*X24500Y15500D01*
X25500D02*X25000Y16000D01*
X28000Y13500D02*X29000Y14500D01*
X28500Y13000D02*X30000Y14500D01*
X28500Y11500D02*Y13000D01*
X25000Y14500D02*Y15000D01*
X26000Y10500D02*Y13500D01*
X37500Y14000D02*X38000Y14500D01*
X35000Y15000D02*X34500Y15500D01*
G54D11*X35500Y13000D02*X34000Y14500D01*
G54D12*X36000Y13500D02*X35000Y14500D01*
X36500Y14000D02*X36000Y14500D01*
X35000D02*Y15000D01*
G54D11*Y9500D02*Y10500D01*
X34500Y11000D01*
Y13000D01*
X35500D02*Y11500D01*
G54D12*X26500D02*Y14000D01*
X27000Y10500D02*Y14500D01*
X27500Y11500D02*Y14000D01*
X28000Y10500D02*Y13500D01*
X26000D02*X25000Y14500D01*
X26500Y14000D02*X26000Y14500D01*
X27500Y14000D02*X28000Y14500D01*
X34500Y15500D02*X25500D01*
G54D11*X34500Y13000D02*X33000Y14500D01*
X25500Y9000D02*X25000Y9500D01*
Y10500D01*
Y9500D02*X24500Y9000D01*
X25100Y10400D02*X24500Y11000D01*
Y13000D01*
X23000Y14500D01*
X25500Y13000D02*X24000Y14500D01*
X25500Y13000D02*Y11500D01*
G54D12*X22250Y29000D02*Y16500D01*
G54D13*X23000Y27500D02*X30500D01*
G54D12*X33000Y29000D02*X31000D01*
X38500Y13000D02*X40000Y14500D01*
G54D11*X41000Y16500D02*X42500Y15000D01*
X40000Y16500D02*X41500Y15000D01*
Y14000D01*
X40500Y13000D01*
X42500Y15000D02*Y11000D01*
X40500Y9000D02*X42500Y11000D01*
G54D12*X38000Y13500D02*X39000Y14500D01*
G54D11*X40500Y9000D02*X35500D01*
X35000Y9500D01*
X34500Y9000D01*
G54D12*X38500Y11500D02*Y13000D01*
X36000Y10500D02*Y13500D01*
X36500Y11500D02*Y14000D01*
X37000Y10500D02*Y14500D01*
X37500Y11500D02*Y14000D01*
X38000Y10500D02*Y13500D01*
G54D11*X40000Y16500D02*Y38000D01*
X41000Y38500D02*X40500Y39000D01*
X41000Y16500D02*Y38500D01*
G54D12*X12000Y29000D02*X14000D01*
G54D13*X12500Y28500D02*X16500D01*
X17500Y27500D01*
X20000D01*
G54D12*X17250Y32000D02*X12000D01*
X17250Y31000D02*X12000D01*
X30000Y35000D02*X15000D01*
X12000Y30000D02*X14000D01*
X21250Y28000D02*X17250Y32000D01*
X22250Y29000D02*X17250Y34000D01*
X21750Y28500D02*X17250Y33000D01*
X20750Y27500D02*X17250Y31000D01*
G54D13*X30500Y27500D02*X31500Y28500D01*
X32500D01*
G54D12*X33000Y36000D02*X31000D01*
G54D13*X32500Y34500D02*Y35500D01*
G54D12*X33000Y31000D02*X31000D01*
X33000Y34000D02*X31000D01*
X33000Y32000D02*X31000D01*
X33000Y33000D02*X31000D01*
X30500Y35500D02*Y37500D01*
X31000Y37000D02*X30500Y37500D01*
X33000Y30000D02*X31000D01*
X30000Y35000D02*X30500Y35500D01*
G54D13*X12500Y45500D02*Y51000D01*
G54D12*Y41500D02*X13500D01*
X14000Y42000D01*
X12500Y42500D02*X13500D01*
X14000Y43000D01*
G54D11*X12000Y44000D02*X12500Y43500D01*
X13500D01*
G54D12*X12500Y42500D02*X12000Y43000D01*
X12500Y44500D02*X13500D01*
X14000Y45000D01*
G54D11*X13500Y43500D02*X14000Y44000D01*
G54D12*X12500Y44500D02*X12000Y45000D01*
X12500Y41500D02*X12000Y42000D01*
X30500Y37500D02*X31000Y38000D01*
G54D11*X40000D02*X31000D01*
X40000Y37000D02*X31000D01*
G54D13*X32500Y41500D02*Y51000D01*
G54D12*X33000Y40000D02*X31000D01*
X33000Y41000D02*X31000D01*
G54D11*X40500Y39000D02*X31000D01*
G54D13*X12500Y36500D02*Y37000D01*
G54D12*Y37500D02*X13500D01*
X12500Y38500D02*X13500D01*
X12500Y39500D02*X13500D01*
X12500Y40500D02*X13500D01*
X17250Y33000D02*X12000D01*
X20750Y16500D02*Y27500D01*
X21250Y28000D02*Y16000D01*
X21750D02*Y28500D01*
X17250Y34000D02*X12000D01*
Y35000D02*X14000D01*
X14500Y35500D02*X15000Y35000D01*
X12000Y36000D02*X14000D01*
X12500Y37500D02*X12000Y38000D01*
X12500Y38500D02*X12000Y39000D01*
X12500Y39500D02*X12000Y40000D01*
X12500Y40500D02*X12000Y41000D01*
X13500Y37500D02*X14000Y38000D01*
X13500Y38500D02*X14000Y39000D01*
X14500Y43500D02*Y35500D01*
X13500Y39500D02*X14000Y40000D01*
X13500Y40500D02*X14000Y41000D01*
Y44000D02*X14500Y43500D01*
X38538Y28356D02*X38610Y28284D01*
X38322Y28356D02*X38538D01*
X38250Y28284D02*X38322Y28356D01*
X38250Y28284D02*Y27852D01*
X38322Y27780D01*
X38538D01*
X38610Y27852D01*
Y27996D02*Y27852D01*
X38538Y28068D02*X38610Y27996D01*
X38394Y28068D02*X38538D01*
X38782Y28356D02*Y27780D01*
Y28356D02*Y28284D01*
X39142Y27924D01*
Y28356D02*Y27780D01*
X39387Y28356D02*Y27780D01*
X39603Y28356D02*X39675Y28284D01*
Y27852D01*
X39603Y27780D02*X39675Y27852D01*
X39315Y27780D02*X39603D01*
X39315Y28356D02*X39603D01*
X41500D02*X41788D01*
X41500D02*Y28068D01*
X41572Y28140D01*
X41716D01*
X41788Y28068D01*
Y27852D01*
X41716Y27780D02*X41788Y27852D01*
X41572Y27780D02*X41716D01*
X41500Y27852D02*X41572Y27780D01*
X41960Y28356D02*Y27924D01*
X42104Y27780D01*
X42248Y27924D01*
Y28356D02*Y27924D01*
X3072Y6280D02*X3216D01*
X3144Y6856D02*Y6280D01*
X3000Y6712D02*X3144Y6856D01*
X33000Y6568D02*X33288Y6856D01*
X33000Y6568D02*X33360D01*
X33288Y6856D02*Y6280D01*
X23000Y6784D02*X23072Y6856D01*
X23216D01*
X23288Y6784D01*
Y6352D01*
X23216Y6280D02*X23288Y6352D01*
X23072Y6280D02*X23216D01*
X23000Y6352D02*X23072Y6280D01*
Y6568D02*X23288D01*
X13000Y6784D02*X13072Y6856D01*
X13288D01*
X13360Y6784D01*
Y6640D01*
X13000Y6280D02*X13360Y6640D01*
X13000Y6280D02*X13360D01*
G54D14*X33100Y46823D02*Y46070D01*
Y46823D02*X33225Y46949D01*
X33476D01*
X33602Y46823D01*
Y46070D01*
X33476Y45945D02*X33602Y46070D01*
X33225Y45945D02*X33476D01*
X33100Y46070D02*X33225Y45945D01*
X34028Y46321D02*Y45568D01*
X33903Y46447D02*X34028Y46321D01*
X34154Y46447D01*
X34405D01*
X34530Y46321D01*
Y46070D01*
X34405Y45945D02*X34530Y46070D01*
X34154Y45945D02*X34405D01*
X34028Y46070D02*X34154Y45945D01*
X34957D02*X35334D01*
X34832Y46070D02*X34957Y45945D01*
X34832Y46321D02*Y46070D01*
Y46321D02*X34957Y46447D01*
X35208D01*
X35334Y46321D01*
X34832Y46196D02*X35334D01*
Y46321D02*Y46196D01*
X35761Y46321D02*Y45945D01*
Y46321D02*X35886Y46447D01*
X36012D01*
X36137Y46321D01*
Y45945D01*
X35635Y46447D02*X35761Y46321D01*
X36941Y46949D02*X37066Y46823D01*
X36564Y46949D02*X36941D01*
X36439Y46823D02*X36564Y46949D01*
X36439Y46823D02*Y46572D01*
X36564Y46447D01*
X36941D01*
X37066Y46321D01*
Y46070D01*
X36941Y45945D02*X37066Y46070D01*
X36564Y45945D02*X36941D01*
X36439Y46070D02*X36564Y45945D01*
X37493Y46321D02*Y45568D01*
X37368Y46447D02*X37493Y46321D01*
X37619Y46447D01*
X37870D01*
X37995Y46321D01*
Y46070D01*
X37870Y45945D02*X37995Y46070D01*
X37619Y45945D02*X37870D01*
X37493Y46070D02*X37619Y45945D01*
X38422Y46321D02*Y45945D01*
Y46321D02*X38548Y46447D01*
X38799D01*
X38297D02*X38422Y46321D01*
X39100Y46698D02*Y46572D01*
Y46321D02*Y45945D01*
X39477Y46321D02*Y45945D01*
Y46321D02*X39602Y46447D01*
X39728D01*
X39853Y46321D01*
Y45945D01*
X39351Y46447D02*X39477Y46321D01*
X40280Y46949D02*Y46070D01*
X40406Y45945D01*
X40155Y46572D02*X40406D01*
X40783Y45945D02*X41159D01*
X41285Y46070D01*
X41159Y46196D02*X41285Y46070D01*
X40783Y46196D02*X41159D01*
X40657Y46321D02*X40783Y46196D01*
X40657Y46321D02*X40783Y46447D01*
X41159D01*
X41285Y46321D01*
X40657Y46070D02*X40783Y45945D01*
G54D12*X33000Y44098D02*Y43490D01*
X33304D01*
X33486Y44098D02*X33714D01*
Y43566D01*
X33638Y43490D02*X33714Y43566D01*
X33562Y43490D02*X33638D01*
X33486Y43566D02*X33562Y43490D01*
X33897Y44022D02*Y43566D01*
Y44022D02*X33973Y44098D01*
X34125D01*
X34201Y44022D01*
Y43566D01*
X34125Y43490D02*X34201Y43566D01*
X33973Y43490D02*X34125D01*
X33897Y43566D02*X33973Y43490D01*
X34657Y44022D02*X34733Y44098D01*
X34961D01*
X35037Y44022D01*
Y43870D01*
X34657Y43490D02*X35037Y43870D01*
X34657Y43490D02*X35037D01*
X35219Y43566D02*X35295Y43490D01*
X35219Y44022D02*Y43566D01*
Y44022D02*X35295Y44098D01*
X35447D01*
X35523Y44022D01*
Y43566D01*
X35447Y43490D02*X35523Y43566D01*
X35295Y43490D02*X35447D01*
X35219Y43642D02*X35523Y43946D01*
X35706Y43566D02*X35782Y43490D01*
X35706Y44022D02*Y43566D01*
Y44022D02*X35782Y44098D01*
X35934D01*
X36010Y44022D01*
Y43566D01*
X35934Y43490D02*X36010Y43566D01*
X35782Y43490D02*X35934D01*
X35706Y43642D02*X36010Y43946D01*
X36192Y43490D02*X36496Y43794D01*
Y44022D02*Y43794D01*
X36420Y44098D02*X36496Y44022D01*
X36268Y44098D02*X36420D01*
X36192Y44022D02*X36268Y44098D01*
X36192Y44022D02*Y43870D01*
X36268Y43794D01*
X36496D01*
X36679Y43490D02*X36755D01*
X36938Y43566D02*X37014Y43490D01*
X36938Y44022D02*Y43566D01*
Y44022D02*X37014Y44098D01*
X37166D01*
X37242Y44022D01*
Y43566D01*
X37166Y43490D02*X37242Y43566D01*
X37014Y43490D02*X37166D01*
X36938Y43642D02*X37242Y43946D01*
X37500Y43490D02*X37652D01*
X37576Y44098D02*Y43490D01*
X37424Y43946D02*X37576Y44098D01*
X37835Y43490D02*X37911D01*
X38093Y44022D02*X38169Y44098D01*
X38397D01*
X38473Y44022D01*
Y43870D01*
X38093Y43490D02*X38473Y43870D01*
X38093Y43490D02*X38473D01*
X38656Y43566D02*X38732Y43490D01*
X38656Y43718D02*Y43566D01*
Y43718D02*X38732Y43794D01*
X38884D01*
X38960Y43718D01*
Y43566D01*
X38884Y43490D02*X38960Y43566D01*
X38732Y43490D02*X38884D01*
X38656Y43870D02*X38732Y43794D01*
X38656Y44022D02*Y43870D01*
Y44022D02*X38732Y44098D01*
X38884D01*
X38960Y44022D01*
Y43870D01*
X38884Y43794D02*X38960Y43870D01*
X33000Y44946D02*Y44870D01*
Y44718D02*Y44490D01*
X33228Y44718D02*Y44490D01*
Y44718D02*X33304Y44794D01*
X33380D01*
X33456Y44718D01*
Y44490D01*
X33152Y44794D02*X33228Y44718D01*
X33714Y45098D02*Y44566D01*
X33790Y44490D01*
X33638Y44870D02*X33790D01*
X34018Y44490D02*X34246D01*
X33942Y44566D02*X34018Y44490D01*
X33942Y44718D02*Y44566D01*
Y44718D02*X34018Y44794D01*
X34170D01*
X34246Y44718D01*
X33942Y44642D02*X34246D01*
Y44718D02*Y44642D01*
X34505Y44718D02*Y44490D01*
Y44718D02*X34581Y44794D01*
X34733D01*
X34429D02*X34505Y44718D01*
X34991Y45022D02*Y44490D01*
Y45022D02*X35067Y45098D01*
X35143D01*
X34915Y44794D02*X35067D01*
X35524D02*X35600Y44718D01*
X35372Y44794D02*X35524D01*
X35296Y44718D02*X35372Y44794D01*
X35296Y44718D02*Y44566D01*
X35372Y44490D01*
X35600Y44794D02*Y44566D01*
X35676Y44490D01*
X35372D02*X35524D01*
X35600Y44566D01*
X35934Y44794D02*X36162D01*
X35858Y44718D02*X35934Y44794D01*
X35858Y44718D02*Y44566D01*
X35934Y44490D01*
X36162D01*
X36421D02*X36649D01*
X36345Y44566D02*X36421Y44490D01*
X36345Y44718D02*Y44566D01*
Y44718D02*X36421Y44794D01*
X36573D01*
X36649Y44718D01*
X36345Y44642D02*X36649D01*
Y44718D02*Y44642D01*
X37105Y45098D02*Y44490D01*
Y44566D02*X37181Y44490D01*
X37333D01*
X37409Y44566D01*
Y44718D02*Y44566D01*
X37333Y44794D02*X37409Y44718D01*
X37181Y44794D02*X37333D01*
X37105Y44718D02*X37181Y44794D01*
X37591Y44718D02*Y44566D01*
Y44718D02*X37667Y44794D01*
X37819D01*
X37895Y44718D01*
Y44566D01*
X37819Y44490D02*X37895Y44566D01*
X37667Y44490D02*X37819D01*
X37591Y44566D02*X37667Y44490D01*
X38306Y44794D02*X38382Y44718D01*
X38154Y44794D02*X38306D01*
X38078Y44718D02*X38154Y44794D01*
X38078Y44718D02*Y44566D01*
X38154Y44490D01*
X38382Y44794D02*Y44566D01*
X38458Y44490D01*
X38154D02*X38306D01*
X38382Y44566D01*
X38717Y44718D02*Y44490D01*
Y44718D02*X38793Y44794D01*
X38945D01*
X38641D02*X38717Y44718D01*
X39431Y45098D02*Y44490D01*
X39355D02*X39431Y44566D01*
X39203Y44490D02*X39355D01*
X39127Y44566D02*X39203Y44490D01*
X39127Y44718D02*Y44566D01*
Y44718D02*X39203Y44794D01*
X39355D01*
X39431Y44718D01*
X39887Y44794D02*Y44642D01*
X40039Y44490D01*
X40191Y44642D01*
Y44794D02*Y44642D01*
X40374Y45022D02*X40450Y45098D01*
X40678D01*
X40754Y45022D01*
Y44870D01*
X40374Y44490D02*X40754Y44870D01*
X40374Y44490D02*X40754D01*
X40936D02*X41012D01*
X41271D02*X41423D01*
X41347Y45098D02*Y44490D01*
X41195Y44946D02*X41347Y45098D01*
X0Y54400D02*X43800D01*
X0Y6000D02*Y54400D01*
X43800D02*Y6000D01*
X0D01*
G54D15*X1200Y17200D03*
G54D16*X3000Y18000D03*
X4000D03*
X3000Y17000D03*
X4000D03*
X3000Y14500D03*
X4000D03*
X5000D03*
Y17000D03*
X3000Y20000D03*
Y19000D03*
X5000Y20000D03*
Y19000D03*
X4000Y20000D03*
Y19000D03*
X11000Y24000D03*
Y23000D03*
X10000Y24000D03*
Y23000D03*
X8000Y24000D03*
Y23000D03*
Y22000D03*
Y25000D03*
X9000Y24000D03*
Y23000D03*
Y22000D03*
Y25000D03*
X11000Y22000D03*
Y21000D03*
Y20000D03*
X10000Y22000D03*
Y21000D03*
Y20000D03*
X6000Y24000D03*
X5000D03*
Y23000D03*
X6000Y25000D03*
X5000D03*
X7000Y24000D03*
X6000Y23000D03*
X7000D03*
Y25000D03*
X3000Y24000D03*
X4000D03*
X3000Y23000D03*
X4000D03*
X3000Y25000D03*
X4000D03*
X6000Y22000D03*
X5000D03*
X4000D03*
X7000D03*
X3000D03*
Y21000D03*
X4000D03*
X17000Y18000D03*
X18000D03*
X19000D03*
X16000D03*
X20000Y17000D03*
Y19000D03*
Y18000D03*
Y21000D03*
Y20000D03*
X16000Y17000D03*
X17000D03*
X18000D03*
X19000D03*
X17000Y19000D03*
X16000Y21000D03*
X17000D03*
X18000D03*
X19000D03*
X16000Y20000D03*
X18000Y19000D03*
X19000D03*
X14000Y20000D03*
X15000D03*
X17000D03*
X18000D03*
X19000D03*
X16000Y19000D03*
X12000D03*
X13000D03*
X14000D03*
X15000D03*
X12000Y18000D03*
Y21000D03*
Y20000D03*
X13000Y18000D03*
Y21000D03*
X14000D03*
X15000D03*
X13000Y20000D03*
X12000Y17000D03*
X13000D03*
X14000D03*
Y18000D03*
X15000D03*
Y17000D03*
X13000Y14500D03*
X14000D03*
X15000D03*
X16000D03*
X17000D03*
X18000D03*
X19000D03*
X20000D03*
X18500Y11500D03*
X18000Y10500D03*
G54D15*X19000Y8000D03*
G54D16*X16500Y11500D03*
X16000Y10500D03*
X17000D03*
G54D17*G36*
X14650Y10850D02*Y10150D01*
X15350D01*
Y10850D01*
X14650D01*
G37*
G54D16*X15500Y11500D03*
G54D15*X14500Y8000D03*
G54D16*X17500Y11500D03*
X20000Y24000D03*
X17000D03*
X18000D03*
X19000D03*
X20000Y23000D03*
X19000D03*
X20000Y22000D03*
X19000D03*
X16000Y23000D03*
X17000D03*
X18000D03*
X17000Y22000D03*
X18000D03*
X20000Y25000D03*
X16000D03*
X17000D03*
X18000D03*
X19000D03*
X16000Y24000D03*
X12000D03*
X13000D03*
X14000D03*
X15000D03*
X12000Y23000D03*
Y22000D03*
X13000D03*
Y23000D03*
X14000D03*
X15000D03*
X16000Y22000D03*
X14000D03*
X15000D03*
X20000Y27000D03*
X18000D03*
X19000D03*
X20000Y26000D03*
X18000D03*
X19000D03*
X16000Y27000D03*
X17000D03*
X16000Y26000D03*
X17000D03*
X11000Y27000D03*
X12000D03*
X13000D03*
X14000D03*
X15000D03*
X10000D03*
X11000Y26000D03*
X10000D03*
X12000D03*
X13000D03*
X14000D03*
X15000D03*
X11000Y25000D03*
X10000D03*
X12000D03*
X13000D03*
X14000D03*
X15000D03*
X8000Y14500D03*
Y18000D03*
Y17000D03*
X9000Y14500D03*
Y18000D03*
Y17000D03*
X10000Y14500D03*
X8000Y19000D03*
X9000D03*
X11000Y17000D03*
X10000D03*
X11000Y19000D03*
X10000D03*
X11000Y18000D03*
X10000D03*
X6000Y14500D03*
X7000D03*
X6000Y18000D03*
X5000D03*
X6000Y17000D03*
X7000D03*
X6000Y20000D03*
X7000D03*
X8000D03*
X9000D03*
X7000Y18000D03*
X6000Y19000D03*
X7000D03*
X6000Y21000D03*
X5000D03*
X7000D03*
X8000D03*
X9000D03*
X8500Y11500D03*
X8000Y10500D03*
X6500Y11500D03*
X6000Y10500D03*
X7000D03*
X7500Y11500D03*
G54D17*G36*
X4650Y10850D02*Y10150D01*
X5350D01*
Y10850D01*
X4650D01*
G37*
G54D16*X5500Y11500D03*
G54D15*X4500Y8000D03*
X9000D03*
X42600Y44400D03*
G54D16*X41000Y35000D03*
Y36000D03*
Y37000D03*
Y38000D03*
X33000Y37000D03*
Y36000D03*
X31000Y37000D03*
Y36000D03*
X32000D03*
Y37000D03*
X34000Y36000D03*
Y37000D03*
Y38000D03*
X32000D03*
X34000Y35000D03*
X35000D03*
X36000D03*
X37000D03*
X38000D03*
X39000D03*
X40000D03*
X35000Y36000D03*
Y37000D03*
Y38000D03*
X36000Y36000D03*
Y37000D03*
X37000D03*
X38000D03*
X39000D03*
X40000D03*
X37000Y36000D03*
X38000D03*
X39000D03*
X40000D03*
X36000Y38000D03*
X37000D03*
X38000D03*
X39000D03*
X40000D03*
X34000Y39000D03*
Y40000D03*
X35000Y39000D03*
Y40000D03*
X36000D03*
Y39000D03*
X37000D03*
X38000D03*
X39000D03*
X40000D03*
X37000Y40000D03*
X38000D03*
X39000D03*
X40000D03*
X33000Y41000D03*
Y40000D03*
Y39000D03*
Y38000D03*
X35000Y41000D03*
X31000D03*
X32000D03*
X36000D03*
X37000D03*
X38000D03*
X39000D03*
X40000D03*
X30000Y40000D03*
Y41000D03*
X31000Y40000D03*
X32000Y39000D03*
Y40000D03*
X33000Y34000D03*
X32000D03*
X31000D03*
X33000Y33000D03*
X34000D03*
X35000D03*
X31000D03*
X33000Y32000D03*
X31000D03*
X34000D03*
X35000D03*
X34000Y34000D03*
X35000D03*
X36000D03*
X34000Y31000D03*
X35000D03*
X36000D03*
X37000D03*
X38000D03*
X39000D03*
X40000D03*
X41000D03*
X31000D03*
X37000Y34000D03*
X38000D03*
X39000D03*
X40000D03*
X41000D03*
X33000Y24000D03*
X34000D03*
X35000D03*
X36000D03*
X31000D03*
X30000D03*
X32000D03*
X36000Y23000D03*
X35000D03*
X37000D03*
X36000Y22000D03*
X37000D03*
X36000Y21000D03*
X34000Y23000D03*
Y22000D03*
X35000D03*
X33000Y21000D03*
X34000D03*
X35000Y20000D03*
X36000Y19000D03*
X34000D03*
X31000D03*
X30000D03*
X32000D03*
X33000D03*
X31000Y18000D03*
X30000D03*
Y17000D03*
X32000Y18000D03*
Y17000D03*
X31000D03*
X37000Y21000D03*
Y20000D03*
Y19000D03*
X35000D03*
Y18000D03*
Y17000D03*
Y14500D03*
X36000Y18000D03*
Y17000D03*
Y14500D03*
X33000Y18000D03*
Y17000D03*
Y14500D03*
X34000Y18000D03*
Y17000D03*
Y14500D03*
X37000Y18000D03*
Y17000D03*
X26000Y24000D03*
X23000D03*
X25000D03*
X24000D03*
X28000D03*
X29000D03*
X31000Y23000D03*
X30000D03*
X32000D03*
X33000D03*
X29000D03*
X26000D03*
X23000D03*
X25000D03*
X24000D03*
X27000D03*
X28000D03*
X31000Y22000D03*
X30000D03*
X32000D03*
X33000D03*
X26000D03*
X25000D03*
X24000D03*
X27000D03*
X28000D03*
X29000D03*
X23000D03*
X31000Y21000D03*
X30000D03*
X32000D03*
X26000D03*
X23000D03*
X25000D03*
X24000D03*
X27000D03*
X28000D03*
X29000D03*
X35000D03*
X36000Y20000D03*
X34000D03*
X31000D03*
X30000D03*
X32000D03*
X33000D03*
X29000D03*
X36000Y26000D03*
X35000D03*
X31000D03*
X30000D03*
Y25000D03*
X32000Y26000D03*
X33000D03*
X34000D03*
X36000Y25000D03*
X35000D03*
X31000D03*
X32000D03*
X33000D03*
X34000D03*
X27000Y24000D03*
X23000Y27000D03*
X25000D03*
X24000D03*
X26000D03*
X27000D03*
X26000Y26000D03*
X27000D03*
X26000Y25000D03*
X27000D03*
X28000Y27000D03*
X29000D03*
X28000Y26000D03*
X29000D03*
X28000Y25000D03*
X29000D03*
X23000Y26000D03*
X24000D03*
X23000Y25000D03*
X24000D03*
X25000Y26000D03*
Y25000D03*
X26000Y20000D03*
X23000D03*
X25000D03*
X24000D03*
X23000Y19000D03*
X24000D03*
X23000Y18000D03*
X24000D03*
X25000Y19000D03*
Y18000D03*
X27000Y20000D03*
X26000Y19000D03*
X27000D03*
X28000Y20000D03*
Y19000D03*
Y18000D03*
X29000Y19000D03*
Y18000D03*
X26000D03*
X27000D03*
X26000Y17000D03*
X27000D03*
X29000D03*
X23000D03*
Y14500D03*
X25000Y17000D03*
Y14500D03*
X26000D03*
X24000Y17000D03*
Y14500D03*
X27000D03*
X28000D03*
X29000D03*
X30000D03*
X28000Y17000D03*
X28500Y11500D03*
X28000Y10500D03*
X26500Y11500D03*
X26000Y10500D03*
X27000D03*
G54D17*G36*
X24650Y10850D02*Y10150D01*
X25350D01*
Y10850D01*
X24650D01*
G37*
G54D16*X25500Y11500D03*
X27500D03*
G54D15*X24500Y8000D03*
X29000D03*
G54D16*X40000Y23000D03*
Y22000D03*
Y21000D03*
Y25000D03*
X37000Y24000D03*
X38000D03*
X39000D03*
X41000D03*
X40000D03*
X41000Y23000D03*
X40000Y26000D03*
X39000D03*
Y25000D03*
X41000Y26000D03*
Y25000D03*
X37000Y26000D03*
Y25000D03*
X38000Y26000D03*
Y25000D03*
Y23000D03*
Y22000D03*
Y21000D03*
Y20000D03*
Y19000D03*
Y18000D03*
X39000Y23000D03*
Y22000D03*
Y21000D03*
Y20000D03*
Y19000D03*
Y18000D03*
X41000Y22000D03*
Y21000D03*
Y20000D03*
Y19000D03*
Y18000D03*
Y17000D03*
X40000Y20000D03*
Y19000D03*
Y18000D03*
Y17000D03*
X38000D03*
X39000D03*
G54D15*X42600Y17200D03*
G54D16*X37000Y14500D03*
X38000D03*
X39000D03*
X40000D03*
X38500Y11500D03*
X37500D03*
X38000Y10500D03*
G54D15*X39000Y8000D03*
G54D16*X36500Y11500D03*
X35500D03*
X36000Y10500D03*
X37000D03*
G54D17*G36*
X34650Y10850D02*Y10150D01*
X35350D01*
Y10850D01*
X34650D01*
G37*
G54D15*X34500Y8000D03*
X1200Y44400D03*
G54D16*X3000Y38000D03*
Y39000D03*
Y40000D03*
Y41000D03*
Y42000D03*
Y43000D03*
Y44000D03*
Y45000D03*
X12000Y41000D03*
Y40000D03*
Y39000D03*
Y38000D03*
X11000D03*
Y39000D03*
X10000D03*
Y38000D03*
X9000D03*
Y39000D03*
Y40000D03*
Y41000D03*
Y43000D03*
Y44000D03*
Y45000D03*
X11000Y40000D03*
Y41000D03*
Y43000D03*
Y44000D03*
Y45000D03*
X10000Y40000D03*
Y41000D03*
Y43000D03*
Y44000D03*
Y45000D03*
X6000Y38000D03*
X5000D03*
X4000D03*
X7000D03*
X8000D03*
X7000Y39000D03*
X8000D03*
X6000D03*
X5000D03*
X4000D03*
X6000Y40000D03*
X5000D03*
X4000D03*
X7000D03*
X5000Y41000D03*
X4000D03*
X5000Y42000D03*
X4000D03*
X8000Y40000D03*
Y41000D03*
X6000D03*
X7000D03*
X6000Y42000D03*
X7000D03*
X8000D03*
X9000D03*
X6000Y43000D03*
X5000D03*
X4000D03*
X7000D03*
X5000Y44000D03*
X8000Y43000D03*
Y44000D03*
X6000D03*
X7000D03*
X6000Y45000D03*
X7000D03*
X8000D03*
X4000Y44000D03*
X5000Y45000D03*
X4000D03*
X18000Y38000D03*
Y39000D03*
X19000D03*
X20000D03*
X18000Y40000D03*
X19000D03*
X20000D03*
X19000Y38000D03*
X20000D03*
X18000Y36000D03*
X19000D03*
X20000D03*
X18000Y37000D03*
X19000D03*
X20000D03*
X15000Y38000D03*
X17000D03*
X16000D03*
X15000Y39000D03*
Y40000D03*
Y41000D03*
Y36000D03*
Y37000D03*
X17000Y39000D03*
Y40000D03*
Y41000D03*
Y36000D03*
Y37000D03*
X16000Y39000D03*
Y40000D03*
Y36000D03*
Y37000D03*
X13000Y42500D03*
Y41500D03*
Y40500D03*
Y39500D03*
Y38500D03*
Y37500D03*
Y36000D03*
Y35000D03*
Y34000D03*
Y33000D03*
Y31000D03*
Y30000D03*
Y29000D03*
Y32000D03*
X14000Y36000D03*
Y35000D03*
Y34000D03*
Y33000D03*
Y32000D03*
Y31000D03*
Y30000D03*
Y29000D03*
Y40000D03*
Y39000D03*
Y38000D03*
X16000Y41000D03*
Y42000D03*
Y43000D03*
X13000Y44500D03*
Y43500D03*
X14000Y45000D03*
Y44000D03*
Y43000D03*
Y42000D03*
Y41000D03*
X18000D03*
X19000D03*
X20000D03*
X18000Y42000D03*
X19000D03*
X20000D03*
X18000Y43000D03*
Y44000D03*
Y45000D03*
X19000Y43000D03*
Y44000D03*
Y45000D03*
X20000Y43000D03*
Y44000D03*
Y45000D03*
X15000Y42000D03*
Y43000D03*
Y44000D03*
Y45000D03*
Y46000D03*
Y47000D03*
X17000Y42000D03*
Y43000D03*
Y44000D03*
Y45000D03*
Y46000D03*
Y47000D03*
X16000Y44000D03*
Y45000D03*
Y46000D03*
Y47000D03*
X18000Y46000D03*
Y47000D03*
Y48000D03*
Y49000D03*
X19000Y46000D03*
Y47000D03*
Y48000D03*
Y49000D03*
X20000Y46000D03*
Y47000D03*
Y48000D03*
Y49000D03*
X18000Y50000D03*
Y51000D03*
Y52000D03*
Y53000D03*
Y54000D03*
X19000Y50000D03*
Y51000D03*
Y52000D03*
Y53000D03*
Y54000D03*
X20000Y50000D03*
Y51000D03*
Y52000D03*
Y53000D03*
Y54000D03*
X15000Y48000D03*
Y49000D03*
Y50000D03*
X17000Y48000D03*
Y49000D03*
Y50000D03*
Y51000D03*
Y52000D03*
Y53000D03*
X16000Y48000D03*
Y49000D03*
Y50000D03*
Y51000D03*
Y52000D03*
Y53000D03*
X15000Y51000D03*
Y52000D03*
Y53000D03*
Y54000D03*
X17000D03*
X16000D03*
X12000Y36000D03*
Y35000D03*
Y34000D03*
Y33000D03*
Y32000D03*
Y31000D03*
Y30000D03*
X9000D03*
Y31000D03*
Y32000D03*
Y33000D03*
Y34000D03*
Y35000D03*
X11000Y31000D03*
Y32000D03*
Y33000D03*
Y34000D03*
Y35000D03*
Y36000D03*
X10000Y33000D03*
Y34000D03*
Y35000D03*
Y36000D03*
X9000D03*
Y37000D03*
X11000D03*
X10000D03*
X12000Y29000D03*
X11000D03*
X10000D03*
X9000Y26000D03*
X11000Y30000D03*
X10000D03*
Y31000D03*
Y32000D03*
X3000Y27000D03*
X5000D03*
X4000D03*
X3000Y26000D03*
X5000D03*
X4000D03*
X3000Y29000D03*
X7000Y27000D03*
X8000D03*
X9000D03*
X6000D03*
Y26000D03*
X7000D03*
X8000D03*
X7000Y29000D03*
X8000D03*
X9000D03*
X6000D03*
X5000D03*
X4000D03*
X6000Y30000D03*
X5000D03*
X4000D03*
X3000D03*
Y31000D03*
Y32000D03*
X6000Y31000D03*
X5000D03*
X4000D03*
X7000Y30000D03*
X8000D03*
Y31000D03*
Y32000D03*
Y33000D03*
Y34000D03*
X7000Y31000D03*
Y32000D03*
Y33000D03*
X6000Y34000D03*
X7000D03*
X6000Y35000D03*
X7000D03*
X8000D03*
Y36000D03*
Y37000D03*
X6000Y36000D03*
X7000D03*
X6000Y37000D03*
X7000D03*
X6000Y32000D03*
X5000D03*
X4000D03*
X6000Y33000D03*
X5000D03*
X4000D03*
X3000D03*
Y35000D03*
Y36000D03*
Y34000D03*
X4000D03*
X5000D03*
Y35000D03*
X4000D03*
X5000Y36000D03*
X4000D03*
X3000Y37000D03*
X4000D03*
X5000D03*
X4000Y48000D03*
X5000Y47000D03*
X4000D03*
X5000Y48000D03*
X3000Y49000D03*
X4000D03*
X3000Y50000D03*
X4000D03*
X3000Y51000D03*
Y46000D03*
X5000D03*
X4000D03*
X3000Y47000D03*
Y48000D03*
X11000Y49000D03*
Y50000D03*
X10000D03*
Y49000D03*
X9000D03*
X11000Y48000D03*
X10000D03*
X9000D03*
X8000D03*
X12000Y45000D03*
Y44000D03*
Y43000D03*
Y42000D03*
X11000D03*
X10000D03*
X11000Y46000D03*
Y47000D03*
X10000D03*
X9000D03*
X10000Y46000D03*
X9000D03*
X6000Y49000D03*
X5000D03*
Y50000D03*
X7000Y49000D03*
X8000D03*
X6000Y50000D03*
X7000D03*
X8000D03*
X6000Y46000D03*
X7000D03*
X8000D03*
X6000Y47000D03*
Y48000D03*
X7000D03*
Y47000D03*
X8000D03*
X4000Y51000D03*
X6000D03*
X7000D03*
X5000D03*
X6000Y52000D03*
X7000D03*
X5000D03*
X3000D03*
Y53000D03*
Y54000D03*
X4000Y52000D03*
Y53000D03*
Y54000D03*
X6000Y53000D03*
X5000D03*
X6000Y54000D03*
X5000D03*
X7000Y53000D03*
Y54000D03*
X9000Y50000D03*
X10000Y51000D03*
X8000D03*
X9000D03*
X8000Y52000D03*
X9000D03*
X11000Y51000D03*
Y52000D03*
X10000D03*
X11000Y53000D03*
X10000D03*
X8000D03*
Y54000D03*
X9000Y53000D03*
Y54000D03*
X11000D03*
X10000D03*
X28000Y51000D03*
X27000D03*
X30000D03*
X29000D03*
X30000Y45000D03*
Y48000D03*
Y46000D03*
Y49000D03*
Y47000D03*
Y50000D03*
X27000Y48000D03*
Y45000D03*
Y46000D03*
Y47000D03*
X29000Y49000D03*
Y50000D03*
Y45000D03*
Y46000D03*
Y47000D03*
Y48000D03*
X28000Y49000D03*
Y50000D03*
Y45000D03*
Y46000D03*
Y47000D03*
Y48000D03*
X27000Y49000D03*
Y50000D03*
X38000Y51000D03*
X39000D03*
Y50000D03*
Y48000D03*
Y49000D03*
X40000Y51000D03*
Y50000D03*
Y48000D03*
Y49000D03*
X38000Y50000D03*
Y48000D03*
Y49000D03*
X34000Y51000D03*
X35000D03*
X34000Y50000D03*
X35000D03*
X34000Y48000D03*
X35000D03*
X34000Y49000D03*
X35000D03*
X36000Y50000D03*
X37000D03*
X36000Y48000D03*
X37000D03*
X36000Y49000D03*
X37000D03*
X36000Y51000D03*
X37000D03*
X34000Y54000D03*
Y53000D03*
X35000D03*
Y54000D03*
X36000D03*
X37000D03*
X38000D03*
X39000D03*
X40000D03*
X36000Y53000D03*
X37000D03*
X38000D03*
X39000D03*
X40000D03*
Y52000D03*
X34000D03*
X35000D03*
X36000D03*
X37000D03*
X38000D03*
X39000D03*
X34000Y41000D03*
X30000Y42000D03*
X29000D03*
X28000D03*
X30000Y43000D03*
X29000D03*
X28000D03*
X30000Y44000D03*
X29000D03*
X28000D03*
X29000Y41000D03*
X28000D03*
X30000Y38000D03*
Y39000D03*
X31000D03*
Y38000D03*
X30000Y36000D03*
Y37000D03*
X29000Y36000D03*
Y37000D03*
X28000Y36000D03*
Y37000D03*
X29000Y38000D03*
X28000D03*
Y39000D03*
Y40000D03*
X29000Y39000D03*
Y40000D03*
X34000Y29000D03*
X35000D03*
X36000D03*
X37000D03*
X38000D03*
X39000D03*
X40000D03*
X41000D03*
X35000Y30000D03*
X36000D03*
X37000D03*
X38000D03*
X39000D03*
X40000D03*
X41000D03*
X40000Y27000D03*
X35000D03*
X37000D03*
X38000D03*
X39000D03*
X41000D03*
X36000Y32000D03*
X37000D03*
X38000D03*
X39000D03*
X40000D03*
X32000D03*
X36000Y33000D03*
X37000D03*
X38000D03*
X39000D03*
X32000D03*
X40000D03*
G54D15*X22250Y32250D03*
G54D16*X41000Y32000D03*
Y33000D03*
X36000Y27000D03*
X31000D03*
X30000D03*
X32000D03*
X33000D03*
X34000D03*
X33000Y31000D03*
Y30000D03*
X34000D03*
X33000Y29000D03*
X32000D03*
Y30000D03*
Y31000D03*
X31000Y30000D03*
Y29000D03*
X23000Y36000D03*
X22000D03*
X21000D03*
X23000Y38000D03*
X22000D03*
X21000D03*
X23000Y39000D03*
X22000D03*
X21000D03*
X23000Y40000D03*
Y37000D03*
X22000Y40000D03*
Y41000D03*
Y37000D03*
X21000Y40000D03*
Y41000D03*
Y37000D03*
X26000Y36000D03*
X27000D03*
X26000Y38000D03*
Y37000D03*
X27000Y38000D03*
Y37000D03*
X25000Y36000D03*
Y38000D03*
Y39000D03*
Y40000D03*
Y41000D03*
Y37000D03*
X24000Y36000D03*
Y38000D03*
Y39000D03*
Y40000D03*
Y41000D03*
Y37000D03*
X27000Y39000D03*
Y40000D03*
Y41000D03*
Y42000D03*
Y43000D03*
Y44000D03*
X26000Y39000D03*
Y40000D03*
Y41000D03*
X25000Y42000D03*
Y43000D03*
Y44000D03*
X24000Y42000D03*
Y43000D03*
Y44000D03*
X26000Y42000D03*
Y43000D03*
Y44000D03*
X22000Y42000D03*
Y43000D03*
Y44000D03*
Y45000D03*
X21000Y42000D03*
Y43000D03*
Y44000D03*
Y45000D03*
X23000Y41000D03*
Y42000D03*
Y43000D03*
Y44000D03*
Y45000D03*
X25000D03*
Y46000D03*
Y47000D03*
X24000Y45000D03*
Y46000D03*
Y47000D03*
X26000Y45000D03*
Y46000D03*
Y47000D03*
Y48000D03*
Y49000D03*
Y50000D03*
Y51000D03*
Y52000D03*
Y53000D03*
Y54000D03*
X28000D03*
X27000D03*
X29000D03*
X30000D03*
Y53000D03*
X27000Y52000D03*
X30000D03*
X29000D03*
X28000D03*
X29000Y53000D03*
X28000D03*
X27000D03*
X23000Y46000D03*
Y47000D03*
Y48000D03*
X22000Y46000D03*
Y47000D03*
Y48000D03*
Y49000D03*
Y50000D03*
Y51000D03*
X21000Y46000D03*
Y47000D03*
Y48000D03*
Y49000D03*
Y50000D03*
Y51000D03*
X23000Y49000D03*
Y50000D03*
Y51000D03*
Y52000D03*
Y53000D03*
Y54000D03*
X22000Y52000D03*
Y53000D03*
Y54000D03*
X21000Y52000D03*
Y53000D03*
Y54000D03*
X25000Y48000D03*
Y49000D03*
Y50000D03*
Y51000D03*
X24000Y48000D03*
Y49000D03*
Y50000D03*
X25000Y52000D03*
Y53000D03*
Y54000D03*
X24000Y51000D03*
Y52000D03*
Y53000D03*
Y54000D03*
G54D18*X35500Y13000D03*
X25500D03*
X15500D03*
X5500D03*
X40500D03*
G54D15*X1200Y17200D03*
G54D19*X3000Y18000D03*
X4000D03*
X3000Y17000D03*
X4000D03*
G54D20*X3000Y14500D03*
X4000D03*
X5000D03*
G54D19*Y17000D03*
X3000Y20000D03*
Y19000D03*
X5000Y20000D03*
Y19000D03*
X4000Y20000D03*
Y19000D03*
X11000Y24000D03*
Y23000D03*
X10000Y24000D03*
Y23000D03*
X8000Y24000D03*
Y23000D03*
Y22000D03*
Y25000D03*
X9000Y24000D03*
Y23000D03*
Y22000D03*
Y25000D03*
X11000Y22000D03*
Y21000D03*
Y20000D03*
X10000Y22000D03*
Y21000D03*
Y20000D03*
X6000Y24000D03*
X5000D03*
Y23000D03*
X6000Y25000D03*
X5000D03*
X7000Y24000D03*
X6000Y23000D03*
X7000D03*
Y25000D03*
X3000Y24000D03*
X4000D03*
X3000Y23000D03*
X4000D03*
X3000Y25000D03*
X4000D03*
X6000Y22000D03*
X5000D03*
X4000D03*
X7000D03*
X3000D03*
Y21000D03*
X4000D03*
X17000Y18000D03*
X18000D03*
X19000D03*
X16000D03*
X20000Y17000D03*
Y19000D03*
Y18000D03*
Y21000D03*
Y20000D03*
X16000Y17000D03*
X17000D03*
X18000D03*
X19000D03*
X17000Y19000D03*
X16000Y21000D03*
X17000D03*
X18000D03*
X19000D03*
X16000Y20000D03*
X18000Y19000D03*
X19000D03*
X14000Y20000D03*
X15000D03*
X17000D03*
X18000D03*
X19000D03*
X16000Y19000D03*
X12000D03*
X13000D03*
X14000D03*
X15000D03*
X12000Y18000D03*
Y21000D03*
Y20000D03*
X13000Y18000D03*
Y21000D03*
X14000D03*
X15000D03*
X13000Y20000D03*
X12000Y17000D03*
X13000D03*
X14000D03*
Y18000D03*
X15000D03*
Y17000D03*
G54D20*X13000Y14500D03*
X14000D03*
X15000D03*
X16000D03*
X17000D03*
X18000D03*
X19000D03*
X20000D03*
G54D19*X18500Y11500D03*
X18000Y10500D03*
G54D15*X19000Y8000D03*
G54D19*X16500Y11500D03*
X16000Y10500D03*
X17000D03*
X15000D03*
X15500Y11500D03*
G54D15*X14500Y8000D03*
G54D19*X17500Y11500D03*
X20000Y24000D03*
X17000D03*
X18000D03*
X19000D03*
X20000Y23000D03*
X19000D03*
X20000Y22000D03*
X19000D03*
X16000Y23000D03*
X17000D03*
X18000D03*
X17000Y22000D03*
X18000D03*
X20000Y25000D03*
X16000D03*
X17000D03*
X18000D03*
X19000D03*
X16000Y24000D03*
X12000D03*
X13000D03*
X14000D03*
X15000D03*
X12000Y23000D03*
Y22000D03*
X13000D03*
Y23000D03*
X14000D03*
X15000D03*
X16000Y22000D03*
X14000D03*
X15000D03*
X20000Y27000D03*
X18000D03*
X19000D03*
X20000Y26000D03*
X18000D03*
X19000D03*
X16000Y27000D03*
X17000D03*
X16000Y26000D03*
X17000D03*
X11000Y27000D03*
X12000D03*
X13000D03*
X14000D03*
X15000D03*
X10000D03*
X11000Y26000D03*
X10000D03*
X12000D03*
X13000D03*
X14000D03*
X15000D03*
X11000Y25000D03*
X10000D03*
X12000D03*
X13000D03*
X14000D03*
X15000D03*
G54D20*X8000Y14500D03*
G54D19*Y18000D03*
Y17000D03*
G54D20*X9000Y14500D03*
G54D19*Y18000D03*
Y17000D03*
G54D20*X10000Y14500D03*
G54D19*X8000Y19000D03*
X9000D03*
X11000Y17000D03*
X10000D03*
X11000Y19000D03*
X10000D03*
X11000Y18000D03*
X10000D03*
G54D20*X6000Y14500D03*
X7000D03*
G54D19*X6000Y18000D03*
X5000D03*
X6000Y17000D03*
X7000D03*
X6000Y20000D03*
X7000D03*
X8000D03*
X9000D03*
X7000Y18000D03*
X6000Y19000D03*
X7000D03*
X6000Y21000D03*
X5000D03*
X7000D03*
X8000D03*
X9000D03*
X8500Y11500D03*
X8000Y10500D03*
X6500Y11500D03*
X6000Y10500D03*
X7000D03*
X7500Y11500D03*
X5000Y10500D03*
X5500Y11500D03*
G54D15*X4500Y8000D03*
X9000D03*
X42600Y44400D03*
G54D19*X41000Y35000D03*
Y36000D03*
Y37000D03*
Y38000D03*
X33000Y37000D03*
Y36000D03*
X31000Y37000D03*
Y36000D03*
X32000D03*
Y37000D03*
X34000Y36000D03*
Y37000D03*
Y38000D03*
X32000D03*
X34000Y35000D03*
X35000D03*
X36000D03*
X37000D03*
X38000D03*
X39000D03*
X40000D03*
X35000Y36000D03*
Y37000D03*
Y38000D03*
X36000Y36000D03*
Y37000D03*
X37000D03*
X38000D03*
X39000D03*
X40000D03*
X37000Y36000D03*
X38000D03*
X39000D03*
X40000D03*
X36000Y38000D03*
X37000D03*
X38000D03*
X39000D03*
X40000D03*
X34000Y39000D03*
Y40000D03*
X35000Y39000D03*
Y40000D03*
X36000D03*
Y39000D03*
X37000D03*
X38000D03*
X39000D03*
X40000D03*
X37000Y40000D03*
X38000D03*
X39000D03*
X40000D03*
X33000Y41000D03*
Y40000D03*
Y39000D03*
Y38000D03*
X35000Y41000D03*
X31000D03*
X32000D03*
X36000D03*
X37000D03*
X38000D03*
X39000D03*
X40000D03*
X30000Y40000D03*
Y41000D03*
X31000Y40000D03*
X32000Y39000D03*
Y40000D03*
X33000Y34000D03*
X32000D03*
X31000D03*
X33000Y33000D03*
X34000D03*
X35000D03*
X31000D03*
X33000Y32000D03*
X31000D03*
X34000D03*
X35000D03*
X34000Y34000D03*
X35000D03*
X36000D03*
X34000Y31000D03*
X35000D03*
X36000D03*
X37000D03*
X38000D03*
X39000D03*
X40000D03*
X41000D03*
X31000D03*
X37000Y34000D03*
X38000D03*
X39000D03*
X40000D03*
X41000D03*
X33000Y24000D03*
X34000D03*
X35000D03*
X36000D03*
X31000D03*
X30000D03*
X32000D03*
X36000Y23000D03*
X35000D03*
X37000D03*
X36000Y22000D03*
X37000D03*
X36000Y21000D03*
X34000Y23000D03*
Y22000D03*
X35000D03*
X33000Y21000D03*
X34000D03*
X35000Y20000D03*
X36000Y19000D03*
X34000D03*
X31000D03*
X30000D03*
X32000D03*
X33000D03*
X31000Y18000D03*
X30000D03*
Y17000D03*
X32000Y18000D03*
Y17000D03*
X31000D03*
X37000Y21000D03*
Y20000D03*
Y19000D03*
X35000D03*
Y18000D03*
Y17000D03*
G54D20*Y14500D03*
G54D19*X36000Y18000D03*
Y17000D03*
G54D20*Y14500D03*
G54D19*X33000Y18000D03*
Y17000D03*
G54D20*Y14500D03*
G54D19*X34000Y18000D03*
Y17000D03*
G54D20*Y14500D03*
G54D19*X37000Y18000D03*
Y17000D03*
X26000Y24000D03*
X23000D03*
X25000D03*
X24000D03*
X28000D03*
X29000D03*
X31000Y23000D03*
X30000D03*
X32000D03*
X33000D03*
X29000D03*
X26000D03*
X23000D03*
X25000D03*
X24000D03*
X27000D03*
X28000D03*
X31000Y22000D03*
X30000D03*
X32000D03*
X33000D03*
X26000D03*
X25000D03*
X24000D03*
X27000D03*
X28000D03*
X29000D03*
X23000D03*
X31000Y21000D03*
X30000D03*
X32000D03*
X26000D03*
X23000D03*
X25000D03*
X24000D03*
X27000D03*
X28000D03*
X29000D03*
X35000D03*
X36000Y20000D03*
X34000D03*
X31000D03*
X30000D03*
X32000D03*
X33000D03*
X29000D03*
X36000Y26000D03*
X35000D03*
X31000D03*
X30000D03*
Y25000D03*
X32000Y26000D03*
X33000D03*
X34000D03*
X36000Y25000D03*
X35000D03*
X31000D03*
X32000D03*
X33000D03*
X34000D03*
X27000Y24000D03*
X23000Y27000D03*
X25000D03*
X24000D03*
X26000D03*
X27000D03*
X26000Y26000D03*
X27000D03*
X26000Y25000D03*
X27000D03*
X28000Y27000D03*
X29000D03*
X28000Y26000D03*
X29000D03*
X28000Y25000D03*
X29000D03*
X23000Y26000D03*
X24000D03*
X23000Y25000D03*
X24000D03*
X25000Y26000D03*
Y25000D03*
X26000Y20000D03*
X23000D03*
X25000D03*
X24000D03*
X23000Y19000D03*
X24000D03*
X23000Y18000D03*
X24000D03*
X25000Y19000D03*
Y18000D03*
X27000Y20000D03*
X26000Y19000D03*
X27000D03*
X28000Y20000D03*
Y19000D03*
Y18000D03*
X29000Y19000D03*
Y18000D03*
X26000D03*
X27000D03*
X26000Y17000D03*
X27000D03*
X29000D03*
X23000D03*
G54D20*Y14500D03*
G54D19*X25000Y17000D03*
G54D20*Y14500D03*
X26000D03*
G54D19*X24000Y17000D03*
G54D20*Y14500D03*
X27000D03*
X28000D03*
X29000D03*
X30000D03*
G54D19*X28000Y17000D03*
X28500Y11500D03*
X28000Y10500D03*
X26500Y11500D03*
X26000Y10500D03*
X27000D03*
X25000D03*
X25500Y11500D03*
X27500D03*
G54D15*X24500Y8000D03*
X29000D03*
G54D19*X40000Y23000D03*
Y22000D03*
Y21000D03*
Y25000D03*
X37000Y24000D03*
X38000D03*
X39000D03*
X41000D03*
X40000D03*
X41000Y23000D03*
X40000Y26000D03*
X39000D03*
Y25000D03*
X41000Y26000D03*
Y25000D03*
X37000Y26000D03*
Y25000D03*
X38000Y26000D03*
Y25000D03*
Y23000D03*
Y22000D03*
Y21000D03*
Y20000D03*
Y19000D03*
Y18000D03*
X39000Y23000D03*
Y22000D03*
Y21000D03*
Y20000D03*
Y19000D03*
Y18000D03*
X41000Y22000D03*
Y21000D03*
Y20000D03*
Y19000D03*
Y18000D03*
Y17000D03*
X40000Y20000D03*
Y19000D03*
Y18000D03*
Y17000D03*
X38000D03*
X39000D03*
G54D15*X42600Y17200D03*
G54D20*X37000Y14500D03*
X38000D03*
X39000D03*
X40000D03*
G54D19*X38500Y11500D03*
X37500D03*
X38000Y10500D03*
G54D15*X39000Y8000D03*
G54D19*X36500Y11500D03*
X35500D03*
X36000Y10500D03*
X37000D03*
X35000D03*
G54D15*X34500Y8000D03*
X1200Y44400D03*
G54D19*X3000Y38000D03*
Y39000D03*
Y40000D03*
Y41000D03*
Y42000D03*
Y43000D03*
Y44000D03*
Y45000D03*
X12000Y41000D03*
Y40000D03*
Y39000D03*
Y38000D03*
X11000D03*
Y39000D03*
X10000D03*
Y38000D03*
X9000D03*
Y39000D03*
Y40000D03*
Y41000D03*
Y43000D03*
Y44000D03*
Y45000D03*
X11000Y40000D03*
Y41000D03*
Y43000D03*
Y44000D03*
Y45000D03*
X10000Y40000D03*
Y41000D03*
Y43000D03*
Y44000D03*
Y45000D03*
X6000Y38000D03*
X5000D03*
X4000D03*
X7000D03*
X8000D03*
X7000Y39000D03*
X8000D03*
X6000D03*
X5000D03*
X4000D03*
X6000Y40000D03*
X5000D03*
X4000D03*
X7000D03*
X5000Y41000D03*
X4000D03*
X5000Y42000D03*
X4000D03*
X8000Y40000D03*
Y41000D03*
X6000D03*
X7000D03*
X6000Y42000D03*
X7000D03*
X8000D03*
X9000D03*
X6000Y43000D03*
X5000D03*
X4000D03*
X7000D03*
X5000Y44000D03*
X8000Y43000D03*
Y44000D03*
X6000D03*
X7000D03*
X6000Y45000D03*
X7000D03*
X8000D03*
X4000Y44000D03*
X5000Y45000D03*
X4000D03*
X18000Y38000D03*
Y39000D03*
X19000D03*
X20000D03*
X18000Y40000D03*
X19000D03*
X20000D03*
X19000Y38000D03*
X20000D03*
X18000Y36000D03*
X19000D03*
X20000D03*
X18000Y37000D03*
X19000D03*
X20000D03*
X15000Y38000D03*
X17000D03*
X16000D03*
X15000Y39000D03*
Y40000D03*
Y41000D03*
Y36000D03*
Y37000D03*
X17000Y39000D03*
Y40000D03*
Y41000D03*
Y36000D03*
Y37000D03*
X16000Y39000D03*
Y40000D03*
Y36000D03*
Y37000D03*
X13000Y42500D03*
Y41500D03*
Y40500D03*
Y39500D03*
Y38500D03*
Y37500D03*
Y36000D03*
Y35000D03*
Y34000D03*
Y33000D03*
Y31000D03*
Y30000D03*
Y29000D03*
Y32000D03*
X14000Y36000D03*
Y35000D03*
Y34000D03*
Y33000D03*
Y32000D03*
Y31000D03*
Y30000D03*
Y29000D03*
Y40000D03*
Y39000D03*
Y38000D03*
X16000Y41000D03*
Y42000D03*
Y43000D03*
X13000Y44500D03*
Y43500D03*
X14000Y45000D03*
Y44000D03*
Y43000D03*
Y42000D03*
Y41000D03*
X18000D03*
X19000D03*
X20000D03*
X18000Y42000D03*
X19000D03*
X20000D03*
X18000Y43000D03*
Y44000D03*
Y45000D03*
X19000Y43000D03*
Y44000D03*
Y45000D03*
X20000Y43000D03*
Y44000D03*
Y45000D03*
X15000Y42000D03*
Y43000D03*
Y44000D03*
Y45000D03*
Y46000D03*
Y47000D03*
X17000Y42000D03*
Y43000D03*
Y44000D03*
Y45000D03*
Y46000D03*
Y47000D03*
X16000Y44000D03*
Y45000D03*
Y46000D03*
Y47000D03*
X18000Y46000D03*
Y47000D03*
Y48000D03*
Y49000D03*
X19000Y46000D03*
Y47000D03*
Y48000D03*
Y49000D03*
X20000Y46000D03*
Y47000D03*
Y48000D03*
Y49000D03*
X18000Y50000D03*
Y51000D03*
Y52000D03*
Y53000D03*
Y54000D03*
X19000Y50000D03*
Y51000D03*
Y52000D03*
Y53000D03*
Y54000D03*
X20000Y50000D03*
Y51000D03*
Y52000D03*
Y53000D03*
Y54000D03*
X15000Y48000D03*
Y49000D03*
Y50000D03*
X17000Y48000D03*
Y49000D03*
Y50000D03*
Y51000D03*
Y52000D03*
Y53000D03*
X16000Y48000D03*
Y49000D03*
Y50000D03*
Y51000D03*
Y52000D03*
Y53000D03*
X15000Y51000D03*
Y52000D03*
Y53000D03*
Y54000D03*
X17000D03*
X16000D03*
X12000Y36000D03*
Y35000D03*
Y34000D03*
Y33000D03*
Y32000D03*
Y31000D03*
Y30000D03*
X9000D03*
Y31000D03*
Y32000D03*
Y33000D03*
Y34000D03*
Y35000D03*
X11000Y31000D03*
Y32000D03*
Y33000D03*
Y34000D03*
Y35000D03*
Y36000D03*
X10000Y33000D03*
Y34000D03*
Y35000D03*
Y36000D03*
X9000D03*
Y37000D03*
X11000D03*
X10000D03*
X12000Y29000D03*
X11000D03*
X10000D03*
X9000Y26000D03*
X11000Y30000D03*
X10000D03*
Y31000D03*
Y32000D03*
X3000Y27000D03*
X5000D03*
X4000D03*
X3000Y26000D03*
X5000D03*
X4000D03*
X3000Y29000D03*
X7000Y27000D03*
X8000D03*
X9000D03*
X6000D03*
Y26000D03*
X7000D03*
X8000D03*
X7000Y29000D03*
X8000D03*
X9000D03*
X6000D03*
X5000D03*
X4000D03*
X6000Y30000D03*
X5000D03*
X4000D03*
X3000D03*
Y31000D03*
Y32000D03*
X6000Y31000D03*
X5000D03*
X4000D03*
X7000Y30000D03*
X8000D03*
Y31000D03*
Y32000D03*
Y33000D03*
Y34000D03*
X7000Y31000D03*
Y32000D03*
Y33000D03*
X6000Y34000D03*
X7000D03*
X6000Y35000D03*
X7000D03*
X8000D03*
Y36000D03*
Y37000D03*
X6000Y36000D03*
X7000D03*
X6000Y37000D03*
X7000D03*
X6000Y32000D03*
X5000D03*
X4000D03*
X6000Y33000D03*
X5000D03*
X4000D03*
X3000D03*
Y35000D03*
Y36000D03*
Y34000D03*
X4000D03*
X5000D03*
Y35000D03*
X4000D03*
X5000Y36000D03*
X4000D03*
X3000Y37000D03*
X4000D03*
X5000D03*
X4000Y48000D03*
X5000Y47000D03*
X4000D03*
X5000Y48000D03*
X3000Y49000D03*
X4000D03*
X3000Y50000D03*
X4000D03*
X3000Y51000D03*
Y46000D03*
X5000D03*
X4000D03*
X3000Y47000D03*
Y48000D03*
X11000Y49000D03*
Y50000D03*
X10000D03*
Y49000D03*
X9000D03*
X11000Y48000D03*
X10000D03*
X9000D03*
X8000D03*
X12000Y45000D03*
Y44000D03*
Y43000D03*
Y42000D03*
X11000D03*
X10000D03*
X11000Y46000D03*
Y47000D03*
X10000D03*
X9000D03*
X10000Y46000D03*
X9000D03*
X6000Y49000D03*
X5000D03*
Y50000D03*
X7000Y49000D03*
X8000D03*
X6000Y50000D03*
X7000D03*
X8000D03*
X6000Y46000D03*
X7000D03*
X8000D03*
X6000Y47000D03*
Y48000D03*
X7000D03*
Y47000D03*
X8000D03*
X4000Y51000D03*
X6000D03*
X7000D03*
X5000D03*
X6000Y52000D03*
X7000D03*
X5000D03*
X3000D03*
Y53000D03*
Y54000D03*
X4000Y52000D03*
Y53000D03*
Y54000D03*
X6000Y53000D03*
X5000D03*
X6000Y54000D03*
X5000D03*
X7000Y53000D03*
Y54000D03*
X9000Y50000D03*
X10000Y51000D03*
X8000D03*
X9000D03*
X8000Y52000D03*
X9000D03*
X11000Y51000D03*
Y52000D03*
X10000D03*
X11000Y53000D03*
X10000D03*
X8000D03*
Y54000D03*
X9000Y53000D03*
Y54000D03*
X11000D03*
X10000D03*
X28000Y51000D03*
X27000D03*
X30000D03*
X29000D03*
X30000Y45000D03*
Y48000D03*
Y46000D03*
Y49000D03*
Y47000D03*
Y50000D03*
X27000Y48000D03*
Y45000D03*
Y46000D03*
Y47000D03*
X29000Y49000D03*
Y50000D03*
Y45000D03*
Y46000D03*
Y47000D03*
Y48000D03*
X28000Y49000D03*
Y50000D03*
Y45000D03*
Y46000D03*
Y47000D03*
Y48000D03*
X27000Y49000D03*
Y50000D03*
X38000Y51000D03*
X39000D03*
Y50000D03*
Y48000D03*
Y49000D03*
X40000Y51000D03*
Y50000D03*
Y48000D03*
Y49000D03*
X38000Y50000D03*
Y48000D03*
Y49000D03*
X34000Y51000D03*
X35000D03*
X34000Y50000D03*
X35000D03*
X34000Y48000D03*
X35000D03*
X34000Y49000D03*
X35000D03*
X36000Y50000D03*
X37000D03*
X36000Y48000D03*
X37000D03*
X36000Y49000D03*
X37000D03*
X36000Y51000D03*
X37000D03*
X34000Y54000D03*
Y53000D03*
X35000D03*
Y54000D03*
X36000D03*
X37000D03*
X38000D03*
X39000D03*
X40000D03*
X36000Y53000D03*
X37000D03*
X38000D03*
X39000D03*
X40000D03*
Y52000D03*
X34000D03*
X35000D03*
X36000D03*
X37000D03*
X38000D03*
X39000D03*
X34000Y41000D03*
X30000Y42000D03*
X29000D03*
X28000D03*
X30000Y43000D03*
X29000D03*
X28000D03*
X30000Y44000D03*
X29000D03*
X28000D03*
X29000Y41000D03*
X28000D03*
X30000Y38000D03*
Y39000D03*
X31000D03*
Y38000D03*
X30000Y36000D03*
Y37000D03*
X29000Y36000D03*
Y37000D03*
X28000Y36000D03*
Y37000D03*
X29000Y38000D03*
X28000D03*
Y39000D03*
Y40000D03*
X29000Y39000D03*
Y40000D03*
X34000Y29000D03*
X35000D03*
X36000D03*
X37000D03*
X38000D03*
X39000D03*
X40000D03*
X41000D03*
X35000Y30000D03*
X36000D03*
X37000D03*
X38000D03*
X39000D03*
X40000D03*
X41000D03*
X40000Y27000D03*
X35000D03*
X37000D03*
X38000D03*
X39000D03*
X41000D03*
X36000Y32000D03*
X37000D03*
X38000D03*
X39000D03*
X40000D03*
X32000D03*
X36000Y33000D03*
X37000D03*
X38000D03*
X39000D03*
X32000D03*
X40000D03*
G54D15*X22250Y32250D03*
G54D19*X41000Y32000D03*
Y33000D03*
X36000Y27000D03*
X31000D03*
X30000D03*
X32000D03*
X33000D03*
X34000D03*
X33000Y31000D03*
Y30000D03*
X34000D03*
X33000Y29000D03*
X32000D03*
Y30000D03*
Y31000D03*
X31000Y30000D03*
Y29000D03*
X23000Y36000D03*
X22000D03*
X21000D03*
X23000Y38000D03*
X22000D03*
X21000D03*
X23000Y39000D03*
X22000D03*
X21000D03*
X23000Y40000D03*
Y37000D03*
X22000Y40000D03*
Y41000D03*
Y37000D03*
X21000Y40000D03*
Y41000D03*
Y37000D03*
X26000Y36000D03*
X27000D03*
X26000Y38000D03*
Y37000D03*
X27000Y38000D03*
Y37000D03*
X25000Y36000D03*
Y38000D03*
Y39000D03*
Y40000D03*
Y41000D03*
Y37000D03*
X24000Y36000D03*
Y38000D03*
Y39000D03*
Y40000D03*
Y41000D03*
Y37000D03*
X27000Y39000D03*
Y40000D03*
Y41000D03*
Y42000D03*
Y43000D03*
Y44000D03*
X26000Y39000D03*
Y40000D03*
Y41000D03*
X25000Y42000D03*
Y43000D03*
Y44000D03*
X24000Y42000D03*
Y43000D03*
Y44000D03*
X26000Y42000D03*
Y43000D03*
Y44000D03*
X22000Y42000D03*
Y43000D03*
Y44000D03*
Y45000D03*
X21000Y42000D03*
Y43000D03*
Y44000D03*
Y45000D03*
X23000Y41000D03*
Y42000D03*
Y43000D03*
Y44000D03*
Y45000D03*
X25000D03*
Y46000D03*
Y47000D03*
X24000Y45000D03*
Y46000D03*
Y47000D03*
X26000Y45000D03*
Y46000D03*
Y47000D03*
Y48000D03*
Y49000D03*
Y50000D03*
Y51000D03*
Y52000D03*
Y53000D03*
Y54000D03*
X28000D03*
X27000D03*
X29000D03*
X30000D03*
Y53000D03*
X27000Y52000D03*
X30000D03*
X29000D03*
X28000D03*
X29000Y53000D03*
X28000D03*
X27000D03*
X23000Y46000D03*
Y47000D03*
Y48000D03*
X22000Y46000D03*
Y47000D03*
Y48000D03*
Y49000D03*
Y50000D03*
Y51000D03*
X21000Y46000D03*
Y47000D03*
Y48000D03*
Y49000D03*
Y50000D03*
Y51000D03*
X23000Y49000D03*
Y50000D03*
Y51000D03*
Y52000D03*
Y53000D03*
Y54000D03*
X22000Y52000D03*
Y53000D03*
Y54000D03*
X21000Y52000D03*
Y53000D03*
Y54000D03*
X25000Y48000D03*
Y49000D03*
Y50000D03*
Y51000D03*
X24000Y48000D03*
Y49000D03*
Y50000D03*
X25000Y52000D03*
Y53000D03*
Y54000D03*
X24000Y51000D03*
Y52000D03*
Y53000D03*
Y54000D03*
X35500Y13000D03*
X25500D03*
X15500D03*
X5500D03*
X40500D03*
M02*
