M48
INCH,TZ
T15C0.128
T19C0.035
T20C0.038
%
T19
X003000Y018000
X004000Y018000
X003000Y017000
X004000Y017000
X005000Y017000
X003000Y020000
X003000Y019000
X005000Y020000
X005000Y019000
X004000Y020000
X004000Y019000
X011000Y024000
X011000Y023000
X010000Y024000
X010000Y023000
X008000Y024000
X008000Y023000
X008000Y022000
X008000Y025000
X009000Y024000
X009000Y023000
X009000Y022000
X009000Y025000
X011000Y022000
X011000Y021000
X011000Y020000
X010000Y022000
X010000Y021000
X010000Y020000
X006000Y024000
X005000Y024000
X005000Y023000
X006000Y025000
X005000Y025000
X007000Y024000
X006000Y023000
X007000Y023000
X007000Y025000
X003000Y024000
X004000Y024000
X003000Y023000
X004000Y023000
X003000Y025000
X004000Y025000
X006000Y022000
X005000Y022000
X004000Y022000
X007000Y022000
X003000Y022000
X003000Y021000
X004000Y021000
X017000Y018000
X018000Y018000
X019000Y018000
X016000Y018000
X020000Y017000
X020000Y019000
X020000Y018000
X020000Y021000
X020000Y020000
X016000Y017000
X017000Y017000
X018000Y017000
X019000Y017000
X017000Y019000
X016000Y021000
X017000Y021000
X018000Y021000
X019000Y021000
X016000Y020000
X018000Y019000
X019000Y019000
X014000Y020000
X015000Y020000
X017000Y020000
X018000Y020000
X019000Y020000
X016000Y019000
X012000Y019000
X013000Y019000
X014000Y019000
X015000Y019000
X012000Y018000
X012000Y021000
X012000Y020000
X013000Y018000
X013000Y021000
X014000Y021000
X015000Y021000
X013000Y020000
X012000Y017000
X013000Y017000
X014000Y017000
X014000Y018000
X015000Y018000
X015000Y017000
X018500Y011500
X018000Y010500
X016500Y011500
X016000Y010500
X017000Y010500
X015000Y010500
X015500Y011500
X017500Y011500
X020000Y024000
X017000Y024000
X018000Y024000
X019000Y024000
X020000Y023000
X019000Y023000
X020000Y022000
X019000Y022000
X016000Y023000
X017000Y023000
X018000Y023000
X017000Y022000
X018000Y022000
X020000Y025000
X016000Y025000
X017000Y025000
X018000Y025000
X019000Y025000
X016000Y024000
X012000Y024000
X013000Y024000
X014000Y024000
X015000Y024000
X012000Y023000
X012000Y022000
X013000Y022000
X013000Y023000
X014000Y023000
X015000Y023000
X016000Y022000
X014000Y022000
X015000Y022000
X020000Y027000
X018000Y027000
X019000Y027000
X020000Y026000
X018000Y026000
X019000Y026000
X016000Y027000
X017000Y027000
X016000Y026000
X017000Y026000
X011000Y027000
X012000Y027000
X013000Y027000
X014000Y027000
X015000Y027000
X010000Y027000
X011000Y026000
X010000Y026000
X012000Y026000
X013000Y026000
X014000Y026000
X015000Y026000
X011000Y025000
X010000Y025000
X012000Y025000
X013000Y025000
X014000Y025000
X015000Y025000
X008000Y018000
X008000Y017000
X009000Y018000
X009000Y017000
X008000Y019000
X009000Y019000
X011000Y017000
X010000Y017000
X011000Y019000
X010000Y019000
X011000Y018000
X010000Y018000
X006000Y018000
X005000Y018000
X006000Y017000
X007000Y017000
X006000Y020000
X007000Y020000
X008000Y020000
X009000Y020000
X007000Y018000
X006000Y019000
X007000Y019000
X006000Y021000
X005000Y021000
X007000Y021000
X008000Y021000
X009000Y021000
X008500Y011500
X008000Y010500
X006500Y011500
X006000Y010500
X007000Y010500
X007500Y011500
X005000Y010500
X005500Y011500
X041000Y035000
X041000Y036000
X041000Y037000
X041000Y038000
X033000Y037000
X033000Y036000
X031000Y037000
X031000Y036000
X032000Y036000
X032000Y037000
X034000Y036000
X034000Y037000
X034000Y038000
X032000Y038000
X034000Y035000
X035000Y035000
X036000Y035000
X037000Y035000
X038000Y035000
X039000Y035000
X040000Y035000
X035000Y036000
X035000Y037000
X035000Y038000
X036000Y036000
X036000Y037000
X037000Y037000
X038000Y037000
X039000Y037000
X040000Y037000
X037000Y036000
X038000Y036000
X039000Y036000
X040000Y036000
X036000Y038000
X037000Y038000
X038000Y038000
X039000Y038000
X040000Y038000
X034000Y039000
X034000Y040000
X035000Y039000
X035000Y040000
X036000Y040000
X036000Y039000
X037000Y039000
X038000Y039000
X039000Y039000
X040000Y039000
X037000Y040000
X038000Y040000
X039000Y040000
X040000Y040000
X033000Y041000
X033000Y040000
X033000Y039000
X033000Y038000
X035000Y041000
X031000Y041000
X032000Y041000
X036000Y041000
X037000Y041000
X038000Y041000
X039000Y041000
X040000Y041000
X030000Y040000
X030000Y041000
X031000Y040000
X032000Y039000
X032000Y040000
X033000Y034000
X032000Y034000
X031000Y034000
X033000Y033000
X034000Y033000
X035000Y033000
X031000Y033000
X033000Y032000
X031000Y032000
X034000Y032000
X035000Y032000
X034000Y034000
X035000Y034000
X036000Y034000
X034000Y031000
X035000Y031000
X036000Y031000
X037000Y031000
X038000Y031000
X039000Y031000
X040000Y031000
X041000Y031000
X031000Y031000
X037000Y034000
X038000Y034000
X039000Y034000
X040000Y034000
X041000Y034000
X033000Y024000
X034000Y024000
X035000Y024000
X036000Y024000
X031000Y024000
X030000Y024000
X032000Y024000
X036000Y023000
X035000Y023000
X037000Y023000
X036000Y022000
X037000Y022000
X036000Y021000
X034000Y023000
X034000Y022000
X035000Y022000
X033000Y021000
X034000Y021000
X035000Y020000
X036000Y019000
X034000Y019000
X031000Y019000
X030000Y019000
X032000Y019000
X033000Y019000
X031000Y018000
X030000Y018000
X030000Y017000
X032000Y018000
X032000Y017000
X031000Y017000
X037000Y021000
X037000Y020000
X037000Y019000
X035000Y019000
X035000Y018000
X035000Y017000
X036000Y018000
X036000Y017000
X033000Y018000
X033000Y017000
X034000Y018000
X034000Y017000
X037000Y018000
X037000Y017000
X026000Y024000
X023000Y024000
X025000Y024000
X024000Y024000
X028000Y024000
X029000Y024000
X031000Y023000
X030000Y023000
X032000Y023000
X033000Y023000
X029000Y023000
X026000Y023000
X023000Y023000
X025000Y023000
X024000Y023000
X027000Y023000
X028000Y023000
X031000Y022000
X030000Y022000
X032000Y022000
X033000Y022000
X026000Y022000
X025000Y022000
X024000Y022000
X027000Y022000
X028000Y022000
X029000Y022000
X023000Y022000
X031000Y021000
X030000Y021000
X032000Y021000
X026000Y021000
X023000Y021000
X025000Y021000
X024000Y021000
X027000Y021000
X028000Y021000
X029000Y021000
X035000Y021000
X036000Y020000
X034000Y020000
X031000Y020000
X030000Y020000
X032000Y020000
X033000Y020000
X029000Y020000
X036000Y026000
X035000Y026000
X031000Y026000
X030000Y026000
X030000Y025000
X032000Y026000
X033000Y026000
X034000Y026000
X036000Y025000
X035000Y025000
X031000Y025000
X032000Y025000
X033000Y025000
X034000Y025000
X027000Y024000
X023000Y027000
X025000Y027000
X024000Y027000
X026000Y027000
X027000Y027000
X026000Y026000
X027000Y026000
X026000Y025000
X027000Y025000
X028000Y027000
X029000Y027000
X028000Y026000
X029000Y026000
X028000Y025000
X029000Y025000
X023000Y026000
X024000Y026000
X023000Y025000
X024000Y025000
X025000Y026000
X025000Y025000
X026000Y020000
X023000Y020000
X025000Y020000
X024000Y020000
X023000Y019000
X024000Y019000
X023000Y018000
X024000Y018000
X025000Y019000
X025000Y018000
X027000Y020000
X026000Y019000
X027000Y019000
X028000Y020000
X028000Y019000
X028000Y018000
X029000Y019000
X029000Y018000
X026000Y018000
X027000Y018000
X026000Y017000
X027000Y017000
X029000Y017000
X023000Y017000
X025000Y017000
X024000Y017000
X028000Y017000
X028500Y011500
X028000Y010500
X026500Y011500
X026000Y010500
X027000Y010500
X025000Y010500
X025500Y011500
X027500Y011500
X040000Y023000
X040000Y022000
X040000Y021000
X040000Y025000
X037000Y024000
X038000Y024000
X039000Y024000
X041000Y024000
X040000Y024000
X041000Y023000
X040000Y026000
X039000Y026000
X039000Y025000
X041000Y026000
X041000Y025000
X037000Y026000
X037000Y025000
X038000Y026000
X038000Y025000
X038000Y023000
X038000Y022000
X038000Y021000
X038000Y020000
X038000Y019000
X038000Y018000
X039000Y023000
X039000Y022000
X039000Y021000
X039000Y020000
X039000Y019000
X039000Y018000
X041000Y022000
X041000Y021000
X041000Y020000
X041000Y019000
X041000Y018000
X041000Y017000
X040000Y020000
X040000Y019000
X040000Y018000
X040000Y017000
X038000Y017000
X039000Y017000
X038500Y011500
X037500Y011500
X038000Y010500
X036500Y011500
X035500Y011500
X036000Y010500
X037000Y010500
X035000Y010500
X003000Y038000
X003000Y039000
X003000Y040000
X003000Y041000
X003000Y042000
X003000Y043000
X003000Y044000
X003000Y045000
X012000Y041000
X012000Y040000
X012000Y039000
X012000Y038000
X011000Y038000
X011000Y039000
X010000Y039000
X010000Y038000
X009000Y038000
X009000Y039000
X009000Y040000
X009000Y041000
X009000Y043000
X009000Y044000
X009000Y045000
X011000Y040000
X011000Y041000
X011000Y043000
X011000Y044000
X011000Y045000
X010000Y040000
X010000Y041000
X010000Y043000
X010000Y044000
X010000Y045000
X006000Y038000
X005000Y038000
X004000Y038000
X007000Y038000
X008000Y038000
X007000Y039000
X008000Y039000
X006000Y039000
X005000Y039000
X004000Y039000
X006000Y040000
X005000Y040000
X004000Y040000
X007000Y040000
X005000Y041000
X004000Y041000
X005000Y042000
X004000Y042000
X008000Y040000
X008000Y041000
X006000Y041000
X007000Y041000
X006000Y042000
X007000Y042000
X008000Y042000
X009000Y042000
X006000Y043000
X005000Y043000
X004000Y043000
X007000Y043000
X005000Y044000
X008000Y043000
X008000Y044000
X006000Y044000
X007000Y044000
X006000Y045000
X007000Y045000
X008000Y045000
X004000Y044000
X005000Y045000
X004000Y045000
X018000Y038000
X018000Y039000
X019000Y039000
X020000Y039000
X018000Y040000
X019000Y040000
X020000Y040000
X019000Y038000
X020000Y038000
X018000Y036000
X019000Y036000
X020000Y036000
X018000Y037000
X019000Y037000
X020000Y037000
X015000Y038000
X017000Y038000
X016000Y038000
X015000Y039000
X015000Y040000
X015000Y041000
X015000Y036000
X015000Y037000
X017000Y039000
X017000Y040000
X017000Y041000
X017000Y036000
X017000Y037000
X016000Y039000
X016000Y040000
X016000Y036000
X016000Y037000
X013000Y042500
X013000Y041500
X013000Y040500
X013000Y039500
X013000Y038500
X013000Y037500
X013000Y036000
X013000Y035000
X013000Y034000
X013000Y033000
X013000Y031000
X013000Y030000
X013000Y029000
X013000Y032000
X014000Y036000
X014000Y035000
X014000Y034000
X014000Y033000
X014000Y032000
X014000Y031000
X014000Y030000
X014000Y029000
X014000Y040000
X014000Y039000
X014000Y038000
X016000Y041000
X016000Y042000
X016000Y043000
X013000Y044500
X013000Y043500
X014000Y045000
X014000Y044000
X014000Y043000
X014000Y042000
X014000Y041000
X018000Y041000
X019000Y041000
X020000Y041000
X018000Y042000
X019000Y042000
X020000Y042000
X018000Y043000
X018000Y044000
X018000Y045000
X019000Y043000
X019000Y044000
X019000Y045000
X020000Y043000
X020000Y044000
X020000Y045000
X015000Y042000
X015000Y043000
X015000Y044000
X015000Y045000
X015000Y046000
X015000Y047000
X017000Y042000
X017000Y043000
X017000Y044000
X017000Y045000
X017000Y046000
X017000Y047000
X016000Y044000
X016000Y045000
X016000Y046000
X016000Y047000
X018000Y046000
X018000Y047000
X018000Y048000
X018000Y049000
X019000Y046000
X019000Y047000
X019000Y048000
X019000Y049000
X020000Y046000
X020000Y047000
X020000Y048000
X020000Y049000
X018000Y050000
X018000Y051000
X018000Y052000
X018000Y053000
X018000Y054000
X019000Y050000
X019000Y051000
X019000Y052000
X019000Y053000
X019000Y054000
X020000Y050000
X020000Y051000
X020000Y052000
X020000Y053000
X020000Y054000
X015000Y048000
X015000Y049000
X015000Y050000
X017000Y048000
X017000Y049000
X017000Y050000
X017000Y051000
X017000Y052000
X017000Y053000
X016000Y048000
X016000Y049000
X016000Y050000
X016000Y051000
X016000Y052000
X016000Y053000
X015000Y051000
X015000Y052000
X015000Y053000
X015000Y054000
X017000Y054000
X016000Y054000
X012000Y036000
X012000Y035000
X012000Y034000
X012000Y033000
X012000Y032000
X012000Y031000
X012000Y030000
X009000Y030000
X009000Y031000
X009000Y032000
X009000Y033000
X009000Y034000
X009000Y035000
X011000Y031000
X011000Y032000
X011000Y033000
X011000Y034000
X011000Y035000
X011000Y036000
X010000Y033000
X010000Y034000
X010000Y035000
X010000Y036000
X009000Y036000
X009000Y037000
X011000Y037000
X010000Y037000
X012000Y029000
X011000Y029000
X010000Y029000
X009000Y026000
X011000Y030000
X010000Y030000
X010000Y031000
X010000Y032000
X003000Y027000
X005000Y027000
X004000Y027000
X003000Y026000
X005000Y026000
X004000Y026000
X003000Y029000
X007000Y027000
X008000Y027000
X009000Y027000
X006000Y027000
X006000Y026000
X007000Y026000
X008000Y026000
X007000Y029000
X008000Y029000
X009000Y029000
X006000Y029000
X005000Y029000
X004000Y029000
X006000Y030000
X005000Y030000
X004000Y030000
X003000Y030000
X003000Y031000
X003000Y032000
X006000Y031000
X005000Y031000
X004000Y031000
X007000Y030000
X008000Y030000
X008000Y031000
X008000Y032000
X008000Y033000
X008000Y034000
X007000Y031000
X007000Y032000
X007000Y033000
X006000Y034000
X007000Y034000
X006000Y035000
X007000Y035000
X008000Y035000
X008000Y036000
X008000Y037000
X006000Y036000
X007000Y036000
X006000Y037000
X007000Y037000
X006000Y032000
X005000Y032000
X004000Y032000
X006000Y033000
X005000Y033000
X004000Y033000
X003000Y033000
X003000Y035000
X003000Y036000
X003000Y034000
X004000Y034000
X005000Y034000
X005000Y035000
X004000Y035000
X005000Y036000
X004000Y036000
X003000Y037000
X004000Y037000
X005000Y037000
X004000Y048000
X005000Y047000
X004000Y047000
X005000Y048000
X003000Y049000
X004000Y049000
X003000Y050000
X004000Y050000
X003000Y051000
X003000Y046000
X005000Y046000
X004000Y046000
X003000Y047000
X003000Y048000
X011000Y049000
X011000Y050000
X010000Y050000
X010000Y049000
X009000Y049000
X011000Y048000
X010000Y048000
X009000Y048000
X008000Y048000
X012000Y045000
X012000Y044000
X012000Y043000
X012000Y042000
X011000Y042000
X010000Y042000
X011000Y046000
X011000Y047000
X010000Y047000
X009000Y047000
X010000Y046000
X009000Y046000
X006000Y049000
X005000Y049000
X005000Y050000
X007000Y049000
X008000Y049000
X006000Y050000
X007000Y050000
X008000Y050000
X006000Y046000
X007000Y046000
X008000Y046000
X006000Y047000
X006000Y048000
X007000Y048000
X007000Y047000
X008000Y047000
X004000Y051000
X006000Y051000
X007000Y051000
X005000Y051000
X006000Y052000
X007000Y052000
X005000Y052000
X003000Y052000
X003000Y053000
X003000Y054000
X004000Y052000
X004000Y053000
X004000Y054000
X006000Y053000
X005000Y053000
X006000Y054000
X005000Y054000
X007000Y053000
X007000Y054000
X009000Y050000
X010000Y051000
X008000Y051000
X009000Y051000
X008000Y052000
X009000Y052000
X011000Y051000
X011000Y052000
X010000Y052000
X011000Y053000
X010000Y053000
X008000Y053000
X008000Y054000
X009000Y053000
X009000Y054000
X011000Y054000
X010000Y054000
X028000Y051000
X027000Y051000
X030000Y051000
X029000Y051000
X030000Y045000
X030000Y048000
X030000Y046000
X030000Y049000
X030000Y047000
X030000Y050000
X027000Y048000
X027000Y045000
X027000Y046000
X027000Y047000
X029000Y049000
X029000Y050000
X029000Y045000
X029000Y046000
X029000Y047000
X029000Y048000
X028000Y049000
X028000Y050000
X028000Y045000
X028000Y046000
X028000Y047000
X028000Y048000
X027000Y049000
X027000Y050000
X038000Y051000
X039000Y051000
X039000Y050000
X039000Y048000
X039000Y049000
X040000Y051000
X040000Y050000
X040000Y048000
X040000Y049000
X038000Y050000
X038000Y048000
X038000Y049000
X034000Y051000
X035000Y051000
X034000Y050000
X035000Y050000
X034000Y048000
X035000Y048000
X034000Y049000
X035000Y049000
X036000Y050000
X037000Y050000
X036000Y048000
X037000Y048000
X036000Y049000
X037000Y049000
X036000Y051000
X037000Y051000
X034000Y054000
X034000Y053000
X035000Y053000
X035000Y054000
X036000Y054000
X037000Y054000
X038000Y054000
X039000Y054000
X040000Y054000
X036000Y053000
X037000Y053000
X038000Y053000
X039000Y053000
X040000Y053000
X040000Y052000
X034000Y052000
X035000Y052000
X036000Y052000
X037000Y052000
X038000Y052000
X039000Y052000
X034000Y041000
X030000Y042000
X029000Y042000
X028000Y042000
X030000Y043000
X029000Y043000
X028000Y043000
X030000Y044000
X029000Y044000
X028000Y044000
X029000Y041000
X028000Y041000
X030000Y038000
X030000Y039000
X031000Y039000
X031000Y038000
X030000Y036000
X030000Y037000
X029000Y036000
X029000Y037000
X028000Y036000
X028000Y037000
X029000Y038000
X028000Y038000
X028000Y039000
X028000Y040000
X029000Y039000
X029000Y040000
X034000Y029000
X035000Y029000
X036000Y029000
X037000Y029000
X038000Y029000
X039000Y029000
X040000Y029000
X041000Y029000
X035000Y030000
X036000Y030000
X037000Y030000
X038000Y030000
X039000Y030000
X040000Y030000
X041000Y030000
X040000Y027000
X035000Y027000
X037000Y027000
X038000Y027000
X039000Y027000
X041000Y027000
X036000Y032000
X037000Y032000
X038000Y032000
X039000Y032000
X040000Y032000
X032000Y032000
X036000Y033000
X037000Y033000
X038000Y033000
X039000Y033000
X032000Y033000
X040000Y033000
X041000Y032000
X041000Y033000
X036000Y027000
X031000Y027000
X030000Y027000
X032000Y027000
X033000Y027000
X034000Y027000
X033000Y031000
X033000Y030000
X034000Y030000
X033000Y029000
X032000Y029000
X032000Y030000
X032000Y031000
X031000Y030000
X031000Y029000
X023000Y036000
X022000Y036000
X021000Y036000
X023000Y038000
X022000Y038000
X021000Y038000
X023000Y039000
X022000Y039000
X021000Y039000
X023000Y040000
X023000Y037000
X022000Y040000
X022000Y041000
X022000Y037000
X021000Y040000
X021000Y041000
X021000Y037000
X026000Y036000
X027000Y036000
X026000Y038000
X026000Y037000
X027000Y038000
X027000Y037000
X025000Y036000
X025000Y038000
X025000Y039000
X025000Y040000
X025000Y041000
X025000Y037000
X024000Y036000
X024000Y038000
X024000Y039000
X024000Y040000
X024000Y041000
X024000Y037000
X027000Y039000
X027000Y040000
X027000Y041000
X027000Y042000
X027000Y043000
X027000Y044000
X026000Y039000
X026000Y040000
X026000Y041000
X025000Y042000
X025000Y043000
X025000Y044000
X024000Y042000
X024000Y043000
X024000Y044000
X026000Y042000
X026000Y043000
X026000Y044000
X022000Y042000
X022000Y043000
X022000Y044000
X022000Y045000
X021000Y042000
X021000Y043000
X021000Y044000
X021000Y045000
X023000Y041000
X023000Y042000
X023000Y043000
X023000Y044000
X023000Y045000
X025000Y045000
X025000Y046000
X025000Y047000
X024000Y045000
X024000Y046000
X024000Y047000
X026000Y045000
X026000Y046000
X026000Y047000
X026000Y048000
X026000Y049000
X026000Y050000
X026000Y051000
X026000Y052000
X026000Y053000
X026000Y054000
X028000Y054000
X027000Y054000
X029000Y054000
X030000Y054000
X030000Y053000
X027000Y052000
X030000Y052000
X029000Y052000
X028000Y052000
X029000Y053000
X028000Y053000
X027000Y053000
X023000Y046000
X023000Y047000
X023000Y048000
X022000Y046000
X022000Y047000
X022000Y048000
X022000Y049000
X022000Y050000
X022000Y051000
X021000Y046000
X021000Y047000
X021000Y048000
X021000Y049000
X021000Y050000
X021000Y051000
X023000Y049000
X023000Y050000
X023000Y051000
X023000Y052000
X023000Y053000
X023000Y054000
X022000Y052000
X022000Y053000
X022000Y054000
X021000Y052000
X021000Y053000
X021000Y054000
X025000Y048000
X025000Y049000
X025000Y050000
X025000Y051000
X024000Y048000
X024000Y049000
X024000Y050000
X025000Y052000
X025000Y053000
X025000Y054000
X024000Y051000
X024000Y052000
X024000Y053000
X024000Y054000
X035500Y013000
X025500Y013000
X015500Y013000
X005500Y013000
X040500Y013000
T20
X003000Y014500
X004000Y014500
X005000Y014500
X013000Y014500
X014000Y014500
X015000Y014500
X016000Y014500
X017000Y014500
X018000Y014500
X019000Y014500
X020000Y014500
X008000Y014500
X009000Y014500
X010000Y014500
X006000Y014500
X007000Y014500
X035000Y014500
X036000Y014500
X033000Y014500
X034000Y014500
X023000Y014500
X025000Y014500
X026000Y014500
X024000Y014500
X027000Y014500
X028000Y014500
X029000Y014500
X030000Y014500
X037000Y014500
X038000Y014500
X039000Y014500
X040000Y014500
T15
X001200Y017200
X019000Y008000
X014500Y008000
X004500Y008000
X009000Y008000
X042600Y044400
X024500Y008000
X029000Y008000
X042600Y017200
X039000Y008000
X034500Y008000
X001200Y044400
X022250Y032250
M30
