G04 start of page 4 for group -4063 idx -4063
G04 Title: que linda, componentmask *
G04 Creator: pcb 20080202 *
G04 CreationDate: Fri 28 Nov 2008 04:08:51 AM GMT UTC *
G04 For: orluke *
G04 Format: Gerber/RS-274X *
G04 PCB-Dimensions: 450000 650000 *
G04 PCB-Coordinate-Origin: lower left *
%MOIN*%
%FSLAX24Y24*%
%LNFRONTMASK*%
%ADD14C,0.1280*%
%ADD15C,0.0700*%
%ADD16C,0.0200*%
%ADD19C,0.0760*%
G54D14*X1200Y44400D03*
G54D15*X10000Y32000D03*
X9000D03*
X10000Y33000D03*
X9000D03*
X7000Y32000D03*
X8000D03*
X6000Y33000D03*
X7000D03*
X8000D03*
X10000Y34000D03*
X9000D03*
X10000Y35000D03*
X7000D03*
X8000D03*
X9000D03*
X6000Y32000D03*
X5000D03*
Y33000D03*
X6000Y35000D03*
X5000D03*
X3000Y32000D03*
X4000D03*
X3000Y33000D03*
X4000D03*
X6000Y34000D03*
X7000D03*
X8000D03*
X5000D03*
X3000D03*
X4000D03*
X3000Y35000D03*
X4000D03*
X10000Y36000D03*
X9000D03*
X10000Y37000D03*
X6000Y36000D03*
Y37000D03*
X7000D03*
X6000Y38000D03*
X7000D03*
Y36000D03*
X8000D03*
Y37000D03*
X9000D03*
X10000Y38000D03*
X8000D03*
X9000D03*
X12000Y39000D03*
Y38000D03*
Y37000D03*
Y36000D03*
Y35000D03*
Y34000D03*
Y33000D03*
X13000Y40500D03*
Y39000D03*
Y38000D03*
Y37000D03*
Y36000D03*
Y35000D03*
X12000Y41000D03*
X13000Y47500D03*
Y46500D03*
Y45500D03*
Y44500D03*
Y43500D03*
Y42500D03*
Y41500D03*
X12000Y48000D03*
Y47000D03*
Y46000D03*
Y45000D03*
Y44000D03*
Y43000D03*
Y42000D03*
X13000Y34000D03*
Y33000D03*
X11000Y30000D03*
X12000D03*
X13000D03*
X11000Y32000D03*
Y33000D03*
Y34000D03*
Y35000D03*
Y36000D03*
Y37000D03*
Y38000D03*
Y39000D03*
Y41000D03*
Y42000D03*
Y40000D03*
Y43000D03*
Y44000D03*
Y45000D03*
Y46000D03*
Y47000D03*
Y48000D03*
Y49000D03*
Y50000D03*
Y51000D03*
Y52000D03*
Y53000D03*
Y54000D03*
X3000Y36000D03*
X4000D03*
X3000Y37000D03*
X4000D03*
X5000Y36000D03*
Y37000D03*
Y38000D03*
X3000D03*
X4000D03*
X3000Y39000D03*
X4000D03*
X5000D03*
X3000Y40000D03*
X4000D03*
X5000D03*
X10000Y39000D03*
X9000D03*
X10000Y41000D03*
X9000D03*
X10000Y40000D03*
X9000D03*
X6000Y39000D03*
X7000D03*
X8000D03*
X6000Y40000D03*
X7000D03*
X8000D03*
X3000Y41000D03*
X4000D03*
X3000Y42000D03*
X4000D03*
X5000Y41000D03*
Y42000D03*
Y43000D03*
X3000D03*
X4000D03*
X3000Y44000D03*
X4000D03*
X6000Y41000D03*
X7000D03*
X8000D03*
Y42000D03*
Y43000D03*
Y44000D03*
Y45000D03*
Y46000D03*
X10000Y42000D03*
X9000D03*
X10000Y43000D03*
X9000D03*
X6000Y42000D03*
X7000D03*
X6000Y43000D03*
X7000D03*
X6000Y44000D03*
X7000D03*
X10000D03*
X9000D03*
X10000Y45000D03*
X9000D03*
X6000D03*
X7000D03*
X6000Y46000D03*
X7000D03*
X5000Y44000D03*
X3000Y45000D03*
X4000D03*
X3000Y46000D03*
X4000D03*
X5000Y45000D03*
Y46000D03*
Y47000D03*
X10000Y46000D03*
X9000D03*
X10000Y47000D03*
X9000D03*
X6000D03*
Y48000D03*
X7000Y47000D03*
Y48000D03*
Y49000D03*
Y50000D03*
Y51000D03*
Y52000D03*
X6000Y49000D03*
Y50000D03*
Y51000D03*
Y52000D03*
Y53000D03*
X7000D03*
Y54000D03*
X6000D03*
X3000Y47000D03*
X4000D03*
X3000Y48000D03*
X4000D03*
X5000D03*
Y49000D03*
Y50000D03*
Y51000D03*
X3000Y49000D03*
X4000D03*
X3000Y50000D03*
X4000D03*
X3000Y51000D03*
X4000D03*
X3000Y52000D03*
X4000D03*
X5000D03*
Y53000D03*
Y54000D03*
X3000Y53000D03*
X4000D03*
X3000Y54000D03*
X4000D03*
X8000Y47000D03*
Y48000D03*
Y49000D03*
Y50000D03*
Y51000D03*
Y52000D03*
X10000Y48000D03*
X9000D03*
X10000Y49000D03*
X9000D03*
X10000Y50000D03*
X9000D03*
X10000Y51000D03*
X9000D03*
X10000Y52000D03*
X9000D03*
X10000Y53000D03*
X9000D03*
X8000D03*
Y54000D03*
X10000D03*
X9000D03*
G54D14*X42600Y44400D03*
Y17200D03*
G54D15*X41000Y30000D03*
Y32000D03*
Y33000D03*
Y21000D03*
Y20000D03*
Y19000D03*
Y18000D03*
Y17000D03*
Y39000D03*
Y40000D03*
Y41000D03*
X36000Y30000D03*
X37000D03*
X38000D03*
X39000D03*
X36000Y29000D03*
X37000D03*
X36000Y28000D03*
X37000D03*
X38000Y29000D03*
X39000D03*
X38000Y28000D03*
X39000D03*
X37000Y19000D03*
X36000Y18000D03*
X37000D03*
X36000Y17000D03*
X37000D03*
X38000Y19000D03*
Y18000D03*
Y17000D03*
X39000Y19000D03*
Y18000D03*
Y17000D03*
X36000Y38000D03*
X37000D03*
X38000D03*
X39000D03*
X40000Y24000D03*
Y23000D03*
Y22000D03*
Y21000D03*
Y20000D03*
Y19000D03*
Y18000D03*
Y17000D03*
Y30000D03*
Y29000D03*
Y28000D03*
Y27000D03*
Y26000D03*
Y25000D03*
X41000Y29000D03*
Y28000D03*
Y27000D03*
Y26000D03*
Y25000D03*
Y24000D03*
Y23000D03*
Y22000D03*
X40000Y38000D03*
X41000Y34000D03*
Y35000D03*
Y36000D03*
Y37000D03*
X32000Y35000D03*
Y36000D03*
Y37000D03*
Y39000D03*
Y40000D03*
Y41000D03*
Y42000D03*
X33000D03*
Y41000D03*
Y40000D03*
X32000Y43000D03*
X33000D03*
X32000Y44000D03*
X33000D03*
Y39000D03*
Y37000D03*
Y36000D03*
Y35000D03*
Y34000D03*
Y33000D03*
Y32000D03*
X34000D03*
Y33000D03*
Y34000D03*
X35000Y32000D03*
Y33000D03*
Y34000D03*
X34000Y35000D03*
Y36000D03*
Y38000D03*
X35000D03*
X36000Y32000D03*
Y33000D03*
Y34000D03*
X37000Y32000D03*
Y33000D03*
X38000D03*
X39000D03*
X40000D03*
X38000Y32000D03*
X39000D03*
X40000D03*
X37000Y34000D03*
X38000D03*
X39000D03*
X40000D03*
X35000Y35000D03*
Y36000D03*
X36000D03*
Y35000D03*
X37000D03*
X38000D03*
X39000D03*
X40000D03*
X37000Y36000D03*
X38000D03*
X39000D03*
X40000D03*
X34000Y37000D03*
Y39000D03*
X35000D03*
Y37000D03*
X36000D03*
X37000D03*
X38000D03*
X39000D03*
X36000Y39000D03*
X37000D03*
X38000D03*
X39000D03*
X35000Y40000D03*
Y41000D03*
X36000D03*
X37000D03*
X38000D03*
X39000D03*
X36000Y40000D03*
X37000D03*
X38000D03*
X39000D03*
Y42000D03*
X34000Y40000D03*
Y41000D03*
Y42000D03*
X35000D03*
X36000D03*
X37000D03*
X38000D03*
X34000Y43000D03*
X35000D03*
X36000D03*
X37000D03*
X38000D03*
Y44000D03*
X39000Y43000D03*
Y44000D03*
X34000D03*
X35000D03*
X36000D03*
X37000D03*
X41000Y38000D03*
X40000Y37000D03*
Y39000D03*
Y40000D03*
Y41000D03*
Y42000D03*
Y43000D03*
Y44000D03*
X38000Y54000D03*
Y53000D03*
Y51000D03*
Y52000D03*
X39000Y54000D03*
Y53000D03*
Y51000D03*
Y52000D03*
X40000Y54000D03*
Y53000D03*
Y51000D03*
Y52000D03*
X34000Y54000D03*
X35000D03*
X36000D03*
X37000D03*
X34000Y53000D03*
Y52000D03*
X35000Y53000D03*
X36000D03*
X37000D03*
X34000Y51000D03*
X35000D03*
Y52000D03*
X36000Y51000D03*
X37000D03*
X36000Y52000D03*
X37000D03*
X33000Y30000D03*
Y29000D03*
X34000Y30000D03*
Y29000D03*
Y28000D03*
X35000Y30000D03*
Y29000D03*
Y28000D03*
X33000D03*
X37000Y27000D03*
Y26000D03*
X38000D03*
X39000D03*
X38000Y27000D03*
X39000D03*
X38000Y25000D03*
X39000D03*
X38000Y24000D03*
X39000D03*
X33000Y27000D03*
Y26000D03*
Y25000D03*
Y24000D03*
X34000Y27000D03*
Y26000D03*
Y25000D03*
Y24000D03*
X35000Y27000D03*
Y26000D03*
Y25000D03*
Y24000D03*
X36000Y27000D03*
Y26000D03*
Y22000D03*
Y21000D03*
Y25000D03*
X37000D03*
X36000Y24000D03*
X37000D03*
Y22000D03*
Y21000D03*
X36000Y23000D03*
X37000D03*
X38000D03*
X39000D03*
X38000Y22000D03*
X39000D03*
X38000Y21000D03*
X39000D03*
X36000Y20000D03*
Y19000D03*
X37000Y20000D03*
X38000D03*
X39000D03*
X33000Y23000D03*
Y22000D03*
X34000Y23000D03*
Y22000D03*
Y21000D03*
Y20000D03*
X35000Y23000D03*
Y22000D03*
Y21000D03*
Y20000D03*
X32000Y21000D03*
X33000D03*
X32000Y20000D03*
X33000D03*
X34000Y19000D03*
X35000D03*
X32000D03*
X33000D03*
X32000Y18000D03*
X33000D03*
X32000Y17000D03*
X33000D03*
X34000Y18000D03*
Y17000D03*
X35000Y18000D03*
Y17000D03*
X12000Y32000D03*
X13000D03*
X32000D03*
Y33000D03*
Y34000D03*
X23000Y30000D03*
X24000D03*
X23000Y29000D03*
X24000D03*
X20000Y30000D03*
X19000D03*
X20000Y29000D03*
X18000D03*
X19000D03*
X16000Y30000D03*
X17000D03*
X18000D03*
X14000D03*
Y29000D03*
X15000Y30000D03*
X16000Y29000D03*
X15000D03*
X17000D03*
X26000Y30000D03*
X25000D03*
Y29000D03*
X26000Y28000D03*
X25000D03*
X27000Y30000D03*
X28000D03*
X26000Y29000D03*
X27000D03*
X28000D03*
X27000Y28000D03*
X23000D03*
X24000D03*
G54D19*X33000Y14500D03*
X34000D03*
X35000D03*
G54D14*X34500Y8000D03*
G54D19*X36000Y14500D03*
X37000D03*
X38000D03*
X39000D03*
X40000D03*
G54D15*X38500Y11500D03*
X38000Y10500D03*
X36500Y11500D03*
X36000Y10500D03*
X37000D03*
G54D16*G36*
X34650Y10850D02*Y10150D01*
X35350D01*
Y10850D01*
X34650D01*
G37*
G54D15*X35500Y11500D03*
X37500D03*
G54D14*X39000Y8000D03*
G54D19*X13000Y14500D03*
X14000D03*
X15000D03*
X16000D03*
X17000D03*
X19000D03*
X20000D03*
X23000D03*
X24000D03*
G54D14*X24500Y8000D03*
G54D19*X25000Y14500D03*
X26000D03*
X27000D03*
X28000D03*
X29000D03*
X30000D03*
G54D15*X28500Y11500D03*
X27500D03*
G54D14*X29000Y8000D03*
G54D15*X28000Y10500D03*
X26000D03*
X27000D03*
G54D16*G36*
X24650Y10850D02*Y10150D01*
X25350D01*
Y10850D01*
X24650D01*
G37*
G54D15*X26500Y11500D03*
X25500D03*
G54D19*X18000Y14500D03*
G54D15*X18500Y11500D03*
X16500D03*
X17500D03*
X16000Y10500D03*
X15500Y11500D03*
G54D16*G36*
X14650Y10850D02*Y10150D01*
X15350D01*
Y10850D01*
X14650D01*
G37*
G54D14*X14500Y8000D03*
G54D15*X18000Y10500D03*
X17000D03*
G54D14*X19000Y8000D03*
G54D15*X31000Y30000D03*
Y29000D03*
X30000D03*
X29000D03*
X30000Y30000D03*
X29000D03*
X32000D03*
Y29000D03*
Y28000D03*
Y27000D03*
Y26000D03*
Y25000D03*
X31000Y28000D03*
X30000D03*
X28000D03*
X29000D03*
X31000Y27000D03*
Y26000D03*
X30000D03*
X31000Y25000D03*
X30000D03*
Y27000D03*
X29000D03*
X28000D03*
Y26000D03*
X29000D03*
X28000Y25000D03*
X29000D03*
X26000Y27000D03*
X25000D03*
X24000D03*
X27000D03*
X25000Y26000D03*
X23000Y27000D03*
Y26000D03*
X24000D03*
X25000Y25000D03*
X24000D03*
X26000Y26000D03*
X27000D03*
X26000Y25000D03*
X27000D03*
X26000Y24000D03*
X27000D03*
X28000D03*
X26000Y23000D03*
X31000Y24000D03*
Y23000D03*
X30000Y24000D03*
X29000D03*
X32000D03*
Y23000D03*
Y22000D03*
X30000Y23000D03*
X29000D03*
X31000Y22000D03*
X30000D03*
X29000D03*
X23000Y25000D03*
Y23000D03*
Y22000D03*
Y24000D03*
X24000D03*
X25000D03*
Y23000D03*
X24000D03*
X25000Y22000D03*
X24000D03*
X23000Y21000D03*
Y20000D03*
Y19000D03*
Y18000D03*
Y17000D03*
X25000Y21000D03*
Y20000D03*
Y19000D03*
Y18000D03*
Y17000D03*
X24000Y21000D03*
Y20000D03*
Y19000D03*
Y18000D03*
Y17000D03*
X31000Y21000D03*
Y20000D03*
X30000Y21000D03*
X29000D03*
X30000Y20000D03*
X29000D03*
X31000Y19000D03*
X30000D03*
X29000D03*
X31000Y18000D03*
Y17000D03*
X30000Y18000D03*
Y17000D03*
X29000Y18000D03*
Y17000D03*
X27000Y23000D03*
Y22000D03*
Y21000D03*
X28000Y23000D03*
Y22000D03*
Y21000D03*
Y20000D03*
Y19000D03*
Y18000D03*
X26000Y22000D03*
Y21000D03*
Y20000D03*
Y19000D03*
Y18000D03*
Y17000D03*
X27000Y20000D03*
Y19000D03*
Y18000D03*
Y17000D03*
X28000D03*
X20000Y28000D03*
X19000D03*
X20000Y27000D03*
X19000D03*
X17000Y28000D03*
X18000D03*
X17000Y27000D03*
X18000D03*
X17000Y25000D03*
X18000D03*
X20000Y26000D03*
X19000D03*
X20000Y25000D03*
X19000D03*
X20000Y24000D03*
X19000D03*
X16000Y28000D03*
X15000D03*
X16000Y27000D03*
X15000D03*
X14000Y28000D03*
Y27000D03*
Y26000D03*
Y25000D03*
X16000Y26000D03*
X15000D03*
X17000D03*
X18000D03*
X17000Y24000D03*
Y23000D03*
Y22000D03*
Y21000D03*
X18000Y24000D03*
Y23000D03*
Y22000D03*
Y21000D03*
X20000Y23000D03*
X19000D03*
X20000Y22000D03*
X19000D03*
X16000Y25000D03*
X15000D03*
X16000Y24000D03*
X15000D03*
X14000D03*
Y23000D03*
Y22000D03*
Y21000D03*
X16000Y23000D03*
X15000D03*
X16000Y22000D03*
X15000D03*
X16000Y21000D03*
X15000D03*
X16000Y20000D03*
X15000D03*
X14000D03*
Y19000D03*
Y18000D03*
Y17000D03*
X16000Y19000D03*
X15000D03*
X16000Y18000D03*
X15000D03*
X16000Y17000D03*
X15000D03*
X20000Y21000D03*
X19000D03*
X20000Y20000D03*
X19000D03*
X17000D03*
Y19000D03*
X18000Y20000D03*
Y19000D03*
X20000D03*
X19000D03*
X20000Y18000D03*
X19000D03*
X20000Y17000D03*
X19000D03*
X17000Y18000D03*
Y17000D03*
X18000Y18000D03*
Y17000D03*
X11000Y29000D03*
X12000D03*
X13000D03*
X11000Y28000D03*
X12000D03*
X13000D03*
X11000Y27000D03*
Y26000D03*
Y25000D03*
X13000Y27000D03*
Y26000D03*
Y25000D03*
X12000Y27000D03*
Y26000D03*
Y25000D03*
Y24000D03*
Y23000D03*
Y22000D03*
X11000Y24000D03*
Y23000D03*
Y22000D03*
Y21000D03*
X13000Y24000D03*
Y23000D03*
Y22000D03*
X12000Y21000D03*
X11000Y20000D03*
Y19000D03*
Y18000D03*
X12000Y20000D03*
Y19000D03*
Y18000D03*
X13000Y21000D03*
Y20000D03*
Y19000D03*
Y18000D03*
Y17000D03*
X11000D03*
X12000D03*
G54D14*X1200Y17200D03*
G54D15*X3000Y18000D03*
Y17000D03*
G54D19*Y14500D03*
G54D15*X8500Y11500D03*
X8000Y10500D03*
G54D14*X9000Y8000D03*
G54D15*X6500Y11500D03*
X6000Y10500D03*
X7000D03*
G54D16*G36*
X4650Y10850D02*Y10150D01*
X5350D01*
Y10850D01*
X4650D01*
G37*
G54D15*X5500Y11500D03*
G54D14*X4500Y8000D03*
G54D15*X7500Y11500D03*
G54D19*X7000Y14500D03*
X8000D03*
X9000D03*
X10000D03*
X4000D03*
X5000D03*
X6000D03*
G54D15*X10000Y18000D03*
X9000D03*
X10000Y17000D03*
X8000D03*
X9000D03*
X6000Y18000D03*
Y17000D03*
X7000D03*
Y18000D03*
X8000D03*
X5000D03*
X4000D03*
X5000Y17000D03*
X4000D03*
X6000Y30000D03*
X7000D03*
X8000D03*
X3000D03*
X5000D03*
X4000D03*
X3000Y29000D03*
Y28000D03*
X4000Y29000D03*
Y28000D03*
X10000Y30000D03*
X9000D03*
X10000Y29000D03*
X9000D03*
X6000D03*
X7000D03*
X8000D03*
X5000D03*
X6000Y28000D03*
X7000D03*
X8000D03*
X5000D03*
X10000D03*
X9000D03*
X10000Y27000D03*
X9000D03*
X6000D03*
Y26000D03*
X7000D03*
X8000D03*
X7000Y27000D03*
X8000D03*
X10000Y26000D03*
X9000D03*
X10000Y25000D03*
X9000D03*
X6000D03*
Y24000D03*
X7000D03*
X8000D03*
X7000Y25000D03*
X8000D03*
X10000Y24000D03*
X9000D03*
X10000Y23000D03*
X9000D03*
X6000D03*
Y22000D03*
X7000D03*
X8000D03*
X7000Y23000D03*
X8000D03*
X3000Y27000D03*
Y26000D03*
Y25000D03*
X5000Y27000D03*
Y26000D03*
Y25000D03*
Y24000D03*
Y23000D03*
Y22000D03*
X4000Y27000D03*
Y26000D03*
Y25000D03*
Y24000D03*
Y23000D03*
Y22000D03*
X3000Y24000D03*
Y23000D03*
Y22000D03*
Y21000D03*
Y20000D03*
Y19000D03*
X5000Y21000D03*
Y20000D03*
Y19000D03*
X4000Y21000D03*
Y20000D03*
Y19000D03*
X10000Y22000D03*
X9000D03*
X10000Y21000D03*
X9000D03*
X6000D03*
Y20000D03*
X7000D03*
X8000D03*
X7000Y21000D03*
X8000D03*
X10000Y20000D03*
X9000D03*
X10000Y19000D03*
X9000D03*
X6000D03*
X7000D03*
X8000D03*
M02*
