G04 start of page 5 for group -4062 idx -4062
G04 Title: 305 style, soldermask *
G04 Creator: pcb 20080202 *
G04 CreationDate: Thu Jan 29 15:55:23 2009 UTC *
G04 For: orluke *
G04 Format: Gerber/RS-274X *
G04 PCB-Dimensions: 450000 650000 *
G04 PCB-Coordinate-Origin: lower left *
%MOIN*%
%FSLAX24Y24*%
%LNBACKMASK*%
%ADD15C,0.1280*%
%ADD16C,0.0700*%
%ADD17C,0.0200*%
%ADD21C,0.0760*%
G54D15*X1200Y17200D03*
G54D16*X3000Y18000D03*
X4000D03*
X3000Y17000D03*
X4000D03*
G54D21*X3000Y14500D03*
X4000D03*
X5000D03*
G54D16*Y17000D03*
X3000Y20000D03*
Y19000D03*
X5000Y20000D03*
Y19000D03*
X4000Y20000D03*
Y19000D03*
X11000Y22000D03*
Y21000D03*
Y20000D03*
X10000Y22000D03*
Y21000D03*
Y20000D03*
X6000Y24000D03*
X5000D03*
Y23000D03*
X7000Y24000D03*
X6000Y23000D03*
X7000D03*
Y25000D03*
Y26000D03*
Y22000D03*
X6000Y25000D03*
X5000D03*
X6000Y26000D03*
X5000D03*
X6000Y27000D03*
X5000D03*
X7000D03*
X3000Y28000D03*
X5000D03*
X4000D03*
X6000D03*
X7000D03*
X3000Y24000D03*
X4000D03*
X3000Y23000D03*
X4000D03*
X6000Y22000D03*
X5000D03*
X4000D03*
X3000D03*
Y21000D03*
X4000D03*
X3000Y25000D03*
X4000D03*
X3000Y26000D03*
X4000D03*
X3000Y27000D03*
X4000D03*
X11000Y24000D03*
Y23000D03*
Y28000D03*
Y25000D03*
Y26000D03*
Y27000D03*
X10000Y24000D03*
Y23000D03*
Y28000D03*
Y25000D03*
Y26000D03*
Y27000D03*
X8000Y24000D03*
Y23000D03*
Y22000D03*
Y25000D03*
X9000Y24000D03*
Y23000D03*
Y22000D03*
Y25000D03*
X8000Y28000D03*
Y26000D03*
Y27000D03*
X9000Y28000D03*
Y26000D03*
Y27000D03*
X20000Y24000D03*
X19000D03*
X20000Y23000D03*
X19000D03*
X20000Y22000D03*
X19000D03*
X20000Y25000D03*
X19000D03*
X17000Y22000D03*
X18000D03*
X16000Y24000D03*
X12000D03*
X13000D03*
X14000D03*
X15000D03*
X12000Y23000D03*
Y22000D03*
X13000D03*
Y25000D03*
Y23000D03*
X14000D03*
X15000D03*
X16000Y22000D03*
X14000D03*
X15000D03*
X16000Y23000D03*
X17000D03*
X18000D03*
X20000Y28000D03*
X16000D03*
X17000D03*
X18000D03*
X19000D03*
X17000Y24000D03*
X18000D03*
X16000Y25000D03*
X17000D03*
X18000D03*
X20000Y26000D03*
X19000D03*
X20000Y27000D03*
X19000D03*
X17000Y26000D03*
X16000Y27000D03*
X17000D03*
X18000Y26000D03*
Y27000D03*
X12000Y28000D03*
Y25000D03*
Y26000D03*
Y27000D03*
X13000Y28000D03*
X14000D03*
X15000D03*
X14000Y25000D03*
X15000D03*
X16000Y26000D03*
X13000D03*
X14000D03*
X15000D03*
X13000Y27000D03*
X14000D03*
X15000D03*
G54D21*X8000Y14500D03*
G54D16*Y18000D03*
Y17000D03*
G54D21*X9000Y14500D03*
G54D16*Y18000D03*
Y17000D03*
G54D21*X10000Y14500D03*
G54D16*X8000Y19000D03*
X9000D03*
X11000Y17000D03*
X10000D03*
X11000Y19000D03*
X10000D03*
X11000Y18000D03*
X10000D03*
G54D21*X6000Y14500D03*
X7000D03*
G54D16*X6000Y18000D03*
X5000D03*
X6000Y17000D03*
X7000D03*
X6000Y20000D03*
X7000D03*
X8000D03*
X9000D03*
X7000Y18000D03*
X6000Y19000D03*
X7000D03*
X6000Y21000D03*
X5000D03*
X7000D03*
X8000D03*
X9000D03*
X8500Y11500D03*
X8000Y10500D03*
X6500Y11500D03*
X6000Y10500D03*
X7000D03*
X7500Y11500D03*
G54D17*G36*
X4650Y10850D02*Y10150D01*
X5350D01*
Y10850D01*
X4650D01*
G37*
G54D16*X5500Y11500D03*
G54D15*X4500Y8000D03*
X9000D03*
X42600Y44400D03*
G54D16*X41000Y44000D03*
Y45000D03*
X40000Y48000D03*
Y47000D03*
Y45000D03*
Y44000D03*
Y46000D03*
X41000D03*
Y48000D03*
Y47000D03*
X34000Y45000D03*
X35000D03*
X36000D03*
X37000D03*
X38000D03*
X39000D03*
X36000Y41000D03*
Y42000D03*
Y43000D03*
X37000D03*
X38000D03*
X39000D03*
X36000Y44000D03*
X37000D03*
X38000D03*
X39000D03*
X37000Y41000D03*
Y42000D03*
X38000D03*
Y41000D03*
X39000D03*
X40000D03*
X41000Y39000D03*
X39000Y42000D03*
X40000D03*
X41000Y43000D03*
Y42000D03*
X40000Y43000D03*
X33000Y42000D03*
Y41000D03*
Y40000D03*
Y39000D03*
X35000Y41000D03*
X34000Y42000D03*
X35000D03*
X32000Y39000D03*
Y40000D03*
Y41000D03*
Y42000D03*
X34000Y43000D03*
X35000D03*
X34000Y44000D03*
X35000D03*
X25000Y54000D03*
Y53000D03*
X24000Y54000D03*
Y53000D03*
X23000D03*
X22000D03*
Y54000D03*
X21000Y53000D03*
Y54000D03*
X23000D03*
X30000Y46000D03*
Y43000D03*
Y44000D03*
Y45000D03*
X29000Y43000D03*
Y44000D03*
Y45000D03*
X26000Y54000D03*
Y51000D03*
Y52000D03*
Y53000D03*
Y44000D03*
Y45000D03*
Y46000D03*
Y47000D03*
Y48000D03*
Y49000D03*
X25000Y44000D03*
Y45000D03*
Y46000D03*
X24000Y44000D03*
Y45000D03*
Y46000D03*
Y47000D03*
Y48000D03*
Y49000D03*
X26000Y50000D03*
X25000Y47000D03*
Y48000D03*
Y49000D03*
Y50000D03*
Y51000D03*
Y52000D03*
X24000Y50000D03*
Y51000D03*
Y52000D03*
X30000Y49000D03*
Y47000D03*
Y50000D03*
Y48000D03*
Y51000D03*
X28000Y43000D03*
Y44000D03*
Y45000D03*
Y46000D03*
Y47000D03*
Y48000D03*
X27000Y43000D03*
Y44000D03*
Y45000D03*
Y46000D03*
Y47000D03*
Y48000D03*
X29000Y46000D03*
Y47000D03*
Y48000D03*
Y49000D03*
X28000Y52000D03*
X29000Y51000D03*
X28000D03*
X29000Y52000D03*
X27000D03*
Y49000D03*
Y50000D03*
Y51000D03*
Y53000D03*
Y54000D03*
X30000Y52000D03*
X29000Y50000D03*
X28000D03*
Y49000D03*
X30000Y53000D03*
X29000D03*
X28000D03*
X30000Y54000D03*
X29000D03*
X28000D03*
X34000D03*
X35000D03*
X36000D03*
X34000Y53000D03*
Y52000D03*
X35000D03*
X36000D03*
X39000Y48000D03*
X37000Y47000D03*
X38000D03*
X39000D03*
X37000Y48000D03*
X38000D03*
X34000Y47000D03*
X35000D03*
X34000Y46000D03*
X35000D03*
X36000Y47000D03*
Y46000D03*
X37000D03*
X38000D03*
X39000D03*
X34000Y48000D03*
X35000D03*
X36000D03*
X37000Y54000D03*
X38000D03*
X39000D03*
X40000D03*
X35000Y53000D03*
X36000D03*
X37000D03*
X38000D03*
X39000D03*
X40000D03*
X41000Y54000D03*
X37000Y52000D03*
X38000D03*
X39000D03*
X40000D03*
X41000Y53000D03*
Y52000D03*
X34000Y49000D03*
X35000D03*
X36000D03*
X37000D03*
X38000D03*
X39000D03*
X40000D03*
X41000D03*
X34000Y51000D03*
Y50000D03*
X35000Y51000D03*
Y50000D03*
X36000D03*
Y51000D03*
X37000D03*
X38000D03*
X39000D03*
X40000D03*
X37000Y50000D03*
X38000D03*
X39000D03*
X40000D03*
X41000D03*
Y51000D03*
X33000Y24000D03*
X34000D03*
X35000D03*
X36000D03*
X32000D03*
Y25000D03*
X33000D03*
X36000D03*
X34000D03*
X35000D03*
X36000Y23000D03*
X35000D03*
X37000D03*
X36000Y22000D03*
X37000D03*
X36000Y21000D03*
X34000Y23000D03*
Y22000D03*
X35000D03*
X33000Y21000D03*
X34000D03*
X40000Y23000D03*
Y22000D03*
Y21000D03*
Y26000D03*
Y27000D03*
X37000Y24000D03*
X38000D03*
X39000D03*
X41000D03*
X40000D03*
X41000Y23000D03*
Y26000D03*
Y27000D03*
X40000Y25000D03*
X39000D03*
X41000D03*
X37000Y27000D03*
X38000D03*
X39000D03*
X31000Y24000D03*
Y25000D03*
X30000Y24000D03*
Y25000D03*
X31000Y28000D03*
X32000D03*
X33000D03*
X34000D03*
X35000D03*
X31000Y26000D03*
Y27000D03*
X32000D03*
X33000D03*
X34000D03*
X35000D03*
X30000Y26000D03*
Y27000D03*
X32000Y26000D03*
X33000D03*
X34000D03*
X35000D03*
X41000Y28000D03*
X40000D03*
X36000D03*
X37000D03*
X38000D03*
X39000D03*
X37000Y25000D03*
X38000D03*
X37000Y26000D03*
X38000D03*
X39000D03*
X36000D03*
Y27000D03*
X26000Y24000D03*
X23000D03*
X25000D03*
X24000D03*
X27000D03*
X28000D03*
X29000D03*
X31000Y23000D03*
X30000D03*
X32000D03*
X33000D03*
X29000D03*
X26000D03*
X23000D03*
X25000D03*
X24000D03*
X27000D03*
X28000D03*
X25000Y28000D03*
X26000Y25000D03*
X25000D03*
X26000Y28000D03*
Y26000D03*
X25000Y27000D03*
X23000D03*
X24000D03*
X28000Y20000D03*
Y19000D03*
Y18000D03*
X27000Y25000D03*
Y28000D03*
Y26000D03*
Y27000D03*
X28000Y25000D03*
Y28000D03*
Y26000D03*
Y27000D03*
X29000D03*
X17000Y18000D03*
X18000D03*
X19000D03*
X16000D03*
X20000Y17000D03*
Y19000D03*
Y18000D03*
Y21000D03*
Y20000D03*
X16000Y17000D03*
X17000D03*
X18000D03*
X19000D03*
X17000Y19000D03*
X16000Y21000D03*
X17000D03*
X18000D03*
X19000D03*
X16000Y20000D03*
X18000Y19000D03*
X19000D03*
X14000Y20000D03*
X15000D03*
X17000D03*
X18000D03*
X19000D03*
X16000Y19000D03*
X12000D03*
X13000D03*
X14000D03*
X15000D03*
X12000Y18000D03*
Y21000D03*
Y20000D03*
X13000Y18000D03*
Y21000D03*
X14000D03*
X15000D03*
X13000Y20000D03*
X12000Y17000D03*
X13000D03*
X14000D03*
Y18000D03*
X15000D03*
Y17000D03*
G54D21*X13000Y14500D03*
X14000D03*
X15000D03*
X16000D03*
X17000D03*
X18000D03*
X19000D03*
X20000D03*
G54D16*X18500Y11500D03*
X18000Y10500D03*
X16500Y11500D03*
X16000Y10500D03*
X17000D03*
G54D17*G36*
X14650Y10850D02*Y10150D01*
X15350D01*
Y10850D01*
X14650D01*
G37*
G54D16*X15500Y11500D03*
X17500D03*
G54D15*X14500Y8000D03*
X19000D03*
G54D21*X23000Y14500D03*
X24000D03*
X25000D03*
X26000D03*
X27000D03*
X28000D03*
X29000D03*
G54D16*X28500Y11500D03*
X28000Y10500D03*
X27500Y11500D03*
G54D15*X29000Y8000D03*
G54D16*X26500Y11500D03*
X26000Y10500D03*
X27000D03*
G54D17*G36*
X24650Y10850D02*Y10150D01*
X25350D01*
Y10850D01*
X24650D01*
G37*
G54D16*X25500Y11500D03*
G54D15*X24500Y8000D03*
G54D16*X35000Y20000D03*
X36000Y19000D03*
X34000D03*
X31000D03*
X30000D03*
X32000D03*
X33000D03*
X31000Y18000D03*
X30000D03*
Y17000D03*
G54D21*Y14500D03*
G54D16*X32000Y18000D03*
Y17000D03*
X31000D03*
X38000Y23000D03*
Y22000D03*
Y21000D03*
Y20000D03*
Y19000D03*
Y18000D03*
X39000Y23000D03*
Y22000D03*
Y21000D03*
Y20000D03*
Y19000D03*
Y18000D03*
X41000Y22000D03*
Y21000D03*
Y20000D03*
X37000Y21000D03*
Y20000D03*
Y19000D03*
Y18000D03*
Y17000D03*
X35000Y19000D03*
Y18000D03*
Y17000D03*
G54D21*Y14500D03*
G54D17*G36*
X34650Y10850D02*Y10150D01*
X35350D01*
Y10850D01*
X34650D01*
G37*
G54D15*X34500Y8000D03*
G54D16*X36000Y18000D03*
Y17000D03*
G54D21*Y14500D03*
G54D16*X36500Y11500D03*
X36000Y10500D03*
X35500Y11500D03*
X33000Y18000D03*
Y17000D03*
G54D21*Y14500D03*
G54D16*X34000Y18000D03*
Y17000D03*
G54D21*Y14500D03*
X37000D03*
G54D16*Y10500D03*
X37500Y11500D03*
X40000Y20000D03*
Y19000D03*
Y18000D03*
Y17000D03*
G54D21*Y14500D03*
G54D16*X38000Y17000D03*
G54D21*Y14500D03*
G54D16*X38500Y11500D03*
X38000Y10500D03*
X39000Y17000D03*
G54D21*Y14500D03*
G54D15*Y8000D03*
G54D16*X41000Y19000D03*
Y18000D03*
Y17000D03*
G54D15*X42600Y17200D03*
G54D16*X35000Y21000D03*
X36000Y20000D03*
X34000D03*
X31000D03*
X30000D03*
X32000D03*
X33000D03*
X29000D03*
Y28000D03*
Y25000D03*
X35000Y30000D03*
X36000D03*
X37000D03*
X38000D03*
X39000D03*
X40000D03*
X41000D03*
G54D15*X30000Y29000D03*
G54D16*X33000Y30000D03*
X34000D03*
X32000D03*
X31000D03*
Y22000D03*
X30000D03*
X32000D03*
X33000D03*
X26000D03*
X25000D03*
X24000D03*
X27000D03*
X28000D03*
X29000D03*
X23000D03*
X31000Y21000D03*
X30000D03*
X32000D03*
X26000D03*
X23000D03*
X25000D03*
X24000D03*
X27000D03*
X28000D03*
X29000D03*
X26000Y20000D03*
X23000D03*
X25000D03*
X24000D03*
X23000Y19000D03*
X24000D03*
X23000Y18000D03*
X24000D03*
X25000Y19000D03*
Y18000D03*
Y26000D03*
X26000Y27000D03*
X23000Y17000D03*
Y28000D03*
Y25000D03*
Y26000D03*
X25000Y17000D03*
X24000D03*
Y28000D03*
Y25000D03*
Y26000D03*
X27000Y20000D03*
X26000Y19000D03*
X27000D03*
X29000D03*
Y18000D03*
Y26000D03*
X26000Y18000D03*
X27000D03*
X26000Y17000D03*
X27000D03*
X28000D03*
X29000D03*
G54D15*X1200Y44400D03*
G54D16*X3000Y43000D03*
Y44000D03*
X4000Y43000D03*
Y44000D03*
X3000Y45000D03*
X4000D03*
Y46000D03*
Y47000D03*
Y48000D03*
X3000Y46000D03*
Y47000D03*
Y48000D03*
X5000Y43000D03*
X6000Y44000D03*
X5000D03*
X7000D03*
X6000Y45000D03*
X7000D03*
X8000D03*
X5000D03*
X6000Y46000D03*
X7000D03*
X8000D03*
X5000D03*
X6000Y47000D03*
X5000D03*
X6000Y48000D03*
X5000D03*
X7000Y47000D03*
Y48000D03*
X8000Y47000D03*
Y48000D03*
X12000Y37000D03*
Y36000D03*
Y35000D03*
Y34000D03*
X13000D03*
X12000Y33000D03*
X13000D03*
X11000D03*
Y34000D03*
Y35000D03*
Y36000D03*
Y37000D03*
Y39000D03*
Y38000D03*
X12000Y32000D03*
X13000D03*
X11000D03*
X10000D03*
X8000D03*
X9000D03*
X12000Y31000D03*
X13000D03*
X11000D03*
X10000D03*
X8000D03*
X9000D03*
X12000Y30000D03*
X13000D03*
X11000D03*
X10000Y33000D03*
Y34000D03*
Y35000D03*
Y36000D03*
Y37000D03*
Y38000D03*
Y39000D03*
X8000D03*
X9000D03*
X8000Y38000D03*
X9000D03*
X12000Y46000D03*
Y45000D03*
Y44000D03*
Y43000D03*
Y42000D03*
X11000D03*
X10000D03*
X11000Y43000D03*
X10000D03*
X12000Y41000D03*
X11000D03*
X10000D03*
X12000Y40000D03*
Y39000D03*
X11000Y40000D03*
X10000D03*
X6000D03*
Y41000D03*
X7000Y40000D03*
Y41000D03*
X8000D03*
X9000D03*
X8000Y40000D03*
X9000D03*
X6000Y42000D03*
X7000D03*
X6000Y43000D03*
X7000D03*
X8000Y42000D03*
X9000D03*
X8000Y43000D03*
X9000D03*
X10000Y30000D03*
X6000D03*
X7000D03*
X8000D03*
X9000D03*
X6000Y31000D03*
X7000D03*
X6000Y32000D03*
X7000D03*
X5000D03*
X3000Y30000D03*
X4000D03*
X3000Y31000D03*
X4000D03*
X5000Y30000D03*
Y31000D03*
X3000Y32000D03*
X4000D03*
X3000Y33000D03*
X4000D03*
X6000D03*
X7000D03*
X8000D03*
X9000D03*
X5000D03*
Y34000D03*
Y35000D03*
X6000Y34000D03*
X7000D03*
X8000D03*
X9000D03*
X6000Y35000D03*
X7000D03*
X6000Y36000D03*
X7000D03*
X8000Y35000D03*
X9000D03*
X8000Y36000D03*
X9000D03*
X8000Y37000D03*
X9000D03*
X6000D03*
X7000D03*
X6000Y39000D03*
X7000D03*
X6000Y38000D03*
X7000D03*
X3000Y34000D03*
X4000D03*
Y35000D03*
X5000Y36000D03*
X4000D03*
X3000Y35000D03*
Y36000D03*
Y37000D03*
X5000D03*
X4000D03*
X5000Y39000D03*
X4000D03*
X5000Y38000D03*
X4000D03*
X3000Y40000D03*
X4000D03*
Y41000D03*
Y42000D03*
X5000Y40000D03*
Y41000D03*
Y42000D03*
X3000Y39000D03*
Y41000D03*
Y42000D03*
Y38000D03*
X18000Y39000D03*
X17000D03*
Y40000D03*
X19000Y39000D03*
X18000Y40000D03*
X19000D03*
X20000Y39000D03*
Y40000D03*
Y41000D03*
X18000Y38000D03*
X17000D03*
X19000D03*
X20000D03*
X15000Y39000D03*
X16000D03*
X15000Y40000D03*
X16000D03*
X18000Y41000D03*
X17000D03*
X18000Y42000D03*
X15000Y41000D03*
X16000D03*
X15000Y42000D03*
X16000D03*
X15000Y38000D03*
X16000D03*
X13000Y42500D03*
X14000Y42000D03*
Y41000D03*
Y40000D03*
X13000Y41500D03*
Y40500D03*
Y39500D03*
Y38500D03*
Y37000D03*
Y36000D03*
Y35000D03*
X14000Y37000D03*
Y39000D03*
Y36000D03*
Y35000D03*
Y34000D03*
Y33000D03*
Y32000D03*
Y31000D03*
Y30000D03*
X19000Y41000D03*
Y42000D03*
Y43000D03*
Y44000D03*
Y45000D03*
X17000Y42000D03*
Y43000D03*
Y44000D03*
X18000Y43000D03*
Y44000D03*
Y45000D03*
X20000Y42000D03*
Y43000D03*
Y44000D03*
Y45000D03*
X15000Y43000D03*
X16000D03*
Y44000D03*
X15000D03*
Y45000D03*
X13000Y43500D03*
X14000Y45000D03*
Y44000D03*
Y43000D03*
G54D15*X13000Y49000D03*
G54D16*X15000Y46000D03*
X13000Y45500D03*
Y44500D03*
X14000Y46000D03*
X15000Y47000D03*
Y48000D03*
Y49000D03*
X19000Y46000D03*
Y47000D03*
Y48000D03*
Y49000D03*
Y50000D03*
X20000Y46000D03*
Y47000D03*
Y48000D03*
Y49000D03*
Y50000D03*
X17000Y47000D03*
Y48000D03*
Y49000D03*
Y50000D03*
Y53000D03*
Y54000D03*
X18000Y51000D03*
Y52000D03*
Y53000D03*
Y54000D03*
X19000Y51000D03*
Y52000D03*
Y53000D03*
Y54000D03*
X20000Y51000D03*
Y52000D03*
Y53000D03*
Y54000D03*
X17000Y45000D03*
X16000D03*
X18000Y46000D03*
X17000D03*
X16000D03*
X18000Y47000D03*
Y48000D03*
Y49000D03*
Y50000D03*
X17000Y51000D03*
Y52000D03*
X16000Y47000D03*
Y48000D03*
Y49000D03*
Y50000D03*
Y51000D03*
Y52000D03*
X15000Y50000D03*
Y51000D03*
Y52000D03*
Y53000D03*
X16000D03*
Y54000D03*
X15000D03*
X4000Y49000D03*
X6000D03*
X7000D03*
X8000D03*
X3000D03*
X5000D03*
X6000Y50000D03*
X5000D03*
Y51000D03*
X3000Y50000D03*
X4000D03*
X3000Y51000D03*
X4000D03*
X11000Y50000D03*
Y51000D03*
X10000D03*
Y50000D03*
X9000D03*
X11000Y49000D03*
X10000D03*
X9000D03*
X11000Y44000D03*
Y45000D03*
X10000D03*
Y44000D03*
X8000D03*
X9000D03*
Y45000D03*
Y46000D03*
X11000D03*
X10000D03*
X11000Y47000D03*
X10000D03*
X9000D03*
Y48000D03*
X11000D03*
X10000D03*
X7000Y50000D03*
X8000D03*
X6000Y51000D03*
X7000D03*
X8000D03*
X9000D03*
X10000Y52000D03*
X8000D03*
X9000D03*
X8000Y53000D03*
X9000D03*
X11000Y52000D03*
Y53000D03*
X10000D03*
X11000Y54000D03*
X10000D03*
X8000D03*
X9000D03*
X3000Y52000D03*
X4000D03*
X6000D03*
X7000D03*
X5000D03*
X3000Y53000D03*
Y54000D03*
X4000Y53000D03*
Y54000D03*
X6000Y53000D03*
X7000D03*
X5000D03*
X6000Y54000D03*
X7000D03*
X5000D03*
X34000Y37000D03*
X35000D03*
X36000D03*
X34000Y38000D03*
X35000D03*
X36000D03*
X37000Y37000D03*
X38000D03*
X39000D03*
X34000Y39000D03*
X35000D03*
X36000D03*
X41000Y40000D03*
Y41000D03*
X40000Y39000D03*
Y40000D03*
X41000Y36000D03*
X40000Y37000D03*
Y38000D03*
X37000D03*
Y39000D03*
Y40000D03*
X38000Y38000D03*
Y39000D03*
Y40000D03*
X39000Y38000D03*
Y39000D03*
Y40000D03*
X34000D03*
X35000D03*
X36000D03*
X34000Y41000D03*
X30000Y38000D03*
X31000D03*
Y37000D03*
Y35000D03*
Y34000D03*
Y33000D03*
Y32000D03*
Y31000D03*
X30000Y39000D03*
X31000D03*
X30000Y41000D03*
Y42000D03*
X31000D03*
Y41000D03*
X29000D03*
Y42000D03*
Y39000D03*
X28000D03*
X27000D03*
X29000Y38000D03*
X28000D03*
X27000D03*
X30000Y40000D03*
X31000D03*
X29000D03*
X28000D03*
Y41000D03*
Y42000D03*
X27000Y40000D03*
Y41000D03*
Y42000D03*
G54D15*X22250Y33250D03*
G54D16*X22000Y39000D03*
X21000D03*
X22000Y40000D03*
X21000D03*
X22000Y41000D03*
Y42000D03*
Y38000D03*
X21000Y41000D03*
Y42000D03*
Y38000D03*
X22000Y43000D03*
Y44000D03*
Y45000D03*
Y46000D03*
X21000Y43000D03*
Y44000D03*
Y45000D03*
Y46000D03*
X23000Y42000D03*
Y43000D03*
Y44000D03*
Y45000D03*
Y46000D03*
Y47000D03*
Y48000D03*
Y49000D03*
Y50000D03*
Y51000D03*
Y52000D03*
X22000Y47000D03*
Y48000D03*
Y49000D03*
Y50000D03*
Y51000D03*
Y52000D03*
X21000Y47000D03*
Y48000D03*
Y49000D03*
Y50000D03*
Y51000D03*
Y52000D03*
X23000Y41000D03*
Y38000D03*
X26000Y39000D03*
Y40000D03*
X25000D03*
Y39000D03*
X24000D03*
X23000D03*
Y40000D03*
X24000D03*
X26000Y38000D03*
X25000D03*
X24000D03*
X26000Y41000D03*
Y42000D03*
X25000Y41000D03*
X24000D03*
X25000Y42000D03*
X24000D03*
X26000Y43000D03*
X25000D03*
X24000D03*
X33000Y38000D03*
X41000D03*
X32000D03*
X33000Y37000D03*
X41000D03*
X32000D03*
X33000Y34000D03*
Y33000D03*
X34000Y34000D03*
X32000Y33000D03*
Y34000D03*
X33000Y31000D03*
X34000D03*
X35000D03*
X36000D03*
X32000D03*
X34000Y32000D03*
X35000D03*
X36000D03*
X37000D03*
X32000D03*
X33000D03*
X34000Y33000D03*
X35000D03*
X36000D03*
X35000Y34000D03*
X36000D03*
X37000D03*
X38000D03*
X39000D03*
X40000D03*
X41000D03*
X37000Y31000D03*
X38000D03*
X39000D03*
X40000D03*
X38000Y32000D03*
X37000Y33000D03*
X38000D03*
X39000D03*
X40000D03*
X39000Y32000D03*
X40000D03*
X41000Y31000D03*
Y32000D03*
Y33000D03*
X33000Y35000D03*
X32000D03*
X34000D03*
Y36000D03*
X35000Y35000D03*
Y36000D03*
X36000D03*
Y35000D03*
X37000D03*
X38000D03*
X39000D03*
X40000D03*
X41000D03*
X37000Y36000D03*
X38000D03*
X39000D03*
X40000D03*
M02*
