G04 start of page 3 for group 1 idx 2
G04 Title: bien sucia, solder *
G04 Creator: pcb 20080202 *
G04 CreationDate: Wed Jan 28 23:52:37 2009 UTC *
G04 For: orluke *
G04 Format: Gerber/RS-274X *
G04 PCB-Dimensions: 450000 650000 *
G04 PCB-Coordinate-Origin: lower left *
%MOIN*%
%FSLAX24Y24*%
%LNBACK*%
%ADD11C,0.0250*%
%ADD12C,0.0100*%
%ADD15C,0.1280*%
%ADD16C,0.0700*%
%ADD17C,0.0200*%
%ADD18C,0.0600*%
%ADD19C,0.0350*%
%ADD20C,0.0380*%
G54D11*X40500Y13000D02*X5500D01*
G54D12*X42280Y19000D02*X42856D01*
X42352D02*X42280Y19072D01*
Y19216D01*
X42352Y19288D01*
X42496D01*
X42568Y19216D02*X42496Y19288D01*
X42568Y19072D02*Y19216D01*
X42496Y19000D02*X42568Y19072D01*
X42352Y19460D02*X42496D01*
X42568Y19532D01*
Y19676D01*
X42496Y19748D01*
X42352D02*X42496D01*
X42280Y19676D02*X42352Y19748D01*
X42280Y19532D02*Y19676D01*
X42352Y19460D02*X42280Y19532D01*
X42352Y19993D02*X42856D01*
X42352D02*X42280Y20065D01*
X42640Y19921D02*Y20065D01*
X42352Y20282D02*X42856D01*
X42352D02*X42280Y20354D01*
X42640Y20210D02*Y20354D01*
X42352Y20498D02*X42496D01*
X42568Y20570D01*
Y20714D01*
X42496Y20786D01*
X42352D02*X42496D01*
X42280Y20714D02*X42352Y20786D01*
X42280Y20570D02*Y20714D01*
X42352Y20498D02*X42280Y20570D01*
Y21031D02*X42496D01*
X42568Y21103D01*
Y21175D01*
X42496Y21247D01*
X42280D02*X42496D01*
X42568Y21319D01*
Y21391D01*
X42496Y21463D01*
X42280D02*X42496D01*
X42568Y20959D02*X42496Y21031D01*
X42280Y21967D02*Y22183D01*
X42352Y22255D01*
X42424Y22183D02*X42352Y22255D01*
X42424Y21967D02*Y22183D01*
X42496Y21895D02*X42424Y21967D01*
X42496Y21895D02*X42568Y21967D01*
Y22183D01*
X42496Y22255D01*
X42352Y21895D02*X42280Y21967D01*
X42352Y22428D02*X42568D01*
X42352D02*X42280Y22500D01*
Y22644D01*
X42352Y22716D01*
X42568D01*
X42280Y22961D02*X42496D01*
X42568Y23033D01*
Y23177D01*
Y22889D02*X42496Y22961D01*
X42280Y23422D02*X42784D01*
X42856Y23494D01*
Y23566D01*
X42568Y23350D02*Y23494D01*
Y23926D02*X42496Y23998D01*
X42568Y23782D02*Y23926D01*
X42496Y23710D02*X42568Y23782D01*
X42352Y23710D02*X42496D01*
X42352D02*X42280Y23782D01*
X42352Y23998D02*X42568D01*
X42352D02*X42280Y24070D01*
Y23782D02*Y23926D01*
X42352Y23998D01*
X42568Y24315D02*Y24531D01*
X42496Y24243D02*X42568Y24315D01*
X42352Y24243D02*X42496D01*
X42352D02*X42280Y24315D01*
Y24531D01*
Y24776D02*Y24992D01*
X42352Y24704D02*X42280Y24776D01*
X42352Y24704D02*X42496D01*
X42568Y24776D01*
Y24920D01*
X42496Y24992D01*
X42424Y24704D02*Y24992D01*
X42496D01*
G54D15*X1200Y17200D03*
G54D16*X3000Y18000D03*
X4000D03*
X3000Y17000D03*
X4000D03*
X3000Y14500D03*
X4000D03*
X5000D03*
Y17000D03*
X3000Y20000D03*
Y19000D03*
X5000Y20000D03*
Y19000D03*
X4000Y20000D03*
Y19000D03*
X11000Y24000D03*
Y23000D03*
X10000Y24000D03*
Y23000D03*
X8000Y24000D03*
Y23000D03*
Y22000D03*
Y25000D03*
X9000Y24000D03*
Y23000D03*
Y22000D03*
Y25000D03*
X11000Y22000D03*
Y21000D03*
Y20000D03*
X10000Y22000D03*
Y21000D03*
Y20000D03*
X6000Y24000D03*
X5000D03*
Y23000D03*
X6000Y25000D03*
X5000D03*
X7000Y24000D03*
X6000Y23000D03*
X7000D03*
Y25000D03*
X3000Y24000D03*
X4000D03*
X3000Y23000D03*
X4000D03*
X3000Y25000D03*
X4000D03*
X6000Y22000D03*
X5000D03*
X4000D03*
X7000D03*
X3000D03*
Y21000D03*
X4000D03*
X17000Y18000D03*
X18000D03*
X19000D03*
X16000D03*
X20000Y17000D03*
Y19000D03*
Y18000D03*
Y21000D03*
Y20000D03*
X16000Y17000D03*
X17000D03*
X18000D03*
X19000D03*
X17000Y19000D03*
X16000Y21000D03*
X17000D03*
X18000D03*
X19000D03*
X16000Y20000D03*
X18000Y19000D03*
X19000D03*
X14000Y20000D03*
X15000D03*
X17000D03*
X18000D03*
X19000D03*
X16000Y19000D03*
X12000D03*
X13000D03*
X14000D03*
X15000D03*
X12000Y18000D03*
Y21000D03*
Y20000D03*
X13000Y18000D03*
Y21000D03*
X14000D03*
X15000D03*
X13000Y20000D03*
X12000Y17000D03*
X13000D03*
X14000D03*
Y18000D03*
X15000D03*
Y17000D03*
X13000Y14500D03*
X14000D03*
X15000D03*
X16000D03*
X17000D03*
X18000D03*
X19000D03*
X20000D03*
X18500Y11500D03*
X18000Y10500D03*
G54D15*X19000Y8000D03*
G54D16*X16500Y11500D03*
X16000Y10500D03*
X17000D03*
G54D17*G36*
X14650Y10850D02*Y10150D01*
X15350D01*
Y10850D01*
X14650D01*
G37*
G54D16*X15500Y11500D03*
G54D15*X14500Y8000D03*
G54D16*X17500Y11500D03*
X20000Y24000D03*
X17000D03*
X18000D03*
X19000D03*
X20000Y23000D03*
X19000D03*
X20000Y22000D03*
X19000D03*
X16000Y23000D03*
X17000D03*
X18000D03*
X17000Y22000D03*
X18000D03*
X20000Y25000D03*
X16000D03*
X17000D03*
X18000D03*
X19000D03*
X16000Y24000D03*
X12000D03*
X13000D03*
X14000D03*
X15000D03*
X12000Y23000D03*
Y22000D03*
X13000D03*
Y23000D03*
X14000D03*
X15000D03*
X16000Y22000D03*
X14000D03*
X15000D03*
X20000Y27000D03*
X18000D03*
X19000D03*
X20000Y26000D03*
X18000D03*
X19000D03*
X16000Y27000D03*
X17000D03*
X16000Y26000D03*
X17000D03*
X11000Y27000D03*
X12000D03*
X13000D03*
X14000D03*
X15000D03*
X10000D03*
X11000Y26000D03*
X10000D03*
X12000D03*
X13000D03*
X14000D03*
X15000D03*
X11000Y25000D03*
X10000D03*
X12000D03*
X13000D03*
X14000D03*
X15000D03*
X8000Y14500D03*
Y18000D03*
Y17000D03*
X9000Y14500D03*
Y18000D03*
Y17000D03*
X10000Y14500D03*
X8000Y19000D03*
X9000D03*
X11000Y17000D03*
X10000D03*
X11000Y19000D03*
X10000D03*
X11000Y18000D03*
X10000D03*
X6000Y14500D03*
X7000D03*
X6000Y18000D03*
X5000D03*
X6000Y17000D03*
X7000D03*
X6000Y20000D03*
X7000D03*
X8000D03*
X9000D03*
X7000Y18000D03*
X6000Y19000D03*
X7000D03*
X6000Y21000D03*
X5000D03*
X7000D03*
X8000D03*
X9000D03*
X8500Y11500D03*
X8000Y10500D03*
X6500Y11500D03*
X6000Y10500D03*
X7000D03*
X7500Y11500D03*
G54D17*G36*
X4650Y10850D02*Y10150D01*
X5350D01*
Y10850D01*
X4650D01*
G37*
G54D16*X5500Y11500D03*
G54D15*X4500Y8000D03*
X9000D03*
X42600Y44400D03*
G54D16*X41000Y47000D03*
Y35000D03*
Y46000D03*
Y45000D03*
Y44000D03*
Y43000D03*
Y36000D03*
Y37000D03*
Y38000D03*
Y39000D03*
Y40000D03*
Y41000D03*
Y42000D03*
X36000Y39000D03*
X37000D03*
X38000D03*
X39000D03*
X40000D03*
X34000Y35000D03*
X35000D03*
X36000D03*
X37000D03*
X38000D03*
X39000D03*
X40000D03*
Y40000D03*
Y41000D03*
X37000D03*
X36000Y40000D03*
X37000D03*
X38000D03*
X39000D03*
X38000Y41000D03*
X39000D03*
X37000Y42000D03*
X38000D03*
X39000D03*
X40000D03*
X36000Y41000D03*
X35000Y42000D03*
X36000D03*
X34000D03*
Y43000D03*
Y47000D03*
Y46000D03*
X35000Y44000D03*
X36000D03*
X35000Y43000D03*
X36000D03*
Y46000D03*
X37000Y44000D03*
X38000D03*
X39000D03*
X40000D03*
X37000Y43000D03*
X38000D03*
X39000D03*
X40000D03*
X35000Y47000D03*
X36000D03*
X35000Y46000D03*
X37000Y47000D03*
X38000D03*
X37000Y46000D03*
X38000D03*
X39000Y47000D03*
X40000D03*
X39000Y46000D03*
X40000D03*
X33000Y41000D03*
X32000D03*
X33000Y40000D03*
X34000D03*
X35000D03*
X32000D03*
X33000Y39000D03*
X32000D03*
X34000D03*
X35000D03*
X34000Y41000D03*
X35000D03*
X33000Y34000D03*
Y33000D03*
Y32000D03*
Y31000D03*
X34000Y32000D03*
Y33000D03*
Y34000D03*
X35000Y32000D03*
Y33000D03*
Y34000D03*
X34000Y36000D03*
X35000D03*
X36000D03*
X37000D03*
X38000D03*
X39000D03*
X40000D03*
X36000Y32000D03*
Y33000D03*
Y34000D03*
X37000Y32000D03*
Y33000D03*
X38000D03*
X39000D03*
X40000D03*
X38000Y32000D03*
X39000D03*
X40000D03*
X37000Y34000D03*
X38000D03*
X39000D03*
X40000D03*
X33000Y38000D03*
Y37000D03*
Y36000D03*
X34000Y37000D03*
Y38000D03*
X35000D03*
Y37000D03*
X36000D03*
X37000D03*
X38000D03*
X39000D03*
X40000D03*
X36000Y38000D03*
X37000D03*
X38000D03*
X39000D03*
X40000D03*
X32000Y36000D03*
Y37000D03*
Y38000D03*
X33000Y30000D03*
Y29000D03*
X34000D03*
Y30000D03*
X35000D03*
X36000D03*
X37000D03*
X38000D03*
X34000Y31000D03*
X35000D03*
X36000D03*
X37000D03*
X38000D03*
X32000Y29000D03*
Y30000D03*
Y31000D03*
Y32000D03*
Y33000D03*
Y34000D03*
X35000Y29000D03*
X36000D03*
X37000D03*
X38000D03*
X36000Y27000D03*
X39000D03*
Y26000D03*
Y25000D03*
X36000Y26000D03*
Y25000D03*
X35000D03*
X37000D03*
X38000D03*
X32000Y27000D03*
X33000D03*
X34000D03*
X35000D03*
Y26000D03*
X37000Y27000D03*
X38000D03*
X37000Y26000D03*
X38000D03*
X32000D03*
X33000D03*
X34000D03*
X32000Y25000D03*
X33000D03*
X34000D03*
X39000Y29000D03*
Y30000D03*
Y31000D03*
X40000Y29000D03*
Y30000D03*
Y31000D03*
Y27000D03*
Y26000D03*
Y25000D03*
X41000Y27000D03*
Y26000D03*
Y25000D03*
Y29000D03*
Y30000D03*
Y31000D03*
Y32000D03*
Y33000D03*
Y34000D03*
X28000Y51000D03*
X30000D03*
X29000D03*
X27000D03*
Y50000D03*
Y52000D03*
Y53000D03*
X30000Y49000D03*
Y50000D03*
Y52000D03*
Y53000D03*
X29000D03*
X28000D03*
X29000Y52000D03*
X28000D03*
Y54000D03*
X27000D03*
X30000D03*
X29000D03*
X30000Y45000D03*
Y48000D03*
Y46000D03*
Y47000D03*
X27000Y48000D03*
Y49000D03*
Y45000D03*
Y46000D03*
Y47000D03*
X29000Y49000D03*
Y50000D03*
Y45000D03*
Y46000D03*
Y47000D03*
Y48000D03*
X28000Y49000D03*
Y50000D03*
Y45000D03*
Y46000D03*
Y47000D03*
Y48000D03*
X30000Y38000D03*
Y37000D03*
X31000Y38000D03*
Y34000D03*
Y37000D03*
Y36000D03*
X29000D03*
X28000D03*
X27000D03*
X29000Y37000D03*
X28000D03*
X27000D03*
X31000Y33000D03*
Y32000D03*
Y31000D03*
Y30000D03*
Y29000D03*
G54D15*X30000Y28000D03*
G54D16*Y40000D03*
X31000Y41000D03*
Y40000D03*
Y39000D03*
X30000D03*
X29000Y38000D03*
Y39000D03*
X28000Y38000D03*
X27000D03*
X28000Y39000D03*
X27000D03*
X29000Y40000D03*
X28000D03*
X27000D03*
X30000Y41000D03*
X29000D03*
X30000Y44000D03*
X29000D03*
X28000D03*
X27000D03*
X30000Y42000D03*
Y43000D03*
X29000Y42000D03*
Y43000D03*
X28000Y41000D03*
X27000D03*
X28000Y42000D03*
X27000D03*
X28000Y43000D03*
X27000D03*
X34000Y51000D03*
X35000D03*
X36000D03*
X34000Y50000D03*
X35000D03*
X36000D03*
X37000Y51000D03*
X38000D03*
X39000D03*
X37000Y50000D03*
X38000D03*
X39000D03*
X36000Y49000D03*
X37000D03*
X38000D03*
X39000D03*
X34000Y52000D03*
X35000D03*
X36000D03*
X37000D03*
X38000D03*
X39000D03*
X41000Y51000D03*
Y52000D03*
Y50000D03*
Y48000D03*
Y49000D03*
X34000Y54000D03*
X35000D03*
X36000D03*
X37000D03*
X38000D03*
X39000D03*
X40000D03*
X41000D03*
X34000Y53000D03*
X35000D03*
X36000D03*
X37000D03*
X38000D03*
X39000D03*
X40000D03*
X41000D03*
X40000Y52000D03*
X37000Y45000D03*
X38000D03*
X39000D03*
X40000Y51000D03*
Y50000D03*
Y48000D03*
Y49000D03*
Y45000D03*
X34000Y48000D03*
Y49000D03*
X35000D03*
Y48000D03*
X36000D03*
X37000D03*
X38000D03*
X39000D03*
X34000Y45000D03*
X35000D03*
X36000D03*
X34000Y44000D03*
X33000Y24000D03*
X34000D03*
X35000D03*
X36000D03*
X31000D03*
X30000D03*
X32000D03*
X36000Y23000D03*
X35000D03*
X37000D03*
X36000Y22000D03*
X37000D03*
X36000Y21000D03*
X34000Y23000D03*
Y22000D03*
X35000D03*
X33000Y21000D03*
X34000D03*
X35000Y20000D03*
X36000Y19000D03*
X34000D03*
X31000D03*
X30000D03*
X32000D03*
X33000D03*
X31000Y18000D03*
X30000D03*
Y17000D03*
X32000Y18000D03*
Y17000D03*
G54D15*X42600Y17200D03*
G54D16*X31000Y17000D03*
X40000Y23000D03*
Y22000D03*
Y21000D03*
X37000Y24000D03*
X38000D03*
X39000D03*
X41000D03*
X40000D03*
X41000Y23000D03*
X38000D03*
Y22000D03*
Y21000D03*
Y20000D03*
Y19000D03*
Y18000D03*
X39000Y23000D03*
Y22000D03*
Y21000D03*
Y20000D03*
Y19000D03*
Y18000D03*
X41000Y22000D03*
Y21000D03*
Y20000D03*
Y19000D03*
Y18000D03*
Y17000D03*
X40000Y20000D03*
Y19000D03*
Y18000D03*
Y17000D03*
Y14500D03*
X38000Y17000D03*
Y14500D03*
X38500Y11500D03*
X38000Y10500D03*
X39000Y17000D03*
Y14500D03*
G54D15*Y8000D03*
G54D16*X37000Y21000D03*
Y20000D03*
Y19000D03*
Y18000D03*
Y17000D03*
X35000Y19000D03*
Y18000D03*
Y17000D03*
Y14500D03*
G54D17*G36*
X34650Y10850D02*Y10150D01*
X35350D01*
Y10850D01*
X34650D01*
G37*
G54D15*X34500Y8000D03*
G54D16*X36000Y18000D03*
Y17000D03*
Y14500D03*
X36500Y11500D03*
X36000Y10500D03*
X35500Y11500D03*
X33000Y18000D03*
Y17000D03*
Y14500D03*
X34000Y18000D03*
Y17000D03*
Y14500D03*
X37000D03*
Y10500D03*
X37500Y11500D03*
X26000Y24000D03*
X23000D03*
X25000D03*
X24000D03*
X27000D03*
X28000D03*
X29000D03*
X31000Y23000D03*
X30000D03*
X32000D03*
X33000D03*
X29000D03*
X26000D03*
X23000D03*
X25000D03*
X24000D03*
X27000D03*
X28000D03*
X31000Y22000D03*
X30000D03*
X32000D03*
X33000D03*
X26000D03*
X25000D03*
X24000D03*
X27000D03*
X28000D03*
X29000D03*
X23000D03*
X31000Y21000D03*
X30000D03*
X32000D03*
X26000D03*
X23000D03*
X25000D03*
X24000D03*
X27000D03*
X28000D03*
X29000D03*
X35000D03*
X36000Y20000D03*
X34000D03*
X31000D03*
X30000D03*
X32000D03*
X33000D03*
X29000D03*
X26000D03*
X23000D03*
X25000D03*
X24000D03*
X23000Y19000D03*
X24000D03*
X23000Y18000D03*
X24000D03*
X25000Y19000D03*
Y18000D03*
X23000Y27000D03*
Y26000D03*
Y25000D03*
X25000Y27000D03*
X26000Y26000D03*
X25000D03*
X26000Y25000D03*
X25000D03*
X24000Y27000D03*
Y26000D03*
Y25000D03*
X27000Y20000D03*
X26000Y19000D03*
X27000D03*
X28000Y20000D03*
Y19000D03*
Y18000D03*
Y27000D03*
Y26000D03*
Y25000D03*
X29000Y19000D03*
Y18000D03*
Y27000D03*
Y26000D03*
Y25000D03*
X26000Y18000D03*
X27000D03*
X26000Y17000D03*
X27000D03*
X29000D03*
X23000D03*
Y14500D03*
X25000Y17000D03*
Y14500D03*
X26000D03*
X24000Y17000D03*
Y14500D03*
X27000D03*
X28000D03*
X29000D03*
X30000D03*
X28000Y17000D03*
X28500Y11500D03*
X28000Y10500D03*
X26500Y11500D03*
X26000Y10500D03*
X27000D03*
G54D17*G36*
X24650Y10850D02*Y10150D01*
X25350D01*
Y10850D01*
X24650D01*
G37*
G54D16*X25500Y11500D03*
X27500D03*
G54D15*X24500Y8000D03*
X29000D03*
G54D16*X30000Y36000D03*
X31000Y27000D03*
Y26000D03*
X30000D03*
X31000Y25000D03*
X30000D03*
X26000Y27000D03*
X27000D03*
Y26000D03*
Y25000D03*
G54D15*X22250Y32250D03*
G54D16*X23000Y39000D03*
X22000D03*
Y40000D03*
Y41000D03*
X23000Y40000D03*
Y41000D03*
Y42000D03*
X21000Y39000D03*
Y40000D03*
Y41000D03*
Y42000D03*
Y43000D03*
Y44000D03*
X22000Y42000D03*
Y43000D03*
Y44000D03*
Y45000D03*
X21000Y38000D03*
Y36000D03*
X24000D03*
Y38000D03*
Y39000D03*
Y37000D03*
X23000Y36000D03*
Y38000D03*
X22000D03*
Y36000D03*
X23000Y37000D03*
X22000D03*
X21000D03*
X26000Y36000D03*
Y37000D03*
X25000Y36000D03*
Y37000D03*
X26000Y38000D03*
Y39000D03*
Y40000D03*
X21000Y45000D03*
X23000Y43000D03*
Y44000D03*
Y45000D03*
X22000Y46000D03*
Y47000D03*
Y48000D03*
X23000Y46000D03*
Y47000D03*
Y48000D03*
X24000Y40000D03*
Y41000D03*
Y42000D03*
Y43000D03*
Y44000D03*
Y45000D03*
Y46000D03*
Y47000D03*
Y48000D03*
Y49000D03*
Y50000D03*
Y51000D03*
Y52000D03*
Y53000D03*
Y54000D03*
X25000Y38000D03*
Y39000D03*
Y40000D03*
Y41000D03*
Y42000D03*
Y43000D03*
X26000Y41000D03*
Y42000D03*
Y43000D03*
X25000Y44000D03*
Y45000D03*
Y46000D03*
X21000D03*
Y47000D03*
Y48000D03*
Y49000D03*
Y50000D03*
Y51000D03*
X22000Y49000D03*
Y50000D03*
Y51000D03*
X23000Y49000D03*
Y50000D03*
Y51000D03*
Y52000D03*
X22000D03*
Y53000D03*
Y54000D03*
X21000Y52000D03*
Y53000D03*
Y54000D03*
X23000Y53000D03*
Y54000D03*
X26000Y44000D03*
Y45000D03*
Y46000D03*
Y47000D03*
X25000D03*
Y48000D03*
Y49000D03*
X26000Y48000D03*
Y49000D03*
Y50000D03*
Y51000D03*
Y52000D03*
Y53000D03*
X25000Y50000D03*
Y51000D03*
Y52000D03*
Y53000D03*
X26000Y54000D03*
X25000D03*
G54D15*X1200Y44400D03*
G54D16*X3000Y38000D03*
Y39000D03*
Y40000D03*
Y41000D03*
Y42000D03*
Y43000D03*
Y44000D03*
Y45000D03*
X12000Y41000D03*
Y40000D03*
Y39000D03*
Y38000D03*
X11000D03*
Y39000D03*
X10000D03*
Y38000D03*
X9000D03*
Y39000D03*
Y40000D03*
Y41000D03*
Y43000D03*
Y44000D03*
Y45000D03*
X11000Y40000D03*
Y41000D03*
Y43000D03*
Y44000D03*
Y45000D03*
X10000Y40000D03*
Y41000D03*
Y43000D03*
Y44000D03*
Y45000D03*
X6000Y38000D03*
X5000D03*
X4000D03*
X7000D03*
X8000D03*
X7000Y39000D03*
X8000D03*
X6000D03*
X5000D03*
X4000D03*
X6000Y40000D03*
X5000D03*
X4000D03*
X7000D03*
X5000Y41000D03*
X4000D03*
X5000Y42000D03*
X4000D03*
X8000Y40000D03*
Y41000D03*
X6000D03*
X7000D03*
X6000Y42000D03*
X7000D03*
X8000D03*
X9000D03*
X6000Y43000D03*
X5000D03*
X4000D03*
X7000D03*
X5000Y44000D03*
X8000Y43000D03*
Y44000D03*
X6000D03*
X7000D03*
X6000Y45000D03*
X7000D03*
X8000D03*
X4000Y44000D03*
X5000Y45000D03*
X4000D03*
X18000Y38000D03*
Y39000D03*
X19000D03*
X20000D03*
X18000Y40000D03*
X19000D03*
X20000D03*
X19000Y38000D03*
X20000D03*
X18000Y36000D03*
X19000D03*
X20000D03*
X18000Y37000D03*
X19000D03*
X20000D03*
X15000Y38000D03*
X17000D03*
X16000D03*
X15000Y39000D03*
Y40000D03*
Y41000D03*
Y36000D03*
Y37000D03*
X17000Y39000D03*
Y40000D03*
Y41000D03*
Y36000D03*
Y37000D03*
X16000Y39000D03*
Y40000D03*
Y36000D03*
Y37000D03*
X13000Y42500D03*
Y41500D03*
Y40500D03*
Y39500D03*
Y38500D03*
Y37500D03*
Y36000D03*
Y35000D03*
Y34000D03*
Y33000D03*
Y31000D03*
Y30000D03*
Y29000D03*
Y32000D03*
X14000Y36000D03*
Y35000D03*
Y34000D03*
Y33000D03*
Y32000D03*
Y31000D03*
Y30000D03*
Y29000D03*
Y40000D03*
Y39000D03*
Y38000D03*
X16000Y41000D03*
Y42000D03*
Y43000D03*
X13000Y44500D03*
Y43500D03*
X14000Y45000D03*
Y44000D03*
Y43000D03*
Y42000D03*
Y41000D03*
G54D15*X13000Y48000D03*
G54D16*X18000Y41000D03*
X19000D03*
X20000D03*
X18000Y42000D03*
X19000D03*
X20000D03*
X18000Y43000D03*
Y44000D03*
Y45000D03*
X19000Y43000D03*
Y44000D03*
Y45000D03*
X20000Y43000D03*
Y44000D03*
Y45000D03*
X15000Y42000D03*
Y43000D03*
Y44000D03*
Y45000D03*
Y46000D03*
Y47000D03*
X17000Y42000D03*
Y43000D03*
Y44000D03*
Y45000D03*
Y46000D03*
Y47000D03*
X16000Y44000D03*
Y45000D03*
Y46000D03*
Y47000D03*
X18000Y46000D03*
Y47000D03*
Y48000D03*
Y49000D03*
X19000Y46000D03*
Y47000D03*
Y48000D03*
Y49000D03*
X20000Y46000D03*
Y47000D03*
Y48000D03*
Y49000D03*
X18000Y50000D03*
Y51000D03*
Y52000D03*
Y53000D03*
Y54000D03*
X19000Y50000D03*
Y51000D03*
Y52000D03*
Y53000D03*
Y54000D03*
X20000Y50000D03*
Y51000D03*
Y52000D03*
Y53000D03*
Y54000D03*
X15000Y48000D03*
Y49000D03*
Y50000D03*
X17000Y48000D03*
Y49000D03*
Y50000D03*
Y51000D03*
Y52000D03*
Y53000D03*
X16000Y48000D03*
Y49000D03*
Y50000D03*
Y51000D03*
Y52000D03*
Y53000D03*
X15000Y51000D03*
Y52000D03*
Y53000D03*
Y54000D03*
X17000D03*
X16000D03*
X12000Y36000D03*
Y35000D03*
Y34000D03*
Y33000D03*
Y32000D03*
Y31000D03*
Y30000D03*
X9000D03*
Y31000D03*
Y32000D03*
Y33000D03*
Y34000D03*
Y35000D03*
X11000Y31000D03*
Y32000D03*
Y33000D03*
Y34000D03*
Y35000D03*
Y36000D03*
X10000Y33000D03*
Y34000D03*
Y35000D03*
Y36000D03*
X9000D03*
Y37000D03*
X11000D03*
X10000D03*
X12000Y29000D03*
X11000D03*
X10000D03*
X9000Y26000D03*
X11000Y30000D03*
X10000D03*
Y31000D03*
Y32000D03*
X3000Y27000D03*
X5000D03*
X4000D03*
X3000Y26000D03*
X5000D03*
X4000D03*
X3000Y29000D03*
X7000Y27000D03*
X8000D03*
X9000D03*
X6000D03*
Y26000D03*
X7000D03*
X8000D03*
X7000Y29000D03*
X8000D03*
X9000D03*
X6000D03*
X5000D03*
X4000D03*
X6000Y30000D03*
X5000D03*
X4000D03*
X3000D03*
Y31000D03*
Y32000D03*
X6000Y31000D03*
X5000D03*
X4000D03*
X7000Y30000D03*
X8000D03*
Y31000D03*
Y32000D03*
Y33000D03*
Y34000D03*
X7000Y31000D03*
Y32000D03*
Y33000D03*
X6000Y34000D03*
X7000D03*
X6000Y35000D03*
X7000D03*
X8000D03*
Y36000D03*
Y37000D03*
X6000Y36000D03*
X7000D03*
X6000Y37000D03*
X7000D03*
X6000Y32000D03*
X5000D03*
X4000D03*
X6000Y33000D03*
X5000D03*
X4000D03*
X3000D03*
Y35000D03*
Y36000D03*
Y34000D03*
X4000D03*
X5000D03*
Y35000D03*
X4000D03*
X5000Y36000D03*
X4000D03*
X3000Y37000D03*
X4000D03*
X5000D03*
X4000Y48000D03*
X5000Y47000D03*
X4000D03*
X5000Y48000D03*
X3000Y49000D03*
X4000D03*
X3000Y50000D03*
X4000D03*
X3000Y51000D03*
Y46000D03*
X5000D03*
X4000D03*
X3000Y47000D03*
Y48000D03*
X11000Y49000D03*
Y50000D03*
X10000D03*
Y49000D03*
X9000D03*
X11000Y48000D03*
X10000D03*
X9000D03*
X8000D03*
X12000Y45000D03*
Y44000D03*
Y43000D03*
Y42000D03*
X11000D03*
X10000D03*
X11000Y46000D03*
Y47000D03*
X10000D03*
X9000D03*
X10000Y46000D03*
X9000D03*
X6000Y49000D03*
X5000D03*
Y50000D03*
X7000Y49000D03*
X8000D03*
X6000Y50000D03*
X7000D03*
X8000D03*
X6000Y46000D03*
X7000D03*
X8000D03*
X6000Y47000D03*
Y48000D03*
X7000D03*
Y47000D03*
X8000D03*
X4000Y51000D03*
X6000D03*
X7000D03*
X5000D03*
X6000Y52000D03*
X7000D03*
X5000D03*
X3000D03*
Y53000D03*
Y54000D03*
X4000Y52000D03*
Y53000D03*
Y54000D03*
X6000Y53000D03*
X5000D03*
X6000Y54000D03*
X5000D03*
X7000Y53000D03*
Y54000D03*
X9000Y50000D03*
X10000Y51000D03*
X8000D03*
X9000D03*
X8000Y52000D03*
X9000D03*
X11000Y51000D03*
Y52000D03*
X10000D03*
X11000Y53000D03*
X10000D03*
X8000D03*
Y54000D03*
X9000Y53000D03*
Y54000D03*
X11000D03*
X10000D03*
G54D18*X35500Y13000D03*
X25500D03*
X15500D03*
X5500D03*
X40500D03*
G54D15*G54D19*G54D20*G54D19*G54D20*G54D19*G54D15*G54D19*G54D15*G54D19*G54D20*G54D19*G54D20*G54D19*G54D20*G54D19*G54D20*G54D19*G54D15*G54D19*G54D15*G54D19*G54D15*G54D19*G54D20*G54D19*G54D20*G54D19*G54D20*G54D15*G54D19*G54D20*G54D19*G54D15*G54D19*G54D20*G54D19*G54D20*G54D19*G54D20*G54D19*G54D20*G54D19*G54D20*G54D19*G54D20*G54D19*G54D15*G54D19*G54D15*G54D19*G54D15*G54D19*G54D15*G54D19*M02*
