G04 start of page 2 for group 0 idx 0
G04 Title: 305 style, outline *
G04 Creator: pcb 20080202 *
G04 CreationDate: Thu Jan 29 15:55:23 2009 UTC *
G04 For: orluke *
G04 Format: Gerber/RS-274X *
G04 PCB-Dimensions: 450000 650000 *
G04 PCB-Coordinate-Origin: lower left *
%MOIN*%
%FSLAX24Y24*%
%LNFRONT*%
%ADD11C,0.0250*%
%ADD12C,0.0100*%
%ADD13C,0.0060*%
%ADD14C,0.0100*%
%ADD15C,0.1280*%
%ADD16C,0.0700*%
%ADD17C,0.0200*%
%ADD18C,0.0600*%
%ADD19C,0.0350*%
%ADD20C,0.0380*%
G54D11*X34500Y9000D02*X25500D01*
X24500D02*X15500D01*
X15000Y9500D01*
X14500Y9000D01*
X5500D01*
X5000Y9500D01*
X5500Y13000D02*X4000Y14500D01*
G54D12*X5000D02*Y15000D01*
X5500Y15500D01*
G54D11*X5000Y9500D02*Y10500D01*
X4500Y11000D01*
Y13000D01*
X5500D02*Y11500D01*
X4500Y13000D02*X3000Y14500D01*
X14500Y13000D02*X13000Y14500D01*
X15000Y9500D02*Y10500D01*
X15100Y10400D02*X14500Y11000D01*
Y13000D01*
X15500D02*Y11500D01*
G54D12*X15000Y16000D02*X20250D01*
X15500Y15500D02*X20750D01*
X5500D02*X14500D01*
X8000Y13500D02*X9000Y14500D01*
X8500Y13000D02*X10000Y14500D01*
X8500Y11500D02*Y13000D01*
X6000Y10500D02*Y13500D01*
X5000Y14500D01*
X6500Y11500D02*Y14000D01*
X6000Y14500D01*
X7000Y10500D02*Y14500D01*
X7500Y11500D02*Y14000D01*
X8000Y10500D02*Y13500D01*
X7500Y14000D02*X8000Y14500D01*
X18000Y13500D02*X19000Y14500D01*
X18500Y13000D02*X20000Y14500D01*
X18500Y11500D02*Y13000D01*
X16000Y10500D02*Y13500D01*
X15000Y14500D01*
X16500Y11500D02*Y14000D01*
X14500Y15500D02*X15000Y16000D01*
Y14500D02*Y15000D01*
X15500Y15500D01*
G54D11*Y13000D02*X14000Y14500D01*
G54D12*X16500Y14000D02*X16000Y14500D01*
X17000Y10500D02*Y14500D01*
X17500Y11500D02*Y14000D01*
X18000Y14500D01*
Y10500D02*Y13500D01*
X20250Y16000D02*X20750Y16500D01*
Y15500D02*X21250Y16000D01*
X22250Y15500D02*X21750Y16000D01*
X22750D02*X22250Y16500D01*
X24500Y15500D02*X22250D01*
X25000Y16000D02*X22750D01*
X25000Y15000D02*X24500Y15500D01*
X25500D02*X25000Y16000D01*
X28000Y13500D02*X29000Y14500D01*
X28500Y13000D02*X30000Y14500D01*
X28500Y11500D02*Y13000D01*
X25000Y14500D02*Y15000D01*
X26000Y10500D02*Y13500D01*
X37500Y14000D02*X38000Y14500D01*
X35000Y15000D02*X34500Y15500D01*
G54D11*X35500Y13000D02*X34000Y14500D01*
G54D12*X36000Y13500D02*X35000Y14500D01*
X36500Y14000D02*X36000Y14500D01*
X35000D02*Y15000D01*
G54D11*X35500Y9000D02*X35000Y9500D01*
X34500Y9000D01*
X35000Y9500D02*Y10500D01*
X34500Y11000D01*
Y13000D01*
X35500D02*Y11500D01*
G54D12*X38500D02*Y13000D01*
X36000Y10500D02*Y13500D01*
X36500Y11500D02*Y14000D01*
X37000Y10500D02*Y14500D01*
X37500Y11500D02*Y14000D01*
X38000Y10500D02*Y13500D01*
X26500Y11500D02*Y14000D01*
X27000Y10500D02*Y14500D01*
X27500Y11500D02*Y14000D01*
X28000Y10500D02*Y13500D01*
X26000D02*X25000Y14500D01*
X26500Y14000D02*X26000Y14500D01*
X27500Y14000D02*X28000Y14500D01*
X34500Y15500D02*X25500D01*
G54D11*X34500Y13000D02*X33000Y14500D01*
X25500Y9000D02*X25000Y9500D01*
Y10500D01*
Y9500D02*X24500Y9000D01*
X25100Y10400D02*X24500Y11000D01*
Y13000D01*
X23000Y14500D01*
X25500Y13000D02*X24000Y14500D01*
X25500Y13000D02*Y11500D01*
G54D13*X23000Y28500D02*X30500D01*
G54D12*X38000Y13500D02*X39000Y14500D01*
X38500Y13000D02*X40000Y14500D01*
G54D11*X42500Y15000D02*Y11000D01*
X40500Y9000D02*X42500Y11000D01*
X41500Y15000D02*Y14000D01*
X40500Y13000D01*
Y9000D02*X35500D01*
X41000Y40000D02*Y38750D01*
Y16500D02*X42500Y15000D01*
X40000Y16500D02*X41500Y15000D01*
X41000Y16500D02*Y39000D01*
X40000Y16500D02*Y39000D01*
G54D13*X31500Y29500D02*X32500D01*
G54D11*X31000Y40000D02*X41000D01*
X40000Y39000D02*X31000D01*
X40000Y38000D02*X31000D01*
G54D13*X30500Y28500D02*X31500Y29500D01*
X32500Y35500D02*Y36500D01*
G54D12*X33000Y35000D02*X31000D01*
X33000Y37000D02*X31000D01*
X30500Y36500D02*Y38500D01*
X30000Y36000D02*X30500Y36500D01*
X31000Y38000D02*X30500Y38500D01*
X33000Y32000D02*X31000D01*
X33000Y33000D02*X31000D01*
X33000Y34000D02*X31000D01*
X33000Y31000D02*X31000D01*
X30500Y38500D02*X31000Y39000D01*
X33000Y41000D02*X31000D01*
X33000Y42000D02*X31000D01*
X33000Y30000D02*X31000D01*
X21750Y16000D02*Y29500D01*
X22250Y16500D02*Y30000D01*
X21250Y16000D02*Y29000D01*
X20750Y16500D02*Y28500D01*
X12500Y38500D02*X13500D01*
X12500D02*X12000Y39000D01*
X13500Y38500D02*X14000Y39000D01*
X12500Y39500D02*X13500D01*
X12500D02*X12000Y40000D01*
X13500Y39500D02*X14000Y40000D01*
X12500Y40500D02*X13500D01*
X12500Y41500D02*X13500D01*
X12500Y40500D02*X12000Y41000D01*
X13500Y40500D02*X14000Y41000D01*
X12500Y41500D02*X12000Y42000D01*
X13500Y41500D02*X14000Y42000D01*
X14500Y44500D02*Y36500D01*
X12000Y30000D02*X14000D01*
G54D13*X12500Y29500D02*X16500D01*
G54D12*X12000Y31000D02*X14000D01*
G54D13*X16500Y29500D02*X17500Y28500D01*
X20000D01*
G54D12*X21250Y29000D02*X17250Y33000D01*
X22250Y30000D02*X17250Y35000D01*
X21750Y29500D02*X17250Y34000D01*
X20750Y28500D02*X17250Y32000D01*
X12000D01*
G54D13*X12500Y37500D02*Y38000D01*
G54D12*X12000Y36000D02*X14000D01*
X12000Y37000D02*X14000D01*
X14500Y36500D02*X15000Y36000D01*
X17250Y35000D02*X12000D01*
X17250Y33000D02*X12000D01*
X17250Y34000D02*X12000D01*
X30000Y36000D02*X15000D01*
X12500Y45500D02*X13500D01*
G54D11*X12000Y45000D02*X12500Y44500D01*
G54D12*Y45500D02*X12000Y46000D01*
X12500Y42500D02*X13500D01*
X12500Y43500D02*X13500D01*
X14000Y44000D01*
X12500Y42500D02*X12000Y43000D01*
X13500Y42500D02*X14000Y43000D01*
X12500Y43500D02*X12000Y44000D01*
X13500Y45500D02*X14000Y46000D01*
G54D11*X12500Y44500D02*X13500D01*
X14000Y45000D01*
G54D12*X14500Y44500D01*
G54D13*X12500Y46500D02*Y54000D01*
X32500Y42500D02*Y54000D01*
G54D12*X42180Y19090D02*X42810D01*
X42900Y19180D01*
X42450D02*Y19000D01*
X42630Y19360D02*X42810D01*
X42630D02*X42540Y19450D01*
Y19630D02*Y19450D01*
Y19630D02*X42630Y19720D01*
X42810D01*
X42900Y19630D02*X42810Y19720D01*
X42900Y19630D02*Y19450D01*
X42810Y19360D02*X42900Y19450D01*
X42630Y20026D02*X43170D01*
X42540Y19936D02*X42630Y20026D01*
X42540Y20116D01*
Y20296D02*Y20116D01*
Y20296D02*X42630Y20386D01*
X42810D01*
X42900Y20296D02*X42810Y20386D01*
X42900Y20296D02*Y20116D01*
X42810Y20026D02*X42900Y20116D01*
Y21286D02*Y21016D01*
Y21286D02*X42810Y21376D01*
X42720Y21286D02*X42810Y21376D01*
X42720Y21286D02*Y21016D01*
X42630Y20926D02*X42720Y21016D01*
X42630Y20926D02*X42540Y21016D01*
Y21286D02*Y21016D01*
Y21286D02*X42630Y21376D01*
X42810Y20926D02*X42900Y21016D01*
X42540Y21592D02*X42810D01*
X42900Y21682D01*
Y21862D02*Y21682D01*
Y21862D02*X42810Y21952D01*
X42540D02*X42810D01*
X42630Y22258D02*X42900D01*
X42630D02*X42540Y22348D01*
Y22528D02*Y22348D01*
Y22168D02*X42630Y22258D01*
X42270Y22835D02*X42900D01*
X42270D02*X42180Y22925D01*
Y23015D02*Y22925D01*
X42540D02*Y22745D01*
Y23465D02*X42630Y23555D01*
X42540Y23465D02*Y23285D01*
X42630Y23195D02*X42540Y23285D01*
X42630Y23195D02*X42810D01*
X42900Y23285D01*
X42540Y23555D02*X42810D01*
X42900Y23645D01*
Y23465D02*Y23285D01*
Y23465D02*X42810Y23555D01*
X42540Y24221D02*Y23951D01*
X42630Y23861D02*X42540Y23951D01*
X42630Y23861D02*X42810D01*
X42900Y23951D01*
Y24221D02*Y23951D01*
Y24797D02*Y24527D01*
X42810Y24437D02*X42900Y24527D01*
X42630Y24437D02*X42810D01*
X42630D02*X42540Y24527D01*
Y24707D02*Y24527D01*
Y24707D02*X42630Y24797D01*
X42720D02*Y24437D01*
X42630Y24797D02*X42720D01*
X38538Y29356D02*X38610Y29284D01*
X38322Y29356D02*X38538D01*
X38250Y29284D02*X38322Y29356D01*
X38250Y29284D02*Y28852D01*
X38322Y28780D01*
X38538D01*
X38610Y28852D01*
Y28996D02*Y28852D01*
X38538Y29068D02*X38610Y28996D01*
X38394Y29068D02*X38538D01*
X38782Y29356D02*Y28780D01*
Y29356D02*Y29284D01*
X39142Y28924D01*
Y29356D02*Y28780D01*
X39387Y29356D02*Y28780D01*
X39603Y29356D02*X39675Y29284D01*
Y28852D01*
X39603Y28780D02*X39675Y28852D01*
X39315Y28780D02*X39603D01*
X39315Y29356D02*X39603D01*
X32750Y6804D02*X33214Y7268D01*
X32750Y6804D02*X33330D01*
X33214Y7268D02*Y6340D01*
X41500Y29356D02*X41788D01*
X41500D02*Y29068D01*
X41572Y29140D01*
X41716D01*
X41788Y29068D01*
Y28852D01*
X41716Y28780D02*X41788Y28852D01*
X41572Y28780D02*X41716D01*
X41500Y28852D02*X41572Y28780D01*
X41960Y29356D02*Y28924D01*
X42104Y28780D01*
X42248Y28924D01*
Y29356D02*Y28924D01*
X1180Y19000D02*X1900D01*
Y19360D02*Y19000D01*
X1180Y19846D02*Y19576D01*
Y19846D02*X1810D01*
X1900Y19756D02*X1810Y19846D01*
X1900Y19756D02*Y19666D01*
X1810Y19576D02*X1900Y19666D01*
X1270Y20062D02*X1810D01*
X1270D02*X1180Y20152D01*
Y20332D02*Y20152D01*
Y20332D02*X1270Y20422D01*
X1810D01*
X1900Y20332D02*X1810Y20422D01*
X1900Y20332D02*Y20152D01*
X1810Y20062D02*X1900Y20152D01*
X1270Y20962D02*X1180Y21052D01*
Y21322D02*Y21052D01*
Y21322D02*X1270Y21412D01*
X1450D01*
X1900Y20962D02*X1450Y21412D01*
X1900D02*Y20962D01*
X1810Y21628D02*X1900Y21718D01*
X1270Y21628D02*X1810D01*
X1270D02*X1180Y21718D01*
Y21898D02*Y21718D01*
Y21898D02*X1270Y21988D01*
X1810D01*
X1900Y21898D02*X1810Y21988D01*
X1900Y21898D02*Y21718D01*
X1720Y21628D02*X1360Y21988D01*
X1810Y22204D02*X1900Y22294D01*
X1270Y22204D02*X1810D01*
X1270D02*X1180Y22294D01*
Y22474D02*Y22294D01*
Y22474D02*X1270Y22564D01*
X1810D01*
X1900Y22474D02*X1810Y22564D01*
X1900Y22474D02*Y22294D01*
X1720Y22204D02*X1360Y22564D01*
X1900Y22781D02*X1540Y23141D01*
X1270D02*X1540D01*
X1180Y23051D02*X1270Y23141D01*
X1180Y23051D02*Y22871D01*
X1270Y22781D02*X1180Y22871D01*
X1270Y22781D02*X1450D01*
X1540Y22871D01*
Y23141D02*Y22871D01*
X1900Y23447D02*Y23357D01*
X1810Y23663D02*X1900Y23753D01*
X1270Y23663D02*X1810D01*
X1270D02*X1180Y23753D01*
Y23933D02*Y23753D01*
Y23933D02*X1270Y24023D01*
X1810D01*
X1900Y23933D02*X1810Y24023D01*
X1900Y23933D02*Y23753D01*
X1720Y23663D02*X1360Y24023D01*
X1900Y24509D02*Y24329D01*
X1180Y24419D02*X1900D01*
X1360Y24239D02*X1180Y24419D01*
X1900Y24815D02*Y24725D01*
X1270Y25031D02*X1180Y25121D01*
Y25391D02*Y25121D01*
Y25391D02*X1270Y25481D01*
X1450D01*
X1900Y25031D02*X1450Y25481D01*
X1900D02*Y25031D01*
Y25698D02*X1540Y26058D01*
X1270D02*X1540D01*
X1180Y25968D02*X1270Y26058D01*
X1180Y25968D02*Y25788D01*
X1270Y25698D02*X1180Y25788D01*
X1270Y25698D02*X1450D01*
X1540Y25788D01*
Y26058D02*Y25788D01*
G54D14*X926Y7350D02*X1679D01*
X926D02*X801Y7475D01*
Y7726D02*Y7475D01*
Y7726D02*X926Y7852D01*
X1679D01*
X1805Y7726D02*X1679Y7852D01*
X1805Y7726D02*Y7475D01*
X1679Y7350D02*X1805Y7475D01*
X1428Y8278D02*X2181D01*
X1303Y8153D02*X1428Y8278D01*
X1303Y8404D01*
Y8655D02*Y8404D01*
Y8655D02*X1428Y8780D01*
X1679D01*
X1805Y8655D02*X1679Y8780D01*
X1805Y8655D02*Y8404D01*
X1679Y8278D02*X1805Y8404D01*
Y9584D02*Y9207D01*
X1679Y9082D02*X1805Y9207D01*
X1428Y9082D02*X1679D01*
X1428D02*X1303Y9207D01*
Y9458D02*Y9207D01*
Y9458D02*X1428Y9584D01*
X1554D02*Y9082D01*
X1428Y9584D02*X1554D01*
X1428Y10011D02*X1805D01*
X1428D02*X1303Y10136D01*
Y10262D02*Y10136D01*
Y10262D02*X1428Y10387D01*
X1805D01*
X1303Y9885D02*X1428Y10011D01*
X801Y11191D02*X926Y11316D01*
X801Y11191D02*Y10814D01*
X926Y10689D02*X801Y10814D01*
X926Y10689D02*X1177D01*
X1303Y10814D01*
Y11191D02*Y10814D01*
Y11191D02*X1428Y11316D01*
X1679D01*
X1805Y11191D02*X1679Y11316D01*
X1805Y11191D02*Y10814D01*
X1679Y10689D02*X1805Y10814D01*
X1428Y11743D02*X2181D01*
X1303Y11618D02*X1428Y11743D01*
X1303Y11869D01*
Y12120D02*Y11869D01*
Y12120D02*X1428Y12245D01*
X1679D01*
X1805Y12120D02*X1679Y12245D01*
X1805Y12120D02*Y11869D01*
X1679Y11743D02*X1805Y11869D01*
X1428Y12672D02*X1805D01*
X1428D02*X1303Y12798D01*
Y13049D02*Y12798D01*
Y12547D02*X1428Y12672D01*
X1052Y13350D02*X1177D01*
X1428D02*X1805D01*
X1428Y13727D02*X1805D01*
X1428D02*X1303Y13852D01*
Y13978D02*Y13852D01*
Y13978D02*X1428Y14103D01*
X1805D01*
X1303Y13601D02*X1428Y13727D01*
X801Y14530D02*X1679D01*
X1805Y14656D01*
X1177D02*Y14405D01*
X1805Y15409D02*Y15033D01*
Y15409D02*X1679Y15535D01*
X1554Y15409D02*X1679Y15535D01*
X1554Y15409D02*Y15033D01*
X1428Y14907D02*X1554Y15033D01*
X1428Y14907D02*X1303Y15033D01*
Y15409D02*Y15033D01*
Y15409D02*X1428Y15535D01*
X1679Y14907D02*X1805Y15033D01*
G54D12*X12750Y7152D02*X12866Y7268D01*
X13214D01*
X13330Y7152D01*
Y6920D01*
X12750Y6340D02*X13330Y6920D01*
X12750Y6340D02*X13330D01*
X2866D02*X3098D01*
X2982Y7268D02*Y6340D01*
X2750Y7036D02*X2982Y7268D01*
X22750Y7152D02*X22866Y7268D01*
X23098D01*
X23214Y7152D01*
Y6456D01*
X23098Y6340D02*X23214Y6456D01*
X22866Y6340D02*X23098D01*
X22750Y6456D02*X22866Y6340D01*
Y6804D02*X23214D01*
X1360Y27750D02*X1450D01*
X1630D02*X1900D01*
X1630Y28020D02*X1900D01*
X1630D02*X1540Y28110D01*
Y28200D02*Y28110D01*
Y28200D02*X1630Y28290D01*
X1900D01*
X1540Y27930D02*X1630Y28020D01*
X1180Y28596D02*X1810D01*
X1900Y28686D01*
X1450D02*Y28506D01*
X1900Y29226D02*Y28956D01*
X1810Y28866D02*X1900Y28956D01*
X1630Y28866D02*X1810D01*
X1630D02*X1540Y28956D01*
Y29136D02*Y28956D01*
Y29136D02*X1630Y29226D01*
X1720D02*Y28866D01*
X1630Y29226D02*X1720D01*
X1630Y29532D02*X1900D01*
X1630D02*X1540Y29622D01*
Y29802D02*Y29622D01*
Y29442D02*X1630Y29532D01*
X1270Y30108D02*X1900D01*
X1270D02*X1180Y30198D01*
Y30288D02*Y30198D01*
X1540D02*Y30018D01*
Y30739D02*X1630Y30829D01*
X1540Y30739D02*Y30559D01*
X1630Y30469D02*X1540Y30559D01*
X1630Y30469D02*X1810D01*
X1900Y30559D01*
X1540Y30829D02*X1810D01*
X1900Y30919D01*
Y30739D02*Y30559D01*
Y30739D02*X1810Y30829D01*
X1540Y31495D02*Y31225D01*
X1630Y31135D02*X1540Y31225D01*
X1630Y31135D02*X1810D01*
X1900Y31225D01*
Y31495D02*Y31225D01*
Y32071D02*Y31801D01*
X1810Y31711D02*X1900Y31801D01*
X1630Y31711D02*X1810D01*
X1630D02*X1540Y31801D01*
Y31981D02*Y31801D01*
Y31981D02*X1630Y32071D01*
X1720D02*Y31711D01*
X1630Y32071D02*X1720D01*
X1180Y32611D02*X1900D01*
X1810D02*X1900Y32701D01*
Y32881D02*Y32701D01*
Y32881D02*X1810Y32971D01*
X1630D02*X1810D01*
X1540Y32881D02*X1630Y32971D01*
X1540Y32881D02*Y32701D01*
X1630Y32611D02*X1540Y32701D01*
X1630Y33187D02*X1810D01*
X1630D02*X1540Y33277D01*
Y33457D02*Y33277D01*
Y33457D02*X1630Y33547D01*
X1810D01*
X1900Y33457D02*X1810Y33547D01*
X1900Y33457D02*Y33277D01*
X1810Y33187D02*X1900Y33277D01*
X1540Y34033D02*X1630Y34123D01*
X1540Y34033D02*Y33853D01*
X1630Y33763D02*X1540Y33853D01*
X1630Y33763D02*X1810D01*
X1900Y33853D01*
X1540Y34123D02*X1810D01*
X1900Y34213D01*
Y34033D02*Y33853D01*
Y34033D02*X1810Y34123D01*
X1630Y34520D02*X1900D01*
X1630D02*X1540Y34610D01*
Y34790D02*Y34610D01*
Y34430D02*X1630Y34520D01*
X1180Y35366D02*X1900D01*
Y35276D02*X1810Y35366D01*
X1900Y35276D02*Y35096D01*
X1810Y35006D02*X1900Y35096D01*
X1630Y35006D02*X1810D01*
X1630D02*X1540Y35096D01*
Y35276D02*Y35096D01*
Y35276D02*X1630Y35366D01*
X1540Y35906D02*X1720D01*
X1900Y36086D01*
X1720Y36266D01*
X1540D02*X1720D01*
X1270Y36482D02*X1180Y36572D01*
Y36842D02*Y36572D01*
Y36842D02*X1270Y36932D01*
X1450D01*
X1900Y36482D02*X1450Y36932D01*
X1900D02*Y36482D01*
Y37238D02*Y37148D01*
Y37725D02*Y37545D01*
X1180Y37635D02*X1900D01*
X1360Y37455D02*X1180Y37635D01*
X43800Y6000D02*X0D01*
Y54400D01*
X43800D02*Y6000D01*
X0Y54400D02*X43800D01*
G54D15*X1200Y17200D03*
G54D16*X3000Y18000D03*
X4000D03*
X3000Y17000D03*
X4000D03*
X3000Y14500D03*
X4000D03*
X5000D03*
Y17000D03*
X3000Y20000D03*
Y19000D03*
X5000Y20000D03*
Y19000D03*
X4000Y20000D03*
Y19000D03*
X11000Y22000D03*
Y21000D03*
Y20000D03*
X10000Y22000D03*
Y21000D03*
Y20000D03*
X6000Y24000D03*
X5000D03*
Y23000D03*
X7000Y24000D03*
X6000Y23000D03*
X7000D03*
Y25000D03*
Y26000D03*
Y22000D03*
X6000Y25000D03*
X5000D03*
X6000Y26000D03*
X5000D03*
X6000Y27000D03*
X5000D03*
X7000D03*
X3000Y28000D03*
X5000D03*
X4000D03*
X6000D03*
X7000D03*
X3000Y24000D03*
X4000D03*
X3000Y23000D03*
X4000D03*
X6000Y22000D03*
X5000D03*
X4000D03*
X3000D03*
Y21000D03*
X4000D03*
X3000Y25000D03*
X4000D03*
X3000Y26000D03*
X4000D03*
X3000Y27000D03*
X4000D03*
X11000Y24000D03*
Y23000D03*
Y28000D03*
Y25000D03*
Y26000D03*
Y27000D03*
X10000Y24000D03*
Y23000D03*
Y28000D03*
Y25000D03*
Y26000D03*
Y27000D03*
X8000Y24000D03*
Y23000D03*
Y22000D03*
Y25000D03*
X9000Y24000D03*
Y23000D03*
Y22000D03*
Y25000D03*
X8000Y28000D03*
Y26000D03*
Y27000D03*
X9000Y28000D03*
Y26000D03*
Y27000D03*
X20000Y24000D03*
X19000D03*
X20000Y23000D03*
X19000D03*
X20000Y22000D03*
X19000D03*
X20000Y25000D03*
X19000D03*
X17000Y22000D03*
X18000D03*
X16000Y24000D03*
X12000D03*
X13000D03*
X14000D03*
X15000D03*
X12000Y23000D03*
Y22000D03*
X13000D03*
Y25000D03*
Y23000D03*
X14000D03*
X15000D03*
X16000Y22000D03*
X14000D03*
X15000D03*
X16000Y23000D03*
X17000D03*
X18000D03*
X20000Y28000D03*
X16000D03*
X17000D03*
X18000D03*
X19000D03*
X17000Y24000D03*
X18000D03*
X16000Y25000D03*
X17000D03*
X18000D03*
X20000Y26000D03*
X19000D03*
X20000Y27000D03*
X19000D03*
X17000Y26000D03*
X16000Y27000D03*
X17000D03*
X18000Y26000D03*
Y27000D03*
X12000Y28000D03*
Y25000D03*
Y26000D03*
Y27000D03*
X13000Y28000D03*
X14000D03*
X15000D03*
X14000Y25000D03*
X15000D03*
X16000Y26000D03*
X13000D03*
X14000D03*
X15000D03*
X13000Y27000D03*
X14000D03*
X15000D03*
X8000Y14500D03*
Y18000D03*
Y17000D03*
X9000Y14500D03*
Y18000D03*
Y17000D03*
X10000Y14500D03*
X8000Y19000D03*
X9000D03*
X11000Y17000D03*
X10000D03*
X11000Y19000D03*
X10000D03*
X11000Y18000D03*
X10000D03*
X6000Y14500D03*
X7000D03*
X6000Y18000D03*
X5000D03*
X6000Y17000D03*
X7000D03*
X6000Y20000D03*
X7000D03*
X8000D03*
X9000D03*
X7000Y18000D03*
X6000Y19000D03*
X7000D03*
X6000Y21000D03*
X5000D03*
X7000D03*
X8000D03*
X9000D03*
X8500Y11500D03*
X8000Y10500D03*
X6500Y11500D03*
X6000Y10500D03*
X7000D03*
X7500Y11500D03*
G54D17*G36*
X4650Y10850D02*Y10150D01*
X5350D01*
Y10850D01*
X4650D01*
G37*
G54D16*X5500Y11500D03*
G54D15*X4500Y8000D03*
X9000D03*
X42600Y44400D03*
G54D16*X41000Y44000D03*
Y45000D03*
X40000Y48000D03*
Y47000D03*
Y45000D03*
Y44000D03*
Y46000D03*
X41000D03*
Y48000D03*
Y47000D03*
X34000Y45000D03*
X35000D03*
X36000D03*
X37000D03*
X38000D03*
X39000D03*
X36000Y41000D03*
Y42000D03*
Y43000D03*
X37000D03*
X38000D03*
X39000D03*
X36000Y44000D03*
X37000D03*
X38000D03*
X39000D03*
X37000Y41000D03*
Y42000D03*
X38000D03*
Y41000D03*
X39000D03*
X40000D03*
X41000Y39000D03*
X39000Y42000D03*
X40000D03*
X41000Y43000D03*
Y42000D03*
X40000Y43000D03*
X33000Y42000D03*
Y41000D03*
Y40000D03*
Y39000D03*
X35000Y41000D03*
X34000Y42000D03*
X35000D03*
X32000Y39000D03*
Y40000D03*
Y41000D03*
Y42000D03*
X34000Y43000D03*
X35000D03*
X34000Y44000D03*
X35000D03*
X25000Y54000D03*
Y53000D03*
X24000Y54000D03*
Y53000D03*
X23000D03*
X22000D03*
Y54000D03*
X21000Y53000D03*
Y54000D03*
X23000D03*
X30000Y46000D03*
Y43000D03*
Y44000D03*
Y45000D03*
X29000Y43000D03*
Y44000D03*
Y45000D03*
X26000Y54000D03*
Y51000D03*
Y52000D03*
Y53000D03*
Y44000D03*
Y45000D03*
Y46000D03*
Y47000D03*
Y48000D03*
Y49000D03*
X25000Y44000D03*
Y45000D03*
Y46000D03*
X24000Y44000D03*
Y45000D03*
Y46000D03*
Y47000D03*
Y48000D03*
Y49000D03*
X26000Y50000D03*
X25000Y47000D03*
Y48000D03*
Y49000D03*
Y50000D03*
Y51000D03*
Y52000D03*
X24000Y50000D03*
Y51000D03*
Y52000D03*
X30000Y49000D03*
Y47000D03*
Y50000D03*
Y48000D03*
Y51000D03*
X28000Y43000D03*
Y44000D03*
Y45000D03*
Y46000D03*
Y47000D03*
Y48000D03*
X27000Y43000D03*
Y44000D03*
Y45000D03*
Y46000D03*
Y47000D03*
Y48000D03*
X29000Y46000D03*
Y47000D03*
Y48000D03*
Y49000D03*
X28000Y52000D03*
X29000Y51000D03*
X28000D03*
X29000Y52000D03*
X27000D03*
Y49000D03*
Y50000D03*
Y51000D03*
Y53000D03*
Y54000D03*
X30000Y52000D03*
X29000Y50000D03*
X28000D03*
Y49000D03*
X30000Y53000D03*
X29000D03*
X28000D03*
X30000Y54000D03*
X29000D03*
X28000D03*
X34000D03*
X35000D03*
X36000D03*
X34000Y53000D03*
Y52000D03*
X35000D03*
X36000D03*
X39000Y48000D03*
X37000Y47000D03*
X38000D03*
X39000D03*
X37000Y48000D03*
X38000D03*
X34000Y47000D03*
X35000D03*
X34000Y46000D03*
X35000D03*
X36000Y47000D03*
Y46000D03*
X37000D03*
X38000D03*
X39000D03*
X34000Y48000D03*
X35000D03*
X36000D03*
X37000Y54000D03*
X38000D03*
X39000D03*
X40000D03*
X35000Y53000D03*
X36000D03*
X37000D03*
X38000D03*
X39000D03*
X40000D03*
X41000Y54000D03*
X37000Y52000D03*
X38000D03*
X39000D03*
X40000D03*
X41000Y53000D03*
Y52000D03*
X34000Y49000D03*
X35000D03*
X36000D03*
X37000D03*
X38000D03*
X39000D03*
X40000D03*
X41000D03*
X34000Y51000D03*
Y50000D03*
X35000Y51000D03*
Y50000D03*
X36000D03*
Y51000D03*
X37000D03*
X38000D03*
X39000D03*
X40000D03*
X37000Y50000D03*
X38000D03*
X39000D03*
X40000D03*
X41000D03*
Y51000D03*
X33000Y24000D03*
X34000D03*
X35000D03*
X36000D03*
X32000D03*
Y25000D03*
X33000D03*
X36000D03*
X34000D03*
X35000D03*
X36000Y23000D03*
X35000D03*
X37000D03*
X36000Y22000D03*
X37000D03*
X36000Y21000D03*
X34000Y23000D03*
Y22000D03*
X35000D03*
X33000Y21000D03*
X34000D03*
X40000Y23000D03*
Y22000D03*
Y21000D03*
Y26000D03*
Y27000D03*
X37000Y24000D03*
X38000D03*
X39000D03*
X41000D03*
X40000D03*
X41000Y23000D03*
Y26000D03*
Y27000D03*
X40000Y25000D03*
X39000D03*
X41000D03*
X37000Y27000D03*
X38000D03*
X39000D03*
X31000Y24000D03*
Y25000D03*
X30000Y24000D03*
Y25000D03*
X31000Y28000D03*
X32000D03*
X33000D03*
X34000D03*
X35000D03*
X31000Y26000D03*
Y27000D03*
X32000D03*
X33000D03*
X34000D03*
X35000D03*
X30000Y26000D03*
Y27000D03*
X32000Y26000D03*
X33000D03*
X34000D03*
X35000D03*
X41000Y28000D03*
X40000D03*
X36000D03*
X37000D03*
X38000D03*
X39000D03*
X37000Y25000D03*
X38000D03*
X37000Y26000D03*
X38000D03*
X39000D03*
X36000D03*
Y27000D03*
X26000Y24000D03*
X23000D03*
X25000D03*
X24000D03*
X27000D03*
X28000D03*
X29000D03*
X31000Y23000D03*
X30000D03*
X32000D03*
X33000D03*
X29000D03*
X26000D03*
X23000D03*
X25000D03*
X24000D03*
X27000D03*
X28000D03*
X25000Y28000D03*
X26000Y25000D03*
X25000D03*
X26000Y28000D03*
Y26000D03*
X25000Y27000D03*
X23000D03*
X24000D03*
X28000Y20000D03*
Y19000D03*
Y18000D03*
X27000Y25000D03*
Y28000D03*
Y26000D03*
Y27000D03*
X28000Y25000D03*
Y28000D03*
Y26000D03*
Y27000D03*
X29000D03*
X17000Y18000D03*
X18000D03*
X19000D03*
X16000D03*
X20000Y17000D03*
Y19000D03*
Y18000D03*
Y21000D03*
Y20000D03*
X16000Y17000D03*
X17000D03*
X18000D03*
X19000D03*
X17000Y19000D03*
X16000Y21000D03*
X17000D03*
X18000D03*
X19000D03*
X16000Y20000D03*
X18000Y19000D03*
X19000D03*
X14000Y20000D03*
X15000D03*
X17000D03*
X18000D03*
X19000D03*
X16000Y19000D03*
X12000D03*
X13000D03*
X14000D03*
X15000D03*
X12000Y18000D03*
Y21000D03*
Y20000D03*
X13000Y18000D03*
Y21000D03*
X14000D03*
X15000D03*
X13000Y20000D03*
X12000Y17000D03*
X13000D03*
X14000D03*
Y18000D03*
X15000D03*
Y17000D03*
X13000Y14500D03*
X14000D03*
X15000D03*
X16000D03*
X17000D03*
X18000D03*
X19000D03*
X20000D03*
X18500Y11500D03*
X18000Y10500D03*
X16500Y11500D03*
X16000Y10500D03*
X17000D03*
G54D17*G36*
X14650Y10850D02*Y10150D01*
X15350D01*
Y10850D01*
X14650D01*
G37*
G54D16*X15500Y11500D03*
X17500D03*
G54D15*X14500Y8000D03*
X19000D03*
G54D16*X23000Y14500D03*
X24000D03*
X25000D03*
X26000D03*
X27000D03*
X28000D03*
X29000D03*
X28500Y11500D03*
X28000Y10500D03*
X27500Y11500D03*
G54D15*X29000Y8000D03*
G54D16*X26500Y11500D03*
X26000Y10500D03*
X27000D03*
G54D17*G36*
X24650Y10850D02*Y10150D01*
X25350D01*
Y10850D01*
X24650D01*
G37*
G54D16*X25500Y11500D03*
G54D15*X24500Y8000D03*
G54D16*X35000Y20000D03*
X36000Y19000D03*
X34000D03*
X31000D03*
X30000D03*
X32000D03*
X33000D03*
X31000Y18000D03*
X30000D03*
Y17000D03*
Y14500D03*
X32000Y18000D03*
Y17000D03*
X31000D03*
X38000Y23000D03*
Y22000D03*
Y21000D03*
Y20000D03*
Y19000D03*
Y18000D03*
X39000Y23000D03*
Y22000D03*
Y21000D03*
Y20000D03*
Y19000D03*
Y18000D03*
X41000Y22000D03*
Y21000D03*
Y20000D03*
X37000Y21000D03*
Y20000D03*
Y19000D03*
Y18000D03*
Y17000D03*
X35000Y19000D03*
Y18000D03*
Y17000D03*
Y14500D03*
G54D17*G36*
X34650Y10850D02*Y10150D01*
X35350D01*
Y10850D01*
X34650D01*
G37*
G54D15*X34500Y8000D03*
G54D16*X36000Y18000D03*
Y17000D03*
Y14500D03*
X36500Y11500D03*
X36000Y10500D03*
X35500Y11500D03*
X33000Y18000D03*
Y17000D03*
Y14500D03*
X34000Y18000D03*
Y17000D03*
Y14500D03*
X37000D03*
Y10500D03*
X37500Y11500D03*
X40000Y20000D03*
Y19000D03*
Y18000D03*
Y17000D03*
Y14500D03*
X38000Y17000D03*
Y14500D03*
X38500Y11500D03*
X38000Y10500D03*
X39000Y17000D03*
Y14500D03*
G54D15*Y8000D03*
G54D16*X41000Y19000D03*
Y18000D03*
Y17000D03*
G54D15*X42600Y17200D03*
G54D16*X35000Y21000D03*
X36000Y20000D03*
X34000D03*
X31000D03*
X30000D03*
X32000D03*
X33000D03*
X29000D03*
Y28000D03*
Y25000D03*
X35000Y30000D03*
X36000D03*
X37000D03*
X38000D03*
X39000D03*
X40000D03*
X41000D03*
G54D15*X30000Y29000D03*
G54D16*X33000Y30000D03*
X34000D03*
X32000D03*
X31000D03*
Y22000D03*
X30000D03*
X32000D03*
X33000D03*
X26000D03*
X25000D03*
X24000D03*
X27000D03*
X28000D03*
X29000D03*
X23000D03*
X31000Y21000D03*
X30000D03*
X32000D03*
X26000D03*
X23000D03*
X25000D03*
X24000D03*
X27000D03*
X28000D03*
X29000D03*
X26000Y20000D03*
X23000D03*
X25000D03*
X24000D03*
X23000Y19000D03*
X24000D03*
X23000Y18000D03*
X24000D03*
X25000Y19000D03*
Y18000D03*
Y26000D03*
X26000Y27000D03*
X23000Y17000D03*
Y28000D03*
Y25000D03*
Y26000D03*
X25000Y17000D03*
X24000D03*
Y28000D03*
Y25000D03*
Y26000D03*
X27000Y20000D03*
X26000Y19000D03*
X27000D03*
X29000D03*
Y18000D03*
Y26000D03*
X26000Y18000D03*
X27000D03*
X26000Y17000D03*
X27000D03*
X28000D03*
X29000D03*
G54D15*X1200Y44400D03*
G54D16*X3000Y43000D03*
Y44000D03*
X4000Y43000D03*
Y44000D03*
X3000Y45000D03*
X4000D03*
Y46000D03*
Y47000D03*
Y48000D03*
X3000Y46000D03*
Y47000D03*
Y48000D03*
X5000Y43000D03*
X6000Y44000D03*
X5000D03*
X7000D03*
X6000Y45000D03*
X7000D03*
X8000D03*
X5000D03*
X6000Y46000D03*
X7000D03*
X8000D03*
X5000D03*
X6000Y47000D03*
X5000D03*
X6000Y48000D03*
X5000D03*
X7000Y47000D03*
Y48000D03*
X8000Y47000D03*
Y48000D03*
X12000Y37000D03*
Y36000D03*
Y35000D03*
Y34000D03*
X13000D03*
X12000Y33000D03*
X13000D03*
X11000D03*
Y34000D03*
Y35000D03*
Y36000D03*
Y37000D03*
Y39000D03*
Y38000D03*
X12000Y32000D03*
X13000D03*
X11000D03*
X10000D03*
X8000D03*
X9000D03*
X12000Y31000D03*
X13000D03*
X11000D03*
X10000D03*
X8000D03*
X9000D03*
X12000Y30000D03*
X13000D03*
X11000D03*
X10000Y33000D03*
Y34000D03*
Y35000D03*
Y36000D03*
Y37000D03*
Y38000D03*
Y39000D03*
X8000D03*
X9000D03*
X8000Y38000D03*
X9000D03*
X12000Y46000D03*
Y45000D03*
Y44000D03*
Y43000D03*
Y42000D03*
X11000D03*
X10000D03*
X11000Y43000D03*
X10000D03*
X12000Y41000D03*
X11000D03*
X10000D03*
X12000Y40000D03*
Y39000D03*
X11000Y40000D03*
X10000D03*
X6000D03*
Y41000D03*
X7000Y40000D03*
Y41000D03*
X8000D03*
X9000D03*
X8000Y40000D03*
X9000D03*
X6000Y42000D03*
X7000D03*
X6000Y43000D03*
X7000D03*
X8000Y42000D03*
X9000D03*
X8000Y43000D03*
X9000D03*
X10000Y30000D03*
X6000D03*
X7000D03*
X8000D03*
X9000D03*
X6000Y31000D03*
X7000D03*
X6000Y32000D03*
X7000D03*
X5000D03*
X3000Y30000D03*
X4000D03*
X3000Y31000D03*
X4000D03*
X5000Y30000D03*
Y31000D03*
X3000Y32000D03*
X4000D03*
X3000Y33000D03*
X4000D03*
X6000D03*
X7000D03*
X8000D03*
X9000D03*
X5000D03*
Y34000D03*
Y35000D03*
X6000Y34000D03*
X7000D03*
X8000D03*
X9000D03*
X6000Y35000D03*
X7000D03*
X6000Y36000D03*
X7000D03*
X8000Y35000D03*
X9000D03*
X8000Y36000D03*
X9000D03*
X8000Y37000D03*
X9000D03*
X6000D03*
X7000D03*
X6000Y39000D03*
X7000D03*
X6000Y38000D03*
X7000D03*
X3000Y34000D03*
X4000D03*
Y35000D03*
X5000Y36000D03*
X4000D03*
X3000Y35000D03*
Y36000D03*
Y37000D03*
X5000D03*
X4000D03*
X5000Y39000D03*
X4000D03*
X5000Y38000D03*
X4000D03*
X3000Y40000D03*
X4000D03*
Y41000D03*
Y42000D03*
X5000Y40000D03*
Y41000D03*
Y42000D03*
X3000Y39000D03*
Y41000D03*
Y42000D03*
Y38000D03*
X18000Y39000D03*
X17000D03*
Y40000D03*
X19000Y39000D03*
X18000Y40000D03*
X19000D03*
X20000Y39000D03*
Y40000D03*
Y41000D03*
X18000Y38000D03*
X17000D03*
X19000D03*
X20000D03*
X15000Y39000D03*
X16000D03*
X15000Y40000D03*
X16000D03*
X18000Y41000D03*
X17000D03*
X18000Y42000D03*
X15000Y41000D03*
X16000D03*
X15000Y42000D03*
X16000D03*
X15000Y38000D03*
X16000D03*
X13000Y42500D03*
X14000Y42000D03*
Y41000D03*
Y40000D03*
X13000Y41500D03*
Y40500D03*
Y39500D03*
Y38500D03*
Y37000D03*
Y36000D03*
Y35000D03*
X14000Y37000D03*
Y39000D03*
Y36000D03*
Y35000D03*
Y34000D03*
Y33000D03*
Y32000D03*
Y31000D03*
Y30000D03*
X19000Y41000D03*
Y42000D03*
Y43000D03*
Y44000D03*
Y45000D03*
X17000Y42000D03*
Y43000D03*
Y44000D03*
X18000Y43000D03*
Y44000D03*
Y45000D03*
X20000Y42000D03*
Y43000D03*
Y44000D03*
Y45000D03*
X15000Y43000D03*
X16000D03*
Y44000D03*
X15000D03*
Y45000D03*
X13000Y43500D03*
X14000Y45000D03*
Y44000D03*
Y43000D03*
G54D15*X13000Y49000D03*
G54D16*X15000Y46000D03*
X13000Y45500D03*
Y44500D03*
X14000Y46000D03*
X15000Y47000D03*
Y48000D03*
Y49000D03*
X19000Y46000D03*
Y47000D03*
Y48000D03*
Y49000D03*
Y50000D03*
X20000Y46000D03*
Y47000D03*
Y48000D03*
Y49000D03*
Y50000D03*
X17000Y47000D03*
Y48000D03*
Y49000D03*
Y50000D03*
Y53000D03*
Y54000D03*
X18000Y51000D03*
Y52000D03*
Y53000D03*
Y54000D03*
X19000Y51000D03*
Y52000D03*
Y53000D03*
Y54000D03*
X20000Y51000D03*
Y52000D03*
Y53000D03*
Y54000D03*
X17000Y45000D03*
X16000D03*
X18000Y46000D03*
X17000D03*
X16000D03*
X18000Y47000D03*
Y48000D03*
Y49000D03*
Y50000D03*
X17000Y51000D03*
Y52000D03*
X16000Y47000D03*
Y48000D03*
Y49000D03*
Y50000D03*
Y51000D03*
Y52000D03*
X15000Y50000D03*
Y51000D03*
Y52000D03*
Y53000D03*
X16000D03*
Y54000D03*
X15000D03*
X4000Y49000D03*
X6000D03*
X7000D03*
X8000D03*
X3000D03*
X5000D03*
X6000Y50000D03*
X5000D03*
Y51000D03*
X3000Y50000D03*
X4000D03*
X3000Y51000D03*
X4000D03*
X11000Y50000D03*
Y51000D03*
X10000D03*
Y50000D03*
X9000D03*
X11000Y49000D03*
X10000D03*
X9000D03*
X11000Y44000D03*
Y45000D03*
X10000D03*
Y44000D03*
X8000D03*
X9000D03*
Y45000D03*
Y46000D03*
X11000D03*
X10000D03*
X11000Y47000D03*
X10000D03*
X9000D03*
Y48000D03*
X11000D03*
X10000D03*
X7000Y50000D03*
X8000D03*
X6000Y51000D03*
X7000D03*
X8000D03*
X9000D03*
X10000Y52000D03*
X8000D03*
X9000D03*
X8000Y53000D03*
X9000D03*
X11000Y52000D03*
Y53000D03*
X10000D03*
X11000Y54000D03*
X10000D03*
X8000D03*
X9000D03*
X3000Y52000D03*
X4000D03*
X6000D03*
X7000D03*
X5000D03*
X3000Y53000D03*
Y54000D03*
X4000Y53000D03*
Y54000D03*
X6000Y53000D03*
X7000D03*
X5000D03*
X6000Y54000D03*
X7000D03*
X5000D03*
X34000Y37000D03*
X35000D03*
X36000D03*
X34000Y38000D03*
X35000D03*
X36000D03*
X37000Y37000D03*
X38000D03*
X39000D03*
X34000Y39000D03*
X35000D03*
X36000D03*
X41000Y40000D03*
Y41000D03*
X40000Y39000D03*
Y40000D03*
X41000Y36000D03*
X40000Y37000D03*
Y38000D03*
X37000D03*
Y39000D03*
Y40000D03*
X38000Y38000D03*
Y39000D03*
Y40000D03*
X39000Y38000D03*
Y39000D03*
Y40000D03*
X34000D03*
X35000D03*
X36000D03*
X34000Y41000D03*
X30000Y38000D03*
X31000D03*
Y37000D03*
Y35000D03*
Y34000D03*
Y33000D03*
Y32000D03*
Y31000D03*
X30000Y39000D03*
X31000D03*
X30000Y41000D03*
Y42000D03*
X31000D03*
Y41000D03*
X29000D03*
Y42000D03*
Y39000D03*
X28000D03*
X27000D03*
X29000Y38000D03*
X28000D03*
X27000D03*
X30000Y40000D03*
X31000D03*
X29000D03*
X28000D03*
Y41000D03*
Y42000D03*
X27000Y40000D03*
Y41000D03*
Y42000D03*
G54D15*X22250Y33250D03*
G54D16*X22000Y39000D03*
X21000D03*
X22000Y40000D03*
X21000D03*
X22000Y41000D03*
Y42000D03*
Y38000D03*
X21000Y41000D03*
Y42000D03*
Y38000D03*
X22000Y43000D03*
Y44000D03*
Y45000D03*
Y46000D03*
X21000Y43000D03*
Y44000D03*
Y45000D03*
Y46000D03*
X23000Y42000D03*
Y43000D03*
Y44000D03*
Y45000D03*
Y46000D03*
Y47000D03*
Y48000D03*
Y49000D03*
Y50000D03*
Y51000D03*
Y52000D03*
X22000Y47000D03*
Y48000D03*
Y49000D03*
Y50000D03*
Y51000D03*
Y52000D03*
X21000Y47000D03*
Y48000D03*
Y49000D03*
Y50000D03*
Y51000D03*
Y52000D03*
X23000Y41000D03*
Y38000D03*
X26000Y39000D03*
Y40000D03*
X25000D03*
Y39000D03*
X24000D03*
X23000D03*
Y40000D03*
X24000D03*
X26000Y38000D03*
X25000D03*
X24000D03*
X26000Y41000D03*
Y42000D03*
X25000Y41000D03*
X24000D03*
X25000Y42000D03*
X24000D03*
X26000Y43000D03*
X25000D03*
X24000D03*
X33000Y38000D03*
X41000D03*
X32000D03*
X33000Y37000D03*
X41000D03*
X32000D03*
X33000Y34000D03*
Y33000D03*
X34000Y34000D03*
X32000Y33000D03*
Y34000D03*
X33000Y31000D03*
X34000D03*
X35000D03*
X36000D03*
X32000D03*
X34000Y32000D03*
X35000D03*
X36000D03*
X37000D03*
X32000D03*
X33000D03*
X34000Y33000D03*
X35000D03*
X36000D03*
X35000Y34000D03*
X36000D03*
X37000D03*
X38000D03*
X39000D03*
X40000D03*
X41000D03*
X37000Y31000D03*
X38000D03*
X39000D03*
X40000D03*
X38000Y32000D03*
X37000Y33000D03*
X38000D03*
X39000D03*
X40000D03*
X39000Y32000D03*
X40000D03*
X41000Y31000D03*
Y32000D03*
Y33000D03*
X33000Y35000D03*
X32000D03*
X34000D03*
Y36000D03*
X35000Y35000D03*
Y36000D03*
X36000D03*
Y35000D03*
X37000D03*
X38000D03*
X39000D03*
X40000D03*
X41000D03*
X37000Y36000D03*
X38000D03*
X39000D03*
X40000D03*
G54D18*X35500Y13000D03*
X25500D03*
X15500D03*
X5500D03*
X40500D03*
G54D15*X1200Y17200D03*
G54D19*X3000Y18000D03*
X4000D03*
X3000Y17000D03*
X4000D03*
G54D20*X3000Y14500D03*
X4000D03*
X5000D03*
G54D19*Y17000D03*
X3000Y20000D03*
Y19000D03*
X5000Y20000D03*
Y19000D03*
X4000Y20000D03*
Y19000D03*
X11000Y22000D03*
Y21000D03*
Y20000D03*
X10000Y22000D03*
Y21000D03*
Y20000D03*
X6000Y24000D03*
X5000D03*
Y23000D03*
X7000Y24000D03*
X6000Y23000D03*
X7000D03*
Y25000D03*
Y26000D03*
Y22000D03*
X6000Y25000D03*
X5000D03*
X6000Y26000D03*
X5000D03*
X6000Y27000D03*
X5000D03*
X7000D03*
X3000Y28000D03*
X5000D03*
X4000D03*
X6000D03*
X7000D03*
X3000Y24000D03*
X4000D03*
X3000Y23000D03*
X4000D03*
X6000Y22000D03*
X5000D03*
X4000D03*
X3000D03*
Y21000D03*
X4000D03*
X3000Y25000D03*
X4000D03*
X3000Y26000D03*
X4000D03*
X3000Y27000D03*
X4000D03*
X11000Y24000D03*
Y23000D03*
Y28000D03*
Y25000D03*
Y26000D03*
Y27000D03*
X10000Y24000D03*
Y23000D03*
Y28000D03*
Y25000D03*
Y26000D03*
Y27000D03*
X8000Y24000D03*
Y23000D03*
Y22000D03*
Y25000D03*
X9000Y24000D03*
Y23000D03*
Y22000D03*
Y25000D03*
X8000Y28000D03*
Y26000D03*
Y27000D03*
X9000Y28000D03*
Y26000D03*
Y27000D03*
X20000Y24000D03*
X19000D03*
X20000Y23000D03*
X19000D03*
X20000Y22000D03*
X19000D03*
X20000Y25000D03*
X19000D03*
X17000Y22000D03*
X18000D03*
X16000Y24000D03*
X12000D03*
X13000D03*
X14000D03*
X15000D03*
X12000Y23000D03*
Y22000D03*
X13000D03*
Y25000D03*
Y23000D03*
X14000D03*
X15000D03*
X16000Y22000D03*
X14000D03*
X15000D03*
X16000Y23000D03*
X17000D03*
X18000D03*
X20000Y28000D03*
X16000D03*
X17000D03*
X18000D03*
X19000D03*
X17000Y24000D03*
X18000D03*
X16000Y25000D03*
X17000D03*
X18000D03*
X20000Y26000D03*
X19000D03*
X20000Y27000D03*
X19000D03*
X17000Y26000D03*
X16000Y27000D03*
X17000D03*
X18000Y26000D03*
Y27000D03*
X12000Y28000D03*
Y25000D03*
Y26000D03*
Y27000D03*
X13000Y28000D03*
X14000D03*
X15000D03*
X14000Y25000D03*
X15000D03*
X16000Y26000D03*
X13000D03*
X14000D03*
X15000D03*
X13000Y27000D03*
X14000D03*
X15000D03*
G54D20*X8000Y14500D03*
G54D19*Y18000D03*
Y17000D03*
G54D20*X9000Y14500D03*
G54D19*Y18000D03*
Y17000D03*
G54D20*X10000Y14500D03*
G54D19*X8000Y19000D03*
X9000D03*
X11000Y17000D03*
X10000D03*
X11000Y19000D03*
X10000D03*
X11000Y18000D03*
X10000D03*
G54D20*X6000Y14500D03*
X7000D03*
G54D19*X6000Y18000D03*
X5000D03*
X6000Y17000D03*
X7000D03*
X6000Y20000D03*
X7000D03*
X8000D03*
X9000D03*
X7000Y18000D03*
X6000Y19000D03*
X7000D03*
X6000Y21000D03*
X5000D03*
X7000D03*
X8000D03*
X9000D03*
X8500Y11500D03*
X8000Y10500D03*
X6500Y11500D03*
X6000Y10500D03*
X7000D03*
X7500Y11500D03*
X5000Y10500D03*
X5500Y11500D03*
G54D15*X4500Y8000D03*
X9000D03*
X42600Y44400D03*
G54D19*X41000Y44000D03*
Y45000D03*
X40000Y48000D03*
Y47000D03*
Y45000D03*
Y44000D03*
Y46000D03*
X41000D03*
Y48000D03*
Y47000D03*
X34000Y45000D03*
X35000D03*
X36000D03*
X37000D03*
X38000D03*
X39000D03*
X36000Y41000D03*
Y42000D03*
Y43000D03*
X37000D03*
X38000D03*
X39000D03*
X36000Y44000D03*
X37000D03*
X38000D03*
X39000D03*
X37000Y41000D03*
Y42000D03*
X38000D03*
Y41000D03*
X39000D03*
X40000D03*
X41000Y39000D03*
X39000Y42000D03*
X40000D03*
X41000Y43000D03*
Y42000D03*
X40000Y43000D03*
X33000Y42000D03*
Y41000D03*
Y40000D03*
Y39000D03*
X35000Y41000D03*
X34000Y42000D03*
X35000D03*
X32000Y39000D03*
Y40000D03*
Y41000D03*
Y42000D03*
X34000Y43000D03*
X35000D03*
X34000Y44000D03*
X35000D03*
X25000Y54000D03*
Y53000D03*
X24000Y54000D03*
Y53000D03*
X23000D03*
X22000D03*
Y54000D03*
X21000Y53000D03*
Y54000D03*
X23000D03*
X30000Y46000D03*
Y43000D03*
Y44000D03*
Y45000D03*
X29000Y43000D03*
Y44000D03*
Y45000D03*
X26000Y54000D03*
Y51000D03*
Y52000D03*
Y53000D03*
Y44000D03*
Y45000D03*
Y46000D03*
Y47000D03*
Y48000D03*
Y49000D03*
X25000Y44000D03*
Y45000D03*
Y46000D03*
X24000Y44000D03*
Y45000D03*
Y46000D03*
Y47000D03*
Y48000D03*
Y49000D03*
X26000Y50000D03*
X25000Y47000D03*
Y48000D03*
Y49000D03*
Y50000D03*
Y51000D03*
Y52000D03*
X24000Y50000D03*
Y51000D03*
Y52000D03*
X30000Y49000D03*
Y47000D03*
Y50000D03*
Y48000D03*
Y51000D03*
X28000Y43000D03*
Y44000D03*
Y45000D03*
Y46000D03*
Y47000D03*
Y48000D03*
X27000Y43000D03*
Y44000D03*
Y45000D03*
Y46000D03*
Y47000D03*
Y48000D03*
X29000Y46000D03*
Y47000D03*
Y48000D03*
Y49000D03*
X28000Y52000D03*
X29000Y51000D03*
X28000D03*
X29000Y52000D03*
X27000D03*
Y49000D03*
Y50000D03*
Y51000D03*
Y53000D03*
Y54000D03*
X30000Y52000D03*
X29000Y50000D03*
X28000D03*
Y49000D03*
X30000Y53000D03*
X29000D03*
X28000D03*
X30000Y54000D03*
X29000D03*
X28000D03*
X34000D03*
X35000D03*
X36000D03*
X34000Y53000D03*
Y52000D03*
X35000D03*
X36000D03*
X39000Y48000D03*
X37000Y47000D03*
X38000D03*
X39000D03*
X37000Y48000D03*
X38000D03*
X34000Y47000D03*
X35000D03*
X34000Y46000D03*
X35000D03*
X36000Y47000D03*
Y46000D03*
X37000D03*
X38000D03*
X39000D03*
X34000Y48000D03*
X35000D03*
X36000D03*
X37000Y54000D03*
X38000D03*
X39000D03*
X40000D03*
X35000Y53000D03*
X36000D03*
X37000D03*
X38000D03*
X39000D03*
X40000D03*
X41000Y54000D03*
X37000Y52000D03*
X38000D03*
X39000D03*
X40000D03*
X41000Y53000D03*
Y52000D03*
X34000Y49000D03*
X35000D03*
X36000D03*
X37000D03*
X38000D03*
X39000D03*
X40000D03*
X41000D03*
X34000Y51000D03*
Y50000D03*
X35000Y51000D03*
Y50000D03*
X36000D03*
Y51000D03*
X37000D03*
X38000D03*
X39000D03*
X40000D03*
X37000Y50000D03*
X38000D03*
X39000D03*
X40000D03*
X41000D03*
Y51000D03*
X33000Y24000D03*
X34000D03*
X35000D03*
X36000D03*
X32000D03*
Y25000D03*
X33000D03*
X36000D03*
X34000D03*
X35000D03*
X36000Y23000D03*
X35000D03*
X37000D03*
X36000Y22000D03*
X37000D03*
X36000Y21000D03*
X34000Y23000D03*
Y22000D03*
X35000D03*
X33000Y21000D03*
X34000D03*
X40000Y23000D03*
Y22000D03*
Y21000D03*
Y26000D03*
Y27000D03*
X37000Y24000D03*
X38000D03*
X39000D03*
X41000D03*
X40000D03*
X41000Y23000D03*
Y26000D03*
Y27000D03*
X40000Y25000D03*
X39000D03*
X41000D03*
X37000Y27000D03*
X38000D03*
X39000D03*
X31000Y24000D03*
Y25000D03*
X30000Y24000D03*
Y25000D03*
X31000Y28000D03*
X32000D03*
X33000D03*
X34000D03*
X35000D03*
X31000Y26000D03*
Y27000D03*
X32000D03*
X33000D03*
X34000D03*
X35000D03*
X30000Y26000D03*
Y27000D03*
X32000Y26000D03*
X33000D03*
X34000D03*
X35000D03*
X41000Y28000D03*
X40000D03*
X36000D03*
X37000D03*
X38000D03*
X39000D03*
X37000Y25000D03*
X38000D03*
X37000Y26000D03*
X38000D03*
X39000D03*
X36000D03*
Y27000D03*
X26000Y24000D03*
X23000D03*
X25000D03*
X24000D03*
X27000D03*
X28000D03*
X29000D03*
X31000Y23000D03*
X30000D03*
X32000D03*
X33000D03*
X29000D03*
X26000D03*
X23000D03*
X25000D03*
X24000D03*
X27000D03*
X28000D03*
X25000Y28000D03*
X26000Y25000D03*
X25000D03*
X26000Y28000D03*
Y26000D03*
X25000Y27000D03*
X23000D03*
X24000D03*
X28000Y20000D03*
Y19000D03*
Y18000D03*
X27000Y25000D03*
Y28000D03*
Y26000D03*
Y27000D03*
X28000Y25000D03*
Y28000D03*
Y26000D03*
Y27000D03*
X29000D03*
X17000Y18000D03*
X18000D03*
X19000D03*
X16000D03*
X20000Y17000D03*
Y19000D03*
Y18000D03*
Y21000D03*
Y20000D03*
X16000Y17000D03*
X17000D03*
X18000D03*
X19000D03*
X17000Y19000D03*
X16000Y21000D03*
X17000D03*
X18000D03*
X19000D03*
X16000Y20000D03*
X18000Y19000D03*
X19000D03*
X14000Y20000D03*
X15000D03*
X17000D03*
X18000D03*
X19000D03*
X16000Y19000D03*
X12000D03*
X13000D03*
X14000D03*
X15000D03*
X12000Y18000D03*
Y21000D03*
Y20000D03*
X13000Y18000D03*
Y21000D03*
X14000D03*
X15000D03*
X13000Y20000D03*
X12000Y17000D03*
X13000D03*
X14000D03*
Y18000D03*
X15000D03*
Y17000D03*
G54D20*X13000Y14500D03*
X14000D03*
X15000D03*
X16000D03*
X17000D03*
X18000D03*
X19000D03*
X20000D03*
G54D19*X18500Y11500D03*
X18000Y10500D03*
X16500Y11500D03*
X16000Y10500D03*
X17000D03*
X15000D03*
X15500Y11500D03*
X17500D03*
G54D15*X14500Y8000D03*
X19000D03*
G54D20*X23000Y14500D03*
X24000D03*
X25000D03*
X26000D03*
X27000D03*
X28000D03*
X29000D03*
G54D19*X28500Y11500D03*
X28000Y10500D03*
X27500Y11500D03*
G54D15*X29000Y8000D03*
G54D19*X26500Y11500D03*
X26000Y10500D03*
X27000D03*
X25000D03*
X25500Y11500D03*
G54D15*X24500Y8000D03*
G54D19*X35000Y20000D03*
X36000Y19000D03*
X34000D03*
X31000D03*
X30000D03*
X32000D03*
X33000D03*
X31000Y18000D03*
X30000D03*
Y17000D03*
G54D20*Y14500D03*
G54D19*X32000Y18000D03*
Y17000D03*
X31000D03*
X38000Y23000D03*
Y22000D03*
Y21000D03*
Y20000D03*
Y19000D03*
Y18000D03*
X39000Y23000D03*
Y22000D03*
Y21000D03*
Y20000D03*
Y19000D03*
Y18000D03*
X41000Y22000D03*
Y21000D03*
Y20000D03*
X37000Y21000D03*
Y20000D03*
Y19000D03*
Y18000D03*
Y17000D03*
X35000Y19000D03*
Y18000D03*
Y17000D03*
G54D20*Y14500D03*
G54D19*Y10500D03*
G54D15*X34500Y8000D03*
G54D19*X36000Y18000D03*
Y17000D03*
G54D20*Y14500D03*
G54D19*X36500Y11500D03*
X36000Y10500D03*
X35500Y11500D03*
X33000Y18000D03*
Y17000D03*
G54D20*Y14500D03*
G54D19*X34000Y18000D03*
Y17000D03*
G54D20*Y14500D03*
X37000D03*
G54D19*Y10500D03*
X37500Y11500D03*
X40000Y20000D03*
Y19000D03*
Y18000D03*
Y17000D03*
G54D20*Y14500D03*
G54D19*X38000Y17000D03*
G54D20*Y14500D03*
G54D19*X38500Y11500D03*
X38000Y10500D03*
X39000Y17000D03*
G54D20*Y14500D03*
G54D15*Y8000D03*
G54D19*X41000Y19000D03*
Y18000D03*
Y17000D03*
G54D15*X42600Y17200D03*
G54D19*X35000Y21000D03*
X36000Y20000D03*
X34000D03*
X31000D03*
X30000D03*
X32000D03*
X33000D03*
X29000D03*
Y28000D03*
Y25000D03*
X35000Y30000D03*
X36000D03*
X37000D03*
X38000D03*
X39000D03*
X40000D03*
X41000D03*
G54D15*X30000Y29000D03*
G54D19*X33000Y30000D03*
X34000D03*
X32000D03*
X31000D03*
Y22000D03*
X30000D03*
X32000D03*
X33000D03*
X26000D03*
X25000D03*
X24000D03*
X27000D03*
X28000D03*
X29000D03*
X23000D03*
X31000Y21000D03*
X30000D03*
X32000D03*
X26000D03*
X23000D03*
X25000D03*
X24000D03*
X27000D03*
X28000D03*
X29000D03*
X26000Y20000D03*
X23000D03*
X25000D03*
X24000D03*
X23000Y19000D03*
X24000D03*
X23000Y18000D03*
X24000D03*
X25000Y19000D03*
Y18000D03*
Y26000D03*
X26000Y27000D03*
X23000Y17000D03*
Y28000D03*
Y25000D03*
Y26000D03*
X25000Y17000D03*
X24000D03*
Y28000D03*
Y25000D03*
Y26000D03*
X27000Y20000D03*
X26000Y19000D03*
X27000D03*
X29000D03*
Y18000D03*
Y26000D03*
X26000Y18000D03*
X27000D03*
X26000Y17000D03*
X27000D03*
X28000D03*
X29000D03*
G54D15*X1200Y44400D03*
G54D19*X3000Y43000D03*
Y44000D03*
X4000Y43000D03*
Y44000D03*
X3000Y45000D03*
X4000D03*
Y46000D03*
Y47000D03*
Y48000D03*
X3000Y46000D03*
Y47000D03*
Y48000D03*
X5000Y43000D03*
X6000Y44000D03*
X5000D03*
X7000D03*
X6000Y45000D03*
X7000D03*
X8000D03*
X5000D03*
X6000Y46000D03*
X7000D03*
X8000D03*
X5000D03*
X6000Y47000D03*
X5000D03*
X6000Y48000D03*
X5000D03*
X7000Y47000D03*
Y48000D03*
X8000Y47000D03*
Y48000D03*
X12000Y37000D03*
Y36000D03*
Y35000D03*
Y34000D03*
X13000D03*
X12000Y33000D03*
X13000D03*
X11000D03*
Y34000D03*
Y35000D03*
Y36000D03*
Y37000D03*
Y39000D03*
Y38000D03*
X12000Y32000D03*
X13000D03*
X11000D03*
X10000D03*
X8000D03*
X9000D03*
X12000Y31000D03*
X13000D03*
X11000D03*
X10000D03*
X8000D03*
X9000D03*
X12000Y30000D03*
X13000D03*
X11000D03*
X10000Y33000D03*
Y34000D03*
Y35000D03*
Y36000D03*
Y37000D03*
Y38000D03*
Y39000D03*
X8000D03*
X9000D03*
X8000Y38000D03*
X9000D03*
X12000Y46000D03*
Y45000D03*
Y44000D03*
Y43000D03*
Y42000D03*
X11000D03*
X10000D03*
X11000Y43000D03*
X10000D03*
X12000Y41000D03*
X11000D03*
X10000D03*
X12000Y40000D03*
Y39000D03*
X11000Y40000D03*
X10000D03*
X6000D03*
Y41000D03*
X7000Y40000D03*
Y41000D03*
X8000D03*
X9000D03*
X8000Y40000D03*
X9000D03*
X6000Y42000D03*
X7000D03*
X6000Y43000D03*
X7000D03*
X8000Y42000D03*
X9000D03*
X8000Y43000D03*
X9000D03*
X10000Y30000D03*
X6000D03*
X7000D03*
X8000D03*
X9000D03*
X6000Y31000D03*
X7000D03*
X6000Y32000D03*
X7000D03*
X5000D03*
X3000Y30000D03*
X4000D03*
X3000Y31000D03*
X4000D03*
X5000Y30000D03*
Y31000D03*
X3000Y32000D03*
X4000D03*
X3000Y33000D03*
X4000D03*
X6000D03*
X7000D03*
X8000D03*
X9000D03*
X5000D03*
Y34000D03*
Y35000D03*
X6000Y34000D03*
X7000D03*
X8000D03*
X9000D03*
X6000Y35000D03*
X7000D03*
X6000Y36000D03*
X7000D03*
X8000Y35000D03*
X9000D03*
X8000Y36000D03*
X9000D03*
X8000Y37000D03*
X9000D03*
X6000D03*
X7000D03*
X6000Y39000D03*
X7000D03*
X6000Y38000D03*
X7000D03*
X3000Y34000D03*
X4000D03*
Y35000D03*
X5000Y36000D03*
X4000D03*
X3000Y35000D03*
Y36000D03*
Y37000D03*
X5000D03*
X4000D03*
X5000Y39000D03*
X4000D03*
X5000Y38000D03*
X4000D03*
X3000Y40000D03*
X4000D03*
Y41000D03*
Y42000D03*
X5000Y40000D03*
Y41000D03*
Y42000D03*
X3000Y39000D03*
Y41000D03*
Y42000D03*
Y38000D03*
X18000Y39000D03*
X17000D03*
Y40000D03*
X19000Y39000D03*
X18000Y40000D03*
X19000D03*
X20000Y39000D03*
Y40000D03*
Y41000D03*
X18000Y38000D03*
X17000D03*
X19000D03*
X20000D03*
X15000Y39000D03*
X16000D03*
X15000Y40000D03*
X16000D03*
X18000Y41000D03*
X17000D03*
X18000Y42000D03*
X15000Y41000D03*
X16000D03*
X15000Y42000D03*
X16000D03*
X15000Y38000D03*
X16000D03*
X13000Y42500D03*
X14000Y42000D03*
Y41000D03*
Y40000D03*
X13000Y41500D03*
Y40500D03*
Y39500D03*
Y38500D03*
Y37000D03*
Y36000D03*
Y35000D03*
X14000Y37000D03*
Y39000D03*
Y36000D03*
Y35000D03*
Y34000D03*
Y33000D03*
Y32000D03*
Y31000D03*
Y30000D03*
X19000Y41000D03*
Y42000D03*
Y43000D03*
Y44000D03*
Y45000D03*
X17000Y42000D03*
Y43000D03*
Y44000D03*
X18000Y43000D03*
Y44000D03*
Y45000D03*
X20000Y42000D03*
Y43000D03*
Y44000D03*
Y45000D03*
X15000Y43000D03*
X16000D03*
Y44000D03*
X15000D03*
Y45000D03*
X13000Y43500D03*
X14000Y45000D03*
Y44000D03*
Y43000D03*
G54D15*X13000Y49000D03*
G54D19*X15000Y46000D03*
X13000Y45500D03*
Y44500D03*
X14000Y46000D03*
X15000Y47000D03*
Y48000D03*
Y49000D03*
X19000Y46000D03*
Y47000D03*
Y48000D03*
Y49000D03*
Y50000D03*
X20000Y46000D03*
Y47000D03*
Y48000D03*
Y49000D03*
Y50000D03*
X17000Y47000D03*
Y48000D03*
Y49000D03*
Y50000D03*
Y53000D03*
Y54000D03*
X18000Y51000D03*
Y52000D03*
Y53000D03*
Y54000D03*
X19000Y51000D03*
Y52000D03*
Y53000D03*
Y54000D03*
X20000Y51000D03*
Y52000D03*
Y53000D03*
Y54000D03*
X17000Y45000D03*
X16000D03*
X18000Y46000D03*
X17000D03*
X16000D03*
X18000Y47000D03*
Y48000D03*
Y49000D03*
Y50000D03*
X17000Y51000D03*
Y52000D03*
X16000Y47000D03*
Y48000D03*
Y49000D03*
Y50000D03*
Y51000D03*
Y52000D03*
X15000Y50000D03*
Y51000D03*
Y52000D03*
Y53000D03*
X16000D03*
Y54000D03*
X15000D03*
X4000Y49000D03*
X6000D03*
X7000D03*
X8000D03*
X3000D03*
X5000D03*
X6000Y50000D03*
X5000D03*
Y51000D03*
X3000Y50000D03*
X4000D03*
X3000Y51000D03*
X4000D03*
X11000Y50000D03*
Y51000D03*
X10000D03*
Y50000D03*
X9000D03*
X11000Y49000D03*
X10000D03*
X9000D03*
X11000Y44000D03*
Y45000D03*
X10000D03*
Y44000D03*
X8000D03*
X9000D03*
Y45000D03*
Y46000D03*
X11000D03*
X10000D03*
X11000Y47000D03*
X10000D03*
X9000D03*
Y48000D03*
X11000D03*
X10000D03*
X7000Y50000D03*
X8000D03*
X6000Y51000D03*
X7000D03*
X8000D03*
X9000D03*
X10000Y52000D03*
X8000D03*
X9000D03*
X8000Y53000D03*
X9000D03*
X11000Y52000D03*
Y53000D03*
X10000D03*
X11000Y54000D03*
X10000D03*
X8000D03*
X9000D03*
X3000Y52000D03*
X4000D03*
X6000D03*
X7000D03*
X5000D03*
X3000Y53000D03*
Y54000D03*
X4000Y53000D03*
Y54000D03*
X6000Y53000D03*
X7000D03*
X5000D03*
X6000Y54000D03*
X7000D03*
X5000D03*
X34000Y37000D03*
X35000D03*
X36000D03*
X34000Y38000D03*
X35000D03*
X36000D03*
X37000Y37000D03*
X38000D03*
X39000D03*
X34000Y39000D03*
X35000D03*
X36000D03*
X41000Y40000D03*
Y41000D03*
X40000Y39000D03*
Y40000D03*
X41000Y36000D03*
X40000Y37000D03*
Y38000D03*
X37000D03*
Y39000D03*
Y40000D03*
X38000Y38000D03*
Y39000D03*
Y40000D03*
X39000Y38000D03*
Y39000D03*
Y40000D03*
X34000D03*
X35000D03*
X36000D03*
X34000Y41000D03*
X30000Y38000D03*
X31000D03*
Y37000D03*
Y35000D03*
Y34000D03*
Y33000D03*
Y32000D03*
Y31000D03*
X30000Y39000D03*
X31000D03*
X30000Y41000D03*
Y42000D03*
X31000D03*
Y41000D03*
X29000D03*
Y42000D03*
Y39000D03*
X28000D03*
X27000D03*
X29000Y38000D03*
X28000D03*
X27000D03*
X30000Y40000D03*
X31000D03*
X29000D03*
X28000D03*
Y41000D03*
Y42000D03*
X27000Y40000D03*
Y41000D03*
Y42000D03*
G54D15*X22250Y33250D03*
G54D19*X22000Y39000D03*
X21000D03*
X22000Y40000D03*
X21000D03*
X22000Y41000D03*
Y42000D03*
Y38000D03*
X21000Y41000D03*
Y42000D03*
Y38000D03*
X22000Y43000D03*
Y44000D03*
Y45000D03*
Y46000D03*
X21000Y43000D03*
Y44000D03*
Y45000D03*
Y46000D03*
X23000Y42000D03*
Y43000D03*
Y44000D03*
Y45000D03*
Y46000D03*
Y47000D03*
Y48000D03*
Y49000D03*
Y50000D03*
Y51000D03*
Y52000D03*
X22000Y47000D03*
Y48000D03*
Y49000D03*
Y50000D03*
Y51000D03*
Y52000D03*
X21000Y47000D03*
Y48000D03*
Y49000D03*
Y50000D03*
Y51000D03*
Y52000D03*
X23000Y41000D03*
Y38000D03*
X26000Y39000D03*
Y40000D03*
X25000D03*
Y39000D03*
X24000D03*
X23000D03*
Y40000D03*
X24000D03*
X26000Y38000D03*
X25000D03*
X24000D03*
X26000Y41000D03*
Y42000D03*
X25000Y41000D03*
X24000D03*
X25000Y42000D03*
X24000D03*
X26000Y43000D03*
X25000D03*
X24000D03*
X33000Y38000D03*
X41000D03*
X32000D03*
X33000Y37000D03*
X41000D03*
X32000D03*
X33000Y34000D03*
Y33000D03*
X34000Y34000D03*
X32000Y33000D03*
Y34000D03*
X33000Y31000D03*
X34000D03*
X35000D03*
X36000D03*
X32000D03*
X34000Y32000D03*
X35000D03*
X36000D03*
X37000D03*
X32000D03*
X33000D03*
X34000Y33000D03*
X35000D03*
X36000D03*
X35000Y34000D03*
X36000D03*
X37000D03*
X38000D03*
X39000D03*
X40000D03*
X41000D03*
X37000Y31000D03*
X38000D03*
X39000D03*
X40000D03*
X38000Y32000D03*
X37000Y33000D03*
X38000D03*
X39000D03*
X40000D03*
X39000Y32000D03*
X40000D03*
X41000Y31000D03*
Y32000D03*
Y33000D03*
X33000Y35000D03*
X32000D03*
X34000D03*
Y36000D03*
X35000Y35000D03*
Y36000D03*
X36000D03*
Y35000D03*
X37000D03*
X38000D03*
X39000D03*
X40000D03*
X41000D03*
X37000Y36000D03*
X38000D03*
X39000D03*
X40000D03*
X35500Y13000D03*
X25500D03*
X15500D03*
X5500D03*
X40500D03*
M02*
