G04 start of page 2 for group 0 idx 0
G04 Title: bien sucia, outline *
G04 Creator: pcb 20080202 *
G04 CreationDate: Wed Jan 28 23:52:37 2009 UTC *
G04 For: orluke *
G04 Format: Gerber/RS-274X *
G04 PCB-Dimensions: 450000 650000 *
G04 PCB-Coordinate-Origin: lower left *
%MOIN*%
%FSLAX24Y24*%
%LNFRONT*%
%ADD11C,0.0250*%
%ADD12C,0.0100*%
%ADD13C,0.0060*%
%ADD14C,0.0100*%
%ADD15C,0.1280*%
%ADD16C,0.0700*%
%ADD17C,0.0200*%
%ADD18C,0.0600*%
%ADD19C,0.0350*%
%ADD20C,0.0380*%
G54D11*X34500Y9000D02*X25500D01*
X24500D02*X15500D01*
X15000Y9500D01*
X14500Y9000D01*
X5500D01*
X5000Y9500D01*
X5500Y13000D02*X4000Y14500D01*
G54D12*X5000D02*Y15000D01*
X5500Y15500D01*
G54D11*X5000Y9500D02*Y10500D01*
X4500Y11000D01*
Y13000D01*
X5500D02*Y11500D01*
X4500Y13000D02*X3000Y14500D01*
X14500Y13000D02*X13000Y14500D01*
X15000Y9500D02*Y10500D01*
X15100Y10400D02*X14500Y11000D01*
Y13000D01*
X15500D02*Y11500D01*
G54D12*X15000Y16000D02*X20250D01*
X15500Y15500D02*X20750D01*
X5500D02*X14500D01*
X8000Y13500D02*X9000Y14500D01*
X8500Y13000D02*X10000Y14500D01*
X8500Y11500D02*Y13000D01*
X6000Y10500D02*Y13500D01*
X5000Y14500D01*
X6500Y11500D02*Y14000D01*
X6000Y14500D01*
X7000Y10500D02*Y14500D01*
X7500Y11500D02*Y14000D01*
X8000Y10500D02*Y13500D01*
X7500Y14000D02*X8000Y14500D01*
X18000Y13500D02*X19000Y14500D01*
X18500Y13000D02*X20000Y14500D01*
X18500Y11500D02*Y13000D01*
X16000Y10500D02*Y13500D01*
X15000Y14500D01*
X16500Y11500D02*Y14000D01*
X14500Y15500D02*X15000Y16000D01*
Y14500D02*Y15000D01*
X15500Y15500D01*
G54D11*Y13000D02*X14000Y14500D01*
G54D12*X16500Y14000D02*X16000Y14500D01*
X17000Y10500D02*Y14500D01*
X17500Y11500D02*Y14000D01*
X18000Y14500D01*
Y10500D02*Y13500D01*
X20250Y16000D02*X20750Y16500D01*
Y15500D02*X21250Y16000D01*
X22250Y15500D02*X21750Y16000D01*
X22750D02*X22250Y16500D01*
X24500Y15500D02*X22250D01*
X25000Y16000D02*X22750D01*
X25000Y15000D02*X24500Y15500D01*
X25500D02*X25000Y16000D01*
X28000Y13500D02*X29000Y14500D01*
X28500Y13000D02*X30000Y14500D01*
X28500Y11500D02*Y13000D01*
X25000Y14500D02*Y15000D01*
X26000Y10500D02*Y13500D01*
X37500Y14000D02*X38000Y14500D01*
X35000Y15000D02*X34500Y15500D01*
G54D11*X35500Y13000D02*X34000Y14500D01*
G54D12*X36000Y13500D02*X35000Y14500D01*
X36500Y14000D02*X36000Y14500D01*
X35000D02*Y15000D01*
G54D11*Y9500D02*Y10500D01*
X34500Y11000D01*
Y13000D01*
X35500D02*Y11500D01*
G54D12*X26500D02*Y14000D01*
X27000Y10500D02*Y14500D01*
X27500Y11500D02*Y14000D01*
X28000Y10500D02*Y13500D01*
X26000D02*X25000Y14500D01*
X26500Y14000D02*X26000Y14500D01*
X27500Y14000D02*X28000Y14500D01*
X34500Y15500D02*X25500D01*
G54D11*X34500Y13000D02*X33000Y14500D01*
X25500Y9000D02*X25000Y9500D01*
Y10500D01*
Y9500D02*X24500Y9000D01*
X25100Y10400D02*X24500Y11000D01*
Y13000D01*
X23000Y14500D01*
X25500Y13000D02*X24000Y14500D01*
X25500Y13000D02*Y11500D01*
X40000Y16500D02*Y38000D01*
X41000Y16500D02*Y39000D01*
G54D12*X38500Y13000D02*X40000Y14500D01*
G54D11*X41000Y16500D02*X42500Y15000D01*
X40000Y16500D02*X41500Y15000D01*
Y14000D01*
X40500Y13000D01*
X42500Y15000D02*Y11000D01*
X40500Y9000D02*X42500Y11000D01*
G54D12*X38000Y13500D02*X39000Y14500D01*
G54D11*X40500Y9000D02*X35500D01*
X35000Y9500D01*
X34500Y9000D01*
G54D12*X38500Y11500D02*Y13000D01*
X36000Y10500D02*Y13500D01*
X36500Y11500D02*Y14000D01*
X37000Y10500D02*Y14500D01*
X37500Y11500D02*Y14000D01*
X38000Y10500D02*Y13500D01*
G54D11*X31000Y39000D02*X41000D01*
X40000Y38000D02*X31000D01*
X40000Y37000D02*X31000D01*
G54D13*X31500Y28500D02*X32500D01*
G54D12*X33000Y29000D02*X31000D01*
X33000Y30000D02*X31000D01*
G54D13*X32500Y34500D02*Y35500D01*
G54D12*X33000Y34000D02*X31000D01*
X33000Y33000D02*X31000D01*
X33000Y31000D02*X31000D01*
X33000Y32000D02*X31000D01*
X33000Y40000D02*X31000D01*
X33000Y41000D02*X31000D01*
X33000Y36000D02*X31000D01*
X30500Y35500D02*Y37500D01*
X30000Y35000D02*X30500Y35500D01*
X31000Y37000D02*X30500Y37500D01*
X22250Y29000D02*Y16500D01*
G54D13*X23000Y27500D02*X30500D01*
X31500Y28500D01*
G54D12*X30500Y37500D02*X31000Y38000D01*
G54D13*X32500Y41500D02*Y54000D01*
G54D12*X21250Y28000D02*Y16000D01*
X21750D02*Y28500D01*
X20750Y16500D02*Y27500D01*
X12000Y29000D02*X14000D01*
G54D13*X12500Y28500D02*X16500D01*
X17500Y27500D01*
X20000D01*
X12500Y36500D02*Y37000D01*
G54D12*Y37500D02*X13500D01*
X12000Y35000D02*X14000D01*
X12000Y36000D02*X14000D01*
X14500Y35500D02*X15000Y35000D01*
X30000D02*X15000D01*
X12000Y30000D02*X14000D01*
X17250Y34000D02*X12000D01*
X17250Y32000D02*X12000D01*
X17250Y33000D02*X12000D01*
X17250Y31000D02*X12000D01*
X21250Y28000D02*X17250Y32000D01*
X20750Y27500D02*X17250Y31000D01*
X22250Y29000D02*X17250Y34000D01*
X21750Y28500D02*X17250Y33000D01*
G54D13*X12500Y45500D02*Y54000D01*
G54D12*Y38500D02*X13500D01*
X12500Y37500D02*X12000Y38000D01*
X13500Y37500D02*X14000Y38000D01*
X12500Y38500D02*X12000Y39000D01*
X13500Y38500D02*X14000Y39000D01*
X12500Y39500D02*X13500D01*
X12500D02*X12000Y40000D01*
X12500Y40500D02*X13500D01*
X12500Y41500D02*X13500D01*
X12500Y40500D02*X12000Y41000D01*
X12500Y41500D02*X12000Y42000D01*
X12500Y42500D02*X13500D01*
X14000Y43000D01*
G54D11*X12500Y43500D02*X13500D01*
G54D12*X12500Y42500D02*X12000Y43000D01*
G54D11*X13500Y43500D02*X14000Y44000D01*
G54D12*X14500Y43500D02*Y35500D01*
X13500Y39500D02*X14000Y40000D01*
X13500Y40500D02*X14000Y41000D01*
X13500Y41500D02*X14000Y42000D01*
Y44000D02*X14500Y43500D01*
X12500Y44500D02*X13500D01*
X14000Y45000D01*
G54D11*X12000Y44000D02*X12500Y43500D01*
G54D12*Y44500D02*X12000Y45000D01*
X38538Y28356D02*X38610Y28284D01*
X38322Y28356D02*X38538D01*
X38250Y28284D02*X38322Y28356D01*
X38250Y28284D02*Y27852D01*
X38322Y27780D01*
X38538D01*
X38610Y27852D01*
Y27996D02*Y27852D01*
X38538Y28068D02*X38610Y27996D01*
X38394Y28068D02*X38538D01*
X38782Y28356D02*Y27780D01*
Y28356D02*Y28284D01*
X39142Y27924D01*
Y28356D02*Y27780D01*
X39387Y28356D02*Y27780D01*
X39603Y28356D02*X39675Y28284D01*
Y27852D01*
X39603Y27780D02*X39675Y27852D01*
X39315Y27780D02*X39603D01*
X39315Y28356D02*X39603D01*
X41500D02*X41788D01*
X41500D02*Y28068D01*
X41572Y28140D01*
X41716D01*
X41788Y28068D01*
Y27852D01*
X41716Y27780D02*X41788Y27852D01*
X41572Y27780D02*X41716D01*
X41500Y27852D02*X41572Y27780D01*
X41960Y28356D02*Y27924D01*
X42104Y27780D01*
X42248Y27924D01*
Y28356D02*Y27924D01*
X32750Y6804D02*X33214Y7268D01*
X32750Y6804D02*X33330D01*
X33214Y7268D02*Y6340D01*
X1152Y19000D02*X1760D01*
Y19304D02*Y19000D01*
X1152Y19714D02*Y19486D01*
Y19714D02*X1684D01*
X1760Y19638D02*X1684Y19714D01*
X1760Y19638D02*Y19562D01*
X1684Y19486D02*X1760Y19562D01*
X1228Y19897D02*X1684D01*
X1228D02*X1152Y19973D01*
Y20125D02*Y19973D01*
Y20125D02*X1228Y20201D01*
X1684D01*
X1760Y20125D02*X1684Y20201D01*
X1760Y20125D02*Y19973D01*
X1684Y19897D02*X1760Y19973D01*
X1228Y20657D02*X1152Y20733D01*
Y20961D02*Y20733D01*
Y20961D02*X1228Y21037D01*
X1380D01*
X1760Y20657D02*X1380Y21037D01*
X1760D02*Y20657D01*
X1684Y21219D02*X1760Y21295D01*
X1228Y21219D02*X1684D01*
X1228D02*X1152Y21295D01*
Y21447D02*Y21295D01*
Y21447D02*X1228Y21523D01*
X1684D01*
X1760Y21447D02*X1684Y21523D01*
X1760Y21447D02*Y21295D01*
X1608Y21219D02*X1304Y21523D01*
X1684Y21706D02*X1760Y21782D01*
X1228Y21706D02*X1684D01*
X1228D02*X1152Y21782D01*
Y21934D02*Y21782D01*
Y21934D02*X1228Y22010D01*
X1684D01*
X1760Y21934D02*X1684Y22010D01*
X1760Y21934D02*Y21782D01*
X1608Y21706D02*X1304Y22010D01*
X1760Y22192D02*X1456Y22496D01*
X1228D02*X1456D01*
X1152Y22420D02*X1228Y22496D01*
X1152Y22420D02*Y22268D01*
X1228Y22192D02*X1152Y22268D01*
X1228Y22192D02*X1380D01*
X1456Y22268D01*
Y22496D02*Y22268D01*
X1760Y22755D02*Y22679D01*
X1684Y22938D02*X1760Y23014D01*
X1228Y22938D02*X1684D01*
X1228D02*X1152Y23014D01*
Y23166D02*Y23014D01*
Y23166D02*X1228Y23242D01*
X1684D01*
X1760Y23166D02*X1684Y23242D01*
X1760Y23166D02*Y23014D01*
X1608Y22938D02*X1304Y23242D01*
X1760Y23652D02*Y23500D01*
X1152Y23576D02*X1760D01*
X1304Y23424D02*X1152Y23576D01*
X1760Y23911D02*Y23835D01*
X1228Y24093D02*X1152Y24169D01*
Y24397D02*Y24169D01*
Y24397D02*X1228Y24473D01*
X1380D01*
X1760Y24093D02*X1380Y24473D01*
X1760D02*Y24093D01*
X1684Y24656D02*X1760Y24732D01*
X1532Y24656D02*X1684D01*
X1532D02*X1456Y24732D01*
Y24884D02*Y24732D01*
Y24884D02*X1532Y24960D01*
X1684D01*
X1760Y24884D02*X1684Y24960D01*
X1760Y24884D02*Y24732D01*
X1380Y24656D02*X1456Y24732D01*
X1228Y24656D02*X1380D01*
X1228D02*X1152Y24732D01*
Y24884D02*Y24732D01*
Y24884D02*X1228Y24960D01*
X1380D01*
X1456Y24884D02*X1380Y24960D01*
G54D14*X926Y7350D02*X1679D01*
X926D02*X801Y7475D01*
Y7726D02*Y7475D01*
Y7726D02*X926Y7852D01*
X1679D01*
X1805Y7726D02*X1679Y7852D01*
X1805Y7726D02*Y7475D01*
X1679Y7350D02*X1805Y7475D01*
X1428Y8278D02*X2181D01*
X1303Y8153D02*X1428Y8278D01*
X1303Y8404D01*
Y8655D02*Y8404D01*
Y8655D02*X1428Y8780D01*
X1679D01*
X1805Y8655D02*X1679Y8780D01*
X1805Y8655D02*Y8404D01*
X1679Y8278D02*X1805Y8404D01*
Y9584D02*Y9207D01*
X1679Y9082D02*X1805Y9207D01*
X1428Y9082D02*X1679D01*
X1428D02*X1303Y9207D01*
Y9458D02*Y9207D01*
Y9458D02*X1428Y9584D01*
X1554D02*Y9082D01*
X1428Y9584D02*X1554D01*
X1428Y10011D02*X1805D01*
X1428D02*X1303Y10136D01*
Y10262D02*Y10136D01*
Y10262D02*X1428Y10387D01*
X1805D01*
X1303Y9885D02*X1428Y10011D01*
X801Y11191D02*X926Y11316D01*
X801Y11191D02*Y10814D01*
X926Y10689D02*X801Y10814D01*
X926Y10689D02*X1177D01*
X1303Y10814D01*
Y11191D02*Y10814D01*
Y11191D02*X1428Y11316D01*
X1679D01*
X1805Y11191D02*X1679Y11316D01*
X1805Y11191D02*Y10814D01*
X1679Y10689D02*X1805Y10814D01*
X1428Y11743D02*X2181D01*
X1303Y11618D02*X1428Y11743D01*
X1303Y11869D01*
Y12120D02*Y11869D01*
Y12120D02*X1428Y12245D01*
X1679D01*
X1805Y12120D02*X1679Y12245D01*
X1805Y12120D02*Y11869D01*
X1679Y11743D02*X1805Y11869D01*
X1428Y12672D02*X1805D01*
X1428D02*X1303Y12798D01*
Y13049D02*Y12798D01*
Y12547D02*X1428Y12672D01*
X1052Y13350D02*X1177D01*
X1428D02*X1805D01*
X1428Y13727D02*X1805D01*
X1428D02*X1303Y13852D01*
Y13978D02*Y13852D01*
Y13978D02*X1428Y14103D01*
X1805D01*
X1303Y13601D02*X1428Y13727D01*
X801Y14530D02*X1679D01*
X1805Y14656D01*
X1177D02*Y14405D01*
X1805Y15409D02*Y15033D01*
Y15409D02*X1679Y15535D01*
X1554Y15409D02*X1679Y15535D01*
X1554Y15409D02*Y15033D01*
X1428Y14907D02*X1554Y15033D01*
X1428Y14907D02*X1303Y15033D01*
Y15409D02*Y15033D01*
Y15409D02*X1428Y15535D01*
X1679Y14907D02*X1805Y15033D01*
G54D12*X12750Y7152D02*X12866Y7268D01*
X13214D01*
X13330Y7152D01*
Y6920D01*
X12750Y6340D02*X13330Y6920D01*
X12750Y6340D02*X13330D01*
X2866D02*X3098D01*
X2982Y7268D02*Y6340D01*
X2750Y7036D02*X2982Y7268D01*
X22750Y7152D02*X22866Y7268D01*
X23098D01*
X23214Y7152D01*
Y6456D01*
X23098Y6340D02*X23214Y6456D01*
X22866Y6340D02*X23098D01*
X22750Y6456D02*X22866Y6340D01*
Y6804D02*X23214D01*
X1304Y26750D02*X1380D01*
X1532D02*X1760D01*
X1532Y26978D02*X1760D01*
X1532D02*X1456Y27054D01*
Y27130D02*Y27054D01*
Y27130D02*X1532Y27206D01*
X1760D01*
X1456Y26902D02*X1532Y26978D01*
X1152Y27464D02*X1684D01*
X1760Y27540D01*
X1380D02*Y27388D01*
X1760Y27996D02*Y27768D01*
X1684Y27692D02*X1760Y27768D01*
X1532Y27692D02*X1684D01*
X1532D02*X1456Y27768D01*
Y27920D02*Y27768D01*
Y27920D02*X1532Y27996D01*
X1608D02*Y27692D01*
X1532Y27996D02*X1608D01*
X1532Y28255D02*X1760D01*
X1532D02*X1456Y28331D01*
Y28483D02*Y28331D01*
Y28179D02*X1532Y28255D01*
X1228Y28741D02*X1760D01*
X1228D02*X1152Y28817D01*
Y28893D02*Y28817D01*
X1456D02*Y28665D01*
Y29274D02*X1532Y29350D01*
X1456Y29274D02*Y29122D01*
X1532Y29046D02*X1456Y29122D01*
X1532Y29046D02*X1684D01*
X1760Y29122D01*
X1456Y29350D02*X1684D01*
X1760Y29426D01*
Y29274D02*Y29122D01*
Y29274D02*X1684Y29350D01*
X1456Y29912D02*Y29684D01*
X1532Y29608D02*X1456Y29684D01*
X1532Y29608D02*X1684D01*
X1760Y29684D01*
Y29912D02*Y29684D01*
Y30399D02*Y30171D01*
X1684Y30095D02*X1760Y30171D01*
X1532Y30095D02*X1684D01*
X1532D02*X1456Y30171D01*
Y30323D02*Y30171D01*
Y30323D02*X1532Y30399D01*
X1608D02*Y30095D01*
X1532Y30399D02*X1608D01*
X1152Y30855D02*X1760D01*
X1684D02*X1760Y30931D01*
Y31083D02*Y30931D01*
Y31083D02*X1684Y31159D01*
X1532D02*X1684D01*
X1456Y31083D02*X1532Y31159D01*
X1456Y31083D02*Y30931D01*
X1532Y30855D02*X1456Y30931D01*
X1532Y31341D02*X1684D01*
X1532D02*X1456Y31417D01*
Y31569D02*Y31417D01*
Y31569D02*X1532Y31645D01*
X1684D01*
X1760Y31569D02*X1684Y31645D01*
X1760Y31569D02*Y31417D01*
X1684Y31341D02*X1760Y31417D01*
X1456Y32056D02*X1532Y32132D01*
X1456Y32056D02*Y31904D01*
X1532Y31828D02*X1456Y31904D01*
X1532Y31828D02*X1684D01*
X1760Y31904D01*
X1456Y32132D02*X1684D01*
X1760Y32208D01*
Y32056D02*Y31904D01*
Y32056D02*X1684Y32132D01*
X1532Y32467D02*X1760D01*
X1532D02*X1456Y32543D01*
Y32695D02*Y32543D01*
Y32391D02*X1532Y32467D01*
X1152Y33181D02*X1760D01*
Y33105D02*X1684Y33181D01*
X1760Y33105D02*Y32953D01*
X1684Y32877D02*X1760Y32953D01*
X1532Y32877D02*X1684D01*
X1532D02*X1456Y32953D01*
Y33105D02*Y32953D01*
Y33105D02*X1532Y33181D01*
X1456Y33637D02*X1608D01*
X1760Y33789D01*
X1608Y33941D01*
X1456D02*X1608D01*
X1228Y34124D02*X1152Y34200D01*
Y34428D02*Y34200D01*
Y34428D02*X1228Y34504D01*
X1380D01*
X1760Y34124D02*X1380Y34504D01*
X1760D02*Y34124D01*
Y34762D02*Y34686D01*
Y35173D02*Y35021D01*
X1152Y35097D02*X1760D01*
X1304Y34945D02*X1152Y35097D01*
X42152Y19076D02*X42684D01*
X42760Y19152D01*
X42380D02*Y19000D01*
X42532Y19304D02*X42684D01*
X42532D02*X42456Y19380D01*
Y19532D02*Y19380D01*
Y19532D02*X42532Y19608D01*
X42684D01*
X42760Y19532D02*X42684Y19608D01*
X42760Y19532D02*Y19380D01*
X42684Y19304D02*X42760Y19380D01*
X42532Y19866D02*X42988D01*
X42456Y19790D02*X42532Y19866D01*
X42456Y19942D01*
Y20094D02*Y19942D01*
Y20094D02*X42532Y20170D01*
X42684D01*
X42760Y20094D02*X42684Y20170D01*
X42760Y20094D02*Y19942D01*
X42684Y19866D02*X42760Y19942D01*
Y20930D02*Y20702D01*
Y20930D02*X42684Y21006D01*
X42608Y20930D02*X42684Y21006D01*
X42608Y20930D02*Y20702D01*
X42532Y20626D02*X42608Y20702D01*
X42532Y20626D02*X42456Y20702D01*
Y20930D02*Y20702D01*
Y20930D02*X42532Y21006D01*
X42684Y20626D02*X42760Y20702D01*
X42456Y21189D02*X42684D01*
X42760Y21265D01*
Y21417D02*Y21265D01*
Y21417D02*X42684Y21493D01*
X42456D02*X42684D01*
X42532Y21751D02*X42760D01*
X42532D02*X42456Y21827D01*
Y21979D02*Y21827D01*
Y21675D02*X42532Y21751D01*
X42228Y22238D02*X42760D01*
X42228D02*X42152Y22314D01*
Y22390D02*Y22314D01*
X42456D02*Y22162D01*
Y22770D02*X42532Y22846D01*
X42456Y22770D02*Y22618D01*
X42532Y22542D02*X42456Y22618D01*
X42532Y22542D02*X42684D01*
X42760Y22618D01*
X42456Y22846D02*X42684D01*
X42760Y22922D01*
Y22770D02*Y22618D01*
Y22770D02*X42684Y22846D01*
X42456Y23409D02*Y23181D01*
X42532Y23105D02*X42456Y23181D01*
X42532Y23105D02*X42684D01*
X42760Y23181D01*
Y23409D02*Y23181D01*
Y23895D02*Y23667D01*
X42684Y23591D02*X42760Y23667D01*
X42532Y23591D02*X42684D01*
X42532D02*X42456Y23667D01*
Y23819D02*Y23667D01*
Y23819D02*X42532Y23895D01*
X42608D02*Y23591D01*
X42532Y23895D02*X42608D01*
X0Y54400D02*X43800D01*
X0Y6000D02*Y54400D01*
X43800D02*Y6000D01*
X0D01*
G54D15*X1200Y17200D03*
G54D16*X3000Y18000D03*
X4000D03*
X3000Y17000D03*
X4000D03*
X3000Y14500D03*
X4000D03*
X5000D03*
Y17000D03*
X3000Y20000D03*
Y19000D03*
X5000Y20000D03*
Y19000D03*
X4000Y20000D03*
Y19000D03*
X11000Y24000D03*
Y23000D03*
X10000Y24000D03*
Y23000D03*
X8000Y24000D03*
Y23000D03*
Y22000D03*
Y25000D03*
X9000Y24000D03*
Y23000D03*
Y22000D03*
Y25000D03*
X11000Y22000D03*
Y21000D03*
Y20000D03*
X10000Y22000D03*
Y21000D03*
Y20000D03*
X6000Y24000D03*
X5000D03*
Y23000D03*
X6000Y25000D03*
X5000D03*
X7000Y24000D03*
X6000Y23000D03*
X7000D03*
Y25000D03*
X3000Y24000D03*
X4000D03*
X3000Y23000D03*
X4000D03*
X3000Y25000D03*
X4000D03*
X6000Y22000D03*
X5000D03*
X4000D03*
X7000D03*
X3000D03*
Y21000D03*
X4000D03*
X17000Y18000D03*
X18000D03*
X19000D03*
X16000D03*
X20000Y17000D03*
Y19000D03*
Y18000D03*
Y21000D03*
Y20000D03*
X16000Y17000D03*
X17000D03*
X18000D03*
X19000D03*
X17000Y19000D03*
X16000Y21000D03*
X17000D03*
X18000D03*
X19000D03*
X16000Y20000D03*
X18000Y19000D03*
X19000D03*
X14000Y20000D03*
X15000D03*
X17000D03*
X18000D03*
X19000D03*
X16000Y19000D03*
X12000D03*
X13000D03*
X14000D03*
X15000D03*
X12000Y18000D03*
Y21000D03*
Y20000D03*
X13000Y18000D03*
Y21000D03*
X14000D03*
X15000D03*
X13000Y20000D03*
X12000Y17000D03*
X13000D03*
X14000D03*
Y18000D03*
X15000D03*
Y17000D03*
X13000Y14500D03*
X14000D03*
X15000D03*
X16000D03*
X17000D03*
X18000D03*
X19000D03*
X20000D03*
X18500Y11500D03*
X18000Y10500D03*
G54D15*X19000Y8000D03*
G54D16*X16500Y11500D03*
X16000Y10500D03*
X17000D03*
G54D17*G36*
X14650Y10850D02*Y10150D01*
X15350D01*
Y10850D01*
X14650D01*
G37*
G54D16*X15500Y11500D03*
G54D15*X14500Y8000D03*
G54D16*X17500Y11500D03*
X20000Y24000D03*
X17000D03*
X18000D03*
X19000D03*
X20000Y23000D03*
X19000D03*
X20000Y22000D03*
X19000D03*
X16000Y23000D03*
X17000D03*
X18000D03*
X17000Y22000D03*
X18000D03*
X20000Y25000D03*
X16000D03*
X17000D03*
X18000D03*
X19000D03*
X16000Y24000D03*
X12000D03*
X13000D03*
X14000D03*
X15000D03*
X12000Y23000D03*
Y22000D03*
X13000D03*
Y23000D03*
X14000D03*
X15000D03*
X16000Y22000D03*
X14000D03*
X15000D03*
X20000Y27000D03*
X18000D03*
X19000D03*
X20000Y26000D03*
X18000D03*
X19000D03*
X16000Y27000D03*
X17000D03*
X16000Y26000D03*
X17000D03*
X11000Y27000D03*
X12000D03*
X13000D03*
X14000D03*
X15000D03*
X10000D03*
X11000Y26000D03*
X10000D03*
X12000D03*
X13000D03*
X14000D03*
X15000D03*
X11000Y25000D03*
X10000D03*
X12000D03*
X13000D03*
X14000D03*
X15000D03*
X8000Y14500D03*
Y18000D03*
Y17000D03*
X9000Y14500D03*
Y18000D03*
Y17000D03*
X10000Y14500D03*
X8000Y19000D03*
X9000D03*
X11000Y17000D03*
X10000D03*
X11000Y19000D03*
X10000D03*
X11000Y18000D03*
X10000D03*
X6000Y14500D03*
X7000D03*
X6000Y18000D03*
X5000D03*
X6000Y17000D03*
X7000D03*
X6000Y20000D03*
X7000D03*
X8000D03*
X9000D03*
X7000Y18000D03*
X6000Y19000D03*
X7000D03*
X6000Y21000D03*
X5000D03*
X7000D03*
X8000D03*
X9000D03*
X8500Y11500D03*
X8000Y10500D03*
X6500Y11500D03*
X6000Y10500D03*
X7000D03*
X7500Y11500D03*
G54D17*G36*
X4650Y10850D02*Y10150D01*
X5350D01*
Y10850D01*
X4650D01*
G37*
G54D16*X5500Y11500D03*
G54D15*X4500Y8000D03*
X9000D03*
X42600Y44400D03*
G54D16*X41000Y47000D03*
Y35000D03*
Y46000D03*
Y45000D03*
Y44000D03*
Y43000D03*
Y36000D03*
Y37000D03*
Y38000D03*
Y39000D03*
Y40000D03*
Y41000D03*
Y42000D03*
X36000Y39000D03*
X37000D03*
X38000D03*
X39000D03*
X40000D03*
X34000Y35000D03*
X35000D03*
X36000D03*
X37000D03*
X38000D03*
X39000D03*
X40000D03*
Y40000D03*
Y41000D03*
X37000D03*
X36000Y40000D03*
X37000D03*
X38000D03*
X39000D03*
X38000Y41000D03*
X39000D03*
X37000Y42000D03*
X38000D03*
X39000D03*
X40000D03*
X36000Y41000D03*
X35000Y42000D03*
X36000D03*
X34000D03*
Y43000D03*
Y47000D03*
Y46000D03*
X35000Y44000D03*
X36000D03*
X35000Y43000D03*
X36000D03*
Y46000D03*
X37000Y44000D03*
X38000D03*
X39000D03*
X40000D03*
X37000Y43000D03*
X38000D03*
X39000D03*
X40000D03*
X35000Y47000D03*
X36000D03*
X35000Y46000D03*
X37000Y47000D03*
X38000D03*
X37000Y46000D03*
X38000D03*
X39000Y47000D03*
X40000D03*
X39000Y46000D03*
X40000D03*
X33000Y41000D03*
X32000D03*
X33000Y40000D03*
X34000D03*
X35000D03*
X32000D03*
X33000Y39000D03*
X32000D03*
X34000D03*
X35000D03*
X34000Y41000D03*
X35000D03*
X33000Y34000D03*
Y33000D03*
Y32000D03*
Y31000D03*
X34000Y32000D03*
Y33000D03*
Y34000D03*
X35000Y32000D03*
Y33000D03*
Y34000D03*
X34000Y36000D03*
X35000D03*
X36000D03*
X37000D03*
X38000D03*
X39000D03*
X40000D03*
X36000Y32000D03*
Y33000D03*
Y34000D03*
X37000Y32000D03*
Y33000D03*
X38000D03*
X39000D03*
X40000D03*
X38000Y32000D03*
X39000D03*
X40000D03*
X37000Y34000D03*
X38000D03*
X39000D03*
X40000D03*
X33000Y38000D03*
Y37000D03*
Y36000D03*
X34000Y37000D03*
Y38000D03*
X35000D03*
Y37000D03*
X36000D03*
X37000D03*
X38000D03*
X39000D03*
X40000D03*
X36000Y38000D03*
X37000D03*
X38000D03*
X39000D03*
X40000D03*
X32000Y36000D03*
Y37000D03*
Y38000D03*
X33000Y30000D03*
Y29000D03*
X34000D03*
Y30000D03*
X35000D03*
X36000D03*
X37000D03*
X38000D03*
X34000Y31000D03*
X35000D03*
X36000D03*
X37000D03*
X38000D03*
X32000Y29000D03*
Y30000D03*
Y31000D03*
Y32000D03*
Y33000D03*
Y34000D03*
X35000Y29000D03*
X36000D03*
X37000D03*
X38000D03*
X36000Y27000D03*
X39000D03*
Y26000D03*
Y25000D03*
X36000Y26000D03*
Y25000D03*
X35000D03*
X37000D03*
X38000D03*
X32000Y27000D03*
X33000D03*
X34000D03*
X35000D03*
Y26000D03*
X37000Y27000D03*
X38000D03*
X37000Y26000D03*
X38000D03*
X32000D03*
X33000D03*
X34000D03*
X32000Y25000D03*
X33000D03*
X34000D03*
X39000Y29000D03*
Y30000D03*
Y31000D03*
X40000Y29000D03*
Y30000D03*
Y31000D03*
Y27000D03*
Y26000D03*
Y25000D03*
X41000Y27000D03*
Y26000D03*
Y25000D03*
Y29000D03*
Y30000D03*
Y31000D03*
Y32000D03*
Y33000D03*
Y34000D03*
X28000Y51000D03*
X30000D03*
X29000D03*
X27000D03*
Y50000D03*
Y52000D03*
Y53000D03*
X30000Y49000D03*
Y50000D03*
Y52000D03*
Y53000D03*
X29000D03*
X28000D03*
X29000Y52000D03*
X28000D03*
Y54000D03*
X27000D03*
X30000D03*
X29000D03*
X30000Y45000D03*
Y48000D03*
Y46000D03*
Y47000D03*
X27000Y48000D03*
Y49000D03*
Y45000D03*
Y46000D03*
Y47000D03*
X29000Y49000D03*
Y50000D03*
Y45000D03*
Y46000D03*
Y47000D03*
Y48000D03*
X28000Y49000D03*
Y50000D03*
Y45000D03*
Y46000D03*
Y47000D03*
Y48000D03*
X30000Y38000D03*
Y37000D03*
X31000Y38000D03*
Y34000D03*
Y37000D03*
Y36000D03*
X29000D03*
X28000D03*
X27000D03*
X29000Y37000D03*
X28000D03*
X27000D03*
X31000Y33000D03*
Y32000D03*
Y31000D03*
Y30000D03*
Y29000D03*
G54D15*X30000Y28000D03*
G54D16*Y40000D03*
X31000Y41000D03*
Y40000D03*
Y39000D03*
X30000D03*
X29000Y38000D03*
Y39000D03*
X28000Y38000D03*
X27000D03*
X28000Y39000D03*
X27000D03*
X29000Y40000D03*
X28000D03*
X27000D03*
X30000Y41000D03*
X29000D03*
X30000Y44000D03*
X29000D03*
X28000D03*
X27000D03*
X30000Y42000D03*
Y43000D03*
X29000Y42000D03*
Y43000D03*
X28000Y41000D03*
X27000D03*
X28000Y42000D03*
X27000D03*
X28000Y43000D03*
X27000D03*
X34000Y51000D03*
X35000D03*
X36000D03*
X34000Y50000D03*
X35000D03*
X36000D03*
X37000Y51000D03*
X38000D03*
X39000D03*
X37000Y50000D03*
X38000D03*
X39000D03*
X36000Y49000D03*
X37000D03*
X38000D03*
X39000D03*
X34000Y52000D03*
X35000D03*
X36000D03*
X37000D03*
X38000D03*
X39000D03*
X41000Y51000D03*
Y52000D03*
Y50000D03*
Y48000D03*
Y49000D03*
X34000Y54000D03*
X35000D03*
X36000D03*
X37000D03*
X38000D03*
X39000D03*
X40000D03*
X41000D03*
X34000Y53000D03*
X35000D03*
X36000D03*
X37000D03*
X38000D03*
X39000D03*
X40000D03*
X41000D03*
X40000Y52000D03*
X37000Y45000D03*
X38000D03*
X39000D03*
X40000Y51000D03*
Y50000D03*
Y48000D03*
Y49000D03*
Y45000D03*
X34000Y48000D03*
Y49000D03*
X35000D03*
Y48000D03*
X36000D03*
X37000D03*
X38000D03*
X39000D03*
X34000Y45000D03*
X35000D03*
X36000D03*
X34000Y44000D03*
X33000Y24000D03*
X34000D03*
X35000D03*
X36000D03*
X31000D03*
X30000D03*
X32000D03*
X36000Y23000D03*
X35000D03*
X37000D03*
X36000Y22000D03*
X37000D03*
X36000Y21000D03*
X34000Y23000D03*
Y22000D03*
X35000D03*
X33000Y21000D03*
X34000D03*
X35000Y20000D03*
X36000Y19000D03*
X34000D03*
X31000D03*
X30000D03*
X32000D03*
X33000D03*
X31000Y18000D03*
X30000D03*
Y17000D03*
X32000Y18000D03*
Y17000D03*
G54D15*X42600Y17200D03*
G54D16*X31000Y17000D03*
X40000Y23000D03*
Y22000D03*
Y21000D03*
X37000Y24000D03*
X38000D03*
X39000D03*
X41000D03*
X40000D03*
X41000Y23000D03*
X38000D03*
Y22000D03*
Y21000D03*
Y20000D03*
Y19000D03*
Y18000D03*
X39000Y23000D03*
Y22000D03*
Y21000D03*
Y20000D03*
Y19000D03*
Y18000D03*
X41000Y22000D03*
Y21000D03*
Y20000D03*
Y19000D03*
Y18000D03*
Y17000D03*
X40000Y20000D03*
Y19000D03*
Y18000D03*
Y17000D03*
Y14500D03*
X38000Y17000D03*
Y14500D03*
X38500Y11500D03*
X38000Y10500D03*
X39000Y17000D03*
Y14500D03*
G54D15*Y8000D03*
G54D16*X37000Y21000D03*
Y20000D03*
Y19000D03*
Y18000D03*
Y17000D03*
X35000Y19000D03*
Y18000D03*
Y17000D03*
Y14500D03*
G54D17*G36*
X34650Y10850D02*Y10150D01*
X35350D01*
Y10850D01*
X34650D01*
G37*
G54D15*X34500Y8000D03*
G54D16*X36000Y18000D03*
Y17000D03*
Y14500D03*
X36500Y11500D03*
X36000Y10500D03*
X35500Y11500D03*
X33000Y18000D03*
Y17000D03*
Y14500D03*
X34000Y18000D03*
Y17000D03*
Y14500D03*
X37000D03*
Y10500D03*
X37500Y11500D03*
X26000Y24000D03*
X23000D03*
X25000D03*
X24000D03*
X27000D03*
X28000D03*
X29000D03*
X31000Y23000D03*
X30000D03*
X32000D03*
X33000D03*
X29000D03*
X26000D03*
X23000D03*
X25000D03*
X24000D03*
X27000D03*
X28000D03*
X31000Y22000D03*
X30000D03*
X32000D03*
X33000D03*
X26000D03*
X25000D03*
X24000D03*
X27000D03*
X28000D03*
X29000D03*
X23000D03*
X31000Y21000D03*
X30000D03*
X32000D03*
X26000D03*
X23000D03*
X25000D03*
X24000D03*
X27000D03*
X28000D03*
X29000D03*
X35000D03*
X36000Y20000D03*
X34000D03*
X31000D03*
X30000D03*
X32000D03*
X33000D03*
X29000D03*
X26000D03*
X23000D03*
X25000D03*
X24000D03*
X23000Y19000D03*
X24000D03*
X23000Y18000D03*
X24000D03*
X25000Y19000D03*
Y18000D03*
X23000Y27000D03*
Y26000D03*
Y25000D03*
X25000Y27000D03*
X26000Y26000D03*
X25000D03*
X26000Y25000D03*
X25000D03*
X24000Y27000D03*
Y26000D03*
Y25000D03*
X27000Y20000D03*
X26000Y19000D03*
X27000D03*
X28000Y20000D03*
Y19000D03*
Y18000D03*
Y27000D03*
Y26000D03*
Y25000D03*
X29000Y19000D03*
Y18000D03*
Y27000D03*
Y26000D03*
Y25000D03*
X26000Y18000D03*
X27000D03*
X26000Y17000D03*
X27000D03*
X29000D03*
X23000D03*
Y14500D03*
X25000Y17000D03*
Y14500D03*
X26000D03*
X24000Y17000D03*
Y14500D03*
X27000D03*
X28000D03*
X29000D03*
X30000D03*
X28000Y17000D03*
X28500Y11500D03*
X28000Y10500D03*
X26500Y11500D03*
X26000Y10500D03*
X27000D03*
G54D17*G36*
X24650Y10850D02*Y10150D01*
X25350D01*
Y10850D01*
X24650D01*
G37*
G54D16*X25500Y11500D03*
X27500D03*
G54D15*X24500Y8000D03*
X29000D03*
G54D16*X30000Y36000D03*
X31000Y27000D03*
Y26000D03*
X30000D03*
X31000Y25000D03*
X30000D03*
X26000Y27000D03*
X27000D03*
Y26000D03*
Y25000D03*
G54D15*X22250Y32250D03*
G54D16*X23000Y39000D03*
X22000D03*
Y40000D03*
Y41000D03*
X23000Y40000D03*
Y41000D03*
Y42000D03*
X21000Y39000D03*
Y40000D03*
Y41000D03*
Y42000D03*
Y43000D03*
Y44000D03*
X22000Y42000D03*
Y43000D03*
Y44000D03*
Y45000D03*
X21000Y38000D03*
Y36000D03*
X24000D03*
Y38000D03*
Y39000D03*
Y37000D03*
X23000Y36000D03*
Y38000D03*
X22000D03*
Y36000D03*
X23000Y37000D03*
X22000D03*
X21000D03*
X26000Y36000D03*
Y37000D03*
X25000Y36000D03*
Y37000D03*
X26000Y38000D03*
Y39000D03*
Y40000D03*
X21000Y45000D03*
X23000Y43000D03*
Y44000D03*
Y45000D03*
X22000Y46000D03*
Y47000D03*
Y48000D03*
X23000Y46000D03*
Y47000D03*
Y48000D03*
X24000Y40000D03*
Y41000D03*
Y42000D03*
Y43000D03*
Y44000D03*
Y45000D03*
Y46000D03*
Y47000D03*
Y48000D03*
Y49000D03*
Y50000D03*
Y51000D03*
Y52000D03*
Y53000D03*
Y54000D03*
X25000Y38000D03*
Y39000D03*
Y40000D03*
Y41000D03*
Y42000D03*
Y43000D03*
X26000Y41000D03*
Y42000D03*
Y43000D03*
X25000Y44000D03*
Y45000D03*
Y46000D03*
X21000D03*
Y47000D03*
Y48000D03*
Y49000D03*
Y50000D03*
Y51000D03*
X22000Y49000D03*
Y50000D03*
Y51000D03*
X23000Y49000D03*
Y50000D03*
Y51000D03*
Y52000D03*
X22000D03*
Y53000D03*
Y54000D03*
X21000Y52000D03*
Y53000D03*
Y54000D03*
X23000Y53000D03*
Y54000D03*
X26000Y44000D03*
Y45000D03*
Y46000D03*
Y47000D03*
X25000D03*
Y48000D03*
Y49000D03*
X26000Y48000D03*
Y49000D03*
Y50000D03*
Y51000D03*
Y52000D03*
Y53000D03*
X25000Y50000D03*
Y51000D03*
Y52000D03*
Y53000D03*
X26000Y54000D03*
X25000D03*
G54D15*X1200Y44400D03*
G54D16*X3000Y38000D03*
Y39000D03*
Y40000D03*
Y41000D03*
Y42000D03*
Y43000D03*
Y44000D03*
Y45000D03*
X12000Y41000D03*
Y40000D03*
Y39000D03*
Y38000D03*
X11000D03*
Y39000D03*
X10000D03*
Y38000D03*
X9000D03*
Y39000D03*
Y40000D03*
Y41000D03*
Y43000D03*
Y44000D03*
Y45000D03*
X11000Y40000D03*
Y41000D03*
Y43000D03*
Y44000D03*
Y45000D03*
X10000Y40000D03*
Y41000D03*
Y43000D03*
Y44000D03*
Y45000D03*
X6000Y38000D03*
X5000D03*
X4000D03*
X7000D03*
X8000D03*
X7000Y39000D03*
X8000D03*
X6000D03*
X5000D03*
X4000D03*
X6000Y40000D03*
X5000D03*
X4000D03*
X7000D03*
X5000Y41000D03*
X4000D03*
X5000Y42000D03*
X4000D03*
X8000Y40000D03*
Y41000D03*
X6000D03*
X7000D03*
X6000Y42000D03*
X7000D03*
X8000D03*
X9000D03*
X6000Y43000D03*
X5000D03*
X4000D03*
X7000D03*
X5000Y44000D03*
X8000Y43000D03*
Y44000D03*
X6000D03*
X7000D03*
X6000Y45000D03*
X7000D03*
X8000D03*
X4000Y44000D03*
X5000Y45000D03*
X4000D03*
X18000Y38000D03*
Y39000D03*
X19000D03*
X20000D03*
X18000Y40000D03*
X19000D03*
X20000D03*
X19000Y38000D03*
X20000D03*
X18000Y36000D03*
X19000D03*
X20000D03*
X18000Y37000D03*
X19000D03*
X20000D03*
X15000Y38000D03*
X17000D03*
X16000D03*
X15000Y39000D03*
Y40000D03*
Y41000D03*
Y36000D03*
Y37000D03*
X17000Y39000D03*
Y40000D03*
Y41000D03*
Y36000D03*
Y37000D03*
X16000Y39000D03*
Y40000D03*
Y36000D03*
Y37000D03*
X13000Y42500D03*
Y41500D03*
Y40500D03*
Y39500D03*
Y38500D03*
Y37500D03*
Y36000D03*
Y35000D03*
Y34000D03*
Y33000D03*
Y31000D03*
Y30000D03*
Y29000D03*
Y32000D03*
X14000Y36000D03*
Y35000D03*
Y34000D03*
Y33000D03*
Y32000D03*
Y31000D03*
Y30000D03*
Y29000D03*
Y40000D03*
Y39000D03*
Y38000D03*
X16000Y41000D03*
Y42000D03*
Y43000D03*
X13000Y44500D03*
Y43500D03*
X14000Y45000D03*
Y44000D03*
Y43000D03*
Y42000D03*
Y41000D03*
G54D15*X13000Y48000D03*
G54D16*X18000Y41000D03*
X19000D03*
X20000D03*
X18000Y42000D03*
X19000D03*
X20000D03*
X18000Y43000D03*
Y44000D03*
Y45000D03*
X19000Y43000D03*
Y44000D03*
Y45000D03*
X20000Y43000D03*
Y44000D03*
Y45000D03*
X15000Y42000D03*
Y43000D03*
Y44000D03*
Y45000D03*
Y46000D03*
Y47000D03*
X17000Y42000D03*
Y43000D03*
Y44000D03*
Y45000D03*
Y46000D03*
Y47000D03*
X16000Y44000D03*
Y45000D03*
Y46000D03*
Y47000D03*
X18000Y46000D03*
Y47000D03*
Y48000D03*
Y49000D03*
X19000Y46000D03*
Y47000D03*
Y48000D03*
Y49000D03*
X20000Y46000D03*
Y47000D03*
Y48000D03*
Y49000D03*
X18000Y50000D03*
Y51000D03*
Y52000D03*
Y53000D03*
Y54000D03*
X19000Y50000D03*
Y51000D03*
Y52000D03*
Y53000D03*
Y54000D03*
X20000Y50000D03*
Y51000D03*
Y52000D03*
Y53000D03*
Y54000D03*
X15000Y48000D03*
Y49000D03*
Y50000D03*
X17000Y48000D03*
Y49000D03*
Y50000D03*
Y51000D03*
Y52000D03*
Y53000D03*
X16000Y48000D03*
Y49000D03*
Y50000D03*
Y51000D03*
Y52000D03*
Y53000D03*
X15000Y51000D03*
Y52000D03*
Y53000D03*
Y54000D03*
X17000D03*
X16000D03*
X12000Y36000D03*
Y35000D03*
Y34000D03*
Y33000D03*
Y32000D03*
Y31000D03*
Y30000D03*
X9000D03*
Y31000D03*
Y32000D03*
Y33000D03*
Y34000D03*
Y35000D03*
X11000Y31000D03*
Y32000D03*
Y33000D03*
Y34000D03*
Y35000D03*
Y36000D03*
X10000Y33000D03*
Y34000D03*
Y35000D03*
Y36000D03*
X9000D03*
Y37000D03*
X11000D03*
X10000D03*
X12000Y29000D03*
X11000D03*
X10000D03*
X9000Y26000D03*
X11000Y30000D03*
X10000D03*
Y31000D03*
Y32000D03*
X3000Y27000D03*
X5000D03*
X4000D03*
X3000Y26000D03*
X5000D03*
X4000D03*
X3000Y29000D03*
X7000Y27000D03*
X8000D03*
X9000D03*
X6000D03*
Y26000D03*
X7000D03*
X8000D03*
X7000Y29000D03*
X8000D03*
X9000D03*
X6000D03*
X5000D03*
X4000D03*
X6000Y30000D03*
X5000D03*
X4000D03*
X3000D03*
Y31000D03*
Y32000D03*
X6000Y31000D03*
X5000D03*
X4000D03*
X7000Y30000D03*
X8000D03*
Y31000D03*
Y32000D03*
Y33000D03*
Y34000D03*
X7000Y31000D03*
Y32000D03*
Y33000D03*
X6000Y34000D03*
X7000D03*
X6000Y35000D03*
X7000D03*
X8000D03*
Y36000D03*
Y37000D03*
X6000Y36000D03*
X7000D03*
X6000Y37000D03*
X7000D03*
X6000Y32000D03*
X5000D03*
X4000D03*
X6000Y33000D03*
X5000D03*
X4000D03*
X3000D03*
Y35000D03*
Y36000D03*
Y34000D03*
X4000D03*
X5000D03*
Y35000D03*
X4000D03*
X5000Y36000D03*
X4000D03*
X3000Y37000D03*
X4000D03*
X5000D03*
X4000Y48000D03*
X5000Y47000D03*
X4000D03*
X5000Y48000D03*
X3000Y49000D03*
X4000D03*
X3000Y50000D03*
X4000D03*
X3000Y51000D03*
Y46000D03*
X5000D03*
X4000D03*
X3000Y47000D03*
Y48000D03*
X11000Y49000D03*
Y50000D03*
X10000D03*
Y49000D03*
X9000D03*
X11000Y48000D03*
X10000D03*
X9000D03*
X8000D03*
X12000Y45000D03*
Y44000D03*
Y43000D03*
Y42000D03*
X11000D03*
X10000D03*
X11000Y46000D03*
Y47000D03*
X10000D03*
X9000D03*
X10000Y46000D03*
X9000D03*
X6000Y49000D03*
X5000D03*
Y50000D03*
X7000Y49000D03*
X8000D03*
X6000Y50000D03*
X7000D03*
X8000D03*
X6000Y46000D03*
X7000D03*
X8000D03*
X6000Y47000D03*
Y48000D03*
X7000D03*
Y47000D03*
X8000D03*
X4000Y51000D03*
X6000D03*
X7000D03*
X5000D03*
X6000Y52000D03*
X7000D03*
X5000D03*
X3000D03*
Y53000D03*
Y54000D03*
X4000Y52000D03*
Y53000D03*
Y54000D03*
X6000Y53000D03*
X5000D03*
X6000Y54000D03*
X5000D03*
X7000Y53000D03*
Y54000D03*
X9000Y50000D03*
X10000Y51000D03*
X8000D03*
X9000D03*
X8000Y52000D03*
X9000D03*
X11000Y51000D03*
Y52000D03*
X10000D03*
X11000Y53000D03*
X10000D03*
X8000D03*
Y54000D03*
X9000Y53000D03*
Y54000D03*
X11000D03*
X10000D03*
G54D18*X35500Y13000D03*
X25500D03*
X15500D03*
X5500D03*
X40500D03*
G54D15*X1200Y17200D03*
G54D19*X3000Y18000D03*
X4000D03*
X3000Y17000D03*
X4000D03*
G54D20*X3000Y14500D03*
X4000D03*
X5000D03*
G54D19*Y17000D03*
X3000Y20000D03*
Y19000D03*
X5000Y20000D03*
Y19000D03*
X4000Y20000D03*
Y19000D03*
X11000Y24000D03*
Y23000D03*
X10000Y24000D03*
Y23000D03*
X8000Y24000D03*
Y23000D03*
Y22000D03*
Y25000D03*
X9000Y24000D03*
Y23000D03*
Y22000D03*
Y25000D03*
X11000Y22000D03*
Y21000D03*
Y20000D03*
X10000Y22000D03*
Y21000D03*
Y20000D03*
X6000Y24000D03*
X5000D03*
Y23000D03*
X6000Y25000D03*
X5000D03*
X7000Y24000D03*
X6000Y23000D03*
X7000D03*
Y25000D03*
X3000Y24000D03*
X4000D03*
X3000Y23000D03*
X4000D03*
X3000Y25000D03*
X4000D03*
X6000Y22000D03*
X5000D03*
X4000D03*
X7000D03*
X3000D03*
Y21000D03*
X4000D03*
X17000Y18000D03*
X18000D03*
X19000D03*
X16000D03*
X20000Y17000D03*
Y19000D03*
Y18000D03*
Y21000D03*
Y20000D03*
X16000Y17000D03*
X17000D03*
X18000D03*
X19000D03*
X17000Y19000D03*
X16000Y21000D03*
X17000D03*
X18000D03*
X19000D03*
X16000Y20000D03*
X18000Y19000D03*
X19000D03*
X14000Y20000D03*
X15000D03*
X17000D03*
X18000D03*
X19000D03*
X16000Y19000D03*
X12000D03*
X13000D03*
X14000D03*
X15000D03*
X12000Y18000D03*
Y21000D03*
Y20000D03*
X13000Y18000D03*
Y21000D03*
X14000D03*
X15000D03*
X13000Y20000D03*
X12000Y17000D03*
X13000D03*
X14000D03*
Y18000D03*
X15000D03*
Y17000D03*
G54D20*X13000Y14500D03*
X14000D03*
X15000D03*
X16000D03*
X17000D03*
X18000D03*
X19000D03*
X20000D03*
G54D19*X18500Y11500D03*
X18000Y10500D03*
G54D15*X19000Y8000D03*
G54D19*X16500Y11500D03*
X16000Y10500D03*
X17000D03*
X15000D03*
X15500Y11500D03*
G54D15*X14500Y8000D03*
G54D19*X17500Y11500D03*
X20000Y24000D03*
X17000D03*
X18000D03*
X19000D03*
X20000Y23000D03*
X19000D03*
X20000Y22000D03*
X19000D03*
X16000Y23000D03*
X17000D03*
X18000D03*
X17000Y22000D03*
X18000D03*
X20000Y25000D03*
X16000D03*
X17000D03*
X18000D03*
X19000D03*
X16000Y24000D03*
X12000D03*
X13000D03*
X14000D03*
X15000D03*
X12000Y23000D03*
Y22000D03*
X13000D03*
Y23000D03*
X14000D03*
X15000D03*
X16000Y22000D03*
X14000D03*
X15000D03*
X20000Y27000D03*
X18000D03*
X19000D03*
X20000Y26000D03*
X18000D03*
X19000D03*
X16000Y27000D03*
X17000D03*
X16000Y26000D03*
X17000D03*
X11000Y27000D03*
X12000D03*
X13000D03*
X14000D03*
X15000D03*
X10000D03*
X11000Y26000D03*
X10000D03*
X12000D03*
X13000D03*
X14000D03*
X15000D03*
X11000Y25000D03*
X10000D03*
X12000D03*
X13000D03*
X14000D03*
X15000D03*
G54D20*X8000Y14500D03*
G54D19*Y18000D03*
Y17000D03*
G54D20*X9000Y14500D03*
G54D19*Y18000D03*
Y17000D03*
G54D20*X10000Y14500D03*
G54D19*X8000Y19000D03*
X9000D03*
X11000Y17000D03*
X10000D03*
X11000Y19000D03*
X10000D03*
X11000Y18000D03*
X10000D03*
G54D20*X6000Y14500D03*
X7000D03*
G54D19*X6000Y18000D03*
X5000D03*
X6000Y17000D03*
X7000D03*
X6000Y20000D03*
X7000D03*
X8000D03*
X9000D03*
X7000Y18000D03*
X6000Y19000D03*
X7000D03*
X6000Y21000D03*
X5000D03*
X7000D03*
X8000D03*
X9000D03*
X8500Y11500D03*
X8000Y10500D03*
X6500Y11500D03*
X6000Y10500D03*
X7000D03*
X7500Y11500D03*
X5000Y10500D03*
X5500Y11500D03*
G54D15*X4500Y8000D03*
X9000D03*
X42600Y44400D03*
G54D19*X41000Y47000D03*
Y35000D03*
Y46000D03*
Y45000D03*
Y44000D03*
Y43000D03*
Y36000D03*
Y37000D03*
Y38000D03*
Y39000D03*
Y40000D03*
Y41000D03*
Y42000D03*
X36000Y39000D03*
X37000D03*
X38000D03*
X39000D03*
X40000D03*
X34000Y35000D03*
X35000D03*
X36000D03*
X37000D03*
X38000D03*
X39000D03*
X40000D03*
Y40000D03*
Y41000D03*
X37000D03*
X36000Y40000D03*
X37000D03*
X38000D03*
X39000D03*
X38000Y41000D03*
X39000D03*
X37000Y42000D03*
X38000D03*
X39000D03*
X40000D03*
X36000Y41000D03*
X35000Y42000D03*
X36000D03*
X34000D03*
Y43000D03*
Y47000D03*
Y46000D03*
X35000Y44000D03*
X36000D03*
X35000Y43000D03*
X36000D03*
Y46000D03*
X37000Y44000D03*
X38000D03*
X39000D03*
X40000D03*
X37000Y43000D03*
X38000D03*
X39000D03*
X40000D03*
X35000Y47000D03*
X36000D03*
X35000Y46000D03*
X37000Y47000D03*
X38000D03*
X37000Y46000D03*
X38000D03*
X39000Y47000D03*
X40000D03*
X39000Y46000D03*
X40000D03*
X33000Y41000D03*
X32000D03*
X33000Y40000D03*
X34000D03*
X35000D03*
X32000D03*
X33000Y39000D03*
X32000D03*
X34000D03*
X35000D03*
X34000Y41000D03*
X35000D03*
X33000Y34000D03*
Y33000D03*
Y32000D03*
Y31000D03*
X34000Y32000D03*
Y33000D03*
Y34000D03*
X35000Y32000D03*
Y33000D03*
Y34000D03*
X34000Y36000D03*
X35000D03*
X36000D03*
X37000D03*
X38000D03*
X39000D03*
X40000D03*
X36000Y32000D03*
Y33000D03*
Y34000D03*
X37000Y32000D03*
Y33000D03*
X38000D03*
X39000D03*
X40000D03*
X38000Y32000D03*
X39000D03*
X40000D03*
X37000Y34000D03*
X38000D03*
X39000D03*
X40000D03*
X33000Y38000D03*
Y37000D03*
Y36000D03*
X34000Y37000D03*
Y38000D03*
X35000D03*
Y37000D03*
X36000D03*
X37000D03*
X38000D03*
X39000D03*
X40000D03*
X36000Y38000D03*
X37000D03*
X38000D03*
X39000D03*
X40000D03*
X32000Y36000D03*
Y37000D03*
Y38000D03*
X33000Y30000D03*
Y29000D03*
X34000D03*
Y30000D03*
X35000D03*
X36000D03*
X37000D03*
X38000D03*
X34000Y31000D03*
X35000D03*
X36000D03*
X37000D03*
X38000D03*
X32000Y29000D03*
Y30000D03*
Y31000D03*
Y32000D03*
Y33000D03*
Y34000D03*
X35000Y29000D03*
X36000D03*
X37000D03*
X38000D03*
X36000Y27000D03*
X39000D03*
Y26000D03*
Y25000D03*
X36000Y26000D03*
Y25000D03*
X35000D03*
X37000D03*
X38000D03*
X32000Y27000D03*
X33000D03*
X34000D03*
X35000D03*
Y26000D03*
X37000Y27000D03*
X38000D03*
X37000Y26000D03*
X38000D03*
X32000D03*
X33000D03*
X34000D03*
X32000Y25000D03*
X33000D03*
X34000D03*
X39000Y29000D03*
Y30000D03*
Y31000D03*
X40000Y29000D03*
Y30000D03*
Y31000D03*
Y27000D03*
Y26000D03*
Y25000D03*
X41000Y27000D03*
Y26000D03*
Y25000D03*
Y29000D03*
Y30000D03*
Y31000D03*
Y32000D03*
Y33000D03*
Y34000D03*
X28000Y51000D03*
X30000D03*
X29000D03*
X27000D03*
Y50000D03*
Y52000D03*
Y53000D03*
X30000Y49000D03*
Y50000D03*
Y52000D03*
Y53000D03*
X29000D03*
X28000D03*
X29000Y52000D03*
X28000D03*
Y54000D03*
X27000D03*
X30000D03*
X29000D03*
X30000Y45000D03*
Y48000D03*
Y46000D03*
Y47000D03*
X27000Y48000D03*
Y49000D03*
Y45000D03*
Y46000D03*
Y47000D03*
X29000Y49000D03*
Y50000D03*
Y45000D03*
Y46000D03*
Y47000D03*
Y48000D03*
X28000Y49000D03*
Y50000D03*
Y45000D03*
Y46000D03*
Y47000D03*
Y48000D03*
X30000Y38000D03*
Y37000D03*
X31000Y38000D03*
Y34000D03*
Y37000D03*
Y36000D03*
X29000D03*
X28000D03*
X27000D03*
X29000Y37000D03*
X28000D03*
X27000D03*
X31000Y33000D03*
Y32000D03*
Y31000D03*
Y30000D03*
Y29000D03*
G54D15*X30000Y28000D03*
G54D19*Y40000D03*
X31000Y41000D03*
Y40000D03*
Y39000D03*
X30000D03*
X29000Y38000D03*
Y39000D03*
X28000Y38000D03*
X27000D03*
X28000Y39000D03*
X27000D03*
X29000Y40000D03*
X28000D03*
X27000D03*
X30000Y41000D03*
X29000D03*
X30000Y44000D03*
X29000D03*
X28000D03*
X27000D03*
X30000Y42000D03*
Y43000D03*
X29000Y42000D03*
Y43000D03*
X28000Y41000D03*
X27000D03*
X28000Y42000D03*
X27000D03*
X28000Y43000D03*
X27000D03*
X34000Y51000D03*
X35000D03*
X36000D03*
X34000Y50000D03*
X35000D03*
X36000D03*
X37000Y51000D03*
X38000D03*
X39000D03*
X37000Y50000D03*
X38000D03*
X39000D03*
X36000Y49000D03*
X37000D03*
X38000D03*
X39000D03*
X34000Y52000D03*
X35000D03*
X36000D03*
X37000D03*
X38000D03*
X39000D03*
X41000Y51000D03*
Y52000D03*
Y50000D03*
Y48000D03*
Y49000D03*
X34000Y54000D03*
X35000D03*
X36000D03*
X37000D03*
X38000D03*
X39000D03*
X40000D03*
X41000D03*
X34000Y53000D03*
X35000D03*
X36000D03*
X37000D03*
X38000D03*
X39000D03*
X40000D03*
X41000D03*
X40000Y52000D03*
X37000Y45000D03*
X38000D03*
X39000D03*
X40000Y51000D03*
Y50000D03*
Y48000D03*
Y49000D03*
Y45000D03*
X34000Y48000D03*
Y49000D03*
X35000D03*
Y48000D03*
X36000D03*
X37000D03*
X38000D03*
X39000D03*
X34000Y45000D03*
X35000D03*
X36000D03*
X34000Y44000D03*
X33000Y24000D03*
X34000D03*
X35000D03*
X36000D03*
X31000D03*
X30000D03*
X32000D03*
X36000Y23000D03*
X35000D03*
X37000D03*
X36000Y22000D03*
X37000D03*
X36000Y21000D03*
X34000Y23000D03*
Y22000D03*
X35000D03*
X33000Y21000D03*
X34000D03*
X35000Y20000D03*
X36000Y19000D03*
X34000D03*
X31000D03*
X30000D03*
X32000D03*
X33000D03*
X31000Y18000D03*
X30000D03*
Y17000D03*
X32000Y18000D03*
Y17000D03*
G54D15*X42600Y17200D03*
G54D19*X31000Y17000D03*
X40000Y23000D03*
Y22000D03*
Y21000D03*
X37000Y24000D03*
X38000D03*
X39000D03*
X41000D03*
X40000D03*
X41000Y23000D03*
X38000D03*
Y22000D03*
Y21000D03*
Y20000D03*
Y19000D03*
Y18000D03*
X39000Y23000D03*
Y22000D03*
Y21000D03*
Y20000D03*
Y19000D03*
Y18000D03*
X41000Y22000D03*
Y21000D03*
Y20000D03*
Y19000D03*
Y18000D03*
Y17000D03*
X40000Y20000D03*
Y19000D03*
Y18000D03*
Y17000D03*
G54D20*Y14500D03*
G54D19*X38000Y17000D03*
G54D20*Y14500D03*
G54D19*X38500Y11500D03*
X38000Y10500D03*
X39000Y17000D03*
G54D20*Y14500D03*
G54D15*Y8000D03*
G54D19*X37000Y21000D03*
Y20000D03*
Y19000D03*
Y18000D03*
Y17000D03*
X35000Y19000D03*
Y18000D03*
Y17000D03*
G54D20*Y14500D03*
G54D19*Y10500D03*
G54D15*X34500Y8000D03*
G54D19*X36000Y18000D03*
Y17000D03*
G54D20*Y14500D03*
G54D19*X36500Y11500D03*
X36000Y10500D03*
X35500Y11500D03*
X33000Y18000D03*
Y17000D03*
G54D20*Y14500D03*
G54D19*X34000Y18000D03*
Y17000D03*
G54D20*Y14500D03*
X37000D03*
G54D19*Y10500D03*
X37500Y11500D03*
X26000Y24000D03*
X23000D03*
X25000D03*
X24000D03*
X27000D03*
X28000D03*
X29000D03*
X31000Y23000D03*
X30000D03*
X32000D03*
X33000D03*
X29000D03*
X26000D03*
X23000D03*
X25000D03*
X24000D03*
X27000D03*
X28000D03*
X31000Y22000D03*
X30000D03*
X32000D03*
X33000D03*
X26000D03*
X25000D03*
X24000D03*
X27000D03*
X28000D03*
X29000D03*
X23000D03*
X31000Y21000D03*
X30000D03*
X32000D03*
X26000D03*
X23000D03*
X25000D03*
X24000D03*
X27000D03*
X28000D03*
X29000D03*
X35000D03*
X36000Y20000D03*
X34000D03*
X31000D03*
X30000D03*
X32000D03*
X33000D03*
X29000D03*
X26000D03*
X23000D03*
X25000D03*
X24000D03*
X23000Y19000D03*
X24000D03*
X23000Y18000D03*
X24000D03*
X25000Y19000D03*
Y18000D03*
X23000Y27000D03*
Y26000D03*
Y25000D03*
X25000Y27000D03*
X26000Y26000D03*
X25000D03*
X26000Y25000D03*
X25000D03*
X24000Y27000D03*
Y26000D03*
Y25000D03*
X27000Y20000D03*
X26000Y19000D03*
X27000D03*
X28000Y20000D03*
Y19000D03*
Y18000D03*
Y27000D03*
Y26000D03*
Y25000D03*
X29000Y19000D03*
Y18000D03*
Y27000D03*
Y26000D03*
Y25000D03*
X26000Y18000D03*
X27000D03*
X26000Y17000D03*
X27000D03*
X29000D03*
X23000D03*
G54D20*Y14500D03*
G54D19*X25000Y17000D03*
G54D20*Y14500D03*
X26000D03*
G54D19*X24000Y17000D03*
G54D20*Y14500D03*
X27000D03*
X28000D03*
X29000D03*
X30000D03*
G54D19*X28000Y17000D03*
X28500Y11500D03*
X28000Y10500D03*
X26500Y11500D03*
X26000Y10500D03*
X27000D03*
X25000D03*
X25500Y11500D03*
X27500D03*
G54D15*X24500Y8000D03*
X29000D03*
G54D19*X30000Y36000D03*
X31000Y27000D03*
Y26000D03*
X30000D03*
X31000Y25000D03*
X30000D03*
X26000Y27000D03*
X27000D03*
Y26000D03*
Y25000D03*
G54D15*X22250Y32250D03*
G54D19*X23000Y39000D03*
X22000D03*
Y40000D03*
Y41000D03*
X23000Y40000D03*
Y41000D03*
Y42000D03*
X21000Y39000D03*
Y40000D03*
Y41000D03*
Y42000D03*
Y43000D03*
Y44000D03*
X22000Y42000D03*
Y43000D03*
Y44000D03*
Y45000D03*
X21000Y38000D03*
Y36000D03*
X24000D03*
Y38000D03*
Y39000D03*
Y37000D03*
X23000Y36000D03*
Y38000D03*
X22000D03*
Y36000D03*
X23000Y37000D03*
X22000D03*
X21000D03*
X26000Y36000D03*
Y37000D03*
X25000Y36000D03*
Y37000D03*
X26000Y38000D03*
Y39000D03*
Y40000D03*
X21000Y45000D03*
X23000Y43000D03*
Y44000D03*
Y45000D03*
X22000Y46000D03*
Y47000D03*
Y48000D03*
X23000Y46000D03*
Y47000D03*
Y48000D03*
X24000Y40000D03*
Y41000D03*
Y42000D03*
Y43000D03*
Y44000D03*
Y45000D03*
Y46000D03*
Y47000D03*
Y48000D03*
Y49000D03*
Y50000D03*
Y51000D03*
Y52000D03*
Y53000D03*
Y54000D03*
X25000Y38000D03*
Y39000D03*
Y40000D03*
Y41000D03*
Y42000D03*
Y43000D03*
X26000Y41000D03*
Y42000D03*
Y43000D03*
X25000Y44000D03*
Y45000D03*
Y46000D03*
X21000D03*
Y47000D03*
Y48000D03*
Y49000D03*
Y50000D03*
Y51000D03*
X22000Y49000D03*
Y50000D03*
Y51000D03*
X23000Y49000D03*
Y50000D03*
Y51000D03*
Y52000D03*
X22000D03*
Y53000D03*
Y54000D03*
X21000Y52000D03*
Y53000D03*
Y54000D03*
X23000Y53000D03*
Y54000D03*
X26000Y44000D03*
Y45000D03*
Y46000D03*
Y47000D03*
X25000D03*
Y48000D03*
Y49000D03*
X26000Y48000D03*
Y49000D03*
Y50000D03*
Y51000D03*
Y52000D03*
Y53000D03*
X25000Y50000D03*
Y51000D03*
Y52000D03*
Y53000D03*
X26000Y54000D03*
X25000D03*
G54D15*X1200Y44400D03*
G54D19*X3000Y38000D03*
Y39000D03*
Y40000D03*
Y41000D03*
Y42000D03*
Y43000D03*
Y44000D03*
Y45000D03*
X12000Y41000D03*
Y40000D03*
Y39000D03*
Y38000D03*
X11000D03*
Y39000D03*
X10000D03*
Y38000D03*
X9000D03*
Y39000D03*
Y40000D03*
Y41000D03*
Y43000D03*
Y44000D03*
Y45000D03*
X11000Y40000D03*
Y41000D03*
Y43000D03*
Y44000D03*
Y45000D03*
X10000Y40000D03*
Y41000D03*
Y43000D03*
Y44000D03*
Y45000D03*
X6000Y38000D03*
X5000D03*
X4000D03*
X7000D03*
X8000D03*
X7000Y39000D03*
X8000D03*
X6000D03*
X5000D03*
X4000D03*
X6000Y40000D03*
X5000D03*
X4000D03*
X7000D03*
X5000Y41000D03*
X4000D03*
X5000Y42000D03*
X4000D03*
X8000Y40000D03*
Y41000D03*
X6000D03*
X7000D03*
X6000Y42000D03*
X7000D03*
X8000D03*
X9000D03*
X6000Y43000D03*
X5000D03*
X4000D03*
X7000D03*
X5000Y44000D03*
X8000Y43000D03*
Y44000D03*
X6000D03*
X7000D03*
X6000Y45000D03*
X7000D03*
X8000D03*
X4000Y44000D03*
X5000Y45000D03*
X4000D03*
X18000Y38000D03*
Y39000D03*
X19000D03*
X20000D03*
X18000Y40000D03*
X19000D03*
X20000D03*
X19000Y38000D03*
X20000D03*
X18000Y36000D03*
X19000D03*
X20000D03*
X18000Y37000D03*
X19000D03*
X20000D03*
X15000Y38000D03*
X17000D03*
X16000D03*
X15000Y39000D03*
Y40000D03*
Y41000D03*
Y36000D03*
Y37000D03*
X17000Y39000D03*
Y40000D03*
Y41000D03*
Y36000D03*
Y37000D03*
X16000Y39000D03*
Y40000D03*
Y36000D03*
Y37000D03*
X13000Y42500D03*
Y41500D03*
Y40500D03*
Y39500D03*
Y38500D03*
Y37500D03*
Y36000D03*
Y35000D03*
Y34000D03*
Y33000D03*
Y31000D03*
Y30000D03*
Y29000D03*
Y32000D03*
X14000Y36000D03*
Y35000D03*
Y34000D03*
Y33000D03*
Y32000D03*
Y31000D03*
Y30000D03*
Y29000D03*
Y40000D03*
Y39000D03*
Y38000D03*
X16000Y41000D03*
Y42000D03*
Y43000D03*
X13000Y44500D03*
Y43500D03*
X14000Y45000D03*
Y44000D03*
Y43000D03*
Y42000D03*
Y41000D03*
G54D15*X13000Y48000D03*
G54D19*X18000Y41000D03*
X19000D03*
X20000D03*
X18000Y42000D03*
X19000D03*
X20000D03*
X18000Y43000D03*
Y44000D03*
Y45000D03*
X19000Y43000D03*
Y44000D03*
Y45000D03*
X20000Y43000D03*
Y44000D03*
Y45000D03*
X15000Y42000D03*
Y43000D03*
Y44000D03*
Y45000D03*
Y46000D03*
Y47000D03*
X17000Y42000D03*
Y43000D03*
Y44000D03*
Y45000D03*
Y46000D03*
Y47000D03*
X16000Y44000D03*
Y45000D03*
Y46000D03*
Y47000D03*
X18000Y46000D03*
Y47000D03*
Y48000D03*
Y49000D03*
X19000Y46000D03*
Y47000D03*
Y48000D03*
Y49000D03*
X20000Y46000D03*
Y47000D03*
Y48000D03*
Y49000D03*
X18000Y50000D03*
Y51000D03*
Y52000D03*
Y53000D03*
Y54000D03*
X19000Y50000D03*
Y51000D03*
Y52000D03*
Y53000D03*
Y54000D03*
X20000Y50000D03*
Y51000D03*
Y52000D03*
Y53000D03*
Y54000D03*
X15000Y48000D03*
Y49000D03*
Y50000D03*
X17000Y48000D03*
Y49000D03*
Y50000D03*
Y51000D03*
Y52000D03*
Y53000D03*
X16000Y48000D03*
Y49000D03*
Y50000D03*
Y51000D03*
Y52000D03*
Y53000D03*
X15000Y51000D03*
Y52000D03*
Y53000D03*
Y54000D03*
X17000D03*
X16000D03*
X12000Y36000D03*
Y35000D03*
Y34000D03*
Y33000D03*
Y32000D03*
Y31000D03*
Y30000D03*
X9000D03*
Y31000D03*
Y32000D03*
Y33000D03*
Y34000D03*
Y35000D03*
X11000Y31000D03*
Y32000D03*
Y33000D03*
Y34000D03*
Y35000D03*
Y36000D03*
X10000Y33000D03*
Y34000D03*
Y35000D03*
Y36000D03*
X9000D03*
Y37000D03*
X11000D03*
X10000D03*
X12000Y29000D03*
X11000D03*
X10000D03*
X9000Y26000D03*
X11000Y30000D03*
X10000D03*
Y31000D03*
Y32000D03*
X3000Y27000D03*
X5000D03*
X4000D03*
X3000Y26000D03*
X5000D03*
X4000D03*
X3000Y29000D03*
X7000Y27000D03*
X8000D03*
X9000D03*
X6000D03*
Y26000D03*
X7000D03*
X8000D03*
X7000Y29000D03*
X8000D03*
X9000D03*
X6000D03*
X5000D03*
X4000D03*
X6000Y30000D03*
X5000D03*
X4000D03*
X3000D03*
Y31000D03*
Y32000D03*
X6000Y31000D03*
X5000D03*
X4000D03*
X7000Y30000D03*
X8000D03*
Y31000D03*
Y32000D03*
Y33000D03*
Y34000D03*
X7000Y31000D03*
Y32000D03*
Y33000D03*
X6000Y34000D03*
X7000D03*
X6000Y35000D03*
X7000D03*
X8000D03*
Y36000D03*
Y37000D03*
X6000Y36000D03*
X7000D03*
X6000Y37000D03*
X7000D03*
X6000Y32000D03*
X5000D03*
X4000D03*
X6000Y33000D03*
X5000D03*
X4000D03*
X3000D03*
Y35000D03*
Y36000D03*
Y34000D03*
X4000D03*
X5000D03*
Y35000D03*
X4000D03*
X5000Y36000D03*
X4000D03*
X3000Y37000D03*
X4000D03*
X5000D03*
X4000Y48000D03*
X5000Y47000D03*
X4000D03*
X5000Y48000D03*
X3000Y49000D03*
X4000D03*
X3000Y50000D03*
X4000D03*
X3000Y51000D03*
Y46000D03*
X5000D03*
X4000D03*
X3000Y47000D03*
Y48000D03*
X11000Y49000D03*
Y50000D03*
X10000D03*
Y49000D03*
X9000D03*
X11000Y48000D03*
X10000D03*
X9000D03*
X8000D03*
X12000Y45000D03*
Y44000D03*
Y43000D03*
Y42000D03*
X11000D03*
X10000D03*
X11000Y46000D03*
Y47000D03*
X10000D03*
X9000D03*
X10000Y46000D03*
X9000D03*
X6000Y49000D03*
X5000D03*
Y50000D03*
X7000Y49000D03*
X8000D03*
X6000Y50000D03*
X7000D03*
X8000D03*
X6000Y46000D03*
X7000D03*
X8000D03*
X6000Y47000D03*
Y48000D03*
X7000D03*
Y47000D03*
X8000D03*
X4000Y51000D03*
X6000D03*
X7000D03*
X5000D03*
X6000Y52000D03*
X7000D03*
X5000D03*
X3000D03*
Y53000D03*
Y54000D03*
X4000Y52000D03*
Y53000D03*
Y54000D03*
X6000Y53000D03*
X5000D03*
X6000Y54000D03*
X5000D03*
X7000Y53000D03*
Y54000D03*
X9000Y50000D03*
X10000Y51000D03*
X8000D03*
X9000D03*
X8000Y52000D03*
X9000D03*
X11000Y51000D03*
Y52000D03*
X10000D03*
X11000Y53000D03*
X10000D03*
X8000D03*
Y54000D03*
X9000Y53000D03*
Y54000D03*
X11000D03*
X10000D03*
X35500Y13000D03*
X25500D03*
X15500D03*
X5500D03*
X40500D03*
M02*
