M48
;DRILL file {PCBNEW (2007-11-29-a)} date 1/9/2008-08:21:51
;FORMAT={2:4 / absolute / inches / decimal format}
R,T
VER,1
FMAT,2
INCH,TZ
TCST,OFF
ICI,OFF
ATC,ON
T1C0.025
T2C0.032
T3C0.035
T4C0.040
T5C0.128
%
M47
G05
M72
T1
X3.000Y4.900
T2
X3.200Y1.750
X3.200Y1.850
X3.200Y1.950
X3.200Y2.050
X3.200Y2.150
X3.200Y2.250
X3.200Y2.350
X3.200Y2.450
X3.200Y2.550
X3.200Y2.650
X3.200Y2.750
X3.200Y2.850
X3.100Y1.750
X3.100Y1.850
X3.100Y1.950
X3.100Y2.050
X3.100Y2.150
X3.100Y2.250
X3.100Y2.350
X3.100Y2.450
X3.100Y2.550
X3.100Y2.650
X3.100Y2.750
X3.100Y2.850
X4.750Y2.900
X4.750Y3.000
X4.750Y3.100
X4.750Y3.200
X4.750Y3.300
X4.750Y3.400
X4.750Y3.600
X4.750Y3.700
X4.750Y3.800
X4.750Y3.900
X4.750Y4.000
X4.750Y4.100
X4.650Y2.900
X4.650Y3.000
X4.650Y3.100
X4.650Y3.200
X4.650Y3.300
X4.650Y3.400
X4.650Y3.600
X4.650Y3.700
X4.650Y3.800
X4.650Y3.900
X4.650Y4.000
X4.650Y4.100
X4.100Y2.050
X4.100Y2.150
X4.100Y2.250
X4.100Y2.350
X4.100Y2.450
X4.100Y2.550
X4.100Y2.650
X4.200Y2.050
X4.200Y2.150
X4.200Y2.250
X4.200Y2.350
X4.200Y2.450
X4.200Y2.550
X4.200Y2.650
X3.200Y2.950
X3.200Y3.050
X3.200Y3.150
X3.200Y3.250
X3.200Y3.350
X3.200Y3.450
X3.200Y3.550
X3.100Y2.950
X3.100Y3.050
X3.100Y3.150
X3.100Y3.250
X3.100Y3.350
X3.100Y3.450
X3.100Y3.550
X2.750Y2.550
X2.750Y2.650
X2.750Y2.750
X2.750Y2.850
X2.750Y2.950
X2.750Y3.050
X2.750Y3.150
X2.750Y3.250
X2.750Y3.400
X2.750Y3.500
X2.750Y3.600
X2.750Y3.700
X2.750Y3.800
X2.750Y3.900
X2.750Y4.000
X2.750Y4.100
X2.650Y2.550
X2.650Y2.650
X2.650Y2.750
X2.650Y2.850
X2.650Y2.950
X2.650Y3.050
X2.650Y3.150
X2.650Y3.250
X2.650Y3.400
X2.650Y3.500
X2.650Y3.600
X2.650Y3.700
X2.650Y3.800
X2.650Y3.900
X2.650Y4.000
X2.650Y4.100
X4.700Y5.000
X4.800Y5.000
X4.900Y5.000
X5.000Y5.000
X5.100Y5.000
X5.200Y5.000
X5.300Y5.000
X5.400Y5.000
X3.800Y5.000
X3.900Y5.000
X4.000Y5.000
X4.100Y5.000
X4.200Y5.000
X4.300Y5.000
X4.400Y5.000
X4.500Y5.000
X2.900Y5.000
X3.000Y5.000
X3.100Y5.000
X3.200Y5.000
X3.300Y5.000
X3.400Y5.000
X3.500Y5.000
X3.600Y5.000
X2.000Y5.000
X2.100Y5.000
X2.200Y5.000
X2.300Y5.000
X2.400Y5.000
X2.500Y5.000
X2.600Y5.000
X2.700Y5.000
T3
X4.875Y5.450
X4.925Y5.350
X4.975Y5.450
X5.025Y5.350
X5.075Y5.450
X5.125Y5.350
X5.175Y5.450
X5.225Y5.350
X3.975Y5.450
X4.025Y5.350
X4.075Y5.450
X4.125Y5.350
X4.175Y5.450
X4.225Y5.350
X4.275Y5.450
X4.325Y5.350
X3.075Y5.450
X3.125Y5.350
X3.175Y5.450
X3.225Y5.350
X3.275Y5.450
X3.325Y5.350
X3.375Y5.450
X3.425Y5.350
X2.175Y5.450
X2.225Y5.350
X2.275Y5.450
X2.325Y5.350
X2.375Y5.450
X2.425Y5.350
X2.475Y5.450
X2.525Y5.350
T4
X3.100Y3.800
X3.200Y3.800
X3.100Y3.900
X3.200Y3.900
X3.100Y4.000
X3.200Y4.000
X3.100Y4.100
X3.200Y4.100
X3.100Y4.200
X3.200Y4.200
X3.100Y4.300
X3.200Y4.300
X3.100Y4.400
X3.200Y4.400
X3.100Y4.500
X3.200Y4.500
X3.300Y3.800
X3.400Y3.800
X3.300Y3.900
X3.400Y3.900
X3.300Y4.000
X3.400Y4.000
X3.300Y4.100
X3.400Y4.100
X3.300Y4.200
X3.400Y4.200
X3.300Y4.300
X3.400Y4.300
X3.300Y4.400
X3.400Y4.400
X3.300Y4.500
X3.400Y4.500
X3.500Y3.800
X3.600Y3.800
X3.500Y3.900
X3.600Y3.900
X3.500Y4.000
X3.600Y4.000
X3.500Y4.100
X3.600Y4.100
X3.500Y4.200
X3.600Y4.200
X3.500Y4.300
X3.600Y4.300
X3.500Y4.400
X3.600Y4.400
X3.500Y4.500
X3.600Y4.500
X3.700Y3.800
X3.800Y3.800
X3.700Y3.900
X3.800Y3.900
X3.700Y4.000
X3.800Y4.000
X3.700Y4.100
X3.800Y4.100
X3.700Y4.200
X3.800Y4.200
X3.700Y4.300
X3.800Y4.300
X3.700Y4.400
X3.800Y4.400
X3.700Y4.500
X3.800Y4.500
X3.900Y3.800
X4.000Y3.800
X3.900Y3.900
X4.000Y3.900
X3.900Y4.000
X4.000Y4.000
X3.900Y4.100
X4.000Y4.100
X3.900Y4.200
X4.000Y4.200
X3.900Y4.300
X4.000Y4.300
X3.900Y4.400
X4.000Y4.400
X3.900Y4.500
X4.000Y4.500
X4.100Y3.800
X4.200Y3.800
X4.100Y3.900
X4.200Y3.900
X4.100Y4.000
X4.200Y4.000
X4.100Y4.100
X4.200Y4.100
X4.100Y4.200
X4.200Y4.200
X4.100Y4.300
X4.200Y4.300
X4.100Y4.400
X4.200Y4.400
X4.100Y4.500
X4.200Y4.500
X4.300Y3.800
X4.400Y3.800
X4.300Y3.900
X4.400Y3.900
X4.300Y4.000
X4.400Y4.000
X4.300Y4.100
X4.400Y4.100
X4.300Y4.200
X4.400Y4.200
X4.300Y4.300
X4.400Y4.300
X4.300Y4.400
X4.400Y4.400
X4.300Y4.500
X4.400Y4.500
T5
X5.284Y5.700
X4.816Y5.700
X4.384Y5.700
X3.916Y5.700
X3.484Y5.700
X3.016Y5.700
X2.584Y5.700
X2.116Y5.700
T0
M30
