M48
;DRILL file {PCBNEW (2007-11-29-a)} date 3/9/2008-16:38:01
;FORMAT={2:4 / absolute / inches / decimal format}
R,T
VER,1
FMAT,2
INCH,TZ
TCST,OFF
ICI,OFF
ATC,ON
T1C0.032
T2C0.035
T3C0.040
T4C0.120
T5C0.128
%
M47
G05
M72
T1
X3.150Y1.700
X3.150Y1.800
X3.150Y1.900
X3.150Y2.000
X3.150Y2.100
X3.150Y2.200
X3.150Y2.300
X3.150Y2.400
X3.150Y2.500
X3.150Y2.600
X3.150Y2.700
X3.150Y2.800
X3.050Y1.700
X3.050Y1.800
X3.050Y1.900
X3.050Y2.000
X3.050Y2.100
X3.050Y2.200
X3.050Y2.300
X3.050Y2.400
X3.050Y2.500
X3.050Y2.600
X3.050Y2.700
X3.050Y2.800
X4.700Y2.700
X4.700Y2.800
X4.700Y2.900
X4.700Y3.000
X4.700Y3.100
X4.700Y3.200
X4.700Y3.400
X4.700Y3.500
X4.700Y3.600
X4.700Y3.700
X4.700Y3.800
X4.700Y3.900
X4.600Y2.700
X4.600Y2.800
X4.600Y2.900
X4.600Y3.000
X4.600Y3.100
X4.600Y3.200
X4.600Y3.400
X4.600Y3.500
X4.600Y3.600
X4.600Y3.700
X4.600Y3.800
X4.600Y3.900
X4.050Y2.000
X4.050Y2.100
X4.050Y2.200
X4.050Y2.300
X4.050Y2.400
X4.050Y2.500
X4.050Y2.600
X4.150Y2.000
X4.150Y2.100
X4.150Y2.200
X4.150Y2.300
X4.150Y2.400
X4.150Y2.500
X4.150Y2.600
X3.150Y2.900
X3.150Y3.000
X3.150Y3.100
X3.150Y3.200
X3.150Y3.300
X3.150Y3.400
X3.150Y3.500
X3.050Y2.900
X3.050Y3.000
X3.050Y3.100
X3.050Y3.200
X3.050Y3.300
X3.050Y3.400
X3.050Y3.500
X2.700Y2.350
X2.700Y2.450
X2.700Y2.550
X2.700Y2.650
X2.700Y2.750
X2.700Y2.850
X2.700Y2.950
X2.700Y3.050
X2.700Y3.200
X2.700Y3.300
X2.700Y3.400
X2.700Y3.500
X2.700Y3.600
X2.700Y3.700
X2.700Y3.800
X2.700Y3.900
X2.600Y2.350
X2.600Y2.450
X2.600Y2.550
X2.600Y2.650
X2.600Y2.750
X2.600Y2.850
X2.600Y2.950
X2.600Y3.050
X2.600Y3.200
X2.600Y3.300
X2.600Y3.400
X2.600Y3.500
X2.600Y3.600
X2.600Y3.700
X2.600Y3.800
X2.600Y3.900
X4.700Y5.000
X4.800Y5.000
X4.900Y5.000
X5.000Y5.000
X5.100Y5.000
X5.200Y5.000
X5.300Y5.000
X5.400Y5.000
X3.800Y5.000
X3.900Y5.000
X4.000Y5.000
X4.100Y5.000
X4.200Y5.000
X4.300Y5.000
X4.400Y5.000
X4.500Y5.000
X2.900Y5.000
X3.000Y5.000
X3.100Y5.000
X3.200Y5.000
X3.300Y5.000
X3.400Y5.000
X3.500Y5.000
X3.600Y5.000
X2.000Y5.000
X2.100Y5.000
X2.200Y5.000
X2.300Y5.000
X2.400Y5.000
X2.500Y5.000
X2.600Y5.000
X2.700Y5.000
T2
X4.875Y5.450
X4.925Y5.350
X4.975Y5.450
X5.025Y5.350
X5.075Y5.450
X5.125Y5.350
X5.175Y5.450
X5.225Y5.350
X3.975Y5.450
X4.025Y5.350
X4.075Y5.450
X4.125Y5.350
X4.175Y5.450
X4.225Y5.350
X4.275Y5.450
X4.325Y5.350
X3.075Y5.450
X3.125Y5.350
X3.175Y5.450
X3.225Y5.350
X3.275Y5.450
X3.325Y5.350
X3.375Y5.450
X3.425Y5.350
X2.175Y5.450
X2.225Y5.350
X2.275Y5.450
X2.325Y5.350
X2.375Y5.450
X2.425Y5.350
X2.475Y5.450
X2.525Y5.350
T3
X1.800Y2.350
X1.900Y2.350
X1.800Y2.450
X1.900Y2.450
X1.800Y2.550
X1.900Y2.550
X1.800Y2.650
X1.900Y2.650
X1.800Y2.750
X1.900Y2.750
X1.800Y2.850
X1.900Y2.850
X1.800Y2.950
X1.900Y2.950
X1.800Y3.050
X1.900Y3.050
X1.800Y3.200
X1.900Y3.200
X1.800Y3.300
X1.900Y3.300
X1.800Y3.400
X1.900Y3.400
X1.800Y3.500
X1.900Y3.500
X1.800Y3.600
X1.900Y3.600
X1.800Y3.700
X1.900Y3.700
X1.800Y3.800
X1.900Y3.800
X1.800Y3.900
X1.900Y3.900
X1.800Y4.100
X1.900Y4.100
X1.800Y4.200
X1.900Y4.200
X1.800Y4.300
X1.900Y4.300
X1.800Y4.400
X1.900Y4.400
X1.800Y4.500
X1.900Y4.500
X1.800Y4.600
X1.900Y4.600
X1.800Y4.700
X1.900Y4.700
X1.800Y4.800
X1.900Y4.800
X4.800Y3.200
X4.900Y3.200
X4.800Y3.300
X4.900Y3.300
X4.800Y3.400
X4.900Y3.400
X4.800Y3.500
X4.900Y3.500
X4.800Y3.600
X4.900Y3.600
X4.800Y3.700
X4.900Y3.700
X4.800Y3.800
X4.900Y3.800
X4.800Y3.900
X4.900Y3.900
X5.000Y3.200
X5.100Y3.200
X5.000Y3.300
X5.100Y3.300
X5.000Y3.400
X5.100Y3.400
X5.000Y3.500
X5.100Y3.500
X5.000Y3.600
X5.100Y3.600
X5.000Y3.700
X5.100Y3.700
X5.000Y3.800
X5.100Y3.800
X5.000Y3.900
X5.100Y3.900
X5.200Y3.200
X5.300Y3.200
X5.200Y3.300
X5.300Y3.300
X5.200Y3.400
X5.300Y3.400
X5.200Y3.500
X5.300Y3.500
X5.200Y3.600
X5.300Y3.600
X5.200Y3.700
X5.300Y3.700
X5.200Y3.800
X5.300Y3.800
X5.200Y3.900
X5.300Y3.900
X5.200Y4.100
X5.300Y4.100
X5.200Y4.200
X5.300Y4.200
X5.200Y4.300
X5.300Y4.300
X5.200Y4.400
X5.300Y4.400
X5.200Y4.500
X5.300Y4.500
X5.200Y4.600
X5.300Y4.600
X5.200Y4.700
X5.300Y4.700
X5.200Y4.800
X5.300Y4.800
X5.000Y4.100
X5.100Y4.100
X5.000Y4.200
X5.100Y4.200
X5.000Y4.300
X5.100Y4.300
X5.000Y4.400
X5.100Y4.400
X5.000Y4.500
X5.100Y4.500
X5.000Y4.600
X5.100Y4.600
X5.000Y4.700
X5.100Y4.700
X5.000Y4.800
X5.100Y4.800
X4.800Y4.100
X4.900Y4.100
X4.800Y4.200
X4.900Y4.200
X4.800Y4.300
X4.900Y4.300
X4.800Y4.400
X4.900Y4.400
X4.800Y4.500
X4.900Y4.500
X4.800Y4.600
X4.900Y4.600
X4.800Y4.700
X4.900Y4.700
X4.800Y4.800
X4.900Y4.800
X2.000Y2.350
X2.100Y2.350
X2.000Y2.450
X2.100Y2.450
X2.000Y2.550
X2.100Y2.550
X2.000Y2.650
X2.100Y2.650
X2.000Y2.750
X2.100Y2.750
X2.000Y2.850
X2.100Y2.850
X2.000Y2.950
X2.100Y2.950
X2.000Y3.050
X2.100Y3.050
X2.200Y2.350
X2.300Y2.350
X2.200Y2.450
X2.300Y2.450
X2.200Y2.550
X2.300Y2.550
X2.200Y2.650
X2.300Y2.650
X2.200Y2.750
X2.300Y2.750
X2.200Y2.850
X2.300Y2.850
X2.200Y2.950
X2.300Y2.950
X2.200Y3.050
X2.300Y3.050
X2.400Y2.350
X2.500Y2.350
X2.400Y2.450
X2.500Y2.450
X2.400Y2.550
X2.500Y2.550
X2.400Y2.650
X2.500Y2.650
X2.400Y2.750
X2.500Y2.750
X2.400Y2.850
X2.500Y2.850
X2.400Y2.950
X2.500Y2.950
X2.400Y3.050
X2.500Y3.050
X2.000Y4.100
X2.100Y4.100
X2.000Y4.200
X2.100Y4.200
X2.000Y4.300
X2.100Y4.300
X2.000Y4.400
X2.100Y4.400
X2.000Y4.500
X2.100Y4.500
X2.000Y4.600
X2.100Y4.600
X2.000Y4.700
X2.100Y4.700
X2.000Y4.800
X2.100Y4.800
X2.200Y4.100
X2.300Y4.100
X2.200Y4.200
X2.300Y4.200
X2.200Y4.300
X2.300Y4.300
X2.200Y4.400
X2.300Y4.400
X2.200Y4.500
X2.300Y4.500
X2.200Y4.600
X2.300Y4.600
X2.200Y4.700
X2.300Y4.700
X2.200Y4.800
X2.300Y4.800
X2.400Y4.100
X2.500Y4.100
X2.400Y4.200
X2.500Y4.200
X2.400Y4.300
X2.500Y4.300
X2.400Y4.400
X2.500Y4.400
X2.400Y4.500
X2.500Y4.500
X2.400Y4.600
X2.500Y4.600
X2.400Y4.700
X2.500Y4.700
X2.400Y4.800
X2.500Y4.800
X3.200Y4.100
X3.300Y4.100
X3.200Y4.200
X3.300Y4.200
X3.200Y4.300
X3.300Y4.300
X3.200Y4.400
X3.300Y4.400
X3.200Y4.500
X3.300Y4.500
X3.200Y4.600
X3.300Y4.600
X3.200Y4.700
X3.300Y4.700
X3.200Y4.800
X3.300Y4.800
X3.000Y4.100
X3.100Y4.100
X3.000Y4.200
X3.100Y4.200
X3.000Y4.300
X3.100Y4.300
X3.000Y4.400
X3.100Y4.400
X3.000Y4.500
X3.100Y4.500
X3.000Y4.600
X3.100Y4.600
X3.000Y4.700
X3.100Y4.700
X3.000Y4.800
X3.100Y4.800
X2.800Y4.100
X2.900Y4.100
X2.800Y4.200
X2.900Y4.200
X2.800Y4.300
X2.900Y4.300
X2.800Y4.400
X2.900Y4.400
X2.800Y4.500
X2.900Y4.500
X2.800Y4.600
X2.900Y4.600
X2.800Y4.700
X2.900Y4.700
X2.800Y4.800
X2.900Y4.800
X2.600Y4.100
X2.700Y4.100
X2.600Y4.200
X2.700Y4.200
X2.600Y4.300
X2.700Y4.300
X2.600Y4.400
X2.700Y4.400
X2.600Y4.500
X2.700Y4.500
X2.600Y4.600
X2.700Y4.600
X2.600Y4.700
X2.700Y4.700
X2.600Y4.800
X2.700Y4.800
X2.400Y3.200
X2.500Y3.200
X2.400Y3.300
X2.500Y3.300
X2.400Y3.400
X2.500Y3.400
X2.400Y3.500
X2.500Y3.500
X2.400Y3.600
X2.500Y3.600
X2.400Y3.700
X2.500Y3.700
X2.400Y3.800
X2.500Y3.800
X2.400Y3.900
X2.500Y3.900
X2.200Y3.200
X2.300Y3.200
X2.200Y3.300
X2.300Y3.300
X2.200Y3.400
X2.300Y3.400
X2.200Y3.500
X2.300Y3.500
X2.200Y3.600
X2.300Y3.600
X2.200Y3.700
X2.300Y3.700
X2.200Y3.800
X2.300Y3.800
X2.200Y3.900
X2.300Y3.900
X2.000Y3.200
X2.100Y3.200
X2.000Y3.300
X2.100Y3.300
X2.000Y3.400
X2.100Y3.400
X2.000Y3.500
X2.100Y3.500
X2.000Y3.600
X2.100Y3.600
X2.000Y3.700
X2.100Y3.700
X2.000Y3.800
X2.100Y3.800
X2.000Y3.900
X2.100Y3.900
X3.400Y4.100
X3.500Y4.100
X3.400Y4.200
X3.500Y4.200
X3.400Y4.300
X3.500Y4.300
X3.400Y4.400
X3.500Y4.400
X3.400Y4.500
X3.500Y4.500
X3.400Y4.600
X3.500Y4.600
X3.400Y4.700
X3.500Y4.700
X3.400Y4.800
X3.500Y4.800
X3.600Y4.100
X3.700Y4.100
X3.600Y4.200
X3.700Y4.200
X3.600Y4.300
X3.700Y4.300
X3.600Y4.400
X3.700Y4.400
X3.600Y4.500
X3.700Y4.500
X3.600Y4.600
X3.700Y4.600
X3.600Y4.700
X3.700Y4.700
X3.600Y4.800
X3.700Y4.800
X3.800Y4.100
X3.900Y4.100
X3.800Y4.200
X3.900Y4.200
X3.800Y4.300
X3.900Y4.300
X3.800Y4.400
X3.900Y4.400
X3.800Y4.500
X3.900Y4.500
X3.800Y4.600
X3.900Y4.600
X3.800Y4.700
X3.900Y4.700
X3.800Y4.800
X3.900Y4.800
X4.000Y4.100
X4.100Y4.100
X4.000Y4.200
X4.100Y4.200
X4.000Y4.300
X4.100Y4.300
X4.000Y4.400
X4.100Y4.400
X4.000Y4.500
X4.100Y4.500
X4.000Y4.600
X4.100Y4.600
X4.000Y4.700
X4.100Y4.700
X4.000Y4.800
X4.100Y4.800
X4.200Y4.100
X4.300Y4.100
X4.200Y4.200
X4.300Y4.200
X4.200Y4.300
X4.300Y4.300
X4.200Y4.400
X4.300Y4.400
X4.200Y4.500
X4.300Y4.500
X4.200Y4.600
X4.300Y4.600
X4.200Y4.700
X4.300Y4.700
X4.200Y4.800
X4.300Y4.800
X4.400Y4.100
X4.500Y4.100
X4.400Y4.200
X4.500Y4.200
X4.400Y4.300
X4.500Y4.300
X4.400Y4.400
X4.500Y4.400
X4.400Y4.500
X4.500Y4.500
X4.400Y4.600
X4.500Y4.600
X4.400Y4.700
X4.500Y4.700
X4.400Y4.800
X4.500Y4.800
X4.600Y4.100
X4.700Y4.100
X4.600Y4.200
X4.700Y4.200
X4.600Y4.300
X4.700Y4.300
X4.600Y4.400
X4.700Y4.400
X4.600Y4.500
X4.700Y4.500
X4.600Y4.600
X4.700Y4.600
X4.600Y4.700
X4.700Y4.700
X4.600Y4.800
X4.700Y4.800
T4
X1.800Y5.800
X5.600Y5.800
X5.600Y1.750
X1.800Y1.750
T5
X5.284Y5.700
X4.816Y5.700
X4.384Y5.700
X3.916Y5.700
X3.484Y5.700
X3.016Y5.700
X2.584Y5.700
X2.116Y5.700
T0
M30
