G04 (Genere par PCBNEW (2007-11-29-a)) le 3/9/2008-04:16:14*
G01*
G70*
G90*
%MOIN*%
G04 Gerber Fmt 3.4, Leading zero omitted, Abs format*
%FSLAX34Y34*%
G04 APERTURE LIST*
%ADD10C,0.012000*%
%ADD11R,0.060000X0.060000*%
%ADD12C,0.060000*%
%ADD13C,0.143700*%
%ADD14R,0.059100X0.059100*%
%ADD15C,0.059100*%
%ADD16R,0.055000X0.055000*%
%ADD17C,0.055000*%
%ADD18C,0.017000*%
%ADD19C,0.005000*%
%ADD20C,0.160000*%
G04 APERTURE END LIST*
G54D10*
X45242Y-21350D02*
X45242Y-21439D01*
X45242Y-21706D02*
X45242Y-22062D01*
X45242Y-22062D02*
X45317Y-22150D01*
X45317Y-22150D02*
X45392Y-22150D01*
X45803Y-22150D02*
X45803Y-21617D01*
X45803Y-21706D02*
X45878Y-21617D01*
X45878Y-21617D02*
X46178Y-21617D01*
X46178Y-21617D02*
X46253Y-21706D01*
X46253Y-21706D02*
X46253Y-22150D01*
X47039Y-22062D02*
X46964Y-22150D01*
X46964Y-22150D02*
X46739Y-22150D01*
X46739Y-22150D02*
X46664Y-22062D01*
X46664Y-22062D02*
X46664Y-21350D01*
X46664Y-21617D02*
X46889Y-21617D01*
X47375Y-21884D02*
X47900Y-21884D01*
X47900Y-21884D02*
X47900Y-21706D01*
X47900Y-21706D02*
X47825Y-21617D01*
X47825Y-21617D02*
X47450Y-21617D01*
X47450Y-21617D02*
X47375Y-21706D01*
X47375Y-21706D02*
X47375Y-22062D01*
X47375Y-22062D02*
X47450Y-22150D01*
X47450Y-22150D02*
X47825Y-22150D01*
X47825Y-22150D02*
X47900Y-22062D01*
X48161Y-22150D02*
X48161Y-21617D01*
X48161Y-21795D02*
X48311Y-21617D01*
X48311Y-21617D02*
X48536Y-21617D01*
X48536Y-21617D02*
X48686Y-21795D01*
X49022Y-22150D02*
X49022Y-21439D01*
X49022Y-21439D02*
X49097Y-21350D01*
X49097Y-21350D02*
X49397Y-21350D01*
X49397Y-21350D02*
X49472Y-21439D01*
X48947Y-21706D02*
X49172Y-21706D01*
X49733Y-21617D02*
X50183Y-21617D01*
X50183Y-21617D02*
X50258Y-21706D01*
X50258Y-21706D02*
X50258Y-22150D01*
X50258Y-22150D02*
X49808Y-22150D01*
X49808Y-22150D02*
X49733Y-22062D01*
X49733Y-22062D02*
X49733Y-21973D01*
X49733Y-21973D02*
X49808Y-21884D01*
X49808Y-21884D02*
X50258Y-21884D01*
X51044Y-22062D02*
X50969Y-22150D01*
X50969Y-22150D02*
X50594Y-22150D01*
X50594Y-22150D02*
X50519Y-22062D01*
X50519Y-22062D02*
X50519Y-21706D01*
X50519Y-21706D02*
X50594Y-21617D01*
X50594Y-21617D02*
X50969Y-21617D01*
X50969Y-21617D02*
X51044Y-21706D01*
X51305Y-21884D02*
X51830Y-21884D01*
X51830Y-21884D02*
X51830Y-21706D01*
X51830Y-21706D02*
X51755Y-21617D01*
X51755Y-21617D02*
X51380Y-21617D01*
X51380Y-21617D02*
X51305Y-21706D01*
X51305Y-21706D02*
X51305Y-22062D01*
X51305Y-22062D02*
X51380Y-22150D01*
X51380Y-22150D02*
X51755Y-22150D01*
X51755Y-22150D02*
X51830Y-22062D01*
X52877Y-21350D02*
X52877Y-22150D01*
X52877Y-22150D02*
X53402Y-22150D01*
X53402Y-22150D02*
X53402Y-21795D01*
X53402Y-21795D02*
X53327Y-21706D01*
X53327Y-21706D02*
X52877Y-21706D01*
X53738Y-22150D02*
X53663Y-22062D01*
X53663Y-22062D02*
X53663Y-21706D01*
X53663Y-21706D02*
X53738Y-21617D01*
X53738Y-21617D02*
X54113Y-21617D01*
X54113Y-21617D02*
X54188Y-21706D01*
X54188Y-21706D02*
X54188Y-22062D01*
X54188Y-22062D02*
X54113Y-22150D01*
X54113Y-22150D02*
X53738Y-22150D01*
X54449Y-21617D02*
X54899Y-21617D01*
X54899Y-21617D02*
X54974Y-21706D01*
X54974Y-21706D02*
X54974Y-22150D01*
X54974Y-22150D02*
X54524Y-22150D01*
X54524Y-22150D02*
X54449Y-22062D01*
X54449Y-22062D02*
X54449Y-21973D01*
X54449Y-21973D02*
X54524Y-21884D01*
X54524Y-21884D02*
X54974Y-21884D01*
X55235Y-22150D02*
X55235Y-21617D01*
X55235Y-21795D02*
X55385Y-21617D01*
X55385Y-21617D02*
X55610Y-21617D01*
X55610Y-21617D02*
X55760Y-21795D01*
X56546Y-21350D02*
X56546Y-22150D01*
X56546Y-22150D02*
X56096Y-22150D01*
X56096Y-22150D02*
X56021Y-22062D01*
X56021Y-22062D02*
X56021Y-21706D01*
X56021Y-21706D02*
X56096Y-21617D01*
X56096Y-21617D02*
X56546Y-21617D01*
X45410Y-22850D02*
X45410Y-23650D01*
X45410Y-23650D02*
X46010Y-23650D01*
X46196Y-23473D02*
X46271Y-23650D01*
X46271Y-23650D02*
X46421Y-23650D01*
X46421Y-23650D02*
X46496Y-23562D01*
X46496Y-23562D02*
X46496Y-22850D01*
X46346Y-22850D02*
X46646Y-22850D01*
X47057Y-23650D02*
X46982Y-23562D01*
X46982Y-23562D02*
X46982Y-22939D01*
X46982Y-22939D02*
X47057Y-22850D01*
X47057Y-22850D02*
X47432Y-22850D01*
X47432Y-22850D02*
X47507Y-22939D01*
X47507Y-22939D02*
X47507Y-23562D01*
X47507Y-23562D02*
X47432Y-23650D01*
X47432Y-23650D02*
X47057Y-23650D01*
X49079Y-23650D02*
X48554Y-23650D01*
X48554Y-23650D02*
X48554Y-23384D01*
X48554Y-23384D02*
X48629Y-23295D01*
X48629Y-23295D02*
X49004Y-23295D01*
X49004Y-23295D02*
X49079Y-23206D01*
X49079Y-23206D02*
X49079Y-22939D01*
X49079Y-22939D02*
X49004Y-22850D01*
X49004Y-22850D02*
X48629Y-22850D01*
X48629Y-22850D02*
X48554Y-22939D01*
X49340Y-23650D02*
X49865Y-22850D01*
X49340Y-23562D02*
X49340Y-22939D01*
X49340Y-22939D02*
X49415Y-22850D01*
X49415Y-22850D02*
X49790Y-22850D01*
X49790Y-22850D02*
X49865Y-22939D01*
X49865Y-22939D02*
X49865Y-23562D01*
X49865Y-23562D02*
X49790Y-23650D01*
X49790Y-23650D02*
X49415Y-23650D01*
X49415Y-23650D02*
X49340Y-23562D01*
X50126Y-23650D02*
X50651Y-22850D01*
X50126Y-23562D02*
X50126Y-22939D01*
X50126Y-22939D02*
X50201Y-22850D01*
X50201Y-22850D02*
X50576Y-22850D01*
X50576Y-22850D02*
X50651Y-22939D01*
X50651Y-22939D02*
X50651Y-23562D01*
X50651Y-23562D02*
X50576Y-23650D01*
X50576Y-23650D02*
X50201Y-23650D01*
X50201Y-23650D02*
X50126Y-23562D01*
X50987Y-23650D02*
X50912Y-23562D01*
X50912Y-23562D02*
X50912Y-23295D01*
X50912Y-23295D02*
X50987Y-23206D01*
X50987Y-23206D02*
X51362Y-23206D01*
X51362Y-23206D02*
X51437Y-23117D01*
X51437Y-23117D02*
X51437Y-22939D01*
X51437Y-22939D02*
X51362Y-22850D01*
X51362Y-22850D02*
X50987Y-22850D01*
X50987Y-22850D02*
X50912Y-22939D01*
X50912Y-22939D02*
X50912Y-23117D01*
X50912Y-23117D02*
X50987Y-23206D01*
X51362Y-23206D02*
X51437Y-23295D01*
X51437Y-23295D02*
X51437Y-23562D01*
X51437Y-23562D02*
X51362Y-23650D01*
X51362Y-23650D02*
X50987Y-23650D01*
X51923Y-23650D02*
X51923Y-23562D01*
X52484Y-23650D02*
X53009Y-22850D01*
X52484Y-23562D02*
X52484Y-22939D01*
X52484Y-22939D02*
X52559Y-22850D01*
X52559Y-22850D02*
X52934Y-22850D01*
X52934Y-22850D02*
X53009Y-22939D01*
X53009Y-22939D02*
X53009Y-23562D01*
X53009Y-23562D02*
X52934Y-23650D01*
X52934Y-23650D02*
X52559Y-23650D01*
X52559Y-23650D02*
X52484Y-23562D01*
X53345Y-23650D02*
X53720Y-23650D01*
X53720Y-23650D02*
X53795Y-23562D01*
X53795Y-23562D02*
X53795Y-22939D01*
X53795Y-22939D02*
X53720Y-22850D01*
X53720Y-22850D02*
X53345Y-22850D01*
X53345Y-22850D02*
X53270Y-22939D01*
X53270Y-22939D02*
X53270Y-23206D01*
X53270Y-23206D02*
X53345Y-23295D01*
X53345Y-23295D02*
X53720Y-23295D01*
X53720Y-23295D02*
X53795Y-23206D01*
X54281Y-23650D02*
X54281Y-23562D01*
X54842Y-23650D02*
X55367Y-22850D01*
X54842Y-23562D02*
X54842Y-22939D01*
X54842Y-22939D02*
X54917Y-22850D01*
X54917Y-22850D02*
X55292Y-22850D01*
X55292Y-22850D02*
X55367Y-22939D01*
X55367Y-22939D02*
X55367Y-23562D01*
X55367Y-23562D02*
X55292Y-23650D01*
X55292Y-23650D02*
X54917Y-23650D01*
X54917Y-23650D02*
X54842Y-23562D01*
X56153Y-23650D02*
X55628Y-23650D01*
X55628Y-23650D02*
X55628Y-23384D01*
X55628Y-23384D02*
X55703Y-23295D01*
X55703Y-23295D02*
X56078Y-23295D01*
X56078Y-23295D02*
X56153Y-23206D01*
X56153Y-23206D02*
X56153Y-22939D01*
X56153Y-22939D02*
X56078Y-22850D01*
X56078Y-22850D02*
X55703Y-22850D01*
X55703Y-22850D02*
X55628Y-22939D01*
X45164Y-20650D02*
X45089Y-20562D01*
X45089Y-20562D02*
X45089Y-19939D01*
X45089Y-19939D02*
X45164Y-19850D01*
X45164Y-19850D02*
X45539Y-19850D01*
X45539Y-19850D02*
X45614Y-19939D01*
X45614Y-19939D02*
X45614Y-20562D01*
X45614Y-20562D02*
X45539Y-20650D01*
X45539Y-20650D02*
X45164Y-20650D01*
X45875Y-20916D02*
X45875Y-20117D01*
X45875Y-20206D02*
X45950Y-20117D01*
X45950Y-20117D02*
X46325Y-20117D01*
X46325Y-20117D02*
X46400Y-20206D01*
X46400Y-20206D02*
X46400Y-20562D01*
X46400Y-20562D02*
X46325Y-20650D01*
X46325Y-20650D02*
X45950Y-20650D01*
X45950Y-20650D02*
X45875Y-20562D01*
X46661Y-20384D02*
X47186Y-20384D01*
X47186Y-20384D02*
X47186Y-20206D01*
X47186Y-20206D02*
X47111Y-20117D01*
X47111Y-20117D02*
X46736Y-20117D01*
X46736Y-20117D02*
X46661Y-20206D01*
X46661Y-20206D02*
X46661Y-20562D01*
X46661Y-20562D02*
X46736Y-20650D01*
X46736Y-20650D02*
X47111Y-20650D01*
X47111Y-20650D02*
X47186Y-20562D01*
X47447Y-20650D02*
X47447Y-20117D01*
X47447Y-20206D02*
X47522Y-20117D01*
X47522Y-20117D02*
X47822Y-20117D01*
X47822Y-20117D02*
X47897Y-20206D01*
X47897Y-20206D02*
X47897Y-20650D01*
X48233Y-20562D02*
X48308Y-20650D01*
X48308Y-20650D02*
X48683Y-20650D01*
X48683Y-20650D02*
X48758Y-20562D01*
X48758Y-20562D02*
X48758Y-20295D01*
X48758Y-20295D02*
X48683Y-20206D01*
X48683Y-20206D02*
X48308Y-20206D01*
X48308Y-20206D02*
X48233Y-20117D01*
X48233Y-20117D02*
X48233Y-19939D01*
X48233Y-19939D02*
X48308Y-19850D01*
X48308Y-19850D02*
X48683Y-19850D01*
X48683Y-19850D02*
X48758Y-19939D01*
X49019Y-20916D02*
X49019Y-20117D01*
X49019Y-20206D02*
X49094Y-20117D01*
X49094Y-20117D02*
X49469Y-20117D01*
X49469Y-20117D02*
X49544Y-20206D01*
X49544Y-20206D02*
X49544Y-20562D01*
X49544Y-20562D02*
X49469Y-20650D01*
X49469Y-20650D02*
X49094Y-20650D01*
X49094Y-20650D02*
X49019Y-20562D01*
X49805Y-20650D02*
X49805Y-20117D01*
X49805Y-20295D02*
X49955Y-20117D01*
X49955Y-20117D02*
X50180Y-20117D01*
X50180Y-20117D02*
X50330Y-20295D01*
X50816Y-19850D02*
X50816Y-19939D01*
X50816Y-20206D02*
X50816Y-20562D01*
X50816Y-20562D02*
X50891Y-20650D01*
X50891Y-20650D02*
X50966Y-20650D01*
X51377Y-20650D02*
X51377Y-20117D01*
X51377Y-20206D02*
X51452Y-20117D01*
X51452Y-20117D02*
X51752Y-20117D01*
X51752Y-20117D02*
X51827Y-20206D01*
X51827Y-20206D02*
X51827Y-20650D01*
X52613Y-20562D02*
X52538Y-20650D01*
X52538Y-20650D02*
X52313Y-20650D01*
X52313Y-20650D02*
X52238Y-20562D01*
X52238Y-20562D02*
X52238Y-19850D01*
X52238Y-20117D02*
X52463Y-20117D01*
X52949Y-20562D02*
X53024Y-20650D01*
X53024Y-20650D02*
X53399Y-20650D01*
X53399Y-20650D02*
X53474Y-20562D01*
X53474Y-20562D02*
X53474Y-20473D01*
X53474Y-20473D02*
X53399Y-20384D01*
X53399Y-20384D02*
X53024Y-20384D01*
X53024Y-20384D02*
X52949Y-20295D01*
X52949Y-20295D02*
X52949Y-20206D01*
X52949Y-20206D02*
X53024Y-20117D01*
X53024Y-20117D02*
X53399Y-20117D01*
X53399Y-20117D02*
X53474Y-20206D01*
G54D20*
X18000Y-58000D03*
X56000Y-58000D03*
X56000Y-17500D03*
G54D11*
X48000Y-32000D03*
G54D12*
X49000Y-32000D03*
X48000Y-33000D03*
X49000Y-33000D03*
X48000Y-34000D03*
X49000Y-34000D03*
X48000Y-35000D03*
X49000Y-35000D03*
X48000Y-36000D03*
X49000Y-36000D03*
X48000Y-37000D03*
X49000Y-37000D03*
X48000Y-38000D03*
X49000Y-38000D03*
X48000Y-39000D03*
X49000Y-39000D03*
G54D11*
X50000Y-32000D03*
G54D12*
X51000Y-32000D03*
X50000Y-33000D03*
X51000Y-33000D03*
X50000Y-34000D03*
X51000Y-34000D03*
X50000Y-35000D03*
X51000Y-35000D03*
X50000Y-36000D03*
X51000Y-36000D03*
X50000Y-37000D03*
X51000Y-37000D03*
X50000Y-38000D03*
X51000Y-38000D03*
X50000Y-39000D03*
X51000Y-39000D03*
G54D11*
X52000Y-32000D03*
G54D12*
X53000Y-32000D03*
X52000Y-33000D03*
X53000Y-33000D03*
X52000Y-34000D03*
X53000Y-34000D03*
X52000Y-35000D03*
X53000Y-35000D03*
X52000Y-36000D03*
X53000Y-36000D03*
X52000Y-37000D03*
X53000Y-37000D03*
X52000Y-38000D03*
X53000Y-38000D03*
X52000Y-39000D03*
X53000Y-39000D03*
G54D11*
X52000Y-41000D03*
G54D12*
X53000Y-41000D03*
X52000Y-42000D03*
X53000Y-42000D03*
X52000Y-43000D03*
X53000Y-43000D03*
X52000Y-44000D03*
X53000Y-44000D03*
X52000Y-45000D03*
X53000Y-45000D03*
X52000Y-46000D03*
X53000Y-46000D03*
X52000Y-47000D03*
X53000Y-47000D03*
X52000Y-48000D03*
X53000Y-48000D03*
G54D11*
X50000Y-41000D03*
G54D12*
X51000Y-41000D03*
X50000Y-42000D03*
X51000Y-42000D03*
X50000Y-43000D03*
X51000Y-43000D03*
X50000Y-44000D03*
X51000Y-44000D03*
X50000Y-45000D03*
X51000Y-45000D03*
X50000Y-46000D03*
X51000Y-46000D03*
X50000Y-47000D03*
X51000Y-47000D03*
X50000Y-48000D03*
X51000Y-48000D03*
G54D11*
X48000Y-41000D03*
G54D12*
X49000Y-41000D03*
X48000Y-42000D03*
X49000Y-42000D03*
X48000Y-43000D03*
X49000Y-43000D03*
X48000Y-44000D03*
X49000Y-44000D03*
X48000Y-45000D03*
X49000Y-45000D03*
X48000Y-46000D03*
X49000Y-46000D03*
X48000Y-47000D03*
X49000Y-47000D03*
X48000Y-48000D03*
X49000Y-48000D03*
G54D11*
X20000Y-23500D03*
G54D12*
X21000Y-23500D03*
X20000Y-24500D03*
X21000Y-24500D03*
X20000Y-25500D03*
X21000Y-25500D03*
X20000Y-26500D03*
X21000Y-26500D03*
X20000Y-27500D03*
X21000Y-27500D03*
X20000Y-28500D03*
X21000Y-28500D03*
X20000Y-29500D03*
X21000Y-29500D03*
X20000Y-30500D03*
X21000Y-30500D03*
G54D11*
X22000Y-23500D03*
G54D12*
X23000Y-23500D03*
X22000Y-24500D03*
X23000Y-24500D03*
X22000Y-25500D03*
X23000Y-25500D03*
X22000Y-26500D03*
X23000Y-26500D03*
X22000Y-27500D03*
X23000Y-27500D03*
X22000Y-28500D03*
X23000Y-28500D03*
X22000Y-29500D03*
X23000Y-29500D03*
X22000Y-30500D03*
X23000Y-30500D03*
G54D11*
X24000Y-23500D03*
G54D12*
X25000Y-23500D03*
X24000Y-24500D03*
X25000Y-24500D03*
X24000Y-25500D03*
X25000Y-25500D03*
X24000Y-26500D03*
X25000Y-26500D03*
X24000Y-27500D03*
X25000Y-27500D03*
X24000Y-28500D03*
X25000Y-28500D03*
X24000Y-29500D03*
X25000Y-29500D03*
X24000Y-30500D03*
X25000Y-30500D03*
G54D11*
X20000Y-41000D03*
G54D12*
X21000Y-41000D03*
X20000Y-42000D03*
X21000Y-42000D03*
X20000Y-43000D03*
X21000Y-43000D03*
X20000Y-44000D03*
X21000Y-44000D03*
X20000Y-45000D03*
X21000Y-45000D03*
X20000Y-46000D03*
X21000Y-46000D03*
X20000Y-47000D03*
X21000Y-47000D03*
X20000Y-48000D03*
X21000Y-48000D03*
G54D11*
X22000Y-41000D03*
G54D12*
X23000Y-41000D03*
X22000Y-42000D03*
X23000Y-42000D03*
X22000Y-43000D03*
X23000Y-43000D03*
X22000Y-44000D03*
X23000Y-44000D03*
X22000Y-45000D03*
X23000Y-45000D03*
X22000Y-46000D03*
X23000Y-46000D03*
X22000Y-47000D03*
X23000Y-47000D03*
X22000Y-48000D03*
X23000Y-48000D03*
G54D11*
X24000Y-41000D03*
G54D12*
X25000Y-41000D03*
X24000Y-42000D03*
X25000Y-42000D03*
X24000Y-43000D03*
X25000Y-43000D03*
X24000Y-44000D03*
X25000Y-44000D03*
X24000Y-45000D03*
X25000Y-45000D03*
X24000Y-46000D03*
X25000Y-46000D03*
X24000Y-47000D03*
X25000Y-47000D03*
X24000Y-48000D03*
X25000Y-48000D03*
G54D11*
X32000Y-41000D03*
G54D12*
X33000Y-41000D03*
X32000Y-42000D03*
X33000Y-42000D03*
X32000Y-43000D03*
X33000Y-43000D03*
X32000Y-44000D03*
X33000Y-44000D03*
X32000Y-45000D03*
X33000Y-45000D03*
X32000Y-46000D03*
X33000Y-46000D03*
X32000Y-47000D03*
X33000Y-47000D03*
X32000Y-48000D03*
X33000Y-48000D03*
G54D11*
X30000Y-41000D03*
G54D12*
X31000Y-41000D03*
X30000Y-42000D03*
X31000Y-42000D03*
X30000Y-43000D03*
X31000Y-43000D03*
X30000Y-44000D03*
X31000Y-44000D03*
X30000Y-45000D03*
X31000Y-45000D03*
X30000Y-46000D03*
X31000Y-46000D03*
X30000Y-47000D03*
X31000Y-47000D03*
X30000Y-48000D03*
X31000Y-48000D03*
G54D11*
X28000Y-41000D03*
G54D12*
X29000Y-41000D03*
X28000Y-42000D03*
X29000Y-42000D03*
X28000Y-43000D03*
X29000Y-43000D03*
X28000Y-44000D03*
X29000Y-44000D03*
X28000Y-45000D03*
X29000Y-45000D03*
X28000Y-46000D03*
X29000Y-46000D03*
X28000Y-47000D03*
X29000Y-47000D03*
X28000Y-48000D03*
X29000Y-48000D03*
G54D11*
X26000Y-41000D03*
G54D12*
X27000Y-41000D03*
X26000Y-42000D03*
X27000Y-42000D03*
X26000Y-43000D03*
X27000Y-43000D03*
X26000Y-44000D03*
X27000Y-44000D03*
X26000Y-45000D03*
X27000Y-45000D03*
X26000Y-46000D03*
X27000Y-46000D03*
X26000Y-47000D03*
X27000Y-47000D03*
X26000Y-48000D03*
X27000Y-48000D03*
G54D11*
X24000Y-32000D03*
G54D12*
X25000Y-32000D03*
X24000Y-33000D03*
X25000Y-33000D03*
X24000Y-34000D03*
X25000Y-34000D03*
X24000Y-35000D03*
X25000Y-35000D03*
X24000Y-36000D03*
X25000Y-36000D03*
X24000Y-37000D03*
X25000Y-37000D03*
X24000Y-38000D03*
X25000Y-38000D03*
X24000Y-39000D03*
X25000Y-39000D03*
G54D11*
X22000Y-32000D03*
G54D12*
X23000Y-32000D03*
X22000Y-33000D03*
X23000Y-33000D03*
X22000Y-34000D03*
X23000Y-34000D03*
X22000Y-35000D03*
X23000Y-35000D03*
X22000Y-36000D03*
X23000Y-36000D03*
X22000Y-37000D03*
X23000Y-37000D03*
X22000Y-38000D03*
X23000Y-38000D03*
X22000Y-39000D03*
X23000Y-39000D03*
G54D11*
X20000Y-32000D03*
G54D12*
X21000Y-32000D03*
X20000Y-33000D03*
X21000Y-33000D03*
X20000Y-34000D03*
X21000Y-34000D03*
X20000Y-35000D03*
X21000Y-35000D03*
X20000Y-36000D03*
X21000Y-36000D03*
X20000Y-37000D03*
X21000Y-37000D03*
X20000Y-38000D03*
X21000Y-38000D03*
X20000Y-39000D03*
X21000Y-39000D03*
G54D13*
X52838Y-57000D03*
X48165Y-57000D03*
G54D14*
X48750Y-54500D03*
G54D15*
X49250Y-53500D03*
X49750Y-54500D03*
X50250Y-53500D03*
X50750Y-54500D03*
X51250Y-53500D03*
X51750Y-54500D03*
X52250Y-53500D03*
G54D13*
X43838Y-57000D03*
X39165Y-57000D03*
G54D14*
X39750Y-54500D03*
G54D15*
X40250Y-53500D03*
X40750Y-54500D03*
X41250Y-53500D03*
X41750Y-54500D03*
X42250Y-53500D03*
X42750Y-54500D03*
X43250Y-53500D03*
G54D13*
X34838Y-57000D03*
X30165Y-57000D03*
G54D14*
X30750Y-54500D03*
G54D15*
X31250Y-53500D03*
X31750Y-54500D03*
X32250Y-53500D03*
X32750Y-54500D03*
X33250Y-53500D03*
X33750Y-54500D03*
X34250Y-53500D03*
G54D13*
X25838Y-57000D03*
X21165Y-57000D03*
G54D14*
X21750Y-54500D03*
G54D15*
X22250Y-53500D03*
X22750Y-54500D03*
X23250Y-53500D03*
X23750Y-54500D03*
X24250Y-53500D03*
X24750Y-54500D03*
X25250Y-53500D03*
G54D16*
X31500Y-17000D03*
G54D17*
X31500Y-18000D03*
X31500Y-19000D03*
X31500Y-20000D03*
X31500Y-21000D03*
X31500Y-22000D03*
X31500Y-23000D03*
X31500Y-24000D03*
X31500Y-25000D03*
X31500Y-26000D03*
X31500Y-27000D03*
X31500Y-28000D03*
G54D16*
X30500Y-17000D03*
G54D17*
X30500Y-18000D03*
X30500Y-19000D03*
X30500Y-20000D03*
X30500Y-21000D03*
X30500Y-22000D03*
X30500Y-23000D03*
X30500Y-24000D03*
X30500Y-25000D03*
X30500Y-26000D03*
X30500Y-27000D03*
X30500Y-28000D03*
G54D16*
X47000Y-27000D03*
G54D17*
X47000Y-28000D03*
X47000Y-29000D03*
X47000Y-30000D03*
X47000Y-31000D03*
X47000Y-32000D03*
G54D16*
X47000Y-34000D03*
G54D17*
X47000Y-35000D03*
X47000Y-36000D03*
X47000Y-37000D03*
X47000Y-38000D03*
X47000Y-39000D03*
G54D16*
X46000Y-27000D03*
G54D17*
X46000Y-28000D03*
X46000Y-29000D03*
X46000Y-30000D03*
X46000Y-31000D03*
X46000Y-32000D03*
G54D16*
X46000Y-34000D03*
G54D17*
X46000Y-35000D03*
X46000Y-36000D03*
X46000Y-37000D03*
X46000Y-38000D03*
X46000Y-39000D03*
G54D16*
X40500Y-20000D03*
G54D17*
X40500Y-21000D03*
X40500Y-22000D03*
X40500Y-23000D03*
X40500Y-24000D03*
X40500Y-25000D03*
X40500Y-26000D03*
G54D16*
X41500Y-20000D03*
G54D17*
X41500Y-21000D03*
X41500Y-22000D03*
X41500Y-23000D03*
X41500Y-24000D03*
X41500Y-25000D03*
X41500Y-26000D03*
G54D16*
X31500Y-29000D03*
G54D17*
X31500Y-30000D03*
X31500Y-31000D03*
X31500Y-32000D03*
X31500Y-33000D03*
X31500Y-34000D03*
X31500Y-35000D03*
G54D16*
X30500Y-29000D03*
G54D17*
X30500Y-30000D03*
X30500Y-31000D03*
X30500Y-32000D03*
X30500Y-33000D03*
X30500Y-34000D03*
X30500Y-35000D03*
G54D16*
X27000Y-23500D03*
G54D17*
X27000Y-24500D03*
X27000Y-25500D03*
X27000Y-26500D03*
X27000Y-27500D03*
X27000Y-28500D03*
X27000Y-29500D03*
X27000Y-30500D03*
G54D16*
X27000Y-32000D03*
G54D17*
X27000Y-33000D03*
X27000Y-34000D03*
X27000Y-35000D03*
X27000Y-36000D03*
X27000Y-37000D03*
X27000Y-38000D03*
X27000Y-39000D03*
G54D16*
X26000Y-23500D03*
G54D17*
X26000Y-24500D03*
X26000Y-25500D03*
X26000Y-26500D03*
X26000Y-27500D03*
X26000Y-28500D03*
X26000Y-29500D03*
X26000Y-30500D03*
G54D16*
X26000Y-32000D03*
G54D17*
X26000Y-33000D03*
X26000Y-34000D03*
X26000Y-35000D03*
X26000Y-36000D03*
X26000Y-37000D03*
X26000Y-38000D03*
X26000Y-39000D03*
G54D16*
X47000Y-50000D03*
G54D17*
X48000Y-50000D03*
X49000Y-50000D03*
X50000Y-50000D03*
X51000Y-50000D03*
X52000Y-50000D03*
X53000Y-50000D03*
X54000Y-50000D03*
G54D16*
X38000Y-50000D03*
G54D17*
X39000Y-50000D03*
X40000Y-50000D03*
X41000Y-50000D03*
X42000Y-50000D03*
X43000Y-50000D03*
X44000Y-50000D03*
X45000Y-50000D03*
G54D16*
X29000Y-50000D03*
G54D17*
X30000Y-50000D03*
X31000Y-50000D03*
X32000Y-50000D03*
X33000Y-50000D03*
X34000Y-50000D03*
X35000Y-50000D03*
X36000Y-50000D03*
G54D16*
X20000Y-50000D03*
G54D17*
X21000Y-50000D03*
X22000Y-50000D03*
X23000Y-50000D03*
X24000Y-50000D03*
X25000Y-50000D03*
X26000Y-50000D03*
X27000Y-50000D03*
G54D11*
X34000Y-41000D03*
G54D12*
X35000Y-41000D03*
X34000Y-42000D03*
X35000Y-42000D03*
X34000Y-43000D03*
X35000Y-43000D03*
X34000Y-44000D03*
X35000Y-44000D03*
X34000Y-45000D03*
X35000Y-45000D03*
X34000Y-46000D03*
X35000Y-46000D03*
X34000Y-47000D03*
X35000Y-47000D03*
X34000Y-48000D03*
X35000Y-48000D03*
G54D11*
X36000Y-41000D03*
G54D12*
X37000Y-41000D03*
X36000Y-42000D03*
X37000Y-42000D03*
X36000Y-43000D03*
X37000Y-43000D03*
X36000Y-44000D03*
X37000Y-44000D03*
X36000Y-45000D03*
X37000Y-45000D03*
X36000Y-46000D03*
X37000Y-46000D03*
X36000Y-47000D03*
X37000Y-47000D03*
X36000Y-48000D03*
X37000Y-48000D03*
G54D11*
X38000Y-41000D03*
G54D12*
X39000Y-41000D03*
X38000Y-42000D03*
X39000Y-42000D03*
X38000Y-43000D03*
X39000Y-43000D03*
X38000Y-44000D03*
X39000Y-44000D03*
X38000Y-45000D03*
X39000Y-45000D03*
X38000Y-46000D03*
X39000Y-46000D03*
X38000Y-47000D03*
X39000Y-47000D03*
X38000Y-48000D03*
X39000Y-48000D03*
G54D11*
X40000Y-41000D03*
G54D12*
X41000Y-41000D03*
X40000Y-42000D03*
X41000Y-42000D03*
X40000Y-43000D03*
X41000Y-43000D03*
X40000Y-44000D03*
X41000Y-44000D03*
X40000Y-45000D03*
X41000Y-45000D03*
X40000Y-46000D03*
X41000Y-46000D03*
X40000Y-47000D03*
X41000Y-47000D03*
X40000Y-48000D03*
X41000Y-48000D03*
G54D11*
X42000Y-41000D03*
G54D12*
X43000Y-41000D03*
X42000Y-42000D03*
X43000Y-42000D03*
X42000Y-43000D03*
X43000Y-43000D03*
X42000Y-44000D03*
X43000Y-44000D03*
X42000Y-45000D03*
X43000Y-45000D03*
X42000Y-46000D03*
X43000Y-46000D03*
X42000Y-47000D03*
X43000Y-47000D03*
X42000Y-48000D03*
X43000Y-48000D03*
G54D11*
X44000Y-41000D03*
G54D12*
X45000Y-41000D03*
X44000Y-42000D03*
X45000Y-42000D03*
X44000Y-43000D03*
X45000Y-43000D03*
X44000Y-44000D03*
X45000Y-44000D03*
X44000Y-45000D03*
X45000Y-45000D03*
X44000Y-46000D03*
X45000Y-46000D03*
X44000Y-47000D03*
X45000Y-47000D03*
X44000Y-48000D03*
X45000Y-48000D03*
G54D11*
X46000Y-41000D03*
G54D12*
X47000Y-41000D03*
X46000Y-42000D03*
X47000Y-42000D03*
X46000Y-43000D03*
X47000Y-43000D03*
X46000Y-44000D03*
X47000Y-44000D03*
X46000Y-45000D03*
X47000Y-45000D03*
X46000Y-46000D03*
X47000Y-46000D03*
X46000Y-47000D03*
X47000Y-47000D03*
X46000Y-48000D03*
X47000Y-48000D03*
G54D20*
X18000Y-17500D03*
G54D18*
X21750Y-54500D02*
X21750Y-51750D01*
X21750Y-51750D02*
X20000Y-50000D01*
X20000Y-50000D02*
X21000Y-49000D01*
X28000Y-49000D02*
X29000Y-50000D01*
X21000Y-49000D02*
X28000Y-49000D01*
X29000Y-50000D02*
X30000Y-49000D01*
X37000Y-49000D02*
X38000Y-50000D01*
X30000Y-49000D02*
X37000Y-49000D01*
X30750Y-54500D02*
X30750Y-51750D01*
X30750Y-51750D02*
X29000Y-50000D01*
X39750Y-54500D02*
X39750Y-51750D01*
X39750Y-51750D02*
X38000Y-50000D01*
X38000Y-50000D02*
X39000Y-49000D01*
X46000Y-49000D02*
X47000Y-50000D01*
X39000Y-49000D02*
X46000Y-49000D01*
X48750Y-54500D02*
X48750Y-51750D01*
X48750Y-51750D02*
X47000Y-50000D01*
X47000Y-29000D02*
X46000Y-29000D01*
X46000Y-29000D02*
X45500Y-29000D01*
X42500Y-19500D02*
X42000Y-19000D01*
X42500Y-26000D02*
X42500Y-19500D01*
X45500Y-29000D02*
X42500Y-26000D01*
X42000Y-19000D02*
X32500Y-19000D01*
X32500Y-19000D02*
X31500Y-20000D01*
X30500Y-20000D02*
X31500Y-20000D01*
X47000Y-50000D02*
X48000Y-49000D01*
X54500Y-29000D02*
X47000Y-29000D01*
X55000Y-29500D02*
X54500Y-29000D01*
X55000Y-48500D02*
X55000Y-29500D01*
X54500Y-49000D02*
X55000Y-48500D01*
X48000Y-49000D02*
X54500Y-49000D01*
X49750Y-54500D02*
X49750Y-50750D01*
X49750Y-50750D02*
X49000Y-50000D01*
X50250Y-53500D02*
X50250Y-50250D01*
X50250Y-50250D02*
X50000Y-50000D01*
X50750Y-54500D02*
X50750Y-50250D01*
X50750Y-50250D02*
X51000Y-50000D01*
X51250Y-53500D02*
X51250Y-50750D01*
X51250Y-50750D02*
X52000Y-50000D01*
X51750Y-54500D02*
X51750Y-51250D01*
X51750Y-51250D02*
X53000Y-50000D01*
X52250Y-53500D02*
X52250Y-51750D01*
X52250Y-51750D02*
X54000Y-50000D01*
X40750Y-54500D02*
X40750Y-50750D01*
X40750Y-50750D02*
X40000Y-50000D01*
X41250Y-53500D02*
X41250Y-50250D01*
X41250Y-50250D02*
X41000Y-50000D01*
X41750Y-54500D02*
X41750Y-50250D01*
X41750Y-50250D02*
X42000Y-50000D01*
X42250Y-53500D02*
X42250Y-50750D01*
X42250Y-50750D02*
X43000Y-50000D01*
X42750Y-54500D02*
X42750Y-51250D01*
X42750Y-51250D02*
X44000Y-50000D01*
X43250Y-53500D02*
X43250Y-51750D01*
X43250Y-51750D02*
X45000Y-50000D01*
X31750Y-54500D02*
X31750Y-50750D01*
X31750Y-50750D02*
X31000Y-50000D01*
X32250Y-53500D02*
X32250Y-50250D01*
X32250Y-50250D02*
X32000Y-50000D01*
X32750Y-54500D02*
X32750Y-50250D01*
X32750Y-50250D02*
X33000Y-50000D01*
X33250Y-53500D02*
X33250Y-50750D01*
X33250Y-50750D02*
X34000Y-50000D01*
X33750Y-54500D02*
X33750Y-51250D01*
X33750Y-51250D02*
X35000Y-50000D01*
X34250Y-53500D02*
X34250Y-51750D01*
X34250Y-51750D02*
X36000Y-50000D01*
X22750Y-54500D02*
X22750Y-50750D01*
X22750Y-50750D02*
X22000Y-50000D01*
X23250Y-53500D02*
X23250Y-50250D01*
X23250Y-50250D02*
X23000Y-50000D01*
X23750Y-54500D02*
X23750Y-50250D01*
X23750Y-50250D02*
X24000Y-50000D01*
X24250Y-53500D02*
X24250Y-50750D01*
X24250Y-50750D02*
X25000Y-50000D01*
X24750Y-54500D02*
X24750Y-51250D01*
X24750Y-51250D02*
X26000Y-50000D01*
X25250Y-53500D02*
X25250Y-51750D01*
X25250Y-51750D02*
X27000Y-50000D01*
X30500Y-17000D02*
X31500Y-17000D01*
X31500Y-18000D02*
X30500Y-18000D01*
X30500Y-21000D02*
X31500Y-21000D01*
X30500Y-22000D02*
X31500Y-22000D01*
X31500Y-23000D02*
X30500Y-23000D01*
X30500Y-24000D02*
X31500Y-24000D01*
X31500Y-25000D02*
X30500Y-25000D01*
X30500Y-26000D02*
X31500Y-26000D01*
X30500Y-27000D02*
X31500Y-27000D01*
X30500Y-28000D02*
X31500Y-28000D01*
X46000Y-27000D02*
X47000Y-27000D01*
X46000Y-28000D02*
X47000Y-28000D01*
X46000Y-32000D02*
X47000Y-32000D01*
X46000Y-34000D02*
X47000Y-34000D01*
X46000Y-35000D02*
X47000Y-35000D01*
X46000Y-36000D02*
X47000Y-36000D01*
X46000Y-37000D02*
X47000Y-37000D01*
X46000Y-38000D02*
X47000Y-38000D01*
X46000Y-39000D02*
X47000Y-39000D01*
X30500Y-29000D02*
X31500Y-29000D01*
X31500Y-29000D02*
X40000Y-20500D01*
X40000Y-20500D02*
X40500Y-20000D01*
X40500Y-20000D02*
X41500Y-20000D01*
X30500Y-30000D02*
X31500Y-30000D01*
X31500Y-30000D02*
X40500Y-21000D01*
X40500Y-21000D02*
X41500Y-21000D01*
X30500Y-31000D02*
X31500Y-31000D01*
X31500Y-31000D02*
X40500Y-22000D01*
X40500Y-22000D02*
X41500Y-22000D01*
X30500Y-32000D02*
X31500Y-32000D01*
X31500Y-32000D02*
X40500Y-23000D01*
X40500Y-23000D02*
X41500Y-23000D01*
X30500Y-33000D02*
X31500Y-33000D01*
X31500Y-33000D02*
X40500Y-24000D01*
X40500Y-24000D02*
X41500Y-24000D01*
X30500Y-34000D02*
X31500Y-34000D01*
X31500Y-34000D02*
X40500Y-25000D01*
X40500Y-25000D02*
X41500Y-25000D01*
X30500Y-35000D02*
X31500Y-35000D01*
X31500Y-35000D02*
X40500Y-26000D01*
X40500Y-26000D02*
X41500Y-26000D01*
X26000Y-23500D02*
X27000Y-23500D01*
X27000Y-24500D02*
X26000Y-24500D01*
X26000Y-25500D02*
X27000Y-25500D01*
X27000Y-26500D02*
X26000Y-26500D01*
X26000Y-27500D02*
X27000Y-27500D01*
X26000Y-28500D02*
X27000Y-28500D01*
X27000Y-29500D02*
X26000Y-29500D01*
X26000Y-30500D02*
X27000Y-30500D01*
X27000Y-32000D02*
X26000Y-32000D01*
X26000Y-33000D02*
X27000Y-33000D01*
X27000Y-34000D02*
X26000Y-34000D01*
X26000Y-35000D02*
X27000Y-35000D01*
X26000Y-36000D02*
X27000Y-36000D01*
X27000Y-37000D02*
X26000Y-37000D01*
X26000Y-38000D02*
X27000Y-38000D01*
X27000Y-39000D02*
X26000Y-39000D01*
M02*
