M48
;DRILL file {PCBnew (20090216-RC5)} date Mon 25 May 2009 05:52:01 PM CDT
;FORMAT={-.-/ absolute / inch / decimal}
R,T
VER,1
FMAT,2
INCH,TZ
TCST,OFF
ICI,OFF
ATC,ON
T1C0.025
T2C0.035
T3C0.035
T4C0.125
T5C0.126
T6C0.128
%
M47
G05
M72
T1
X1.425Y5.725
X2.000Y2.500
X2.425Y5.725
X3.425Y5.725
X4.100Y3.100
X4.425Y5.725
X5.000Y5.725
T2
X1.200Y1.600
X1.200Y1.700
X1.200Y1.800
X1.200Y1.900
X1.200Y2.000
X1.200Y2.100
X1.200Y2.200
X1.200Y2.300
X1.200Y2.400
X1.200Y2.500
X1.200Y2.600
X1.200Y2.700
X1.200Y2.800
X1.200Y2.900
X1.200Y3.000
X1.200Y3.100
X1.200Y3.200
X1.200Y3.300
X1.200Y3.400
X1.200Y3.500
X1.200Y3.600
X1.200Y3.700
X1.200Y3.800
X1.200Y3.900
X1.200Y4.000
X1.200Y4.200
X1.200Y4.300
X1.200Y4.400
X1.200Y4.500
X1.200Y4.600
X1.200Y4.700
X1.200Y4.800
X1.200Y4.900
X1.200Y5.000
X1.200Y5.100
X1.200Y5.200
X1.200Y5.300
X1.200Y5.400
X1.200Y5.600
X1.300Y1.600
X1.300Y1.700
X1.300Y1.800
X1.300Y1.900
X1.300Y2.000
X1.300Y2.100
X1.300Y2.200
X1.300Y2.300
X1.300Y2.400
X1.300Y2.500
X1.300Y2.600
X1.300Y2.700
X1.300Y2.800
X1.300Y2.900
X1.300Y3.000
X1.300Y3.100
X1.300Y3.200
X1.300Y3.300
X1.300Y3.400
X1.300Y3.500
X1.300Y3.600
X1.300Y3.700
X1.300Y3.800
X1.300Y3.900
X1.300Y4.000
X1.300Y4.200
X1.300Y4.300
X1.300Y4.400
X1.300Y4.500
X1.300Y4.600
X1.300Y4.700
X1.300Y4.800
X1.300Y4.900
X1.300Y5.000
X1.300Y5.100
X1.300Y5.200
X1.300Y5.300
X1.300Y5.400
X1.300Y5.600
X1.400Y1.600
X1.400Y1.700
X1.400Y1.800
X1.400Y1.900
X1.400Y2.000
X1.400Y2.100
X1.400Y2.200
X1.400Y2.300
X1.400Y2.400
X1.400Y2.500
X1.400Y2.600
X1.400Y2.700
X1.400Y2.800
X1.400Y2.900
X1.400Y3.000
X1.400Y3.100
X1.400Y3.200
X1.400Y3.300
X1.400Y3.400
X1.400Y3.500
X1.400Y3.600
X1.400Y3.700
X1.400Y3.800
X1.400Y3.900
X1.400Y4.000
X1.400Y4.200
X1.400Y4.300
X1.400Y4.400
X1.400Y4.500
X1.400Y4.600
X1.400Y4.700
X1.400Y4.800
X1.400Y4.900
X1.400Y5.000
X1.400Y5.100
X1.400Y5.200
X1.400Y5.300
X1.400Y5.400
X1.400Y5.600
X1.500Y1.600
X1.500Y1.700
X1.500Y1.800
X1.500Y1.900
X1.500Y2.000
X1.500Y2.100
X1.500Y2.200
X1.500Y2.300
X1.500Y2.400
X1.500Y2.500
X1.500Y2.600
X1.500Y2.700
X1.500Y2.800
X1.500Y2.900
X1.500Y3.000
X1.500Y3.100
X1.500Y3.200
X1.500Y3.300
X1.500Y3.400
X1.500Y3.500
X1.500Y3.600
X1.500Y3.700
X1.500Y3.800
X1.500Y3.900
X1.500Y4.000
X1.500Y4.200
X1.500Y4.300
X1.500Y4.400
X1.500Y4.500
X1.500Y4.600
X1.500Y4.700
X1.500Y4.800
X1.500Y4.900
X1.500Y5.000
X1.500Y5.100
X1.500Y5.200
X1.500Y5.300
X1.500Y5.400
X1.500Y5.600
X1.600Y1.600
X1.600Y1.700
X1.600Y1.800
X1.600Y1.900
X1.600Y2.000
X1.600Y2.100
X1.600Y2.200
X1.600Y2.300
X1.600Y2.400
X1.600Y2.500
X1.600Y2.600
X1.600Y2.700
X1.600Y2.800
X1.600Y2.900
X1.600Y3.000
X1.600Y3.100
X1.600Y3.200
X1.600Y3.300
X1.600Y3.400
X1.600Y3.500
X1.600Y3.600
X1.600Y3.700
X1.600Y3.800
X1.600Y3.900
X1.600Y4.000
X1.600Y4.200
X1.600Y4.300
X1.600Y4.400
X1.600Y4.500
X1.600Y4.600
X1.600Y4.700
X1.600Y4.800
X1.600Y4.900
X1.600Y5.000
X1.600Y5.100
X1.600Y5.200
X1.600Y5.300
X1.600Y5.400
X1.600Y5.600
X1.700Y1.600
X1.700Y1.700
X1.700Y1.800
X1.700Y1.900
X1.700Y2.000
X1.700Y2.100
X1.700Y2.200
X1.700Y2.300
X1.700Y2.400
X1.700Y2.500
X1.700Y2.600
X1.700Y2.700
X1.700Y2.800
X1.700Y2.900
X1.700Y3.000
X1.700Y3.100
X1.700Y3.200
X1.700Y3.300
X1.700Y3.400
X1.700Y3.500
X1.700Y3.600
X1.700Y3.700
X1.700Y3.800
X1.700Y3.900
X1.700Y4.000
X1.700Y4.200
X1.700Y4.300
X1.700Y4.400
X1.700Y4.500
X1.700Y4.600
X1.700Y4.700
X1.700Y4.800
X1.700Y4.900
X1.700Y5.000
X1.700Y5.100
X1.700Y5.200
X1.700Y5.300
X1.700Y5.400
X1.700Y5.600
X1.800Y1.600
X1.800Y1.700
X1.800Y1.800
X1.800Y1.900
X1.800Y2.000
X1.800Y2.100
X1.800Y2.200
X1.800Y2.300
X1.800Y2.400
X1.800Y2.500
X1.800Y2.600
X1.800Y2.700
X1.800Y2.800
X1.800Y2.900
X1.800Y3.000
X1.800Y3.100
X1.800Y3.200
X1.800Y3.300
X1.800Y3.400
X1.800Y3.500
X1.800Y3.600
X1.800Y3.700
X1.800Y3.800
X1.800Y3.900
X1.800Y4.000
X1.800Y4.200
X1.800Y4.300
X1.800Y4.400
X1.800Y4.500
X1.800Y4.600
X1.800Y4.700
X1.800Y4.800
X1.800Y4.900
X1.800Y5.000
X1.800Y5.100
X1.800Y5.200
X1.800Y5.300
X1.800Y5.400
X1.800Y5.600
X1.900Y1.600
X1.900Y1.700
X1.900Y1.800
X1.900Y1.900
X1.900Y2.000
X1.900Y2.100
X1.900Y2.200
X1.900Y2.300
X1.900Y2.400
X1.900Y2.500
X1.900Y2.600
X1.900Y2.700
X1.900Y2.800
X1.900Y2.900
X1.900Y3.000
X1.900Y3.100
X1.900Y3.300
X1.900Y3.400
X1.900Y3.500
X1.900Y3.600
X1.900Y3.700
X1.900Y3.800
X1.900Y3.900
X1.900Y4.000
X1.900Y4.200
X1.900Y4.300
X1.900Y4.400
X1.900Y4.500
X1.900Y4.600
X1.900Y4.700
X1.900Y4.800
X1.900Y4.900
X1.900Y5.000
X1.900Y5.100
X1.900Y5.200
X1.900Y5.300
X1.900Y5.400
X1.900Y5.600
X2.000Y4.200
X2.000Y4.300
X2.000Y4.400
X2.000Y4.500
X2.000Y4.600
X2.000Y4.700
X2.000Y4.800
X2.000Y4.900
X2.000Y5.000
X2.000Y5.100
X2.000Y5.200
X2.000Y5.300
X2.000Y5.400
X2.100Y2.440
X2.100Y2.540
X2.100Y2.640
X2.100Y2.740
X2.100Y2.840
X2.100Y2.940
X2.100Y3.040
X2.100Y3.140
X2.100Y3.300
X2.100Y3.400
X2.100Y3.500
X2.100Y3.600
X2.100Y3.700
X2.100Y3.800
X2.100Y3.900
X2.100Y4.000
X2.100Y4.200
X2.100Y4.300
X2.100Y4.400
X2.100Y4.500
X2.100Y4.600
X2.100Y4.700
X2.100Y4.800
X2.100Y4.900
X2.100Y5.000
X2.100Y5.100
X2.100Y5.200
X2.100Y5.300
X2.100Y5.400
X2.200Y5.600
X2.300Y1.600
X2.300Y1.700
X2.300Y1.800
X2.300Y1.900
X2.300Y2.000
X2.300Y2.100
X2.300Y2.200
X2.300Y2.300
X2.300Y2.400
X2.300Y2.500
X2.300Y2.600
X2.300Y2.700
X2.300Y2.800
X2.300Y2.900
X2.300Y3.000
X2.300Y3.100
X2.300Y3.300
X2.300Y3.400
X2.300Y3.500
X2.300Y3.600
X2.300Y3.700
X2.300Y3.800
X2.300Y3.900
X2.300Y4.000
X2.300Y4.300
X2.300Y4.400
X2.300Y4.500
X2.300Y4.600
X2.300Y4.700
X2.300Y4.800
X2.300Y4.900
X2.300Y5.000
X2.300Y5.100
X2.300Y5.200
X2.300Y5.300
X2.300Y5.400
X2.300Y5.600
X2.400Y1.600
X2.400Y1.700
X2.400Y1.800
X2.400Y1.900
X2.400Y2.000
X2.400Y2.100
X2.400Y2.200
X2.400Y2.300
X2.400Y2.400
X2.400Y2.500
X2.400Y2.600
X2.400Y2.700
X2.400Y2.800
X2.400Y2.900
X2.400Y3.000
X2.400Y3.100
X2.400Y3.200
X2.400Y3.300
X2.400Y3.400
X2.400Y3.500
X2.400Y3.600
X2.400Y3.700
X2.400Y3.800
X2.400Y3.900
X2.400Y4.000
X2.400Y4.300
X2.400Y4.400
X2.400Y4.500
X2.400Y4.600
X2.400Y4.700
X2.400Y4.800
X2.400Y4.900
X2.400Y5.000
X2.400Y5.100
X2.400Y5.200
X2.400Y5.300
X2.400Y5.400
X2.400Y5.600
X2.500Y1.600
X2.500Y1.700
X2.500Y1.800
X2.500Y1.900
X2.500Y2.000
X2.500Y2.100
X2.500Y2.200
X2.500Y2.300
X2.500Y2.400
X2.500Y2.500
X2.500Y2.600
X2.500Y2.700
X2.500Y2.800
X2.500Y2.900
X2.500Y3.000
X2.500Y3.100
X2.500Y3.200
X2.500Y3.300
X2.500Y3.400
X2.500Y3.500
X2.500Y3.600
X2.500Y3.700
X2.500Y3.800
X2.500Y3.900
X2.500Y4.000
X2.500Y4.300
X2.500Y4.400
X2.500Y4.500
X2.500Y4.600
X2.500Y4.700
X2.500Y4.800
X2.500Y4.900
X2.500Y5.000
X2.500Y5.100
X2.500Y5.200
X2.500Y5.300
X2.500Y5.400
X2.500Y5.600
X2.600Y1.600
X2.600Y1.700
X2.600Y1.800
X2.600Y1.900
X2.600Y2.000
X2.600Y2.100
X2.600Y2.200
X2.600Y2.300
X2.600Y2.400
X2.600Y2.500
X2.600Y2.600
X2.600Y2.700
X2.600Y2.800
X2.600Y2.900
X2.600Y3.000
X2.600Y3.100
X2.600Y3.200
X2.600Y3.300
X2.600Y3.400
X2.600Y3.500
X2.600Y3.600
X2.600Y3.700
X2.600Y3.800
X2.600Y3.900
X2.600Y4.000
X2.600Y4.300
X2.600Y4.400
X2.600Y4.500
X2.600Y4.600
X2.600Y4.700
X2.600Y4.800
X2.600Y4.900
X2.600Y5.000
X2.600Y5.100
X2.600Y5.200
X2.600Y5.300
X2.600Y5.400
X2.600Y5.600
X2.700Y1.600
X2.700Y1.700
X2.700Y1.800
X2.700Y1.900
X2.700Y2.000
X2.700Y2.100
X2.700Y2.200
X2.700Y2.300
X2.700Y2.400
X2.700Y2.500
X2.700Y2.600
X2.700Y2.700
X2.700Y2.800
X2.700Y2.900
X2.700Y3.000
X2.700Y3.100
X2.700Y3.200
X2.700Y3.300
X2.700Y3.400
X2.700Y3.500
X2.700Y3.600
X2.700Y3.700
X2.700Y3.800
X2.700Y3.900
X2.700Y4.300
X2.700Y4.400
X2.700Y4.500
X2.700Y4.600
X2.700Y4.700
X2.700Y4.800
X2.700Y4.900
X2.700Y5.000
X2.700Y5.100
X2.700Y5.200
X2.700Y5.300
X2.700Y5.400
X2.700Y5.600
X2.800Y1.600
X2.800Y1.700
X2.800Y1.800
X2.800Y1.900
X2.800Y2.000
X2.800Y2.100
X2.800Y2.200
X2.800Y2.300
X2.800Y2.400
X2.800Y2.500
X2.800Y2.600
X2.800Y2.700
X2.800Y2.800
X2.800Y2.900
X2.800Y3.000
X2.800Y3.100
X2.800Y3.200
X2.800Y3.300
X2.800Y3.400
X2.800Y3.500
X2.800Y3.600
X2.800Y3.700
X2.800Y3.800
X2.800Y3.900
X2.800Y4.000
X2.800Y4.300
X2.800Y4.400
X2.800Y4.500
X2.800Y4.600
X2.800Y4.700
X2.800Y4.800
X2.800Y4.900
X2.800Y5.000
X2.800Y5.100
X2.800Y5.200
X2.800Y5.300
X2.800Y5.400
X2.800Y5.600
X2.900Y1.600
X2.900Y1.700
X2.900Y1.800
X2.900Y1.900
X2.900Y2.000
X2.900Y2.100
X2.900Y2.200
X2.900Y2.300
X2.900Y2.400
X2.900Y2.500
X2.900Y2.600
X2.900Y2.700
X2.900Y2.800
X2.900Y2.900
X2.900Y3.000
X2.900Y3.100
X2.900Y3.200
X2.900Y3.300
X2.900Y3.400
X2.900Y3.500
X2.900Y3.600
X2.900Y3.700
X2.900Y3.800
X2.900Y3.900
X2.900Y4.000
X2.900Y4.300
X2.900Y4.400
X2.900Y4.500
X2.900Y4.600
X2.900Y4.700
X2.900Y4.800
X2.900Y4.900
X2.900Y5.000
X2.900Y5.100
X2.900Y5.200
X2.900Y5.300
X2.900Y5.400
X2.900Y5.600
X3.000Y1.600
X3.000Y1.700
X3.000Y1.800
X3.000Y1.900
X3.000Y2.000
X3.000Y2.100
X3.000Y2.200
X3.000Y2.300
X3.000Y2.400
X3.000Y2.500
X3.000Y2.600
X3.000Y2.700
X3.000Y2.800
X3.000Y2.900
X3.000Y3.000
X3.000Y3.100
X3.000Y3.200
X3.000Y3.300
X3.000Y3.400
X3.000Y3.500
X3.000Y3.600
X3.000Y3.700
X3.000Y3.800
X3.000Y3.900
X3.000Y4.000
X3.000Y4.300
X3.000Y4.400
X3.000Y4.500
X3.000Y4.600
X3.000Y4.700
X3.000Y4.800
X3.000Y4.900
X3.000Y5.000
X3.000Y5.100
X3.000Y5.200
X3.000Y5.300
X3.000Y5.400
X3.100Y1.600
X3.100Y1.700
X3.100Y1.800
X3.100Y1.900
X3.100Y2.000
X3.100Y2.100
X3.100Y2.200
X3.100Y2.300
X3.100Y2.400
X3.100Y2.500
X3.100Y2.600
X3.100Y2.700
X3.100Y2.800
X3.100Y2.900
X3.100Y3.000
X3.100Y3.100
X3.100Y3.200
X3.100Y3.300
X3.100Y3.400
X3.100Y3.500
X3.100Y3.600
X3.100Y3.700
X3.100Y3.800
X3.100Y3.900
X3.100Y4.000
X3.100Y4.300
X3.100Y4.400
X3.100Y4.500
X3.100Y4.600
X3.100Y4.700
X3.100Y4.800
X3.100Y4.900
X3.100Y5.000
X3.100Y5.100
X3.100Y5.200
X3.100Y5.300
X3.100Y5.400
X3.200Y1.600
X3.200Y1.700
X3.200Y1.800
X3.200Y1.900
X3.200Y2.000
X3.200Y2.100
X3.200Y2.200
X3.200Y2.300
X3.200Y2.400
X3.200Y2.500
X3.200Y2.600
X3.200Y2.700
X3.200Y2.800
X3.200Y2.900
X3.200Y3.000
X3.200Y3.100
X3.200Y3.200
X3.200Y3.300
X3.200Y3.400
X3.200Y3.500
X3.200Y3.600
X3.200Y3.700
X3.200Y3.800
X3.200Y3.900
X3.200Y4.000
X3.200Y4.300
X3.200Y4.400
X3.200Y4.500
X3.200Y4.600
X3.200Y4.700
X3.200Y4.800
X3.200Y4.900
X3.200Y5.000
X3.200Y5.100
X3.200Y5.200
X3.200Y5.300
X3.200Y5.400
X3.200Y5.600
X3.300Y1.600
X3.300Y1.700
X3.300Y1.800
X3.300Y1.900
X3.300Y2.000
X3.300Y2.100
X3.300Y2.200
X3.300Y2.300
X3.300Y2.400
X3.300Y2.500
X3.300Y2.600
X3.300Y2.700
X3.300Y2.800
X3.300Y2.900
X3.300Y3.000
X3.300Y3.100
X3.300Y3.200
X3.300Y3.300
X3.300Y3.400
X3.300Y3.500
X3.300Y3.600
X3.300Y3.700
X3.300Y3.800
X3.300Y3.900
X3.300Y4.000
X3.300Y4.300
X3.300Y4.400
X3.300Y4.500
X3.300Y4.600
X3.300Y4.700
X3.300Y4.800
X3.300Y4.900
X3.300Y5.000
X3.300Y5.100
X3.300Y5.200
X3.300Y5.300
X3.300Y5.400
X3.300Y5.600
X3.400Y1.600
X3.400Y1.700
X3.400Y1.800
X3.400Y1.900
X3.400Y2.000
X3.400Y2.100
X3.400Y2.200
X3.400Y2.300
X3.400Y2.400
X3.400Y2.500
X3.400Y2.600
X3.400Y2.700
X3.400Y2.800
X3.400Y2.900
X3.400Y3.000
X3.400Y3.100
X3.400Y3.200
X3.400Y3.300
X3.400Y3.400
X3.400Y3.500
X3.400Y3.600
X3.400Y3.700
X3.400Y3.800
X3.400Y3.900
X3.400Y4.000
X3.400Y4.300
X3.400Y4.400
X3.400Y4.500
X3.400Y4.600
X3.400Y4.700
X3.400Y4.800
X3.400Y4.900
X3.400Y5.000
X3.400Y5.100
X3.400Y5.200
X3.400Y5.300
X3.400Y5.400
X3.400Y5.600
X3.500Y1.600
X3.500Y1.700
X3.500Y1.800
X3.500Y1.900
X3.500Y2.000
X3.500Y2.100
X3.500Y2.200
X3.500Y2.300
X3.500Y2.400
X3.500Y2.500
X3.500Y2.600
X3.500Y2.700
X3.500Y2.800
X3.500Y2.900
X3.500Y3.000
X3.500Y3.100
X3.500Y3.200
X3.500Y3.300
X3.500Y3.400
X3.500Y3.500
X3.500Y3.600
X3.500Y3.700
X3.500Y3.800
X3.500Y3.900
X3.500Y4.000
X3.500Y4.300
X3.500Y4.400
X3.500Y4.500
X3.500Y4.600
X3.500Y4.700
X3.500Y4.800
X3.500Y4.900
X3.500Y5.000
X3.500Y5.100
X3.500Y5.200
X3.500Y5.300
X3.500Y5.400
X3.500Y5.600
X3.600Y1.600
X3.600Y1.700
X3.600Y1.800
X3.600Y1.900
X3.600Y2.000
X3.600Y2.100
X3.600Y2.200
X3.600Y2.300
X3.600Y2.400
X3.600Y2.500
X3.600Y2.600
X3.600Y2.700
X3.600Y2.800
X3.600Y2.900
X3.600Y3.000
X3.600Y3.100
X3.600Y3.200
X3.600Y3.300
X3.600Y3.400
X3.600Y3.500
X3.600Y3.600
X3.600Y3.700
X3.600Y3.800
X3.600Y3.900
X3.600Y4.000
X3.600Y4.300
X3.600Y4.400
X3.600Y4.500
X3.600Y4.600
X3.600Y4.700
X3.600Y4.800
X3.600Y4.900
X3.600Y5.000
X3.600Y5.100
X3.600Y5.200
X3.600Y5.300
X3.600Y5.400
X3.600Y5.600
X3.700Y1.600
X3.700Y1.700
X3.700Y1.800
X3.700Y1.900
X3.700Y2.000
X3.700Y2.100
X3.700Y2.200
X3.700Y2.300
X3.700Y2.400
X3.700Y2.500
X3.700Y2.600
X3.700Y2.700
X3.700Y2.800
X3.700Y2.900
X3.700Y3.000
X3.700Y3.100
X3.700Y3.200
X3.700Y3.300
X3.700Y3.500
X3.700Y3.600
X3.700Y3.700
X3.700Y3.800
X3.700Y3.900
X3.700Y4.000
X3.700Y4.300
X3.700Y4.400
X3.700Y4.500
X3.700Y4.600
X3.700Y4.700
X3.700Y4.800
X3.700Y4.900
X3.700Y5.000
X3.700Y5.100
X3.700Y5.200
X3.700Y5.300
X3.700Y5.400
X3.700Y5.600
X3.800Y1.600
X3.800Y1.700
X3.800Y1.800
X3.800Y1.900
X3.800Y2.000
X3.800Y2.100
X3.800Y2.200
X3.800Y2.300
X3.800Y2.400
X3.800Y2.500
X3.800Y2.600
X3.800Y2.700
X3.800Y4.300
X3.800Y4.400
X3.800Y4.500
X3.800Y4.600
X3.800Y4.700
X3.800Y4.800
X3.800Y4.900
X3.800Y5.000
X3.800Y5.100
X3.800Y5.200
X3.800Y5.300
X3.800Y5.400
X3.800Y5.600
X3.900Y4.300
X3.900Y4.400
X3.900Y4.500
X3.900Y4.600
X3.900Y4.700
X3.900Y4.800
X3.900Y4.900
X3.900Y5.000
X3.900Y5.100
X3.900Y5.200
X3.900Y5.300
X3.900Y5.400
X3.900Y5.600
X4.000Y2.800
X4.000Y2.900
X4.000Y3.000
X4.000Y3.100
X4.000Y3.200
X4.000Y3.300
X4.000Y3.500
X4.000Y3.600
X4.000Y3.700
X4.000Y3.800
X4.000Y3.900
X4.000Y4.000
X4.000Y4.300
X4.000Y4.400
X4.000Y4.500
X4.000Y4.600
X4.000Y4.700
X4.000Y4.800
X4.000Y4.900
X4.000Y5.000
X4.000Y5.100
X4.000Y5.200
X4.000Y5.300
X4.000Y5.400
X4.100Y4.300
X4.100Y4.400
X4.100Y4.500
X4.100Y4.600
X4.100Y4.700
X4.100Y4.800
X4.100Y4.900
X4.100Y5.000
X4.100Y5.100
X4.100Y5.200
X4.100Y5.300
X4.100Y5.400
X4.200Y1.600
X4.200Y1.700
X4.200Y1.800
X4.200Y1.900
X4.200Y2.000
X4.200Y2.100
X4.200Y2.200
X4.200Y2.300
X4.200Y2.400
X4.200Y2.500
X4.200Y2.600
X4.200Y2.700
X4.200Y2.800
X4.200Y2.900
X4.200Y3.000
X4.200Y3.100
X4.200Y3.200
X4.200Y3.300
X4.200Y3.500
X4.200Y3.600
X4.200Y3.700
X4.200Y3.800
X4.200Y3.900
X4.200Y4.000
X4.200Y4.200
X4.200Y4.300
X4.200Y4.400
X4.200Y4.500
X4.200Y4.600
X4.200Y4.700
X4.200Y4.800
X4.200Y4.900
X4.200Y5.000
X4.200Y5.100
X4.200Y5.200
X4.200Y5.300
X4.200Y5.400
X4.200Y5.600
X4.300Y1.600
X4.300Y1.700
X4.300Y1.800
X4.300Y1.900
X4.300Y2.000
X4.300Y2.100
X4.300Y2.200
X4.300Y2.300
X4.300Y2.400
X4.300Y2.500
X4.300Y2.600
X4.300Y2.700
X4.300Y2.800
X4.300Y2.900
X4.300Y3.000
X4.300Y3.100
X4.300Y3.200
X4.300Y3.300
X4.300Y3.400
X4.300Y3.500
X4.300Y3.600
X4.300Y3.700
X4.300Y3.800
X4.300Y3.900
X4.300Y4.000
X4.300Y4.200
X4.300Y4.300
X4.300Y4.400
X4.300Y4.500
X4.300Y4.600
X4.300Y4.700
X4.300Y4.800
X4.300Y4.900
X4.300Y5.000
X4.300Y5.100
X4.300Y5.200
X4.300Y5.300
X4.300Y5.400
X4.300Y5.600
X4.400Y1.600
X4.400Y1.700
X4.400Y1.800
X4.400Y1.900
X4.400Y2.000
X4.400Y2.100
X4.400Y2.200
X4.400Y2.300
X4.400Y2.400
X4.400Y2.500
X4.400Y2.600
X4.400Y2.700
X4.400Y2.800
X4.400Y2.900
X4.400Y3.000
X4.400Y3.100
X4.400Y3.200
X4.400Y3.300
X4.400Y3.400
X4.400Y3.500
X4.400Y3.600
X4.400Y3.700
X4.400Y3.800
X4.400Y3.900
X4.400Y4.000
X4.400Y4.200
X4.400Y4.300
X4.400Y4.400
X4.400Y4.500
X4.400Y4.600
X4.400Y4.700
X4.400Y4.800
X4.400Y4.900
X4.400Y5.000
X4.400Y5.100
X4.400Y5.200
X4.400Y5.300
X4.400Y5.400
X4.400Y5.600
X4.500Y1.600
X4.500Y1.700
X4.500Y1.800
X4.500Y1.900
X4.500Y2.000
X4.500Y2.100
X4.500Y2.200
X4.500Y2.300
X4.500Y2.400
X4.500Y2.500
X4.500Y2.600
X4.500Y2.700
X4.500Y2.800
X4.500Y2.900
X4.500Y3.000
X4.500Y3.100
X4.500Y3.200
X4.500Y3.300
X4.500Y3.400
X4.500Y3.500
X4.500Y3.600
X4.500Y3.700
X4.500Y3.800
X4.500Y3.900
X4.500Y4.000
X4.500Y4.200
X4.500Y4.300
X4.500Y4.400
X4.500Y4.500
X4.500Y4.600
X4.500Y4.700
X4.500Y4.800
X4.500Y4.900
X4.500Y5.000
X4.500Y5.100
X4.500Y5.200
X4.500Y5.300
X4.500Y5.400
X4.500Y5.600
X4.600Y1.600
X4.600Y1.700
X4.600Y1.800
X4.600Y1.900
X4.600Y2.000
X4.600Y2.100
X4.600Y2.200
X4.600Y2.300
X4.600Y2.400
X4.600Y2.500
X4.600Y2.600
X4.600Y2.700
X4.600Y2.800
X4.600Y2.900
X4.600Y3.000
X4.600Y3.100
X4.600Y3.200
X4.600Y3.300
X4.600Y3.400
X4.600Y3.500
X4.600Y3.600
X4.600Y3.700
X4.600Y3.800
X4.600Y3.900
X4.600Y4.000
X4.600Y4.200
X4.600Y4.300
X4.600Y4.400
X4.600Y4.500
X4.600Y4.600
X4.600Y4.700
X4.600Y4.800
X4.600Y4.900
X4.600Y5.000
X4.600Y5.100
X4.600Y5.200
X4.600Y5.300
X4.600Y5.400
X4.600Y5.600
X4.700Y1.600
X4.700Y1.700
X4.700Y1.800
X4.700Y1.900
X4.700Y2.000
X4.700Y2.100
X4.700Y2.200
X4.700Y2.300
X4.700Y2.400
X4.700Y2.500
X4.700Y2.600
X4.700Y2.700
X4.700Y2.800
X4.700Y2.900
X4.700Y3.000
X4.700Y3.100
X4.700Y3.200
X4.700Y3.300
X4.700Y3.400
X4.700Y3.500
X4.700Y3.600
X4.700Y3.700
X4.700Y3.800
X4.700Y3.900
X4.700Y4.000
X4.700Y4.200
X4.700Y4.300
X4.700Y4.400
X4.700Y4.500
X4.700Y4.600
X4.700Y4.700
X4.700Y4.800
X4.700Y4.900
X4.700Y5.000
X4.700Y5.100
X4.700Y5.200
X4.700Y5.300
X4.700Y5.400
X4.700Y5.600
X4.800Y1.600
X4.800Y1.700
X4.800Y1.800
X4.800Y1.900
X4.800Y2.000
X4.800Y2.100
X4.800Y2.200
X4.800Y2.300
X4.800Y2.400
X4.800Y2.500
X4.800Y2.600
X4.800Y2.700
X4.800Y2.800
X4.800Y2.900
X4.800Y3.000
X4.800Y3.100
X4.800Y3.200
X4.800Y3.300
X4.800Y3.400
X4.800Y3.500
X4.800Y3.600
X4.800Y3.700
X4.800Y3.800
X4.800Y3.900
X4.800Y4.000
X4.800Y4.200
X4.800Y4.300
X4.800Y4.400
X4.800Y4.500
X4.800Y4.600
X4.800Y4.700
X4.800Y4.800
X4.800Y4.900
X4.800Y5.000
X4.800Y5.100
X4.800Y5.200
X4.800Y5.300
X4.800Y5.400
X4.800Y5.600
X4.900Y1.600
X4.900Y1.700
X4.900Y1.800
X4.900Y1.900
X4.900Y2.000
X4.900Y2.100
X4.900Y2.200
X4.900Y2.300
X4.900Y2.400
X4.900Y2.500
X4.900Y2.600
X4.900Y2.700
X4.900Y2.800
X4.900Y2.900
X4.900Y3.000
X4.900Y3.100
X4.900Y3.200
X4.900Y3.300
X4.900Y3.400
X4.900Y3.500
X4.900Y3.600
X4.900Y3.700
X4.900Y3.800
X4.900Y3.900
X4.900Y4.000
X4.900Y4.200
X4.900Y4.300
X4.900Y4.400
X4.900Y4.500
X4.900Y4.600
X4.900Y4.700
X4.900Y4.800
X4.900Y4.900
X4.900Y5.000
X4.900Y5.100
X4.900Y5.200
X4.900Y5.300
X4.900Y5.400
X4.900Y5.600
T3
X1.375Y6.000
X1.425Y5.900
X1.475Y6.000
X1.525Y5.900
X1.575Y6.000
X1.625Y5.900
X1.675Y6.000
X1.725Y5.900
X2.375Y6.000
X2.425Y5.900
X2.475Y6.000
X2.525Y5.900
X2.575Y6.000
X2.625Y5.900
X2.675Y6.000
X2.725Y5.900
X3.375Y6.000
X3.425Y5.900
X3.475Y6.000
X3.525Y5.900
X3.575Y6.000
X3.625Y5.900
X3.675Y6.000
X3.725Y5.900
X4.375Y6.000
X4.425Y5.900
X4.475Y6.000
X4.525Y5.900
X4.575Y6.000
X4.625Y5.900
X4.675Y6.000
X4.725Y5.900
T4
X0.980Y2.590
X0.980Y5.310
X5.120Y2.590
X5.120Y5.310
T5
X2.100Y2.100
X2.700Y4.100
X3.800Y4.100
T6
X1.316Y6.250
X1.784Y6.250
X2.316Y6.250
X2.784Y6.250
X3.316Y6.250
X3.784Y6.250
X4.316Y6.250
X4.784Y6.250
T0
M30
