G04 (Genere par PCBNEW (2007-11-29-a)) le 2/9/2008-18:57:24*
G01*
G70*
G90*
%MOIN*%
G04 Gerber Fmt 3.4, Leading zero omitted, Abs format*
%FSLAX34Y34*%
G04 APERTURE LIST*
%ADD10C,0.012000*%
%ADD11C,0.143700*%
%ADD12R,0.059100X0.059100*%
%ADD13C,0.059100*%
%ADD14R,0.055000X0.055000*%
%ADD15C,0.055000*%
%ADD16R,0.060000X0.060000*%
%ADD17C,0.060000*%
%ADD18C,0.045000*%
%ADD19C,0.017000*%
G04 APERTURE END LIST*
G54D10*
X54600Y-40508D02*
X54689Y-40508D01*
X54956Y-40508D02*
X55312Y-40508D01*
X55312Y-40508D02*
X55400Y-40433D01*
X55400Y-40433D02*
X55400Y-40358D01*
X55400Y-39947D02*
X54867Y-39947D01*
X54956Y-39947D02*
X54867Y-39872D01*
X54867Y-39872D02*
X54867Y-39572D01*
X54867Y-39572D02*
X54956Y-39497D01*
X54956Y-39497D02*
X55400Y-39497D01*
X55312Y-38711D02*
X55400Y-38786D01*
X55400Y-38786D02*
X55400Y-39011D01*
X55400Y-39011D02*
X55312Y-39086D01*
X55312Y-39086D02*
X54600Y-39086D01*
X54867Y-39086D02*
X54867Y-38861D01*
X55134Y-38375D02*
X55134Y-37850D01*
X55134Y-37850D02*
X54956Y-37850D01*
X54956Y-37850D02*
X54867Y-37925D01*
X54867Y-37925D02*
X54867Y-38300D01*
X54867Y-38300D02*
X54956Y-38375D01*
X54956Y-38375D02*
X55312Y-38375D01*
X55312Y-38375D02*
X55400Y-38300D01*
X55400Y-38300D02*
X55400Y-37925D01*
X55400Y-37925D02*
X55312Y-37850D01*
X55400Y-37589D02*
X54867Y-37589D01*
X55045Y-37589D02*
X54867Y-37439D01*
X54867Y-37439D02*
X54867Y-37214D01*
X54867Y-37214D02*
X55045Y-37064D01*
X55400Y-36728D02*
X54689Y-36728D01*
X54689Y-36728D02*
X54600Y-36653D01*
X54600Y-36653D02*
X54600Y-36353D01*
X54600Y-36353D02*
X54689Y-36278D01*
X54956Y-36803D02*
X54956Y-36578D01*
X54867Y-36017D02*
X54867Y-35567D01*
X54867Y-35567D02*
X54956Y-35492D01*
X54956Y-35492D02*
X55400Y-35492D01*
X55400Y-35492D02*
X55400Y-35942D01*
X55400Y-35942D02*
X55312Y-36017D01*
X55312Y-36017D02*
X55223Y-36017D01*
X55223Y-36017D02*
X55134Y-35942D01*
X55134Y-35942D02*
X55134Y-35492D01*
X55312Y-34706D02*
X55400Y-34781D01*
X55400Y-34781D02*
X55400Y-35156D01*
X55400Y-35156D02*
X55312Y-35231D01*
X55312Y-35231D02*
X54956Y-35231D01*
X54956Y-35231D02*
X54867Y-35156D01*
X54867Y-35156D02*
X54867Y-34781D01*
X54867Y-34781D02*
X54956Y-34706D01*
X55134Y-34445D02*
X55134Y-33920D01*
X55134Y-33920D02*
X54956Y-33920D01*
X54956Y-33920D02*
X54867Y-33995D01*
X54867Y-33995D02*
X54867Y-34370D01*
X54867Y-34370D02*
X54956Y-34445D01*
X54956Y-34445D02*
X55312Y-34445D01*
X55312Y-34445D02*
X55400Y-34370D01*
X55400Y-34370D02*
X55400Y-33995D01*
X55400Y-33995D02*
X55312Y-33920D01*
X54600Y-32873D02*
X55400Y-32873D01*
X55400Y-32873D02*
X55400Y-32348D01*
X55400Y-32348D02*
X55045Y-32348D01*
X55045Y-32348D02*
X54956Y-32423D01*
X54956Y-32423D02*
X54956Y-32873D01*
X55400Y-32012D02*
X55312Y-32087D01*
X55312Y-32087D02*
X54956Y-32087D01*
X54956Y-32087D02*
X54867Y-32012D01*
X54867Y-32012D02*
X54867Y-31637D01*
X54867Y-31637D02*
X54956Y-31562D01*
X54956Y-31562D02*
X55312Y-31562D01*
X55312Y-31562D02*
X55400Y-31637D01*
X55400Y-31637D02*
X55400Y-32012D01*
X54867Y-31301D02*
X54867Y-30851D01*
X54867Y-30851D02*
X54956Y-30776D01*
X54956Y-30776D02*
X55400Y-30776D01*
X55400Y-30776D02*
X55400Y-31226D01*
X55400Y-31226D02*
X55312Y-31301D01*
X55312Y-31301D02*
X55223Y-31301D01*
X55223Y-31301D02*
X55134Y-31226D01*
X55134Y-31226D02*
X55134Y-30776D01*
X55400Y-30515D02*
X54867Y-30515D01*
X55045Y-30515D02*
X54867Y-30365D01*
X54867Y-30365D02*
X54867Y-30140D01*
X54867Y-30140D02*
X55045Y-29990D01*
X54600Y-29204D02*
X55400Y-29204D01*
X55400Y-29204D02*
X55400Y-29654D01*
X55400Y-29654D02*
X55312Y-29729D01*
X55312Y-29729D02*
X54956Y-29729D01*
X54956Y-29729D02*
X54867Y-29654D01*
X54867Y-29654D02*
X54867Y-29204D01*
X56100Y-40340D02*
X56900Y-40340D01*
X56900Y-40340D02*
X56900Y-39740D01*
X56723Y-39554D02*
X56900Y-39479D01*
X56900Y-39479D02*
X56900Y-39329D01*
X56900Y-39329D02*
X56812Y-39254D01*
X56812Y-39254D02*
X56100Y-39254D01*
X56100Y-39404D02*
X56100Y-39104D01*
X56900Y-38693D02*
X56812Y-38768D01*
X56812Y-38768D02*
X56189Y-38768D01*
X56189Y-38768D02*
X56100Y-38693D01*
X56100Y-38693D02*
X56100Y-38318D01*
X56100Y-38318D02*
X56189Y-38243D01*
X56189Y-38243D02*
X56812Y-38243D01*
X56812Y-38243D02*
X56900Y-38318D01*
X56900Y-38318D02*
X56900Y-38693D01*
X56900Y-36671D02*
X56900Y-37196D01*
X56900Y-37196D02*
X56634Y-37196D01*
X56634Y-37196D02*
X56545Y-37121D01*
X56545Y-37121D02*
X56545Y-36746D01*
X56545Y-36746D02*
X56456Y-36671D01*
X56456Y-36671D02*
X56189Y-36671D01*
X56189Y-36671D02*
X56100Y-36746D01*
X56100Y-36746D02*
X56100Y-37121D01*
X56100Y-37121D02*
X56189Y-37196D01*
X56900Y-36410D02*
X56100Y-35885D01*
X56812Y-36410D02*
X56189Y-36410D01*
X56189Y-36410D02*
X56100Y-36335D01*
X56100Y-36335D02*
X56100Y-35960D01*
X56100Y-35960D02*
X56189Y-35885D01*
X56189Y-35885D02*
X56812Y-35885D01*
X56812Y-35885D02*
X56900Y-35960D01*
X56900Y-35960D02*
X56900Y-36335D01*
X56900Y-36335D02*
X56812Y-36410D01*
X56900Y-35624D02*
X56100Y-35099D01*
X56812Y-35624D02*
X56189Y-35624D01*
X56189Y-35624D02*
X56100Y-35549D01*
X56100Y-35549D02*
X56100Y-35174D01*
X56100Y-35174D02*
X56189Y-35099D01*
X56189Y-35099D02*
X56812Y-35099D01*
X56812Y-35099D02*
X56900Y-35174D01*
X56900Y-35174D02*
X56900Y-35549D01*
X56900Y-35549D02*
X56812Y-35624D01*
X56900Y-34763D02*
X56812Y-34838D01*
X56812Y-34838D02*
X56545Y-34838D01*
X56545Y-34838D02*
X56456Y-34763D01*
X56456Y-34763D02*
X56456Y-34388D01*
X56456Y-34388D02*
X56367Y-34313D01*
X56367Y-34313D02*
X56189Y-34313D01*
X56189Y-34313D02*
X56100Y-34388D01*
X56100Y-34388D02*
X56100Y-34763D01*
X56100Y-34763D02*
X56189Y-34838D01*
X56189Y-34838D02*
X56367Y-34838D01*
X56367Y-34838D02*
X56456Y-34763D01*
X56456Y-34388D02*
X56545Y-34313D01*
X56545Y-34313D02*
X56812Y-34313D01*
X56812Y-34313D02*
X56900Y-34388D01*
X56900Y-34388D02*
X56900Y-34763D01*
X56900Y-33827D02*
X56812Y-33827D01*
X56900Y-33266D02*
X56100Y-32741D01*
X56812Y-33266D02*
X56189Y-33266D01*
X56189Y-33266D02*
X56100Y-33191D01*
X56100Y-33191D02*
X56100Y-32816D01*
X56100Y-32816D02*
X56189Y-32741D01*
X56189Y-32741D02*
X56812Y-32741D01*
X56812Y-32741D02*
X56900Y-32816D01*
X56900Y-32816D02*
X56900Y-33191D01*
X56900Y-33191D02*
X56812Y-33266D01*
X56900Y-32405D02*
X56900Y-32030D01*
X56900Y-32030D02*
X56812Y-31955D01*
X56812Y-31955D02*
X56189Y-31955D01*
X56189Y-31955D02*
X56100Y-32030D01*
X56100Y-32030D02*
X56100Y-32405D01*
X56100Y-32405D02*
X56189Y-32480D01*
X56189Y-32480D02*
X56456Y-32480D01*
X56456Y-32480D02*
X56545Y-32405D01*
X56545Y-32405D02*
X56545Y-32030D01*
X56545Y-32030D02*
X56456Y-31955D01*
X56900Y-31469D02*
X56812Y-31469D01*
X56900Y-30908D02*
X56100Y-30383D01*
X56812Y-30908D02*
X56189Y-30908D01*
X56189Y-30908D02*
X56100Y-30833D01*
X56100Y-30833D02*
X56100Y-30458D01*
X56100Y-30458D02*
X56189Y-30383D01*
X56189Y-30383D02*
X56812Y-30383D01*
X56812Y-30383D02*
X56900Y-30458D01*
X56900Y-30458D02*
X56900Y-30833D01*
X56900Y-30833D02*
X56812Y-30908D01*
X56900Y-29597D02*
X56900Y-30122D01*
X56900Y-30122D02*
X56634Y-30122D01*
X56634Y-30122D02*
X56545Y-30047D01*
X56545Y-30047D02*
X56545Y-29672D01*
X56545Y-29672D02*
X56456Y-29597D01*
X56456Y-29597D02*
X56189Y-29597D01*
X56189Y-29597D02*
X56100Y-29672D01*
X56100Y-29672D02*
X56100Y-30047D01*
X56100Y-30047D02*
X56189Y-30122D01*
X53900Y-40586D02*
X53812Y-40661D01*
X53812Y-40661D02*
X53189Y-40661D01*
X53189Y-40661D02*
X53100Y-40586D01*
X53100Y-40586D02*
X53100Y-40211D01*
X53100Y-40211D02*
X53189Y-40136D01*
X53189Y-40136D02*
X53812Y-40136D01*
X53812Y-40136D02*
X53900Y-40211D01*
X53900Y-40211D02*
X53900Y-40586D01*
X54166Y-39875D02*
X53367Y-39875D01*
X53456Y-39875D02*
X53367Y-39800D01*
X53367Y-39800D02*
X53367Y-39425D01*
X53367Y-39425D02*
X53456Y-39350D01*
X53456Y-39350D02*
X53812Y-39350D01*
X53812Y-39350D02*
X53900Y-39425D01*
X53900Y-39425D02*
X53900Y-39800D01*
X53900Y-39800D02*
X53812Y-39875D01*
X53634Y-39089D02*
X53634Y-38564D01*
X53634Y-38564D02*
X53456Y-38564D01*
X53456Y-38564D02*
X53367Y-38639D01*
X53367Y-38639D02*
X53367Y-39014D01*
X53367Y-39014D02*
X53456Y-39089D01*
X53456Y-39089D02*
X53812Y-39089D01*
X53812Y-39089D02*
X53900Y-39014D01*
X53900Y-39014D02*
X53900Y-38639D01*
X53900Y-38639D02*
X53812Y-38564D01*
X53900Y-38303D02*
X53367Y-38303D01*
X53456Y-38303D02*
X53367Y-38228D01*
X53367Y-38228D02*
X53367Y-37928D01*
X53367Y-37928D02*
X53456Y-37853D01*
X53456Y-37853D02*
X53900Y-37853D01*
X53812Y-37517D02*
X53900Y-37442D01*
X53900Y-37442D02*
X53900Y-37067D01*
X53900Y-37067D02*
X53812Y-36992D01*
X53812Y-36992D02*
X53545Y-36992D01*
X53545Y-36992D02*
X53456Y-37067D01*
X53456Y-37067D02*
X53456Y-37442D01*
X53456Y-37442D02*
X53367Y-37517D01*
X53367Y-37517D02*
X53189Y-37517D01*
X53189Y-37517D02*
X53100Y-37442D01*
X53100Y-37442D02*
X53100Y-37067D01*
X53100Y-37067D02*
X53189Y-36992D01*
X54166Y-36731D02*
X53367Y-36731D01*
X53456Y-36731D02*
X53367Y-36656D01*
X53367Y-36656D02*
X53367Y-36281D01*
X53367Y-36281D02*
X53456Y-36206D01*
X53456Y-36206D02*
X53812Y-36206D01*
X53812Y-36206D02*
X53900Y-36281D01*
X53900Y-36281D02*
X53900Y-36656D01*
X53900Y-36656D02*
X53812Y-36731D01*
X53900Y-35945D02*
X53367Y-35945D01*
X53545Y-35945D02*
X53367Y-35795D01*
X53367Y-35795D02*
X53367Y-35570D01*
X53367Y-35570D02*
X53545Y-35420D01*
X53100Y-34934D02*
X53189Y-34934D01*
X53456Y-34934D02*
X53812Y-34934D01*
X53812Y-34934D02*
X53900Y-34859D01*
X53900Y-34859D02*
X53900Y-34784D01*
X53900Y-34373D02*
X53367Y-34373D01*
X53456Y-34373D02*
X53367Y-34298D01*
X53367Y-34298D02*
X53367Y-33998D01*
X53367Y-33998D02*
X53456Y-33923D01*
X53456Y-33923D02*
X53900Y-33923D01*
X53812Y-33137D02*
X53900Y-33212D01*
X53900Y-33212D02*
X53900Y-33437D01*
X53900Y-33437D02*
X53812Y-33512D01*
X53812Y-33512D02*
X53100Y-33512D01*
X53367Y-33512D02*
X53367Y-33287D01*
X53812Y-32801D02*
X53900Y-32726D01*
X53900Y-32726D02*
X53900Y-32351D01*
X53900Y-32351D02*
X53812Y-32276D01*
X53812Y-32276D02*
X53723Y-32276D01*
X53723Y-32276D02*
X53634Y-32351D01*
X53634Y-32351D02*
X53634Y-32726D01*
X53634Y-32726D02*
X53545Y-32801D01*
X53545Y-32801D02*
X53456Y-32801D01*
X53456Y-32801D02*
X53367Y-32726D01*
X53367Y-32726D02*
X53367Y-32351D01*
X53367Y-32351D02*
X53456Y-32276D01*
G54D11*
X52838Y-57000D03*
X48165Y-57000D03*
G54D12*
X48750Y-54500D03*
G54D13*
X49250Y-53500D03*
X49750Y-54500D03*
X50250Y-53500D03*
X50750Y-54500D03*
X51250Y-53500D03*
X51750Y-54500D03*
X52250Y-53500D03*
G54D11*
X43838Y-57000D03*
X39165Y-57000D03*
G54D12*
X39750Y-54500D03*
G54D13*
X40250Y-53500D03*
X40750Y-54500D03*
X41250Y-53500D03*
X41750Y-54500D03*
X42250Y-53500D03*
X42750Y-54500D03*
X43250Y-53500D03*
G54D11*
X34838Y-57000D03*
X30165Y-57000D03*
G54D12*
X30750Y-54500D03*
G54D13*
X31250Y-53500D03*
X31750Y-54500D03*
X32250Y-53500D03*
X32750Y-54500D03*
X33250Y-53500D03*
X33750Y-54500D03*
X34250Y-53500D03*
G54D11*
X25838Y-57000D03*
X21165Y-57000D03*
G54D12*
X21750Y-54500D03*
G54D13*
X22250Y-53500D03*
X22750Y-54500D03*
X23250Y-53500D03*
X23750Y-54500D03*
X24250Y-53500D03*
X24750Y-54500D03*
X25250Y-53500D03*
G54D14*
X32000Y-17500D03*
G54D15*
X32000Y-18500D03*
X32000Y-19500D03*
X32000Y-20500D03*
X32000Y-21500D03*
X32000Y-22500D03*
X32000Y-23500D03*
X32000Y-24500D03*
X32000Y-25500D03*
X32000Y-26500D03*
X32000Y-27500D03*
X32000Y-28500D03*
G54D14*
X31000Y-17500D03*
G54D15*
X31000Y-18500D03*
X31000Y-19500D03*
X31000Y-20500D03*
X31000Y-21500D03*
X31000Y-22500D03*
X31000Y-23500D03*
X31000Y-24500D03*
X31000Y-25500D03*
X31000Y-26500D03*
X31000Y-27500D03*
X31000Y-28500D03*
G54D14*
X47500Y-29000D03*
G54D15*
X47500Y-30000D03*
X47500Y-31000D03*
X47500Y-32000D03*
X47500Y-33000D03*
X47500Y-34000D03*
G54D14*
X47500Y-36000D03*
G54D15*
X47500Y-37000D03*
X47500Y-38000D03*
X47500Y-39000D03*
X47500Y-40000D03*
X47500Y-41000D03*
G54D14*
X46500Y-29000D03*
G54D15*
X46500Y-30000D03*
X46500Y-31000D03*
X46500Y-32000D03*
X46500Y-33000D03*
X46500Y-34000D03*
G54D14*
X46500Y-36000D03*
G54D15*
X46500Y-37000D03*
X46500Y-38000D03*
X46500Y-39000D03*
X46500Y-40000D03*
X46500Y-41000D03*
G54D14*
X41000Y-20500D03*
G54D15*
X41000Y-21500D03*
X41000Y-22500D03*
X41000Y-23500D03*
X41000Y-24500D03*
X41000Y-25500D03*
X41000Y-26500D03*
G54D14*
X42000Y-20500D03*
G54D15*
X42000Y-21500D03*
X42000Y-22500D03*
X42000Y-23500D03*
X42000Y-24500D03*
X42000Y-25500D03*
X42000Y-26500D03*
G54D14*
X32000Y-29500D03*
G54D15*
X32000Y-30500D03*
X32000Y-31500D03*
X32000Y-32500D03*
X32000Y-33500D03*
X32000Y-34500D03*
X32000Y-35500D03*
G54D14*
X31000Y-29500D03*
G54D15*
X31000Y-30500D03*
X31000Y-31500D03*
X31000Y-32500D03*
X31000Y-33500D03*
X31000Y-34500D03*
X31000Y-35500D03*
G54D14*
X27500Y-25500D03*
G54D15*
X27500Y-26500D03*
X27500Y-27500D03*
X27500Y-28500D03*
X27500Y-29500D03*
X27500Y-30500D03*
X27500Y-31500D03*
X27500Y-32500D03*
G54D14*
X27500Y-34000D03*
G54D15*
X27500Y-35000D03*
X27500Y-36000D03*
X27500Y-37000D03*
X27500Y-38000D03*
X27500Y-39000D03*
X27500Y-40000D03*
X27500Y-41000D03*
G54D14*
X26500Y-25500D03*
G54D15*
X26500Y-26500D03*
X26500Y-27500D03*
X26500Y-28500D03*
X26500Y-29500D03*
X26500Y-30500D03*
X26500Y-31500D03*
X26500Y-32500D03*
G54D14*
X26500Y-34000D03*
G54D15*
X26500Y-35000D03*
X26500Y-36000D03*
X26500Y-37000D03*
X26500Y-38000D03*
X26500Y-39000D03*
X26500Y-40000D03*
X26500Y-41000D03*
G54D14*
X47000Y-50000D03*
G54D15*
X48000Y-50000D03*
X49000Y-50000D03*
X50000Y-50000D03*
X51000Y-50000D03*
X52000Y-50000D03*
X53000Y-50000D03*
X54000Y-50000D03*
G54D14*
X38000Y-50000D03*
G54D15*
X39000Y-50000D03*
X40000Y-50000D03*
X41000Y-50000D03*
X42000Y-50000D03*
X43000Y-50000D03*
X44000Y-50000D03*
X45000Y-50000D03*
G54D14*
X29000Y-50000D03*
G54D15*
X30000Y-50000D03*
X31000Y-50000D03*
X32000Y-50000D03*
X33000Y-50000D03*
X34000Y-50000D03*
X35000Y-50000D03*
X36000Y-50000D03*
G54D14*
X20000Y-50000D03*
G54D15*
X21000Y-50000D03*
X22000Y-50000D03*
X23000Y-50000D03*
X24000Y-50000D03*
X25000Y-50000D03*
X26000Y-50000D03*
X27000Y-50000D03*
G54D16*
X31000Y-38000D03*
G54D17*
X32000Y-38000D03*
X31000Y-39000D03*
X32000Y-39000D03*
X31000Y-40000D03*
X32000Y-40000D03*
X31000Y-41000D03*
X32000Y-41000D03*
X31000Y-42000D03*
X32000Y-42000D03*
X31000Y-43000D03*
X32000Y-43000D03*
X31000Y-44000D03*
X32000Y-44000D03*
X31000Y-45000D03*
X32000Y-45000D03*
G54D16*
X33000Y-38000D03*
G54D17*
X34000Y-38000D03*
X33000Y-39000D03*
X34000Y-39000D03*
X33000Y-40000D03*
X34000Y-40000D03*
X33000Y-41000D03*
X34000Y-41000D03*
X33000Y-42000D03*
X34000Y-42000D03*
X33000Y-43000D03*
X34000Y-43000D03*
X33000Y-44000D03*
X34000Y-44000D03*
X33000Y-45000D03*
X34000Y-45000D03*
G54D16*
X35000Y-38000D03*
G54D17*
X36000Y-38000D03*
X35000Y-39000D03*
X36000Y-39000D03*
X35000Y-40000D03*
X36000Y-40000D03*
X35000Y-41000D03*
X36000Y-41000D03*
X35000Y-42000D03*
X36000Y-42000D03*
X35000Y-43000D03*
X36000Y-43000D03*
X35000Y-44000D03*
X36000Y-44000D03*
X35000Y-45000D03*
X36000Y-45000D03*
G54D16*
X37000Y-38000D03*
G54D17*
X38000Y-38000D03*
X37000Y-39000D03*
X38000Y-39000D03*
X37000Y-40000D03*
X38000Y-40000D03*
X37000Y-41000D03*
X38000Y-41000D03*
X37000Y-42000D03*
X38000Y-42000D03*
X37000Y-43000D03*
X38000Y-43000D03*
X37000Y-44000D03*
X38000Y-44000D03*
X37000Y-45000D03*
X38000Y-45000D03*
G54D16*
X39000Y-38000D03*
G54D17*
X40000Y-38000D03*
X39000Y-39000D03*
X40000Y-39000D03*
X39000Y-40000D03*
X40000Y-40000D03*
X39000Y-41000D03*
X40000Y-41000D03*
X39000Y-42000D03*
X40000Y-42000D03*
X39000Y-43000D03*
X40000Y-43000D03*
X39000Y-44000D03*
X40000Y-44000D03*
X39000Y-45000D03*
X40000Y-45000D03*
G54D16*
X41000Y-38000D03*
G54D17*
X42000Y-38000D03*
X41000Y-39000D03*
X42000Y-39000D03*
X41000Y-40000D03*
X42000Y-40000D03*
X41000Y-41000D03*
X42000Y-41000D03*
X41000Y-42000D03*
X42000Y-42000D03*
X41000Y-43000D03*
X42000Y-43000D03*
X41000Y-44000D03*
X42000Y-44000D03*
X41000Y-45000D03*
X42000Y-45000D03*
G54D16*
X43000Y-38000D03*
G54D17*
X44000Y-38000D03*
X43000Y-39000D03*
X44000Y-39000D03*
X43000Y-40000D03*
X44000Y-40000D03*
X43000Y-41000D03*
X44000Y-41000D03*
X43000Y-42000D03*
X44000Y-42000D03*
X43000Y-43000D03*
X44000Y-43000D03*
X43000Y-44000D03*
X44000Y-44000D03*
X43000Y-45000D03*
X44000Y-45000D03*
G54D18*
X30000Y-49000D03*
G54D19*
X48750Y-54500D02*
X48750Y-51750D01*
X48750Y-51750D02*
X47000Y-50000D01*
X39750Y-54500D02*
X39750Y-51750D01*
X39750Y-51750D02*
X38000Y-50000D01*
X30750Y-54500D02*
X30750Y-51750D01*
X30750Y-51750D02*
X29000Y-50000D01*
X21750Y-51750D02*
X20000Y-50000D01*
X31000Y-20500D02*
X32000Y-20500D01*
X46500Y-31000D02*
X47500Y-31000D01*
X21750Y-54500D02*
X21750Y-51750D01*
X21750Y-51750D02*
X20000Y-50000D01*
X20000Y-50000D02*
X20000Y-48500D01*
X29000Y-48500D02*
X29000Y-49500D01*
X29000Y-49500D02*
X29000Y-50000D01*
X28500Y-48000D02*
X29000Y-48500D01*
X20500Y-48000D02*
X28500Y-48000D01*
X20000Y-48500D02*
X20500Y-48000D01*
X29000Y-48500D02*
X29500Y-48000D01*
X38000Y-48500D02*
X38000Y-50000D01*
X37500Y-48000D02*
X38000Y-48500D01*
X29500Y-48000D02*
X37500Y-48000D01*
X38000Y-48500D02*
X38500Y-48000D01*
X47000Y-48500D02*
X47000Y-50000D01*
X46500Y-48000D02*
X47000Y-48500D01*
X38500Y-48000D02*
X46500Y-48000D01*
X29000Y-45500D02*
X29000Y-21500D01*
X29000Y-48500D02*
X29000Y-45500D01*
X29000Y-21500D02*
X29000Y-21000D01*
X29000Y-21000D02*
X29500Y-20500D01*
X29500Y-20500D02*
X31000Y-20500D01*
X47000Y-48500D02*
X47500Y-48000D01*
X48000Y-31000D02*
X47500Y-31000D01*
X48500Y-31500D02*
X48000Y-31000D01*
X48500Y-47500D02*
X48500Y-31500D01*
X48000Y-48000D02*
X48500Y-47500D01*
X47500Y-48000D02*
X48000Y-48000D01*
X49250Y-53500D02*
X49250Y-51250D01*
X49250Y-51250D02*
X48000Y-50000D01*
X40250Y-53500D02*
X40250Y-51250D01*
X40250Y-51250D02*
X39000Y-50000D01*
X31250Y-53500D02*
X31250Y-51250D01*
X31250Y-51250D02*
X30000Y-50000D01*
X22250Y-53500D02*
X22250Y-51250D01*
X22250Y-51250D02*
X21000Y-50000D01*
X32000Y-19500D02*
X31000Y-19500D01*
X46500Y-32000D02*
X47500Y-32000D01*
X46500Y-33000D02*
X47500Y-33000D01*
X30000Y-50000D02*
X30000Y-49000D01*
X49750Y-54500D02*
X49750Y-50750D01*
X49750Y-50750D02*
X49000Y-50000D01*
X50250Y-53500D02*
X50250Y-50250D01*
X50250Y-50250D02*
X50000Y-50000D01*
X50750Y-54500D02*
X50750Y-50250D01*
X50750Y-50250D02*
X51000Y-50000D01*
X51250Y-53500D02*
X51250Y-50750D01*
X51250Y-50750D02*
X52000Y-50000D01*
X51750Y-54500D02*
X51750Y-51250D01*
X51750Y-51250D02*
X53000Y-50000D01*
X52250Y-53500D02*
X52250Y-51750D01*
X52250Y-51750D02*
X54000Y-50000D01*
X40750Y-54500D02*
X40750Y-50750D01*
X40750Y-50750D02*
X40000Y-50000D01*
X41250Y-53500D02*
X41250Y-50250D01*
X41250Y-50250D02*
X41000Y-50000D01*
X41750Y-54500D02*
X41750Y-50250D01*
X41750Y-50250D02*
X42000Y-50000D01*
X42250Y-53500D02*
X42250Y-50750D01*
X42250Y-50750D02*
X43000Y-50000D01*
X42750Y-54500D02*
X42750Y-51250D01*
X42750Y-51250D02*
X44000Y-50000D01*
X43250Y-53500D02*
X43250Y-51750D01*
X43250Y-51750D02*
X45000Y-50000D01*
X31750Y-54500D02*
X31750Y-50750D01*
X31750Y-50750D02*
X31000Y-50000D01*
X32250Y-53500D02*
X32250Y-50250D01*
X32250Y-50250D02*
X32000Y-50000D01*
X32750Y-54500D02*
X32750Y-50250D01*
X32750Y-50250D02*
X33000Y-50000D01*
X33250Y-53500D02*
X33250Y-50750D01*
X33250Y-50750D02*
X34000Y-50000D01*
X33750Y-54500D02*
X33750Y-51250D01*
X33750Y-51250D02*
X35000Y-50000D01*
X34250Y-53500D02*
X34250Y-51750D01*
X34250Y-51750D02*
X36000Y-50000D01*
X22750Y-54500D02*
X22750Y-50750D01*
X22750Y-50750D02*
X22000Y-50000D01*
X23250Y-53500D02*
X23250Y-50250D01*
X23250Y-50250D02*
X23000Y-50000D01*
X23750Y-54500D02*
X23750Y-50250D01*
X23750Y-50250D02*
X24000Y-50000D01*
X24250Y-53500D02*
X24250Y-50750D01*
X24250Y-50750D02*
X25000Y-50000D01*
X24750Y-54500D02*
X24750Y-51250D01*
X24750Y-51250D02*
X26000Y-50000D01*
X25250Y-53500D02*
X25250Y-51750D01*
X25250Y-51750D02*
X27000Y-50000D01*
X31000Y-17500D02*
X32000Y-17500D01*
X31000Y-18500D02*
X32000Y-18500D01*
X31000Y-21500D02*
X32000Y-21500D01*
X31000Y-22500D02*
X32000Y-22500D01*
X31000Y-23500D02*
X32000Y-23500D01*
X31000Y-24500D02*
X32000Y-24500D01*
X31000Y-25500D02*
X32000Y-25500D01*
X31000Y-26500D02*
X32000Y-26500D01*
X31000Y-27500D02*
X32000Y-27500D01*
X31000Y-28500D02*
X32000Y-28500D01*
X46500Y-29000D02*
X47500Y-29000D01*
X46500Y-30000D02*
X47500Y-30000D01*
X46500Y-34000D02*
X47500Y-34000D01*
X46500Y-36000D02*
X47500Y-36000D01*
X46500Y-37000D02*
X47500Y-37000D01*
X46500Y-38000D02*
X47500Y-38000D01*
X46500Y-39000D02*
X47500Y-39000D01*
X46500Y-40000D02*
X47500Y-40000D01*
X46500Y-41000D02*
X47500Y-41000D01*
X31000Y-29500D02*
X32000Y-29500D01*
X41000Y-20500D02*
X42000Y-20500D01*
X32000Y-29500D02*
X32500Y-29500D01*
X33500Y-20500D02*
X41000Y-20500D01*
X33000Y-21000D02*
X33500Y-20500D01*
X33000Y-29000D02*
X33000Y-21000D01*
X32500Y-29500D02*
X33000Y-29000D01*
X31000Y-30500D02*
X32000Y-30500D01*
X41000Y-21500D02*
X42000Y-21500D01*
X32000Y-30500D02*
X33000Y-30500D01*
X34000Y-21500D02*
X41000Y-21500D01*
X33500Y-22000D02*
X34000Y-21500D01*
X33500Y-30000D02*
X33500Y-22000D01*
X33000Y-30500D02*
X33500Y-30000D01*
X31000Y-31500D02*
X32000Y-31500D01*
X41000Y-22500D02*
X42000Y-22500D01*
X32000Y-31500D02*
X33500Y-31500D01*
X34500Y-22500D02*
X41000Y-22500D01*
X34000Y-23000D02*
X34500Y-22500D01*
X34000Y-31000D02*
X34000Y-23000D01*
X33500Y-31500D02*
X34000Y-31000D01*
X31000Y-32500D02*
X32000Y-32500D01*
X41000Y-23500D02*
X42000Y-23500D01*
X32000Y-32500D02*
X34000Y-32500D01*
X35000Y-23500D02*
X41000Y-23500D01*
X34500Y-24000D02*
X35000Y-23500D01*
X34500Y-32000D02*
X34500Y-24000D01*
X34000Y-32500D02*
X34500Y-32000D01*
X31000Y-33500D02*
X32000Y-33500D01*
X41000Y-24500D02*
X42000Y-24500D01*
X32000Y-33500D02*
X34500Y-33500D01*
X35500Y-24500D02*
X41000Y-24500D01*
X35000Y-25000D02*
X35500Y-24500D01*
X35000Y-33000D02*
X35000Y-25000D01*
X34500Y-33500D02*
X35000Y-33000D01*
X31000Y-34500D02*
X32000Y-34500D01*
X41000Y-25500D02*
X42000Y-25500D01*
X32000Y-34500D02*
X35000Y-34500D01*
X36000Y-25500D02*
X41000Y-25500D01*
X35500Y-26000D02*
X36000Y-25500D01*
X35500Y-34000D02*
X35500Y-26000D01*
X35000Y-34500D02*
X35500Y-34000D01*
X31000Y-35500D02*
X32000Y-35500D01*
X41000Y-26500D02*
X42000Y-26500D01*
X32000Y-35500D02*
X35500Y-35500D01*
X36500Y-26500D02*
X41000Y-26500D01*
X36000Y-27000D02*
X36500Y-26500D01*
X36000Y-27500D02*
X36000Y-27000D01*
X36000Y-35000D02*
X36000Y-27500D01*
X35500Y-35500D02*
X36000Y-35000D01*
X26500Y-25500D02*
X27500Y-25500D01*
X26500Y-26500D02*
X27500Y-26500D01*
X26500Y-27500D02*
X27500Y-27500D01*
X27500Y-28500D02*
X26500Y-28500D01*
X26500Y-29500D02*
X27500Y-29500D01*
X27500Y-30500D02*
X26500Y-30500D01*
X26500Y-31500D02*
X27500Y-31500D01*
X27500Y-32500D02*
X26500Y-32500D01*
X26500Y-34000D02*
X27500Y-34000D01*
X27500Y-35000D02*
X26500Y-35000D01*
X26500Y-36000D02*
X27500Y-36000D01*
X27500Y-37000D02*
X26500Y-37000D01*
X26500Y-38000D02*
X27500Y-38000D01*
X27500Y-39000D02*
X26500Y-39000D01*
X26500Y-40000D02*
X27500Y-40000D01*
X27500Y-41000D02*
X26500Y-41000D01*
M02*
