M48
;DRILL file {PCBnew (20090216-final)} date Tue 26 May 2009 01:14:14 PM CDT
;FORMAT={-.-/ absolute / inch / decimal}
R,T
VER,1
FMAT,2
INCH,TZ
TCST,OFF
ICI,OFF
ATC,ON
T1C0.025
T2C0.035
T3C0.035
T4C0.125
T5C0.126
T6C0.128
%
M47
G05
M72
T1
X1.425Y-5.725
X2.000Y-2.500
X2.425Y-5.725
X3.425Y-5.725
X4.100Y-3.100
X4.425Y-5.725
X5.000Y-5.725
T2
X1.200Y-1.600
X1.200Y-1.700
X1.200Y-1.800
X1.200Y-1.900
X1.200Y-2.000
X1.200Y-2.100
X1.200Y-2.200
X1.200Y-2.300
X1.200Y-2.400
X1.200Y-2.500
X1.200Y-2.600
X1.200Y-2.700
X1.200Y-2.800
X1.200Y-2.900
X1.200Y-3.000
X1.200Y-3.100
X1.200Y-3.300
X1.200Y-3.400
X1.200Y-3.500
X1.200Y-3.600
X1.200Y-3.700
X1.200Y-3.800
X1.200Y-3.900
X1.200Y-4.000
X1.200Y-4.300
X1.200Y-4.400
X1.200Y-4.500
X1.200Y-4.600
X1.200Y-4.700
X1.200Y-4.800
X1.200Y-4.900
X1.200Y-5.000
X1.200Y-5.100
X1.200Y-5.200
X1.200Y-5.300
X1.200Y-5.400
X1.200Y-5.600
X1.300Y-1.600
X1.300Y-1.700
X1.300Y-1.800
X1.300Y-1.900
X1.300Y-2.000
X1.300Y-2.100
X1.300Y-2.200
X1.300Y-2.300
X1.300Y-2.400
X1.300Y-2.500
X1.300Y-2.600
X1.300Y-2.700
X1.300Y-2.800
X1.300Y-2.900
X1.300Y-3.000
X1.300Y-3.100
X1.300Y-3.300
X1.300Y-3.400
X1.300Y-3.500
X1.300Y-3.600
X1.300Y-3.700
X1.300Y-3.800
X1.300Y-3.900
X1.300Y-4.000
X1.300Y-4.300
X1.300Y-4.400
X1.300Y-4.500
X1.300Y-4.600
X1.300Y-4.700
X1.300Y-4.800
X1.300Y-4.900
X1.300Y-5.000
X1.300Y-5.100
X1.300Y-5.200
X1.300Y-5.300
X1.300Y-5.400
X1.300Y-5.600
X1.400Y-1.600
X1.400Y-1.700
X1.400Y-1.800
X1.400Y-1.900
X1.400Y-2.000
X1.400Y-2.100
X1.400Y-2.200
X1.400Y-2.300
X1.400Y-2.400
X1.400Y-2.500
X1.400Y-2.600
X1.400Y-2.700
X1.400Y-2.800
X1.400Y-2.900
X1.400Y-3.000
X1.400Y-3.100
X1.400Y-3.300
X1.400Y-3.400
X1.400Y-3.500
X1.400Y-3.600
X1.400Y-3.700
X1.400Y-3.800
X1.400Y-3.900
X1.400Y-4.000
X1.400Y-4.300
X1.400Y-4.400
X1.400Y-4.500
X1.400Y-4.600
X1.400Y-4.700
X1.400Y-4.800
X1.400Y-4.900
X1.400Y-5.000
X1.400Y-5.100
X1.400Y-5.200
X1.400Y-5.300
X1.400Y-5.400
X1.400Y-5.600
X1.500Y-1.600
X1.500Y-1.700
X1.500Y-1.800
X1.500Y-1.900
X1.500Y-2.000
X1.500Y-2.100
X1.500Y-2.200
X1.500Y-2.300
X1.500Y-2.400
X1.500Y-2.500
X1.500Y-2.600
X1.500Y-2.700
X1.500Y-2.800
X1.500Y-2.900
X1.500Y-3.000
X1.500Y-3.100
X1.500Y-3.300
X1.500Y-3.400
X1.500Y-3.500
X1.500Y-3.600
X1.500Y-3.700
X1.500Y-3.800
X1.500Y-3.900
X1.500Y-4.000
X1.500Y-4.300
X1.500Y-4.400
X1.500Y-4.500
X1.500Y-4.600
X1.500Y-4.700
X1.500Y-4.800
X1.500Y-4.900
X1.500Y-5.000
X1.500Y-5.100
X1.500Y-5.200
X1.500Y-5.300
X1.500Y-5.400
X1.500Y-5.600
X1.600Y-1.600
X1.600Y-1.700
X1.600Y-1.800
X1.600Y-1.900
X1.600Y-2.000
X1.600Y-2.100
X1.600Y-2.200
X1.600Y-2.300
X1.600Y-2.400
X1.600Y-2.500
X1.600Y-2.600
X1.600Y-2.700
X1.600Y-2.800
X1.600Y-2.900
X1.600Y-3.000
X1.600Y-3.100
X1.600Y-3.300
X1.600Y-3.400
X1.600Y-3.500
X1.600Y-3.600
X1.600Y-3.700
X1.600Y-3.800
X1.600Y-3.900
X1.600Y-4.000
X1.600Y-4.300
X1.600Y-4.400
X1.600Y-4.500
X1.600Y-4.600
X1.600Y-4.700
X1.600Y-4.800
X1.600Y-4.900
X1.600Y-5.000
X1.600Y-5.100
X1.600Y-5.200
X1.600Y-5.300
X1.600Y-5.400
X1.600Y-5.600
X1.700Y-1.600
X1.700Y-1.700
X1.700Y-1.800
X1.700Y-1.900
X1.700Y-2.000
X1.700Y-2.100
X1.700Y-2.200
X1.700Y-2.300
X1.700Y-2.400
X1.700Y-2.500
X1.700Y-2.600
X1.700Y-2.700
X1.700Y-2.800
X1.700Y-2.900
X1.700Y-3.000
X1.700Y-3.100
X1.700Y-3.300
X1.700Y-3.400
X1.700Y-3.500
X1.700Y-3.600
X1.700Y-3.700
X1.700Y-3.800
X1.700Y-3.900
X1.700Y-4.000
X1.700Y-4.300
X1.700Y-4.400
X1.700Y-4.500
X1.700Y-4.600
X1.700Y-4.700
X1.700Y-4.800
X1.700Y-4.900
X1.700Y-5.000
X1.700Y-5.100
X1.700Y-5.200
X1.700Y-5.300
X1.700Y-5.400
X1.700Y-5.600
X1.800Y-1.600
X1.800Y-1.700
X1.800Y-1.800
X1.800Y-1.900
X1.800Y-2.000
X1.800Y-2.100
X1.800Y-2.200
X1.800Y-2.300
X1.800Y-2.400
X1.800Y-2.500
X1.800Y-2.600
X1.800Y-2.700
X1.800Y-2.800
X1.800Y-2.900
X1.800Y-3.000
X1.800Y-3.100
X1.800Y-3.300
X1.800Y-3.400
X1.800Y-3.500
X1.800Y-3.600
X1.800Y-3.700
X1.800Y-3.800
X1.800Y-3.900
X1.800Y-4.000
X1.800Y-4.300
X1.800Y-4.400
X1.800Y-4.500
X1.800Y-4.600
X1.800Y-4.700
X1.800Y-4.800
X1.800Y-4.900
X1.800Y-5.000
X1.800Y-5.100
X1.800Y-5.200
X1.800Y-5.300
X1.800Y-5.400
X1.800Y-5.600
X1.900Y-2.400
X1.900Y-2.500
X1.900Y-2.600
X1.900Y-2.700
X1.900Y-2.800
X1.900Y-2.900
X1.900Y-3.000
X1.900Y-3.100
X1.900Y-3.300
X1.900Y-3.400
X1.900Y-3.500
X1.900Y-3.600
X1.900Y-3.700
X1.900Y-3.800
X1.900Y-3.900
X1.900Y-4.000
X1.900Y-4.300
X1.900Y-4.400
X1.900Y-4.500
X1.900Y-4.600
X1.900Y-4.700
X1.900Y-4.800
X1.900Y-4.900
X1.900Y-5.000
X1.900Y-5.100
X1.900Y-5.200
X1.900Y-5.300
X1.900Y-5.400
X1.900Y-5.600
X2.000Y-4.300
X2.000Y-4.400
X2.000Y-4.500
X2.000Y-4.600
X2.000Y-4.700
X2.000Y-4.800
X2.000Y-4.900
X2.000Y-5.000
X2.000Y-5.100
X2.000Y-5.200
X2.000Y-5.300
X2.000Y-5.400
X2.100Y-2.440
X2.100Y-2.540
X2.100Y-2.640
X2.100Y-2.740
X2.100Y-2.840
X2.100Y-2.940
X2.100Y-3.040
X2.100Y-3.140
X2.100Y-3.300
X2.100Y-3.400
X2.100Y-3.500
X2.100Y-3.600
X2.100Y-3.700
X2.100Y-3.800
X2.100Y-3.900
X2.100Y-4.000
X2.100Y-4.300
X2.100Y-4.400
X2.100Y-4.500
X2.100Y-4.600
X2.100Y-4.700
X2.100Y-4.800
X2.100Y-4.900
X2.100Y-5.000
X2.100Y-5.100
X2.100Y-5.200
X2.100Y-5.300
X2.100Y-5.400
X2.200Y-5.600
X2.300Y-2.400
X2.300Y-2.500
X2.300Y-2.600
X2.300Y-2.700
X2.300Y-2.800
X2.300Y-2.900
X2.300Y-3.000
X2.300Y-3.100
X2.300Y-3.300
X2.300Y-3.400
X2.300Y-3.500
X2.300Y-3.600
X2.300Y-3.700
X2.300Y-3.800
X2.300Y-3.900
X2.300Y-4.000
X2.300Y-4.300
X2.300Y-4.400
X2.300Y-4.500
X2.300Y-4.600
X2.300Y-4.700
X2.300Y-4.800
X2.300Y-4.900
X2.300Y-5.000
X2.300Y-5.100
X2.300Y-5.200
X2.300Y-5.300
X2.300Y-5.400
X2.300Y-5.600
X2.400Y-1.600
X2.400Y-1.700
X2.400Y-1.800
X2.400Y-1.900
X2.400Y-2.000
X2.400Y-2.100
X2.400Y-2.200
X2.400Y-2.300
X2.400Y-2.400
X2.400Y-2.500
X2.400Y-2.600
X2.400Y-2.700
X2.400Y-2.800
X2.400Y-2.900
X2.400Y-3.000
X2.400Y-3.100
X2.400Y-3.200
X2.400Y-3.300
X2.400Y-3.400
X2.400Y-3.500
X2.400Y-3.600
X2.400Y-3.700
X2.400Y-3.800
X2.400Y-3.900
X2.400Y-4.000
X2.400Y-4.300
X2.400Y-4.400
X2.400Y-4.500
X2.400Y-4.600
X2.400Y-4.700
X2.400Y-4.800
X2.400Y-4.900
X2.400Y-5.000
X2.400Y-5.100
X2.400Y-5.200
X2.400Y-5.300
X2.400Y-5.400
X2.400Y-5.600
X2.500Y-1.600
X2.500Y-1.700
X2.500Y-1.800
X2.500Y-1.900
X2.500Y-2.000
X2.500Y-2.100
X2.500Y-2.200
X2.500Y-2.300
X2.500Y-2.400
X2.500Y-2.500
X2.500Y-2.600
X2.500Y-2.700
X2.500Y-2.800
X2.500Y-2.900
X2.500Y-3.000
X2.500Y-3.100
X2.500Y-3.200
X2.500Y-3.300
X2.500Y-3.400
X2.500Y-3.500
X2.500Y-3.600
X2.500Y-3.700
X2.500Y-3.800
X2.500Y-3.900
X2.500Y-4.000
X2.500Y-4.300
X2.500Y-4.400
X2.500Y-4.500
X2.500Y-4.600
X2.500Y-4.700
X2.500Y-4.800
X2.500Y-4.900
X2.500Y-5.000
X2.500Y-5.100
X2.500Y-5.200
X2.500Y-5.300
X2.500Y-5.400
X2.500Y-5.600
X2.600Y-1.600
X2.600Y-1.700
X2.600Y-1.800
X2.600Y-1.900
X2.600Y-2.000
X2.600Y-2.100
X2.600Y-2.200
X2.600Y-2.300
X2.600Y-2.400
X2.600Y-2.500
X2.600Y-2.600
X2.600Y-2.700
X2.600Y-2.800
X2.600Y-2.900
X2.600Y-3.000
X2.600Y-3.100
X2.600Y-3.200
X2.600Y-3.300
X2.600Y-3.400
X2.600Y-3.500
X2.600Y-3.600
X2.600Y-3.700
X2.600Y-3.800
X2.600Y-3.900
X2.600Y-4.000
X2.600Y-4.300
X2.600Y-4.400
X2.600Y-4.500
X2.600Y-4.600
X2.600Y-4.700
X2.600Y-4.800
X2.600Y-4.900
X2.600Y-5.000
X2.600Y-5.100
X2.600Y-5.200
X2.600Y-5.300
X2.600Y-5.400
X2.600Y-5.600
X2.700Y-1.600
X2.700Y-1.700
X2.700Y-1.800
X2.700Y-1.900
X2.700Y-2.000
X2.700Y-2.100
X2.700Y-2.200
X2.700Y-2.300
X2.700Y-2.400
X2.700Y-2.500
X2.700Y-2.600
X2.700Y-2.700
X2.700Y-2.800
X2.700Y-2.900
X2.700Y-3.000
X2.700Y-3.100
X2.700Y-3.200
X2.700Y-3.300
X2.700Y-3.400
X2.700Y-3.500
X2.700Y-3.600
X2.700Y-3.700
X2.700Y-3.800
X2.700Y-3.900
X2.700Y-4.300
X2.700Y-4.400
X2.700Y-4.500
X2.700Y-4.600
X2.700Y-4.700
X2.700Y-4.800
X2.700Y-4.900
X2.700Y-5.000
X2.700Y-5.100
X2.700Y-5.200
X2.700Y-5.300
X2.700Y-5.400
X2.700Y-5.600
X2.800Y-1.600
X2.800Y-1.700
X2.800Y-1.800
X2.800Y-1.900
X2.800Y-2.000
X2.800Y-2.100
X2.800Y-2.200
X2.800Y-2.300
X2.800Y-2.400
X2.800Y-2.500
X2.800Y-2.600
X2.800Y-2.700
X2.800Y-2.800
X2.800Y-2.900
X2.800Y-3.000
X2.800Y-3.100
X2.800Y-3.200
X2.800Y-3.300
X2.800Y-3.400
X2.800Y-3.500
X2.800Y-3.600
X2.800Y-3.700
X2.800Y-3.800
X2.800Y-3.900
X2.800Y-4.000
X2.800Y-4.300
X2.800Y-4.400
X2.800Y-4.500
X2.800Y-4.600
X2.800Y-4.700
X2.800Y-4.800
X2.800Y-4.900
X2.800Y-5.000
X2.800Y-5.100
X2.800Y-5.200
X2.800Y-5.300
X2.800Y-5.400
X2.800Y-5.600
X2.900Y-1.600
X2.900Y-1.700
X2.900Y-1.800
X2.900Y-1.900
X2.900Y-2.000
X2.900Y-2.100
X2.900Y-2.200
X2.900Y-2.300
X2.900Y-2.400
X2.900Y-2.500
X2.900Y-2.600
X2.900Y-2.700
X2.900Y-2.800
X2.900Y-2.900
X2.900Y-3.000
X2.900Y-3.100
X2.900Y-3.200
X2.900Y-3.300
X2.900Y-3.400
X2.900Y-3.500
X2.900Y-3.600
X2.900Y-3.700
X2.900Y-3.800
X2.900Y-3.900
X2.900Y-4.000
X2.900Y-4.300
X2.900Y-4.400
X2.900Y-4.500
X2.900Y-4.600
X2.900Y-4.700
X2.900Y-4.800
X2.900Y-4.900
X2.900Y-5.000
X2.900Y-5.100
X2.900Y-5.200
X2.900Y-5.300
X2.900Y-5.400
X2.900Y-5.600
X3.000Y-1.600
X3.000Y-1.700
X3.000Y-1.800
X3.000Y-1.900
X3.000Y-2.000
X3.000Y-2.100
X3.000Y-2.200
X3.000Y-2.300
X3.000Y-2.400
X3.000Y-2.500
X3.000Y-2.600
X3.000Y-2.700
X3.000Y-2.800
X3.000Y-2.900
X3.000Y-3.000
X3.000Y-3.100
X3.000Y-3.200
X3.000Y-3.300
X3.000Y-3.400
X3.000Y-3.500
X3.000Y-3.600
X3.000Y-3.700
X3.000Y-3.800
X3.000Y-3.900
X3.000Y-4.000
X3.000Y-4.300
X3.000Y-4.400
X3.000Y-4.500
X3.000Y-4.600
X3.000Y-4.700
X3.000Y-4.800
X3.000Y-4.900
X3.000Y-5.000
X3.000Y-5.100
X3.000Y-5.200
X3.000Y-5.300
X3.000Y-5.400
X3.100Y-1.600
X3.100Y-1.700
X3.100Y-1.800
X3.100Y-1.900
X3.100Y-2.000
X3.100Y-2.100
X3.100Y-2.200
X3.100Y-2.300
X3.100Y-2.400
X3.100Y-2.500
X3.100Y-2.600
X3.100Y-2.700
X3.100Y-2.800
X3.100Y-2.900
X3.100Y-3.000
X3.100Y-3.100
X3.100Y-3.200
X3.100Y-3.300
X3.100Y-3.400
X3.100Y-3.500
X3.100Y-3.600
X3.100Y-3.700
X3.100Y-3.800
X3.100Y-3.900
X3.100Y-4.000
X3.100Y-4.300
X3.100Y-4.400
X3.100Y-4.500
X3.100Y-4.600
X3.100Y-4.700
X3.100Y-4.800
X3.100Y-4.900
X3.100Y-5.000
X3.100Y-5.100
X3.100Y-5.200
X3.100Y-5.300
X3.100Y-5.400
X3.200Y-1.600
X3.200Y-1.700
X3.200Y-1.800
X3.200Y-1.900
X3.200Y-2.000
X3.200Y-2.100
X3.200Y-2.200
X3.200Y-2.300
X3.200Y-2.400
X3.200Y-2.500
X3.200Y-2.600
X3.200Y-2.700
X3.200Y-2.800
X3.200Y-2.900
X3.200Y-3.000
X3.200Y-3.100
X3.200Y-3.200
X3.200Y-3.300
X3.200Y-3.400
X3.200Y-3.500
X3.200Y-3.600
X3.200Y-3.700
X3.200Y-3.800
X3.200Y-3.900
X3.200Y-4.000
X3.200Y-4.300
X3.200Y-4.400
X3.200Y-4.500
X3.200Y-4.600
X3.200Y-4.700
X3.200Y-4.800
X3.200Y-4.900
X3.200Y-5.000
X3.200Y-5.100
X3.200Y-5.200
X3.200Y-5.300
X3.200Y-5.400
X3.200Y-5.600
X3.300Y-1.600
X3.300Y-1.700
X3.300Y-1.800
X3.300Y-1.900
X3.300Y-2.000
X3.300Y-2.100
X3.300Y-2.200
X3.300Y-2.300
X3.300Y-2.400
X3.300Y-2.500
X3.300Y-2.600
X3.300Y-2.700
X3.300Y-2.800
X3.300Y-2.900
X3.300Y-3.000
X3.300Y-3.100
X3.300Y-3.200
X3.300Y-3.300
X3.300Y-3.400
X3.300Y-3.500
X3.300Y-3.600
X3.300Y-3.700
X3.300Y-3.800
X3.300Y-3.900
X3.300Y-4.000
X3.300Y-4.300
X3.300Y-4.400
X3.300Y-4.500
X3.300Y-4.600
X3.300Y-4.700
X3.300Y-4.800
X3.300Y-4.900
X3.300Y-5.000
X3.300Y-5.100
X3.300Y-5.200
X3.300Y-5.300
X3.300Y-5.400
X3.300Y-5.600
X3.400Y-1.600
X3.400Y-1.700
X3.400Y-1.800
X3.400Y-1.900
X3.400Y-2.000
X3.400Y-2.100
X3.400Y-2.200
X3.400Y-2.300
X3.400Y-2.400
X3.400Y-2.500
X3.400Y-2.600
X3.400Y-2.700
X3.400Y-2.800
X3.400Y-2.900
X3.400Y-3.000
X3.400Y-3.100
X3.400Y-3.200
X3.400Y-3.300
X3.400Y-3.400
X3.400Y-3.500
X3.400Y-3.600
X3.400Y-3.700
X3.400Y-3.800
X3.400Y-3.900
X3.400Y-4.000
X3.400Y-4.300
X3.400Y-4.400
X3.400Y-4.500
X3.400Y-4.600
X3.400Y-4.700
X3.400Y-4.800
X3.400Y-4.900
X3.400Y-5.000
X3.400Y-5.100
X3.400Y-5.200
X3.400Y-5.300
X3.400Y-5.400
X3.400Y-5.600
X3.500Y-1.600
X3.500Y-1.700
X3.500Y-1.800
X3.500Y-1.900
X3.500Y-2.000
X3.500Y-2.100
X3.500Y-2.200
X3.500Y-2.300
X3.500Y-2.400
X3.500Y-2.500
X3.500Y-2.600
X3.500Y-2.700
X3.500Y-2.800
X3.500Y-2.900
X3.500Y-3.000
X3.500Y-3.100
X3.500Y-3.200
X3.500Y-3.300
X3.500Y-3.400
X3.500Y-3.500
X3.500Y-3.600
X3.500Y-3.700
X3.500Y-3.800
X3.500Y-3.900
X3.500Y-4.000
X3.500Y-4.300
X3.500Y-4.400
X3.500Y-4.500
X3.500Y-4.600
X3.500Y-4.700
X3.500Y-4.800
X3.500Y-4.900
X3.500Y-5.000
X3.500Y-5.100
X3.500Y-5.200
X3.500Y-5.300
X3.500Y-5.400
X3.500Y-5.600
X3.600Y-1.600
X3.600Y-1.700
X3.600Y-1.800
X3.600Y-1.900
X3.600Y-2.000
X3.600Y-2.100
X3.600Y-2.200
X3.600Y-2.300
X3.600Y-2.400
X3.600Y-2.500
X3.600Y-2.600
X3.600Y-2.700
X3.600Y-2.800
X3.600Y-2.900
X3.600Y-3.000
X3.600Y-3.100
X3.600Y-3.200
X3.600Y-3.300
X3.600Y-3.400
X3.600Y-3.500
X3.600Y-3.600
X3.600Y-3.700
X3.600Y-3.800
X3.600Y-3.900
X3.600Y-4.000
X3.600Y-4.300
X3.600Y-4.400
X3.600Y-4.500
X3.600Y-4.600
X3.600Y-4.700
X3.600Y-4.800
X3.600Y-4.900
X3.600Y-5.000
X3.600Y-5.100
X3.600Y-5.200
X3.600Y-5.300
X3.600Y-5.400
X3.600Y-5.600
X3.700Y-1.600
X3.700Y-1.700
X3.700Y-1.800
X3.700Y-1.900
X3.700Y-2.000
X3.700Y-2.100
X3.700Y-2.200
X3.700Y-2.300
X3.700Y-2.400
X3.700Y-2.500
X3.700Y-2.600
X3.700Y-2.700
X3.700Y-2.800
X3.700Y-2.900
X3.700Y-3.000
X3.700Y-3.100
X3.700Y-3.200
X3.700Y-3.300
X3.700Y-3.400
X3.700Y-3.500
X3.700Y-3.600
X3.700Y-3.700
X3.700Y-3.800
X3.700Y-3.900
X3.700Y-4.000
X3.700Y-4.300
X3.700Y-4.400
X3.700Y-4.500
X3.700Y-4.600
X3.700Y-4.700
X3.700Y-4.800
X3.700Y-4.900
X3.700Y-5.000
X3.700Y-5.100
X3.700Y-5.200
X3.700Y-5.300
X3.700Y-5.400
X3.700Y-5.600
X3.800Y-1.600
X3.800Y-1.700
X3.800Y-1.800
X3.800Y-1.900
X3.800Y-2.000
X3.800Y-2.100
X3.800Y-2.200
X3.800Y-2.300
X3.800Y-2.400
X3.800Y-2.500
X3.800Y-2.600
X3.800Y-2.700
X3.800Y-2.800
X3.800Y-2.900
X3.800Y-3.000
X3.800Y-3.100
X3.800Y-3.200
X3.800Y-3.300
X3.800Y-3.400
X3.800Y-3.500
X3.800Y-3.600
X3.800Y-3.700
X3.800Y-3.800
X3.800Y-3.900
X3.800Y-4.300
X3.800Y-4.400
X3.800Y-4.500
X3.800Y-4.600
X3.800Y-4.700
X3.800Y-4.800
X3.800Y-4.900
X3.800Y-5.000
X3.800Y-5.100
X3.800Y-5.200
X3.800Y-5.300
X3.800Y-5.400
X3.800Y-5.600
X3.900Y-2.800
X3.900Y-2.900
X3.900Y-3.000
X3.900Y-3.100
X3.900Y-3.200
X3.900Y-3.300
X3.900Y-3.500
X3.900Y-3.600
X3.900Y-3.700
X3.900Y-3.800
X3.900Y-3.900
X3.900Y-4.000
X3.900Y-4.300
X3.900Y-4.400
X3.900Y-4.500
X3.900Y-4.600
X3.900Y-4.700
X3.900Y-4.800
X3.900Y-4.900
X3.900Y-5.000
X3.900Y-5.100
X3.900Y-5.200
X3.900Y-5.300
X3.900Y-5.400
X3.900Y-5.600
X4.000Y-2.800
X4.000Y-2.900
X4.000Y-3.000
X4.000Y-3.100
X4.000Y-3.200
X4.000Y-3.300
X4.000Y-3.500
X4.000Y-3.600
X4.000Y-3.700
X4.000Y-3.800
X4.000Y-3.900
X4.000Y-4.000
X4.000Y-4.300
X4.000Y-4.400
X4.000Y-4.500
X4.000Y-4.600
X4.000Y-4.700
X4.000Y-4.800
X4.000Y-4.900
X4.000Y-5.000
X4.000Y-5.100
X4.000Y-5.200
X4.000Y-5.300
X4.000Y-5.400
X4.100Y-4.300
X4.100Y-4.400
X4.100Y-4.500
X4.100Y-4.600
X4.100Y-4.700
X4.100Y-4.800
X4.100Y-4.900
X4.100Y-5.000
X4.100Y-5.100
X4.100Y-5.200
X4.100Y-5.300
X4.100Y-5.400
X4.200Y-1.600
X4.200Y-1.700
X4.200Y-1.800
X4.200Y-1.900
X4.200Y-2.000
X4.200Y-2.100
X4.200Y-2.200
X4.200Y-2.300
X4.200Y-2.400
X4.200Y-2.500
X4.200Y-2.600
X4.200Y-2.700
X4.200Y-2.800
X4.200Y-2.900
X4.200Y-3.000
X4.200Y-3.100
X4.200Y-3.200
X4.200Y-3.300
X4.200Y-3.500
X4.200Y-3.600
X4.200Y-3.700
X4.200Y-3.800
X4.200Y-3.900
X4.200Y-4.000
X4.200Y-4.300
X4.200Y-4.400
X4.200Y-4.500
X4.200Y-4.600
X4.200Y-4.700
X4.200Y-4.800
X4.200Y-4.900
X4.200Y-5.000
X4.200Y-5.100
X4.200Y-5.200
X4.200Y-5.300
X4.200Y-5.400
X4.200Y-5.600
X4.300Y-1.600
X4.300Y-1.700
X4.300Y-1.800
X4.300Y-1.900
X4.300Y-2.000
X4.300Y-2.100
X4.300Y-2.200
X4.300Y-2.300
X4.300Y-2.400
X4.300Y-2.500
X4.300Y-2.600
X4.300Y-2.700
X4.300Y-2.800
X4.300Y-2.900
X4.300Y-3.000
X4.300Y-3.100
X4.300Y-3.200
X4.300Y-3.300
X4.300Y-3.500
X4.300Y-3.600
X4.300Y-3.700
X4.300Y-3.800
X4.300Y-3.900
X4.300Y-4.000
X4.300Y-4.300
X4.300Y-4.400
X4.300Y-4.500
X4.300Y-4.600
X4.300Y-4.700
X4.300Y-4.800
X4.300Y-4.900
X4.300Y-5.000
X4.300Y-5.100
X4.300Y-5.200
X4.300Y-5.300
X4.300Y-5.400
X4.300Y-5.600
X4.400Y-1.600
X4.400Y-1.700
X4.400Y-1.800
X4.400Y-1.900
X4.400Y-2.000
X4.400Y-2.100
X4.400Y-2.200
X4.400Y-2.300
X4.400Y-2.400
X4.400Y-2.500
X4.400Y-2.600
X4.400Y-2.700
X4.400Y-2.800
X4.400Y-2.900
X4.400Y-3.000
X4.400Y-3.100
X4.400Y-3.200
X4.400Y-3.300
X4.400Y-3.500
X4.400Y-3.600
X4.400Y-3.700
X4.400Y-3.800
X4.400Y-3.900
X4.400Y-4.000
X4.400Y-4.300
X4.400Y-4.400
X4.400Y-4.500
X4.400Y-4.600
X4.400Y-4.700
X4.400Y-4.800
X4.400Y-4.900
X4.400Y-5.000
X4.400Y-5.100
X4.400Y-5.200
X4.400Y-5.300
X4.400Y-5.400
X4.400Y-5.600
X4.500Y-1.600
X4.500Y-1.700
X4.500Y-1.800
X4.500Y-1.900
X4.500Y-2.000
X4.500Y-2.100
X4.500Y-2.200
X4.500Y-2.300
X4.500Y-2.400
X4.500Y-2.500
X4.500Y-2.600
X4.500Y-2.700
X4.500Y-2.800
X4.500Y-2.900
X4.500Y-3.000
X4.500Y-3.100
X4.500Y-3.200
X4.500Y-3.300
X4.500Y-3.500
X4.500Y-3.600
X4.500Y-3.700
X4.500Y-3.800
X4.500Y-3.900
X4.500Y-4.000
X4.500Y-4.300
X4.500Y-4.400
X4.500Y-4.500
X4.500Y-4.600
X4.500Y-4.700
X4.500Y-4.800
X4.500Y-4.900
X4.500Y-5.000
X4.500Y-5.100
X4.500Y-5.200
X4.500Y-5.300
X4.500Y-5.400
X4.500Y-5.600
X4.600Y-1.600
X4.600Y-1.700
X4.600Y-1.800
X4.600Y-1.900
X4.600Y-2.000
X4.600Y-2.100
X4.600Y-2.200
X4.600Y-2.300
X4.600Y-2.400
X4.600Y-2.500
X4.600Y-2.600
X4.600Y-2.700
X4.600Y-2.800
X4.600Y-2.900
X4.600Y-3.000
X4.600Y-3.100
X4.600Y-3.200
X4.600Y-3.300
X4.600Y-3.500
X4.600Y-3.600
X4.600Y-3.700
X4.600Y-3.800
X4.600Y-3.900
X4.600Y-4.000
X4.600Y-4.300
X4.600Y-4.400
X4.600Y-4.500
X4.600Y-4.600
X4.600Y-4.700
X4.600Y-4.800
X4.600Y-4.900
X4.600Y-5.000
X4.600Y-5.100
X4.600Y-5.200
X4.600Y-5.300
X4.600Y-5.400
X4.600Y-5.600
X4.700Y-1.600
X4.700Y-1.700
X4.700Y-1.800
X4.700Y-1.900
X4.700Y-2.000
X4.700Y-2.100
X4.700Y-2.200
X4.700Y-2.300
X4.700Y-2.400
X4.700Y-2.500
X4.700Y-2.600
X4.700Y-2.700
X4.700Y-2.800
X4.700Y-2.900
X4.700Y-3.000
X4.700Y-3.100
X4.700Y-3.200
X4.700Y-3.300
X4.700Y-3.500
X4.700Y-3.600
X4.700Y-3.700
X4.700Y-3.800
X4.700Y-3.900
X4.700Y-4.000
X4.700Y-4.300
X4.700Y-4.400
X4.700Y-4.500
X4.700Y-4.600
X4.700Y-4.700
X4.700Y-4.800
X4.700Y-4.900
X4.700Y-5.000
X4.700Y-5.100
X4.700Y-5.200
X4.700Y-5.300
X4.700Y-5.400
X4.700Y-5.600
X4.800Y-1.600
X4.800Y-1.700
X4.800Y-1.800
X4.800Y-1.900
X4.800Y-2.000
X4.800Y-2.100
X4.800Y-2.200
X4.800Y-2.300
X4.800Y-2.400
X4.800Y-2.500
X4.800Y-2.600
X4.800Y-2.700
X4.800Y-2.800
X4.800Y-2.900
X4.800Y-3.000
X4.800Y-3.100
X4.800Y-3.200
X4.800Y-3.300
X4.800Y-3.500
X4.800Y-3.600
X4.800Y-3.700
X4.800Y-3.800
X4.800Y-3.900
X4.800Y-4.000
X4.800Y-4.300
X4.800Y-4.400
X4.800Y-4.500
X4.800Y-4.600
X4.800Y-4.700
X4.800Y-4.800
X4.800Y-4.900
X4.800Y-5.000
X4.800Y-5.100
X4.800Y-5.200
X4.800Y-5.300
X4.800Y-5.400
X4.800Y-5.600
X4.900Y-1.600
X4.900Y-1.700
X4.900Y-1.800
X4.900Y-1.900
X4.900Y-2.000
X4.900Y-2.100
X4.900Y-2.200
X4.900Y-2.300
X4.900Y-2.400
X4.900Y-2.500
X4.900Y-2.600
X4.900Y-2.700
X4.900Y-2.800
X4.900Y-2.900
X4.900Y-3.000
X4.900Y-3.100
X4.900Y-3.200
X4.900Y-3.300
X4.900Y-3.500
X4.900Y-3.600
X4.900Y-3.700
X4.900Y-3.800
X4.900Y-3.900
X4.900Y-4.000
X4.900Y-4.300
X4.900Y-4.400
X4.900Y-4.500
X4.900Y-4.600
X4.900Y-4.700
X4.900Y-4.800
X4.900Y-4.900
X4.900Y-5.000
X4.900Y-5.100
X4.900Y-5.200
X4.900Y-5.300
X4.900Y-5.400
X4.900Y-5.600
T3
X1.375Y-6.000
X1.425Y-5.900
X1.475Y-6.000
X1.525Y-5.900
X1.575Y-6.000
X1.625Y-5.900
X1.675Y-6.000
X1.725Y-5.900
X2.375Y-6.000
X2.425Y-5.900
X2.475Y-6.000
X2.525Y-5.900
X2.575Y-6.000
X2.625Y-5.900
X2.675Y-6.000
X2.725Y-5.900
X3.375Y-6.000
X3.425Y-5.900
X3.475Y-6.000
X3.525Y-5.900
X3.575Y-6.000
X3.625Y-5.900
X3.675Y-6.000
X3.725Y-5.900
X4.375Y-6.000
X4.425Y-5.900
X4.475Y-6.000
X4.525Y-5.900
X4.575Y-6.000
X4.625Y-5.900
X4.675Y-6.000
X4.725Y-5.900
T4
X0.980Y-2.590
X0.980Y-5.310
X5.120Y-2.590
X5.120Y-5.310
T5
X2.100Y-2.100
X2.700Y-4.100
X3.800Y-4.100
T6
X1.316Y-6.250
X1.784Y-6.250
X2.316Y-6.250
X2.784Y-6.250
X3.316Y-6.250
X3.784Y-6.250
X4.316Y-6.250
X4.784Y-6.250
T0
M30
