G04 (created by PCBnew (20090216-final)) date Tue 26 May 2009 01:13:57 PM CDT*
G01*
G70*
G90*
%MOIN*%
G04 Gerber Fmt 3.4, Leading zero omitted, Abs format*
%FSLAX34Y34*%
G04 APERTURE LIST*
%ADD10C,0.015000*%
%ADD11C,0.015000*%
%ADD12C,0.126000*%
%ADD13C,0.070000*%
%ADD14C,0.143700*%
%ADD15R,0.059100X0.059100*%
%ADD16C,0.059100*%
%ADD17C,0.125000*%
%ADD18R,0.070000X0.070000*%
%ADD19C,0.045000*%
%ADD20C,0.010000*%
%ADD21C,0.025000*%
%ADD22C,0.009000*%
%ADD23C,0.005000*%
%ADD24C,0.006000*%
%ADD25C,0.163700*%
%ADD26R,0.079100X0.079100*%
%ADD27C,0.079100*%
%ADD28C,0.090000*%
%ADD29R,0.090000X0.090000*%
G04 APERTURE END LIST*
G54D10*
X08600Y-64200D02*
X08600Y-15000D01*
X52400Y-15000D02*
X52400Y-64200D01*
X08600Y-15000D02*
X52400Y-15000D01*
X52400Y-64200D02*
X08600Y-64200D01*
G54D25*
X17838Y-62500D03*
X13165Y-62500D03*
G54D26*
X13750Y-60000D03*
G54D27*
X14250Y-59000D03*
X14750Y-60000D03*
X15250Y-59000D03*
X15750Y-60000D03*
X16250Y-59000D03*
X16750Y-60000D03*
X17250Y-59000D03*
G54D25*
X27838Y-62500D03*
X23165Y-62500D03*
G54D26*
X23750Y-60000D03*
G54D27*
X24250Y-59000D03*
X24750Y-60000D03*
X25250Y-59000D03*
X25750Y-60000D03*
X26250Y-59000D03*
X26750Y-60000D03*
X27250Y-59000D03*
G54D25*
X37838Y-62500D03*
X33165Y-62500D03*
G54D26*
X33750Y-60000D03*
G54D27*
X34250Y-59000D03*
X34750Y-60000D03*
X35250Y-59000D03*
X35750Y-60000D03*
X36250Y-59000D03*
X36750Y-60000D03*
X37250Y-59000D03*
G54D25*
X47838Y-62500D03*
X43165Y-62500D03*
G54D26*
X43750Y-60000D03*
G54D27*
X44250Y-59000D03*
X44750Y-60000D03*
X45250Y-59000D03*
X45750Y-60000D03*
X46250Y-59000D03*
X46750Y-60000D03*
X47250Y-59000D03*
G54D28*
X12000Y-52000D03*
X12000Y-51000D03*
X12000Y-53000D03*
X12000Y-54000D03*
X12000Y-50000D03*
X12000Y-49000D03*
X12000Y-47000D03*
X12000Y-48000D03*
X12000Y-45000D03*
X12000Y-46000D03*
X12000Y-44000D03*
X12000Y-43000D03*
X13000Y-52000D03*
X13000Y-51000D03*
X13000Y-53000D03*
X13000Y-54000D03*
X13000Y-50000D03*
X13000Y-49000D03*
X13000Y-47000D03*
X13000Y-48000D03*
X13000Y-45000D03*
X13000Y-46000D03*
X13000Y-44000D03*
X13000Y-43000D03*
X21000Y-43000D03*
X21000Y-44000D03*
X21000Y-46000D03*
X21000Y-45000D03*
X21000Y-48000D03*
X21000Y-47000D03*
X21000Y-49000D03*
X21000Y-50000D03*
X21000Y-54000D03*
X21000Y-53000D03*
X21000Y-51000D03*
X21000Y-52000D03*
X14000Y-52000D03*
X14000Y-51000D03*
X14000Y-53000D03*
X14000Y-54000D03*
X15000Y-54000D03*
X15000Y-53000D03*
X15000Y-51000D03*
X15000Y-52000D03*
X17000Y-52000D03*
X17000Y-51000D03*
X17000Y-53000D03*
X17000Y-54000D03*
X16000Y-54000D03*
X16000Y-53000D03*
X16000Y-51000D03*
X16000Y-52000D03*
X20000Y-52000D03*
X20000Y-51000D03*
X20000Y-53000D03*
X20000Y-54000D03*
X19000Y-52000D03*
X19000Y-51000D03*
X19000Y-53000D03*
X19000Y-54000D03*
X18000Y-54000D03*
X18000Y-53000D03*
X18000Y-51000D03*
X18000Y-52000D03*
X20000Y-43000D03*
X18000Y-43000D03*
X18000Y-44000D03*
X18000Y-46000D03*
X18000Y-45000D03*
X18000Y-48000D03*
X18000Y-47000D03*
X18000Y-49000D03*
X18000Y-50000D03*
X19000Y-50000D03*
X19000Y-49000D03*
X19000Y-47000D03*
X19000Y-48000D03*
X19000Y-45000D03*
X19000Y-46000D03*
X19000Y-44000D03*
X19000Y-43000D03*
X20000Y-50000D03*
X20000Y-49000D03*
X20000Y-47000D03*
X20000Y-48000D03*
X20000Y-45000D03*
X20000Y-46000D03*
X20000Y-44000D03*
X16000Y-43000D03*
X16000Y-44000D03*
X16000Y-46000D03*
X16000Y-45000D03*
X16000Y-48000D03*
X16000Y-47000D03*
X16000Y-49000D03*
X16000Y-50000D03*
X17000Y-50000D03*
X17000Y-49000D03*
X17000Y-47000D03*
X17000Y-48000D03*
X17000Y-45000D03*
X17000Y-46000D03*
X17000Y-44000D03*
X17000Y-43000D03*
X15000Y-43000D03*
X15000Y-44000D03*
X15000Y-46000D03*
X15000Y-45000D03*
X15000Y-48000D03*
X15000Y-47000D03*
X15000Y-49000D03*
X15000Y-50000D03*
X14000Y-50000D03*
X14000Y-49000D03*
X14000Y-47000D03*
X14000Y-48000D03*
X14000Y-45000D03*
X14000Y-46000D03*
X14000Y-44000D03*
X14000Y-43000D03*
X18000Y-33000D03*
X16000Y-33000D03*
X16000Y-34000D03*
X16000Y-36000D03*
X16000Y-35000D03*
X16000Y-38000D03*
X16000Y-37000D03*
X16000Y-39000D03*
X16000Y-40000D03*
X17000Y-40000D03*
X17000Y-39000D03*
X17000Y-37000D03*
X17000Y-38000D03*
X17000Y-35000D03*
X17000Y-36000D03*
X17000Y-34000D03*
X17000Y-33000D03*
X18000Y-40000D03*
X18000Y-39000D03*
X18000Y-37000D03*
X18000Y-38000D03*
X18000Y-35000D03*
X18000Y-36000D03*
X18000Y-34000D03*
X14000Y-33000D03*
X14000Y-34000D03*
X14000Y-36000D03*
X14000Y-35000D03*
X14000Y-38000D03*
X14000Y-37000D03*
X14000Y-39000D03*
X14000Y-40000D03*
X15000Y-40000D03*
X15000Y-39000D03*
X15000Y-37000D03*
X15000Y-38000D03*
X15000Y-35000D03*
X15000Y-36000D03*
X15000Y-34000D03*
X15000Y-33000D03*
X13000Y-33000D03*
X13000Y-34000D03*
X13000Y-36000D03*
X13000Y-35000D03*
X13000Y-38000D03*
X13000Y-37000D03*
X13000Y-39000D03*
X13000Y-40000D03*
X12000Y-40000D03*
X12000Y-39000D03*
X12000Y-37000D03*
X12000Y-38000D03*
X12000Y-35000D03*
X12000Y-36000D03*
X12000Y-34000D03*
X12000Y-33000D03*
X18000Y-24000D03*
X16000Y-24000D03*
X16000Y-25000D03*
X16000Y-27000D03*
X16000Y-26000D03*
X16000Y-29000D03*
X16000Y-28000D03*
X16000Y-30000D03*
X16000Y-31000D03*
X17000Y-31000D03*
X17000Y-30000D03*
X17000Y-28000D03*
X17000Y-29000D03*
X17000Y-26000D03*
X17000Y-27000D03*
X17000Y-25000D03*
X17000Y-24000D03*
X18000Y-31000D03*
X18000Y-30000D03*
X18000Y-28000D03*
X18000Y-29000D03*
X18000Y-26000D03*
X18000Y-27000D03*
X18000Y-25000D03*
X14000Y-24000D03*
X14000Y-25000D03*
X14000Y-27000D03*
X14000Y-26000D03*
X14000Y-29000D03*
X14000Y-28000D03*
X14000Y-30000D03*
X14000Y-31000D03*
X15000Y-31000D03*
X15000Y-30000D03*
X15000Y-28000D03*
X15000Y-29000D03*
X15000Y-26000D03*
X15000Y-27000D03*
X15000Y-25000D03*
X15000Y-24000D03*
X13000Y-24000D03*
X13000Y-25000D03*
X13000Y-27000D03*
X13000Y-26000D03*
X13000Y-29000D03*
X13000Y-28000D03*
X13000Y-30000D03*
X13000Y-31000D03*
X12000Y-31000D03*
X12000Y-30000D03*
X12000Y-28000D03*
X12000Y-29000D03*
X12000Y-26000D03*
X12000Y-27000D03*
X12000Y-25000D03*
X12000Y-24000D03*
X18000Y-16000D03*
X16000Y-16000D03*
X16000Y-17000D03*
X16000Y-19000D03*
X16000Y-18000D03*
X16000Y-21000D03*
X16000Y-20000D03*
X16000Y-22000D03*
X16000Y-23000D03*
X17000Y-23000D03*
X17000Y-22000D03*
X17000Y-20000D03*
X17000Y-21000D03*
X17000Y-18000D03*
X17000Y-19000D03*
X17000Y-17000D03*
X17000Y-16000D03*
X18000Y-23000D03*
X18000Y-22000D03*
X18000Y-20000D03*
X18000Y-21000D03*
X18000Y-18000D03*
X18000Y-19000D03*
X18000Y-17000D03*
X14000Y-16000D03*
X14000Y-17000D03*
X14000Y-19000D03*
X14000Y-18000D03*
X14000Y-21000D03*
X14000Y-20000D03*
X14000Y-22000D03*
X14000Y-23000D03*
X15000Y-23000D03*
X15000Y-22000D03*
X15000Y-20000D03*
X15000Y-21000D03*
X15000Y-18000D03*
X15000Y-19000D03*
X15000Y-17000D03*
X15000Y-16000D03*
X13000Y-16000D03*
X13000Y-17000D03*
X13000Y-19000D03*
X13000Y-18000D03*
X13000Y-21000D03*
X13000Y-20000D03*
X13000Y-22000D03*
X13000Y-23000D03*
X12000Y-23000D03*
X12000Y-22000D03*
X12000Y-20000D03*
X12000Y-21000D03*
X12000Y-18000D03*
X12000Y-19000D03*
X12000Y-17000D03*
X12000Y-16000D03*
X48000Y-54000D03*
X48000Y-53000D03*
X48000Y-52000D03*
X48000Y-51000D03*
X48000Y-43000D03*
X48000Y-44000D03*
X48000Y-45000D03*
X48000Y-46000D03*
X48000Y-47000D03*
X48000Y-48000D03*
X48000Y-49000D03*
X48000Y-50000D03*
X49000Y-54000D03*
X49000Y-53000D03*
X49000Y-52000D03*
X49000Y-51000D03*
X49000Y-43000D03*
X49000Y-44000D03*
X49000Y-45000D03*
X49000Y-46000D03*
X49000Y-47000D03*
X49000Y-48000D03*
X49000Y-49000D03*
X49000Y-50000D03*
X48000Y-31000D03*
X48000Y-32000D03*
X48000Y-33000D03*
X49000Y-30000D03*
X49000Y-31000D03*
X49000Y-32000D03*
X49000Y-33000D03*
X43000Y-31000D03*
X44000Y-31000D03*
X45000Y-31000D03*
X46000Y-31000D03*
X47000Y-31000D03*
X48000Y-35000D03*
X48000Y-36000D03*
X48000Y-37000D03*
X48000Y-38000D03*
X48000Y-39000D03*
X48000Y-40000D03*
X49000Y-40000D03*
X49000Y-39000D03*
X49000Y-38000D03*
X49000Y-37000D03*
X49000Y-36000D03*
X49000Y-35000D03*
X43000Y-30000D03*
X44000Y-30000D03*
X45000Y-30000D03*
X46000Y-30000D03*
X47000Y-30000D03*
X48000Y-30000D03*
G54D29*
X12000Y-56000D03*
G54D28*
X13000Y-56000D03*
X14000Y-56000D03*
X15000Y-56000D03*
X16000Y-56000D03*
X17000Y-56000D03*
X18000Y-56000D03*
X19000Y-56000D03*
G54D29*
X22000Y-56000D03*
G54D28*
X23000Y-56000D03*
X24000Y-56000D03*
X25000Y-56000D03*
X26000Y-56000D03*
X27000Y-56000D03*
X28000Y-56000D03*
X29000Y-56000D03*
G54D29*
X32000Y-56000D03*
G54D28*
X33000Y-56000D03*
X34000Y-56000D03*
X35000Y-56000D03*
X36000Y-56000D03*
X37000Y-56000D03*
X38000Y-56000D03*
X39000Y-56000D03*
G54D29*
X42000Y-56000D03*
G54D28*
X43000Y-56000D03*
X44000Y-56000D03*
X45000Y-56000D03*
X46000Y-56000D03*
X47000Y-56000D03*
X48000Y-56000D03*
X49000Y-56000D03*
X23000Y-24000D03*
X23000Y-25000D03*
X23000Y-26000D03*
X23000Y-27000D03*
X23000Y-28000D03*
X23000Y-29000D03*
X23000Y-30000D03*
X23000Y-31000D03*
X19000Y-24000D03*
X19000Y-25000D03*
X19000Y-26000D03*
X19000Y-27000D03*
X19000Y-28000D03*
X19000Y-29000D03*
X19000Y-30000D03*
X19000Y-31000D03*
X23000Y-33000D03*
X23000Y-34000D03*
X23000Y-35000D03*
X23000Y-36000D03*
X23000Y-37000D03*
X23000Y-38000D03*
X23000Y-39000D03*
X23000Y-40000D03*
X19000Y-33000D03*
X19000Y-34000D03*
X19000Y-35000D03*
X19000Y-36000D03*
X19000Y-37000D03*
X19000Y-38000D03*
X19000Y-39000D03*
X19000Y-40000D03*
X39000Y-28000D03*
X39000Y-29000D03*
X39000Y-30000D03*
X39000Y-31000D03*
X39000Y-32000D03*
X39000Y-33000D03*
X42000Y-28000D03*
X42000Y-29000D03*
X42000Y-30000D03*
X42000Y-31000D03*
X42000Y-32000D03*
X42000Y-33000D03*
X42000Y-35000D03*
X42000Y-36000D03*
X42000Y-37000D03*
X42000Y-38000D03*
X42000Y-39000D03*
X42000Y-40000D03*
X39000Y-35000D03*
X39000Y-36000D03*
X39000Y-37000D03*
X39000Y-38000D03*
X39000Y-39000D03*
X39000Y-40000D03*
X47000Y-52000D03*
X47000Y-51000D03*
X47000Y-53000D03*
X47000Y-54000D03*
X47000Y-50000D03*
X47000Y-49000D03*
X47000Y-47000D03*
X47000Y-48000D03*
X47000Y-45000D03*
X47000Y-46000D03*
X47000Y-44000D03*
X47000Y-43000D03*
X45000Y-43000D03*
X45000Y-44000D03*
X45000Y-46000D03*
X45000Y-45000D03*
X45000Y-48000D03*
X45000Y-47000D03*
X45000Y-49000D03*
X45000Y-50000D03*
X46000Y-50000D03*
X46000Y-49000D03*
X46000Y-47000D03*
X46000Y-48000D03*
X46000Y-45000D03*
X46000Y-46000D03*
X46000Y-44000D03*
X46000Y-43000D03*
X46000Y-52000D03*
X46000Y-51000D03*
X46000Y-53000D03*
X46000Y-54000D03*
X45000Y-54000D03*
X45000Y-53000D03*
X45000Y-51000D03*
X45000Y-52000D03*
X41000Y-52000D03*
X41000Y-51000D03*
X41000Y-53000D03*
X41000Y-54000D03*
X44000Y-52000D03*
X44000Y-51000D03*
X44000Y-53000D03*
X44000Y-54000D03*
X43000Y-52000D03*
X43000Y-51000D03*
X43000Y-53000D03*
X43000Y-54000D03*
X42000Y-54000D03*
X42000Y-53000D03*
X42000Y-51000D03*
X42000Y-52000D03*
X44000Y-43000D03*
X42000Y-43000D03*
X42000Y-44000D03*
X42000Y-46000D03*
X42000Y-45000D03*
X42000Y-48000D03*
X42000Y-47000D03*
X42000Y-49000D03*
X42000Y-50000D03*
X43000Y-50000D03*
X43000Y-49000D03*
X43000Y-47000D03*
X43000Y-48000D03*
X43000Y-45000D03*
X43000Y-46000D03*
X43000Y-44000D03*
X43000Y-43000D03*
X44000Y-50000D03*
X44000Y-49000D03*
X44000Y-47000D03*
X44000Y-48000D03*
X44000Y-45000D03*
X44000Y-46000D03*
X44000Y-44000D03*
X41000Y-50000D03*
X41000Y-49000D03*
X41000Y-47000D03*
X41000Y-48000D03*
X41000Y-45000D03*
X41000Y-46000D03*
X41000Y-44000D03*
X41000Y-43000D03*
X32000Y-43000D03*
X32000Y-44000D03*
X32000Y-46000D03*
X32000Y-45000D03*
X32000Y-48000D03*
X32000Y-47000D03*
X32000Y-49000D03*
X32000Y-50000D03*
X33000Y-50000D03*
X33000Y-49000D03*
X33000Y-47000D03*
X33000Y-48000D03*
X33000Y-45000D03*
X33000Y-46000D03*
X33000Y-44000D03*
X33000Y-43000D03*
X35000Y-43000D03*
X35000Y-44000D03*
X35000Y-46000D03*
X35000Y-45000D03*
X35000Y-48000D03*
X35000Y-47000D03*
X35000Y-49000D03*
X35000Y-50000D03*
X34000Y-50000D03*
X34000Y-49000D03*
X34000Y-47000D03*
X34000Y-48000D03*
X34000Y-45000D03*
X34000Y-46000D03*
X34000Y-44000D03*
X34000Y-43000D03*
X38000Y-44000D03*
X38000Y-46000D03*
X38000Y-45000D03*
X38000Y-48000D03*
X38000Y-47000D03*
X38000Y-49000D03*
X38000Y-50000D03*
X37000Y-43000D03*
X37000Y-44000D03*
X37000Y-46000D03*
X37000Y-45000D03*
X37000Y-48000D03*
X37000Y-47000D03*
X37000Y-49000D03*
X37000Y-50000D03*
X36000Y-50000D03*
X36000Y-49000D03*
X36000Y-47000D03*
X36000Y-48000D03*
X36000Y-45000D03*
X36000Y-46000D03*
X36000Y-44000D03*
X36000Y-43000D03*
X38000Y-43000D03*
X36000Y-52000D03*
X36000Y-51000D03*
X36000Y-53000D03*
X36000Y-54000D03*
X37000Y-54000D03*
X37000Y-53000D03*
X37000Y-51000D03*
X37000Y-52000D03*
X38000Y-54000D03*
X38000Y-53000D03*
X38000Y-51000D03*
X38000Y-52000D03*
X34000Y-52000D03*
X34000Y-51000D03*
X34000Y-53000D03*
X34000Y-54000D03*
X35000Y-54000D03*
X35000Y-53000D03*
X35000Y-51000D03*
X35000Y-52000D03*
X33000Y-52000D03*
X33000Y-51000D03*
X33000Y-53000D03*
X33000Y-54000D03*
X32000Y-54000D03*
X32000Y-53000D03*
X32000Y-51000D03*
X32000Y-52000D03*
X39000Y-52000D03*
X39000Y-51000D03*
X39000Y-53000D03*
X39000Y-54000D03*
X40000Y-54000D03*
X40000Y-53000D03*
X40000Y-51000D03*
X40000Y-52000D03*
X40000Y-43000D03*
X40000Y-44000D03*
X40000Y-46000D03*
X40000Y-45000D03*
X40000Y-48000D03*
X40000Y-47000D03*
X40000Y-49000D03*
X40000Y-50000D03*
X39000Y-50000D03*
X39000Y-49000D03*
X39000Y-47000D03*
X39000Y-48000D03*
X39000Y-45000D03*
X39000Y-46000D03*
X39000Y-44000D03*
X39000Y-43000D03*
X30000Y-43000D03*
X30000Y-44000D03*
X30000Y-46000D03*
X30000Y-45000D03*
X30000Y-48000D03*
X30000Y-47000D03*
X30000Y-49000D03*
X30000Y-50000D03*
X31000Y-50000D03*
X31000Y-49000D03*
X31000Y-47000D03*
X31000Y-48000D03*
X31000Y-45000D03*
X31000Y-46000D03*
X31000Y-44000D03*
X31000Y-43000D03*
X31000Y-52000D03*
X31000Y-51000D03*
X31000Y-53000D03*
X31000Y-54000D03*
X30000Y-54000D03*
X30000Y-53000D03*
X30000Y-51000D03*
X30000Y-52000D03*
X23000Y-52000D03*
X23000Y-51000D03*
X23000Y-53000D03*
X23000Y-54000D03*
X24000Y-54000D03*
X24000Y-53000D03*
X24000Y-51000D03*
X24000Y-52000D03*
X26000Y-52000D03*
X26000Y-51000D03*
X26000Y-53000D03*
X26000Y-54000D03*
X25000Y-54000D03*
X25000Y-53000D03*
X25000Y-51000D03*
X25000Y-52000D03*
X29000Y-52000D03*
X29000Y-51000D03*
X29000Y-53000D03*
X29000Y-54000D03*
X28000Y-52000D03*
X28000Y-51000D03*
X28000Y-53000D03*
X28000Y-54000D03*
X27000Y-54000D03*
X27000Y-53000D03*
X27000Y-51000D03*
X27000Y-52000D03*
X29000Y-43000D03*
X27000Y-43000D03*
X27000Y-44000D03*
X27000Y-46000D03*
X27000Y-45000D03*
X27000Y-48000D03*
X27000Y-47000D03*
X27000Y-49000D03*
X27000Y-50000D03*
X28000Y-50000D03*
X28000Y-49000D03*
X28000Y-47000D03*
X28000Y-48000D03*
X28000Y-45000D03*
X28000Y-46000D03*
X28000Y-44000D03*
X28000Y-43000D03*
X29000Y-50000D03*
X29000Y-49000D03*
X29000Y-47000D03*
X29000Y-48000D03*
X29000Y-45000D03*
X29000Y-46000D03*
X29000Y-44000D03*
X25000Y-43000D03*
X25000Y-44000D03*
X25000Y-46000D03*
X25000Y-45000D03*
X25000Y-48000D03*
X25000Y-47000D03*
X25000Y-49000D03*
X25000Y-50000D03*
X26000Y-50000D03*
X26000Y-49000D03*
X26000Y-47000D03*
X26000Y-48000D03*
X26000Y-45000D03*
X26000Y-46000D03*
X26000Y-44000D03*
X26000Y-43000D03*
X24000Y-43000D03*
X24000Y-44000D03*
X24000Y-46000D03*
X24000Y-45000D03*
X24000Y-48000D03*
X24000Y-47000D03*
X24000Y-49000D03*
X24000Y-50000D03*
X23000Y-50000D03*
X23000Y-49000D03*
X23000Y-47000D03*
X23000Y-48000D03*
X23000Y-45000D03*
X23000Y-46000D03*
X23000Y-44000D03*
X23000Y-43000D03*
X49000Y-16000D03*
X49000Y-17000D03*
X49000Y-19000D03*
X49000Y-18000D03*
X49000Y-21000D03*
X49000Y-20000D03*
X49000Y-22000D03*
X49000Y-23000D03*
X49000Y-27000D03*
X49000Y-26000D03*
X49000Y-24000D03*
X49000Y-25000D03*
X42000Y-25000D03*
X42000Y-24000D03*
X42000Y-26000D03*
X42000Y-27000D03*
X43000Y-27000D03*
X43000Y-26000D03*
X43000Y-24000D03*
X43000Y-25000D03*
X45000Y-25000D03*
X45000Y-24000D03*
X45000Y-26000D03*
X45000Y-27000D03*
X44000Y-27000D03*
X44000Y-26000D03*
X44000Y-24000D03*
X44000Y-25000D03*
X48000Y-25000D03*
X48000Y-24000D03*
X48000Y-26000D03*
X48000Y-27000D03*
X47000Y-25000D03*
X47000Y-24000D03*
X47000Y-26000D03*
X47000Y-27000D03*
X46000Y-27000D03*
X46000Y-26000D03*
X46000Y-24000D03*
X46000Y-25000D03*
X48000Y-16000D03*
X46000Y-16000D03*
X46000Y-17000D03*
X46000Y-19000D03*
X46000Y-18000D03*
X46000Y-21000D03*
X46000Y-20000D03*
X46000Y-22000D03*
X46000Y-23000D03*
X47000Y-23000D03*
X47000Y-22000D03*
X47000Y-20000D03*
X47000Y-21000D03*
X47000Y-18000D03*
X47000Y-19000D03*
X47000Y-17000D03*
X47000Y-16000D03*
X48000Y-23000D03*
X48000Y-22000D03*
X48000Y-20000D03*
X48000Y-21000D03*
X48000Y-18000D03*
X48000Y-19000D03*
X48000Y-17000D03*
X44000Y-16000D03*
X44000Y-17000D03*
X44000Y-19000D03*
X44000Y-18000D03*
X44000Y-21000D03*
X44000Y-20000D03*
X44000Y-22000D03*
X44000Y-23000D03*
X45000Y-23000D03*
X45000Y-22000D03*
X45000Y-20000D03*
X45000Y-21000D03*
X45000Y-18000D03*
X45000Y-19000D03*
X45000Y-17000D03*
X45000Y-16000D03*
X43000Y-16000D03*
X43000Y-17000D03*
X43000Y-19000D03*
X43000Y-18000D03*
X43000Y-21000D03*
X43000Y-20000D03*
X43000Y-22000D03*
X43000Y-23000D03*
X42000Y-23000D03*
X42000Y-22000D03*
X42000Y-20000D03*
X42000Y-21000D03*
X42000Y-18000D03*
X42000Y-19000D03*
X42000Y-17000D03*
X42000Y-16000D03*
X48000Y-29000D03*
X48000Y-28000D03*
X49000Y-28000D03*
X49000Y-29000D03*
X47000Y-28000D03*
X47000Y-29000D03*
X45000Y-28000D03*
X45000Y-29000D03*
X46000Y-29000D03*
X46000Y-28000D03*
X44000Y-28000D03*
X44000Y-29000D03*
X43000Y-29000D03*
X43000Y-28000D03*
X47000Y-35000D03*
X47000Y-36000D03*
X47000Y-38000D03*
X47000Y-37000D03*
X47000Y-40000D03*
X47000Y-39000D03*
X45000Y-35000D03*
X45000Y-36000D03*
X45000Y-38000D03*
X45000Y-37000D03*
X45000Y-40000D03*
X45000Y-39000D03*
X46000Y-39000D03*
X46000Y-40000D03*
X46000Y-37000D03*
X46000Y-38000D03*
X46000Y-36000D03*
X46000Y-35000D03*
X44000Y-35000D03*
X44000Y-36000D03*
X44000Y-38000D03*
X44000Y-37000D03*
X44000Y-40000D03*
X44000Y-39000D03*
X43000Y-39000D03*
X43000Y-40000D03*
X43000Y-37000D03*
X43000Y-38000D03*
X43000Y-36000D03*
X43000Y-35000D03*
X47000Y-32000D03*
X47000Y-33000D03*
X45000Y-32000D03*
X45000Y-33000D03*
X46000Y-33000D03*
X46000Y-32000D03*
X44000Y-32000D03*
X44000Y-33000D03*
X43000Y-33000D03*
X43000Y-32000D03*
X37000Y-36000D03*
X37000Y-35000D03*
X37000Y-34000D03*
X37000Y-38000D03*
X37000Y-37000D03*
X37000Y-39000D03*
X37000Y-40000D03*
X37000Y-33000D03*
X37000Y-32000D03*
X37000Y-23000D03*
X37000Y-24000D03*
X37000Y-31000D03*
X37000Y-30000D03*
X37000Y-28000D03*
X37000Y-29000D03*
X37000Y-25000D03*
X37000Y-26000D03*
X37000Y-27000D03*
X37000Y-21000D03*
X37000Y-20000D03*
X37000Y-19000D03*
X37000Y-22000D03*
X37000Y-18000D03*
X37000Y-17000D03*
X37000Y-16000D03*
X38000Y-16000D03*
X38000Y-17000D03*
X38000Y-18000D03*
X38000Y-22000D03*
X38000Y-19000D03*
X38000Y-20000D03*
X38000Y-21000D03*
X38000Y-27000D03*
X38000Y-26000D03*
X38000Y-25000D03*
X38000Y-29000D03*
X38000Y-28000D03*
X38000Y-30000D03*
X38000Y-31000D03*
X38000Y-24000D03*
X38000Y-23000D03*
X38000Y-32000D03*
X38000Y-33000D03*
X38000Y-39000D03*
X38000Y-37000D03*
X38000Y-38000D03*
X38000Y-34000D03*
X38000Y-35000D03*
X38000Y-36000D03*
X36000Y-36000D03*
X36000Y-35000D03*
X36000Y-34000D03*
X36000Y-38000D03*
X36000Y-37000D03*
X36000Y-39000D03*
X36000Y-40000D03*
X36000Y-33000D03*
X36000Y-32000D03*
X36000Y-23000D03*
X36000Y-24000D03*
X36000Y-31000D03*
X36000Y-30000D03*
X36000Y-28000D03*
X36000Y-29000D03*
X36000Y-25000D03*
X36000Y-26000D03*
X36000Y-27000D03*
X36000Y-21000D03*
X36000Y-20000D03*
X36000Y-19000D03*
X36000Y-22000D03*
X36000Y-18000D03*
X36000Y-17000D03*
X36000Y-16000D03*
X33000Y-16000D03*
X32000Y-16000D03*
X34000Y-16000D03*
X35000Y-16000D03*
X31000Y-16000D03*
X30000Y-16000D03*
X28000Y-16000D03*
X29000Y-16000D03*
X26000Y-16000D03*
X27000Y-16000D03*
X25000Y-16000D03*
X24000Y-16000D03*
X24000Y-18000D03*
X25000Y-18000D03*
X27000Y-18000D03*
X26000Y-18000D03*
X29000Y-18000D03*
X28000Y-18000D03*
X30000Y-18000D03*
X31000Y-18000D03*
X31000Y-17000D03*
X30000Y-17000D03*
X28000Y-17000D03*
X29000Y-17000D03*
X26000Y-17000D03*
X27000Y-17000D03*
X25000Y-17000D03*
X24000Y-17000D03*
X33000Y-17000D03*
X32000Y-17000D03*
X34000Y-17000D03*
X35000Y-17000D03*
X35000Y-18000D03*
X34000Y-18000D03*
X32000Y-18000D03*
X33000Y-18000D03*
X33000Y-22000D03*
X32000Y-22000D03*
X34000Y-22000D03*
X35000Y-22000D03*
X33000Y-19000D03*
X32000Y-19000D03*
X34000Y-19000D03*
X35000Y-19000D03*
X33000Y-20000D03*
X32000Y-20000D03*
X34000Y-20000D03*
X35000Y-20000D03*
X35000Y-21000D03*
X34000Y-21000D03*
X32000Y-21000D03*
X33000Y-21000D03*
X24000Y-19000D03*
X24000Y-21000D03*
X25000Y-21000D03*
X27000Y-21000D03*
X26000Y-21000D03*
X29000Y-21000D03*
X28000Y-21000D03*
X30000Y-21000D03*
X31000Y-21000D03*
X31000Y-20000D03*
X30000Y-20000D03*
X28000Y-20000D03*
X29000Y-20000D03*
X26000Y-20000D03*
X27000Y-20000D03*
X25000Y-20000D03*
X24000Y-20000D03*
X31000Y-19000D03*
X30000Y-19000D03*
X28000Y-19000D03*
X29000Y-19000D03*
X26000Y-19000D03*
X27000Y-19000D03*
X25000Y-19000D03*
X31000Y-22000D03*
X30000Y-22000D03*
X28000Y-22000D03*
X29000Y-22000D03*
X26000Y-22000D03*
X27000Y-22000D03*
X25000Y-22000D03*
X24000Y-22000D03*
X24000Y-31000D03*
X25000Y-31000D03*
X27000Y-31000D03*
X26000Y-31000D03*
X29000Y-31000D03*
X28000Y-31000D03*
X30000Y-31000D03*
X31000Y-31000D03*
X31000Y-30000D03*
X30000Y-30000D03*
X28000Y-30000D03*
X29000Y-30000D03*
X26000Y-30000D03*
X27000Y-30000D03*
X25000Y-30000D03*
X24000Y-30000D03*
X24000Y-28000D03*
X25000Y-28000D03*
X27000Y-28000D03*
X26000Y-28000D03*
X29000Y-28000D03*
X28000Y-28000D03*
X30000Y-28000D03*
X31000Y-28000D03*
X31000Y-29000D03*
X30000Y-29000D03*
X28000Y-29000D03*
X29000Y-29000D03*
X26000Y-29000D03*
X27000Y-29000D03*
X25000Y-29000D03*
X24000Y-29000D03*
X25000Y-25000D03*
X27000Y-25000D03*
X26000Y-25000D03*
X29000Y-25000D03*
X28000Y-25000D03*
X30000Y-25000D03*
X31000Y-25000D03*
X24000Y-26000D03*
X25000Y-26000D03*
X27000Y-26000D03*
X26000Y-26000D03*
X29000Y-26000D03*
X28000Y-26000D03*
X30000Y-26000D03*
X31000Y-26000D03*
X31000Y-27000D03*
X30000Y-27000D03*
X28000Y-27000D03*
X29000Y-27000D03*
X26000Y-27000D03*
X27000Y-27000D03*
X25000Y-27000D03*
X24000Y-27000D03*
X24000Y-25000D03*
X33000Y-27000D03*
X32000Y-27000D03*
X34000Y-27000D03*
X35000Y-27000D03*
X35000Y-26000D03*
X34000Y-26000D03*
X32000Y-26000D03*
X33000Y-26000D03*
X35000Y-25000D03*
X34000Y-25000D03*
X32000Y-25000D03*
X33000Y-25000D03*
X33000Y-29000D03*
X32000Y-29000D03*
X34000Y-29000D03*
X35000Y-29000D03*
X35000Y-28000D03*
X34000Y-28000D03*
X32000Y-28000D03*
X33000Y-28000D03*
X33000Y-30000D03*
X32000Y-30000D03*
X34000Y-30000D03*
X35000Y-30000D03*
X35000Y-31000D03*
X34000Y-31000D03*
X32000Y-31000D03*
X33000Y-31000D03*
X33000Y-24000D03*
X32000Y-24000D03*
X34000Y-24000D03*
X35000Y-24000D03*
X35000Y-23000D03*
X34000Y-23000D03*
X32000Y-23000D03*
X33000Y-23000D03*
X24000Y-23000D03*
X25000Y-23000D03*
X27000Y-23000D03*
X26000Y-23000D03*
X29000Y-23000D03*
X28000Y-23000D03*
X30000Y-23000D03*
X31000Y-23000D03*
X31000Y-24000D03*
X30000Y-24000D03*
X28000Y-24000D03*
X29000Y-24000D03*
X26000Y-24000D03*
X27000Y-24000D03*
X25000Y-24000D03*
X24000Y-24000D03*
X24000Y-33000D03*
X25000Y-33000D03*
X27000Y-33000D03*
X26000Y-33000D03*
X29000Y-33000D03*
X28000Y-33000D03*
X30000Y-33000D03*
X31000Y-33000D03*
X31000Y-32000D03*
X30000Y-32000D03*
X28000Y-32000D03*
X29000Y-32000D03*
X26000Y-32000D03*
X27000Y-32000D03*
X25000Y-32000D03*
X24000Y-32000D03*
X33000Y-32000D03*
X32000Y-32000D03*
X34000Y-32000D03*
X35000Y-32000D03*
X35000Y-33000D03*
X34000Y-33000D03*
X32000Y-33000D03*
X33000Y-33000D03*
X33000Y-40000D03*
X32000Y-40000D03*
X34000Y-40000D03*
X35000Y-40000D03*
X35000Y-39000D03*
X34000Y-39000D03*
X32000Y-39000D03*
X33000Y-39000D03*
X33000Y-37000D03*
X32000Y-37000D03*
X34000Y-37000D03*
X35000Y-37000D03*
X35000Y-38000D03*
X34000Y-38000D03*
X32000Y-38000D03*
X33000Y-38000D03*
X33000Y-34000D03*
X32000Y-34000D03*
X34000Y-34000D03*
X35000Y-34000D03*
X33000Y-35000D03*
X32000Y-35000D03*
X34000Y-35000D03*
X35000Y-35000D03*
X35000Y-36000D03*
X34000Y-36000D03*
X32000Y-36000D03*
X33000Y-36000D03*
X24000Y-34000D03*
X24000Y-36000D03*
X25000Y-36000D03*
X27000Y-36000D03*
X26000Y-36000D03*
X29000Y-36000D03*
X28000Y-36000D03*
X30000Y-36000D03*
X31000Y-36000D03*
X31000Y-35000D03*
X30000Y-35000D03*
X28000Y-35000D03*
X29000Y-35000D03*
X26000Y-35000D03*
X27000Y-35000D03*
X25000Y-35000D03*
X24000Y-35000D03*
X31000Y-34000D03*
X30000Y-34000D03*
X28000Y-34000D03*
X29000Y-34000D03*
X26000Y-34000D03*
X27000Y-34000D03*
X25000Y-34000D03*
X24000Y-38000D03*
X25000Y-38000D03*
X27000Y-38000D03*
X26000Y-38000D03*
X29000Y-38000D03*
X28000Y-38000D03*
X30000Y-38000D03*
X31000Y-38000D03*
X31000Y-37000D03*
X30000Y-37000D03*
X28000Y-37000D03*
X29000Y-37000D03*
X26000Y-37000D03*
X27000Y-37000D03*
X25000Y-37000D03*
X24000Y-37000D03*
X24000Y-39000D03*
X25000Y-39000D03*
X27000Y-39000D03*
X26000Y-39000D03*
X29000Y-39000D03*
X28000Y-39000D03*
X30000Y-39000D03*
X31000Y-39000D03*
X31000Y-40000D03*
X30000Y-40000D03*
X28000Y-40000D03*
X29000Y-40000D03*
X26000Y-40000D03*
X25000Y-40000D03*
X24000Y-40000D03*
M02*
