G04 (Genere par PCBNEW (2007-11-29-a)) le 1/9/2008-08:40:19*
G01*
G70*
G90*
%MOIN*%
G04 Gerber Fmt 3.4, Leading zero omitted, Abs format*
%FSLAX34Y34*%
G04 APERTURE LIST*
%ADD10C,0.143700*%
%ADD11R,0.059100X0.059100*%
%ADD12C,0.059100*%
%ADD13R,0.055000X0.055000*%
%ADD14C,0.055000*%
%ADD15R,0.060000X0.060000*%
%ADD16C,0.060000*%
%ADD17C,0.045000*%
%ADD18C,0.017000*%
G04 APERTURE END LIST*
G54D10*
X52838Y-57000D03*
X48165Y-57000D03*
G54D11*
X48750Y-54500D03*
G54D12*
X49250Y-53500D03*
X49750Y-54500D03*
X50250Y-53500D03*
X50750Y-54500D03*
X51250Y-53500D03*
X51750Y-54500D03*
X52250Y-53500D03*
G54D10*
X43838Y-57000D03*
X39165Y-57000D03*
G54D11*
X39750Y-54500D03*
G54D12*
X40250Y-53500D03*
X40750Y-54500D03*
X41250Y-53500D03*
X41750Y-54500D03*
X42250Y-53500D03*
X42750Y-54500D03*
X43250Y-53500D03*
G54D10*
X34838Y-57000D03*
X30165Y-57000D03*
G54D11*
X30750Y-54500D03*
G54D12*
X31250Y-53500D03*
X31750Y-54500D03*
X32250Y-53500D03*
X32750Y-54500D03*
X33250Y-53500D03*
X33750Y-54500D03*
X34250Y-53500D03*
G54D10*
X25838Y-57000D03*
X21165Y-57000D03*
G54D11*
X21750Y-54500D03*
G54D12*
X22250Y-53500D03*
X22750Y-54500D03*
X23250Y-53500D03*
X23750Y-54500D03*
X24250Y-53500D03*
X24750Y-54500D03*
X25250Y-53500D03*
G54D13*
X32000Y-17500D03*
G54D14*
X32000Y-18500D03*
X32000Y-19500D03*
X32000Y-20500D03*
X32000Y-21500D03*
X32000Y-22500D03*
X32000Y-23500D03*
X32000Y-24500D03*
X32000Y-25500D03*
X32000Y-26500D03*
X32000Y-27500D03*
X32000Y-28500D03*
G54D13*
X31000Y-17500D03*
G54D14*
X31000Y-18500D03*
X31000Y-19500D03*
X31000Y-20500D03*
X31000Y-21500D03*
X31000Y-22500D03*
X31000Y-23500D03*
X31000Y-24500D03*
X31000Y-25500D03*
X31000Y-26500D03*
X31000Y-27500D03*
X31000Y-28500D03*
G54D13*
X47500Y-29000D03*
G54D14*
X47500Y-30000D03*
X47500Y-31000D03*
X47500Y-32000D03*
X47500Y-33000D03*
X47500Y-34000D03*
G54D13*
X47500Y-36000D03*
G54D14*
X47500Y-37000D03*
X47500Y-38000D03*
X47500Y-39000D03*
X47500Y-40000D03*
X47500Y-41000D03*
G54D13*
X46500Y-29000D03*
G54D14*
X46500Y-30000D03*
X46500Y-31000D03*
X46500Y-32000D03*
X46500Y-33000D03*
X46500Y-34000D03*
G54D13*
X46500Y-36000D03*
G54D14*
X46500Y-37000D03*
X46500Y-38000D03*
X46500Y-39000D03*
X46500Y-40000D03*
X46500Y-41000D03*
G54D13*
X41000Y-20500D03*
G54D14*
X41000Y-21500D03*
X41000Y-22500D03*
X41000Y-23500D03*
X41000Y-24500D03*
X41000Y-25500D03*
X41000Y-26500D03*
G54D13*
X42000Y-20500D03*
G54D14*
X42000Y-21500D03*
X42000Y-22500D03*
X42000Y-23500D03*
X42000Y-24500D03*
X42000Y-25500D03*
X42000Y-26500D03*
G54D13*
X32000Y-29500D03*
G54D14*
X32000Y-30500D03*
X32000Y-31500D03*
X32000Y-32500D03*
X32000Y-33500D03*
X32000Y-34500D03*
X32000Y-35500D03*
G54D13*
X31000Y-29500D03*
G54D14*
X31000Y-30500D03*
X31000Y-31500D03*
X31000Y-32500D03*
X31000Y-33500D03*
X31000Y-34500D03*
X31000Y-35500D03*
G54D13*
X27500Y-25500D03*
G54D14*
X27500Y-26500D03*
X27500Y-27500D03*
X27500Y-28500D03*
X27500Y-29500D03*
X27500Y-30500D03*
X27500Y-31500D03*
X27500Y-32500D03*
G54D13*
X27500Y-34000D03*
G54D14*
X27500Y-35000D03*
X27500Y-36000D03*
X27500Y-37000D03*
X27500Y-38000D03*
X27500Y-39000D03*
X27500Y-40000D03*
X27500Y-41000D03*
G54D13*
X26500Y-25500D03*
G54D14*
X26500Y-26500D03*
X26500Y-27500D03*
X26500Y-28500D03*
X26500Y-29500D03*
X26500Y-30500D03*
X26500Y-31500D03*
X26500Y-32500D03*
G54D13*
X26500Y-34000D03*
G54D14*
X26500Y-35000D03*
X26500Y-36000D03*
X26500Y-37000D03*
X26500Y-38000D03*
X26500Y-39000D03*
X26500Y-40000D03*
X26500Y-41000D03*
G54D13*
X47000Y-50000D03*
G54D14*
X48000Y-50000D03*
X49000Y-50000D03*
X50000Y-50000D03*
X51000Y-50000D03*
X52000Y-50000D03*
X53000Y-50000D03*
X54000Y-50000D03*
G54D13*
X38000Y-50000D03*
G54D14*
X39000Y-50000D03*
X40000Y-50000D03*
X41000Y-50000D03*
X42000Y-50000D03*
X43000Y-50000D03*
X44000Y-50000D03*
X45000Y-50000D03*
G54D13*
X29000Y-50000D03*
G54D14*
X30000Y-50000D03*
X31000Y-50000D03*
X32000Y-50000D03*
X33000Y-50000D03*
X34000Y-50000D03*
X35000Y-50000D03*
X36000Y-50000D03*
G54D13*
X20000Y-50000D03*
G54D14*
X21000Y-50000D03*
X22000Y-50000D03*
X23000Y-50000D03*
X24000Y-50000D03*
X25000Y-50000D03*
X26000Y-50000D03*
X27000Y-50000D03*
G54D15*
X31000Y-38000D03*
G54D16*
X32000Y-38000D03*
X31000Y-39000D03*
X32000Y-39000D03*
X31000Y-40000D03*
X32000Y-40000D03*
X31000Y-41000D03*
X32000Y-41000D03*
X31000Y-42000D03*
X32000Y-42000D03*
X31000Y-43000D03*
X32000Y-43000D03*
X31000Y-44000D03*
X32000Y-44000D03*
X31000Y-45000D03*
X32000Y-45000D03*
G54D15*
X33000Y-38000D03*
G54D16*
X34000Y-38000D03*
X33000Y-39000D03*
X34000Y-39000D03*
X33000Y-40000D03*
X34000Y-40000D03*
X33000Y-41000D03*
X34000Y-41000D03*
X33000Y-42000D03*
X34000Y-42000D03*
X33000Y-43000D03*
X34000Y-43000D03*
X33000Y-44000D03*
X34000Y-44000D03*
X33000Y-45000D03*
X34000Y-45000D03*
G54D15*
X35000Y-38000D03*
G54D16*
X36000Y-38000D03*
X35000Y-39000D03*
X36000Y-39000D03*
X35000Y-40000D03*
X36000Y-40000D03*
X35000Y-41000D03*
X36000Y-41000D03*
X35000Y-42000D03*
X36000Y-42000D03*
X35000Y-43000D03*
X36000Y-43000D03*
X35000Y-44000D03*
X36000Y-44000D03*
X35000Y-45000D03*
X36000Y-45000D03*
G54D15*
X37000Y-38000D03*
G54D16*
X38000Y-38000D03*
X37000Y-39000D03*
X38000Y-39000D03*
X37000Y-40000D03*
X38000Y-40000D03*
X37000Y-41000D03*
X38000Y-41000D03*
X37000Y-42000D03*
X38000Y-42000D03*
X37000Y-43000D03*
X38000Y-43000D03*
X37000Y-44000D03*
X38000Y-44000D03*
X37000Y-45000D03*
X38000Y-45000D03*
G54D15*
X39000Y-38000D03*
G54D16*
X40000Y-38000D03*
X39000Y-39000D03*
X40000Y-39000D03*
X39000Y-40000D03*
X40000Y-40000D03*
X39000Y-41000D03*
X40000Y-41000D03*
X39000Y-42000D03*
X40000Y-42000D03*
X39000Y-43000D03*
X40000Y-43000D03*
X39000Y-44000D03*
X40000Y-44000D03*
X39000Y-45000D03*
X40000Y-45000D03*
G54D15*
X41000Y-38000D03*
G54D16*
X42000Y-38000D03*
X41000Y-39000D03*
X42000Y-39000D03*
X41000Y-40000D03*
X42000Y-40000D03*
X41000Y-41000D03*
X42000Y-41000D03*
X41000Y-42000D03*
X42000Y-42000D03*
X41000Y-43000D03*
X42000Y-43000D03*
X41000Y-44000D03*
X42000Y-44000D03*
X41000Y-45000D03*
X42000Y-45000D03*
G54D15*
X43000Y-38000D03*
G54D16*
X44000Y-38000D03*
X43000Y-39000D03*
X44000Y-39000D03*
X43000Y-40000D03*
X44000Y-40000D03*
X43000Y-41000D03*
X44000Y-41000D03*
X43000Y-42000D03*
X44000Y-42000D03*
X43000Y-43000D03*
X44000Y-43000D03*
X43000Y-44000D03*
X44000Y-44000D03*
X43000Y-45000D03*
X44000Y-45000D03*
G54D17*
X30000Y-49000D03*
G54D18*
X48750Y-54500D02*
X48750Y-51750D01*
X48750Y-51750D02*
X47000Y-50000D01*
X39750Y-54500D02*
X39750Y-51750D01*
X39750Y-51750D02*
X38000Y-50000D01*
X30750Y-54500D02*
X30750Y-51750D01*
X30750Y-51750D02*
X29000Y-50000D01*
X21750Y-51750D02*
X20000Y-50000D01*
X31000Y-20500D02*
X32000Y-20500D01*
X46500Y-31000D02*
X47500Y-31000D01*
X21750Y-54500D02*
X21750Y-51750D01*
X21750Y-51750D02*
X20000Y-50000D01*
X20000Y-50000D02*
X20000Y-48500D01*
X29000Y-48500D02*
X29000Y-49500D01*
X29000Y-49500D02*
X29000Y-50000D01*
X28500Y-48000D02*
X29000Y-48500D01*
X20500Y-48000D02*
X28500Y-48000D01*
X20000Y-48500D02*
X20500Y-48000D01*
X29000Y-48500D02*
X29500Y-48000D01*
X38000Y-48500D02*
X38000Y-50000D01*
X37500Y-48000D02*
X38000Y-48500D01*
X29500Y-48000D02*
X37500Y-48000D01*
X38000Y-48500D02*
X38500Y-48000D01*
X47000Y-48500D02*
X47000Y-50000D01*
X46500Y-48000D02*
X47000Y-48500D01*
X38500Y-48000D02*
X46500Y-48000D01*
X29000Y-45500D02*
X29000Y-21500D01*
X29000Y-48500D02*
X29000Y-45500D01*
X29000Y-21500D02*
X29000Y-21000D01*
X29000Y-21000D02*
X29500Y-20500D01*
X29500Y-20500D02*
X31000Y-20500D01*
X47000Y-48500D02*
X47500Y-48000D01*
X48000Y-31000D02*
X47500Y-31000D01*
X48500Y-31500D02*
X48000Y-31000D01*
X48500Y-47500D02*
X48500Y-31500D01*
X48000Y-48000D02*
X48500Y-47500D01*
X47500Y-48000D02*
X48000Y-48000D01*
X49250Y-53500D02*
X49250Y-51250D01*
X49250Y-51250D02*
X48000Y-50000D01*
X40250Y-53500D02*
X40250Y-51250D01*
X40250Y-51250D02*
X39000Y-50000D01*
X31250Y-53500D02*
X31250Y-51250D01*
X31250Y-51250D02*
X30000Y-50000D01*
X22250Y-53500D02*
X22250Y-51250D01*
X22250Y-51250D02*
X21000Y-50000D01*
X32000Y-19500D02*
X31000Y-19500D01*
X46500Y-32000D02*
X47500Y-32000D01*
X46500Y-33000D02*
X47500Y-33000D01*
X30000Y-50000D02*
X30000Y-49000D01*
X49750Y-54500D02*
X49750Y-50750D01*
X49750Y-50750D02*
X49000Y-50000D01*
X50250Y-53500D02*
X50250Y-50250D01*
X50250Y-50250D02*
X50000Y-50000D01*
X50750Y-54500D02*
X50750Y-50250D01*
X50750Y-50250D02*
X51000Y-50000D01*
X51250Y-53500D02*
X51250Y-50750D01*
X51250Y-50750D02*
X52000Y-50000D01*
X51750Y-54500D02*
X51750Y-51250D01*
X51750Y-51250D02*
X53000Y-50000D01*
X52250Y-53500D02*
X52250Y-51750D01*
X52250Y-51750D02*
X54000Y-50000D01*
X40750Y-54500D02*
X40750Y-50750D01*
X40750Y-50750D02*
X40000Y-50000D01*
X41250Y-53500D02*
X41250Y-50250D01*
X41250Y-50250D02*
X41000Y-50000D01*
X41750Y-54500D02*
X41750Y-50250D01*
X41750Y-50250D02*
X42000Y-50000D01*
X42250Y-53500D02*
X42250Y-50750D01*
X42250Y-50750D02*
X43000Y-50000D01*
X42750Y-54500D02*
X42750Y-51250D01*
X42750Y-51250D02*
X44000Y-50000D01*
X43250Y-53500D02*
X43250Y-51750D01*
X43250Y-51750D02*
X45000Y-50000D01*
X31750Y-54500D02*
X31750Y-50750D01*
X31750Y-50750D02*
X31000Y-50000D01*
X32250Y-53500D02*
X32250Y-50250D01*
X32250Y-50250D02*
X32000Y-50000D01*
X32750Y-54500D02*
X32750Y-50250D01*
X32750Y-50250D02*
X33000Y-50000D01*
X33250Y-53500D02*
X33250Y-50750D01*
X33250Y-50750D02*
X34000Y-50000D01*
X33750Y-54500D02*
X33750Y-51250D01*
X33750Y-51250D02*
X35000Y-50000D01*
X34250Y-53500D02*
X34250Y-51750D01*
X34250Y-51750D02*
X36000Y-50000D01*
X22750Y-54500D02*
X22750Y-50750D01*
X22750Y-50750D02*
X22000Y-50000D01*
X23250Y-53500D02*
X23250Y-50250D01*
X23250Y-50250D02*
X23000Y-50000D01*
X23750Y-54500D02*
X23750Y-50250D01*
X23750Y-50250D02*
X24000Y-50000D01*
X24250Y-53500D02*
X24250Y-50750D01*
X24250Y-50750D02*
X25000Y-50000D01*
X24750Y-54500D02*
X24750Y-51250D01*
X24750Y-51250D02*
X26000Y-50000D01*
X25250Y-53500D02*
X25250Y-51750D01*
X25250Y-51750D02*
X27000Y-50000D01*
X31000Y-17500D02*
X32000Y-17500D01*
X31000Y-18500D02*
X32000Y-18500D01*
X31000Y-21500D02*
X32000Y-21500D01*
X31000Y-22500D02*
X32000Y-22500D01*
X31000Y-23500D02*
X32000Y-23500D01*
X31000Y-24500D02*
X32000Y-24500D01*
X31000Y-25500D02*
X32000Y-25500D01*
X31000Y-26500D02*
X32000Y-26500D01*
X31000Y-27500D02*
X32000Y-27500D01*
X31000Y-28500D02*
X32000Y-28500D01*
X46500Y-29000D02*
X47500Y-29000D01*
X46500Y-30000D02*
X47500Y-30000D01*
X46500Y-34000D02*
X47500Y-34000D01*
X46500Y-36000D02*
X47500Y-36000D01*
X46500Y-37000D02*
X47500Y-37000D01*
X46500Y-38000D02*
X47500Y-38000D01*
X46500Y-39000D02*
X47500Y-39000D01*
X46500Y-40000D02*
X47500Y-40000D01*
X46500Y-41000D02*
X47500Y-41000D01*
X31000Y-29500D02*
X32000Y-29500D01*
X41000Y-20500D02*
X42000Y-20500D01*
X32000Y-29500D02*
X32500Y-29500D01*
X33500Y-20500D02*
X41000Y-20500D01*
X33000Y-21000D02*
X33500Y-20500D01*
X33000Y-29000D02*
X33000Y-21000D01*
X32500Y-29500D02*
X33000Y-29000D01*
X31000Y-30500D02*
X32000Y-30500D01*
X41000Y-21500D02*
X42000Y-21500D01*
X32000Y-30500D02*
X33000Y-30500D01*
X34000Y-21500D02*
X41000Y-21500D01*
X33500Y-22000D02*
X34000Y-21500D01*
X33500Y-30000D02*
X33500Y-22000D01*
X33000Y-30500D02*
X33500Y-30000D01*
X31000Y-31500D02*
X32000Y-31500D01*
X41000Y-22500D02*
X42000Y-22500D01*
X32000Y-31500D02*
X33500Y-31500D01*
X34500Y-22500D02*
X41000Y-22500D01*
X34000Y-23000D02*
X34500Y-22500D01*
X34000Y-31000D02*
X34000Y-23000D01*
X33500Y-31500D02*
X34000Y-31000D01*
X31000Y-32500D02*
X32000Y-32500D01*
X41000Y-23500D02*
X42000Y-23500D01*
X32000Y-32500D02*
X34000Y-32500D01*
X35000Y-23500D02*
X41000Y-23500D01*
X34500Y-24000D02*
X35000Y-23500D01*
X34500Y-32000D02*
X34500Y-24000D01*
X34000Y-32500D02*
X34500Y-32000D01*
X31000Y-33500D02*
X32000Y-33500D01*
X41000Y-24500D02*
X42000Y-24500D01*
X32000Y-33500D02*
X34500Y-33500D01*
X35500Y-24500D02*
X41000Y-24500D01*
X35000Y-25000D02*
X35500Y-24500D01*
X35000Y-33000D02*
X35000Y-25000D01*
X34500Y-33500D02*
X35000Y-33000D01*
X31000Y-34500D02*
X32000Y-34500D01*
X41000Y-25500D02*
X42000Y-25500D01*
X32000Y-34500D02*
X35000Y-34500D01*
X36000Y-25500D02*
X41000Y-25500D01*
X35500Y-26000D02*
X36000Y-25500D01*
X35500Y-34000D02*
X35500Y-26000D01*
X35000Y-34500D02*
X35500Y-34000D01*
X31000Y-35500D02*
X32000Y-35500D01*
X41000Y-26500D02*
X42000Y-26500D01*
X32000Y-35500D02*
X35500Y-35500D01*
X36500Y-26500D02*
X41000Y-26500D01*
X36000Y-27000D02*
X36500Y-26500D01*
X36000Y-27500D02*
X36000Y-27000D01*
X36000Y-35000D02*
X36000Y-27500D01*
X35500Y-35500D02*
X36000Y-35000D01*
X26500Y-25500D02*
X27500Y-25500D01*
X26500Y-26500D02*
X27500Y-26500D01*
X26500Y-27500D02*
X27500Y-27500D01*
X27500Y-28500D02*
X26500Y-28500D01*
X26500Y-29500D02*
X27500Y-29500D01*
X27500Y-30500D02*
X26500Y-30500D01*
X26500Y-31500D02*
X27500Y-31500D01*
X27500Y-32500D02*
X26500Y-32500D01*
X26500Y-34000D02*
X27500Y-34000D01*
X27500Y-35000D02*
X26500Y-35000D01*
X26500Y-36000D02*
X27500Y-36000D01*
X27500Y-37000D02*
X26500Y-37000D01*
X26500Y-38000D02*
X27500Y-38000D01*
X27500Y-39000D02*
X26500Y-39000D01*
X26500Y-40000D02*
X27500Y-40000D01*
X27500Y-41000D02*
X26500Y-41000D01*
M02*
