G75*
G70*
%OFA0B0*%
%FSLAX24Y24*%
%IPPOS*%
%LPD*%
%AMOC8*
5,1,8,0,0,1.08239X$1,22.5*
%
%ADD10C,0.0100*%
%ADD11OC8,0.0560*%
%ADD12OC8,0.0640*%
%ADD13OC8,0.0594*%
%ADD14C,0.0590*%
%ADD15R,0.0640X0.0640*%
%ADD16C,0.0640*%
%ADD17C,0.0160*%
D10*
X003351Y004453D02*
X003725Y004453D01*
X003351Y004827D01*
X003351Y004920D01*
X003445Y005013D01*
X003631Y005013D01*
X003725Y004920D01*
X003959Y004827D02*
X004146Y004453D01*
X004332Y004827D01*
X005166Y004827D02*
X005260Y004827D01*
X005447Y004640D01*
X005447Y004453D02*
X005447Y004827D01*
X005681Y004733D02*
X005681Y004546D01*
X005774Y004453D01*
X005961Y004453D01*
X006054Y004546D01*
X006054Y004733D01*
X005961Y004827D01*
X005774Y004827D01*
X005681Y004733D01*
X006288Y004827D02*
X006569Y004827D01*
X006662Y004733D01*
X006569Y004640D01*
X006382Y004640D01*
X006288Y004546D01*
X006382Y004453D01*
X006662Y004453D01*
X006896Y004453D02*
X006896Y004733D01*
X006990Y004827D01*
X007270Y004827D01*
X007270Y004453D01*
X007504Y004640D02*
X007877Y004640D01*
X007877Y004733D02*
X007784Y004827D01*
X007597Y004827D01*
X007504Y004733D01*
X007504Y004640D01*
X007597Y004453D02*
X007784Y004453D01*
X007877Y004546D01*
X007877Y004733D01*
X008112Y004827D02*
X008392Y004827D01*
X008485Y004733D01*
X008392Y004640D01*
X008205Y004640D01*
X008112Y004546D01*
X008205Y004453D01*
X008485Y004453D01*
X009319Y004827D02*
X009413Y004827D01*
X009599Y004640D01*
X009599Y004453D02*
X009599Y004827D01*
X009833Y004733D02*
X009833Y004640D01*
X010207Y004640D01*
X010207Y004733D02*
X010114Y004827D01*
X009927Y004827D01*
X009833Y004733D01*
X009927Y004453D02*
X010114Y004453D01*
X010207Y004546D01*
X010207Y004733D01*
X010425Y004453D02*
X010612Y004453D01*
X010519Y004453D02*
X010519Y005013D01*
X010612Y005013D01*
X010830Y004453D02*
X011017Y004453D01*
X010924Y004453D02*
X010924Y005013D01*
X011017Y005013D01*
X011251Y004733D02*
X011251Y004546D01*
X011345Y004453D01*
X011532Y004453D01*
X011625Y004546D01*
X011625Y004733D01*
X011532Y004827D01*
X011345Y004827D01*
X011251Y004733D01*
X011851Y004827D02*
X011945Y004827D01*
X012131Y004640D01*
X012131Y004453D02*
X012131Y004827D01*
X012181Y005703D02*
X012181Y007153D01*
X009681Y009653D01*
X009681Y009153D02*
X009181Y009153D01*
X008681Y009653D01*
X008431Y008903D02*
X007681Y009653D01*
X006681Y009653D02*
X007681Y008653D01*
X009181Y008653D01*
X010681Y007153D01*
X010681Y006703D01*
X011181Y007153D02*
X009431Y008903D01*
X008431Y008903D01*
X008931Y008403D02*
X006931Y008403D01*
X005681Y009653D01*
X006281Y013453D02*
X006187Y013546D01*
X006281Y013640D01*
X006467Y013640D01*
X006561Y013733D01*
X006467Y013827D01*
X006187Y013827D01*
X006281Y013453D02*
X006561Y013453D01*
X006779Y013453D02*
X006872Y013546D01*
X006872Y013920D01*
X006779Y013827D02*
X006966Y013827D01*
X007200Y013733D02*
X007200Y013453D01*
X007200Y013733D02*
X007293Y013827D01*
X007574Y013827D01*
X007574Y013453D01*
X007792Y013453D02*
X007979Y013453D01*
X007885Y013453D02*
X007885Y013827D01*
X007979Y013827D01*
X007885Y014013D02*
X007885Y014107D01*
X008205Y013827D02*
X008298Y013827D01*
X008485Y013640D01*
X008485Y013453D02*
X008485Y013827D01*
X008719Y013733D02*
X008719Y013546D01*
X008813Y013453D01*
X009093Y013453D01*
X009093Y013266D02*
X009093Y013827D01*
X008813Y013827D01*
X008719Y013733D01*
X009327Y013640D02*
X009327Y013546D01*
X009420Y013453D01*
X009607Y013453D01*
X009701Y013546D01*
X009607Y013733D02*
X009701Y013827D01*
X009701Y013920D01*
X009607Y014013D01*
X009420Y014013D01*
X009327Y013920D01*
X009420Y013733D02*
X009327Y013640D01*
X009420Y013733D02*
X009607Y013733D01*
X009935Y013733D02*
X009935Y013453D01*
X009935Y013733D02*
X010028Y013827D01*
X010308Y013827D01*
X010308Y013453D01*
X010542Y013640D02*
X010916Y013640D01*
X010916Y013733D02*
X010823Y013827D01*
X010636Y013827D01*
X010542Y013733D01*
X010542Y013640D01*
X010636Y013453D02*
X010823Y013453D01*
X010916Y013546D01*
X010916Y013733D01*
X011150Y013733D02*
X011150Y013546D01*
X011243Y013453D01*
X011524Y013453D01*
X011524Y013266D02*
X011524Y013827D01*
X011243Y013827D01*
X011150Y013733D01*
X011758Y013546D02*
X011758Y013920D01*
X011851Y014013D01*
X012038Y014013D01*
X012131Y013920D01*
X012131Y013546D01*
X012038Y013453D01*
X011851Y013453D01*
X011758Y013546D01*
X010681Y009653D02*
X012681Y007653D01*
X012681Y006703D01*
X011681Y006703D02*
X011681Y007153D01*
X009681Y009153D01*
X008931Y008403D02*
X010181Y007153D01*
X010181Y005703D01*
X011181Y005703D02*
X011181Y007153D01*
X011150Y002513D02*
X011337Y002513D01*
X011243Y002513D02*
X011243Y002046D01*
X011337Y001953D01*
X011430Y001953D01*
X011524Y002046D01*
X011758Y001953D02*
X012131Y001953D01*
X012131Y002513D01*
X010916Y002420D02*
X010916Y002046D01*
X010823Y001953D01*
X010636Y001953D01*
X010542Y002046D01*
X010542Y002420D01*
X010636Y002513D01*
X010823Y002513D01*
X010916Y002420D01*
X009701Y002420D02*
X009607Y002513D01*
X009420Y002513D01*
X009327Y002420D01*
X009327Y002327D01*
X009701Y001953D01*
X009327Y001953D01*
X009093Y002046D02*
X008719Y002420D01*
X008719Y002046D01*
X008813Y001953D01*
X008999Y001953D01*
X009093Y002046D01*
X009093Y002420D01*
X008999Y002513D01*
X008813Y002513D01*
X008719Y002420D01*
X008485Y002420D02*
X008392Y002513D01*
X008205Y002513D01*
X008111Y002420D01*
X008485Y002046D01*
X008392Y001953D01*
X008205Y001953D01*
X008111Y002046D01*
X008111Y002420D01*
X007877Y002420D02*
X007877Y002327D01*
X007784Y002233D01*
X007597Y002233D01*
X007504Y002140D01*
X007504Y002046D01*
X007597Y001953D01*
X007784Y001953D01*
X007877Y002046D01*
X007877Y002140D01*
X007784Y002233D01*
X007877Y002420D02*
X007784Y002513D01*
X007597Y002513D01*
X007504Y002420D01*
X007504Y002327D01*
X007597Y002233D01*
X007270Y002046D02*
X007270Y001953D01*
X007176Y001953D01*
X007176Y002046D01*
X007270Y002046D01*
X006966Y001953D02*
X006592Y001953D01*
X006358Y001953D02*
X005984Y002327D01*
X005984Y002420D01*
X006078Y002513D01*
X006265Y002513D01*
X006358Y002420D01*
X006779Y002513D02*
X006779Y001953D01*
X006966Y002327D02*
X006779Y002513D01*
X006358Y001953D02*
X005984Y001953D01*
X005750Y001953D02*
X005750Y002046D01*
X005657Y002046D01*
X005657Y001953D01*
X005750Y001953D01*
X005447Y002046D02*
X005447Y002420D01*
X005353Y002513D01*
X005166Y002513D01*
X005073Y002420D01*
X005447Y002046D01*
X005353Y001953D01*
X005166Y001953D01*
X005073Y002046D01*
X005073Y002420D01*
X004839Y002420D02*
X004839Y002327D01*
X004745Y002233D01*
X004559Y002233D01*
X004465Y002140D01*
X004465Y002046D01*
X004559Y001953D01*
X004745Y001953D01*
X004839Y002046D01*
X004839Y002140D01*
X004745Y002233D01*
X004839Y002420D02*
X004745Y002513D01*
X004559Y002513D01*
X004465Y002420D01*
X004465Y002327D01*
X004559Y002233D01*
X008485Y002046D02*
X008485Y002420D01*
X006931Y020153D02*
X011181Y020153D01*
X011681Y020653D01*
X012681Y021153D02*
X008181Y021153D01*
X007931Y020903D01*
X007681Y021153D01*
X001681Y021153D01*
X001181Y020653D01*
X006431Y020653D02*
X006931Y020153D01*
X007931Y020653D02*
X007931Y020903D01*
X012681Y021153D02*
X013181Y020653D01*
D11*
X007681Y017653D03*
X006681Y017653D03*
X006431Y019653D03*
X007431Y019653D03*
X011681Y012153D03*
X011681Y011153D03*
D12*
X013181Y013653D03*
X013181Y008653D03*
X001181Y008653D03*
X001181Y013653D03*
D13*
X001181Y019153D03*
X001181Y019903D03*
X001181Y020653D03*
X006431Y020653D03*
X007181Y020653D03*
X007931Y020653D03*
X011681Y020653D03*
X012431Y020653D03*
X013181Y020653D03*
D14*
X013181Y019653D03*
X013181Y018653D03*
X013181Y017653D03*
X013181Y016653D03*
X013181Y015653D03*
X013181Y014653D03*
X012181Y014653D03*
X012181Y015653D03*
X012181Y016653D03*
X012181Y017653D03*
X012181Y018653D03*
X012181Y019653D03*
X011181Y019653D03*
X011181Y018653D03*
X011181Y017653D03*
X011181Y016653D03*
X011181Y015653D03*
X011181Y014653D03*
X010181Y014653D03*
X010181Y015653D03*
X010181Y016653D03*
X010181Y017653D03*
X010181Y018653D03*
X010181Y019653D03*
X010181Y020653D03*
X009181Y020653D03*
X009181Y019653D03*
X009181Y018653D03*
X009181Y017653D03*
X009181Y016653D03*
X009181Y015653D03*
X009181Y014653D03*
X005181Y014653D03*
X005181Y015653D03*
X005181Y016653D03*
X005181Y017653D03*
X005181Y018653D03*
X005181Y019653D03*
X005181Y020653D03*
X004181Y020653D03*
X004181Y019653D03*
X004181Y018653D03*
X004181Y017653D03*
X004181Y016653D03*
X004181Y015653D03*
X004181Y014653D03*
X003181Y014653D03*
X003181Y015653D03*
X003181Y016653D03*
X003181Y017653D03*
X003181Y018653D03*
X003181Y019653D03*
X003181Y020653D03*
X002181Y020653D03*
X002181Y019653D03*
X002181Y018653D03*
X002181Y017653D03*
X002181Y016653D03*
X002181Y015653D03*
X002181Y014653D03*
X001181Y014653D03*
X001181Y015653D03*
X001181Y016653D03*
X001181Y017653D03*
X002181Y006703D03*
X001681Y005703D03*
X002681Y005703D03*
X003181Y006703D03*
X003681Y005703D03*
X004181Y006703D03*
X004681Y005703D03*
X005181Y006703D03*
X009181Y005703D03*
X009681Y006703D03*
X010181Y005703D03*
X010681Y006703D03*
X011181Y005703D03*
X011681Y006703D03*
X012181Y005703D03*
X012681Y006703D03*
D15*
X003681Y009653D03*
D16*
X004681Y009653D03*
X005681Y009653D03*
X006681Y009653D03*
X007681Y009653D03*
X008681Y009653D03*
X009681Y009653D03*
X010681Y009653D03*
D17*
X008681Y008153D02*
X009681Y007153D01*
X009681Y006703D01*
X009181Y007153D02*
X009181Y005703D01*
X009181Y007153D02*
X008681Y007653D01*
X005681Y007653D01*
X003681Y009653D01*
X004681Y009653D02*
X006181Y008153D01*
X008681Y008153D01*
M02*
