G75*
G70*
%OFA0B0*%
%FSLAX24Y24*%
%IPPOS*%
%LPD*%
%AMOC8*
5,1,8,0,0,1.08239X$1,22.5*
%
%ADD10C,0.0080*%
%ADD11OC8,0.0520*%
%ADD12C,0.0550*%
%ADD13OC8,0.0554*%
%ADD14R,0.0600X0.0600*%
%ADD15C,0.0600*%
%ADD16C,0.0396*%
%ADD17C,0.0160*%
%ADD18C,0.0320*%
D10*
X002070Y005221D02*
X002683Y005221D01*
X002376Y005221D02*
X002376Y006142D01*
X002683Y005835D01*
X002990Y005835D02*
X002990Y005989D01*
X003144Y006142D01*
X003451Y006142D01*
X003604Y005989D01*
X002990Y005835D02*
X003604Y005221D01*
X002990Y005221D01*
X003280Y006721D02*
X003280Y007335D01*
X003280Y007028D02*
X002973Y007335D01*
X002820Y007335D01*
X003587Y007182D02*
X003587Y006875D01*
X003740Y006721D01*
X004047Y006721D01*
X004201Y006875D01*
X004201Y007182D01*
X004047Y007335D01*
X003740Y007335D01*
X003587Y007182D01*
X004371Y006142D02*
X004371Y005989D01*
X004985Y005375D01*
X004985Y005221D01*
X005292Y005375D02*
X005292Y005989D01*
X005906Y005375D01*
X005753Y005221D01*
X005446Y005221D01*
X005292Y005375D01*
X005292Y005989D02*
X005446Y006142D01*
X005753Y006142D01*
X005906Y005989D01*
X005906Y005375D01*
X006213Y005375D02*
X006213Y005221D01*
X006366Y005221D01*
X006366Y005375D01*
X006213Y005375D01*
X006673Y005375D02*
X006827Y005221D01*
X007134Y005221D01*
X007287Y005375D01*
X007287Y005528D01*
X007134Y005682D01*
X006827Y005682D01*
X006673Y005528D01*
X006673Y005375D01*
X006827Y005682D02*
X006673Y005835D01*
X006673Y005989D01*
X006827Y006142D01*
X007134Y006142D01*
X007287Y005989D01*
X007287Y005835D01*
X007134Y005682D01*
X007594Y005989D02*
X007594Y005375D01*
X007747Y005221D01*
X008054Y005221D01*
X008208Y005375D01*
X007594Y005989D01*
X007747Y006142D01*
X008054Y006142D01*
X008208Y005989D01*
X008208Y005375D01*
X008515Y005375D02*
X008515Y005989D01*
X009129Y005375D01*
X008975Y005221D01*
X008668Y005221D01*
X008515Y005375D01*
X008515Y005989D02*
X008668Y006142D01*
X008975Y006142D01*
X009129Y005989D01*
X009129Y005375D01*
X009436Y005221D02*
X010049Y005221D01*
X009436Y005835D01*
X009436Y005989D01*
X009589Y006142D01*
X009896Y006142D01*
X010049Y005989D01*
X010032Y006721D02*
X010339Y006721D01*
X010492Y006875D01*
X010492Y007182D01*
X010339Y007335D01*
X010032Y007335D01*
X009879Y007182D01*
X009879Y007028D01*
X010492Y007028D01*
X010799Y006721D02*
X011106Y006721D01*
X010953Y006721D02*
X010953Y007642D01*
X011106Y007642D01*
X011567Y007642D02*
X011567Y006721D01*
X011720Y006721D02*
X011413Y006721D01*
X011430Y006142D02*
X011277Y005989D01*
X011277Y005375D01*
X011430Y005221D01*
X011737Y005221D01*
X011891Y005375D01*
X011891Y005989D01*
X011737Y006142D01*
X011430Y006142D01*
X012027Y006875D02*
X012027Y007182D01*
X012180Y007335D01*
X012487Y007335D01*
X012641Y007182D01*
X012641Y006875D01*
X012487Y006721D01*
X012180Y006721D01*
X012027Y006875D01*
X012198Y006142D02*
X012505Y006142D01*
X012351Y006142D02*
X012351Y005375D01*
X012505Y005221D01*
X012658Y005221D01*
X012812Y005375D01*
X013119Y005221D02*
X013732Y005221D01*
X013732Y006142D01*
X013408Y006721D02*
X013408Y007335D01*
X013408Y007028D02*
X013101Y007335D01*
X012948Y007335D01*
X011720Y007642D02*
X011567Y007642D01*
X009572Y007335D02*
X009572Y006721D01*
X009572Y007028D02*
X009265Y007335D01*
X009111Y007335D01*
X007884Y007182D02*
X007730Y007335D01*
X007270Y007335D01*
X007423Y007028D02*
X007270Y006875D01*
X007423Y006721D01*
X007884Y006721D01*
X007730Y007028D02*
X007884Y007182D01*
X007730Y007028D02*
X007423Y007028D01*
X006963Y007028D02*
X006349Y007028D01*
X006349Y007182D01*
X006503Y007335D01*
X006809Y007335D01*
X006963Y007182D01*
X006963Y006875D01*
X006809Y006721D01*
X006503Y006721D01*
X006042Y006721D02*
X006042Y007335D01*
X005582Y007335D01*
X005428Y007182D01*
X005428Y006721D01*
X005121Y006721D02*
X004661Y006721D01*
X004508Y006875D01*
X004661Y007028D01*
X004968Y007028D01*
X005121Y007182D01*
X004968Y007335D01*
X004508Y007335D01*
X004371Y006142D02*
X004985Y006142D01*
X004064Y005375D02*
X003911Y005375D01*
X003911Y005221D01*
X004064Y005221D01*
X004064Y005375D01*
D11*
X005802Y029431D03*
X005802Y030431D03*
X007302Y029431D03*
X008302Y029431D03*
X009802Y029431D03*
X009802Y030431D03*
D12*
X009802Y018231D03*
X010302Y017231D03*
X010802Y018231D03*
X011302Y017231D03*
X011802Y018231D03*
X012302Y017231D03*
X012802Y018231D03*
X009302Y017231D03*
X006302Y018231D03*
X005802Y017231D03*
X005302Y018231D03*
X004802Y017231D03*
X004302Y018231D03*
X003802Y017231D03*
X003302Y018231D03*
X002802Y017231D03*
D13*
X007052Y031431D03*
X007802Y031431D03*
X008552Y031431D03*
D14*
X004552Y021181D03*
D15*
X005552Y021181D03*
X006552Y021181D03*
X007552Y021181D03*
X008552Y021181D03*
X009552Y021181D03*
X010552Y021181D03*
X011552Y021181D03*
D16*
X008552Y020431D03*
X007802Y019931D03*
X006552Y016431D03*
X005552Y019931D03*
X003302Y018931D03*
D17*
X009302Y018931D01*
X009802Y018431D01*
X009802Y018231D01*
X010302Y018681D02*
X010302Y017231D01*
X010302Y018681D02*
X009552Y019431D01*
X006052Y019431D01*
X005552Y019931D01*
X004302Y018231D02*
X004302Y016681D01*
X004552Y016431D01*
X006552Y016431D01*
X008002Y015931D02*
X004052Y015931D01*
X002802Y017181D01*
X002802Y017231D01*
X007802Y019931D02*
X011052Y019931D01*
X011552Y020431D01*
X011552Y021181D01*
X010552Y021181D02*
X009802Y020431D01*
X008552Y020431D01*
X009302Y017231D02*
X008002Y015931D01*
D18*
X009802Y029431D02*
X009052Y030181D01*
X007552Y030181D01*
X007052Y030681D01*
X007052Y031431D01*
X007802Y031431D02*
X007802Y030931D01*
X008052Y030681D01*
X009552Y030681D01*
X009802Y030431D01*
M02*
