%
M48
M72
T01C0.0320
T02C0.0350
T03C0.0400
T04C0.1280
T05C0.2600
%
T01
X6681Y16153
X7681Y16153
X7431Y19653
X6431Y19653
X11681Y12153
X11681Y11153
T02
X11181Y14653
X11181Y15653
X11181Y16653
X11181Y17653
X11181Y18653
X11181Y19653
X11681Y20653
X12431Y20653
X13181Y20653
X13181Y19653
X13181Y18653
X13181Y17653
X13181Y16653
X13181Y15653
X13181Y14653
X12181Y14653
X12181Y15653
X12181Y16653
X12181Y17653
X12181Y18653
X12181Y19653
X10181Y19653
X10181Y18653
X10181Y17653
X10181Y16653
X10181Y15653
X10181Y14653
X9181Y14653
X9181Y15653
X9181Y16653
X9181Y17653
X9181Y18653
X9181Y19653
X9181Y20653
X10181Y20653
X7931Y20653
X7181Y20653
X6431Y20653
X5181Y20653
X5181Y19653
X5181Y18653
X5181Y17653
X5181Y16653
X5181Y15653
X5181Y14653
X4181Y14653
X4181Y15653
X4181Y16653
X4181Y17653
X4181Y18653
X4181Y19653
X4181Y20653
X3181Y20653
X3181Y19653
X3181Y18653
X3181Y17653
X3181Y16653
X3181Y15653
X3181Y14653
X2181Y14653
X2181Y15653
X2181Y16653
X2181Y17653
X2181Y18653
X2181Y19653
X2181Y20653
X1181Y20653
X1181Y19903
X1181Y19153
X1181Y17653
X1181Y16653
X1181Y15653
X1181Y14653
X2181Y6703
X1681Y5703
X2681Y5703
X3181Y6703
X3681Y5703
X4181Y6703
X4681Y5703
X5181Y6703
X9181Y5703
X9681Y6703
X10181Y5703
X10681Y6703
X11181Y5703
X11681Y6703
X12181Y5703
X12681Y6703
T03
X13181Y8653
X10681Y9653
X9681Y9653
X8681Y9653
X7681Y9653
X6681Y9653
X5681Y9653
X4681Y9653
X3681Y9653
X1181Y8653
X1181Y13653
X13181Y13653
T04
X1181Y3203
X5681Y3203
X8681Y3203
X13181Y3203
T05
X7181Y11653
M30
