G75*
G70*
%OFA0B0*%
%FSLAX24Y24*%
%IPPOS*%
%LPD*%
%AMOC8*
5,1,8,0,0,1.08239X$1,22.5*
%
%ADD10C,0.0080*%
%ADD11C,0.0030*%
%ADD12OC8,0.0520*%
%ADD13C,0.0550*%
%ADD14OC8,0.0554*%
%ADD15R,0.0600X0.0600*%
%ADD16C,0.0600*%
%ADD17C,0.0160*%
%ADD18C,0.0396*%
%ADD19C,0.0320*%
D10*
X003634Y005772D02*
X003481Y005925D01*
X003481Y006539D01*
X003634Y006693D01*
X003941Y006693D01*
X004095Y006539D01*
X004095Y005925D01*
X003941Y005772D01*
X003634Y005772D01*
X004402Y005772D02*
X004862Y005772D01*
X005015Y005925D01*
X005015Y006232D01*
X004862Y006386D01*
X004402Y006386D01*
X004402Y005465D01*
X005322Y005925D02*
X005322Y006232D01*
X005476Y006386D01*
X005783Y006386D01*
X005936Y006232D01*
X005936Y006079D01*
X005322Y006079D01*
X005322Y005925D02*
X005476Y005772D01*
X005783Y005772D01*
X006243Y005772D02*
X006243Y006386D01*
X006703Y006386D01*
X006857Y006232D01*
X006857Y005772D01*
X007164Y005925D02*
X007317Y005772D01*
X007624Y005772D01*
X007778Y005925D01*
X007778Y006079D01*
X007624Y006232D01*
X007317Y006232D01*
X007164Y006386D01*
X007164Y006539D01*
X007317Y006693D01*
X007624Y006693D01*
X007778Y006539D01*
X008085Y006386D02*
X008545Y006386D01*
X008698Y006232D01*
X008698Y005925D01*
X008545Y005772D01*
X008085Y005772D01*
X008085Y005465D02*
X008085Y006386D01*
X009005Y006386D02*
X009005Y005772D01*
X009005Y006079D02*
X009312Y006386D01*
X009466Y006386D01*
X009773Y006386D02*
X009926Y006386D01*
X009926Y005772D01*
X009773Y005772D02*
X010079Y005772D01*
X010386Y005772D02*
X010386Y006386D01*
X010847Y006386D01*
X011000Y006232D01*
X011000Y005772D01*
X011307Y006386D02*
X011614Y006386D01*
X011461Y006539D02*
X011461Y005925D01*
X011614Y005772D01*
X011921Y005772D02*
X012381Y005772D01*
X012535Y005925D01*
X012381Y006079D01*
X012074Y006079D01*
X011921Y006232D01*
X012074Y006386D01*
X012535Y006386D01*
X009926Y006693D02*
X009926Y006846D01*
D11*
X009975Y022997D02*
X009729Y022997D01*
X009667Y023059D01*
X009667Y023182D01*
X009729Y023244D01*
X009852Y023244D02*
X009852Y023120D01*
X009852Y023244D02*
X009975Y023244D01*
X010037Y023182D01*
X010037Y023059D01*
X009975Y022997D01*
X010037Y023365D02*
X009667Y023365D01*
X010037Y023612D01*
X009667Y023612D01*
X009667Y023733D02*
X009667Y023919D01*
X009729Y023980D01*
X009975Y023980D01*
X010037Y023919D01*
X010037Y023733D01*
X009667Y023733D01*
X007037Y023795D02*
X007037Y023919D01*
X006975Y023980D01*
X007037Y023795D02*
X006975Y023733D01*
X006729Y023733D01*
X006667Y023795D01*
X006667Y023919D01*
X006729Y023980D01*
X006729Y023612D02*
X006667Y023550D01*
X006667Y023427D01*
X006729Y023365D01*
X006975Y023365D01*
X007037Y023427D01*
X007037Y023550D01*
X006975Y023612D01*
X006914Y023244D02*
X006667Y023244D01*
X006667Y022997D02*
X006914Y022997D01*
X007037Y023120D01*
X006914Y023244D01*
X004037Y023120D02*
X003914Y023244D01*
X003667Y023244D01*
X003729Y023365D02*
X003975Y023365D01*
X004037Y023427D01*
X004037Y023550D01*
X003975Y023612D01*
X003729Y023612D01*
X003667Y023550D01*
X003667Y023427D01*
X003729Y023365D01*
X003667Y022997D02*
X003914Y022997D01*
X004037Y023120D01*
X003975Y023733D02*
X004037Y023795D01*
X004037Y023919D01*
X003975Y023980D01*
X003667Y023980D01*
X003667Y024102D02*
X003667Y024349D01*
X003667Y024225D02*
X004037Y024225D01*
X003975Y023733D02*
X003667Y023733D01*
D12*
X005802Y029482D03*
X005802Y030482D03*
X007302Y029482D03*
X008302Y029482D03*
X009802Y029482D03*
X009802Y030482D03*
D13*
X009802Y018282D03*
X010302Y017282D03*
X010802Y018282D03*
X011302Y017282D03*
X011802Y018282D03*
X012302Y017282D03*
X012802Y018282D03*
X009302Y017282D03*
X006302Y018282D03*
X005802Y017282D03*
X005302Y018282D03*
X004802Y017282D03*
X004302Y018282D03*
X003802Y017282D03*
X003302Y018282D03*
X002802Y017282D03*
D14*
X007052Y031482D03*
X007802Y031482D03*
X008552Y031482D03*
D15*
X004552Y021232D03*
D16*
X005552Y021232D03*
X006552Y021232D03*
X007552Y021232D03*
X008552Y021232D03*
X009552Y021232D03*
X010552Y021232D03*
X011552Y021232D03*
D17*
X012802Y019982D01*
X012802Y018282D01*
X012302Y017282D02*
X012302Y019482D01*
X010552Y021232D01*
X010552Y020482D02*
X010302Y020482D01*
X009552Y021232D01*
X008552Y021232D02*
X009802Y019982D01*
X010302Y019982D01*
X011302Y018982D01*
X011302Y017282D01*
X011802Y016732D02*
X011052Y015982D01*
X006302Y015982D01*
X005302Y016982D01*
X005302Y018282D01*
X004802Y018482D02*
X005302Y018982D01*
X006052Y018982D01*
X007552Y020482D01*
X007802Y020482D01*
X008552Y021232D01*
X008552Y020482D02*
X008552Y019482D01*
X006352Y017282D01*
X005802Y017282D01*
X006302Y018282D02*
X006302Y018482D01*
X007802Y019982D01*
X007552Y021232D02*
X005802Y019482D01*
X004552Y019482D01*
X004302Y019232D01*
X004302Y018282D01*
X004802Y018482D02*
X004802Y017282D01*
X003802Y017282D02*
X003802Y019732D01*
X004052Y019982D01*
X005552Y019982D01*
X006552Y020982D01*
X006552Y021232D01*
X005552Y021232D02*
X005552Y020732D01*
X005302Y020482D01*
X003802Y020482D01*
X003302Y019982D01*
X003302Y018982D01*
X003302Y018282D01*
X002802Y017282D02*
X002802Y020232D01*
X003802Y021232D01*
X004552Y021232D01*
X006552Y016482D02*
X010552Y016482D01*
X010802Y016732D01*
X010802Y018282D01*
X011802Y018282D02*
X011802Y016732D01*
X011802Y018282D02*
X011802Y019232D01*
X010552Y020482D01*
D18*
X008552Y020482D03*
X007802Y019982D03*
X006552Y016482D03*
X005552Y019982D03*
X003302Y018982D03*
D19*
X004552Y021232D02*
X004552Y027232D01*
X005552Y028232D01*
X007052Y028232D01*
X008302Y029482D01*
X008302Y030732D01*
X008552Y030982D01*
X008552Y031482D01*
X009802Y030482D02*
X010552Y029732D01*
X010552Y021232D01*
X007552Y021232D02*
X007552Y027232D01*
X009802Y029482D01*
X007302Y029482D02*
X005802Y029482D01*
X005802Y030482D02*
X005802Y030732D01*
X006552Y031482D01*
X007052Y031482D01*
M02*
