G75*
G70*
%OFA0B0*%
%FSLAX24Y24*%
%IPPOS*%
%LPD*%
%AMOC8*
5,1,8,0,0,1.08239X$1,22.5*
%
%ADD10C,0.0080*%
%ADD11OC8,0.0520*%
%ADD12C,0.0550*%
%ADD13OC8,0.0554*%
%ADD14R,0.0600X0.0600*%
%ADD15C,0.0600*%
%ADD16C,0.0396*%
%ADD17C,0.0160*%
%ADD18C,0.0320*%
D10*
X001527Y005272D02*
X002141Y005272D01*
X002448Y005425D02*
X002601Y005272D01*
X002754Y005272D01*
X002908Y005425D01*
X002908Y006193D01*
X003061Y006193D02*
X002754Y006193D01*
X002772Y006772D02*
X002618Y006925D01*
X002618Y007232D01*
X002772Y007386D01*
X003079Y007386D01*
X003232Y007232D01*
X003232Y006925D01*
X003079Y006772D01*
X002772Y006772D01*
X002311Y007386D02*
X002158Y007386D01*
X001851Y007079D01*
X001851Y006772D02*
X001851Y007386D01*
X001527Y006193D02*
X001527Y005272D01*
X003368Y005425D02*
X003522Y005272D01*
X003829Y005272D01*
X003982Y005425D01*
X003982Y006039D01*
X003829Y006193D01*
X003522Y006193D01*
X003368Y006039D01*
X003368Y005425D01*
X003539Y006772D02*
X003846Y006772D01*
X003693Y006772D02*
X003693Y007693D01*
X003539Y007693D01*
X004153Y007693D02*
X004306Y007693D01*
X004306Y006772D01*
X004153Y006772D02*
X004460Y006772D01*
X004767Y006925D02*
X004767Y007232D01*
X004920Y007386D01*
X005227Y007386D01*
X005381Y007232D01*
X005381Y007079D01*
X004767Y007079D01*
X004767Y006925D02*
X004920Y006772D01*
X005227Y006772D01*
X005363Y006193D02*
X005210Y006039D01*
X005363Y006193D02*
X005670Y006193D01*
X005824Y006039D01*
X005824Y005886D01*
X005210Y005272D01*
X005824Y005272D01*
X006131Y005425D02*
X006131Y006039D01*
X006284Y006193D01*
X006591Y006193D01*
X006744Y006039D01*
X006131Y005425D01*
X006284Y005272D01*
X006591Y005272D01*
X006744Y005425D01*
X006744Y006039D01*
X007051Y006039D02*
X007051Y005425D01*
X007665Y006039D01*
X007665Y005425D01*
X007512Y005272D01*
X007205Y005272D01*
X007051Y005425D01*
X007051Y006039D02*
X007205Y006193D01*
X007512Y006193D01*
X007665Y006039D01*
X007972Y006039D02*
X007972Y005886D01*
X008126Y005732D01*
X008432Y005732D01*
X008586Y005579D01*
X008586Y005425D01*
X008432Y005272D01*
X008126Y005272D01*
X007972Y005425D01*
X007972Y005579D01*
X008126Y005732D01*
X007972Y006039D02*
X008126Y006193D01*
X008432Y006193D01*
X008586Y006039D01*
X008586Y005886D01*
X008432Y005732D01*
X008893Y005425D02*
X009046Y005425D01*
X009046Y005272D01*
X008893Y005272D01*
X008893Y005425D01*
X009353Y005425D02*
X009967Y006039D01*
X009967Y005425D01*
X009814Y005272D01*
X009507Y005272D01*
X009353Y005425D01*
X009353Y006039D01*
X009507Y006193D01*
X009814Y006193D01*
X009967Y006039D01*
X010274Y006193D02*
X010888Y006193D01*
X010888Y006039D01*
X010274Y005425D01*
X010274Y005272D01*
X010138Y006772D02*
X010598Y006772D01*
X010752Y006925D01*
X010598Y007079D01*
X010291Y007079D01*
X010138Y007232D01*
X010291Y007386D01*
X010752Y007386D01*
X011059Y007232D02*
X011059Y006925D01*
X011212Y006772D01*
X011519Y006772D01*
X011672Y006925D01*
X011672Y007232D01*
X011519Y007386D01*
X011212Y007386D01*
X011059Y007232D01*
X011808Y006193D02*
X011655Y006039D01*
X011808Y006193D02*
X012115Y006193D01*
X012269Y006039D01*
X012269Y005886D01*
X011655Y005272D01*
X012269Y005272D01*
X012576Y005272D02*
X013190Y005272D01*
X012883Y005272D02*
X012883Y006193D01*
X012576Y005886D01*
X011979Y006772D02*
X011979Y007386D01*
X011979Y007079D02*
X012286Y007386D01*
X012440Y007386D01*
X011348Y005425D02*
X011348Y005272D01*
X011195Y005272D01*
X011195Y005425D01*
X011348Y005425D01*
X009831Y006772D02*
X009831Y007232D01*
X009677Y007386D01*
X009217Y007386D01*
X009217Y006772D01*
X008910Y007079D02*
X008910Y007232D01*
X008757Y007386D01*
X008450Y007386D01*
X008296Y007232D01*
X008296Y006925D01*
X008450Y006772D01*
X008757Y006772D01*
X008910Y007079D02*
X008296Y007079D01*
X007989Y006925D02*
X007836Y007079D01*
X007529Y007079D01*
X007376Y007232D01*
X007529Y007386D01*
X007989Y007386D01*
X007989Y006925D02*
X007836Y006772D01*
X007376Y006772D01*
X006148Y007386D02*
X005994Y007386D01*
X005688Y007079D01*
X005688Y006772D02*
X005688Y007386D01*
D11*
X005457Y029482D03*
X005457Y030482D03*
X006957Y029482D03*
X007957Y029482D03*
X009457Y029482D03*
X009457Y030482D03*
D12*
X009957Y018282D03*
X010457Y017282D03*
X010957Y018282D03*
X011457Y017282D03*
X011957Y018282D03*
X012457Y017282D03*
X009457Y017282D03*
X008957Y018282D03*
X005957Y017282D03*
X005457Y018282D03*
X004957Y017282D03*
X004457Y018282D03*
X003957Y017282D03*
X003457Y018282D03*
X002957Y017282D03*
X002457Y018282D03*
D13*
X006707Y031482D03*
X007457Y031482D03*
X008207Y031482D03*
D14*
X010707Y021232D03*
D15*
X009707Y021232D03*
X008707Y021232D03*
X007707Y021232D03*
X006707Y021232D03*
X005707Y021232D03*
X004707Y021232D03*
X003707Y021232D03*
D16*
X006707Y020482D03*
X007457Y019982D03*
X008707Y016482D03*
X009707Y019982D03*
X011957Y018982D03*
D17*
X005957Y018982D01*
X005457Y018482D01*
X005457Y018282D01*
X004957Y018732D02*
X004957Y017282D01*
X004957Y018732D02*
X005707Y019482D01*
X009207Y019482D01*
X009707Y019982D01*
X010957Y018282D02*
X010957Y016732D01*
X010707Y016482D01*
X008707Y016482D01*
X007257Y015982D02*
X011207Y015982D01*
X012457Y017232D01*
X012457Y017282D01*
X007457Y019982D02*
X004207Y019982D01*
X003707Y020482D01*
X003707Y021232D01*
X004707Y021232D02*
X005457Y020482D01*
X006707Y020482D01*
X005957Y017282D02*
X007257Y015982D01*
D18*
X005457Y029482D02*
X006207Y030232D01*
X007707Y030232D01*
X008207Y030732D01*
X008207Y031482D01*
X007457Y031482D02*
X007457Y030982D01*
X007207Y030732D01*
X005707Y030732D01*
X005457Y030482D01*
M02*
