G75*
G70*
%OFA0B0*%
%FSLAX24Y24*%
%IPPOS*%
%LPD*%
%AMOC8*
5,1,8,0,0,1.08239X$1,22.5*
%
%ADD10C,0.0060*%
%ADD11C,0.0080*%
%ADD12C,0.0010*%
%ADD13C,0.0020*%
%ADD14R,0.0240X0.0230*%
%ADD15C,0.0100*%
%ADD16C,0.0050*%
D10*
X009402Y028981D02*
X010202Y028981D01*
X010222Y028983D01*
X010240Y028989D01*
X010258Y028998D01*
X010273Y029010D01*
X010285Y029025D01*
X010294Y029043D01*
X010300Y029061D01*
X010302Y029081D01*
X010302Y030781D01*
X010300Y030801D01*
X010294Y030819D01*
X010285Y030837D01*
X010273Y030852D01*
X010258Y030864D01*
X010240Y030873D01*
X010222Y030879D01*
X010202Y030881D01*
X009402Y030881D01*
X009382Y030879D01*
X009364Y030873D01*
X009346Y030864D01*
X009331Y030852D01*
X009319Y030837D01*
X009310Y030819D01*
X009304Y030801D01*
X009302Y030781D01*
X009302Y029081D01*
X009304Y029061D01*
X009310Y029043D01*
X009319Y029025D01*
X009331Y029010D01*
X009346Y028998D01*
X009364Y028989D01*
X009382Y028983D01*
X009402Y028981D01*
X009802Y029781D02*
X009802Y029831D01*
X009802Y030031D02*
X009802Y030081D01*
X006802Y029431D02*
X006806Y029522D01*
X006819Y029612D01*
X006839Y029701D01*
X006868Y029787D01*
X006904Y029871D01*
X006948Y029951D01*
X006998Y030026D01*
X007056Y030097D01*
X007119Y030162D01*
X007189Y030221D01*
X007263Y030273D01*
X007342Y030319D01*
X007425Y030357D01*
X007510Y030388D01*
X007599Y030410D01*
X007688Y030425D01*
X007779Y030431D01*
X007870Y030429D01*
X007961Y030418D01*
X008050Y030400D01*
X008137Y030373D01*
X008221Y030339D01*
X008302Y030297D01*
X008379Y030248D01*
X008451Y030192D01*
X008517Y030130D01*
X008578Y030062D01*
X008632Y029989D01*
X008679Y029911D01*
X008719Y029829D01*
X008752Y029744D01*
X008776Y029657D01*
X008793Y029567D01*
X008801Y029477D01*
X008801Y029385D01*
X008793Y029295D01*
X008776Y029205D01*
X008752Y029118D01*
X008719Y029033D01*
X008679Y028951D01*
X008632Y028873D01*
X008578Y028800D01*
X008517Y028732D01*
X008451Y028670D01*
X008379Y028614D01*
X008302Y028565D01*
X008221Y028523D01*
X008137Y028489D01*
X008050Y028462D01*
X007961Y028444D01*
X007870Y028433D01*
X007779Y028431D01*
X007688Y028437D01*
X007599Y028452D01*
X007510Y028474D01*
X007425Y028505D01*
X007342Y028543D01*
X007263Y028589D01*
X007189Y028641D01*
X007119Y028700D01*
X007056Y028765D01*
X006998Y028836D01*
X006948Y028911D01*
X006904Y028991D01*
X006868Y029075D01*
X006839Y029161D01*
X006819Y029250D01*
X006806Y029340D01*
X006802Y029431D01*
X005202Y029431D02*
X005204Y029486D01*
X005212Y029540D01*
X005224Y029593D01*
X005241Y029645D01*
X005263Y029695D01*
X005289Y029743D01*
X005320Y029788D01*
X005354Y029830D01*
X005392Y029870D01*
X005434Y029905D01*
X005479Y029936D01*
X005526Y029964D01*
X005576Y029987D01*
X005627Y030005D01*
X005680Y030018D01*
X005734Y030027D01*
X005788Y030031D01*
X005843Y030030D01*
X005897Y030023D01*
X005951Y030012D01*
X006003Y029996D01*
X006054Y029976D01*
X006102Y029951D01*
X006148Y029921D01*
X006191Y029888D01*
X006231Y029850D01*
X006267Y029810D01*
X006300Y029766D01*
X006328Y029719D01*
X006352Y029670D01*
X006372Y029619D01*
X006387Y029566D01*
X006396Y029513D01*
X006401Y029458D01*
X006401Y029404D01*
X006396Y029349D01*
X006387Y029296D01*
X006372Y029243D01*
X006352Y029192D01*
X006328Y029143D01*
X006300Y029096D01*
X006267Y029052D01*
X006231Y029012D01*
X006191Y028974D01*
X006148Y028941D01*
X006102Y028911D01*
X006054Y028886D01*
X006003Y028866D01*
X005951Y028850D01*
X005897Y028839D01*
X005843Y028832D01*
X005788Y028831D01*
X005734Y028835D01*
X005680Y028844D01*
X005627Y028857D01*
X005576Y028875D01*
X005526Y028898D01*
X005479Y028926D01*
X005434Y028957D01*
X005392Y028992D01*
X005354Y029032D01*
X005320Y029074D01*
X005289Y029119D01*
X005263Y029167D01*
X005241Y029217D01*
X005224Y029269D01*
X005212Y029322D01*
X005204Y029376D01*
X005202Y029431D01*
D11*
X001593Y018685D02*
X001593Y011677D01*
X007511Y011677D01*
X007511Y018685D01*
X006402Y018685D01*
X006202Y018681D02*
X005902Y018681D01*
X005902Y018685D02*
X005902Y017581D01*
X005702Y017581D02*
X005702Y018681D01*
X005402Y018681D01*
X005202Y018681D02*
X004902Y018681D01*
X004902Y018685D01*
X004902Y018681D02*
X004902Y017581D01*
X004702Y017581D02*
X004702Y018681D01*
X004402Y018681D01*
X004202Y018681D02*
X003902Y018681D01*
X003902Y018685D02*
X003902Y017581D01*
X003702Y017581D02*
X003702Y018681D01*
X003402Y018681D01*
X003202Y018681D02*
X002902Y018681D01*
X002902Y018685D02*
X002902Y017581D01*
X003202Y017781D02*
X003402Y017781D01*
X003702Y016831D02*
X003702Y016731D01*
X003902Y016731D01*
X003902Y016831D01*
X004202Y017781D02*
X004402Y017781D01*
X004702Y016831D02*
X004702Y016731D01*
X004902Y016731D01*
X004902Y016831D01*
X005202Y017781D02*
X005402Y017781D01*
X005702Y016831D02*
X005702Y016731D01*
X005902Y016731D01*
X005902Y016831D01*
X006202Y017781D02*
X006402Y017781D01*
X006852Y018281D02*
X006852Y018681D01*
X006852Y018281D02*
X007202Y018281D01*
X007202Y018681D01*
X008093Y018685D02*
X009202Y018685D01*
X009202Y018681D02*
X009202Y017581D01*
X009402Y017581D02*
X009402Y018685D01*
X009402Y018681D02*
X009702Y018681D01*
X009902Y018681D02*
X010202Y018681D01*
X010202Y017581D01*
X010402Y017581D02*
X010402Y018685D01*
X010402Y018681D02*
X010702Y018681D01*
X010902Y018681D02*
X011202Y018681D01*
X011202Y017581D01*
X011402Y017581D02*
X011402Y018681D01*
X011702Y018681D01*
X011902Y018681D02*
X012202Y018681D01*
X012202Y017581D01*
X011902Y017781D02*
X011702Y017781D01*
X011402Y018681D02*
X011402Y018685D01*
X010902Y017781D02*
X010702Y017781D01*
X010402Y016831D02*
X010402Y016731D01*
X010202Y016731D01*
X010202Y016831D01*
X009902Y017781D02*
X009702Y017781D01*
X009402Y016831D02*
X009402Y016731D01*
X009202Y016731D01*
X009202Y016831D01*
X008752Y018281D02*
X008752Y018681D01*
X008402Y018681D02*
X008402Y018281D01*
X008752Y018281D01*
X008093Y018685D02*
X008093Y011677D01*
X014011Y011677D01*
X014011Y018685D01*
X012902Y018685D01*
X012702Y018681D02*
X012402Y018681D01*
X012402Y018685D02*
X012402Y017581D01*
X012702Y017781D02*
X012902Y017781D01*
X013352Y018281D02*
X013352Y018681D01*
X013702Y018681D02*
X013702Y018281D01*
X013352Y018281D01*
X012402Y016831D02*
X012402Y016731D01*
X012202Y016731D01*
X012202Y016831D01*
X011402Y016831D02*
X011402Y016731D01*
X011202Y016731D01*
X011202Y016831D01*
X011302Y020681D02*
X011052Y020931D01*
X010802Y020681D01*
X010302Y020681D01*
X010052Y020931D01*
X009802Y020681D01*
X009302Y020681D01*
X009052Y020931D01*
X008802Y020681D01*
X008302Y020681D01*
X008052Y020931D01*
X007802Y020681D01*
X007302Y020681D01*
X007052Y020931D01*
X006802Y020681D01*
X006302Y020681D01*
X006052Y020931D01*
X005802Y020681D01*
X005302Y020681D01*
X005052Y020931D01*
X004802Y020681D01*
X004302Y020681D01*
X004052Y020931D01*
X004052Y021431D01*
X004302Y021681D01*
X004802Y021681D01*
X005052Y021431D01*
X005302Y021681D01*
X005802Y021681D01*
X006052Y021431D01*
X006302Y021681D01*
X006802Y021681D01*
X007052Y021431D01*
X007302Y021681D01*
X007802Y021681D01*
X008052Y021431D01*
X008302Y021681D01*
X008802Y021681D01*
X009052Y021431D01*
X009302Y021681D01*
X009802Y021681D01*
X010052Y021431D01*
X010302Y021681D01*
X010802Y021681D01*
X011052Y021431D01*
X011302Y021681D01*
X011802Y021681D01*
X012052Y021431D01*
X012052Y020931D01*
X011802Y020681D01*
X011302Y020681D01*
X008802Y028681D02*
X008802Y030181D01*
X002702Y018685D02*
X001593Y018685D01*
X001902Y018681D02*
X001902Y018281D01*
X002252Y018281D01*
X002252Y018681D01*
X002702Y018681D02*
X002702Y017581D01*
X002702Y016831D02*
X002702Y016731D01*
X002902Y016731D01*
X002902Y016831D01*
D12*
X008834Y030211D02*
X008762Y030157D01*
X008763Y030158D02*
X008708Y030226D01*
X008648Y030289D01*
X008584Y030348D01*
X008516Y030402D01*
X008444Y030451D01*
X008368Y030495D01*
X008290Y030533D01*
X008209Y030565D01*
X008126Y030592D01*
X008042Y030612D01*
X007956Y030626D01*
X007869Y030634D01*
X007782Y030636D01*
X007695Y030631D01*
X007609Y030620D01*
X007523Y030603D01*
X007439Y030580D01*
X007357Y030551D01*
X007278Y030516D01*
X007201Y030475D01*
X007127Y030429D01*
X007056Y030378D01*
X006990Y030321D01*
X006928Y030260D01*
X006870Y030195D01*
X006817Y030126D01*
X006770Y030053D01*
X006728Y029977D01*
X006691Y029898D01*
X006660Y029816D01*
X006635Y029733D01*
X006617Y029648D01*
X006604Y029561D01*
X006598Y029475D01*
X006598Y029387D01*
X006604Y029301D01*
X006617Y029214D01*
X006635Y029129D01*
X006660Y029046D01*
X006691Y028964D01*
X006728Y028885D01*
X006770Y028809D01*
X006817Y028736D01*
X006870Y028667D01*
X006928Y028602D01*
X006990Y028541D01*
X007056Y028484D01*
X007127Y028433D01*
X007201Y028387D01*
X007278Y028346D01*
X007357Y028311D01*
X007439Y028282D01*
X007523Y028259D01*
X007609Y028242D01*
X007695Y028231D01*
X007782Y028226D01*
X007869Y028228D01*
X007956Y028236D01*
X008042Y028250D01*
X008126Y028270D01*
X008209Y028297D01*
X008290Y028329D01*
X008368Y028367D01*
X008444Y028411D01*
X008516Y028460D01*
X008584Y028514D01*
X008648Y028573D01*
X008708Y028636D01*
X008763Y028704D01*
X008834Y028651D01*
X008835Y028650D01*
X008776Y028577D01*
X008712Y028509D01*
X008643Y028446D01*
X008569Y028388D01*
X008492Y028335D01*
X008411Y028288D01*
X008327Y028247D01*
X008240Y028212D01*
X008151Y028184D01*
X008060Y028162D01*
X007968Y028147D01*
X007874Y028138D01*
X007781Y028136D01*
X007687Y028141D01*
X007594Y028153D01*
X007503Y028171D01*
X007412Y028196D01*
X007324Y028227D01*
X007238Y028265D01*
X007156Y028309D01*
X007076Y028358D01*
X007001Y028414D01*
X006929Y028474D01*
X006863Y028540D01*
X006801Y028610D01*
X006744Y028684D01*
X006693Y028763D01*
X006647Y028845D01*
X006608Y028930D01*
X006575Y029017D01*
X006548Y029107D01*
X006528Y029198D01*
X006515Y029291D01*
X006508Y029384D01*
X006508Y029478D01*
X006515Y029571D01*
X006528Y029664D01*
X006548Y029755D01*
X006575Y029845D01*
X006608Y029932D01*
X006647Y030017D01*
X006693Y030099D01*
X006744Y030178D01*
X006801Y030252D01*
X006863Y030322D01*
X006929Y030388D01*
X007001Y030448D01*
X007076Y030504D01*
X007156Y030553D01*
X007238Y030597D01*
X007324Y030635D01*
X007412Y030666D01*
X007503Y030691D01*
X007594Y030709D01*
X007687Y030721D01*
X007781Y030726D01*
X007874Y030724D01*
X007968Y030715D01*
X008060Y030700D01*
X008151Y030678D01*
X008240Y030650D01*
X008327Y030615D01*
X008411Y030574D01*
X008492Y030527D01*
X008569Y030474D01*
X008643Y030416D01*
X008712Y030353D01*
X008776Y030285D01*
X008835Y030212D01*
X008828Y030207D01*
X008769Y030279D01*
X008705Y030346D01*
X008637Y030409D01*
X008564Y030467D01*
X008487Y030519D01*
X008407Y030566D01*
X008323Y030607D01*
X008237Y030641D01*
X008148Y030669D01*
X008058Y030691D01*
X007966Y030706D01*
X007874Y030715D01*
X007781Y030717D01*
X007688Y030712D01*
X007596Y030700D01*
X007505Y030682D01*
X007415Y030657D01*
X007327Y030626D01*
X007242Y030589D01*
X007160Y030545D01*
X007081Y030496D01*
X007006Y030441D01*
X006935Y030381D01*
X006869Y030316D01*
X006808Y030246D01*
X006751Y030172D01*
X006700Y030095D01*
X006655Y030013D01*
X006616Y029929D01*
X006583Y029842D01*
X006557Y029753D01*
X006537Y029662D01*
X006524Y029570D01*
X006517Y029477D01*
X006517Y029385D01*
X006524Y029292D01*
X006537Y029200D01*
X006557Y029109D01*
X006583Y029020D01*
X006616Y028933D01*
X006655Y028849D01*
X006700Y028767D01*
X006751Y028690D01*
X006808Y028616D01*
X006869Y028546D01*
X006935Y028481D01*
X007006Y028421D01*
X007081Y028366D01*
X007160Y028317D01*
X007242Y028273D01*
X007327Y028236D01*
X007415Y028205D01*
X007505Y028180D01*
X007596Y028162D01*
X007688Y028150D01*
X007781Y028145D01*
X007874Y028147D01*
X007966Y028156D01*
X008058Y028171D01*
X008148Y028193D01*
X008237Y028221D01*
X008323Y028255D01*
X008407Y028296D01*
X008487Y028343D01*
X008564Y028395D01*
X008637Y028453D01*
X008705Y028516D01*
X008769Y028583D01*
X008828Y028655D01*
X008821Y028661D01*
X008762Y028589D01*
X008699Y028522D01*
X008631Y028460D01*
X008559Y028402D01*
X008482Y028350D01*
X008403Y028304D01*
X008320Y028264D01*
X008234Y028229D01*
X008146Y028201D01*
X008056Y028180D01*
X007965Y028164D01*
X007873Y028156D01*
X007781Y028154D01*
X007689Y028159D01*
X007597Y028171D01*
X007507Y028189D01*
X007418Y028213D01*
X007331Y028244D01*
X007246Y028281D01*
X007165Y028324D01*
X007086Y028373D01*
X007012Y028428D01*
X006941Y028487D01*
X006876Y028552D01*
X006815Y028621D01*
X006759Y028695D01*
X006708Y028772D01*
X006663Y028853D01*
X006625Y028937D01*
X006592Y029023D01*
X006566Y029111D01*
X006546Y029201D01*
X006533Y029293D01*
X006526Y029385D01*
X006526Y029477D01*
X006533Y029569D01*
X006546Y029661D01*
X006566Y029751D01*
X006592Y029839D01*
X006625Y029925D01*
X006663Y030009D01*
X006708Y030090D01*
X006759Y030167D01*
X006815Y030241D01*
X006876Y030310D01*
X006941Y030375D01*
X007012Y030434D01*
X007086Y030489D01*
X007165Y030538D01*
X007246Y030581D01*
X007331Y030618D01*
X007418Y030649D01*
X007507Y030673D01*
X007597Y030691D01*
X007689Y030703D01*
X007781Y030708D01*
X007873Y030706D01*
X007965Y030698D01*
X008056Y030682D01*
X008146Y030661D01*
X008234Y030633D01*
X008320Y030598D01*
X008403Y030558D01*
X008482Y030512D01*
X008559Y030460D01*
X008631Y030402D01*
X008699Y030340D01*
X008762Y030273D01*
X008821Y030201D01*
X008813Y030196D01*
X008756Y030267D01*
X008693Y030334D01*
X008625Y030396D01*
X008553Y030452D01*
X008478Y030504D01*
X008398Y030550D01*
X008316Y030590D01*
X008231Y030624D01*
X008144Y030652D01*
X008054Y030674D01*
X007964Y030689D01*
X007873Y030697D01*
X007781Y030699D01*
X007690Y030694D01*
X007599Y030683D01*
X007509Y030665D01*
X007420Y030640D01*
X007334Y030610D01*
X007250Y030573D01*
X007169Y030530D01*
X007091Y030481D01*
X007017Y030427D01*
X006948Y030368D01*
X006882Y030304D01*
X006821Y030235D01*
X006766Y030162D01*
X006716Y030085D01*
X006671Y030005D01*
X006633Y029922D01*
X006601Y029836D01*
X006574Y029748D01*
X006555Y029659D01*
X006541Y029568D01*
X006535Y029477D01*
X006535Y029385D01*
X006541Y029294D01*
X006555Y029203D01*
X006574Y029114D01*
X006601Y029026D01*
X006633Y028940D01*
X006671Y028857D01*
X006716Y028777D01*
X006766Y028700D01*
X006821Y028627D01*
X006882Y028558D01*
X006948Y028494D01*
X007017Y028435D01*
X007091Y028381D01*
X007169Y028332D01*
X007250Y028289D01*
X007334Y028252D01*
X007420Y028222D01*
X007509Y028197D01*
X007599Y028179D01*
X007690Y028168D01*
X007781Y028163D01*
X007873Y028165D01*
X007964Y028173D01*
X008054Y028188D01*
X008144Y028210D01*
X008231Y028238D01*
X008316Y028272D01*
X008398Y028312D01*
X008478Y028358D01*
X008553Y028410D01*
X008625Y028466D01*
X008693Y028528D01*
X008756Y028595D01*
X008813Y028666D01*
X008806Y028672D01*
X008749Y028601D01*
X008686Y028535D01*
X008619Y028473D01*
X008548Y028417D01*
X008473Y028366D01*
X008394Y028320D01*
X008312Y028280D01*
X008228Y028246D01*
X008141Y028219D01*
X008053Y028197D01*
X007963Y028182D01*
X007872Y028174D01*
X007781Y028172D01*
X007690Y028177D01*
X007600Y028188D01*
X007511Y028206D01*
X007423Y028230D01*
X007337Y028261D01*
X007254Y028297D01*
X007174Y028340D01*
X007096Y028388D01*
X007023Y028442D01*
X006954Y028501D01*
X006889Y028564D01*
X006828Y028633D01*
X006773Y028705D01*
X006724Y028781D01*
X006679Y028861D01*
X006641Y028943D01*
X006609Y029029D01*
X006583Y029116D01*
X006564Y029205D01*
X006550Y029295D01*
X006544Y029386D01*
X006544Y029476D01*
X006550Y029567D01*
X006564Y029657D01*
X006583Y029746D01*
X006609Y029833D01*
X006641Y029919D01*
X006679Y030001D01*
X006724Y030081D01*
X006773Y030157D01*
X006828Y030229D01*
X006889Y030298D01*
X006954Y030361D01*
X007023Y030420D01*
X007096Y030474D01*
X007174Y030522D01*
X007254Y030565D01*
X007337Y030601D01*
X007423Y030632D01*
X007511Y030656D01*
X007600Y030674D01*
X007690Y030685D01*
X007781Y030690D01*
X007872Y030688D01*
X007963Y030680D01*
X008053Y030665D01*
X008141Y030643D01*
X008228Y030616D01*
X008312Y030582D01*
X008394Y030542D01*
X008473Y030496D01*
X008548Y030445D01*
X008619Y030389D01*
X008686Y030327D01*
X008749Y030261D01*
X008806Y030190D01*
X008799Y030185D01*
X008742Y030255D01*
X008680Y030321D01*
X008613Y030382D01*
X008543Y030438D01*
X008468Y030489D01*
X008390Y030534D01*
X008309Y030574D01*
X008225Y030607D01*
X008139Y030635D01*
X008051Y030656D01*
X007962Y030671D01*
X007872Y030679D01*
X007781Y030681D01*
X007691Y030676D01*
X007602Y030665D01*
X007513Y030647D01*
X007426Y030623D01*
X007341Y030593D01*
X007258Y030556D01*
X007178Y030514D01*
X007102Y030466D01*
X007029Y030413D01*
X006960Y030355D01*
X006895Y030291D01*
X006835Y030224D01*
X006781Y030152D01*
X006731Y030076D01*
X006687Y029997D01*
X006650Y029915D01*
X006618Y029831D01*
X006592Y029744D01*
X006572Y029656D01*
X006559Y029566D01*
X006553Y029476D01*
X006553Y029386D01*
X006559Y029296D01*
X006572Y029206D01*
X006592Y029118D01*
X006618Y029031D01*
X006650Y028947D01*
X006687Y028865D01*
X006731Y028786D01*
X006781Y028710D01*
X006835Y028638D01*
X006895Y028571D01*
X006960Y028507D01*
X007029Y028449D01*
X007102Y028396D01*
X007178Y028348D01*
X007258Y028306D01*
X007341Y028269D01*
X007426Y028239D01*
X007513Y028215D01*
X007602Y028197D01*
X007691Y028186D01*
X007781Y028181D01*
X007872Y028183D01*
X007962Y028191D01*
X008051Y028206D01*
X008139Y028227D01*
X008225Y028255D01*
X008309Y028288D01*
X008390Y028328D01*
X008468Y028373D01*
X008543Y028424D01*
X008613Y028480D01*
X008680Y028541D01*
X008742Y028607D01*
X008799Y028677D01*
X008792Y028682D01*
X008735Y028613D01*
X008674Y028548D01*
X008608Y028487D01*
X008537Y028431D01*
X008463Y028381D01*
X008386Y028336D01*
X008305Y028296D01*
X008222Y028263D01*
X008136Y028236D01*
X008049Y028215D01*
X007960Y028200D01*
X007871Y028192D01*
X007781Y028190D01*
X007692Y028195D01*
X007603Y028206D01*
X007515Y028224D01*
X007429Y028248D01*
X007344Y028278D01*
X007262Y028314D01*
X007183Y028356D01*
X007107Y028403D01*
X007034Y028456D01*
X006966Y028514D01*
X006902Y028577D01*
X006842Y028644D01*
X006788Y028716D01*
X006739Y028791D01*
X006696Y028869D01*
X006658Y028950D01*
X006626Y029034D01*
X006601Y029120D01*
X006581Y029208D01*
X006568Y029297D01*
X006562Y029386D01*
X006562Y029476D01*
X006568Y029565D01*
X006581Y029654D01*
X006601Y029742D01*
X006626Y029828D01*
X006658Y029912D01*
X006696Y029993D01*
X006739Y030071D01*
X006788Y030146D01*
X006842Y030218D01*
X006902Y030285D01*
X006966Y030348D01*
X007034Y030406D01*
X007107Y030459D01*
X007183Y030506D01*
X007262Y030548D01*
X007344Y030584D01*
X007429Y030614D01*
X007515Y030638D01*
X007603Y030656D01*
X007692Y030667D01*
X007781Y030672D01*
X007871Y030670D01*
X007960Y030662D01*
X008049Y030647D01*
X008136Y030626D01*
X008222Y030599D01*
X008305Y030566D01*
X008386Y030526D01*
X008463Y030481D01*
X008537Y030431D01*
X008608Y030375D01*
X008674Y030314D01*
X008735Y030249D01*
X008792Y030180D01*
X008785Y030174D01*
X008728Y030243D01*
X008667Y030308D01*
X008602Y030368D01*
X008532Y030424D01*
X008458Y030474D01*
X008381Y030518D01*
X008301Y030557D01*
X008219Y030590D01*
X008134Y030618D01*
X008047Y030638D01*
X007959Y030653D01*
X007871Y030661D01*
X007782Y030663D01*
X007693Y030658D01*
X007604Y030647D01*
X007517Y030630D01*
X007431Y030606D01*
X007347Y030576D01*
X007266Y030540D01*
X007187Y030499D01*
X007112Y030451D01*
X007040Y030399D01*
X006972Y030341D01*
X006908Y030279D01*
X006849Y030212D01*
X006795Y030141D01*
X006747Y030067D01*
X006704Y029989D01*
X006666Y029908D01*
X006635Y029825D01*
X006609Y029739D01*
X006590Y029652D01*
X006577Y029564D01*
X006571Y029476D01*
X006571Y029386D01*
X006577Y029298D01*
X006590Y029210D01*
X006609Y029123D01*
X006635Y029037D01*
X006666Y028954D01*
X006704Y028873D01*
X006747Y028795D01*
X006795Y028721D01*
X006849Y028650D01*
X006908Y028583D01*
X006972Y028521D01*
X007040Y028463D01*
X007112Y028411D01*
X007187Y028363D01*
X007266Y028322D01*
X007347Y028286D01*
X007431Y028256D01*
X007517Y028232D01*
X007604Y028215D01*
X007693Y028204D01*
X007782Y028199D01*
X007871Y028201D01*
X007959Y028209D01*
X008047Y028224D01*
X008134Y028244D01*
X008219Y028272D01*
X008301Y028305D01*
X008381Y028344D01*
X008458Y028388D01*
X008532Y028438D01*
X008602Y028494D01*
X008667Y028554D01*
X008728Y028619D01*
X008785Y028688D01*
X008777Y028693D01*
X008722Y028625D01*
X008661Y028560D01*
X008596Y028501D01*
X008527Y028446D01*
X008453Y028396D01*
X008377Y028352D01*
X008298Y028313D01*
X008215Y028280D01*
X008131Y028253D01*
X008045Y028232D01*
X007958Y028218D01*
X007870Y028210D01*
X007782Y028208D01*
X007693Y028213D01*
X007606Y028224D01*
X007519Y028241D01*
X007434Y028265D01*
X007351Y028294D01*
X007270Y028330D01*
X007192Y028371D01*
X007117Y028418D01*
X007045Y028470D01*
X006978Y028527D01*
X006915Y028589D01*
X006856Y028656D01*
X006803Y028726D01*
X006754Y028800D01*
X006712Y028877D01*
X006674Y028957D01*
X006643Y029040D01*
X006618Y029125D01*
X006599Y029211D01*
X006586Y029299D01*
X006580Y029387D01*
X006580Y029475D01*
X006586Y029563D01*
X006599Y029651D01*
X006618Y029737D01*
X006643Y029822D01*
X006674Y029905D01*
X006712Y029985D01*
X006754Y030062D01*
X006803Y030136D01*
X006856Y030206D01*
X006915Y030273D01*
X006978Y030335D01*
X007045Y030392D01*
X007117Y030444D01*
X007192Y030491D01*
X007270Y030532D01*
X007351Y030568D01*
X007434Y030597D01*
X007519Y030621D01*
X007606Y030638D01*
X007693Y030649D01*
X007782Y030654D01*
X007870Y030652D01*
X007958Y030644D01*
X008045Y030630D01*
X008131Y030609D01*
X008215Y030582D01*
X008298Y030549D01*
X008377Y030510D01*
X008453Y030466D01*
X008527Y030416D01*
X008596Y030361D01*
X008661Y030302D01*
X008722Y030237D01*
X008777Y030169D01*
X008770Y030163D01*
X008715Y030231D01*
X008655Y030295D01*
X008590Y030355D01*
X008521Y030409D01*
X008449Y030458D01*
X008373Y030502D01*
X008294Y030541D01*
X008212Y030574D01*
X008129Y030600D01*
X008044Y030621D01*
X007957Y030635D01*
X007870Y030643D01*
X007782Y030645D01*
X007694Y030640D01*
X007607Y030629D01*
X007521Y030612D01*
X007437Y030589D01*
X007354Y030559D01*
X007274Y030524D01*
X007196Y030483D01*
X007122Y030436D01*
X007051Y030385D01*
X006984Y030328D01*
X006921Y030267D01*
X006863Y030201D01*
X006810Y030131D01*
X006762Y030057D01*
X006720Y029981D01*
X006683Y029901D01*
X006652Y029819D01*
X006627Y029735D01*
X006608Y029649D01*
X006595Y029562D01*
X006589Y029475D01*
X006589Y029387D01*
X006595Y029300D01*
X006608Y029213D01*
X006627Y029127D01*
X006652Y029043D01*
X006683Y028961D01*
X006720Y028881D01*
X006762Y028805D01*
X006810Y028731D01*
X006863Y028661D01*
X006921Y028595D01*
X006984Y028534D01*
X007051Y028477D01*
X007122Y028426D01*
X007196Y028379D01*
X007274Y028338D01*
X007354Y028303D01*
X007437Y028273D01*
X007521Y028250D01*
X007607Y028233D01*
X007694Y028222D01*
X007782Y028217D01*
X007870Y028219D01*
X007957Y028227D01*
X008044Y028241D01*
X008129Y028262D01*
X008212Y028288D01*
X008294Y028321D01*
X008373Y028360D01*
X008449Y028404D01*
X008521Y028453D01*
X008590Y028507D01*
X008655Y028567D01*
X008715Y028631D01*
X008770Y028699D01*
D13*
X008152Y012681D02*
X013952Y012681D01*
X007452Y012681D02*
X001652Y012681D01*
D14*
X005802Y029916D03*
D15*
X009502Y029831D02*
X009802Y029831D01*
X010102Y029831D01*
X010102Y030031D02*
X009802Y030031D01*
X009502Y030031D01*
D16*
X008652Y031081D02*
X008902Y031331D01*
X008902Y031781D01*
X006702Y031781D01*
X006702Y031331D01*
X006952Y031081D01*
X008652Y031081D01*
M02*
