G75*
G70*
%OFA0B0*%
%FSLAX24Y24*%
%IPPOS*%
%LPD*%
%AMOC8*
5,1,8,0,0,1.08239X$1,22.5*
%
%ADD10C,0.0080*%
%ADD11OC8,0.0560*%
%ADD12OC8,0.0594*%
%ADD13C,0.0590*%
%ADD14R,0.0640X0.0640*%
%ADD15C,0.0640*%
%ADD16OC8,0.0640*%
%ADD17C,0.0160*%
%ADD18C,0.0100*%
%ADD19C,0.0120*%
D10*
X006831Y005546D02*
X006911Y005546D01*
X007071Y005546D02*
X007391Y005546D01*
X007391Y005466D02*
X007391Y005626D01*
X007391Y005810D02*
X007071Y005810D01*
X007071Y006050D01*
X007151Y006130D01*
X007391Y006130D01*
X007311Y006406D02*
X007391Y006486D01*
X007311Y006406D02*
X006991Y006406D01*
X007071Y006326D02*
X007071Y006486D01*
X007151Y006669D02*
X007071Y006750D01*
X007071Y006990D01*
X007231Y006910D02*
X007231Y006750D01*
X007151Y006669D01*
X007231Y006910D02*
X007311Y006990D01*
X007391Y006910D01*
X007391Y006669D01*
X007071Y005546D02*
X007071Y005466D01*
X007071Y005277D02*
X007071Y005197D01*
X007231Y005037D01*
X007391Y005037D02*
X007071Y005037D01*
X007151Y004841D02*
X007311Y004841D01*
X007391Y004761D01*
X007391Y004521D01*
X007552Y004521D02*
X007071Y004521D01*
X007071Y004761D01*
X007151Y004841D01*
X007231Y004326D02*
X007151Y004246D01*
X007151Y004085D01*
X007071Y004005D01*
X006991Y004005D01*
X006911Y004085D01*
X006911Y004246D01*
X006991Y004326D01*
X007231Y004326D02*
X007311Y004326D01*
X007391Y004246D01*
X007391Y004085D01*
X007311Y004005D01*
X007391Y003810D02*
X007151Y003810D01*
X007071Y003730D01*
X007071Y003490D01*
X007391Y003490D01*
X007231Y003294D02*
X007231Y002974D01*
X007311Y002974D02*
X007151Y002974D01*
X007071Y003054D01*
X007071Y003214D01*
X007151Y003294D01*
X007231Y003294D01*
X007391Y003214D02*
X007391Y003054D01*
X007311Y002974D01*
X007311Y002779D02*
X007151Y002779D01*
X007071Y002699D01*
X007071Y002459D01*
X007552Y002459D01*
X007391Y002459D02*
X007391Y002699D01*
X007311Y002779D01*
X007311Y002263D02*
X006991Y002263D01*
X006911Y002183D01*
X006911Y002023D01*
X006991Y001943D01*
X007311Y001943D01*
X007391Y002023D01*
X007391Y002183D01*
X007311Y002263D01*
X005335Y010693D02*
X005121Y010693D01*
X005121Y010906D02*
X005335Y010906D01*
X005441Y010800D01*
X005335Y010693D01*
X005388Y011061D02*
X005175Y011061D01*
X005121Y011115D01*
X005121Y011221D01*
X005175Y011275D01*
X005388Y011275D01*
X005441Y011221D01*
X005441Y011115D01*
X005388Y011061D01*
X005388Y011430D02*
X005121Y011430D01*
X005121Y011643D02*
X005388Y011643D01*
X005441Y011590D01*
X005441Y011483D01*
X005388Y011430D01*
X005121Y011798D02*
X005121Y012011D01*
X005121Y011905D02*
X005441Y011905D01*
X004441Y011590D02*
X004441Y011430D01*
X004121Y011430D01*
X004121Y011590D01*
X004175Y011643D01*
X004388Y011643D01*
X004441Y011590D01*
X004441Y011275D02*
X004121Y011275D01*
X004121Y011061D02*
X004441Y011275D01*
X004441Y011061D02*
X004121Y011061D01*
X004175Y010906D02*
X004121Y010853D01*
X004121Y010746D01*
X004175Y010693D01*
X004388Y010693D01*
X004441Y010746D01*
X004441Y010853D01*
X004388Y010906D01*
X004281Y010906D01*
X004281Y010800D01*
X003441Y010800D02*
X003335Y010693D01*
X003121Y010693D01*
X003121Y010906D02*
X003335Y010906D01*
X003441Y010800D01*
X003388Y011061D02*
X003175Y011061D01*
X003121Y011115D01*
X003121Y011221D01*
X003175Y011275D01*
X003175Y011430D02*
X003121Y011483D01*
X003121Y011590D01*
X003175Y011643D01*
X003388Y011643D02*
X003441Y011590D01*
X003441Y011483D01*
X003388Y011430D01*
X003175Y011430D01*
X003388Y011275D02*
X003441Y011221D01*
X003441Y011115D01*
X003388Y011061D01*
D11*
X006681Y016153D03*
X007681Y016153D03*
X007431Y019653D03*
X006431Y019653D03*
X011681Y012153D03*
X011681Y011153D03*
D12*
X011681Y020653D03*
X012431Y020653D03*
X013181Y020653D03*
X007931Y020653D03*
X007181Y020653D03*
X006431Y020653D03*
X001181Y020653D03*
X001181Y019903D03*
X001181Y019153D03*
D13*
X001681Y005703D03*
X002181Y006703D03*
X002681Y005703D03*
X003181Y006703D03*
X003681Y005703D03*
X004181Y006703D03*
X004681Y005703D03*
X005181Y006703D03*
X009181Y005703D03*
X009681Y006703D03*
X010181Y005703D03*
X010681Y006703D03*
X011181Y005703D03*
X011681Y006703D03*
X012181Y005703D03*
X012681Y006703D03*
X012181Y014653D03*
X012181Y015653D03*
X012181Y016653D03*
X012181Y017653D03*
X012181Y018653D03*
X012181Y019653D03*
X011181Y019653D03*
X011181Y018653D03*
X011181Y017653D03*
X011181Y016653D03*
X011181Y015653D03*
X011181Y014653D03*
X010181Y014653D03*
X010181Y015653D03*
X010181Y016653D03*
X010181Y017653D03*
X010181Y018653D03*
X010181Y019653D03*
X010181Y020653D03*
X009181Y020653D03*
X009181Y019653D03*
X009181Y018653D03*
X009181Y017653D03*
X009181Y016653D03*
X009181Y015653D03*
X009181Y014653D03*
X005181Y014653D03*
X005181Y015653D03*
X005181Y016653D03*
X005181Y017653D03*
X005181Y018653D03*
X005181Y019653D03*
X005181Y020653D03*
X004181Y020653D03*
X004181Y019653D03*
X004181Y018653D03*
X004181Y017653D03*
X004181Y016653D03*
X004181Y015653D03*
X004181Y014653D03*
X003181Y014653D03*
X003181Y015653D03*
X003181Y016653D03*
X003181Y017653D03*
X003181Y018653D03*
X003181Y019653D03*
X003181Y020653D03*
X002181Y020653D03*
X002181Y019653D03*
X002181Y018653D03*
X002181Y017653D03*
X002181Y016653D03*
X002181Y015653D03*
X002181Y014653D03*
X001181Y014653D03*
X001181Y015653D03*
X001181Y016653D03*
X001181Y017653D03*
X013181Y017653D03*
X013181Y016653D03*
X013181Y015653D03*
X013181Y014653D03*
X013181Y018653D03*
X013181Y019653D03*
D14*
X003681Y009653D03*
D15*
X004681Y009653D03*
X005681Y009653D03*
X006681Y009653D03*
X007681Y009653D03*
X008681Y009653D03*
X009681Y009653D03*
X010681Y009653D03*
D16*
X013181Y008653D03*
X013181Y013653D03*
X001181Y013653D03*
X001181Y008653D03*
D17*
X001681Y008153D01*
X003181Y009653D01*
X003681Y009653D01*
X003681Y012153D01*
X003181Y012653D01*
X001181Y012653D01*
X000681Y013153D01*
X000681Y018403D01*
X001181Y018903D01*
X001181Y019153D01*
X004181Y019153D01*
X005931Y019153D01*
X006431Y019653D01*
X006431Y020653D01*
X007181Y020653D02*
X007181Y019903D01*
X007431Y019653D01*
X007431Y018903D01*
X007181Y018153D01*
X007181Y015153D01*
X004681Y012653D01*
X004681Y009653D01*
X004181Y009153D01*
X003181Y009153D01*
X002181Y008153D01*
X002181Y006703D01*
X001681Y005703D02*
X001681Y008153D01*
X001181Y013653D02*
X004931Y013653D01*
X006681Y015403D01*
X006681Y016153D01*
X007681Y014903D02*
X007681Y018153D01*
X007931Y018903D01*
X007931Y020653D01*
X007681Y014903D02*
X005681Y012903D01*
X005681Y009653D01*
X008681Y007153D02*
X008681Y005403D01*
X008931Y005153D01*
X009431Y005153D01*
X009681Y005403D01*
X009681Y006703D01*
X009181Y007153D02*
X009181Y005703D01*
X009181Y007153D02*
X010681Y008653D01*
X013181Y008653D01*
X011681Y009653D02*
X011181Y009153D01*
X010681Y009153D01*
X008681Y007153D01*
X011681Y009653D02*
X011681Y011153D01*
X011681Y012153D02*
X013181Y013653D01*
D18*
X011431Y012653D02*
X010931Y012653D01*
X011181Y012403D02*
X011181Y012903D01*
X010681Y009653D02*
X008681Y007653D01*
X005431Y007653D01*
X005181Y007403D01*
X005181Y006703D01*
X004681Y007653D02*
X004681Y005703D01*
X004181Y006703D02*
X004181Y007903D01*
X004431Y008153D01*
X007181Y008153D01*
X008681Y009653D01*
X007681Y009653D02*
X006431Y008403D01*
X003931Y008403D01*
X003681Y008153D01*
X003681Y005703D01*
X003181Y006703D02*
X003181Y008153D01*
X003681Y008653D01*
X005681Y008653D01*
X006681Y009653D01*
X007931Y007903D02*
X009681Y009653D01*
X007931Y007903D02*
X004931Y007903D01*
X004681Y007653D01*
X004931Y008903D02*
X003431Y008903D01*
X002681Y008153D01*
X002681Y005703D01*
X006181Y016403D02*
X006181Y016903D01*
X005931Y016653D02*
X006431Y016653D01*
X004181Y019153D02*
X003931Y019153D01*
X006181Y021153D02*
X008181Y021153D01*
X011431Y021153D02*
X013431Y021153D01*
X000681Y020903D02*
X000681Y018903D01*
D19*
X005681Y009653D02*
X004931Y008903D01*
M02*
