G75*
G70*
%OFA0B0*%
%FSLAX24Y24*%
%IPPOS*%
%LPD*%
%AMOC8*
5,1,8,0,0,1.08239X$1,22.5*
%
%ADD10C,0.0160*%
%ADD11C,0.0060*%
%ADD12C,0.0100*%
%ADD13C,0.0050*%
%ADD14C,0.0000*%
%ADD15C,0.0080*%
%ADD16C,0.0020*%
%ADD17R,0.0200X0.0200*%
%ADD18C,0.0320*%
%ADD19R,0.0320X0.0180*%
D10*
X000181Y001653D02*
X000181Y021653D01*
X014181Y021653D01*
X014181Y001653D01*
X000181Y001653D01*
D11*
X000581Y009203D02*
X001781Y009203D01*
X001798Y009205D01*
X001815Y009209D01*
X001831Y009216D01*
X001845Y009226D01*
X001858Y009239D01*
X001868Y009253D01*
X001875Y009269D01*
X001879Y009286D01*
X001881Y009303D01*
X001881Y013003D01*
X001879Y013020D01*
X001875Y013037D01*
X001868Y013053D01*
X001858Y013067D01*
X001845Y013080D01*
X001831Y013090D01*
X001815Y013097D01*
X001798Y013101D01*
X001781Y013103D01*
X000581Y013103D01*
X000564Y013101D01*
X000547Y013097D01*
X000531Y013090D01*
X000517Y013080D01*
X000504Y013067D01*
X000494Y013053D01*
X000487Y013037D01*
X000483Y013020D01*
X000481Y013003D01*
X000481Y009303D01*
X000483Y009286D01*
X000487Y009269D01*
X000494Y009253D01*
X000504Y009239D01*
X000517Y009226D01*
X000531Y009216D01*
X000547Y009209D01*
X000564Y009205D01*
X000581Y009203D01*
X006081Y019153D02*
X007781Y019153D01*
X007798Y019155D01*
X007815Y019159D01*
X007831Y019166D01*
X007845Y019176D01*
X007858Y019189D01*
X007868Y019203D01*
X007875Y019219D01*
X007879Y019236D01*
X007881Y019253D01*
X007881Y020053D01*
X007879Y020070D01*
X007875Y020087D01*
X007868Y020103D01*
X007858Y020117D01*
X007845Y020130D01*
X007831Y020140D01*
X007815Y020147D01*
X007798Y020151D01*
X007781Y020153D01*
X006081Y020153D01*
X006064Y020151D01*
X006047Y020147D01*
X006031Y020140D01*
X006017Y020130D01*
X006004Y020117D01*
X005994Y020103D01*
X005987Y020087D01*
X005983Y020070D01*
X005981Y020053D01*
X005981Y019253D01*
X005983Y019236D01*
X005987Y019219D01*
X005994Y019203D01*
X006004Y019189D01*
X006017Y019176D01*
X006031Y019166D01*
X006047Y019159D01*
X006064Y019155D01*
X006081Y019153D01*
X006631Y019653D02*
X006781Y019653D01*
X006831Y019653D01*
X007031Y019653D02*
X007081Y019653D01*
X007231Y019653D01*
X008031Y016153D02*
X008029Y016097D01*
X008024Y016042D01*
X008015Y015987D01*
X008002Y015933D01*
X007986Y015880D01*
X007966Y015828D01*
X007943Y015777D01*
X007917Y015728D01*
X007888Y015681D01*
X007855Y015636D01*
X007820Y015593D01*
X007782Y015552D01*
X007741Y015514D01*
X007698Y015479D01*
X007653Y015446D01*
X007606Y015417D01*
X007557Y015391D01*
X007506Y015368D01*
X007454Y015348D01*
X007401Y015332D01*
X007347Y015319D01*
X007292Y015310D01*
X007237Y015305D01*
X007181Y015303D01*
X006331Y016153D02*
X006333Y016209D01*
X006338Y016264D01*
X006347Y016319D01*
X006360Y016373D01*
X006376Y016426D01*
X006396Y016478D01*
X006419Y016529D01*
X006445Y016578D01*
X006474Y016625D01*
X006507Y016670D01*
X006542Y016713D01*
X006580Y016754D01*
X006621Y016792D01*
X006664Y016827D01*
X006709Y016860D01*
X006756Y016889D01*
X006805Y016915D01*
X006856Y016938D01*
X006908Y016958D01*
X006961Y016974D01*
X007015Y016987D01*
X007070Y016996D01*
X007125Y017001D01*
X007181Y017003D01*
X007831Y016153D02*
X007829Y016104D01*
X007824Y016056D01*
X007815Y016008D01*
X007802Y015961D01*
X007786Y015916D01*
X007767Y015871D01*
X007744Y015828D01*
X007718Y015787D01*
X007689Y015748D01*
X007657Y015711D01*
X007623Y015677D01*
X007586Y015645D01*
X007547Y015616D01*
X007506Y015590D01*
X007463Y015567D01*
X007418Y015548D01*
X007373Y015532D01*
X007326Y015519D01*
X007278Y015510D01*
X007230Y015505D01*
X007181Y015503D01*
X006531Y016153D02*
X006533Y016202D01*
X006538Y016250D01*
X006547Y016298D01*
X006560Y016345D01*
X006576Y016390D01*
X006595Y016435D01*
X006618Y016478D01*
X006644Y016519D01*
X006673Y016558D01*
X006705Y016595D01*
X006739Y016629D01*
X006776Y016661D01*
X006815Y016690D01*
X006856Y016716D01*
X006899Y016739D01*
X006944Y016758D01*
X006989Y016774D01*
X007036Y016787D01*
X007084Y016796D01*
X007132Y016801D01*
X007181Y016803D01*
X007631Y016153D02*
X007629Y016111D01*
X007623Y016070D01*
X007614Y016030D01*
X007601Y015990D01*
X007584Y015952D01*
X007564Y015916D01*
X007540Y015882D01*
X007514Y015850D01*
X007484Y015820D01*
X007452Y015794D01*
X007418Y015770D01*
X007382Y015750D01*
X007344Y015733D01*
X007304Y015720D01*
X007264Y015711D01*
X007223Y015705D01*
X007181Y015703D01*
X006731Y016153D02*
X006733Y016195D01*
X006739Y016236D01*
X006748Y016276D01*
X006761Y016316D01*
X006778Y016354D01*
X006798Y016390D01*
X006822Y016424D01*
X006848Y016456D01*
X006878Y016486D01*
X006910Y016512D01*
X006944Y016536D01*
X006980Y016556D01*
X007018Y016573D01*
X007058Y016586D01*
X007098Y016595D01*
X007139Y016601D01*
X007181Y016603D01*
X006181Y016153D02*
X006218Y016423D01*
X006327Y016673D01*
X006498Y016884D01*
X006721Y017041D01*
X006978Y017132D01*
X007249Y017151D01*
X007516Y017095D01*
X007758Y016970D01*
X007957Y016784D01*
X008098Y016551D01*
X008172Y016289D01*
X008172Y016017D01*
X008098Y015755D01*
X007957Y015522D01*
X007758Y015336D01*
X007516Y015211D01*
X007249Y015155D01*
X006978Y015174D01*
X006721Y015265D01*
X006498Y015422D01*
X006327Y015633D01*
X006218Y015883D01*
X006181Y016153D01*
X011282Y012101D02*
X011320Y012132D01*
X011360Y012160D01*
X011402Y012184D01*
X011445Y012205D01*
X011491Y012222D01*
X011537Y012235D01*
X011585Y012245D01*
X011633Y012251D01*
X011681Y012253D01*
X011281Y011653D02*
X011283Y011614D01*
X011289Y011575D01*
X011298Y011537D01*
X011311Y011500D01*
X011328Y011464D01*
X011348Y011431D01*
X011372Y011399D01*
X011398Y011370D01*
X011427Y011344D01*
X011459Y011320D01*
X011492Y011300D01*
X011528Y011283D01*
X011565Y011270D01*
X011603Y011261D01*
X011642Y011255D01*
X011681Y011253D01*
X011681Y011403D02*
X011651Y011405D01*
X011621Y011410D01*
X011592Y011419D01*
X011565Y011432D01*
X011539Y011447D01*
X011515Y011466D01*
X011494Y011487D01*
X011475Y011511D01*
X011460Y011537D01*
X011447Y011564D01*
X011438Y011593D01*
X011433Y011623D01*
X011431Y011653D01*
X011681Y012053D02*
X011720Y012051D01*
X011759Y012045D01*
X011797Y012036D01*
X011834Y012023D01*
X011870Y012006D01*
X011903Y011986D01*
X011935Y011962D01*
X011964Y011936D01*
X011990Y011907D01*
X012014Y011875D01*
X012034Y011842D01*
X012051Y011806D01*
X012064Y011769D01*
X012073Y011731D01*
X012079Y011692D01*
X012081Y011653D01*
X011931Y011653D02*
X011929Y011683D01*
X011924Y011713D01*
X011915Y011742D01*
X011902Y011769D01*
X011887Y011795D01*
X011868Y011819D01*
X011847Y011840D01*
X011823Y011859D01*
X011797Y011874D01*
X011770Y011887D01*
X011741Y011896D01*
X011711Y011901D01*
X011681Y011903D01*
X011313Y012127D02*
X011278Y012097D01*
X011245Y012066D01*
X011215Y012031D01*
X011188Y011995D01*
X011164Y011957D01*
X011142Y011917D01*
X011124Y011875D01*
X011108Y011832D01*
X011096Y011788D01*
X011088Y011744D01*
X011083Y011698D01*
X011081Y011653D01*
X011083Y011608D01*
X011088Y011562D01*
X011096Y011518D01*
X011108Y011474D01*
X011124Y011431D01*
X011142Y011389D01*
X011164Y011349D01*
X011188Y011311D01*
X011215Y011275D01*
X011245Y011240D01*
X011278Y011209D01*
X011313Y011179D01*
X012281Y011653D02*
X012279Y011699D01*
X012274Y011745D01*
X012265Y011791D01*
X012253Y011836D01*
X012237Y011879D01*
X012218Y011921D01*
X012195Y011962D01*
X012170Y012001D01*
X012142Y012037D01*
X012111Y012072D01*
X012077Y012104D01*
X012041Y012133D01*
X012281Y011653D02*
X012279Y011606D01*
X012273Y011558D01*
X012264Y011512D01*
X012251Y011466D01*
X012235Y011422D01*
X012215Y011378D01*
X012191Y011337D01*
X012165Y011298D01*
X012135Y011261D01*
X012102Y011226D01*
X012067Y011194D01*
X012030Y011165D01*
X011681Y011053D02*
X011635Y011055D01*
X011589Y011060D01*
X011543Y011069D01*
X011499Y011081D01*
X011455Y011097D01*
X011413Y011116D01*
X011372Y011138D01*
X011334Y011164D01*
X011297Y011192D01*
X011681Y011053D02*
X011728Y011055D01*
X011775Y011060D01*
X011821Y011070D01*
X011867Y011083D01*
X011911Y011099D01*
X011954Y011119D01*
X011995Y011142D01*
X012034Y011168D01*
X012071Y011197D01*
X012065Y012114D02*
X012028Y012142D01*
X011990Y012168D01*
X011949Y012190D01*
X011907Y012209D01*
X011863Y012225D01*
X011819Y012237D01*
X011773Y012246D01*
X011727Y012251D01*
X011681Y012253D01*
X012481Y013003D02*
X012481Y009303D01*
X012483Y009286D01*
X012487Y009269D01*
X012494Y009253D01*
X012504Y009239D01*
X012517Y009226D01*
X012531Y009216D01*
X012547Y009209D01*
X012564Y009205D01*
X012581Y009203D01*
X013781Y009203D01*
X013798Y009205D01*
X013815Y009209D01*
X013831Y009216D01*
X013845Y009226D01*
X013858Y009239D01*
X013868Y009253D01*
X013875Y009269D01*
X013879Y009286D01*
X013881Y009303D01*
X013881Y013003D01*
X013879Y013020D01*
X013875Y013037D01*
X013868Y013053D01*
X013858Y013067D01*
X013845Y013080D01*
X013831Y013090D01*
X013815Y013097D01*
X013798Y013101D01*
X013781Y013103D01*
X012581Y013103D01*
X012564Y013101D01*
X012547Y013097D01*
X012531Y013090D01*
X012517Y013080D01*
X012504Y013067D01*
X012494Y013053D01*
X012487Y013037D01*
X012483Y013020D01*
X012481Y013003D01*
D12*
X011284Y012348D02*
X011236Y012318D01*
X011191Y012285D01*
X011148Y012249D01*
X011107Y012211D01*
X011070Y012169D01*
X011035Y012125D01*
X011004Y012079D01*
X010975Y012030D01*
X010951Y011980D01*
X010930Y011928D01*
X010912Y011874D01*
X010899Y011820D01*
X010889Y011765D01*
X010883Y011709D01*
X010881Y011653D01*
X011181Y011033D02*
X012181Y011033D01*
X012481Y011653D02*
X012479Y011707D01*
X012474Y011761D01*
X012465Y011814D01*
X012452Y011867D01*
X012436Y011918D01*
X012416Y011968D01*
X012393Y012017D01*
X012367Y012065D01*
X012338Y012110D01*
X012305Y012153D01*
X012270Y012194D01*
X012232Y012233D01*
X012192Y012269D01*
X012149Y012302D01*
X012104Y012332D01*
X012057Y012359D01*
X011681Y012453D02*
X011626Y012451D01*
X011571Y012445D01*
X011517Y012436D01*
X011463Y012423D01*
X011411Y012406D01*
X011359Y012386D01*
X011310Y012362D01*
X011262Y012334D01*
X011681Y012453D02*
X011737Y012451D01*
X011794Y012445D01*
X011849Y012435D01*
X011904Y012421D01*
X011957Y012404D01*
X012010Y012382D01*
X012060Y012357D01*
X010881Y011653D02*
X010883Y011600D01*
X010888Y011546D01*
X010897Y011494D01*
X010909Y011442D01*
X010925Y011391D01*
X010944Y011341D01*
X010967Y011292D01*
X010993Y011245D01*
X011021Y011200D01*
X011053Y011157D01*
X011087Y011117D01*
X011125Y011078D01*
X011164Y011042D01*
X012193Y011038D02*
X012233Y011074D01*
X012271Y011113D01*
X012306Y011154D01*
X012338Y011197D01*
X012368Y011242D01*
X012394Y011289D01*
X012416Y011338D01*
X012436Y011389D01*
X012452Y011440D01*
X012465Y011492D01*
X012474Y011546D01*
X012479Y011599D01*
X012481Y011653D01*
X008181Y015403D02*
X008138Y015349D01*
X008092Y015297D01*
X008043Y015248D01*
X007991Y015201D01*
X007937Y015158D01*
X007881Y015117D01*
X007822Y015080D01*
X007762Y015046D01*
X007699Y015016D01*
X007636Y014989D01*
X007570Y014965D01*
X007504Y014945D01*
X007436Y014929D01*
X007368Y014917D01*
X007299Y014909D01*
X007230Y014904D01*
X007160Y014903D01*
X007091Y014906D01*
X007022Y014913D01*
X006954Y014924D01*
X006886Y014938D01*
X006819Y014957D01*
X006753Y014979D01*
X006688Y015004D01*
X006625Y015033D01*
X006564Y015066D01*
X006505Y015102D01*
X006448Y015141D01*
X006392Y015183D01*
X006340Y015228D01*
X006290Y015276D01*
X006243Y015327D01*
X006198Y015381D01*
X006157Y015436D01*
X006119Y015494D01*
X006084Y015554D01*
X006052Y015616D01*
X006024Y015679D01*
X006000Y015744D01*
X005979Y015810D01*
X005962Y015878D01*
X005948Y015946D01*
X005939Y016015D01*
X005933Y016084D01*
X005931Y016153D01*
X005933Y016222D01*
X005939Y016291D01*
X005948Y016360D01*
X005962Y016428D01*
X005979Y016496D01*
X006000Y016562D01*
X006024Y016627D01*
X006052Y016690D01*
X006084Y016752D01*
X006119Y016812D01*
X006157Y016870D01*
X006198Y016925D01*
X006243Y016979D01*
X006290Y017030D01*
X006340Y017078D01*
X006392Y017123D01*
X006448Y017165D01*
X006505Y017204D01*
X006564Y017240D01*
X006625Y017273D01*
X006688Y017302D01*
X006753Y017327D01*
X006819Y017349D01*
X006886Y017368D01*
X006954Y017382D01*
X007022Y017393D01*
X007091Y017400D01*
X007160Y017403D01*
X007230Y017402D01*
X007299Y017397D01*
X007368Y017389D01*
X007436Y017377D01*
X007504Y017361D01*
X007570Y017341D01*
X007636Y017317D01*
X007699Y017290D01*
X007762Y017260D01*
X007822Y017226D01*
X007881Y017189D01*
X007937Y017148D01*
X007991Y017105D01*
X008043Y017058D01*
X008092Y017009D01*
X008138Y016957D01*
X008181Y016903D01*
X007031Y019353D02*
X007031Y019653D01*
X007031Y019953D01*
X006831Y019953D02*
X006831Y019653D01*
X006831Y019353D01*
D13*
X006331Y020303D02*
X006081Y020553D01*
X006081Y021003D01*
X008281Y021003D01*
X008281Y020553D01*
X008031Y020303D01*
X006331Y020303D01*
X001531Y020753D02*
X001531Y019053D01*
X001281Y018803D01*
X000831Y018803D01*
X000831Y021003D01*
X001281Y021003D01*
X001531Y020753D01*
X011331Y020553D02*
X011331Y021003D01*
X013531Y021003D01*
X013531Y020553D01*
X013281Y020303D01*
X011581Y020303D01*
X011331Y020553D01*
D14*
X005881Y011653D02*
X005919Y011964D01*
X006030Y012257D01*
X006208Y012515D01*
X006443Y012723D01*
X006720Y012869D01*
X007024Y012944D01*
X007338Y012944D01*
X007642Y012869D01*
X007919Y012723D01*
X008154Y012515D01*
X008332Y012257D01*
X008443Y011964D01*
X008481Y011653D01*
X008443Y011342D01*
X008332Y011049D01*
X008154Y010791D01*
X007919Y010583D01*
X007642Y010437D01*
X007338Y010362D01*
X007024Y010362D01*
X006720Y010437D01*
X006443Y010583D01*
X006208Y010791D01*
X006030Y011049D01*
X005919Y011342D01*
X005881Y011653D01*
X005041Y003203D02*
X005080Y003422D01*
X005191Y003614D01*
X005361Y003757D01*
X005570Y003833D01*
X005792Y003833D01*
X006001Y003757D01*
X006171Y003614D01*
X006282Y003422D01*
X006321Y003203D01*
X006282Y002984D01*
X006171Y002792D01*
X006001Y002649D01*
X005792Y002573D01*
X005570Y002573D01*
X005361Y002649D01*
X005191Y002792D01*
X005080Y002984D01*
X005041Y003203D01*
X008041Y003203D02*
X008080Y003422D01*
X008191Y003614D01*
X008361Y003757D01*
X008570Y003833D01*
X008792Y003833D01*
X009001Y003757D01*
X009171Y003614D01*
X009282Y003422D01*
X009321Y003203D01*
X009282Y002984D01*
X009171Y002792D01*
X009001Y002649D01*
X008792Y002573D01*
X008570Y002573D01*
X008361Y002649D01*
X008191Y002792D01*
X008080Y002984D01*
X008041Y003203D01*
X012541Y003203D02*
X012580Y003422D01*
X012691Y003614D01*
X012861Y003757D01*
X013070Y003833D01*
X013292Y003833D01*
X013501Y003757D01*
X013671Y003614D01*
X013782Y003422D01*
X013821Y003203D01*
X013782Y002984D01*
X013671Y002792D01*
X013501Y002649D01*
X013292Y002573D01*
X013070Y002573D01*
X012861Y002649D01*
X012691Y002792D01*
X012580Y002984D01*
X012541Y003203D01*
X000541Y003203D02*
X000580Y003422D01*
X000691Y003614D01*
X000861Y003757D01*
X001070Y003833D01*
X001292Y003833D01*
X001501Y003757D01*
X001671Y003614D01*
X001782Y003422D01*
X001821Y003203D01*
X001782Y002984D01*
X001671Y002792D01*
X001501Y002649D01*
X001292Y002573D01*
X001070Y002573D01*
X000861Y002649D01*
X000691Y002792D01*
X000580Y002984D01*
X000541Y003203D01*
D15*
X000472Y000149D02*
X000472Y007157D01*
X001581Y007157D01*
X001581Y007153D02*
X001581Y006053D01*
X001581Y005303D01*
X001581Y005203D01*
X001781Y005203D01*
X001781Y005303D01*
X001781Y006053D01*
X001781Y007157D01*
X001781Y007153D02*
X002081Y007153D01*
X002081Y006253D01*
X002281Y006253D01*
X002281Y007153D01*
X002581Y007153D01*
X002581Y006053D01*
X002581Y005303D01*
X002581Y005203D01*
X002781Y005203D01*
X002781Y005303D01*
X002781Y006053D01*
X002781Y007157D01*
X002781Y007153D02*
X003081Y007153D01*
X003081Y006253D01*
X003281Y006253D01*
X003281Y007153D01*
X003581Y007153D01*
X003581Y006053D01*
X003581Y005303D01*
X003581Y005203D01*
X003781Y005203D01*
X003781Y005303D01*
X003781Y006053D01*
X003781Y007153D01*
X004081Y007153D01*
X004081Y006253D01*
X004281Y006253D01*
X004281Y007153D01*
X004581Y007153D01*
X004581Y006053D01*
X004581Y005303D01*
X004581Y005203D01*
X004781Y005203D01*
X004781Y005303D01*
X004781Y006053D01*
X004781Y007157D01*
X004781Y007153D02*
X005081Y007153D01*
X005081Y006253D01*
X005281Y006253D01*
X005281Y007153D01*
X005281Y007157D02*
X006390Y007157D01*
X006390Y000149D01*
X000472Y000149D01*
X000781Y006753D02*
X001131Y006753D01*
X001131Y007153D01*
X000781Y007153D02*
X000781Y006753D01*
X003181Y009403D02*
X003431Y009153D01*
X003931Y009153D01*
X004181Y009403D01*
X004431Y009153D01*
X004931Y009153D01*
X005181Y009403D01*
X005431Y009153D01*
X005931Y009153D01*
X006181Y009403D01*
X006431Y009153D01*
X006931Y009153D01*
X007181Y009403D01*
X007431Y009153D01*
X007931Y009153D01*
X008181Y009403D01*
X008431Y009153D01*
X008931Y009153D01*
X009181Y009403D01*
X009431Y009153D01*
X009931Y009153D01*
X010181Y009403D01*
X010431Y009153D01*
X010931Y009153D01*
X011181Y009403D01*
X011181Y009903D01*
X010931Y010153D01*
X010431Y010153D01*
X010181Y009903D01*
X009931Y010153D01*
X009431Y010153D01*
X009181Y009903D01*
X008931Y010153D01*
X008431Y010153D01*
X008181Y009903D01*
X007931Y010153D01*
X007431Y010153D01*
X007181Y009903D01*
X006931Y010153D01*
X006431Y010153D01*
X006181Y009903D01*
X005931Y010153D01*
X005431Y010153D01*
X005181Y009903D01*
X004931Y010153D01*
X004431Y010153D01*
X004181Y009903D01*
X003931Y010153D01*
X003431Y010153D01*
X003181Y009903D01*
X003181Y009403D01*
X003781Y007157D02*
X003781Y007153D01*
X005731Y007153D02*
X005731Y006753D01*
X006081Y006753D01*
X006081Y007153D01*
X007972Y007157D02*
X009081Y007157D01*
X009081Y007153D02*
X009081Y006053D01*
X009081Y005303D01*
X009081Y005203D01*
X009281Y005203D01*
X009281Y005303D01*
X009281Y006053D01*
X009281Y007157D01*
X009281Y007153D02*
X009581Y007153D01*
X009581Y006253D01*
X009781Y006253D01*
X009781Y007153D01*
X010081Y007153D01*
X010081Y006053D01*
X010081Y005303D01*
X010081Y005203D01*
X010281Y005203D01*
X010281Y005303D01*
X010281Y006053D01*
X010281Y007157D01*
X010281Y007153D02*
X010581Y007153D01*
X010581Y006253D01*
X010781Y006253D01*
X010781Y007153D01*
X011081Y007153D01*
X011081Y006053D01*
X011081Y005303D01*
X011081Y005203D01*
X011281Y005203D01*
X011281Y005303D01*
X011281Y006053D01*
X011281Y007153D01*
X011581Y007153D01*
X011581Y006253D01*
X011781Y006253D01*
X011781Y007153D01*
X012081Y007153D01*
X012081Y006053D01*
X012081Y005303D01*
X012081Y005203D01*
X012281Y005203D01*
X012281Y005303D01*
X012281Y006053D01*
X012281Y007157D01*
X012281Y007153D02*
X012581Y007153D01*
X012581Y006253D01*
X012781Y006253D01*
X012781Y007153D01*
X012781Y007157D02*
X013890Y007157D01*
X013890Y000149D01*
X007972Y000149D01*
X007972Y007157D01*
X008281Y007153D02*
X008281Y006753D01*
X008631Y006753D01*
X008631Y007153D01*
X011281Y007153D02*
X011281Y007157D01*
X013231Y007153D02*
X013231Y006753D01*
X013581Y006753D01*
X013581Y007153D01*
X008181Y015403D02*
X008181Y016903D01*
D16*
X008031Y001153D02*
X013831Y001153D01*
X006331Y001153D02*
X000531Y001153D01*
D17*
X003681Y009653D03*
X004681Y009653D03*
X005681Y009653D03*
X006681Y009653D03*
X007681Y009653D03*
X008681Y009653D03*
X009681Y009653D03*
X010681Y009653D03*
D18*
X013181Y009003D02*
X013181Y008653D01*
X013181Y013303D02*
X013181Y013653D01*
X001181Y013653D02*
X001181Y013303D01*
X001181Y009003D02*
X001181Y008653D01*
D19*
X001181Y009113D03*
X001181Y013193D03*
X013181Y013193D03*
X013181Y009113D03*
M02*
