G04 start of page 9 for group -3984 idx -3984
G04 Title: que linda, fab *
G04 Creator: pcb 20080202 *
G04 CreationDate: Fri 28 Nov 2008 04:08:51 AM GMT UTC *
G04 For: orluke *
G04 Format: Gerber/RS-274X *
G04 PCB-Dimensions: 450000 650000 *
G04 PCB-Coordinate-Origin: lower left *
%MOIN*%
%FSLAX24Y24*%
%LNFAB*%
%ADD11C,0.0100*%
%ADD20C,0.0080*%
%ADD21C,0.0060*%
G54D20*X34380Y8120D02*X34620Y7880D01*
X34380D02*X34620Y8120D01*
X38880D02*X39120Y7880D01*
X38880D02*X39120Y8120D01*
X24380D02*X24620Y7880D01*
X24380D02*X24620Y8120D01*
X28880D02*X29120Y7880D01*
X28880D02*X29120Y8120D01*
X14380D02*X14620Y7880D01*
X14380D02*X14620Y8120D01*
X18880D02*X19120Y7880D01*
X18880D02*X19120Y8120D01*
X4380D02*X4620Y7880D01*
X4380D02*X4620Y8120D01*
X8880D02*X9120Y7880D01*
X8880D02*X9120Y8120D01*
X1120Y44400D02*G75*G03X1280Y44400I80J0D01*G01*
G75*G03X1120Y44400I-80J0D01*G01*
X42520Y17200D02*G75*G03X42680Y17200I80J0D01*G01*
G75*G03X42520Y17200I-80J0D01*G01*
Y44400D02*G75*G03X42680Y44400I80J0D01*G01*
G75*G03X42520Y44400I-80J0D01*G01*
X1120Y17200D02*G75*G03X1280Y17200I80J0D01*G01*
G75*G03X1120Y17200I-80J0D01*G01*
X1420Y66125D02*G75*G03X1580Y66125I80J0D01*G01*
G75*G03X1420Y66125I-80J0D01*G01*
G54D21*X13500Y66350D02*Y66275D01*
X13650Y66125D01*
X13800Y66275D01*
Y66350D02*Y66275D01*
X13650Y66125D02*Y65750D01*
X13980Y66050D02*X14205D01*
X13980Y65750D02*X14280D01*
X13980Y66350D02*Y65750D01*
Y66350D02*X14280D01*
X14760D02*X14835Y66275D01*
X14535Y66350D02*X14760D01*
X14460Y66275D02*X14535Y66350D01*
X14460Y66275D02*Y66125D01*
X14535Y66050D01*
X14760D01*
X14835Y65975D01*
Y65825D01*
X14760Y65750D02*X14835Y65825D01*
X14535Y65750D02*X14760D01*
X14460Y65825D02*X14535Y65750D01*
X13500Y65424D02*X15015D01*
X9800Y66050D02*X10100Y66350D01*
X9800Y66050D02*X10175D01*
X10100Y66350D02*Y65750D01*
X9800Y65424D02*X10355D01*
X1380Y67745D02*X1620Y67505D01*
X1380D02*X1620Y67745D01*
X14000Y67850D02*Y67250D01*
Y67850D02*Y67775D01*
X14375Y67400D01*
Y67850D02*Y67250D01*
X14555Y67775D02*Y67325D01*
Y67775D02*X14630Y67850D01*
X14780D01*
X14855Y67775D01*
Y67325D01*
X14780Y67250D02*X14855Y67325D01*
X14630Y67250D02*X14780D01*
X14555Y67325D02*X14630Y67250D01*
X14000Y66924D02*X15035D01*
X9800Y67325D02*X9875Y67250D01*
X9800Y67475D02*Y67325D01*
Y67475D02*X9875Y67550D01*
X10025D01*
X10100Y67475D01*
Y67325D01*
X10025Y67250D02*X10100Y67325D01*
X9875Y67250D02*X10025D01*
X9800Y67625D02*X9875Y67550D01*
X9800Y67775D02*Y67625D01*
Y67775D02*X9875Y67850D01*
X10025D01*
X10100Y67775D01*
Y67625D01*
X10025Y67550D02*X10100Y67625D01*
X9800Y66924D02*X10280D01*
X4500Y67325D02*X4575Y67250D01*
X4500Y67775D02*Y67325D01*
Y67775D02*X4575Y67850D01*
X4725D01*
X4800Y67775D01*
Y67325D01*
X4725Y67250D02*X4800Y67325D01*
X4575Y67250D02*X4725D01*
X4500Y67400D02*X4800Y67700D01*
X4980Y67250D02*X5055D01*
X5310D02*X5460D01*
X5385Y67850D02*Y67250D01*
X5235Y67700D02*X5385Y67850D01*
X5640Y67775D02*X5715Y67850D01*
X5940D01*
X6015Y67775D01*
Y67625D01*
X5640Y67250D02*X6015Y67625D01*
X5640Y67250D02*X6015D01*
X6195Y67325D02*X6270Y67250D01*
X6195Y67475D02*Y67325D01*
Y67475D02*X6270Y67550D01*
X6420D01*
X6495Y67475D01*
Y67325D01*
X6420Y67250D02*X6495Y67325D01*
X6270Y67250D02*X6420D01*
X6195Y67625D02*X6270Y67550D01*
X6195Y67775D02*Y67625D01*
Y67775D02*X6270Y67850D01*
X6420D01*
X6495Y67775D01*
Y67625D01*
X6420Y67550D02*X6495Y67625D01*
X4500Y66924D02*X6675D01*
X4500Y65825D02*X4575Y65750D01*
X4500Y66275D02*Y65825D01*
Y66275D02*X4575Y66350D01*
X4725D01*
X4800Y66275D01*
Y65825D01*
X4725Y65750D02*X4800Y65825D01*
X4575Y65750D02*X4725D01*
X4500Y65900D02*X4800Y66200D01*
X4980Y65750D02*X5055D01*
X5310D02*X5460D01*
X5385Y66350D02*Y65750D01*
X5235Y66200D02*X5385Y66350D01*
X5640Y66275D02*X5715Y66350D01*
X5940D01*
X6015Y66275D01*
Y66125D01*
X5640Y65750D02*X6015Y66125D01*
X5640Y65750D02*X6015D01*
X6195Y65825D02*X6270Y65750D01*
X6195Y65975D02*Y65825D01*
Y65975D02*X6270Y66050D01*
X6420D01*
X6495Y65975D01*
Y65825D01*
X6420Y65750D02*X6495Y65825D01*
X6270Y65750D02*X6420D01*
X6195Y66125D02*X6270Y66050D01*
X6195Y66275D02*Y66125D01*
Y66275D02*X6270Y66350D01*
X6420D01*
X6495Y66275D01*
Y66125D01*
X6420Y66050D02*X6495Y66125D01*
X4500Y65424D02*X6675D01*
X3000Y14660D02*Y14340D01*
X2840Y14500D02*X3160D01*
X4000Y14660D02*Y14340D01*
X3840Y14500D02*X4160D01*
X5000Y14660D02*Y14340D01*
X4840Y14500D02*X5160D01*
X6000Y14660D02*Y14340D01*
X5840Y14500D02*X6160D01*
X7000Y14660D02*Y14340D01*
X6840Y14500D02*X7160D01*
X8000Y14660D02*Y14340D01*
X7840Y14500D02*X8160D01*
X9000Y14660D02*Y14340D01*
X8840Y14500D02*X9160D01*
X10000Y14660D02*Y14340D01*
X9840Y14500D02*X10160D01*
X23000Y14660D02*Y14340D01*
X22840Y14500D02*X23160D01*
X24000Y14660D02*Y14340D01*
X23840Y14500D02*X24160D01*
X25000Y14660D02*Y14340D01*
X24840Y14500D02*X25160D01*
X26000Y14660D02*Y14340D01*
X25840Y14500D02*X26160D01*
X27000Y14660D02*Y14340D01*
X26840Y14500D02*X27160D01*
X28000Y14660D02*Y14340D01*
X27840Y14500D02*X28160D01*
X29000Y14660D02*Y14340D01*
X28840Y14500D02*X29160D01*
X30000Y14660D02*Y14340D01*
X29840Y14500D02*X30160D01*
X33000Y14660D02*Y14340D01*
X32840Y14500D02*X33160D01*
X34000Y14660D02*Y14340D01*
X33840Y14500D02*X34160D01*
X35000Y14660D02*Y14340D01*
X34840Y14500D02*X35160D01*
X36000Y14660D02*Y14340D01*
X35840Y14500D02*X36160D01*
X37000Y14660D02*Y14340D01*
X36840Y14500D02*X37160D01*
X38000Y14660D02*Y14340D01*
X37840Y14500D02*X38160D01*
X39000Y14660D02*Y14340D01*
X38840Y14500D02*X39160D01*
X40000Y14660D02*Y14340D01*
X39840Y14500D02*X40160D01*
X13000Y14660D02*Y14340D01*
X12840Y14500D02*X13160D01*
X14000Y14660D02*Y14340D01*
X13840Y14500D02*X14160D01*
X15000Y14660D02*Y14340D01*
X14840Y14500D02*X15160D01*
X16000Y14660D02*Y14340D01*
X15840Y14500D02*X16160D01*
X17000Y14660D02*Y14340D01*
X16840Y14500D02*X17160D01*
X18000Y14660D02*Y14340D01*
X17840Y14500D02*X18160D01*
X19000Y14660D02*Y14340D01*
X18840Y14500D02*X19160D01*
X20000Y14660D02*Y14340D01*
X19840Y14500D02*X20160D01*
X1500Y69285D02*Y68965D01*
X1340Y69125D02*X1660D01*
X13500Y69350D02*Y69275D01*
X13650Y69125D01*
X13800Y69275D01*
Y69350D02*Y69275D01*
X13650Y69125D02*Y68750D01*
X13980Y69050D02*X14205D01*
X13980Y68750D02*X14280D01*
X13980Y69350D02*Y68750D01*
Y69350D02*X14280D01*
X14760D02*X14835Y69275D01*
X14535Y69350D02*X14760D01*
X14460Y69275D02*X14535Y69350D01*
X14460Y69275D02*Y69125D01*
X14535Y69050D01*
X14760D01*
X14835Y68975D01*
Y68825D01*
X14760Y68750D02*X14835Y68825D01*
X14535Y68750D02*X14760D01*
X14460Y68825D02*X14535Y68750D01*
X13500Y68424D02*X15015D01*
X9800Y69275D02*X9875Y69350D01*
X10025D01*
X10100Y69275D01*
Y68825D01*
X10025Y68750D02*X10100Y68825D01*
X9875Y68750D02*X10025D01*
X9800Y68825D02*X9875Y68750D01*
Y69050D02*X10100D01*
X10280Y69275D02*X10355Y69350D01*
X10580D01*
X10655Y69275D01*
Y69125D01*
X10280Y68750D02*X10655Y69125D01*
X10280Y68750D02*X10655D01*
X9800Y68424D02*X10835D01*
X4500Y68825D02*X4575Y68750D01*
X4500Y69275D02*Y68825D01*
Y69275D02*X4575Y69350D01*
X4725D01*
X4800Y69275D01*
Y68825D01*
X4725Y68750D02*X4800Y68825D01*
X4575Y68750D02*X4725D01*
X4500Y68900D02*X4800Y69200D01*
X4980Y68750D02*X5055D01*
X5235Y68825D02*X5310Y68750D01*
X5235Y69275D02*Y68825D01*
Y69275D02*X5310Y69350D01*
X5460D01*
X5535Y69275D01*
Y68825D01*
X5460Y68750D02*X5535Y68825D01*
X5310Y68750D02*X5460D01*
X5235Y68900D02*X5535Y69200D01*
X5715Y69275D02*X5790Y69350D01*
X5940D01*
X6015Y69275D01*
Y68825D01*
X5940Y68750D02*X6015Y68825D01*
X5790Y68750D02*X5940D01*
X5715Y68825D02*X5790Y68750D01*
Y69050D02*X6015D01*
X6195Y68825D02*X6270Y68750D01*
X6195Y68975D02*Y68825D01*
Y68975D02*X6270Y69050D01*
X6420D01*
X6495Y68975D01*
Y68825D01*
X6420Y68750D02*X6495Y68825D01*
X6270Y68750D02*X6420D01*
X6195Y69125D02*X6270Y69050D01*
X6195Y69275D02*Y69125D01*
Y69275D02*X6270Y69350D01*
X6420D01*
X6495Y69275D01*
Y69125D01*
X6420Y69050D02*X6495Y69125D01*
X4500Y68424D02*X6675D01*
X12000Y48000D02*Y47840D01*
Y48000D02*X12138Y48080D01*
X12000Y48000D02*X11861Y48080D01*
X12000Y47000D02*Y46840D01*
Y47000D02*X12138Y47080D01*
X12000Y47000D02*X11861Y47080D01*
X12000Y46000D02*Y45840D01*
Y46000D02*X12138Y46080D01*
X12000Y46000D02*X11861Y46080D01*
X12000Y45000D02*Y44840D01*
Y45000D02*X12138Y45080D01*
X12000Y45000D02*X11861Y45080D01*
X12000Y44000D02*Y43840D01*
Y44000D02*X12138Y44080D01*
X12000Y44000D02*X11861Y44080D01*
X12000Y43000D02*Y42840D01*
Y43000D02*X12138Y43080D01*
X12000Y43000D02*X11861Y43080D01*
X12000Y42000D02*Y41840D01*
Y42000D02*X12138Y42080D01*
X12000Y42000D02*X11861Y42080D01*
X12000Y41000D02*Y40840D01*
Y41000D02*X12138Y41080D01*
X12000Y41000D02*X11861Y41080D01*
X41000Y41000D02*Y40840D01*
Y41000D02*X41138Y41080D01*
X41000Y41000D02*X40861Y41080D01*
X41000Y40000D02*Y39840D01*
Y40000D02*X41138Y40080D01*
X41000Y40000D02*X40861Y40080D01*
X41000Y39000D02*Y38840D01*
Y39000D02*X41138Y39080D01*
X41000Y39000D02*X40861Y39080D01*
X41000Y37000D02*Y36840D01*
Y37000D02*X41138Y37080D01*
X41000Y37000D02*X40861Y37080D01*
X41000Y36000D02*Y35840D01*
Y36000D02*X41138Y36080D01*
X41000Y36000D02*X40861Y36080D01*
X41000Y35000D02*Y34840D01*
Y35000D02*X41138Y35080D01*
X41000Y35000D02*X40861Y35080D01*
X41000Y34000D02*Y33840D01*
Y34000D02*X41138Y34080D01*
X41000Y34000D02*X40861Y34080D01*
X41000Y33000D02*Y32840D01*
Y33000D02*X41138Y33080D01*
X41000Y33000D02*X40861Y33080D01*
X41000Y32000D02*Y31840D01*
Y32000D02*X41138Y32080D01*
X41000Y32000D02*X40861Y32080D01*
X41000Y17000D02*Y16840D01*
Y17000D02*X41138Y17080D01*
X41000Y17000D02*X40861Y17080D01*
X41000Y18000D02*Y17840D01*
Y18000D02*X41138Y18080D01*
X41000Y18000D02*X40861Y18080D01*
X41000Y19000D02*Y18840D01*
Y19000D02*X41138Y19080D01*
X41000Y19000D02*X40861Y19080D01*
X41000Y20000D02*Y19840D01*
Y20000D02*X41138Y20080D01*
X41000Y20000D02*X40861Y20080D01*
X41000Y21000D02*Y20840D01*
Y21000D02*X41138Y21080D01*
X41000Y21000D02*X40861Y21080D01*
X41000Y22000D02*Y21840D01*
Y22000D02*X41138Y22080D01*
X41000Y22000D02*X40861Y22080D01*
X41000Y23000D02*Y22840D01*
Y23000D02*X41138Y23080D01*
X41000Y23000D02*X40861Y23080D01*
X41000Y24000D02*Y23840D01*
Y24000D02*X41138Y24080D01*
X41000Y24000D02*X40861Y24080D01*
X41000Y25000D02*Y24840D01*
Y25000D02*X41138Y25080D01*
X41000Y25000D02*X40861Y25080D01*
X41000Y26000D02*Y25840D01*
Y26000D02*X41138Y26080D01*
X41000Y26000D02*X40861Y26080D01*
X41000Y27000D02*Y26840D01*
Y27000D02*X41138Y27080D01*
X41000Y27000D02*X40861Y27080D01*
X41000Y28000D02*Y27840D01*
Y28000D02*X41138Y28080D01*
X41000Y28000D02*X40861Y28080D01*
X41000Y29000D02*Y28840D01*
Y29000D02*X41138Y29080D01*
X41000Y29000D02*X40861Y29080D01*
X41000Y30000D02*Y29840D01*
Y30000D02*X41138Y30080D01*
X41000Y30000D02*X40861Y30080D01*
X40000Y52000D02*Y51840D01*
Y52000D02*X40138Y52080D01*
X40000Y52000D02*X39861Y52080D01*
X39000Y52000D02*Y51840D01*
Y52000D02*X39138Y52080D01*
X39000Y52000D02*X38861Y52080D01*
X38000Y52000D02*Y51840D01*
Y52000D02*X38138Y52080D01*
X38000Y52000D02*X37861Y52080D01*
X37000Y52000D02*Y51840D01*
Y52000D02*X37138Y52080D01*
X37000Y52000D02*X36861Y52080D01*
X36000Y52000D02*Y51840D01*
Y52000D02*X36138Y52080D01*
X36000Y52000D02*X35861Y52080D01*
X35000Y52000D02*Y51840D01*
Y52000D02*X35138Y52080D01*
X35000Y52000D02*X34861Y52080D01*
X34000Y52000D02*Y51840D01*
Y52000D02*X34138Y52080D01*
X34000Y52000D02*X33861Y52080D01*
X40000Y51000D02*Y50840D01*
Y51000D02*X40138Y51080D01*
X40000Y51000D02*X39861Y51080D01*
X39000Y51000D02*Y50840D01*
Y51000D02*X39138Y51080D01*
X39000Y51000D02*X38861Y51080D01*
X38000Y51000D02*Y50840D01*
Y51000D02*X38138Y51080D01*
X38000Y51000D02*X37861Y51080D01*
X37000Y51000D02*Y50840D01*
Y51000D02*X37138Y51080D01*
X37000Y51000D02*X36861Y51080D01*
X36000Y51000D02*Y50840D01*
Y51000D02*X36138Y51080D01*
X36000Y51000D02*X35861Y51080D01*
X35000Y51000D02*Y50840D01*
Y51000D02*X35138Y51080D01*
X35000Y51000D02*X34861Y51080D01*
X34000Y51000D02*Y50840D01*
Y51000D02*X34138Y51080D01*
X34000Y51000D02*X33861Y51080D01*
X40000Y53000D02*Y52840D01*
Y53000D02*X40138Y53080D01*
X40000Y53000D02*X39861Y53080D01*
X39000Y53000D02*Y52840D01*
Y53000D02*X39138Y53080D01*
X39000Y53000D02*X38861Y53080D01*
X38000Y53000D02*Y52840D01*
Y53000D02*X38138Y53080D01*
X38000Y53000D02*X37861Y53080D01*
X37000Y53000D02*Y52840D01*
Y53000D02*X37138Y53080D01*
X37000Y53000D02*X36861Y53080D01*
X36000Y53000D02*Y52840D01*
Y53000D02*X36138Y53080D01*
X36000Y53000D02*X35861Y53080D01*
X35000Y53000D02*Y52840D01*
Y53000D02*X35138Y53080D01*
X35000Y53000D02*X34861Y53080D01*
X34000Y53000D02*Y52840D01*
Y53000D02*X34138Y53080D01*
X34000Y53000D02*X33861Y53080D01*
X40000Y54000D02*Y53840D01*
Y54000D02*X40138Y54080D01*
X40000Y54000D02*X39861Y54080D01*
X39000Y54000D02*Y53840D01*
Y54000D02*X39138Y54080D01*
X39000Y54000D02*X38861Y54080D01*
X38000Y54000D02*Y53840D01*
Y54000D02*X38138Y54080D01*
X38000Y54000D02*X37861Y54080D01*
X37000Y54000D02*Y53840D01*
Y54000D02*X37138Y54080D01*
X37000Y54000D02*X36861Y54080D01*
X36000Y54000D02*Y53840D01*
Y54000D02*X36138Y54080D01*
X36000Y54000D02*X35861Y54080D01*
X35000Y54000D02*Y53840D01*
Y54000D02*X35138Y54080D01*
X35000Y54000D02*X34861Y54080D01*
X34000Y54000D02*Y53840D01*
Y54000D02*X34138Y54080D01*
X34000Y54000D02*X33861Y54080D01*
X4000Y54000D02*Y53840D01*
Y54000D02*X4138Y54080D01*
X4000Y54000D02*X3861Y54080D01*
X5000Y54000D02*Y53840D01*
Y54000D02*X5138Y54080D01*
X5000Y54000D02*X4861Y54080D01*
X3000Y54000D02*Y53840D01*
Y54000D02*X3138Y54080D01*
X3000Y54000D02*X2861Y54080D01*
X9000Y54000D02*Y53840D01*
Y54000D02*X9138Y54080D01*
X9000Y54000D02*X8861Y54080D01*
X8000Y54000D02*Y53840D01*
Y54000D02*X8138Y54080D01*
X8000Y54000D02*X7861Y54080D01*
X7000Y54000D02*Y53840D01*
Y54000D02*X7138Y54080D01*
X7000Y54000D02*X6861Y54080D01*
X6000Y54000D02*Y53840D01*
Y54000D02*X6138Y54080D01*
X6000Y54000D02*X5861Y54080D01*
X10000Y54000D02*Y53840D01*
Y54000D02*X10138Y54080D01*
X10000Y54000D02*X9861Y54080D01*
X11000Y54000D02*Y53840D01*
Y54000D02*X11138Y54080D01*
X11000Y54000D02*X10861Y54080D01*
X4000Y53000D02*Y52840D01*
Y53000D02*X4138Y53080D01*
X4000Y53000D02*X3861Y53080D01*
X5000Y53000D02*Y52840D01*
Y53000D02*X5138Y53080D01*
X5000Y53000D02*X4861Y53080D01*
X3000Y53000D02*Y52840D01*
Y53000D02*X3138Y53080D01*
X3000Y53000D02*X2861Y53080D01*
X9000Y53000D02*Y52840D01*
Y53000D02*X9138Y53080D01*
X9000Y53000D02*X8861Y53080D01*
X8000Y53000D02*Y52840D01*
Y53000D02*X8138Y53080D01*
X8000Y53000D02*X7861Y53080D01*
X7000Y53000D02*Y52840D01*
Y53000D02*X7138Y53080D01*
X7000Y53000D02*X6861Y53080D01*
X6000Y53000D02*Y52840D01*
Y53000D02*X6138Y53080D01*
X6000Y53000D02*X5861Y53080D01*
X10000Y53000D02*Y52840D01*
Y53000D02*X10138Y53080D01*
X10000Y53000D02*X9861Y53080D01*
X11000Y53000D02*Y52840D01*
Y53000D02*X11138Y53080D01*
X11000Y53000D02*X10861Y53080D01*
X4000Y52000D02*Y51840D01*
Y52000D02*X4138Y52080D01*
X4000Y52000D02*X3861Y52080D01*
X5000Y52000D02*Y51840D01*
Y52000D02*X5138Y52080D01*
X5000Y52000D02*X4861Y52080D01*
X3000Y52000D02*Y51840D01*
Y52000D02*X3138Y52080D01*
X3000Y52000D02*X2861Y52080D01*
X9000Y52000D02*Y51840D01*
Y52000D02*X9138Y52080D01*
X9000Y52000D02*X8861Y52080D01*
X8000Y52000D02*Y51840D01*
Y52000D02*X8138Y52080D01*
X8000Y52000D02*X7861Y52080D01*
X7000Y52000D02*Y51840D01*
Y52000D02*X7138Y52080D01*
X7000Y52000D02*X6861Y52080D01*
X6000Y52000D02*Y51840D01*
Y52000D02*X6138Y52080D01*
X6000Y52000D02*X5861Y52080D01*
X10000Y52000D02*Y51840D01*
Y52000D02*X10138Y52080D01*
X10000Y52000D02*X9861Y52080D01*
X11000Y52000D02*Y51840D01*
Y52000D02*X11138Y52080D01*
X11000Y52000D02*X10861Y52080D01*
X4000Y51000D02*Y50840D01*
Y51000D02*X4138Y51080D01*
X4000Y51000D02*X3861Y51080D01*
X5000Y51000D02*Y50840D01*
Y51000D02*X5138Y51080D01*
X5000Y51000D02*X4861Y51080D01*
X3000Y51000D02*Y50840D01*
Y51000D02*X3138Y51080D01*
X3000Y51000D02*X2861Y51080D01*
X9000Y51000D02*Y50840D01*
Y51000D02*X9138Y51080D01*
X9000Y51000D02*X8861Y51080D01*
X8000Y51000D02*Y50840D01*
Y51000D02*X8138Y51080D01*
X8000Y51000D02*X7861Y51080D01*
X7000Y51000D02*Y50840D01*
Y51000D02*X7138Y51080D01*
X7000Y51000D02*X6861Y51080D01*
X6000Y51000D02*Y50840D01*
Y51000D02*X6138Y51080D01*
X6000Y51000D02*X5861Y51080D01*
X10000Y51000D02*Y50840D01*
Y51000D02*X10138Y51080D01*
X10000Y51000D02*X9861Y51080D01*
X11000Y51000D02*Y50840D01*
Y51000D02*X11138Y51080D01*
X11000Y51000D02*X10861Y51080D01*
X4000Y50000D02*Y49840D01*
Y50000D02*X4138Y50080D01*
X4000Y50000D02*X3861Y50080D01*
X5000Y50000D02*Y49840D01*
Y50000D02*X5138Y50080D01*
X5000Y50000D02*X4861Y50080D01*
X3000Y50000D02*Y49840D01*
Y50000D02*X3138Y50080D01*
X3000Y50000D02*X2861Y50080D01*
X9000Y50000D02*Y49840D01*
Y50000D02*X9138Y50080D01*
X9000Y50000D02*X8861Y50080D01*
X8000Y50000D02*Y49840D01*
Y50000D02*X8138Y50080D01*
X8000Y50000D02*X7861Y50080D01*
X7000Y50000D02*Y49840D01*
Y50000D02*X7138Y50080D01*
X7000Y50000D02*X6861Y50080D01*
X6000Y50000D02*Y49840D01*
Y50000D02*X6138Y50080D01*
X6000Y50000D02*X5861Y50080D01*
X10000Y50000D02*Y49840D01*
Y50000D02*X10138Y50080D01*
X10000Y50000D02*X9861Y50080D01*
X11000Y50000D02*Y49840D01*
Y50000D02*X11138Y50080D01*
X11000Y50000D02*X10861Y50080D01*
X4000Y49000D02*Y48840D01*
Y49000D02*X4138Y49080D01*
X4000Y49000D02*X3861Y49080D01*
X5000Y49000D02*Y48840D01*
Y49000D02*X5138Y49080D01*
X5000Y49000D02*X4861Y49080D01*
X3000Y49000D02*Y48840D01*
Y49000D02*X3138Y49080D01*
X3000Y49000D02*X2861Y49080D01*
X9000Y49000D02*Y48840D01*
Y49000D02*X9138Y49080D01*
X9000Y49000D02*X8861Y49080D01*
X8000Y49000D02*Y48840D01*
Y49000D02*X8138Y49080D01*
X8000Y49000D02*X7861Y49080D01*
X7000Y49000D02*Y48840D01*
Y49000D02*X7138Y49080D01*
X7000Y49000D02*X6861Y49080D01*
X6000Y49000D02*Y48840D01*
Y49000D02*X6138Y49080D01*
X6000Y49000D02*X5861Y49080D01*
X10000Y49000D02*Y48840D01*
Y49000D02*X10138Y49080D01*
X10000Y49000D02*X9861Y49080D01*
X11000Y49000D02*Y48840D01*
Y49000D02*X11138Y49080D01*
X11000Y49000D02*X10861Y49080D01*
X40000Y38000D02*Y37840D01*
Y38000D02*X40138Y38080D01*
X40000Y38000D02*X39861Y38080D01*
X39000Y38000D02*Y37840D01*
Y38000D02*X39138Y38080D01*
X39000Y38000D02*X38861Y38080D01*
X38000Y38000D02*Y37840D01*
Y38000D02*X38138Y38080D01*
X38000Y38000D02*X37861Y38080D01*
X37000Y38000D02*Y37840D01*
Y38000D02*X37138Y38080D01*
X37000Y38000D02*X36861Y38080D01*
X36000Y38000D02*Y37840D01*
Y38000D02*X36138Y38080D01*
X36000Y38000D02*X35861Y38080D01*
X35000Y38000D02*Y37840D01*
Y38000D02*X35138Y38080D01*
X35000Y38000D02*X34861Y38080D01*
X34000Y38000D02*Y37840D01*
Y38000D02*X34138Y38080D01*
X34000Y38000D02*X33861Y38080D01*
X4000Y40000D02*Y39840D01*
Y40000D02*X4138Y40080D01*
X4000Y40000D02*X3861Y40080D01*
X5000Y40000D02*Y39840D01*
Y40000D02*X5138Y40080D01*
X5000Y40000D02*X4861Y40080D01*
X3000Y40000D02*Y39840D01*
Y40000D02*X3138Y40080D01*
X3000Y40000D02*X2861Y40080D01*
X9000Y40000D02*Y39840D01*
Y40000D02*X9138Y40080D01*
X9000Y40000D02*X8861Y40080D01*
X8000Y40000D02*Y39840D01*
Y40000D02*X8138Y40080D01*
X8000Y40000D02*X7861Y40080D01*
X7000Y40000D02*Y39840D01*
Y40000D02*X7138Y40080D01*
X7000Y40000D02*X6861Y40080D01*
X6000Y40000D02*Y39840D01*
Y40000D02*X6138Y40080D01*
X6000Y40000D02*X5861Y40080D01*
X10000Y40000D02*Y39840D01*
Y40000D02*X10138Y40080D01*
X10000Y40000D02*X9861Y40080D01*
X11000Y40000D02*Y39840D01*
Y40000D02*X11138Y40080D01*
X11000Y40000D02*X10861Y40080D01*
X4000Y48000D02*Y47840D01*
Y48000D02*X4138Y48080D01*
X4000Y48000D02*X3861Y48080D01*
X5000Y48000D02*Y47840D01*
Y48000D02*X5138Y48080D01*
X5000Y48000D02*X4861Y48080D01*
X3000Y48000D02*Y47840D01*
Y48000D02*X3138Y48080D01*
X3000Y48000D02*X2861Y48080D01*
X9000Y48000D02*Y47840D01*
Y48000D02*X9138Y48080D01*
X9000Y48000D02*X8861Y48080D01*
X8000Y48000D02*Y47840D01*
Y48000D02*X8138Y48080D01*
X8000Y48000D02*X7861Y48080D01*
X7000Y48000D02*Y47840D01*
Y48000D02*X7138Y48080D01*
X7000Y48000D02*X6861Y48080D01*
X6000Y48000D02*Y47840D01*
Y48000D02*X6138Y48080D01*
X6000Y48000D02*X5861Y48080D01*
X10000Y48000D02*Y47840D01*
Y48000D02*X10138Y48080D01*
X10000Y48000D02*X9861Y48080D01*
X11000Y48000D02*Y47840D01*
Y48000D02*X11138Y48080D01*
X11000Y48000D02*X10861Y48080D01*
X4000Y47000D02*Y46840D01*
Y47000D02*X4138Y47080D01*
X4000Y47000D02*X3861Y47080D01*
X5000Y47000D02*Y46840D01*
Y47000D02*X5138Y47080D01*
X5000Y47000D02*X4861Y47080D01*
X3000Y47000D02*Y46840D01*
Y47000D02*X3138Y47080D01*
X3000Y47000D02*X2861Y47080D01*
X9000Y47000D02*Y46840D01*
Y47000D02*X9138Y47080D01*
X9000Y47000D02*X8861Y47080D01*
X8000Y47000D02*Y46840D01*
Y47000D02*X8138Y47080D01*
X8000Y47000D02*X7861Y47080D01*
X7000Y47000D02*Y46840D01*
Y47000D02*X7138Y47080D01*
X7000Y47000D02*X6861Y47080D01*
X6000Y47000D02*Y46840D01*
Y47000D02*X6138Y47080D01*
X6000Y47000D02*X5861Y47080D01*
X10000Y47000D02*Y46840D01*
Y47000D02*X10138Y47080D01*
X10000Y47000D02*X9861Y47080D01*
X11000Y47000D02*Y46840D01*
Y47000D02*X11138Y47080D01*
X11000Y47000D02*X10861Y47080D01*
X4000Y46000D02*Y45840D01*
Y46000D02*X4138Y46080D01*
X4000Y46000D02*X3861Y46080D01*
X5000Y46000D02*Y45840D01*
Y46000D02*X5138Y46080D01*
X5000Y46000D02*X4861Y46080D01*
X3000Y46000D02*Y45840D01*
Y46000D02*X3138Y46080D01*
X3000Y46000D02*X2861Y46080D01*
X9000Y46000D02*Y45840D01*
Y46000D02*X9138Y46080D01*
X9000Y46000D02*X8861Y46080D01*
X8000Y46000D02*Y45840D01*
Y46000D02*X8138Y46080D01*
X8000Y46000D02*X7861Y46080D01*
X7000Y46000D02*Y45840D01*
Y46000D02*X7138Y46080D01*
X7000Y46000D02*X6861Y46080D01*
X6000Y46000D02*Y45840D01*
Y46000D02*X6138Y46080D01*
X6000Y46000D02*X5861Y46080D01*
X10000Y46000D02*Y45840D01*
Y46000D02*X10138Y46080D01*
X10000Y46000D02*X9861Y46080D01*
X11000Y46000D02*Y45840D01*
Y46000D02*X11138Y46080D01*
X11000Y46000D02*X10861Y46080D01*
X4000Y45000D02*Y44840D01*
Y45000D02*X4138Y45080D01*
X4000Y45000D02*X3861Y45080D01*
X5000Y45000D02*Y44840D01*
Y45000D02*X5138Y45080D01*
X5000Y45000D02*X4861Y45080D01*
X3000Y45000D02*Y44840D01*
Y45000D02*X3138Y45080D01*
X3000Y45000D02*X2861Y45080D01*
X9000Y45000D02*Y44840D01*
Y45000D02*X9138Y45080D01*
X9000Y45000D02*X8861Y45080D01*
X8000Y45000D02*Y44840D01*
Y45000D02*X8138Y45080D01*
X8000Y45000D02*X7861Y45080D01*
X7000Y45000D02*Y44840D01*
Y45000D02*X7138Y45080D01*
X7000Y45000D02*X6861Y45080D01*
X6000Y45000D02*Y44840D01*
Y45000D02*X6138Y45080D01*
X6000Y45000D02*X5861Y45080D01*
X10000Y45000D02*Y44840D01*
Y45000D02*X10138Y45080D01*
X10000Y45000D02*X9861Y45080D01*
X11000Y45000D02*Y44840D01*
Y45000D02*X11138Y45080D01*
X11000Y45000D02*X10861Y45080D01*
X4000Y44000D02*Y43840D01*
Y44000D02*X4138Y44080D01*
X4000Y44000D02*X3861Y44080D01*
X5000Y44000D02*Y43840D01*
Y44000D02*X5138Y44080D01*
X5000Y44000D02*X4861Y44080D01*
X3000Y44000D02*Y43840D01*
Y44000D02*X3138Y44080D01*
X3000Y44000D02*X2861Y44080D01*
X9000Y44000D02*Y43840D01*
Y44000D02*X9138Y44080D01*
X9000Y44000D02*X8861Y44080D01*
X8000Y44000D02*Y43840D01*
Y44000D02*X8138Y44080D01*
X8000Y44000D02*X7861Y44080D01*
X7000Y44000D02*Y43840D01*
Y44000D02*X7138Y44080D01*
X7000Y44000D02*X6861Y44080D01*
X6000Y44000D02*Y43840D01*
Y44000D02*X6138Y44080D01*
X6000Y44000D02*X5861Y44080D01*
X10000Y44000D02*Y43840D01*
Y44000D02*X10138Y44080D01*
X10000Y44000D02*X9861Y44080D01*
X11000Y44000D02*Y43840D01*
Y44000D02*X11138Y44080D01*
X11000Y44000D02*X10861Y44080D01*
X4000Y43000D02*Y42840D01*
Y43000D02*X4138Y43080D01*
X4000Y43000D02*X3861Y43080D01*
X5000Y43000D02*Y42840D01*
Y43000D02*X5138Y43080D01*
X5000Y43000D02*X4861Y43080D01*
X3000Y43000D02*Y42840D01*
Y43000D02*X3138Y43080D01*
X3000Y43000D02*X2861Y43080D01*
X9000Y43000D02*Y42840D01*
Y43000D02*X9138Y43080D01*
X9000Y43000D02*X8861Y43080D01*
X8000Y43000D02*Y42840D01*
Y43000D02*X8138Y43080D01*
X8000Y43000D02*X7861Y43080D01*
X7000Y43000D02*Y42840D01*
Y43000D02*X7138Y43080D01*
X7000Y43000D02*X6861Y43080D01*
X6000Y43000D02*Y42840D01*
Y43000D02*X6138Y43080D01*
X6000Y43000D02*X5861Y43080D01*
X10000Y43000D02*Y42840D01*
Y43000D02*X10138Y43080D01*
X10000Y43000D02*X9861Y43080D01*
X11000Y43000D02*Y42840D01*
Y43000D02*X11138Y43080D01*
X11000Y43000D02*X10861Y43080D01*
X4000Y42000D02*Y41840D01*
Y42000D02*X4138Y42080D01*
X4000Y42000D02*X3861Y42080D01*
X5000Y42000D02*Y41840D01*
Y42000D02*X5138Y42080D01*
X5000Y42000D02*X4861Y42080D01*
X3000Y42000D02*Y41840D01*
Y42000D02*X3138Y42080D01*
X3000Y42000D02*X2861Y42080D01*
X9000Y42000D02*Y41840D01*
Y42000D02*X9138Y42080D01*
X9000Y42000D02*X8861Y42080D01*
X8000Y42000D02*Y41840D01*
Y42000D02*X8138Y42080D01*
X8000Y42000D02*X7861Y42080D01*
X7000Y42000D02*Y41840D01*
Y42000D02*X7138Y42080D01*
X7000Y42000D02*X6861Y42080D01*
X6000Y42000D02*Y41840D01*
Y42000D02*X6138Y42080D01*
X6000Y42000D02*X5861Y42080D01*
X10000Y42000D02*Y41840D01*
Y42000D02*X10138Y42080D01*
X10000Y42000D02*X9861Y42080D01*
X11000Y42000D02*Y41840D01*
Y42000D02*X11138Y42080D01*
X11000Y42000D02*X10861Y42080D01*
X4000Y41000D02*Y40840D01*
Y41000D02*X4138Y41080D01*
X4000Y41000D02*X3861Y41080D01*
X5000Y41000D02*Y40840D01*
Y41000D02*X5138Y41080D01*
X5000Y41000D02*X4861Y41080D01*
X3000Y41000D02*Y40840D01*
Y41000D02*X3138Y41080D01*
X3000Y41000D02*X2861Y41080D01*
X9000Y41000D02*Y40840D01*
Y41000D02*X9138Y41080D01*
X9000Y41000D02*X8861Y41080D01*
X8000Y41000D02*Y40840D01*
Y41000D02*X8138Y41080D01*
X8000Y41000D02*X7861Y41080D01*
X7000Y41000D02*Y40840D01*
Y41000D02*X7138Y41080D01*
X7000Y41000D02*X6861Y41080D01*
X6000Y41000D02*Y40840D01*
Y41000D02*X6138Y41080D01*
X6000Y41000D02*X5861Y41080D01*
X10000Y41000D02*Y40840D01*
Y41000D02*X10138Y41080D01*
X10000Y41000D02*X9861Y41080D01*
X11000Y41000D02*Y40840D01*
Y41000D02*X11138Y41080D01*
X11000Y41000D02*X10861Y41080D01*
X4000Y39000D02*Y38840D01*
Y39000D02*X4138Y39080D01*
X4000Y39000D02*X3861Y39080D01*
X5000Y39000D02*Y38840D01*
Y39000D02*X5138Y39080D01*
X5000Y39000D02*X4861Y39080D01*
X3000Y39000D02*Y38840D01*
Y39000D02*X3138Y39080D01*
X3000Y39000D02*X2861Y39080D01*
X9000Y39000D02*Y38840D01*
Y39000D02*X9138Y39080D01*
X9000Y39000D02*X8861Y39080D01*
X8000Y39000D02*Y38840D01*
Y39000D02*X8138Y39080D01*
X8000Y39000D02*X7861Y39080D01*
X7000Y39000D02*Y38840D01*
Y39000D02*X7138Y39080D01*
X7000Y39000D02*X6861Y39080D01*
X6000Y39000D02*Y38840D01*
Y39000D02*X6138Y39080D01*
X6000Y39000D02*X5861Y39080D01*
X10000Y39000D02*Y38840D01*
Y39000D02*X10138Y39080D01*
X10000Y39000D02*X9861Y39080D01*
X11000Y39000D02*Y38840D01*
Y39000D02*X11138Y39080D01*
X11000Y39000D02*X10861Y39080D01*
X4000Y38000D02*Y37840D01*
Y38000D02*X4138Y38080D01*
X4000Y38000D02*X3861Y38080D01*
X5000Y38000D02*Y37840D01*
Y38000D02*X5138Y38080D01*
X5000Y38000D02*X4861Y38080D01*
X3000Y38000D02*Y37840D01*
Y38000D02*X3138Y38080D01*
X3000Y38000D02*X2861Y38080D01*
X9000Y38000D02*Y37840D01*
Y38000D02*X9138Y38080D01*
X9000Y38000D02*X8861Y38080D01*
X8000Y38000D02*Y37840D01*
Y38000D02*X8138Y38080D01*
X8000Y38000D02*X7861Y38080D01*
X7000Y38000D02*Y37840D01*
Y38000D02*X7138Y38080D01*
X7000Y38000D02*X6861Y38080D01*
X6000Y38000D02*Y37840D01*
Y38000D02*X6138Y38080D01*
X6000Y38000D02*X5861Y38080D01*
X10000Y38000D02*Y37840D01*
Y38000D02*X10138Y38080D01*
X10000Y38000D02*X9861Y38080D01*
X11000Y38000D02*Y37840D01*
Y38000D02*X11138Y38080D01*
X11000Y38000D02*X10861Y38080D01*
X4000Y37000D02*Y36840D01*
Y37000D02*X4138Y37080D01*
X4000Y37000D02*X3861Y37080D01*
X5000Y37000D02*Y36840D01*
Y37000D02*X5138Y37080D01*
X5000Y37000D02*X4861Y37080D01*
X3000Y37000D02*Y36840D01*
Y37000D02*X3138Y37080D01*
X3000Y37000D02*X2861Y37080D01*
X9000Y37000D02*Y36840D01*
Y37000D02*X9138Y37080D01*
X9000Y37000D02*X8861Y37080D01*
X8000Y37000D02*Y36840D01*
Y37000D02*X8138Y37080D01*
X8000Y37000D02*X7861Y37080D01*
X7000Y37000D02*Y36840D01*
Y37000D02*X7138Y37080D01*
X7000Y37000D02*X6861Y37080D01*
X6000Y37000D02*Y36840D01*
Y37000D02*X6138Y37080D01*
X6000Y37000D02*X5861Y37080D01*
X10000Y37000D02*Y36840D01*
Y37000D02*X10138Y37080D01*
X10000Y37000D02*X9861Y37080D01*
X11000Y37000D02*Y36840D01*
Y37000D02*X11138Y37080D01*
X11000Y37000D02*X10861Y37080D01*
X4000Y36000D02*Y35840D01*
Y36000D02*X4138Y36080D01*
X4000Y36000D02*X3861Y36080D01*
X5000Y36000D02*Y35840D01*
Y36000D02*X5138Y36080D01*
X5000Y36000D02*X4861Y36080D01*
X3000Y36000D02*Y35840D01*
Y36000D02*X3138Y36080D01*
X3000Y36000D02*X2861Y36080D01*
X9000Y36000D02*Y35840D01*
Y36000D02*X9138Y36080D01*
X9000Y36000D02*X8861Y36080D01*
X8000Y36000D02*Y35840D01*
Y36000D02*X8138Y36080D01*
X8000Y36000D02*X7861Y36080D01*
X7000Y36000D02*Y35840D01*
Y36000D02*X7138Y36080D01*
X7000Y36000D02*X6861Y36080D01*
X6000Y36000D02*Y35840D01*
Y36000D02*X6138Y36080D01*
X6000Y36000D02*X5861Y36080D01*
X10000Y36000D02*Y35840D01*
Y36000D02*X10138Y36080D01*
X10000Y36000D02*X9861Y36080D01*
X11000Y36000D02*Y35840D01*
Y36000D02*X11138Y36080D01*
X11000Y36000D02*X10861Y36080D01*
X4000Y35000D02*Y34840D01*
Y35000D02*X4138Y35080D01*
X4000Y35000D02*X3861Y35080D01*
X5000Y35000D02*Y34840D01*
Y35000D02*X5138Y35080D01*
X5000Y35000D02*X4861Y35080D01*
X3000Y35000D02*Y34840D01*
Y35000D02*X3138Y35080D01*
X3000Y35000D02*X2861Y35080D01*
X9000Y35000D02*Y34840D01*
Y35000D02*X9138Y35080D01*
X9000Y35000D02*X8861Y35080D01*
X8000Y35000D02*Y34840D01*
Y35000D02*X8138Y35080D01*
X8000Y35000D02*X7861Y35080D01*
X7000Y35000D02*Y34840D01*
Y35000D02*X7138Y35080D01*
X7000Y35000D02*X6861Y35080D01*
X6000Y35000D02*Y34840D01*
Y35000D02*X6138Y35080D01*
X6000Y35000D02*X5861Y35080D01*
X10000Y35000D02*Y34840D01*
Y35000D02*X10138Y35080D01*
X10000Y35000D02*X9861Y35080D01*
X11000Y35000D02*Y34840D01*
Y35000D02*X11138Y35080D01*
X11000Y35000D02*X10861Y35080D01*
X4000Y34000D02*Y33840D01*
Y34000D02*X4138Y34080D01*
X4000Y34000D02*X3861Y34080D01*
X5000Y34000D02*Y33840D01*
Y34000D02*X5138Y34080D01*
X5000Y34000D02*X4861Y34080D01*
X3000Y34000D02*Y33840D01*
Y34000D02*X3138Y34080D01*
X3000Y34000D02*X2861Y34080D01*
X9000Y34000D02*Y33840D01*
Y34000D02*X9138Y34080D01*
X9000Y34000D02*X8861Y34080D01*
X8000Y34000D02*Y33840D01*
Y34000D02*X8138Y34080D01*
X8000Y34000D02*X7861Y34080D01*
X7000Y34000D02*Y33840D01*
Y34000D02*X7138Y34080D01*
X7000Y34000D02*X6861Y34080D01*
X6000Y34000D02*Y33840D01*
Y34000D02*X6138Y34080D01*
X6000Y34000D02*X5861Y34080D01*
X10000Y34000D02*Y33840D01*
Y34000D02*X10138Y34080D01*
X10000Y34000D02*X9861Y34080D01*
X11000Y34000D02*Y33840D01*
Y34000D02*X11138Y34080D01*
X11000Y34000D02*X10861Y34080D01*
X4000Y33000D02*Y32840D01*
Y33000D02*X4138Y33080D01*
X4000Y33000D02*X3861Y33080D01*
X5000Y33000D02*Y32840D01*
Y33000D02*X5138Y33080D01*
X5000Y33000D02*X4861Y33080D01*
X3000Y33000D02*Y32840D01*
Y33000D02*X3138Y33080D01*
X3000Y33000D02*X2861Y33080D01*
X9000Y33000D02*Y32840D01*
Y33000D02*X9138Y33080D01*
X9000Y33000D02*X8861Y33080D01*
X8000Y33000D02*Y32840D01*
Y33000D02*X8138Y33080D01*
X8000Y33000D02*X7861Y33080D01*
X7000Y33000D02*Y32840D01*
Y33000D02*X7138Y33080D01*
X7000Y33000D02*X6861Y33080D01*
X6000Y33000D02*Y32840D01*
Y33000D02*X6138Y33080D01*
X6000Y33000D02*X5861Y33080D01*
X10000Y33000D02*Y32840D01*
Y33000D02*X10138Y33080D01*
X10000Y33000D02*X9861Y33080D01*
X11000Y33000D02*Y32840D01*
Y33000D02*X11138Y33080D01*
X11000Y33000D02*X10861Y33080D01*
X4000Y32000D02*Y31840D01*
Y32000D02*X4138Y32080D01*
X4000Y32000D02*X3861Y32080D01*
X5000Y32000D02*Y31840D01*
Y32000D02*X5138Y32080D01*
X5000Y32000D02*X4861Y32080D01*
X3000Y32000D02*Y31840D01*
Y32000D02*X3138Y32080D01*
X3000Y32000D02*X2861Y32080D01*
X9000Y32000D02*Y31840D01*
Y32000D02*X9138Y32080D01*
X9000Y32000D02*X8861Y32080D01*
X8000Y32000D02*Y31840D01*
Y32000D02*X8138Y32080D01*
X8000Y32000D02*X7861Y32080D01*
X7000Y32000D02*Y31840D01*
Y32000D02*X7138Y32080D01*
X7000Y32000D02*X6861Y32080D01*
X6000Y32000D02*Y31840D01*
Y32000D02*X6138Y32080D01*
X6000Y32000D02*X5861Y32080D01*
X10000Y32000D02*Y31840D01*
Y32000D02*X10138Y32080D01*
X10000Y32000D02*X9861Y32080D01*
X11000Y32000D02*Y31840D01*
Y32000D02*X11138Y32080D01*
X11000Y32000D02*X10861Y32080D01*
X4000Y17000D02*Y16840D01*
Y17000D02*X4138Y17080D01*
X4000Y17000D02*X3861Y17080D01*
X5000Y17000D02*Y16840D01*
Y17000D02*X5138Y17080D01*
X5000Y17000D02*X4861Y17080D01*
X3000Y17000D02*Y16840D01*
Y17000D02*X3138Y17080D01*
X3000Y17000D02*X2861Y17080D01*
X9000Y17000D02*Y16840D01*
Y17000D02*X9138Y17080D01*
X9000Y17000D02*X8861Y17080D01*
X8000Y17000D02*Y16840D01*
Y17000D02*X8138Y17080D01*
X8000Y17000D02*X7861Y17080D01*
X7000Y17000D02*Y16840D01*
Y17000D02*X7138Y17080D01*
X7000Y17000D02*X6861Y17080D01*
X6000Y17000D02*Y16840D01*
Y17000D02*X6138Y17080D01*
X6000Y17000D02*X5861Y17080D01*
X19000Y17000D02*Y16840D01*
Y17000D02*X19138Y17080D01*
X19000Y17000D02*X18861Y17080D01*
X18000Y17000D02*Y16840D01*
Y17000D02*X18138Y17080D01*
X18000Y17000D02*X17861Y17080D01*
X17000Y17000D02*Y16840D01*
Y17000D02*X17138Y17080D01*
X17000Y17000D02*X16861Y17080D01*
X15000Y17000D02*Y16840D01*
Y17000D02*X15138Y17080D01*
X15000Y17000D02*X14861Y17080D01*
X14000Y17000D02*Y16840D01*
Y17000D02*X14138Y17080D01*
X14000Y17000D02*X13861Y17080D01*
X13000Y17000D02*Y16840D01*
Y17000D02*X13138Y17080D01*
X13000Y17000D02*X12861Y17080D01*
X12000Y17000D02*Y16840D01*
Y17000D02*X12138Y17080D01*
X12000Y17000D02*X11861Y17080D01*
X10000Y17000D02*Y16840D01*
Y17000D02*X10138Y17080D01*
X10000Y17000D02*X9861Y17080D01*
X11000Y17000D02*Y16840D01*
Y17000D02*X11138Y17080D01*
X11000Y17000D02*X10861Y17080D01*
X16000Y17000D02*Y16840D01*
Y17000D02*X16138Y17080D01*
X16000Y17000D02*X15861Y17080D01*
X20000Y17000D02*Y16840D01*
Y17000D02*X20138Y17080D01*
X20000Y17000D02*X19861Y17080D01*
X4000Y18000D02*Y17840D01*
Y18000D02*X4138Y18080D01*
X4000Y18000D02*X3861Y18080D01*
X5000Y18000D02*Y17840D01*
Y18000D02*X5138Y18080D01*
X5000Y18000D02*X4861Y18080D01*
X3000Y18000D02*Y17840D01*
Y18000D02*X3138Y18080D01*
X3000Y18000D02*X2861Y18080D01*
X9000Y18000D02*Y17840D01*
Y18000D02*X9138Y18080D01*
X9000Y18000D02*X8861Y18080D01*
X8000Y18000D02*Y17840D01*
Y18000D02*X8138Y18080D01*
X8000Y18000D02*X7861Y18080D01*
X7000Y18000D02*Y17840D01*
Y18000D02*X7138Y18080D01*
X7000Y18000D02*X6861Y18080D01*
X6000Y18000D02*Y17840D01*
Y18000D02*X6138Y18080D01*
X6000Y18000D02*X5861Y18080D01*
X19000Y18000D02*Y17840D01*
Y18000D02*X19138Y18080D01*
X19000Y18000D02*X18861Y18080D01*
X18000Y18000D02*Y17840D01*
Y18000D02*X18138Y18080D01*
X18000Y18000D02*X17861Y18080D01*
X17000Y18000D02*Y17840D01*
Y18000D02*X17138Y18080D01*
X17000Y18000D02*X16861Y18080D01*
X15000Y18000D02*Y17840D01*
Y18000D02*X15138Y18080D01*
X15000Y18000D02*X14861Y18080D01*
X14000Y18000D02*Y17840D01*
Y18000D02*X14138Y18080D01*
X14000Y18000D02*X13861Y18080D01*
X13000Y18000D02*Y17840D01*
Y18000D02*X13138Y18080D01*
X13000Y18000D02*X12861Y18080D01*
X12000Y18000D02*Y17840D01*
Y18000D02*X12138Y18080D01*
X12000Y18000D02*X11861Y18080D01*
X10000Y18000D02*Y17840D01*
Y18000D02*X10138Y18080D01*
X10000Y18000D02*X9861Y18080D01*
X11000Y18000D02*Y17840D01*
Y18000D02*X11138Y18080D01*
X11000Y18000D02*X10861Y18080D01*
X16000Y18000D02*Y17840D01*
Y18000D02*X16138Y18080D01*
X16000Y18000D02*X15861Y18080D01*
X20000Y18000D02*Y17840D01*
Y18000D02*X20138Y18080D01*
X20000Y18000D02*X19861Y18080D01*
X4000Y19000D02*Y18840D01*
Y19000D02*X4138Y19080D01*
X4000Y19000D02*X3861Y19080D01*
X5000Y19000D02*Y18840D01*
Y19000D02*X5138Y19080D01*
X5000Y19000D02*X4861Y19080D01*
X3000Y19000D02*Y18840D01*
Y19000D02*X3138Y19080D01*
X3000Y19000D02*X2861Y19080D01*
X9000Y19000D02*Y18840D01*
Y19000D02*X9138Y19080D01*
X9000Y19000D02*X8861Y19080D01*
X8000Y19000D02*Y18840D01*
Y19000D02*X8138Y19080D01*
X8000Y19000D02*X7861Y19080D01*
X7000Y19000D02*Y18840D01*
Y19000D02*X7138Y19080D01*
X7000Y19000D02*X6861Y19080D01*
X6000Y19000D02*Y18840D01*
Y19000D02*X6138Y19080D01*
X6000Y19000D02*X5861Y19080D01*
X19000Y19000D02*Y18840D01*
Y19000D02*X19138Y19080D01*
X19000Y19000D02*X18861Y19080D01*
X18000Y19000D02*Y18840D01*
Y19000D02*X18138Y19080D01*
X18000Y19000D02*X17861Y19080D01*
X17000Y19000D02*Y18840D01*
Y19000D02*X17138Y19080D01*
X17000Y19000D02*X16861Y19080D01*
X15000Y19000D02*Y18840D01*
Y19000D02*X15138Y19080D01*
X15000Y19000D02*X14861Y19080D01*
X14000Y19000D02*Y18840D01*
Y19000D02*X14138Y19080D01*
X14000Y19000D02*X13861Y19080D01*
X13000Y19000D02*Y18840D01*
Y19000D02*X13138Y19080D01*
X13000Y19000D02*X12861Y19080D01*
X12000Y19000D02*Y18840D01*
Y19000D02*X12138Y19080D01*
X12000Y19000D02*X11861Y19080D01*
X10000Y19000D02*Y18840D01*
Y19000D02*X10138Y19080D01*
X10000Y19000D02*X9861Y19080D01*
X11000Y19000D02*Y18840D01*
Y19000D02*X11138Y19080D01*
X11000Y19000D02*X10861Y19080D01*
X16000Y19000D02*Y18840D01*
Y19000D02*X16138Y19080D01*
X16000Y19000D02*X15861Y19080D01*
X20000Y19000D02*Y18840D01*
Y19000D02*X20138Y19080D01*
X20000Y19000D02*X19861Y19080D01*
X4000Y20000D02*Y19840D01*
Y20000D02*X4138Y20080D01*
X4000Y20000D02*X3861Y20080D01*
X5000Y20000D02*Y19840D01*
Y20000D02*X5138Y20080D01*
X5000Y20000D02*X4861Y20080D01*
X3000Y20000D02*Y19840D01*
Y20000D02*X3138Y20080D01*
X3000Y20000D02*X2861Y20080D01*
X9000Y20000D02*Y19840D01*
Y20000D02*X9138Y20080D01*
X9000Y20000D02*X8861Y20080D01*
X8000Y20000D02*Y19840D01*
Y20000D02*X8138Y20080D01*
X8000Y20000D02*X7861Y20080D01*
X7000Y20000D02*Y19840D01*
Y20000D02*X7138Y20080D01*
X7000Y20000D02*X6861Y20080D01*
X6000Y20000D02*Y19840D01*
Y20000D02*X6138Y20080D01*
X6000Y20000D02*X5861Y20080D01*
X19000Y20000D02*Y19840D01*
Y20000D02*X19138Y20080D01*
X19000Y20000D02*X18861Y20080D01*
X18000Y20000D02*Y19840D01*
Y20000D02*X18138Y20080D01*
X18000Y20000D02*X17861Y20080D01*
X17000Y20000D02*Y19840D01*
Y20000D02*X17138Y20080D01*
X17000Y20000D02*X16861Y20080D01*
X15000Y20000D02*Y19840D01*
Y20000D02*X15138Y20080D01*
X15000Y20000D02*X14861Y20080D01*
X14000Y20000D02*Y19840D01*
Y20000D02*X14138Y20080D01*
X14000Y20000D02*X13861Y20080D01*
X13000Y20000D02*Y19840D01*
Y20000D02*X13138Y20080D01*
X13000Y20000D02*X12861Y20080D01*
X12000Y20000D02*Y19840D01*
Y20000D02*X12138Y20080D01*
X12000Y20000D02*X11861Y20080D01*
X10000Y20000D02*Y19840D01*
Y20000D02*X10138Y20080D01*
X10000Y20000D02*X9861Y20080D01*
X11000Y20000D02*Y19840D01*
Y20000D02*X11138Y20080D01*
X11000Y20000D02*X10861Y20080D01*
X16000Y20000D02*Y19840D01*
Y20000D02*X16138Y20080D01*
X16000Y20000D02*X15861Y20080D01*
X20000Y20000D02*Y19840D01*
Y20000D02*X20138Y20080D01*
X20000Y20000D02*X19861Y20080D01*
X4000Y21000D02*Y20840D01*
Y21000D02*X4138Y21080D01*
X4000Y21000D02*X3861Y21080D01*
X5000Y21000D02*Y20840D01*
Y21000D02*X5138Y21080D01*
X5000Y21000D02*X4861Y21080D01*
X3000Y21000D02*Y20840D01*
Y21000D02*X3138Y21080D01*
X3000Y21000D02*X2861Y21080D01*
X9000Y21000D02*Y20840D01*
Y21000D02*X9138Y21080D01*
X9000Y21000D02*X8861Y21080D01*
X8000Y21000D02*Y20840D01*
Y21000D02*X8138Y21080D01*
X8000Y21000D02*X7861Y21080D01*
X7000Y21000D02*Y20840D01*
Y21000D02*X7138Y21080D01*
X7000Y21000D02*X6861Y21080D01*
X6000Y21000D02*Y20840D01*
Y21000D02*X6138Y21080D01*
X6000Y21000D02*X5861Y21080D01*
X19000Y21000D02*Y20840D01*
Y21000D02*X19138Y21080D01*
X19000Y21000D02*X18861Y21080D01*
X18000Y21000D02*Y20840D01*
Y21000D02*X18138Y21080D01*
X18000Y21000D02*X17861Y21080D01*
X17000Y21000D02*Y20840D01*
Y21000D02*X17138Y21080D01*
X17000Y21000D02*X16861Y21080D01*
X15000Y21000D02*Y20840D01*
Y21000D02*X15138Y21080D01*
X15000Y21000D02*X14861Y21080D01*
X14000Y21000D02*Y20840D01*
Y21000D02*X14138Y21080D01*
X14000Y21000D02*X13861Y21080D01*
X13000Y21000D02*Y20840D01*
Y21000D02*X13138Y21080D01*
X13000Y21000D02*X12861Y21080D01*
X12000Y21000D02*Y20840D01*
Y21000D02*X12138Y21080D01*
X12000Y21000D02*X11861Y21080D01*
X10000Y21000D02*Y20840D01*
Y21000D02*X10138Y21080D01*
X10000Y21000D02*X9861Y21080D01*
X11000Y21000D02*Y20840D01*
Y21000D02*X11138Y21080D01*
X11000Y21000D02*X10861Y21080D01*
X16000Y21000D02*Y20840D01*
Y21000D02*X16138Y21080D01*
X16000Y21000D02*X15861Y21080D01*
X20000Y21000D02*Y20840D01*
Y21000D02*X20138Y21080D01*
X20000Y21000D02*X19861Y21080D01*
X4000Y22000D02*Y21840D01*
Y22000D02*X4138Y22080D01*
X4000Y22000D02*X3861Y22080D01*
X5000Y22000D02*Y21840D01*
Y22000D02*X5138Y22080D01*
X5000Y22000D02*X4861Y22080D01*
X3000Y22000D02*Y21840D01*
Y22000D02*X3138Y22080D01*
X3000Y22000D02*X2861Y22080D01*
X9000Y22000D02*Y21840D01*
Y22000D02*X9138Y22080D01*
X9000Y22000D02*X8861Y22080D01*
X8000Y22000D02*Y21840D01*
Y22000D02*X8138Y22080D01*
X8000Y22000D02*X7861Y22080D01*
X7000Y22000D02*Y21840D01*
Y22000D02*X7138Y22080D01*
X7000Y22000D02*X6861Y22080D01*
X6000Y22000D02*Y21840D01*
Y22000D02*X6138Y22080D01*
X6000Y22000D02*X5861Y22080D01*
X19000Y22000D02*Y21840D01*
Y22000D02*X19138Y22080D01*
X19000Y22000D02*X18861Y22080D01*
X18000Y22000D02*Y21840D01*
Y22000D02*X18138Y22080D01*
X18000Y22000D02*X17861Y22080D01*
X17000Y22000D02*Y21840D01*
Y22000D02*X17138Y22080D01*
X17000Y22000D02*X16861Y22080D01*
X15000Y22000D02*Y21840D01*
Y22000D02*X15138Y22080D01*
X15000Y22000D02*X14861Y22080D01*
X14000Y22000D02*Y21840D01*
Y22000D02*X14138Y22080D01*
X14000Y22000D02*X13861Y22080D01*
X13000Y22000D02*Y21840D01*
Y22000D02*X13138Y22080D01*
X13000Y22000D02*X12861Y22080D01*
X12000Y22000D02*Y21840D01*
Y22000D02*X12138Y22080D01*
X12000Y22000D02*X11861Y22080D01*
X10000Y22000D02*Y21840D01*
Y22000D02*X10138Y22080D01*
X10000Y22000D02*X9861Y22080D01*
X11000Y22000D02*Y21840D01*
Y22000D02*X11138Y22080D01*
X11000Y22000D02*X10861Y22080D01*
X16000Y22000D02*Y21840D01*
Y22000D02*X16138Y22080D01*
X16000Y22000D02*X15861Y22080D01*
X20000Y22000D02*Y21840D01*
Y22000D02*X20138Y22080D01*
X20000Y22000D02*X19861Y22080D01*
X4000Y23000D02*Y22840D01*
Y23000D02*X4138Y23080D01*
X4000Y23000D02*X3861Y23080D01*
X5000Y23000D02*Y22840D01*
Y23000D02*X5138Y23080D01*
X5000Y23000D02*X4861Y23080D01*
X3000Y23000D02*Y22840D01*
Y23000D02*X3138Y23080D01*
X3000Y23000D02*X2861Y23080D01*
X9000Y23000D02*Y22840D01*
Y23000D02*X9138Y23080D01*
X9000Y23000D02*X8861Y23080D01*
X8000Y23000D02*Y22840D01*
Y23000D02*X8138Y23080D01*
X8000Y23000D02*X7861Y23080D01*
X7000Y23000D02*Y22840D01*
Y23000D02*X7138Y23080D01*
X7000Y23000D02*X6861Y23080D01*
X6000Y23000D02*Y22840D01*
Y23000D02*X6138Y23080D01*
X6000Y23000D02*X5861Y23080D01*
X19000Y23000D02*Y22840D01*
Y23000D02*X19138Y23080D01*
X19000Y23000D02*X18861Y23080D01*
X18000Y23000D02*Y22840D01*
Y23000D02*X18138Y23080D01*
X18000Y23000D02*X17861Y23080D01*
X17000Y23000D02*Y22840D01*
Y23000D02*X17138Y23080D01*
X17000Y23000D02*X16861Y23080D01*
X15000Y23000D02*Y22840D01*
Y23000D02*X15138Y23080D01*
X15000Y23000D02*X14861Y23080D01*
X14000Y23000D02*Y22840D01*
Y23000D02*X14138Y23080D01*
X14000Y23000D02*X13861Y23080D01*
X13000Y23000D02*Y22840D01*
Y23000D02*X13138Y23080D01*
X13000Y23000D02*X12861Y23080D01*
X12000Y23000D02*Y22840D01*
Y23000D02*X12138Y23080D01*
X12000Y23000D02*X11861Y23080D01*
X10000Y23000D02*Y22840D01*
Y23000D02*X10138Y23080D01*
X10000Y23000D02*X9861Y23080D01*
X11000Y23000D02*Y22840D01*
Y23000D02*X11138Y23080D01*
X11000Y23000D02*X10861Y23080D01*
X16000Y23000D02*Y22840D01*
Y23000D02*X16138Y23080D01*
X16000Y23000D02*X15861Y23080D01*
X20000Y23000D02*Y22840D01*
Y23000D02*X20138Y23080D01*
X20000Y23000D02*X19861Y23080D01*
X4000Y24000D02*Y23840D01*
Y24000D02*X4138Y24080D01*
X4000Y24000D02*X3861Y24080D01*
X5000Y24000D02*Y23840D01*
Y24000D02*X5138Y24080D01*
X5000Y24000D02*X4861Y24080D01*
X3000Y24000D02*Y23840D01*
Y24000D02*X3138Y24080D01*
X3000Y24000D02*X2861Y24080D01*
X9000Y24000D02*Y23840D01*
Y24000D02*X9138Y24080D01*
X9000Y24000D02*X8861Y24080D01*
X8000Y24000D02*Y23840D01*
Y24000D02*X8138Y24080D01*
X8000Y24000D02*X7861Y24080D01*
X7000Y24000D02*Y23840D01*
Y24000D02*X7138Y24080D01*
X7000Y24000D02*X6861Y24080D01*
X6000Y24000D02*Y23840D01*
Y24000D02*X6138Y24080D01*
X6000Y24000D02*X5861Y24080D01*
X19000Y24000D02*Y23840D01*
Y24000D02*X19138Y24080D01*
X19000Y24000D02*X18861Y24080D01*
X18000Y24000D02*Y23840D01*
Y24000D02*X18138Y24080D01*
X18000Y24000D02*X17861Y24080D01*
X17000Y24000D02*Y23840D01*
Y24000D02*X17138Y24080D01*
X17000Y24000D02*X16861Y24080D01*
X15000Y24000D02*Y23840D01*
Y24000D02*X15138Y24080D01*
X15000Y24000D02*X14861Y24080D01*
X14000Y24000D02*Y23840D01*
Y24000D02*X14138Y24080D01*
X14000Y24000D02*X13861Y24080D01*
X13000Y24000D02*Y23840D01*
Y24000D02*X13138Y24080D01*
X13000Y24000D02*X12861Y24080D01*
X12000Y24000D02*Y23840D01*
Y24000D02*X12138Y24080D01*
X12000Y24000D02*X11861Y24080D01*
X10000Y24000D02*Y23840D01*
Y24000D02*X10138Y24080D01*
X10000Y24000D02*X9861Y24080D01*
X11000Y24000D02*Y23840D01*
Y24000D02*X11138Y24080D01*
X11000Y24000D02*X10861Y24080D01*
X16000Y24000D02*Y23840D01*
Y24000D02*X16138Y24080D01*
X16000Y24000D02*X15861Y24080D01*
X20000Y24000D02*Y23840D01*
Y24000D02*X20138Y24080D01*
X20000Y24000D02*X19861Y24080D01*
X4000Y25000D02*Y24840D01*
Y25000D02*X4138Y25080D01*
X4000Y25000D02*X3861Y25080D01*
X5000Y25000D02*Y24840D01*
Y25000D02*X5138Y25080D01*
X5000Y25000D02*X4861Y25080D01*
X3000Y25000D02*Y24840D01*
Y25000D02*X3138Y25080D01*
X3000Y25000D02*X2861Y25080D01*
X9000Y25000D02*Y24840D01*
Y25000D02*X9138Y25080D01*
X9000Y25000D02*X8861Y25080D01*
X8000Y25000D02*Y24840D01*
Y25000D02*X8138Y25080D01*
X8000Y25000D02*X7861Y25080D01*
X7000Y25000D02*Y24840D01*
Y25000D02*X7138Y25080D01*
X7000Y25000D02*X6861Y25080D01*
X6000Y25000D02*Y24840D01*
Y25000D02*X6138Y25080D01*
X6000Y25000D02*X5861Y25080D01*
X19000Y25000D02*Y24840D01*
Y25000D02*X19138Y25080D01*
X19000Y25000D02*X18861Y25080D01*
X18000Y25000D02*Y24840D01*
Y25000D02*X18138Y25080D01*
X18000Y25000D02*X17861Y25080D01*
X17000Y25000D02*Y24840D01*
Y25000D02*X17138Y25080D01*
X17000Y25000D02*X16861Y25080D01*
X15000Y25000D02*Y24840D01*
Y25000D02*X15138Y25080D01*
X15000Y25000D02*X14861Y25080D01*
X14000Y25000D02*Y24840D01*
Y25000D02*X14138Y25080D01*
X14000Y25000D02*X13861Y25080D01*
X13000Y25000D02*Y24840D01*
Y25000D02*X13138Y25080D01*
X13000Y25000D02*X12861Y25080D01*
X12000Y25000D02*Y24840D01*
Y25000D02*X12138Y25080D01*
X12000Y25000D02*X11861Y25080D01*
X10000Y25000D02*Y24840D01*
Y25000D02*X10138Y25080D01*
X10000Y25000D02*X9861Y25080D01*
X11000Y25000D02*Y24840D01*
Y25000D02*X11138Y25080D01*
X11000Y25000D02*X10861Y25080D01*
X16000Y25000D02*Y24840D01*
Y25000D02*X16138Y25080D01*
X16000Y25000D02*X15861Y25080D01*
X20000Y25000D02*Y24840D01*
Y25000D02*X20138Y25080D01*
X20000Y25000D02*X19861Y25080D01*
X4000Y26000D02*Y25840D01*
Y26000D02*X4138Y26080D01*
X4000Y26000D02*X3861Y26080D01*
X5000Y26000D02*Y25840D01*
Y26000D02*X5138Y26080D01*
X5000Y26000D02*X4861Y26080D01*
X3000Y26000D02*Y25840D01*
Y26000D02*X3138Y26080D01*
X3000Y26000D02*X2861Y26080D01*
X9000Y26000D02*Y25840D01*
Y26000D02*X9138Y26080D01*
X9000Y26000D02*X8861Y26080D01*
X8000Y26000D02*Y25840D01*
Y26000D02*X8138Y26080D01*
X8000Y26000D02*X7861Y26080D01*
X7000Y26000D02*Y25840D01*
Y26000D02*X7138Y26080D01*
X7000Y26000D02*X6861Y26080D01*
X6000Y26000D02*Y25840D01*
Y26000D02*X6138Y26080D01*
X6000Y26000D02*X5861Y26080D01*
X19000Y26000D02*Y25840D01*
Y26000D02*X19138Y26080D01*
X19000Y26000D02*X18861Y26080D01*
X18000Y26000D02*Y25840D01*
Y26000D02*X18138Y26080D01*
X18000Y26000D02*X17861Y26080D01*
X17000Y26000D02*Y25840D01*
Y26000D02*X17138Y26080D01*
X17000Y26000D02*X16861Y26080D01*
X15000Y26000D02*Y25840D01*
Y26000D02*X15138Y26080D01*
X15000Y26000D02*X14861Y26080D01*
X14000Y26000D02*Y25840D01*
Y26000D02*X14138Y26080D01*
X14000Y26000D02*X13861Y26080D01*
X13000Y26000D02*Y25840D01*
Y26000D02*X13138Y26080D01*
X13000Y26000D02*X12861Y26080D01*
X12000Y26000D02*Y25840D01*
Y26000D02*X12138Y26080D01*
X12000Y26000D02*X11861Y26080D01*
X10000Y26000D02*Y25840D01*
Y26000D02*X10138Y26080D01*
X10000Y26000D02*X9861Y26080D01*
X11000Y26000D02*Y25840D01*
Y26000D02*X11138Y26080D01*
X11000Y26000D02*X10861Y26080D01*
X16000Y26000D02*Y25840D01*
Y26000D02*X16138Y26080D01*
X16000Y26000D02*X15861Y26080D01*
X20000Y26000D02*Y25840D01*
Y26000D02*X20138Y26080D01*
X20000Y26000D02*X19861Y26080D01*
X4000Y27000D02*Y26840D01*
Y27000D02*X4138Y27080D01*
X4000Y27000D02*X3861Y27080D01*
X5000Y27000D02*Y26840D01*
Y27000D02*X5138Y27080D01*
X5000Y27000D02*X4861Y27080D01*
X3000Y27000D02*Y26840D01*
Y27000D02*X3138Y27080D01*
X3000Y27000D02*X2861Y27080D01*
X9000Y27000D02*Y26840D01*
Y27000D02*X9138Y27080D01*
X9000Y27000D02*X8861Y27080D01*
X8000Y27000D02*Y26840D01*
Y27000D02*X8138Y27080D01*
X8000Y27000D02*X7861Y27080D01*
X7000Y27000D02*Y26840D01*
Y27000D02*X7138Y27080D01*
X7000Y27000D02*X6861Y27080D01*
X6000Y27000D02*Y26840D01*
Y27000D02*X6138Y27080D01*
X6000Y27000D02*X5861Y27080D01*
X19000Y27000D02*Y26840D01*
Y27000D02*X19138Y27080D01*
X19000Y27000D02*X18861Y27080D01*
X18000Y27000D02*Y26840D01*
Y27000D02*X18138Y27080D01*
X18000Y27000D02*X17861Y27080D01*
X17000Y27000D02*Y26840D01*
Y27000D02*X17138Y27080D01*
X17000Y27000D02*X16861Y27080D01*
X15000Y27000D02*Y26840D01*
Y27000D02*X15138Y27080D01*
X15000Y27000D02*X14861Y27080D01*
X14000Y27000D02*Y26840D01*
Y27000D02*X14138Y27080D01*
X14000Y27000D02*X13861Y27080D01*
X13000Y27000D02*Y26840D01*
Y27000D02*X13138Y27080D01*
X13000Y27000D02*X12861Y27080D01*
X12000Y27000D02*Y26840D01*
Y27000D02*X12138Y27080D01*
X12000Y27000D02*X11861Y27080D01*
X10000Y27000D02*Y26840D01*
Y27000D02*X10138Y27080D01*
X10000Y27000D02*X9861Y27080D01*
X11000Y27000D02*Y26840D01*
Y27000D02*X11138Y27080D01*
X11000Y27000D02*X10861Y27080D01*
X16000Y27000D02*Y26840D01*
Y27000D02*X16138Y27080D01*
X16000Y27000D02*X15861Y27080D01*
X20000Y27000D02*Y26840D01*
Y27000D02*X20138Y27080D01*
X20000Y27000D02*X19861Y27080D01*
X4000Y28000D02*Y27840D01*
Y28000D02*X4138Y28080D01*
X4000Y28000D02*X3861Y28080D01*
X5000Y28000D02*Y27840D01*
Y28000D02*X5138Y28080D01*
X5000Y28000D02*X4861Y28080D01*
X3000Y28000D02*Y27840D01*
Y28000D02*X3138Y28080D01*
X3000Y28000D02*X2861Y28080D01*
X9000Y28000D02*Y27840D01*
Y28000D02*X9138Y28080D01*
X9000Y28000D02*X8861Y28080D01*
X8000Y28000D02*Y27840D01*
Y28000D02*X8138Y28080D01*
X8000Y28000D02*X7861Y28080D01*
X7000Y28000D02*Y27840D01*
Y28000D02*X7138Y28080D01*
X7000Y28000D02*X6861Y28080D01*
X6000Y28000D02*Y27840D01*
Y28000D02*X6138Y28080D01*
X6000Y28000D02*X5861Y28080D01*
X19000Y28000D02*Y27840D01*
Y28000D02*X19138Y28080D01*
X19000Y28000D02*X18861Y28080D01*
X18000Y28000D02*Y27840D01*
Y28000D02*X18138Y28080D01*
X18000Y28000D02*X17861Y28080D01*
X17000Y28000D02*Y27840D01*
Y28000D02*X17138Y28080D01*
X17000Y28000D02*X16861Y28080D01*
X15000Y28000D02*Y27840D01*
Y28000D02*X15138Y28080D01*
X15000Y28000D02*X14861Y28080D01*
X14000Y28000D02*Y27840D01*
Y28000D02*X14138Y28080D01*
X14000Y28000D02*X13861Y28080D01*
X13000Y28000D02*Y27840D01*
Y28000D02*X13138Y28080D01*
X13000Y28000D02*X12861Y28080D01*
X12000Y28000D02*Y27840D01*
Y28000D02*X12138Y28080D01*
X12000Y28000D02*X11861Y28080D01*
X10000Y28000D02*Y27840D01*
Y28000D02*X10138Y28080D01*
X10000Y28000D02*X9861Y28080D01*
X11000Y28000D02*Y27840D01*
Y28000D02*X11138Y28080D01*
X11000Y28000D02*X10861Y28080D01*
X16000Y28000D02*Y27840D01*
Y28000D02*X16138Y28080D01*
X16000Y28000D02*X15861Y28080D01*
X20000Y28000D02*Y27840D01*
Y28000D02*X20138Y28080D01*
X20000Y28000D02*X19861Y28080D01*
X4000Y29000D02*Y28840D01*
Y29000D02*X4138Y29080D01*
X4000Y29000D02*X3861Y29080D01*
X5000Y29000D02*Y28840D01*
Y29000D02*X5138Y29080D01*
X5000Y29000D02*X4861Y29080D01*
X3000Y29000D02*Y28840D01*
Y29000D02*X3138Y29080D01*
X3000Y29000D02*X2861Y29080D01*
X9000Y29000D02*Y28840D01*
Y29000D02*X9138Y29080D01*
X9000Y29000D02*X8861Y29080D01*
X8000Y29000D02*Y28840D01*
Y29000D02*X8138Y29080D01*
X8000Y29000D02*X7861Y29080D01*
X7000Y29000D02*Y28840D01*
Y29000D02*X7138Y29080D01*
X7000Y29000D02*X6861Y29080D01*
X6000Y29000D02*Y28840D01*
Y29000D02*X6138Y29080D01*
X6000Y29000D02*X5861Y29080D01*
X19000Y29000D02*Y28840D01*
Y29000D02*X19138Y29080D01*
X19000Y29000D02*X18861Y29080D01*
X18000Y29000D02*Y28840D01*
Y29000D02*X18138Y29080D01*
X18000Y29000D02*X17861Y29080D01*
X17000Y29000D02*Y28840D01*
Y29000D02*X17138Y29080D01*
X17000Y29000D02*X16861Y29080D01*
X15000Y29000D02*Y28840D01*
Y29000D02*X15138Y29080D01*
X15000Y29000D02*X14861Y29080D01*
X14000Y29000D02*Y28840D01*
Y29000D02*X14138Y29080D01*
X14000Y29000D02*X13861Y29080D01*
X13000Y29000D02*Y28840D01*
Y29000D02*X13138Y29080D01*
X13000Y29000D02*X12861Y29080D01*
X12000Y29000D02*Y28840D01*
Y29000D02*X12138Y29080D01*
X12000Y29000D02*X11861Y29080D01*
X10000Y29000D02*Y28840D01*
Y29000D02*X10138Y29080D01*
X10000Y29000D02*X9861Y29080D01*
X11000Y29000D02*Y28840D01*
Y29000D02*X11138Y29080D01*
X11000Y29000D02*X10861Y29080D01*
X16000Y29000D02*Y28840D01*
Y29000D02*X16138Y29080D01*
X16000Y29000D02*X15861Y29080D01*
X20000Y29000D02*Y28840D01*
Y29000D02*X20138Y29080D01*
X20000Y29000D02*X19861Y29080D01*
X4000Y30000D02*Y29840D01*
Y30000D02*X4138Y30080D01*
X4000Y30000D02*X3861Y30080D01*
X5000Y30000D02*Y29840D01*
Y30000D02*X5138Y30080D01*
X5000Y30000D02*X4861Y30080D01*
X3000Y30000D02*Y29840D01*
Y30000D02*X3138Y30080D01*
X3000Y30000D02*X2861Y30080D01*
X9000Y30000D02*Y29840D01*
Y30000D02*X9138Y30080D01*
X9000Y30000D02*X8861Y30080D01*
X8000Y30000D02*Y29840D01*
Y30000D02*X8138Y30080D01*
X8000Y30000D02*X7861Y30080D01*
X7000Y30000D02*Y29840D01*
Y30000D02*X7138Y30080D01*
X7000Y30000D02*X6861Y30080D01*
X6000Y30000D02*Y29840D01*
Y30000D02*X6138Y30080D01*
X6000Y30000D02*X5861Y30080D01*
X19000Y30000D02*Y29840D01*
Y30000D02*X19138Y30080D01*
X19000Y30000D02*X18861Y30080D01*
X18000Y30000D02*Y29840D01*
Y30000D02*X18138Y30080D01*
X18000Y30000D02*X17861Y30080D01*
X17000Y30000D02*Y29840D01*
Y30000D02*X17138Y30080D01*
X17000Y30000D02*X16861Y30080D01*
X15000Y30000D02*Y29840D01*
Y30000D02*X15138Y30080D01*
X15000Y30000D02*X14861Y30080D01*
X14000Y30000D02*Y29840D01*
Y30000D02*X14138Y30080D01*
X14000Y30000D02*X13861Y30080D01*
X13000Y30000D02*Y29840D01*
Y30000D02*X13138Y30080D01*
X13000Y30000D02*X12861Y30080D01*
X12000Y30000D02*Y29840D01*
Y30000D02*X12138Y30080D01*
X12000Y30000D02*X11861Y30080D01*
X10000Y30000D02*Y29840D01*
Y30000D02*X10138Y30080D01*
X10000Y30000D02*X9861Y30080D01*
X11000Y30000D02*Y29840D01*
Y30000D02*X11138Y30080D01*
X11000Y30000D02*X10861Y30080D01*
X16000Y30000D02*Y29840D01*
Y30000D02*X16138Y30080D01*
X16000Y30000D02*X15861Y30080D01*
X20000Y30000D02*Y29840D01*
Y30000D02*X20138Y30080D01*
X20000Y30000D02*X19861Y30080D01*
X24000Y17000D02*Y16840D01*
Y17000D02*X24138Y17080D01*
X24000Y17000D02*X23861Y17080D01*
X25000Y17000D02*Y16840D01*
Y17000D02*X25138Y17080D01*
X25000Y17000D02*X24861Y17080D01*
X23000Y17000D02*Y16840D01*
Y17000D02*X23138Y17080D01*
X23000Y17000D02*X22861Y17080D01*
X29000Y17000D02*Y16840D01*
Y17000D02*X29138Y17080D01*
X29000Y17000D02*X28861Y17080D01*
X28000Y17000D02*Y16840D01*
Y17000D02*X28138Y17080D01*
X28000Y17000D02*X27861Y17080D01*
X27000Y17000D02*Y16840D01*
Y17000D02*X27138Y17080D01*
X27000Y17000D02*X26861Y17080D01*
X26000Y17000D02*Y16840D01*
Y17000D02*X26138Y17080D01*
X26000Y17000D02*X25861Y17080D01*
X39000Y17000D02*Y16840D01*
Y17000D02*X39138Y17080D01*
X39000Y17000D02*X38861Y17080D01*
X38000Y17000D02*Y16840D01*
Y17000D02*X38138Y17080D01*
X38000Y17000D02*X37861Y17080D01*
X37000Y17000D02*Y16840D01*
Y17000D02*X37138Y17080D01*
X37000Y17000D02*X36861Y17080D01*
X35000Y17000D02*Y16840D01*
Y17000D02*X35138Y17080D01*
X35000Y17000D02*X34861Y17080D01*
X34000Y17000D02*Y16840D01*
Y17000D02*X34138Y17080D01*
X34000Y17000D02*X33861Y17080D01*
X33000Y17000D02*Y16840D01*
Y17000D02*X33138Y17080D01*
X33000Y17000D02*X32861Y17080D01*
X32000Y17000D02*Y16840D01*
Y17000D02*X32138Y17080D01*
X32000Y17000D02*X31861Y17080D01*
X30000Y17000D02*Y16840D01*
Y17000D02*X30138Y17080D01*
X30000Y17000D02*X29861Y17080D01*
X31000Y17000D02*Y16840D01*
Y17000D02*X31138Y17080D01*
X31000Y17000D02*X30861Y17080D01*
X36000Y17000D02*Y16840D01*
Y17000D02*X36138Y17080D01*
X36000Y17000D02*X35861Y17080D01*
X40000Y17000D02*Y16840D01*
Y17000D02*X40138Y17080D01*
X40000Y17000D02*X39861Y17080D01*
X24000Y18000D02*Y17840D01*
Y18000D02*X24138Y18080D01*
X24000Y18000D02*X23861Y18080D01*
X25000Y18000D02*Y17840D01*
Y18000D02*X25138Y18080D01*
X25000Y18000D02*X24861Y18080D01*
X23000Y18000D02*Y17840D01*
Y18000D02*X23138Y18080D01*
X23000Y18000D02*X22861Y18080D01*
X29000Y18000D02*Y17840D01*
Y18000D02*X29138Y18080D01*
X29000Y18000D02*X28861Y18080D01*
X28000Y18000D02*Y17840D01*
Y18000D02*X28138Y18080D01*
X28000Y18000D02*X27861Y18080D01*
X27000Y18000D02*Y17840D01*
Y18000D02*X27138Y18080D01*
X27000Y18000D02*X26861Y18080D01*
X26000Y18000D02*Y17840D01*
Y18000D02*X26138Y18080D01*
X26000Y18000D02*X25861Y18080D01*
X39000Y18000D02*Y17840D01*
Y18000D02*X39138Y18080D01*
X39000Y18000D02*X38861Y18080D01*
X38000Y18000D02*Y17840D01*
Y18000D02*X38138Y18080D01*
X38000Y18000D02*X37861Y18080D01*
X37000Y18000D02*Y17840D01*
Y18000D02*X37138Y18080D01*
X37000Y18000D02*X36861Y18080D01*
X35000Y18000D02*Y17840D01*
Y18000D02*X35138Y18080D01*
X35000Y18000D02*X34861Y18080D01*
X34000Y18000D02*Y17840D01*
Y18000D02*X34138Y18080D01*
X34000Y18000D02*X33861Y18080D01*
X33000Y18000D02*Y17840D01*
Y18000D02*X33138Y18080D01*
X33000Y18000D02*X32861Y18080D01*
X32000Y18000D02*Y17840D01*
Y18000D02*X32138Y18080D01*
X32000Y18000D02*X31861Y18080D01*
X30000Y18000D02*Y17840D01*
Y18000D02*X30138Y18080D01*
X30000Y18000D02*X29861Y18080D01*
X31000Y18000D02*Y17840D01*
Y18000D02*X31138Y18080D01*
X31000Y18000D02*X30861Y18080D01*
X36000Y18000D02*Y17840D01*
Y18000D02*X36138Y18080D01*
X36000Y18000D02*X35861Y18080D01*
X40000Y18000D02*Y17840D01*
Y18000D02*X40138Y18080D01*
X40000Y18000D02*X39861Y18080D01*
X24000Y19000D02*Y18840D01*
Y19000D02*X24138Y19080D01*
X24000Y19000D02*X23861Y19080D01*
X25000Y19000D02*Y18840D01*
Y19000D02*X25138Y19080D01*
X25000Y19000D02*X24861Y19080D01*
X23000Y19000D02*Y18840D01*
Y19000D02*X23138Y19080D01*
X23000Y19000D02*X22861Y19080D01*
X29000Y19000D02*Y18840D01*
Y19000D02*X29138Y19080D01*
X29000Y19000D02*X28861Y19080D01*
X28000Y19000D02*Y18840D01*
Y19000D02*X28138Y19080D01*
X28000Y19000D02*X27861Y19080D01*
X27000Y19000D02*Y18840D01*
Y19000D02*X27138Y19080D01*
X27000Y19000D02*X26861Y19080D01*
X26000Y19000D02*Y18840D01*
Y19000D02*X26138Y19080D01*
X26000Y19000D02*X25861Y19080D01*
X39000Y19000D02*Y18840D01*
Y19000D02*X39138Y19080D01*
X39000Y19000D02*X38861Y19080D01*
X38000Y19000D02*Y18840D01*
Y19000D02*X38138Y19080D01*
X38000Y19000D02*X37861Y19080D01*
X37000Y19000D02*Y18840D01*
Y19000D02*X37138Y19080D01*
X37000Y19000D02*X36861Y19080D01*
X35000Y19000D02*Y18840D01*
Y19000D02*X35138Y19080D01*
X35000Y19000D02*X34861Y19080D01*
X34000Y19000D02*Y18840D01*
Y19000D02*X34138Y19080D01*
X34000Y19000D02*X33861Y19080D01*
X33000Y19000D02*Y18840D01*
Y19000D02*X33138Y19080D01*
X33000Y19000D02*X32861Y19080D01*
X32000Y19000D02*Y18840D01*
Y19000D02*X32138Y19080D01*
X32000Y19000D02*X31861Y19080D01*
X30000Y19000D02*Y18840D01*
Y19000D02*X30138Y19080D01*
X30000Y19000D02*X29861Y19080D01*
X31000Y19000D02*Y18840D01*
Y19000D02*X31138Y19080D01*
X31000Y19000D02*X30861Y19080D01*
X36000Y19000D02*Y18840D01*
Y19000D02*X36138Y19080D01*
X36000Y19000D02*X35861Y19080D01*
X40000Y19000D02*Y18840D01*
Y19000D02*X40138Y19080D01*
X40000Y19000D02*X39861Y19080D01*
X24000Y20000D02*Y19840D01*
Y20000D02*X24138Y20080D01*
X24000Y20000D02*X23861Y20080D01*
X25000Y20000D02*Y19840D01*
Y20000D02*X25138Y20080D01*
X25000Y20000D02*X24861Y20080D01*
X23000Y20000D02*Y19840D01*
Y20000D02*X23138Y20080D01*
X23000Y20000D02*X22861Y20080D01*
X29000Y20000D02*Y19840D01*
Y20000D02*X29138Y20080D01*
X29000Y20000D02*X28861Y20080D01*
X28000Y20000D02*Y19840D01*
Y20000D02*X28138Y20080D01*
X28000Y20000D02*X27861Y20080D01*
X27000Y20000D02*Y19840D01*
Y20000D02*X27138Y20080D01*
X27000Y20000D02*X26861Y20080D01*
X26000Y20000D02*Y19840D01*
Y20000D02*X26138Y20080D01*
X26000Y20000D02*X25861Y20080D01*
X39000Y20000D02*Y19840D01*
Y20000D02*X39138Y20080D01*
X39000Y20000D02*X38861Y20080D01*
X38000Y20000D02*Y19840D01*
Y20000D02*X38138Y20080D01*
X38000Y20000D02*X37861Y20080D01*
X37000Y20000D02*Y19840D01*
Y20000D02*X37138Y20080D01*
X37000Y20000D02*X36861Y20080D01*
X35000Y20000D02*Y19840D01*
Y20000D02*X35138Y20080D01*
X35000Y20000D02*X34861Y20080D01*
X34000Y20000D02*Y19840D01*
Y20000D02*X34138Y20080D01*
X34000Y20000D02*X33861Y20080D01*
X33000Y20000D02*Y19840D01*
Y20000D02*X33138Y20080D01*
X33000Y20000D02*X32861Y20080D01*
X32000Y20000D02*Y19840D01*
Y20000D02*X32138Y20080D01*
X32000Y20000D02*X31861Y20080D01*
X30000Y20000D02*Y19840D01*
Y20000D02*X30138Y20080D01*
X30000Y20000D02*X29861Y20080D01*
X31000Y20000D02*Y19840D01*
Y20000D02*X31138Y20080D01*
X31000Y20000D02*X30861Y20080D01*
X36000Y20000D02*Y19840D01*
Y20000D02*X36138Y20080D01*
X36000Y20000D02*X35861Y20080D01*
X40000Y20000D02*Y19840D01*
Y20000D02*X40138Y20080D01*
X40000Y20000D02*X39861Y20080D01*
X24000Y21000D02*Y20840D01*
Y21000D02*X24138Y21080D01*
X24000Y21000D02*X23861Y21080D01*
X25000Y21000D02*Y20840D01*
Y21000D02*X25138Y21080D01*
X25000Y21000D02*X24861Y21080D01*
X23000Y21000D02*Y20840D01*
Y21000D02*X23138Y21080D01*
X23000Y21000D02*X22861Y21080D01*
X29000Y21000D02*Y20840D01*
Y21000D02*X29138Y21080D01*
X29000Y21000D02*X28861Y21080D01*
X28000Y21000D02*Y20840D01*
Y21000D02*X28138Y21080D01*
X28000Y21000D02*X27861Y21080D01*
X27000Y21000D02*Y20840D01*
Y21000D02*X27138Y21080D01*
X27000Y21000D02*X26861Y21080D01*
X26000Y21000D02*Y20840D01*
Y21000D02*X26138Y21080D01*
X26000Y21000D02*X25861Y21080D01*
X39000Y21000D02*Y20840D01*
Y21000D02*X39138Y21080D01*
X39000Y21000D02*X38861Y21080D01*
X38000Y21000D02*Y20840D01*
Y21000D02*X38138Y21080D01*
X38000Y21000D02*X37861Y21080D01*
X37000Y21000D02*Y20840D01*
Y21000D02*X37138Y21080D01*
X37000Y21000D02*X36861Y21080D01*
X35000Y21000D02*Y20840D01*
Y21000D02*X35138Y21080D01*
X35000Y21000D02*X34861Y21080D01*
X34000Y21000D02*Y20840D01*
Y21000D02*X34138Y21080D01*
X34000Y21000D02*X33861Y21080D01*
X33000Y21000D02*Y20840D01*
Y21000D02*X33138Y21080D01*
X33000Y21000D02*X32861Y21080D01*
X32000Y21000D02*Y20840D01*
Y21000D02*X32138Y21080D01*
X32000Y21000D02*X31861Y21080D01*
X30000Y21000D02*Y20840D01*
Y21000D02*X30138Y21080D01*
X30000Y21000D02*X29861Y21080D01*
X31000Y21000D02*Y20840D01*
Y21000D02*X31138Y21080D01*
X31000Y21000D02*X30861Y21080D01*
X36000Y21000D02*Y20840D01*
Y21000D02*X36138Y21080D01*
X36000Y21000D02*X35861Y21080D01*
X40000Y21000D02*Y20840D01*
Y21000D02*X40138Y21080D01*
X40000Y21000D02*X39861Y21080D01*
X24000Y22000D02*Y21840D01*
Y22000D02*X24138Y22080D01*
X24000Y22000D02*X23861Y22080D01*
X25000Y22000D02*Y21840D01*
Y22000D02*X25138Y22080D01*
X25000Y22000D02*X24861Y22080D01*
X23000Y22000D02*Y21840D01*
Y22000D02*X23138Y22080D01*
X23000Y22000D02*X22861Y22080D01*
X29000Y22000D02*Y21840D01*
Y22000D02*X29138Y22080D01*
X29000Y22000D02*X28861Y22080D01*
X28000Y22000D02*Y21840D01*
Y22000D02*X28138Y22080D01*
X28000Y22000D02*X27861Y22080D01*
X27000Y22000D02*Y21840D01*
Y22000D02*X27138Y22080D01*
X27000Y22000D02*X26861Y22080D01*
X26000Y22000D02*Y21840D01*
Y22000D02*X26138Y22080D01*
X26000Y22000D02*X25861Y22080D01*
X39000Y22000D02*Y21840D01*
Y22000D02*X39138Y22080D01*
X39000Y22000D02*X38861Y22080D01*
X38000Y22000D02*Y21840D01*
Y22000D02*X38138Y22080D01*
X38000Y22000D02*X37861Y22080D01*
X37000Y22000D02*Y21840D01*
Y22000D02*X37138Y22080D01*
X37000Y22000D02*X36861Y22080D01*
X35000Y22000D02*Y21840D01*
Y22000D02*X35138Y22080D01*
X35000Y22000D02*X34861Y22080D01*
X34000Y22000D02*Y21840D01*
Y22000D02*X34138Y22080D01*
X34000Y22000D02*X33861Y22080D01*
X33000Y22000D02*Y21840D01*
Y22000D02*X33138Y22080D01*
X33000Y22000D02*X32861Y22080D01*
X32000Y22000D02*Y21840D01*
Y22000D02*X32138Y22080D01*
X32000Y22000D02*X31861Y22080D01*
X30000Y22000D02*Y21840D01*
Y22000D02*X30138Y22080D01*
X30000Y22000D02*X29861Y22080D01*
X31000Y22000D02*Y21840D01*
Y22000D02*X31138Y22080D01*
X31000Y22000D02*X30861Y22080D01*
X36000Y22000D02*Y21840D01*
Y22000D02*X36138Y22080D01*
X36000Y22000D02*X35861Y22080D01*
X40000Y22000D02*Y21840D01*
Y22000D02*X40138Y22080D01*
X40000Y22000D02*X39861Y22080D01*
X24000Y23000D02*Y22840D01*
Y23000D02*X24138Y23080D01*
X24000Y23000D02*X23861Y23080D01*
X25000Y23000D02*Y22840D01*
Y23000D02*X25138Y23080D01*
X25000Y23000D02*X24861Y23080D01*
X23000Y23000D02*Y22840D01*
Y23000D02*X23138Y23080D01*
X23000Y23000D02*X22861Y23080D01*
X29000Y23000D02*Y22840D01*
Y23000D02*X29138Y23080D01*
X29000Y23000D02*X28861Y23080D01*
X28000Y23000D02*Y22840D01*
Y23000D02*X28138Y23080D01*
X28000Y23000D02*X27861Y23080D01*
X27000Y23000D02*Y22840D01*
Y23000D02*X27138Y23080D01*
X27000Y23000D02*X26861Y23080D01*
X26000Y23000D02*Y22840D01*
Y23000D02*X26138Y23080D01*
X26000Y23000D02*X25861Y23080D01*
X39000Y23000D02*Y22840D01*
Y23000D02*X39138Y23080D01*
X39000Y23000D02*X38861Y23080D01*
X38000Y23000D02*Y22840D01*
Y23000D02*X38138Y23080D01*
X38000Y23000D02*X37861Y23080D01*
X37000Y23000D02*Y22840D01*
Y23000D02*X37138Y23080D01*
X37000Y23000D02*X36861Y23080D01*
X35000Y23000D02*Y22840D01*
Y23000D02*X35138Y23080D01*
X35000Y23000D02*X34861Y23080D01*
X34000Y23000D02*Y22840D01*
Y23000D02*X34138Y23080D01*
X34000Y23000D02*X33861Y23080D01*
X33000Y23000D02*Y22840D01*
Y23000D02*X33138Y23080D01*
X33000Y23000D02*X32861Y23080D01*
X32000Y23000D02*Y22840D01*
Y23000D02*X32138Y23080D01*
X32000Y23000D02*X31861Y23080D01*
X30000Y23000D02*Y22840D01*
Y23000D02*X30138Y23080D01*
X30000Y23000D02*X29861Y23080D01*
X31000Y23000D02*Y22840D01*
Y23000D02*X31138Y23080D01*
X31000Y23000D02*X30861Y23080D01*
X36000Y23000D02*Y22840D01*
Y23000D02*X36138Y23080D01*
X36000Y23000D02*X35861Y23080D01*
X40000Y23000D02*Y22840D01*
Y23000D02*X40138Y23080D01*
X40000Y23000D02*X39861Y23080D01*
X24000Y24000D02*Y23840D01*
Y24000D02*X24138Y24080D01*
X24000Y24000D02*X23861Y24080D01*
X25000Y24000D02*Y23840D01*
Y24000D02*X25138Y24080D01*
X25000Y24000D02*X24861Y24080D01*
X23000Y24000D02*Y23840D01*
Y24000D02*X23138Y24080D01*
X23000Y24000D02*X22861Y24080D01*
X29000Y24000D02*Y23840D01*
Y24000D02*X29138Y24080D01*
X29000Y24000D02*X28861Y24080D01*
X28000Y24000D02*Y23840D01*
Y24000D02*X28138Y24080D01*
X28000Y24000D02*X27861Y24080D01*
X27000Y24000D02*Y23840D01*
Y24000D02*X27138Y24080D01*
X27000Y24000D02*X26861Y24080D01*
X26000Y24000D02*Y23840D01*
Y24000D02*X26138Y24080D01*
X26000Y24000D02*X25861Y24080D01*
X39000Y24000D02*Y23840D01*
Y24000D02*X39138Y24080D01*
X39000Y24000D02*X38861Y24080D01*
X38000Y24000D02*Y23840D01*
Y24000D02*X38138Y24080D01*
X38000Y24000D02*X37861Y24080D01*
X37000Y24000D02*Y23840D01*
Y24000D02*X37138Y24080D01*
X37000Y24000D02*X36861Y24080D01*
X35000Y24000D02*Y23840D01*
Y24000D02*X35138Y24080D01*
X35000Y24000D02*X34861Y24080D01*
X34000Y24000D02*Y23840D01*
Y24000D02*X34138Y24080D01*
X34000Y24000D02*X33861Y24080D01*
X33000Y24000D02*Y23840D01*
Y24000D02*X33138Y24080D01*
X33000Y24000D02*X32861Y24080D01*
X32000Y24000D02*Y23840D01*
Y24000D02*X32138Y24080D01*
X32000Y24000D02*X31861Y24080D01*
X30000Y24000D02*Y23840D01*
Y24000D02*X30138Y24080D01*
X30000Y24000D02*X29861Y24080D01*
X31000Y24000D02*Y23840D01*
Y24000D02*X31138Y24080D01*
X31000Y24000D02*X30861Y24080D01*
X36000Y24000D02*Y23840D01*
Y24000D02*X36138Y24080D01*
X36000Y24000D02*X35861Y24080D01*
X40000Y24000D02*Y23840D01*
Y24000D02*X40138Y24080D01*
X40000Y24000D02*X39861Y24080D01*
X24000Y25000D02*Y24840D01*
Y25000D02*X24138Y25080D01*
X24000Y25000D02*X23861Y25080D01*
X25000Y25000D02*Y24840D01*
Y25000D02*X25138Y25080D01*
X25000Y25000D02*X24861Y25080D01*
X23000Y25000D02*Y24840D01*
Y25000D02*X23138Y25080D01*
X23000Y25000D02*X22861Y25080D01*
X29000Y25000D02*Y24840D01*
Y25000D02*X29138Y25080D01*
X29000Y25000D02*X28861Y25080D01*
X28000Y25000D02*Y24840D01*
Y25000D02*X28138Y25080D01*
X28000Y25000D02*X27861Y25080D01*
X27000Y25000D02*Y24840D01*
Y25000D02*X27138Y25080D01*
X27000Y25000D02*X26861Y25080D01*
X26000Y25000D02*Y24840D01*
Y25000D02*X26138Y25080D01*
X26000Y25000D02*X25861Y25080D01*
X39000Y25000D02*Y24840D01*
Y25000D02*X39138Y25080D01*
X39000Y25000D02*X38861Y25080D01*
X38000Y25000D02*Y24840D01*
Y25000D02*X38138Y25080D01*
X38000Y25000D02*X37861Y25080D01*
X37000Y25000D02*Y24840D01*
Y25000D02*X37138Y25080D01*
X37000Y25000D02*X36861Y25080D01*
X35000Y25000D02*Y24840D01*
Y25000D02*X35138Y25080D01*
X35000Y25000D02*X34861Y25080D01*
X34000Y25000D02*Y24840D01*
Y25000D02*X34138Y25080D01*
X34000Y25000D02*X33861Y25080D01*
X33000Y25000D02*Y24840D01*
Y25000D02*X33138Y25080D01*
X33000Y25000D02*X32861Y25080D01*
X32000Y25000D02*Y24840D01*
Y25000D02*X32138Y25080D01*
X32000Y25000D02*X31861Y25080D01*
X30000Y25000D02*Y24840D01*
Y25000D02*X30138Y25080D01*
X30000Y25000D02*X29861Y25080D01*
X31000Y25000D02*Y24840D01*
Y25000D02*X31138Y25080D01*
X31000Y25000D02*X30861Y25080D01*
X36000Y25000D02*Y24840D01*
Y25000D02*X36138Y25080D01*
X36000Y25000D02*X35861Y25080D01*
X40000Y25000D02*Y24840D01*
Y25000D02*X40138Y25080D01*
X40000Y25000D02*X39861Y25080D01*
X24000Y26000D02*Y25840D01*
Y26000D02*X24138Y26080D01*
X24000Y26000D02*X23861Y26080D01*
X25000Y26000D02*Y25840D01*
Y26000D02*X25138Y26080D01*
X25000Y26000D02*X24861Y26080D01*
X23000Y26000D02*Y25840D01*
Y26000D02*X23138Y26080D01*
X23000Y26000D02*X22861Y26080D01*
X29000Y26000D02*Y25840D01*
Y26000D02*X29138Y26080D01*
X29000Y26000D02*X28861Y26080D01*
X28000Y26000D02*Y25840D01*
Y26000D02*X28138Y26080D01*
X28000Y26000D02*X27861Y26080D01*
X27000Y26000D02*Y25840D01*
Y26000D02*X27138Y26080D01*
X27000Y26000D02*X26861Y26080D01*
X26000Y26000D02*Y25840D01*
Y26000D02*X26138Y26080D01*
X26000Y26000D02*X25861Y26080D01*
X39000Y26000D02*Y25840D01*
Y26000D02*X39138Y26080D01*
X39000Y26000D02*X38861Y26080D01*
X38000Y26000D02*Y25840D01*
Y26000D02*X38138Y26080D01*
X38000Y26000D02*X37861Y26080D01*
X37000Y26000D02*Y25840D01*
Y26000D02*X37138Y26080D01*
X37000Y26000D02*X36861Y26080D01*
X35000Y26000D02*Y25840D01*
Y26000D02*X35138Y26080D01*
X35000Y26000D02*X34861Y26080D01*
X34000Y26000D02*Y25840D01*
Y26000D02*X34138Y26080D01*
X34000Y26000D02*X33861Y26080D01*
X33000Y26000D02*Y25840D01*
Y26000D02*X33138Y26080D01*
X33000Y26000D02*X32861Y26080D01*
X32000Y26000D02*Y25840D01*
Y26000D02*X32138Y26080D01*
X32000Y26000D02*X31861Y26080D01*
X30000Y26000D02*Y25840D01*
Y26000D02*X30138Y26080D01*
X30000Y26000D02*X29861Y26080D01*
X31000Y26000D02*Y25840D01*
Y26000D02*X31138Y26080D01*
X31000Y26000D02*X30861Y26080D01*
X36000Y26000D02*Y25840D01*
Y26000D02*X36138Y26080D01*
X36000Y26000D02*X35861Y26080D01*
X40000Y26000D02*Y25840D01*
Y26000D02*X40138Y26080D01*
X40000Y26000D02*X39861Y26080D01*
X24000Y27000D02*Y26840D01*
Y27000D02*X24138Y27080D01*
X24000Y27000D02*X23861Y27080D01*
X25000Y27000D02*Y26840D01*
Y27000D02*X25138Y27080D01*
X25000Y27000D02*X24861Y27080D01*
X23000Y27000D02*Y26840D01*
Y27000D02*X23138Y27080D01*
X23000Y27000D02*X22861Y27080D01*
X29000Y27000D02*Y26840D01*
Y27000D02*X29138Y27080D01*
X29000Y27000D02*X28861Y27080D01*
X28000Y27000D02*Y26840D01*
Y27000D02*X28138Y27080D01*
X28000Y27000D02*X27861Y27080D01*
X27000Y27000D02*Y26840D01*
Y27000D02*X27138Y27080D01*
X27000Y27000D02*X26861Y27080D01*
X26000Y27000D02*Y26840D01*
Y27000D02*X26138Y27080D01*
X26000Y27000D02*X25861Y27080D01*
X39000Y27000D02*Y26840D01*
Y27000D02*X39138Y27080D01*
X39000Y27000D02*X38861Y27080D01*
X38000Y27000D02*Y26840D01*
Y27000D02*X38138Y27080D01*
X38000Y27000D02*X37861Y27080D01*
X37000Y27000D02*Y26840D01*
Y27000D02*X37138Y27080D01*
X37000Y27000D02*X36861Y27080D01*
X35000Y27000D02*Y26840D01*
Y27000D02*X35138Y27080D01*
X35000Y27000D02*X34861Y27080D01*
X34000Y27000D02*Y26840D01*
Y27000D02*X34138Y27080D01*
X34000Y27000D02*X33861Y27080D01*
X33000Y27000D02*Y26840D01*
Y27000D02*X33138Y27080D01*
X33000Y27000D02*X32861Y27080D01*
X32000Y27000D02*Y26840D01*
Y27000D02*X32138Y27080D01*
X32000Y27000D02*X31861Y27080D01*
X30000Y27000D02*Y26840D01*
Y27000D02*X30138Y27080D01*
X30000Y27000D02*X29861Y27080D01*
X31000Y27000D02*Y26840D01*
Y27000D02*X31138Y27080D01*
X31000Y27000D02*X30861Y27080D01*
X36000Y27000D02*Y26840D01*
Y27000D02*X36138Y27080D01*
X36000Y27000D02*X35861Y27080D01*
X40000Y27000D02*Y26840D01*
Y27000D02*X40138Y27080D01*
X40000Y27000D02*X39861Y27080D01*
X24000Y28000D02*Y27840D01*
Y28000D02*X24138Y28080D01*
X24000Y28000D02*X23861Y28080D01*
X25000Y28000D02*Y27840D01*
Y28000D02*X25138Y28080D01*
X25000Y28000D02*X24861Y28080D01*
X23000Y28000D02*Y27840D01*
Y28000D02*X23138Y28080D01*
X23000Y28000D02*X22861Y28080D01*
X29000Y28000D02*Y27840D01*
Y28000D02*X29138Y28080D01*
X29000Y28000D02*X28861Y28080D01*
X28000Y28000D02*Y27840D01*
Y28000D02*X28138Y28080D01*
X28000Y28000D02*X27861Y28080D01*
X27000Y28000D02*Y27840D01*
Y28000D02*X27138Y28080D01*
X27000Y28000D02*X26861Y28080D01*
X26000Y28000D02*Y27840D01*
Y28000D02*X26138Y28080D01*
X26000Y28000D02*X25861Y28080D01*
X39000Y28000D02*Y27840D01*
Y28000D02*X39138Y28080D01*
X39000Y28000D02*X38861Y28080D01*
X38000Y28000D02*Y27840D01*
Y28000D02*X38138Y28080D01*
X38000Y28000D02*X37861Y28080D01*
X37000Y28000D02*Y27840D01*
Y28000D02*X37138Y28080D01*
X37000Y28000D02*X36861Y28080D01*
X35000Y28000D02*Y27840D01*
Y28000D02*X35138Y28080D01*
X35000Y28000D02*X34861Y28080D01*
X34000Y28000D02*Y27840D01*
Y28000D02*X34138Y28080D01*
X34000Y28000D02*X33861Y28080D01*
X33000Y28000D02*Y27840D01*
Y28000D02*X33138Y28080D01*
X33000Y28000D02*X32861Y28080D01*
X32000Y28000D02*Y27840D01*
Y28000D02*X32138Y28080D01*
X32000Y28000D02*X31861Y28080D01*
X30000Y28000D02*Y27840D01*
Y28000D02*X30138Y28080D01*
X30000Y28000D02*X29861Y28080D01*
X31000Y28000D02*Y27840D01*
Y28000D02*X31138Y28080D01*
X31000Y28000D02*X30861Y28080D01*
X36000Y28000D02*Y27840D01*
Y28000D02*X36138Y28080D01*
X36000Y28000D02*X35861Y28080D01*
X40000Y28000D02*Y27840D01*
Y28000D02*X40138Y28080D01*
X40000Y28000D02*X39861Y28080D01*
X24000Y29000D02*Y28840D01*
Y29000D02*X24138Y29080D01*
X24000Y29000D02*X23861Y29080D01*
X25000Y29000D02*Y28840D01*
Y29000D02*X25138Y29080D01*
X25000Y29000D02*X24861Y29080D01*
X23000Y29000D02*Y28840D01*
Y29000D02*X23138Y29080D01*
X23000Y29000D02*X22861Y29080D01*
X29000Y29000D02*Y28840D01*
Y29000D02*X29138Y29080D01*
X29000Y29000D02*X28861Y29080D01*
X28000Y29000D02*Y28840D01*
Y29000D02*X28138Y29080D01*
X28000Y29000D02*X27861Y29080D01*
X27000Y29000D02*Y28840D01*
Y29000D02*X27138Y29080D01*
X27000Y29000D02*X26861Y29080D01*
X26000Y29000D02*Y28840D01*
Y29000D02*X26138Y29080D01*
X26000Y29000D02*X25861Y29080D01*
X39000Y29000D02*Y28840D01*
Y29000D02*X39138Y29080D01*
X39000Y29000D02*X38861Y29080D01*
X38000Y29000D02*Y28840D01*
Y29000D02*X38138Y29080D01*
X38000Y29000D02*X37861Y29080D01*
X37000Y29000D02*Y28840D01*
Y29000D02*X37138Y29080D01*
X37000Y29000D02*X36861Y29080D01*
X35000Y29000D02*Y28840D01*
Y29000D02*X35138Y29080D01*
X35000Y29000D02*X34861Y29080D01*
X34000Y29000D02*Y28840D01*
Y29000D02*X34138Y29080D01*
X34000Y29000D02*X33861Y29080D01*
X33000Y29000D02*Y28840D01*
Y29000D02*X33138Y29080D01*
X33000Y29000D02*X32861Y29080D01*
X32000Y29000D02*Y28840D01*
Y29000D02*X32138Y29080D01*
X32000Y29000D02*X31861Y29080D01*
X30000Y29000D02*Y28840D01*
Y29000D02*X30138Y29080D01*
X30000Y29000D02*X29861Y29080D01*
X31000Y29000D02*Y28840D01*
Y29000D02*X31138Y29080D01*
X31000Y29000D02*X30861Y29080D01*
X36000Y29000D02*Y28840D01*
Y29000D02*X36138Y29080D01*
X36000Y29000D02*X35861Y29080D01*
X40000Y29000D02*Y28840D01*
Y29000D02*X40138Y29080D01*
X40000Y29000D02*X39861Y29080D01*
X24000Y30000D02*Y29840D01*
Y30000D02*X24138Y30080D01*
X24000Y30000D02*X23861Y30080D01*
X25000Y30000D02*Y29840D01*
Y30000D02*X25138Y30080D01*
X25000Y30000D02*X24861Y30080D01*
X23000Y30000D02*Y29840D01*
Y30000D02*X23138Y30080D01*
X23000Y30000D02*X22861Y30080D01*
X29000Y30000D02*Y29840D01*
Y30000D02*X29138Y30080D01*
X29000Y30000D02*X28861Y30080D01*
X28000Y30000D02*Y29840D01*
Y30000D02*X28138Y30080D01*
X28000Y30000D02*X27861Y30080D01*
X27000Y30000D02*Y29840D01*
Y30000D02*X27138Y30080D01*
X27000Y30000D02*X26861Y30080D01*
X26000Y30000D02*Y29840D01*
Y30000D02*X26138Y30080D01*
X26000Y30000D02*X25861Y30080D01*
X39000Y30000D02*Y29840D01*
Y30000D02*X39138Y30080D01*
X39000Y30000D02*X38861Y30080D01*
X38000Y30000D02*Y29840D01*
Y30000D02*X38138Y30080D01*
X38000Y30000D02*X37861Y30080D01*
X37000Y30000D02*Y29840D01*
Y30000D02*X37138Y30080D01*
X37000Y30000D02*X36861Y30080D01*
X35000Y30000D02*Y29840D01*
Y30000D02*X35138Y30080D01*
X35000Y30000D02*X34861Y30080D01*
X34000Y30000D02*Y29840D01*
Y30000D02*X34138Y30080D01*
X34000Y30000D02*X33861Y30080D01*
X33000Y30000D02*Y29840D01*
Y30000D02*X33138Y30080D01*
X33000Y30000D02*X32861Y30080D01*
X32000Y30000D02*Y29840D01*
Y30000D02*X32138Y30080D01*
X32000Y30000D02*X31861Y30080D01*
X30000Y30000D02*Y29840D01*
Y30000D02*X30138Y30080D01*
X30000Y30000D02*X29861Y30080D01*
X31000Y30000D02*Y29840D01*
Y30000D02*X31138Y30080D01*
X31000Y30000D02*X30861Y30080D01*
X36000Y30000D02*Y29840D01*
Y30000D02*X36138Y30080D01*
X36000Y30000D02*X35861Y30080D01*
X40000Y30000D02*Y29840D01*
Y30000D02*X40138Y30080D01*
X40000Y30000D02*X39861Y30080D01*
X40000Y44000D02*Y43840D01*
Y44000D02*X40138Y44080D01*
X40000Y44000D02*X39861Y44080D01*
X39000Y44000D02*Y43840D01*
Y44000D02*X39138Y44080D01*
X39000Y44000D02*X38861Y44080D01*
X38000Y44000D02*Y43840D01*
Y44000D02*X38138Y44080D01*
X38000Y44000D02*X37861Y44080D01*
X37000Y44000D02*Y43840D01*
Y44000D02*X37138Y44080D01*
X37000Y44000D02*X36861Y44080D01*
X36000Y44000D02*Y43840D01*
Y44000D02*X36138Y44080D01*
X36000Y44000D02*X35861Y44080D01*
X35000Y44000D02*Y43840D01*
Y44000D02*X35138Y44080D01*
X35000Y44000D02*X34861Y44080D01*
X34000Y44000D02*Y43840D01*
Y44000D02*X34138Y44080D01*
X34000Y44000D02*X33861Y44080D01*
X40000Y43000D02*Y42840D01*
Y43000D02*X40138Y43080D01*
X40000Y43000D02*X39861Y43080D01*
X39000Y43000D02*Y42840D01*
Y43000D02*X39138Y43080D01*
X39000Y43000D02*X38861Y43080D01*
X38000Y43000D02*Y42840D01*
Y43000D02*X38138Y43080D01*
X38000Y43000D02*X37861Y43080D01*
X37000Y43000D02*Y42840D01*
Y43000D02*X37138Y43080D01*
X37000Y43000D02*X36861Y43080D01*
X36000Y43000D02*Y42840D01*
Y43000D02*X36138Y43080D01*
X36000Y43000D02*X35861Y43080D01*
X35000Y43000D02*Y42840D01*
Y43000D02*X35138Y43080D01*
X35000Y43000D02*X34861Y43080D01*
X34000Y43000D02*Y42840D01*
Y43000D02*X34138Y43080D01*
X34000Y43000D02*X33861Y43080D01*
X40000Y42000D02*Y41840D01*
Y42000D02*X40138Y42080D01*
X40000Y42000D02*X39861Y42080D01*
X39000Y42000D02*Y41840D01*
Y42000D02*X39138Y42080D01*
X39000Y42000D02*X38861Y42080D01*
X38000Y42000D02*Y41840D01*
Y42000D02*X38138Y42080D01*
X38000Y42000D02*X37861Y42080D01*
X37000Y42000D02*Y41840D01*
Y42000D02*X37138Y42080D01*
X37000Y42000D02*X36861Y42080D01*
X36000Y42000D02*Y41840D01*
Y42000D02*X36138Y42080D01*
X36000Y42000D02*X35861Y42080D01*
X35000Y42000D02*Y41840D01*
Y42000D02*X35138Y42080D01*
X35000Y42000D02*X34861Y42080D01*
X34000Y42000D02*Y41840D01*
Y42000D02*X34138Y42080D01*
X34000Y42000D02*X33861Y42080D01*
X40000Y41000D02*Y40840D01*
Y41000D02*X40138Y41080D01*
X40000Y41000D02*X39861Y41080D01*
X39000Y41000D02*Y40840D01*
Y41000D02*X39138Y41080D01*
X39000Y41000D02*X38861Y41080D01*
X38000Y41000D02*Y40840D01*
Y41000D02*X38138Y41080D01*
X38000Y41000D02*X37861Y41080D01*
X37000Y41000D02*Y40840D01*
Y41000D02*X37138Y41080D01*
X37000Y41000D02*X36861Y41080D01*
X36000Y41000D02*Y40840D01*
Y41000D02*X36138Y41080D01*
X36000Y41000D02*X35861Y41080D01*
X35000Y41000D02*Y40840D01*
Y41000D02*X35138Y41080D01*
X35000Y41000D02*X34861Y41080D01*
X34000Y41000D02*Y40840D01*
Y41000D02*X34138Y41080D01*
X34000Y41000D02*X33861Y41080D01*
X40000Y40000D02*Y39840D01*
Y40000D02*X40138Y40080D01*
X40000Y40000D02*X39861Y40080D01*
X39000Y40000D02*Y39840D01*
Y40000D02*X39138Y40080D01*
X39000Y40000D02*X38861Y40080D01*
X38000Y40000D02*Y39840D01*
Y40000D02*X38138Y40080D01*
X38000Y40000D02*X37861Y40080D01*
X37000Y40000D02*Y39840D01*
Y40000D02*X37138Y40080D01*
X37000Y40000D02*X36861Y40080D01*
X36000Y40000D02*Y39840D01*
Y40000D02*X36138Y40080D01*
X36000Y40000D02*X35861Y40080D01*
X35000Y40000D02*Y39840D01*
Y40000D02*X35138Y40080D01*
X35000Y40000D02*X34861Y40080D01*
X34000Y40000D02*Y39840D01*
Y40000D02*X34138Y40080D01*
X34000Y40000D02*X33861Y40080D01*
X40000Y39000D02*Y38840D01*
Y39000D02*X40138Y39080D01*
X40000Y39000D02*X39861Y39080D01*
X39000Y39000D02*Y38840D01*
Y39000D02*X39138Y39080D01*
X39000Y39000D02*X38861Y39080D01*
X38000Y39000D02*Y38840D01*
Y39000D02*X38138Y39080D01*
X38000Y39000D02*X37861Y39080D01*
X37000Y39000D02*Y38840D01*
Y39000D02*X37138Y39080D01*
X37000Y39000D02*X36861Y39080D01*
X36000Y39000D02*Y38840D01*
Y39000D02*X36138Y39080D01*
X36000Y39000D02*X35861Y39080D01*
X35000Y39000D02*Y38840D01*
Y39000D02*X35138Y39080D01*
X35000Y39000D02*X34861Y39080D01*
X34000Y39000D02*Y38840D01*
Y39000D02*X34138Y39080D01*
X34000Y39000D02*X33861Y39080D01*
X40000Y37000D02*Y36840D01*
Y37000D02*X40138Y37080D01*
X40000Y37000D02*X39861Y37080D01*
X39000Y37000D02*Y36840D01*
Y37000D02*X39138Y37080D01*
X39000Y37000D02*X38861Y37080D01*
X38000Y37000D02*Y36840D01*
Y37000D02*X38138Y37080D01*
X38000Y37000D02*X37861Y37080D01*
X37000Y37000D02*Y36840D01*
Y37000D02*X37138Y37080D01*
X37000Y37000D02*X36861Y37080D01*
X36000Y37000D02*Y36840D01*
Y37000D02*X36138Y37080D01*
X36000Y37000D02*X35861Y37080D01*
X35000Y37000D02*Y36840D01*
Y37000D02*X35138Y37080D01*
X35000Y37000D02*X34861Y37080D01*
X34000Y37000D02*Y36840D01*
Y37000D02*X34138Y37080D01*
X34000Y37000D02*X33861Y37080D01*
X40000Y36000D02*Y35840D01*
Y36000D02*X40138Y36080D01*
X40000Y36000D02*X39861Y36080D01*
X39000Y36000D02*Y35840D01*
Y36000D02*X39138Y36080D01*
X39000Y36000D02*X38861Y36080D01*
X38000Y36000D02*Y35840D01*
Y36000D02*X38138Y36080D01*
X38000Y36000D02*X37861Y36080D01*
X37000Y36000D02*Y35840D01*
Y36000D02*X37138Y36080D01*
X37000Y36000D02*X36861Y36080D01*
X36000Y36000D02*Y35840D01*
Y36000D02*X36138Y36080D01*
X36000Y36000D02*X35861Y36080D01*
X35000Y36000D02*Y35840D01*
Y36000D02*X35138Y36080D01*
X35000Y36000D02*X34861Y36080D01*
X34000Y36000D02*Y35840D01*
Y36000D02*X34138Y36080D01*
X34000Y36000D02*X33861Y36080D01*
X40000Y35000D02*Y34840D01*
Y35000D02*X40138Y35080D01*
X40000Y35000D02*X39861Y35080D01*
X39000Y35000D02*Y34840D01*
Y35000D02*X39138Y35080D01*
X39000Y35000D02*X38861Y35080D01*
X38000Y35000D02*Y34840D01*
Y35000D02*X38138Y35080D01*
X38000Y35000D02*X37861Y35080D01*
X37000Y35000D02*Y34840D01*
Y35000D02*X37138Y35080D01*
X37000Y35000D02*X36861Y35080D01*
X36000Y35000D02*Y34840D01*
Y35000D02*X36138Y35080D01*
X36000Y35000D02*X35861Y35080D01*
X35000Y35000D02*Y34840D01*
Y35000D02*X35138Y35080D01*
X35000Y35000D02*X34861Y35080D01*
X34000Y35000D02*Y34840D01*
Y35000D02*X34138Y35080D01*
X34000Y35000D02*X33861Y35080D01*
X40000Y34000D02*Y33840D01*
Y34000D02*X40138Y34080D01*
X40000Y34000D02*X39861Y34080D01*
X39000Y34000D02*Y33840D01*
Y34000D02*X39138Y34080D01*
X39000Y34000D02*X38861Y34080D01*
X38000Y34000D02*Y33840D01*
Y34000D02*X38138Y34080D01*
X38000Y34000D02*X37861Y34080D01*
X37000Y34000D02*Y33840D01*
Y34000D02*X37138Y34080D01*
X37000Y34000D02*X36861Y34080D01*
X36000Y34000D02*Y33840D01*
Y34000D02*X36138Y34080D01*
X36000Y34000D02*X35861Y34080D01*
X35000Y34000D02*Y33840D01*
Y34000D02*X35138Y34080D01*
X35000Y34000D02*X34861Y34080D01*
X34000Y34000D02*Y33840D01*
Y34000D02*X34138Y34080D01*
X34000Y34000D02*X33861Y34080D01*
X40000Y33000D02*Y32840D01*
Y33000D02*X40138Y33080D01*
X40000Y33000D02*X39861Y33080D01*
X39000Y33000D02*Y32840D01*
Y33000D02*X39138Y33080D01*
X39000Y33000D02*X38861Y33080D01*
X38000Y33000D02*Y32840D01*
Y33000D02*X38138Y33080D01*
X38000Y33000D02*X37861Y33080D01*
X37000Y33000D02*Y32840D01*
Y33000D02*X37138Y33080D01*
X37000Y33000D02*X36861Y33080D01*
X36000Y33000D02*Y32840D01*
Y33000D02*X36138Y33080D01*
X36000Y33000D02*X35861Y33080D01*
X35000Y33000D02*Y32840D01*
Y33000D02*X35138Y33080D01*
X35000Y33000D02*X34861Y33080D01*
X34000Y33000D02*Y32840D01*
Y33000D02*X34138Y33080D01*
X34000Y33000D02*X33861Y33080D01*
X40000Y32000D02*Y31840D01*
Y32000D02*X40138Y32080D01*
X40000Y32000D02*X39861Y32080D01*
X39000Y32000D02*Y31840D01*
Y32000D02*X39138Y32080D01*
X39000Y32000D02*X38861Y32080D01*
X38000Y32000D02*Y31840D01*
Y32000D02*X38138Y32080D01*
X38000Y32000D02*X37861Y32080D01*
X37000Y32000D02*Y31840D01*
Y32000D02*X37138Y32080D01*
X37000Y32000D02*X36861Y32080D01*
X36000Y32000D02*Y31840D01*
Y32000D02*X36138Y32080D01*
X36000Y32000D02*X35861Y32080D01*
X35000Y32000D02*Y31840D01*
Y32000D02*X35138Y32080D01*
X35000Y32000D02*X34861Y32080D01*
X41000Y38000D02*Y37840D01*
Y38000D02*X41138Y38080D01*
X41000Y38000D02*X40861Y38080D01*
X34000Y32000D02*Y31840D01*
Y32000D02*X34138Y32080D01*
X34000Y32000D02*X33861Y32080D01*
X38500Y11500D02*Y11340D01*
Y11500D02*X38638Y11580D01*
X38500Y11500D02*X38361Y11580D01*
X38000Y10500D02*Y10340D01*
Y10500D02*X38138Y10580D01*
X38000Y10500D02*X37861Y10580D01*
X36500Y11500D02*Y11340D01*
Y11500D02*X36638Y11580D01*
X36500Y11500D02*X36361Y11580D01*
X36000Y10500D02*Y10340D01*
Y10500D02*X36138Y10580D01*
X36000Y10500D02*X35861Y10580D01*
X37000Y10500D02*Y10340D01*
Y10500D02*X37138Y10580D01*
X37000Y10500D02*X36861Y10580D01*
X35000Y10500D02*Y10340D01*
Y10500D02*X35138Y10580D01*
X35000Y10500D02*X34861Y10580D01*
X35500Y11500D02*Y11340D01*
Y11500D02*X35638Y11580D01*
X35500Y11500D02*X35361Y11580D01*
X37500Y11500D02*Y11340D01*
Y11500D02*X37638Y11580D01*
X37500Y11500D02*X37361Y11580D01*
X28500Y11500D02*Y11340D01*
Y11500D02*X28638Y11580D01*
X28500Y11500D02*X28361Y11580D01*
X28000Y10500D02*Y10340D01*
Y10500D02*X28138Y10580D01*
X28000Y10500D02*X27861Y10580D01*
X26500Y11500D02*Y11340D01*
Y11500D02*X26638Y11580D01*
X26500Y11500D02*X26361Y11580D01*
X26000Y10500D02*Y10340D01*
Y10500D02*X26138Y10580D01*
X26000Y10500D02*X25861Y10580D01*
X27000Y10500D02*Y10340D01*
Y10500D02*X27138Y10580D01*
X27000Y10500D02*X26861Y10580D01*
X25000Y10500D02*Y10340D01*
Y10500D02*X25138Y10580D01*
X25000Y10500D02*X24861Y10580D01*
X25500Y11500D02*Y11340D01*
Y11500D02*X25638Y11580D01*
X25500Y11500D02*X25361Y11580D01*
X27500Y11500D02*Y11340D01*
Y11500D02*X27638Y11580D01*
X27500Y11500D02*X27361Y11580D01*
X18500Y11500D02*Y11340D01*
Y11500D02*X18638Y11580D01*
X18500Y11500D02*X18361Y11580D01*
X18000Y10500D02*Y10340D01*
Y10500D02*X18138Y10580D01*
X18000Y10500D02*X17861Y10580D01*
X16500Y11500D02*Y11340D01*
Y11500D02*X16638Y11580D01*
X16500Y11500D02*X16361Y11580D01*
X16000Y10500D02*Y10340D01*
Y10500D02*X16138Y10580D01*
X16000Y10500D02*X15861Y10580D01*
X17000Y10500D02*Y10340D01*
Y10500D02*X17138Y10580D01*
X17000Y10500D02*X16861Y10580D01*
X15000Y10500D02*Y10340D01*
Y10500D02*X15138Y10580D01*
X15000Y10500D02*X14861Y10580D01*
X15500Y11500D02*Y11340D01*
Y11500D02*X15638Y11580D01*
X15500Y11500D02*X15361Y11580D01*
X17500Y11500D02*Y11340D01*
Y11500D02*X17638Y11580D01*
X17500Y11500D02*X17361Y11580D01*
X33000Y37000D02*Y36840D01*
Y37000D02*X33138Y37080D01*
X33000Y37000D02*X32861Y37080D01*
X33000Y36000D02*Y35840D01*
Y36000D02*X33138Y36080D01*
X33000Y36000D02*X32861Y36080D01*
X33000Y35000D02*Y34840D01*
Y35000D02*X33138Y35080D01*
X33000Y35000D02*X32861Y35080D01*
X33000Y34000D02*Y33840D01*
Y34000D02*X33138Y34080D01*
X33000Y34000D02*X32861Y34080D01*
X33000Y33000D02*Y32840D01*
Y33000D02*X33138Y33080D01*
X33000Y33000D02*X32861Y33080D01*
X33000Y32000D02*Y31840D01*
Y32000D02*X33138Y32080D01*
X33000Y32000D02*X32861Y32080D01*
X33000Y44000D02*Y43840D01*
Y44000D02*X33138Y44080D01*
X33000Y44000D02*X32861Y44080D01*
X33000Y43000D02*Y42840D01*
Y43000D02*X33138Y43080D01*
X33000Y43000D02*X32861Y43080D01*
X33000Y42000D02*Y41840D01*
Y42000D02*X33138Y42080D01*
X33000Y42000D02*X32861Y42080D01*
X33000Y41000D02*Y40840D01*
Y41000D02*X33138Y41080D01*
X33000Y41000D02*X32861Y41080D01*
X33000Y40000D02*Y39840D01*
Y40000D02*X33138Y40080D01*
X33000Y40000D02*X32861Y40080D01*
X33000Y39000D02*Y38840D01*
Y39000D02*X33138Y39080D01*
X33000Y39000D02*X32861Y39080D01*
X13000Y47500D02*Y47340D01*
Y47500D02*X13138Y47580D01*
X13000Y47500D02*X12861Y47580D01*
X13000Y46500D02*Y46340D01*
Y46500D02*X13138Y46580D01*
X13000Y46500D02*X12861Y46580D01*
X13000Y45500D02*Y45340D01*
Y45500D02*X13138Y45580D01*
X13000Y45500D02*X12861Y45580D01*
X13000Y44500D02*Y44340D01*
Y44500D02*X13138Y44580D01*
X13000Y44500D02*X12861Y44580D01*
X13000Y43500D02*Y43340D01*
Y43500D02*X13138Y43580D01*
X13000Y43500D02*X12861Y43580D01*
X13000Y42500D02*Y42340D01*
Y42500D02*X13138Y42580D01*
X13000Y42500D02*X12861Y42580D01*
X13000Y41500D02*Y41340D01*
Y41500D02*X13138Y41580D01*
X13000Y41500D02*X12861Y41580D01*
X13000Y40500D02*Y40340D01*
Y40500D02*X13138Y40580D01*
X13000Y40500D02*X12861Y40580D01*
X13000Y39000D02*Y38840D01*
Y39000D02*X13138Y39080D01*
X13000Y39000D02*X12861Y39080D01*
X13000Y38000D02*Y37840D01*
Y38000D02*X13138Y38080D01*
X13000Y38000D02*X12861Y38080D01*
X13000Y37000D02*Y36840D01*
Y37000D02*X13138Y37080D01*
X13000Y37000D02*X12861Y37080D01*
X13000Y34000D02*Y33840D01*
Y34000D02*X13138Y34080D01*
X13000Y34000D02*X12861Y34080D01*
X13000Y35000D02*Y34840D01*
Y35000D02*X13138Y35080D01*
X13000Y35000D02*X12861Y35080D01*
X13000Y36000D02*Y35840D01*
Y36000D02*X13138Y36080D01*
X13000Y36000D02*X12861Y36080D01*
X13000Y33000D02*Y32840D01*
Y33000D02*X13138Y33080D01*
X13000Y33000D02*X12861Y33080D01*
X13000Y32000D02*Y31840D01*
Y32000D02*X13138Y32080D01*
X13000Y32000D02*X12861Y32080D01*
X32000Y32000D02*Y31840D01*
Y32000D02*X32138Y32080D01*
X32000Y32000D02*X31861Y32080D01*
X32000Y33000D02*Y32840D01*
Y33000D02*X32138Y33080D01*
X32000Y33000D02*X31861Y33080D01*
X32000Y34000D02*Y33840D01*
Y34000D02*X32138Y34080D01*
X32000Y34000D02*X31861Y34080D01*
X32000Y35000D02*Y34840D01*
Y35000D02*X32138Y35080D01*
X32000Y35000D02*X31861Y35080D01*
X32000Y36000D02*Y35840D01*
Y36000D02*X32138Y36080D01*
X32000Y36000D02*X31861Y36080D01*
X32000Y37000D02*Y36840D01*
Y37000D02*X32138Y37080D01*
X32000Y37000D02*X31861Y37080D01*
X32000Y39000D02*Y38840D01*
Y39000D02*X32138Y39080D01*
X32000Y39000D02*X31861Y39080D01*
X32000Y40000D02*Y39840D01*
Y40000D02*X32138Y40080D01*
X32000Y40000D02*X31861Y40080D01*
X32000Y41000D02*Y40840D01*
Y41000D02*X32138Y41080D01*
X32000Y41000D02*X31861Y41080D01*
X32000Y42000D02*Y41840D01*
Y42000D02*X32138Y42080D01*
X32000Y42000D02*X31861Y42080D01*
X32000Y43000D02*Y42840D01*
Y43000D02*X32138Y43080D01*
X32000Y43000D02*X31861Y43080D01*
X32000Y44000D02*Y43840D01*
Y44000D02*X32138Y44080D01*
X32000Y44000D02*X31861Y44080D01*
X12000Y39000D02*Y38840D01*
Y39000D02*X12138Y39080D01*
X12000Y39000D02*X11861Y39080D01*
X12000Y38000D02*Y37840D01*
Y38000D02*X12138Y38080D01*
X12000Y38000D02*X11861Y38080D01*
X12000Y37000D02*Y36840D01*
Y37000D02*X12138Y37080D01*
X12000Y37000D02*X11861Y37080D01*
X12000Y36000D02*Y35840D01*
Y36000D02*X12138Y36080D01*
X12000Y36000D02*X11861Y36080D01*
X12000Y35000D02*Y34840D01*
Y35000D02*X12138Y35080D01*
X12000Y35000D02*X11861Y35080D01*
X12000Y34000D02*Y33840D01*
Y34000D02*X12138Y34080D01*
X12000Y34000D02*X11861Y34080D01*
X12000Y33000D02*Y32840D01*
Y33000D02*X12138Y33080D01*
X12000Y33000D02*X11861Y33080D01*
X12000Y32000D02*Y31840D01*
Y32000D02*X12138Y32080D01*
X12000Y32000D02*X11861Y32080D01*
X8500Y11500D02*Y11340D01*
Y11500D02*X8638Y11580D01*
X8500Y11500D02*X8361Y11580D01*
X8000Y10500D02*Y10340D01*
Y10500D02*X8138Y10580D01*
X8000Y10500D02*X7861Y10580D01*
X6500Y11500D02*Y11340D01*
Y11500D02*X6638Y11580D01*
X6500Y11500D02*X6361Y11580D01*
X6000Y10500D02*Y10340D01*
Y10500D02*X6138Y10580D01*
X6000Y10500D02*X5861Y10580D01*
X7000Y10500D02*Y10340D01*
Y10500D02*X7138Y10580D01*
X7000Y10500D02*X6861Y10580D01*
X5000Y10500D02*Y10340D01*
Y10500D02*X5138Y10580D01*
X5000Y10500D02*X4861Y10580D01*
X5500Y11500D02*Y11340D01*
Y11500D02*X5638Y11580D01*
X5500Y11500D02*X5361Y11580D01*
X7500Y11500D02*Y11340D01*
Y11500D02*X7638Y11580D01*
X7500Y11500D02*X7361Y11580D01*
X1500Y70625D02*Y70465D01*
Y70625D02*X1638Y70705D01*
X1500Y70625D02*X1361Y70705D01*
X13500Y70850D02*Y70775D01*
X13650Y70625D01*
X13800Y70775D01*
Y70850D02*Y70775D01*
X13650Y70625D02*Y70250D01*
X13980Y70550D02*X14205D01*
X13980Y70250D02*X14280D01*
X13980Y70850D02*Y70250D01*
Y70850D02*X14280D01*
X14760D02*X14835Y70775D01*
X14535Y70850D02*X14760D01*
X14460Y70775D02*X14535Y70850D01*
X14460Y70775D02*Y70625D01*
X14535Y70550D01*
X14760D01*
X14835Y70475D01*
Y70325D01*
X14760Y70250D02*X14835Y70325D01*
X14535Y70250D02*X14760D01*
X14460Y70325D02*X14535Y70250D01*
X13500Y69924D02*X15015D01*
X9800Y70250D02*X10100Y70550D01*
Y70775D02*Y70550D01*
X10025Y70850D02*X10100Y70775D01*
X9875Y70850D02*X10025D01*
X9800Y70775D02*X9875Y70850D01*
X9800Y70775D02*Y70625D01*
X9875Y70550D01*
X10100D01*
X10280D02*X10580Y70850D01*
X10280Y70550D02*X10655D01*
X10580Y70850D02*Y70250D01*
X10835Y70775D02*X10910Y70850D01*
X11135D01*
X11210Y70775D01*
Y70625D01*
X10835Y70250D02*X11210Y70625D01*
X10835Y70250D02*X11210D01*
X9800Y69924D02*X11390D01*
X4500Y70325D02*X4575Y70250D01*
X4500Y70775D02*Y70325D01*
Y70775D02*X4575Y70850D01*
X4725D01*
X4800Y70775D01*
Y70325D01*
X4725Y70250D02*X4800Y70325D01*
X4575Y70250D02*X4725D01*
X4500Y70400D02*X4800Y70700D01*
X4980Y70250D02*X5055D01*
X5235Y70325D02*X5310Y70250D01*
X5235Y70775D02*Y70325D01*
Y70775D02*X5310Y70850D01*
X5460D01*
X5535Y70775D01*
Y70325D01*
X5460Y70250D02*X5535Y70325D01*
X5310Y70250D02*X5460D01*
X5235Y70400D02*X5535Y70700D01*
X5715Y70775D02*X5790Y70850D01*
X5940D01*
X6015Y70775D01*
Y70325D01*
X5940Y70250D02*X6015Y70325D01*
X5790Y70250D02*X5940D01*
X5715Y70325D02*X5790Y70250D01*
Y70550D02*X6015D01*
X6195Y70850D02*X6495D01*
X6195D02*Y70550D01*
X6270Y70625D01*
X6420D01*
X6495Y70550D01*
Y70325D01*
X6420Y70250D02*X6495Y70325D01*
X6270Y70250D02*X6420D01*
X6195Y70325D02*X6270Y70250D01*
X4500Y69924D02*X6675D01*
X300Y72350D02*X375Y72275D01*
X75Y72350D02*X300D01*
X0Y72275D02*X75Y72350D01*
X0Y72275D02*Y72125D01*
X75Y72050D01*
X300D01*
X375Y71975D01*
Y71825D01*
X300Y71750D02*X375Y71825D01*
X75Y71750D02*X300D01*
X0Y71825D02*X75Y71750D01*
X555Y72050D02*Y71825D01*
X630Y71750D01*
X855Y72050D02*Y71600D01*
X780Y71525D02*X855Y71600D01*
X630Y71525D02*X780D01*
X555Y71600D02*X630Y71525D01*
Y71750D02*X780D01*
X855Y71825D01*
X1110Y71975D02*Y71750D01*
Y71975D02*X1185Y72050D01*
X1260D01*
X1335Y71975D01*
Y71750D01*
Y71975D02*X1410Y72050D01*
X1485D01*
X1560Y71975D01*
Y71750D01*
X1035Y72050D02*X1110Y71975D01*
X1740Y72350D02*Y71750D01*
Y71825D02*X1815Y71750D01*
X1965D01*
X2040Y71825D01*
Y71975D02*Y71825D01*
X1965Y72050D02*X2040Y71975D01*
X1815Y72050D02*X1965D01*
X1740Y71975D02*X1815Y72050D01*
X2220Y71975D02*Y71825D01*
Y71975D02*X2295Y72050D01*
X2445D01*
X2520Y71975D01*
Y71825D01*
X2445Y71750D02*X2520Y71825D01*
X2295Y71750D02*X2445D01*
X2220Y71825D02*X2295Y71750D01*
X2700Y72350D02*Y71825D01*
X2775Y71750D01*
X4175Y72350D02*Y71750D01*
X4400Y72350D02*X4475Y72275D01*
Y71825D01*
X4400Y71750D02*X4475Y71825D01*
X4100Y71750D02*X4400D01*
X4100Y72350D02*X4400D01*
X4655Y72200D02*Y72125D01*
Y71975D02*Y71750D01*
X5030Y72050D02*X5105Y71975D01*
X4880Y72050D02*X5030D01*
X4805Y71975D02*X4880Y72050D01*
X4805Y71975D02*Y71825D01*
X4880Y71750D01*
X5105Y72050D02*Y71825D01*
X5180Y71750D01*
X4880D02*X5030D01*
X5105Y71825D01*
X5435Y71975D02*Y71750D01*
Y71975D02*X5510Y72050D01*
X5585D01*
X5660Y71975D01*
Y71750D01*
Y71975D02*X5735Y72050D01*
X5810D01*
X5885Y71975D01*
Y71750D01*
X5360Y72050D02*X5435Y71975D01*
X6065Y71750D02*X6140D01*
X6590Y71825D02*X6665Y71750D01*
X6590Y72275D02*X6665Y72350D01*
X6590Y72275D02*Y71825D01*
X6845Y72350D02*X6995D01*
X6920D02*Y71750D01*
X6845D02*X6995D01*
X7251Y71975D02*Y71750D01*
Y71975D02*X7326Y72050D01*
X7401D01*
X7476Y71975D01*
Y71750D01*
X7176Y72050D02*X7251Y71975D01*
X7731Y72050D02*X7956D01*
X7656Y71975D02*X7731Y72050D01*
X7656Y71975D02*Y71825D01*
X7731Y71750D01*
X7956D01*
X8136Y72350D02*Y71750D01*
Y71975D02*X8211Y72050D01*
X8361D01*
X8436Y71975D01*
Y71750D01*
X8616Y72350D02*X8691Y72275D01*
Y71825D01*
X8616Y71750D02*X8691Y71825D01*
X9575Y71750D02*X9800D01*
X9500Y71825D02*X9575Y71750D01*
X9500Y72275D02*Y71825D01*
Y72275D02*X9575Y72350D01*
X9800D01*
X9980Y71975D02*Y71825D01*
Y71975D02*X10055Y72050D01*
X10205D01*
X10280Y71975D01*
Y71825D01*
X10205Y71750D02*X10280Y71825D01*
X10055Y71750D02*X10205D01*
X9980Y71825D02*X10055Y71750D01*
X10460Y72050D02*Y71825D01*
X10535Y71750D01*
X10685D01*
X10760Y71825D01*
Y72050D02*Y71825D01*
X11015Y71975D02*Y71750D01*
Y71975D02*X11090Y72050D01*
X11165D01*
X11240Y71975D01*
Y71750D01*
X10940Y72050D02*X11015Y71975D01*
X11495Y72350D02*Y71825D01*
X11570Y71750D01*
X11420Y72125D02*X11570D01*
X13075Y72350D02*Y71750D01*
X13000Y72350D02*X13300D01*
X13375Y72275D01*
Y72125D01*
X13300Y72050D02*X13375Y72125D01*
X13075Y72050D02*X13300D01*
X13555Y72350D02*Y71825D01*
X13630Y71750D01*
X14005Y72050D02*X14080Y71975D01*
X13855Y72050D02*X14005D01*
X13780Y71975D02*X13855Y72050D01*
X13780Y71975D02*Y71825D01*
X13855Y71750D01*
X14080Y72050D02*Y71825D01*
X14155Y71750D01*
X13855D02*X14005D01*
X14080Y71825D01*
X14410Y72350D02*Y71825D01*
X14485Y71750D01*
X14335Y72125D02*X14485D01*
X14710Y71750D02*X14935D01*
X14635Y71825D02*X14710Y71750D01*
X14635Y71975D02*Y71825D01*
Y71975D02*X14710Y72050D01*
X14860D01*
X14935Y71975D01*
X14635Y71900D02*X14935D01*
Y71975D02*Y71900D01*
X15415Y72350D02*Y71750D01*
X15340D02*X15415Y71825D01*
X15190Y71750D02*X15340D01*
X15115Y71825D02*X15190Y71750D01*
X15115Y71975D02*Y71825D01*
Y71975D02*X15190Y72050D01*
X15340D01*
X15415Y71975D01*
X15745Y72050D02*Y71975D01*
Y71825D02*Y71750D01*
X15595Y72275D02*Y72200D01*
Y72275D02*X15670Y72350D01*
X15820D01*
X15895Y72275D01*
Y72200D01*
X15745Y72050D02*X15895Y72200D01*
X0Y73850D02*X300D01*
X150D02*Y73250D01*
X480Y73850D02*Y73250D01*
Y73475D02*X555Y73550D01*
X705D01*
X780Y73475D01*
Y73250D01*
X1035D02*X1260D01*
X960Y73325D02*X1035Y73250D01*
X960Y73475D02*Y73325D01*
Y73475D02*X1035Y73550D01*
X1185D01*
X1260Y73475D01*
X960Y73400D02*X1260D01*
Y73475D02*Y73400D01*
X1515Y73475D02*Y73250D01*
Y73475D02*X1590Y73550D01*
X1740D01*
X1440D02*X1515Y73475D01*
X1995Y73250D02*X2220D01*
X1920Y73325D02*X1995Y73250D01*
X1920Y73475D02*Y73325D01*
Y73475D02*X1995Y73550D01*
X2145D01*
X2220Y73475D01*
X1920Y73400D02*X2220D01*
Y73475D02*Y73400D01*
X2895Y73550D02*X2970Y73475D01*
X2745Y73550D02*X2895D01*
X2670Y73475D02*X2745Y73550D01*
X2670Y73475D02*Y73325D01*
X2745Y73250D01*
X2970Y73550D02*Y73325D01*
X3045Y73250D01*
X2745D02*X2895D01*
X2970Y73325D01*
X3300Y73475D02*Y73250D01*
Y73475D02*X3375Y73550D01*
X3525D01*
X3225D02*X3300Y73475D01*
X3781Y73250D02*X4006D01*
X3706Y73325D02*X3781Y73250D01*
X3706Y73475D02*Y73325D01*
Y73475D02*X3781Y73550D01*
X3931D01*
X4006Y73475D01*
X3706Y73400D02*X4006D01*
Y73475D02*Y73400D01*
X4456Y73775D02*X4531Y73850D01*
X4681D01*
X4756Y73775D01*
Y73325D01*
X4681Y73250D02*X4756Y73325D01*
X4531Y73250D02*X4681D01*
X4456Y73325D02*X4531Y73250D01*
Y73550D02*X4756D01*
X5506Y73850D02*Y73250D01*
X5431D02*X5506Y73325D01*
X5281Y73250D02*X5431D01*
X5206Y73325D02*X5281Y73250D01*
X5206Y73475D02*Y73325D01*
Y73475D02*X5281Y73550D01*
X5431D01*
X5506Y73475D01*
X5686Y73700D02*Y73625D01*
Y73475D02*Y73250D01*
X5911Y73775D02*Y73250D01*
Y73775D02*X5986Y73850D01*
X6061D01*
X5836Y73550D02*X5986D01*
X6286Y73775D02*Y73250D01*
Y73775D02*X6361Y73850D01*
X6436D01*
X6211Y73550D02*X6361D01*
X6661Y73250D02*X6886D01*
X6586Y73325D02*X6661Y73250D01*
X6586Y73475D02*Y73325D01*
Y73475D02*X6661Y73550D01*
X6811D01*
X6886Y73475D01*
X6586Y73400D02*X6886D01*
Y73475D02*Y73400D01*
X7142Y73475D02*Y73250D01*
Y73475D02*X7217Y73550D01*
X7367D01*
X7067D02*X7142Y73475D01*
X7622Y73250D02*X7847D01*
X7547Y73325D02*X7622Y73250D01*
X7547Y73475D02*Y73325D01*
Y73475D02*X7622Y73550D01*
X7772D01*
X7847Y73475D01*
X7547Y73400D02*X7847D01*
Y73475D02*Y73400D01*
X8102Y73475D02*Y73250D01*
Y73475D02*X8177Y73550D01*
X8252D01*
X8327Y73475D01*
Y73250D01*
X8027Y73550D02*X8102Y73475D01*
X8582Y73850D02*Y73325D01*
X8657Y73250D01*
X8507Y73625D02*X8657D01*
X9377Y73850D02*Y73250D01*
X9302D02*X9377Y73325D01*
X9152Y73250D02*X9302D01*
X9077Y73325D02*X9152Y73250D01*
X9077Y73475D02*Y73325D01*
Y73475D02*X9152Y73550D01*
X9302D01*
X9377Y73475D01*
X9632D02*Y73250D01*
Y73475D02*X9707Y73550D01*
X9857D01*
X9557D02*X9632Y73475D01*
X10038Y73700D02*Y73625D01*
Y73475D02*Y73250D01*
X10188Y73850D02*Y73325D01*
X10263Y73250D01*
X10413Y73850D02*Y73325D01*
X10488Y73250D01*
X10983D02*X11208D01*
X11283Y73325D01*
X11208Y73400D02*X11283Y73325D01*
X10983Y73400D02*X11208D01*
X10908Y73475D02*X10983Y73400D01*
X10908Y73475D02*X10983Y73550D01*
X11208D01*
X11283Y73475D01*
X10908Y73325D02*X10983Y73250D01*
X11463Y73700D02*Y73625D01*
Y73475D02*Y73250D01*
X11613Y73550D02*X11913D01*
X11613Y73250D02*X11913Y73550D01*
X11613Y73250D02*X11913D01*
X12168D02*X12393D01*
X12093Y73325D02*X12168Y73250D01*
X12093Y73475D02*Y73325D01*
Y73475D02*X12168Y73550D01*
X12318D01*
X12393Y73475D01*
X12093Y73400D02*X12393D01*
Y73475D02*Y73400D01*
X12649Y73250D02*X12874D01*
X12949Y73325D01*
X12874Y73400D02*X12949Y73325D01*
X12649Y73400D02*X12874D01*
X12574Y73475D02*X12649Y73400D01*
X12574Y73475D02*X12649Y73550D01*
X12874D01*
X12949Y73475D01*
X12574Y73325D02*X12649Y73250D01*
X13399Y73550D02*Y73325D01*
X13474Y73250D01*
X13624D01*
X13699Y73325D01*
Y73550D02*Y73325D01*
X13954Y73250D02*X14179D01*
X14254Y73325D01*
X14179Y73400D02*X14254Y73325D01*
X13954Y73400D02*X14179D01*
X13879Y73475D02*X13954Y73400D01*
X13879Y73475D02*X13954Y73550D01*
X14179D01*
X14254Y73475D01*
X13879Y73325D02*X13954Y73250D01*
X14509D02*X14734D01*
X14434Y73325D02*X14509Y73250D01*
X14434Y73475D02*Y73325D01*
Y73475D02*X14509Y73550D01*
X14659D01*
X14734Y73475D01*
X14434Y73400D02*X14734D01*
Y73475D02*Y73400D01*
X15214Y73850D02*Y73250D01*
X15139D02*X15214Y73325D01*
X14989Y73250D02*X15139D01*
X14914Y73325D02*X14989Y73250D01*
X14914Y73475D02*Y73325D01*
Y73475D02*X14989Y73550D01*
X15139D01*
X15214Y73475D01*
X15664Y73700D02*Y73625D01*
Y73475D02*Y73250D01*
X15889Y73475D02*Y73250D01*
Y73475D02*X15964Y73550D01*
X16039D01*
X16114Y73475D01*
Y73250D01*
X15814Y73550D02*X15889Y73475D01*
X16640Y73850D02*Y73325D01*
X16715Y73250D01*
X16565Y73625D02*X16715D01*
X16865Y73850D02*Y73250D01*
Y73475D02*X16940Y73550D01*
X17090D01*
X17165Y73475D01*
Y73250D01*
X17345Y73700D02*Y73625D01*
Y73475D02*Y73250D01*
X17570D02*X17795D01*
X17870Y73325D01*
X17795Y73400D02*X17870Y73325D01*
X17570Y73400D02*X17795D01*
X17495Y73475D02*X17570Y73400D01*
X17495Y73475D02*X17570Y73550D01*
X17795D01*
X17870Y73475D01*
X17495Y73325D02*X17570Y73250D01*
X18320Y73850D02*Y73325D01*
X18395Y73250D01*
X18770Y73550D02*X18845Y73475D01*
X18620Y73550D02*X18770D01*
X18545Y73475D02*X18620Y73550D01*
X18545Y73475D02*Y73325D01*
X18620Y73250D01*
X18845Y73550D02*Y73325D01*
X18920Y73250D01*
X18620D02*X18770D01*
X18845Y73325D01*
X19101Y73550D02*Y73325D01*
X19176Y73250D01*
X19401Y73550D02*Y73100D01*
X19326Y73025D02*X19401Y73100D01*
X19176Y73025D02*X19326D01*
X19101Y73100D02*X19176Y73025D01*
Y73250D02*X19326D01*
X19401Y73325D01*
X19581Y73475D02*Y73325D01*
Y73475D02*X19656Y73550D01*
X19806D01*
X19881Y73475D01*
Y73325D01*
X19806Y73250D02*X19881Y73325D01*
X19656Y73250D02*X19806D01*
X19581Y73325D02*X19656Y73250D01*
X20061Y73550D02*Y73325D01*
X20136Y73250D01*
X20286D01*
X20361Y73325D01*
Y73550D02*Y73325D01*
X20616Y73850D02*Y73325D01*
X20691Y73250D01*
X20541Y73625D02*X20691D01*
X20841Y73100D02*X20991Y73250D01*
X21441D02*X21741Y73550D01*
Y73775D02*Y73550D01*
X21666Y73850D02*X21741Y73775D01*
X21516Y73850D02*X21666D01*
X21441Y73775D02*X21516Y73850D01*
X21441Y73775D02*Y73625D01*
X21516Y73550D01*
X21741D01*
X21921Y73325D02*X21996Y73250D01*
X21921Y73475D02*Y73325D01*
Y73475D02*X21996Y73550D01*
X22146D01*
X22221Y73475D01*
Y73325D01*
X22146Y73250D02*X22221Y73325D01*
X21996Y73250D02*X22146D01*
X21921Y73625D02*X21996Y73550D01*
X21921Y73775D02*Y73625D01*
Y73775D02*X21996Y73850D01*
X22146D01*
X22221Y73775D01*
Y73625D01*
X22146Y73550D02*X22221Y73625D01*
X22627Y73850D02*X22702Y73775D01*
X22477Y73850D02*X22627D01*
X22402Y73775D02*X22477Y73850D01*
X22402Y73775D02*Y73325D01*
X22477Y73250D01*
X22627Y73550D02*X22702Y73475D01*
X22402Y73550D02*X22627D01*
X22477Y73250D02*X22627D01*
X22702Y73325D01*
Y73475D02*Y73325D01*
X23152Y73850D02*Y73250D01*
Y73475D02*X23227Y73550D01*
X23377D01*
X23452Y73475D01*
Y73250D01*
X23632Y73475D02*Y73325D01*
Y73475D02*X23707Y73550D01*
X23857D01*
X23932Y73475D01*
Y73325D01*
X23857Y73250D02*X23932Y73325D01*
X23707Y73250D02*X23857D01*
X23632Y73325D02*X23707Y73250D01*
X24112Y73850D02*Y73325D01*
X24187Y73250D01*
X24412D02*X24637D01*
X24337Y73325D02*X24412Y73250D01*
X24337Y73475D02*Y73325D01*
Y73475D02*X24412Y73550D01*
X24562D01*
X24637Y73475D01*
X24337Y73400D02*X24637D01*
Y73475D02*Y73400D01*
X24892Y73250D02*X25117D01*
X25192Y73325D01*
X25117Y73400D02*X25192Y73325D01*
X24892Y73400D02*X25117D01*
X24817Y73475D02*X24892Y73400D01*
X24817Y73475D02*X24892Y73550D01*
X25117D01*
X25192Y73475D01*
X24817Y73325D02*X24892Y73250D01*
X25717Y73850D02*Y73325D01*
X25792Y73250D01*
X25642Y73625D02*X25792D01*
X25943Y73475D02*Y73325D01*
Y73475D02*X26018Y73550D01*
X26168D01*
X26243Y73475D01*
Y73325D01*
X26168Y73250D02*X26243Y73325D01*
X26018Y73250D02*X26168D01*
X25943Y73325D02*X26018Y73250D01*
X26498Y73850D02*Y73325D01*
X26573Y73250D01*
X26423Y73625D02*X26573D01*
X26948Y73550D02*X27023Y73475D01*
X26798Y73550D02*X26948D01*
X26723Y73475D02*X26798Y73550D01*
X26723Y73475D02*Y73325D01*
X26798Y73250D01*
X27023Y73550D02*Y73325D01*
X27098Y73250D01*
X26798D02*X26948D01*
X27023Y73325D01*
X27278Y73850D02*Y73325D01*
X27353Y73250D01*
G54D11*X43800Y6000D02*X0D01*
X43800Y54400D02*Y6000D01*
X0D02*Y54400D01*
X43800D01*
G54D21*X13864Y-950D02*X14164D01*
X14239Y-875D01*
Y-725D02*Y-875D01*
X14164Y-650D02*X14239Y-725D01*
X13939Y-650D02*X14164D01*
X13939Y-350D02*Y-950D01*
X13864Y-350D02*X14164D01*
X14239Y-425D01*
Y-575D01*
X14164Y-650D02*X14239Y-575D01*
X14419Y-725D02*Y-875D01*
Y-725D02*X14494Y-650D01*
X14644D01*
X14719Y-725D01*
Y-875D01*
X14644Y-950D02*X14719Y-875D01*
X14494Y-950D02*X14644D01*
X14419Y-875D02*X14494Y-950D01*
X15125Y-650D02*X15200Y-725D01*
X14975Y-650D02*X15125D01*
X14900Y-725D02*X14975Y-650D01*
X14900Y-725D02*Y-875D01*
X14975Y-950D01*
X15200Y-650D02*Y-875D01*
X15275Y-950D01*
X14975D02*X15125D01*
X15200Y-875D01*
X15530Y-725D02*Y-950D01*
Y-725D02*X15605Y-650D01*
X15755D01*
X15455D02*X15530Y-725D01*
X16235Y-350D02*Y-950D01*
X16160D02*X16235Y-875D01*
X16010Y-950D02*X16160D01*
X15935Y-875D02*X16010Y-950D01*
X15935Y-725D02*Y-875D01*
Y-725D02*X16010Y-650D01*
X16160D01*
X16235Y-725D01*
X16685D02*Y-875D01*
Y-725D02*X16760Y-650D01*
X16910D01*
X16985Y-725D01*
Y-875D01*
X16910Y-950D02*X16985Y-875D01*
X16760Y-950D02*X16910D01*
X16685Y-875D02*X16760Y-950D01*
X17165Y-650D02*Y-875D01*
X17240Y-950D01*
X17390D01*
X17465Y-875D01*
Y-650D02*Y-875D01*
X17720Y-350D02*Y-875D01*
X17795Y-950D01*
X17645Y-575D02*X17795D01*
X17946Y-350D02*Y-875D01*
X18021Y-950D01*
X18171Y-500D02*Y-575D01*
Y-725D02*Y-950D01*
X18396Y-725D02*Y-950D01*
Y-725D02*X18471Y-650D01*
X18546D01*
X18621Y-725D01*
Y-950D01*
X18321Y-650D02*X18396Y-725D01*
X18876Y-950D02*X19101D01*
X18801Y-875D02*X18876Y-950D01*
X18801Y-725D02*Y-875D01*
Y-725D02*X18876Y-650D01*
X19026D01*
X19101Y-725D01*
X18801Y-800D02*X19101D01*
Y-725D02*Y-800D01*
X19551Y-500D02*Y-575D01*
Y-725D02*Y-950D01*
X19776D02*X20001D01*
X20076Y-875D01*
X20001Y-800D02*X20076Y-875D01*
X19776Y-800D02*X20001D01*
X19701Y-725D02*X19776Y-800D01*
X19701Y-725D02*X19776Y-650D01*
X20001D01*
X20076Y-725D01*
X19701Y-875D02*X19776Y-950D01*
X20601Y-350D02*Y-875D01*
X20676Y-950D01*
X20526Y-575D02*X20676D01*
X20827Y-350D02*Y-950D01*
Y-725D02*X20902Y-650D01*
X21052D01*
X21127Y-725D01*
Y-950D01*
X21382D02*X21607D01*
X21307Y-875D02*X21382Y-950D01*
X21307Y-725D02*Y-875D01*
Y-725D02*X21382Y-650D01*
X21532D01*
X21607Y-725D01*
X21307Y-800D02*X21607D01*
Y-725D02*Y-800D01*
X22132Y-650D02*X22357D01*
X22057Y-725D02*X22132Y-650D01*
X22057Y-725D02*Y-875D01*
X22132Y-950D01*
X22357D01*
X22612D02*X22837D01*
X22537Y-875D02*X22612Y-950D01*
X22537Y-725D02*Y-875D01*
Y-725D02*X22612Y-650D01*
X22762D01*
X22837Y-725D01*
X22537Y-800D02*X22837D01*
Y-725D02*Y-800D01*
X23092Y-725D02*Y-950D01*
Y-725D02*X23167Y-650D01*
X23242D01*
X23317Y-725D01*
Y-950D01*
X23017Y-650D02*X23092Y-725D01*
X23572Y-350D02*Y-875D01*
X23647Y-950D01*
X23497Y-575D02*X23647D01*
X23872Y-950D02*X24097D01*
X23797Y-875D02*X23872Y-950D01*
X23797Y-725D02*Y-875D01*
Y-725D02*X23872Y-650D01*
X24022D01*
X24097Y-725D01*
X23797Y-800D02*X24097D01*
Y-725D02*Y-800D01*
X24353Y-725D02*Y-950D01*
Y-725D02*X24428Y-650D01*
X24578D01*
X24278D02*X24353Y-725D01*
X24758Y-350D02*Y-875D01*
X24833Y-950D01*
X24983Y-500D02*Y-575D01*
Y-725D02*Y-950D01*
X25208Y-725D02*Y-950D01*
Y-725D02*X25283Y-650D01*
X25358D01*
X25433Y-725D01*
Y-950D01*
X25133Y-650D02*X25208Y-725D01*
X25688Y-950D02*X25913D01*
X25613Y-875D02*X25688Y-950D01*
X25613Y-725D02*Y-875D01*
Y-725D02*X25688Y-650D01*
X25838D01*
X25913Y-725D01*
X25613Y-800D02*X25913D01*
Y-725D02*Y-800D01*
X26363Y-725D02*Y-875D01*
Y-725D02*X26438Y-650D01*
X26588D01*
X26663Y-725D01*
Y-875D01*
X26588Y-950D02*X26663Y-875D01*
X26438Y-950D02*X26588D01*
X26363Y-875D02*X26438Y-950D01*
X26919Y-425D02*Y-950D01*
Y-425D02*X26994Y-350D01*
X27069D01*
X26844Y-650D02*X26994D01*
X27564Y-350D02*Y-875D01*
X27639Y-950D01*
X27489Y-575D02*X27639D01*
X27789Y-350D02*Y-950D01*
Y-725D02*X27864Y-650D01*
X28014D01*
X28089Y-725D01*
Y-950D01*
X28269Y-500D02*Y-575D01*
Y-725D02*Y-950D01*
X28494D02*X28719D01*
X28794Y-875D01*
X28719Y-800D02*X28794Y-875D01*
X28494Y-800D02*X28719D01*
X28419Y-725D02*X28494Y-800D01*
X28419Y-725D02*X28494Y-650D01*
X28719D01*
X28794Y-725D01*
X28419Y-875D02*X28494Y-950D01*
X29319Y-725D02*Y-1175D01*
X29244Y-650D02*X29319Y-725D01*
X29394Y-650D01*
X29544D01*
X29619Y-725D01*
Y-875D01*
X29544Y-950D02*X29619Y-875D01*
X29394Y-950D02*X29544D01*
X29319Y-875D02*X29394Y-950D01*
X30024Y-650D02*X30099Y-725D01*
X29874Y-650D02*X30024D01*
X29799Y-725D02*X29874Y-650D01*
X29799Y-725D02*Y-875D01*
X29874Y-950D01*
X30099Y-650D02*Y-875D01*
X30174Y-950D01*
X29874D02*X30024D01*
X30099Y-875D01*
X30430Y-350D02*Y-875D01*
X30505Y-950D01*
X30355Y-575D02*X30505D01*
X30655Y-350D02*Y-950D01*
Y-725D02*X30730Y-650D01*
X30880D01*
X30955Y-725D01*
Y-950D01*
X20075Y67850D02*Y67250D01*
X20300Y67850D02*X20375Y67775D01*
Y67325D01*
X20300Y67250D02*X20375Y67325D01*
X20000Y67250D02*X20300D01*
X20000Y67850D02*X20300D01*
X20780Y67550D02*X20855Y67475D01*
X20630Y67550D02*X20780D01*
X20555Y67475D02*X20630Y67550D01*
X20555Y67475D02*Y67325D01*
X20630Y67250D01*
X20855Y67550D02*Y67325D01*
X20930Y67250D01*
X20630D02*X20780D01*
X20855Y67325D01*
X21185Y67850D02*Y67325D01*
X21260Y67250D01*
X21110Y67625D02*X21260D01*
X21485Y67250D02*X21710D01*
X21410Y67325D02*X21485Y67250D01*
X21410Y67475D02*Y67325D01*
Y67475D02*X21485Y67550D01*
X21635D01*
X21710Y67475D01*
X21410Y67400D02*X21710D01*
Y67475D02*Y67400D01*
X21890Y67625D02*X21965D01*
X21890Y67475D02*X21965D01*
X22415Y67850D02*Y67250D01*
Y67850D02*X22715D01*
X22415Y67550D02*X22640D01*
X22970Y67475D02*Y67250D01*
Y67475D02*X23045Y67550D01*
X23195D01*
X22895D02*X22970Y67475D01*
X23376Y67700D02*Y67625D01*
Y67475D02*Y67250D01*
X23796Y67775D02*X23871Y67850D01*
X24096D01*
X24171Y67775D01*
Y67625D01*
X23796Y67250D02*X24171Y67625D01*
X23796Y67250D02*X24171D01*
X24351Y67325D02*X24426Y67250D01*
X24351Y67475D02*Y67325D01*
Y67475D02*X24426Y67550D01*
X24576D01*
X24651Y67475D01*
Y67325D01*
X24576Y67250D02*X24651Y67325D01*
X24426Y67250D02*X24576D01*
X24351Y67625D02*X24426Y67550D01*
X24351Y67775D02*Y67625D01*
Y67775D02*X24426Y67850D01*
X24576D01*
X24651Y67775D01*
Y67625D01*
X24576Y67550D02*X24651Y67625D01*
X25101Y67850D02*Y67250D01*
Y67850D02*Y67775D01*
X25476Y67400D01*
Y67850D02*Y67250D01*
X25656Y67475D02*Y67325D01*
Y67475D02*X25731Y67550D01*
X25881D01*
X25956Y67475D01*
Y67325D01*
X25881Y67250D02*X25956Y67325D01*
X25731Y67250D02*X25881D01*
X25656Y67325D02*X25731Y67250D01*
X26136Y67550D02*Y67400D01*
X26286Y67250D01*
X26436Y67400D01*
Y67550D02*Y67400D01*
X26886Y67775D02*X26961Y67850D01*
X27186D01*
X27261Y67775D01*
Y67625D01*
X26886Y67250D02*X27261Y67625D01*
X26886Y67250D02*X27261D01*
X27442Y67325D02*X27517Y67250D01*
X27442Y67775D02*Y67325D01*
Y67775D02*X27517Y67850D01*
X27667D01*
X27742Y67775D01*
Y67325D01*
X27667Y67250D02*X27742Y67325D01*
X27517Y67250D02*X27667D01*
X27442Y67400D02*X27742Y67700D01*
X27922Y67325D02*X27997Y67250D01*
X27922Y67775D02*Y67325D01*
Y67775D02*X27997Y67850D01*
X28147D01*
X28222Y67775D01*
Y67325D01*
X28147Y67250D02*X28222Y67325D01*
X27997Y67250D02*X28147D01*
X27922Y67400D02*X28222Y67700D01*
X28402Y67325D02*X28477Y67250D01*
X28402Y67475D02*Y67325D01*
Y67475D02*X28477Y67550D01*
X28627D01*
X28702Y67475D01*
Y67325D01*
X28627Y67250D02*X28702Y67325D01*
X28477Y67250D02*X28627D01*
X28402Y67625D02*X28477Y67550D01*
X28402Y67775D02*Y67625D01*
Y67775D02*X28477Y67850D01*
X28627D01*
X28702Y67775D01*
Y67625D01*
X28627Y67550D02*X28702Y67625D01*
X29152Y67325D02*X29227Y67250D01*
X29152Y67775D02*Y67325D01*
Y67775D02*X29227Y67850D01*
X29377D01*
X29452Y67775D01*
Y67325D01*
X29377Y67250D02*X29452Y67325D01*
X29227Y67250D02*X29377D01*
X29152Y67400D02*X29452Y67700D01*
X29632Y67550D02*X29932Y67850D01*
X29632Y67550D02*X30007D01*
X29932Y67850D02*Y67250D01*
X30187Y67625D02*X30262D01*
X30187Y67475D02*X30262D01*
X30443Y67325D02*X30518Y67250D01*
X30443Y67775D02*Y67325D01*
Y67775D02*X30518Y67850D01*
X30668D01*
X30743Y67775D01*
Y67325D01*
X30668Y67250D02*X30743Y67325D01*
X30518Y67250D02*X30668D01*
X30443Y67400D02*X30743Y67700D01*
X30923Y67325D02*X30998Y67250D01*
X30923Y67475D02*Y67325D01*
Y67475D02*X30998Y67550D01*
X31148D01*
X31223Y67475D01*
Y67325D01*
X31148Y67250D02*X31223Y67325D01*
X30998Y67250D02*X31148D01*
X30923Y67625D02*X30998Y67550D01*
X30923Y67775D02*Y67625D01*
Y67775D02*X30998Y67850D01*
X31148D01*
X31223Y67775D01*
Y67625D01*
X31148Y67550D02*X31223Y67625D01*
X31403D02*X31478D01*
X31403Y67475D02*X31478D01*
X31658Y67850D02*X31958D01*
X31658D02*Y67550D01*
X31733Y67625D01*
X31883D01*
X31958Y67550D01*
Y67325D01*
X31883Y67250D02*X31958Y67325D01*
X31733Y67250D02*X31883D01*
X31658Y67325D02*X31733Y67250D01*
X32213D02*X32363D01*
X32288Y67850D02*Y67250D01*
X32138Y67700D02*X32288Y67850D01*
X32813Y67775D02*Y67250D01*
Y67775D02*X32888Y67850D01*
X33113D01*
X33188Y67775D01*
Y67250D01*
X32813Y67550D02*X33188D01*
X33368Y67850D02*Y67250D01*
Y67850D02*X33593Y67625D01*
X33818Y67850D01*
Y67250D01*
X34569Y67850D02*X34644Y67775D01*
X34344Y67850D02*X34569D01*
X34269Y67775D02*X34344Y67850D01*
X34269Y67775D02*Y67325D01*
X34344Y67250D01*
X34569D01*
X34644Y67325D01*
Y67475D02*Y67325D01*
X34569Y67550D02*X34644Y67475D01*
X34419Y67550D02*X34569D01*
X34824Y67850D02*Y67250D01*
Y67850D02*X35049Y67625D01*
X35274Y67850D01*
Y67250D01*
X35454Y67850D02*X35754D01*
X35604D02*Y67250D01*
X36204Y67850D02*Y67325D01*
X36279Y67250D01*
X36429D01*
X36504Y67325D01*
Y67850D02*Y67325D01*
X36684Y67850D02*X36984D01*
X36834D02*Y67250D01*
X37239D02*X37464D01*
X37164Y67325D02*X37239Y67250D01*
X37164Y67775D02*Y67325D01*
Y67775D02*X37239Y67850D01*
X37464D01*
X20000Y69275D02*Y68750D01*
Y69275D02*X20075Y69350D01*
X20300D01*
X20375Y69275D01*
Y68750D01*
X20000Y69050D02*X20375D01*
X20555D02*Y68825D01*
X20630Y68750D01*
X20780D01*
X20855Y68825D01*
Y69050D02*Y68825D01*
X21110Y69350D02*Y68825D01*
X21185Y68750D01*
X21035Y69125D02*X21185D01*
X21335Y69350D02*Y68750D01*
Y68975D02*X21410Y69050D01*
X21560D01*
X21635Y68975D01*
Y68750D01*
X21815Y68975D02*Y68825D01*
Y68975D02*X21890Y69050D01*
X22040D01*
X22115Y68975D01*
Y68825D01*
X22040Y68750D02*X22115Y68825D01*
X21890Y68750D02*X22040D01*
X21815Y68825D02*X21890Y68750D01*
X22370Y68975D02*Y68750D01*
Y68975D02*X22445Y69050D01*
X22595D01*
X22295D02*X22370Y68975D01*
X22775Y69125D02*X22850D01*
X22775Y68975D02*X22850D01*
X23301Y69350D02*Y68750D01*
X23601D01*
X23781Y69050D02*Y68825D01*
X23856Y68750D01*
X24006D01*
X24081Y68825D01*
Y69050D02*Y68825D01*
X24261Y69350D02*Y68750D01*
Y68975D02*X24486Y68750D01*
X24261Y68975D02*X24411Y69125D01*
X24741Y68750D02*X24966D01*
X24666Y68825D02*X24741Y68750D01*
X24666Y68975D02*Y68825D01*
Y68975D02*X24741Y69050D01*
X24891D01*
X24966Y68975D01*
X24666Y68900D02*X24966D01*
Y68975D02*Y68900D01*
X25416Y69275D02*Y68825D01*
Y69275D02*X25491Y69350D01*
X25641D01*
X25716Y69275D01*
Y68825D01*
X25641Y68750D02*X25716Y68825D01*
X25491Y68750D02*X25641D01*
X25416Y68825D02*X25491Y68750D01*
X25971Y68975D02*Y68750D01*
Y68975D02*X26046Y69050D01*
X26196D01*
X25896D02*X25971Y68975D01*
X26376Y69350D02*Y68825D01*
X26451Y68750D01*
X26827Y69050D02*X26902Y68975D01*
X26677Y69050D02*X26827D01*
X26602Y68975D02*X26677Y69050D01*
X26602Y68975D02*Y68825D01*
X26677Y68750D01*
X26902Y69050D02*Y68825D01*
X26977Y68750D01*
X26677D02*X26827D01*
X26902Y68825D01*
X27232Y68975D02*Y68750D01*
Y68975D02*X27307Y69050D01*
X27382D01*
X27457Y68975D01*
Y68750D01*
X27157Y69050D02*X27232Y68975D01*
X27937Y69350D02*Y68750D01*
X27862D02*X27937Y68825D01*
X27712Y68750D02*X27862D01*
X27637Y68825D02*X27712Y68750D01*
X27637Y68975D02*Y68825D01*
Y68975D02*X27712Y69050D01*
X27862D01*
X27937Y68975D01*
X20000Y70850D02*X20300D01*
X20150D02*Y70250D01*
X20480Y70700D02*Y70625D01*
Y70475D02*Y70250D01*
X20705Y70850D02*Y70325D01*
X20780Y70250D01*
X20630Y70625D02*X20780D01*
X20930Y70850D02*Y70325D01*
X21005Y70250D01*
X21230D02*X21455D01*
X21155Y70325D02*X21230Y70250D01*
X21155Y70475D02*Y70325D01*
Y70475D02*X21230Y70550D01*
X21380D01*
X21455Y70475D01*
X21155Y70400D02*X21455D01*
Y70475D02*Y70400D01*
X21635Y70625D02*X21710D01*
X21635Y70475D02*X21710D01*
X22460D02*Y70025D01*
X22385Y70550D02*X22460Y70475D01*
X22235Y70550D02*X22385D01*
X22160Y70475D02*X22235Y70550D01*
X22160Y70475D02*Y70325D01*
X22235Y70250D01*
X22385D01*
X22460Y70325D01*
X22641Y70550D02*Y70325D01*
X22716Y70250D01*
X22866D01*
X22941Y70325D01*
Y70550D02*Y70325D01*
X23196Y70250D02*X23421D01*
X23121Y70325D02*X23196Y70250D01*
X23121Y70475D02*Y70325D01*
Y70475D02*X23196Y70550D01*
X23346D01*
X23421Y70475D01*
X23121Y70400D02*X23421D01*
Y70475D02*Y70400D01*
X23871Y70850D02*Y70325D01*
X23946Y70250D01*
X24096Y70700D02*Y70625D01*
Y70475D02*Y70250D01*
X24321Y70475D02*Y70250D01*
Y70475D02*X24396Y70550D01*
X24471D01*
X24546Y70475D01*
Y70250D01*
X24246Y70550D02*X24321Y70475D01*
X25026Y70850D02*Y70250D01*
X24951D02*X25026Y70325D01*
X24801Y70250D02*X24951D01*
X24726Y70325D02*X24801Y70250D01*
X24726Y70475D02*Y70325D01*
Y70475D02*X24801Y70550D01*
X24951D01*
X25026Y70475D01*
X25431Y70550D02*X25506Y70475D01*
X25281Y70550D02*X25431D01*
X25206Y70475D02*X25281Y70550D01*
X25206Y70475D02*Y70325D01*
X25281Y70250D01*
X25506Y70550D02*Y70325D01*
X25581Y70250D01*
X25281D02*X25431D01*
X25506Y70325D01*
X26032Y70550D02*X26332D01*
X26782Y70850D02*Y70250D01*
Y70850D02*X27082D01*
X26782Y70550D02*X27007D01*
X27487D02*X27562Y70475D01*
X27337Y70550D02*X27487D01*
X27262Y70475D02*X27337Y70550D01*
X27262Y70475D02*Y70325D01*
X27337Y70250D01*
X27562Y70550D02*Y70325D01*
X27637Y70250D01*
X27337D02*X27487D01*
X27562Y70325D01*
X27817Y70850D02*Y70250D01*
Y70325D02*X27892Y70250D01*
X28042D01*
X28117Y70325D01*
Y70475D02*Y70325D01*
X28042Y70550D02*X28117Y70475D01*
X27892Y70550D02*X28042D01*
X27817Y70475D02*X27892Y70550D01*
X28372Y70475D02*Y70250D01*
Y70475D02*X28447Y70550D01*
X28597D01*
X28297D02*X28372Y70475D01*
X28777Y70700D02*Y70625D01*
Y70475D02*Y70250D01*
X29003Y70550D02*X29228D01*
X28928Y70475D02*X29003Y70550D01*
X28928Y70475D02*Y70325D01*
X29003Y70250D01*
X29228D01*
X29633Y70550D02*X29708Y70475D01*
X29483Y70550D02*X29633D01*
X29408Y70475D02*X29483Y70550D01*
X29408Y70475D02*Y70325D01*
X29483Y70250D01*
X29708Y70550D02*Y70325D01*
X29783Y70250D01*
X29483D02*X29633D01*
X29708Y70325D01*
X30038Y70850D02*Y70325D01*
X30113Y70250D01*
X29963Y70625D02*X30113D01*
X30263Y70700D02*Y70625D01*
Y70475D02*Y70250D01*
X30413Y70475D02*Y70325D01*
Y70475D02*X30488Y70550D01*
X30638D01*
X30713Y70475D01*
Y70325D01*
X30638Y70250D02*X30713Y70325D01*
X30488Y70250D02*X30638D01*
X30413Y70325D02*X30488Y70250D01*
X30968Y70475D02*Y70250D01*
Y70475D02*X31043Y70550D01*
X31118D01*
X31193Y70475D01*
Y70250D01*
X30893Y70550D02*X30968Y70475D01*
X31718Y70850D02*Y70250D01*
X31943Y70850D02*X32018Y70775D01*
Y70325D01*
X31943Y70250D02*X32018Y70325D01*
X31643Y70250D02*X31943D01*
X31643Y70850D02*X31943D01*
X32274Y70475D02*Y70250D01*
Y70475D02*X32349Y70550D01*
X32499D01*
X32199D02*X32274Y70475D01*
X32904Y70550D02*X32979Y70475D01*
X32754Y70550D02*X32904D01*
X32679Y70475D02*X32754Y70550D01*
X32679Y70475D02*Y70325D01*
X32754Y70250D01*
X32979Y70550D02*Y70325D01*
X33054Y70250D01*
X32754D02*X32904D01*
X32979Y70325D01*
X33234Y70550D02*Y70325D01*
X33309Y70250D01*
X33384D01*
X33459Y70325D01*
Y70550D02*Y70325D01*
X33534Y70250D01*
X33609D01*
X33684Y70325D01*
Y70550D02*Y70325D01*
X33864Y70700D02*Y70625D01*
Y70475D02*Y70250D01*
X34089Y70475D02*Y70250D01*
Y70475D02*X34164Y70550D01*
X34239D01*
X34314Y70475D01*
Y70250D01*
X34014Y70550D02*X34089Y70475D01*
X34719Y70550D02*X34794Y70475D01*
X34569Y70550D02*X34719D01*
X34494Y70475D02*X34569Y70550D01*
X34494Y70475D02*Y70325D01*
X34569Y70250D01*
X34719D01*
X34794Y70325D01*
X34494Y70100D02*X34569Y70025D01*
X34719D01*
X34794Y70100D01*
Y70550D02*Y70100D01*
M02*
