999
dxflib 2.0.4.8
  0
SECTION
  2
HEADER
  9
$ACADVER
  1
AC1015
  9
$HANDSEED
  5
FFFF
  9
$USERR4
 40
0.0
  9
$DIMTAD
 70
0
  9
$USERR5
 40
0.0
  9
$UCSYDIR
 10
0.0
 20
1.0
 30
0.0
  9
$ATTREQ
 70
1
  9
$CHAMFERA
 40
0.04
  9
$MENU
  1
ACAD
  9
$CLAYER
  8
DM
  9
$UCSXDIR
 10
1.0
 20
0.0
 30
0.0
  9
$CHAMFERB
 40
0.04
  9
$TRACEWID
 40
0.05
  9
$REGENMODE
 70
1
  9
$ORTHOMODE
 70
1
  9
$EXTMIN
 10
0.1997655810890393
 20
0.1416049932616801
 30
0.0
  9
$DIMADEC
 70
0
  9
$GRIDUNIT
 10
0.0
 20
0.0
  9
$DIMASZ
 40
0.05
  9
$ANGBASE
 50
0.0
  9
$USRTIMER
 70
1
  9
$SKETCHINC
 40
0.1
  9
$DIMSAH
 70
0
  9
$DIMALT
 70
0
  9
$DIMSHO
 70
1
  9
$DIMGAP
 40
0.625
  9
$SURFTYPE
 70
6
  9
$SPLFRAME
 70
0
  9
$DIMTSZ
 40
0.0
  9
$LIMMIN
 10
1.076973062414289
 20
1.126159336382454
  9
$SURFTAB1
 70
12
  9
$LUNITS
 70
2
  9
$AUPREC
 70
0
  9
$SPLINESEGS
 70
8
  9
$USERI1
 70
0
  9
$SURFTAB2
 70
12
  9
$SKPOLY
 70
0
  9
$ELEVATION
 40
0.0
  9
$DIMCEN
 40
0.09
  9
$DIMRND
 40
0.0
  9
$INSBASE
 10
20.7343793338561113
 20
5.5439698755116567
 30
0.0
  9
$USERI2
 70
0
  9
$UCSORG
 10
0.0
 20
0.0
 30
0.0
  9
$TEXTSIZE
 40
0.2
  9
$DRAGMODE
 70
2
  9
$FILLMODE
 70
1
  9
$EXTMAX
 10
23.9986570961553092
 20
18.9519419276923209
 30
0.0
  9
$INSUNITS
 70
1
  9
$DIMEXO
 40
0.0625
  9
$USERI3
 70
0
  9
$SURFU
 70
6
  9
$ANGDIR
 70
0
  9
$TDUSRTIMER
 40
0.2702297106
  9
$DIMZIN
 70
0
  9
$DIMDLE
 40
0.0
  9
$DIMSCALE
 40
0.0
  9
$WORLDVIEW
 70
1
  9
$USERI4
 70
0
  9
$SURFV
 70
6
  9
$OSMODE
 70
37
  9
$QTEXTMODE
 70
0
  9
$LIMMAX
 10
21.7752858567682601
 20
16.9940764058527094
  9
$DIMLUNIT
 70
2
  9
$USERI5
 70
0
  9
$PDMODE
 70
0
  9
$LIMCHECK
 70
0
  9
$THICKNESS
 40
0.0
  9
$DIMSE1
 70
0
  9
$DIMLIM
 70
0
  9
$ATTMODE
 70
1
  9
$GRIDMODE
 70
1
  9
$DIMTXT
 40
0.1
  9
$SPLINETYPE
 70
6
  9
$TDINDWG
 40
0.2702297106
  9
$DIMSOXD
 70
0
  9
$DIMLFAC
 40
1.0
  9
$DIMSE2
 70
0
  9
$DIMTOH
 70
1
  9
$CELTYPE
  6
BYLAYER
  9
$LUPREC
 70
4
  9
$DIMSTYLE
  2
Standard
  9
$PLINEWID
 40
0.0
  9
$DIMTVP
 40
0.0
  9
$DIMASO
 70
1
  9
$DIMTM
 40
0.0
  9
$DIMDLI
 40
0.38
  9
$CECOLOR
 62
256
  9
$TDUPDATE
 40
2451096.2385814809240401
  9
$FILLETRAD
 40
0.25
  9
$DIMALTD
 70
2
  9
$DIMTIH
 70
1
  9
$LTSCALE
 40
0.6
  9
$PLIMMIN
 10
0.0
 20
0.0
  9
$PLIMMAX
 10
11.0
 20
8.5
  9
$USERR1
 40
0.0
  9
$ATTDIA
 70
0
  9
$PDSIZE
 40
0.0
  9
$DIMEXE
 40
0.18
  9
$PINSBASE
 10
5.5481235985605313
 20
4.1890850863125166
 30
0.0
  9
$USERR2
 40
0.0
  9
$COORDS
 70
1
  9
$TDCREATE
 40
2450106.158084490802139
  9
$DIMTOFL
 70
0
  9
$DIMALTF
 40
25.3999999999999986
  9
$DIMTOL
 70
0
  9
$DIMTP
 40
0.0
  9
$TEXTSTYLE
  7
STANDARD
  9
$DIMAUNIT
 70
0
  9
$USERR3
 40
0.0
  9
$DIMTIX
 70
0
  9
$AUNITS
 70
0
  0
ENDSEC
  0
SECTION
  2
TABLES
  0
TABLE
  2
VPORT
  5
8
100
AcDbSymbolTable
 70
1
  0
VPORT
  5
30
100
AcDbSymbolTableRecord
100
AcDbViewportTableRecord
  2
*Active
 70
0
 10
0.0
 20
0.0
 11
1.0
 21
1.0
 12
286.3055555555554861
 22
148.5
 13
0.0
 23
0.0
 14
10.0
 24
10.0
 15
10.0
 25
10.0
 16
0.0
 26
0.0
 36
1.0
 17
0.0
 27
0.0
 37
0.0
 40
297.0
 41
1.92798353909465
 42
50.0
 43
0.0
 44
0.0
 50
0.0
 51
0.0
 71
0
 72
100
 73
1
 74
3
 75
1
 76
1
 77
0
 78
0
281
0
 65
1
110
0.0
120
0.0
130
0.0
111
1.0
121
0.0
131
0.0
112
0.0
122
1.0
132
0.0
 79
0
146
0.0
  0
ENDTAB
  0
TABLE
  2
LTYPE
  5
5
100
AcDbSymbolTable
 70
21
  0
LTYPE
  5
14
100
AcDbSymbolTableRecord
100
AcDbLinetypeTableRecord
  2
ByBlock
 70
0
  3

 72
65
 73
0
 40
0.0
  0
LTYPE
  5
15
100
AcDbSymbolTableRecord
100
AcDbLinetypeTableRecord
  2
ByLayer
 70
0
  3

 72
65
 73
0
 40
0.0
  0
LTYPE
  5
16
100
AcDbSymbolTableRecord
100
AcDbLinetypeTableRecord
  2
CONTINUOUS
 70
0
  3
Solid line
 72
65
 73
0
 40
0.0
  0
LTYPE
  5
31
100
AcDbSymbolTableRecord
100
AcDbLinetypeTableRecord
  2
DOT
 70
0
  3
Dot . . . . . . . . . . . . . . . . . . . . . .
 72
65
 73
2
 40
6.3499999999999996
 49
0.0
 74
0
 49
-6.3499999999999996
 74
0
  0
LTYPE
  5
32
100
AcDbSymbolTableRecord
100
AcDbLinetypeTableRecord
  2
DOT2
 70
0
  3
Dot (.5x) .....................................
 72
65
 73
2
 40
3.1749999999999998
 49
0.0
 74
0
 49
-3.1749999999999998
 74
0
  0
LTYPE
  5
33
100
AcDbSymbolTableRecord
100
AcDbLinetypeTableRecord
  2
DOTX2
 70
0
  3
Dot (2x) .  .  .  .  .  .  .  .  .  .  .  .  .
 72
65
 73
2
 40
12.6999999999999993
 49
0.0
 74
0
 49
-12.6999999999999993
 74
0
  0
LTYPE
  5
34
100
AcDbSymbolTableRecord
100
AcDbLinetypeTableRecord
  2
DASHED
 70
0
  3
Dashed __ __ __ __ __ __ __ __ __ __ __ __ __ _
 72
65
 73
2
 40
19.0500000000000007
 49
12.6999999999999993
 74
0
 49
-6.3499999999999996
 74
0
  0
LTYPE
  5
35
100
AcDbSymbolTableRecord
100
AcDbLinetypeTableRecord
  2
DASHED2
 70
0
  3
Dashed (.5x) _ _ _ _ _ _ _ _ _ _ _ _ _ _ _ _ _
 72
65
 73
2
 40
9.5250000000000004
 49
6.3499999999999996
 74
0
 49
-3.1749999999999998
 74
0
  0
LTYPE
  5
36
100
AcDbSymbolTableRecord
100
AcDbLinetypeTableRecord
  2
DASHEDX2
 70
0
  3
Dashed (2x) ____  ____  ____  ____  ____  ___
 72
65
 73
2
 40
38.1000000000000014
 49
25.3999999999999986
 74
0
 49
-12.6999999999999993
 74
0
  0
LTYPE
  5
37
100
AcDbSymbolTableRecord
100
AcDbLinetypeTableRecord
  2
DASHDOT
 70
0
  3
Dash dot __ . __ . __ . __ . __ . __ . __ . __
 72
65
 73
4
 40
25.3999999999999986
 49
12.6999999999999993
 74
0
 49
-6.3499999999999996
 74
0
 49
0.0
 74
0
 49
-6.3499999999999996
 74
0
  0
LTYPE
  5
38
100
AcDbSymbolTableRecord
100
AcDbLinetypeTableRecord
  2
DASHDOT2
 70
0
  3
Dash dot (.5x) _._._._._._._._._._._._._._._.
 72
65
 73
4
 40
12.6999999999999993
 49
6.3499999999999996
 74
0
 49
-3.1749999999999998
 74
0
 49
0.0
 74
0
 49
-3.1749999999999998
 74
0
  0
LTYPE
  5
39
100
AcDbSymbolTableRecord
100
AcDbLinetypeTableRecord
  2
DASHDOTX2
 70
0
  3
Dash dot (2x) ____  .  ____  .  ____  .  ___
 72
65
 73
4
 40
50.7999999999999972
 49
25.3999999999999986
 74
0
 49
-12.6999999999999993
 74
0
 49
0.0
 74
0
 49
-12.6999999999999993
 74
0
  0
LTYPE
  5
3A
100
AcDbSymbolTableRecord
100
AcDbLinetypeTableRecord
  2
DIVIDE
 70
0
  3
Divide ____ . . ____ . . ____ . . ____ . . ____
 72
65
 73
6
 40
31.75
 49
12.6999999999999993
 74
0
 49
-6.3499999999999996
 74
0
 49
0.0
 74
0
 49
-6.3499999999999996
 74
0
 49
0.0
 74
0
 49
-6.3499999999999996
 74
0
  0
LTYPE
  5
3B
100
AcDbSymbolTableRecord
100
AcDbLinetypeTableRecord
  2
DIVIDE2
 70
0
  3
Divide (.5x) __..__..__..__..__..__..__..__.._
 72
65
 73
6
 40
15.875
 49
6.3499999999999996
 74
0
 49
-3.1749999999999998
 74
0
 49
0.0
 74
0
 49
-3.1749999999999998
 74
0
 49
0.0
 74
0
 49
-3.1749999999999998
 74
0
  0
LTYPE
  5
3C
100
AcDbSymbolTableRecord
100
AcDbLinetypeTableRecord
  2
DIVIDEX2
 70
0
  3
Divide (2x) ________  .  .  ________  .  .  _
 72
65
 73
6
 40
63.5
 49
25.3999999999999986
 74
0
 49
-12.6999999999999993
 74
0
 49
0.0
 74
0
 49
-12.6999999999999993
 74
0
 49
0.0
 74
0
 49
-12.6999999999999993
 74
0
  0
LTYPE
  5
3D
100
AcDbSymbolTableRecord
100
AcDbLinetypeTableRecord
  2
CENTER
 70
0
  3
Center ____ _ ____ _ ____ _ ____ _ ____ _ ____
 72
65
 73
4
 40
50.7999999999999972
 49
31.75
 74
0
 49
-6.3499999999999996
 74
0
 49
6.3499999999999996
 74
0
 49
-6.3499999999999996
 74
0
  0
LTYPE
  5
3E
100
AcDbSymbolTableRecord
100
AcDbLinetypeTableRecord
  2
CENTER2
 70
0
  3
Center (.5x) ___ _ ___ _ ___ _ ___ _ ___ _ ___
 72
65
 73
4
 40
28.5749999999999993
 49
19.0500000000000007
 74
0
 49
-3.1749999999999998
 74
0
 49
3.1749999999999998
 74
0
 49
-3.1749999999999998
 74
0
  0
LTYPE
  5
3F
100
AcDbSymbolTableRecord
100
AcDbLinetypeTableRecord
  2
CENTERX2
 70
0
  3
Center (2x) ________  __  ________  __  _____
 72
65
 73
4
 40
101.5999999999999943
 49
63.5
 74
0
 49
-12.6999999999999993
 74
0
 49
12.6999999999999993
 74
0
 49
-12.6999999999999993
 74
0
  0
LTYPE
  5
40
100
AcDbSymbolTableRecord
100
AcDbLinetypeTableRecord
  2
BORDER
 70
0
  3
Border __ __ . __ __ . __ __ . __ __ . __ __ .
 72
65
 73
6
 40
44.4500000000000028
 49
12.6999999999999993
 74
0
 49
-6.3499999999999996
 74
0
 49
12.6999999999999993
 74
0
 49
-6.3499999999999996
 74
0
 49
0.0
 74
0
 49
-6.3499999999999996
 74
0
  0
LTYPE
  5
41
100
AcDbSymbolTableRecord
100
AcDbLinetypeTableRecord
  2
BORDER2
 70
0
  3
Border (.5x) __.__.__.__.__.__.__.__.__.__.__.
 72
65
 73
6
 40
22.2250000000000014
 49
6.3499999999999996
 74
0
 49
-3.1749999999999998
 74
0
 49
6.3499999999999996
 74
0
 49
-3.1749999999999998
 74
0
 49
0.0
 74
0
 49
-3.1749999999999998
 74
0
  0
LTYPE
  5
42
100
AcDbSymbolTableRecord
100
AcDbLinetypeTableRecord
  2
BORDERX2
 70
0
  3
Border (2x) ____  ____  .  ____  ____  .  ___
 72
65
 73
6
 40
88.9000000000000057
 49
25.3999999999999986
 74
0
 49
-12.6999999999999993
 74
0
 49
25.3999999999999986
 74
0
 49
-12.6999999999999993
 74
0
 49
0.0
 74
0
 49
-12.6999999999999993
 74
0
  0
ENDTAB
  0
TABLE
  2
LAYER
  5
2
100
AcDbSymbolTable
 70
14
  0
LAYER
  5
10
100
AcDbSymbolTableRecord
100
AcDbLayerTableRecord
  2
0
 70
0
 62
7
  6
CONTINUOUS
390
F
  0
LAYER
  5
43
100
AcDbSymbolTableRecord
100
AcDbLayerTableRecord
  2
DM
 70
1
 62
8
  6
CONTINUOUS
370
0
390
F
  0
LAYER
  5
44
100
AcDbSymbolTableRecord
100
AcDbLayerTableRecord
  2
CN
 70
0
 62
6
  6
CENTER
390
F
  0
LAYER
  5
45
100
AcDbSymbolTableRecord
100
AcDbLayerTableRecord
  2
HD
 70
0
 62
1
  6
DASHED
390
F
  0
LAYER
  5
46
100
AcDbSymbolTableRecord
100
AcDbLayerTableRecord
  2
WL
 70
0
 62
3
  6
DASHED
390
F
  0
LAYER
  5
47
100
AcDbSymbolTableRecord
100
AcDbLayerTableRecord
  2
F
 70
0
 62
4
  6
CONTINUOUS
390
F
  0
LAYER
  5
48
100
AcDbSymbolTableRecord
100
AcDbLayerTableRecord
  2
LIMITS
 70
0
 62
7
  6
CONTINUOUS
390
F
  0
LAYER
  5
49
100
AcDbSymbolTableRecord
100
AcDbLayerTableRecord
  2
T
 70
0
 62
7
  6
CONTINUOUS
390
F
  0
LAYER
  5
4A
100
AcDbSymbolTableRecord
100
AcDbLayerTableRecord
  2
CHART
 70
0
 62
1
  6
CONTINUOUS
390
F
  0
LAYER
  5
4B
100
AcDbSymbolTableRecord
100
AcDbLayerTableRecord
  2
DRAWINGS
 70
0
 62
6
  6
CONTINUOUS
390
F
  0
LAYER
  5
4C
100
AcDbSymbolTableRecord
100
AcDbLayerTableRecord
  2
EP
 70
0
 62
7
  6
CONTINUOUS
390
F
  0
LAYER
  5
4D
100
AcDbSymbolTableRecord
100
AcDbLayerTableRecord
  2
LOGO96
 70
0
 62
7
  6
CONTINUOUS
390
F
  0
LAYER
  5
4E
100
AcDbSymbolTableRecord
100
AcDbLayerTableRecord
  2
NOTES
 70
0
 62
3
  6
CONTINUOUS
390
F
  0
LAYER
  5
4F
100
AcDbSymbolTableRecord
100
AcDbLayerTableRecord
  2
DEFPOINTS
 70
1
 62
7
  6
CONTINUOUS
290
0
390
F
  0
ENDTAB
  0
TABLE
  2
STYLE
  5
3
100
AcDbSymbolTable
 70
1
  0
STYLE
  5
11
100
AcDbSymbolTableRecord
100
AcDbTextStyleTableRecord
  2
Standard
 70
0
 40
0.0
 41
0.75
 50
0.0
 71
0
 42
2.5
  3
txt
  4

  0
ENDTAB
  0
TABLE
  2
VIEW
  5
6
100
AcDbSymbolTable
 70
0
  0
ENDTAB
  0
TABLE
  2
UCS
  5
7
100
AcDbSymbolTable
 70
0
  0
ENDTAB
  0
TABLE
  2
APPID
  5
9
100
AcDbSymbolTable
 70
1
  0
APPID
  5
12
100
AcDbSymbolTableRecord
100
AcDbRegAppTableRecord
  2
ACAD
 70
0
  0
ENDTAB
  0
TABLE
  2
DIMSTYLE
  5
A
100
AcDbSymbolTable
 70
1
100
AcDbDimStyleTable
 71
0
  0
DIMSTYLE
105
27
100
AcDbSymbolTableRecord
100
AcDbDimStyleTableRecord
  2
Standard
 41
0.05
 42
0.0625
 43
3.75
 44
0.18
 70
0
 73
0
 74
0
 77
1
 78
8
140
0.1
141
2.5
143
0.03937007874016
147
0.625
171
3
172
1
271
2
272
2
274
3
278
44
283
0
284
8
340
11
  0
ENDTAB
  0
TABLE
  2
BLOCK_RECORD
  5
1
100
AcDbSymbolTable
 70
1
  0
BLOCK_RECORD
  5
1F
100
AcDbSymbolTableRecord
100
AcDbBlockTableRecord
  2
*Model_Space
340
22
  0
BLOCK_RECORD
  5
1B
100
AcDbSymbolTableRecord
100
AcDbBlockTableRecord
  2
*Paper_Space
340
1E
  0
BLOCK_RECORD
  5
23
100
AcDbSymbolTableRecord
100
AcDbBlockTableRecord
  2
*Paper_Space0
340
26
  0
BLOCK_RECORD
  5
50
100
AcDbSymbolTableRecord
100
AcDbBlockTableRecord
  2
*X0
340
0
  0
BLOCK_RECORD
  5
51
100
AcDbSymbolTableRecord
100
AcDbBlockTableRecord
  2
*D1
340
0
  0
BLOCK_RECORD
  5
52
100
AcDbSymbolTableRecord
100
AcDbBlockTableRecord
  2
*D2
340
0
  0
BLOCK_RECORD
  5
53
100
AcDbSymbolTableRecord
100
AcDbBlockTableRecord
  2
*D3
340
0
  0
BLOCK_RECORD
  5
54
100
AcDbSymbolTableRecord
100
AcDbBlockTableRecord
  2
*D4
340
0
  0
BLOCK_RECORD
  5
55
100
AcDbSymbolTableRecord
100
AcDbBlockTableRecord
  2
*D5
340
0
  0
BLOCK_RECORD
  5
56
100
AcDbSymbolTableRecord
100
AcDbBlockTableRecord
  2
*D6
340
0
  0
BLOCK_RECORD
  5
57
100
AcDbSymbolTableRecord
100
AcDbBlockTableRecord
  2
*D7
340
0
  0
BLOCK_RECORD
  5
58
100
AcDbSymbolTableRecord
100
AcDbBlockTableRecord
  2
*X8
340
0
  0
BLOCK_RECORD
  5
59
100
AcDbSymbolTableRecord
100
AcDbBlockTableRecord
  2
*X9
340
0
  0
BLOCK_RECORD
  5
5A
100
AcDbSymbolTableRecord
100
AcDbBlockTableRecord
  2
*X10
340
0
  0
BLOCK_RECORD
  5
5B
100
AcDbSymbolTableRecord
100
AcDbBlockTableRecord
  2
*X11
340
0
  0
BLOCK_RECORD
  5
5C
100
AcDbSymbolTableRecord
100
AcDbBlockTableRecord
  2
*X12
340
0
  0
BLOCK_RECORD
  5
5D
100
AcDbSymbolTableRecord
100
AcDbBlockTableRecord
  2
power_jack
340
0
  0
BLOCK_RECORD
  5
5E
100
AcDbSymbolTableRecord
100
AcDbBlockTableRecord
  2
usb_jack
340
0
  0
ENDTAB
  0
ENDSEC
  0
SECTION
  2
BLOCKS
  0
BLOCK
  5
20
100
AcDbEntity
  8
0
100
AcDbBlockBegin
  2
*Model_Space
 70
0
 10
0.0
 20
0.0
 30
0.0
  3
*Model_Space
  1

  0
ENDBLK
  5
21
100
AcDbEntity
  8
0
100
AcDbBlockEnd
  0
BLOCK
  5
1C
100
AcDbEntity
 67
1
  8
0
100
AcDbBlockBegin
  2
*Paper_Space
 70
0
 10
0.0
 20
0.0
 30
0.0
  3
*Paper_Space
  1

  0
ENDBLK
  5
1D
100
AcDbEntity
 67
1
  8
0
100
AcDbBlockEnd
  0
BLOCK
  5
24
100
AcDbEntity
  8
0
100
AcDbBlockBegin
  2
*Paper_Space0
 70
0
 10
0.0
 20
0.0
 30
0.0
  3
*Paper_Space0
  1

  0
ENDBLK
  5
25
100
AcDbEntity
  8
0
100
AcDbBlockEnd
  0
BLOCK
  5
5F
100
AcDbEntity
  8
0
100
AcDbBlockBegin
  2
*X0
 70
0
 10
0.0
 20
0.0
 30
0.0
  3
*X0
  1

  0
LINE
  5
60
100
AcDbEntity
100
AcDbLine
  8
0
 62
0
370
-1
  6
ByLayer
 10
16.7731717386050683
 20
4.5755797631371271
 30
0.0
 11
16.8406717386050708
 21
4.6430797631371279
 31
0.0
  0
LINE
  5
61
100
AcDbEntity
100
AcDbLine
  8
0
 62
0
370
-1
  6
ByLayer
 10
18.0181717386050693
 20
5.8205797631371254
 30
0.0
 11
18.0856717386050683
 21
5.8880797631371262
 31
0.0
  0
LINE
  5
62
100
AcDbEntity
100
AcDbLine
  8
0
 62
0
370
-1
  6
ByLayer
 10
16.2428416527151604
 20
4.5755797631371271
 30
0.0
 11
16.3103416527151595
 21
4.6430797631371279
 31
0.0
  0
LINE
  5
63
100
AcDbEntity
100
AcDbLine
  8
0
 62
0
370
-1
  6
ByLayer
 10
17.4878416527151508
 20
5.8205797631371237
 30
0.0
 11
17.5553416527151604
 21
5.8880797631371262
 31
0.0
  0
LINE
  5
64
100
AcDbEntity
100
AcDbLine
  8
0
 62
0
370
-1
  6
ByLayer
 10
16.9575115668252501
 20
5.8205797631371237
 30
0.0
 11
17.0250115668252491
 21
5.8880797631371262
 31
0.0
  0
LINE
  5
65
100
AcDbEntity
100
AcDbLine
  8
0
 62
0
370
-1
  6
ByLayer
 10
16.4271814809353387
 20
5.8205797631371237
 30
0.0
 11
16.4946814809353413
 21
5.8880797631371262
 31
0.0
  0
LINE
  5
66
100
AcDbEntity
100
AcDbLine
  8
0
 62
0
370
-1
  6
ByLayer
 10
15.9109000409187598
 20
5.8346284090104596
 30
0.0
 11
15.9643513950454299
 21
5.8880797631371271
 31
0.0
  0
LINE
  5
67
100
AcDbEntity
100
AcDbLine
  8
0
 62
0
370
-1
  6
ByLayer
 10
17.3035018244949796
 20
4.5755797631371271
 30
0.0
 11
17.3710018244949786
 21
4.6430797631371279
 31
0.0
  0
LINE
  5
68
100
AcDbEntity
100
AcDbLine
  8
0
 62
0
370
-1
  6
ByLayer
 10
18.5485018244949806
 20
5.8205797631371254
 30
0.0
 11
18.6160018244949796
 21
5.8880797631371262
 31
0.0
  0
LINE
  5
69
100
AcDbEntity
100
AcDbLine
  8
0
 62
0
370
-1
  6
ByLayer
 10
17.833831910384891
 20
4.5755797631371271
 30
0.0
 11
17.90133191038489
 21
4.6430797631371297
 31
0.0
  0
LINE
  5
6A
100
AcDbEntity
100
AcDbLine
  8
0
 62
0
370
-1
  6
ByLayer
 10
19.0788319103848885
 20
5.8205797631371254
 30
0.0
 11
19.146331910384891
 21
5.8880797631371262
 31
0.0
  0
LINE
  5
6B
100
AcDbEntity
100
AcDbLine
  8
0
 62
0
370
-1
  6
ByLayer
 10
18.3641619962747988
 20
4.5755797631371262
 30
0.0
 11
18.4316619962748014
 21
4.6430797631371297
 31
0.0
  0
LINE
  5
6C
100
AcDbEntity
100
AcDbLine
  8
0
 62
0
370
-1
  6
ByLayer
 10
19.6091619962747998
 20
5.8205797631371254
 30
0.0
 11
19.6766619962747988
 21
5.8880797631371262
 31
0.0
  0
LINE
  5
6D
100
AcDbEntity
100
AcDbLine
  8
0
 62
0
370
-1
  6
ByLayer
 10
18.8944920821647102
 20
4.5755797631371262
 30
0.0
 11
18.9619920821647199
 21
4.6430797631371297
 31
0.0
  0
LINE
  5
6E
100
AcDbEntity
100
AcDbLine
  8
0
 62
0
370
-1
  6
ByLayer
 10
19.4248221680546216
 20
4.5755797631371262
 30
0.0
 11
19.4923221680546206
 21
4.6430797631371297
 31
0.0
  0
LINE
  5
6F
100
AcDbEntity
100
AcDbLine
  8
0
 62
0
370
-1
  6
ByLayer
 10
16.8615600861050687
 20
4.5755797631371271
 30
0.0
 11
16.9290600861050713
 21
4.6430797631371279
 31
0.0
  0
LINE
  5
70
100
AcDbEntity
100
AcDbLine
  8
0
 62
0
370
-1
  6
ByLayer
 10
18.1065600861050697
 20
5.8205797631371254
 30
0.0
 11
18.1740600861050687
 21
5.8880797631371262
 31
0.0
  0
LINE
  5
71
100
AcDbEntity
100
AcDbLine
  8
0
 62
0
370
-1
  6
ByLayer
 10
16.3312300002151609
 20
4.5755797631371271
 30
0.0
 11
16.3987300002151599
 21
4.6430797631371279
 31
0.0
  0
LINE
  5
72
100
AcDbEntity
100
AcDbLine
  8
0
 62
0
370
-1
  6
ByLayer
 10
17.5762300002151513
 20
5.8205797631371237
 30
0.0
 11
17.6437300002151609
 21
5.8880797631371262
 31
0.0
  0
LINE
  5
73
100
AcDbEntity
100
AcDbLine
  8
0
 62
0
370
-1
  6
ByLayer
 10
17.0458999143252505
 20
5.8205797631371237
 30
0.0
 11
17.1133999143252495
 21
5.8880797631371262
 31
0.0
  0
LINE
  5
74
100
AcDbEntity
100
AcDbLine
  8
0
 62
0
370
-1
  6
ByLayer
 10
16.5155698284353392
 20
5.8205797631371237
 30
0.0
 11
16.5830698284353311
 21
5.8880797631371262
 31
0.0
  0
LINE
  5
75
100
AcDbEntity
100
AcDbLine
  8
0
 62
0
370
-1
  6
ByLayer
 10
15.9480698917321
 20
5.7834099123237959
 30
0.0
 11
15.9709000409187691
 21
5.8062400615104686
 31
0.0
  0
LINE
  5
76
100
AcDbEntity
100
AcDbLine
  8
0
 62
0
370
-1
  6
ByLayer
 10
15.9852397425454296
 20
5.8205797631371254
 30
0.0
 11
16.0527397425454303
 21
5.8880797631371271
 31
0.0
  0
LINE
  5
77
100
AcDbEntity
100
AcDbLine
  8
0
 62
0
370
-1
  6
ByLayer
 10
17.3918901719949801
 20
4.5755797631371271
 30
0.0
 11
17.4593901719949791
 21
4.6430797631371279
 31
0.0
  0
LINE
  5
78
100
AcDbEntity
100
AcDbLine
  8
0
 62
0
370
-1
  6
ByLayer
 10
18.6368901719949811
 20
5.8205797631371254
 30
0.0
 11
18.7043901719949801
 21
5.8880797631371262
 31
0.0
  0
LINE
  5
79
100
AcDbEntity
100
AcDbLine
  8
0
 62
0
370
-1
  6
ByLayer
 10
17.9222202578848915
 20
4.5755797631371262
 30
0.0
 11
17.9897202578848905
 21
4.6430797631371297
 31
0.0
  0
LINE
  5
7A
100
AcDbEntity
100
AcDbLine
  8
0
 62
0
370
-1
  6
ByLayer
 10
19.1672202578848889
 20
5.8205797631371254
 30
0.0
 11
19.2347202578848915
 21
5.8880797631371262
 31
0.0
  0
LINE
  5
7B
100
AcDbEntity
100
AcDbLine
  8
0
 62
0
370
-1
  6
ByLayer
 10
18.4525503437747993
 20
4.5755797631371262
 30
0.0
 11
18.520050343774809
 21
4.6430797631371297
 31
0.0
  0
LINE
  5
7C
100
AcDbEntity
100
AcDbLine
  8
0
 62
0
370
-1
  6
ByLayer
 10
19.6975503437748003
 20
5.8205797631371254
 30
0.0
 11
19.7650503437747993
 21
5.8880797631371253
 31
0.0
  0
LINE
  5
7D
100
AcDbEntity
100
AcDbLine
  8
0
 62
0
370
-1
  6
ByLayer
 10
18.9828804296647107
 20
4.5755797631371262
 30
0.0
 11
19.0503804296647097
 21
4.6430797631371297
 31
0.0
  0
LINE
  5
7E
100
AcDbEntity
100
AcDbLine
  8
0
 62
0
370
-1
  6
ByLayer
 10
19.5132105155546185
 20
4.5755797631371262
 30
0.0
 11
19.5807105155546211
 21
4.6430797631371297
 31
0.0
  0
LINE
  5
7F
100
AcDbEntity
100
AcDbLine
  8
0
 62
0
370
-1
  6
ByLayer
 10
16.949948434105071
 20
4.5755797631371271
 30
0.0
 11
17.01744843410507
 21
4.6430797631371279
 31
0.0
  0
LINE
  5
80
100
AcDbEntity
100
AcDbLine
  8
0
 62
0
370
-1
  6
ByLayer
 10
18.1949484341050685
 20
5.8205797631371254
 30
0.0
 11
18.262448434105071
 21
5.8880797631371262
 31
0.0
  0
LINE
  5
81
100
AcDbEntity
100
AcDbLine
  8
0
 62
0
370
-1
  6
ByLayer
 10
16.4196183482151596
 20
4.5755797631371271
 30
0.0
 11
16.4871183482151586
 21
4.6430797631371279
 31
0.0
  0
LINE
  5
82
100
AcDbEntity
100
AcDbLine
  8
0
 62
0
370
-1
  6
ByLayer
 10
17.6646183482151606
 20
5.8205797631371237
 30
0.0
 11
17.7321183482151596
 21
5.8880797631371262
 31
0.0
  0
LINE
  5
83
100
AcDbEntity
100
AcDbLine
  8
0
 62
0
370
-1
  6
ByLayer
 10
15.9109000409187598
 20
4.5971915417306386
 30
0.0
 11
15.9709000409187691
 21
4.6571915417306471
 31
0.0
  0
LINE
  5
84
100
AcDbEntity
100
AcDbLine
  8
0
 62
0
370
-1
  6
ByLayer
 10
17.1342882623252493
 20
5.8205797631371237
 30
0.0
 11
17.2017882623252483
 21
5.8880797631371262
 31
0.0
  0
LINE
  5
85
100
AcDbEntity
100
AcDbLine
  8
0
 62
0
370
-1
  6
ByLayer
 10
16.6039581764353414
 20
5.8205797631371237
 30
0.0
 11
16.6714581764353404
 21
5.8880797631371262
 31
0.0
  0
LINE
  5
86
100
AcDbEntity
100
AcDbLine
  8
0
 62
0
370
-1
  6
ByLayer
 10
16.0586280905454295
 20
5.8055797631371284
 30
0.0
 11
16.1411280905454291
 21
5.8880797631371262
 31
0.0
  0
LINE
  5
87
100
AcDbEntity
100
AcDbLine
  8
0
 62
0
370
-1
  6
ByLayer
 10
17.4802785199949788
 20
4.5755797631371271
 30
0.0
 11
17.5477785199949814
 21
4.6430797631371279
 31
0.0
  0
LINE
  5
88
100
AcDbEntity
100
AcDbLine
  8
0
 62
0
370
-1
  6
ByLayer
 10
18.7252785199949798
 20
5.8205797631371254
 30
0.0
 11
18.7927785199949788
 21
5.8880797631371262
 31
0.0
  0
LINE
  5
89
100
AcDbEntity
100
AcDbLine
  8
0
 62
0
370
-1
  6
ByLayer
 10
18.0106086058848902
 20
4.5755797631371262
 30
0.0
 11
18.0781086058848892
 21
4.6430797631371297
 31
0.0
  0
LINE
  5
8A
100
AcDbEntity
100
AcDbLine
  8
0
 62
0
370
-1
  6
ByLayer
 10
19.2556086058848912
 20
5.8205797631371254
 30
0.0
 11
19.3231086058848902
 21
5.8880797631371262
 31
0.0
  0
LINE
  5
8B
100
AcDbEntity
100
AcDbLine
  8
0
 62
0
370
-1
  6
ByLayer
 10
18.5409386917748016
 20
4.5755797631371262
 30
0.0
 11
18.6084386917748006
 21
4.6430797631371297
 31
0.0
  0
LINE
  5
8C
100
AcDbEntity
100
AcDbLine
  8
0
 62
0
370
-1
  6
ByLayer
 10
19.785938691774799
 20
5.8205797631371228
 30
0.0
 11
19.8534386917748016
 21
5.8880797631371262
 31
0.0
  0
LINE
  5
8D
100
AcDbEntity
100
AcDbLine
  8
0
 62
0
370
-1
  6
ByLayer
 10
19.0712687776647094
 20
4.5755797631371262
 30
0.0
 11
19.1387687776647191
 21
4.6430797631371297
 31
0.0
  0
LINE
  5
8E
100
AcDbEntity
100
AcDbLine
  8
0
 62
0
370
-1
  6
ByLayer
 10
19.6015988635546208
 20
4.5755797631371262
 30
0.0
 11
19.6690988635546304
 21
4.6430797631371297
 31
0.0
  0
LINE
  5
8F
100
AcDbEntity
100
AcDbLine
  8
0
 62
0
370
-1
  6
ByLayer
 10
17.0383367816050715
 20
4.5755797631371271
 30
0.0
 11
17.1058367816050705
 21
4.6430797631371279
 31
0.0
  0
LINE
  5
90
100
AcDbEntity
100
AcDbLine
  8
0
 62
0
370
-1
  6
ByLayer
 10
18.2833367816050689
 20
5.8205797631371254
 30
0.0
 11
18.3508367816050715
 21
5.8880797631371262
 31
0.0
  0
LINE
  5
91
100
AcDbEntity
100
AcDbLine
  8
0
 62
0
370
-1
  6
ByLayer
 10
16.5080066957151601
 20
4.5755797631371271
 30
0.0
 11
16.5755066957151591
 21
4.6430797631371279
 31
0.0
  0
LINE
  5
92
100
AcDbEntity
100
AcDbLine
  8
0
 62
0
370
-1
  6
ByLayer
 10
17.7530066957151504
 20
5.8205797631371237
 30
0.0
 11
17.8205066957151601
 21
5.8880797631371262
 31
0.0
  0
LINE
  5
93
100
AcDbEntity
100
AcDbLine
  8
0
 62
0
370
-1
  6
ByLayer
 10
15.9776766098252505
 20
4.5755797631371262
 30
0.0
 11
16.0601766098252483
 21
4.6580797631371258
 31
0.0
  0
LINE
  5
94
100
AcDbEntity
100
AcDbLine
  8
0
 62
0
370
-1
  6
ByLayer
 10
17.2226766098252497
 20
5.8205797631371237
 30
0.0
 11
17.2901766098252487
 21
5.8880797631371262
 31
0.0
  0
LINE
  5
95
100
AcDbEntity
100
AcDbLine
  8
0
 62
0
370
-1
  6
ByLayer
 10
16.6923465239353312
 20
5.8205797631371237
 30
0.0
 11
16.7598465239353303
 21
5.8880797631371262
 31
0.0
  0
LINE
  5
96
100
AcDbEntity
100
AcDbLine
  8
0
 62
0
370
-1
  6
ByLayer
 10
16.1620164380454305
 20
5.8205797631371237
 30
0.0
 11
16.2295164380454295
 21
5.8880797631371262
 31
0.0
  0
LINE
  5
97
100
AcDbEntity
100
AcDbLine
  8
0
 62
0
370
-1
  6
ByLayer
 10
17.5686668674949793
 20
4.5755797631371271
 30
0.0
 11
17.6361668674949783
 21
4.6430797631371279
 31
0.0
  0
LINE
  5
98
100
AcDbEntity
100
AcDbLine
  8
0
 62
0
370
-1
  6
ByLayer
 10
18.8136668674949803
 20
5.8205797631371254
 30
0.0
 11
18.8811668674949793
 21
5.8880797631371262
 31
0.0
  0
LINE
  5
99
100
AcDbEntity
100
AcDbLine
  8
0
 62
0
370
-1
  6
ByLayer
 10
18.0989969533848907
 20
4.5755797631371262
 30
0.0
 11
18.1664969533848897
 21
4.6430797631371297
 31
0.0
  0
LINE
  5
9A
100
AcDbEntity
100
AcDbLine
  8
0
 62
0
370
-1
  6
ByLayer
 10
19.3439969533848917
 20
5.8205797631371254
 30
0.0
 11
19.4114969533848907
 21
5.8880797631371262
 31
0.0
  0
LINE
  5
9B
100
AcDbEntity
100
AcDbLine
  8
0
 62
0
370
-1
  6
ByLayer
 10
18.6293270392747985
 20
4.5755797631371262
 30
0.0
 11
18.6968270392748011
 21
4.6430797631371297
 31
0.0
  0
LINE
  5
9C
100
AcDbEntity
100
AcDbLine
  8
0
 62
0
370
-1
  6
ByLayer
 10
19.8259000409187607
 20
5.7721527647810849
 30
0.0
 11
19.8859000409187594
 21
5.8321527647810871
 31
0.0
  0
LINE
  5
9D
100
AcDbEntity
100
AcDbLine
  8
0
 62
0
370
-1
  6
ByLayer
 10
19.1596571251647099
 20
4.5755797631371262
 30
0.0
 11
19.2271571251647195
 21
4.6430797631371297
 31
0.0
  0
LINE
  5
9E
100
AcDbEntity
100
AcDbLine
  8
0
 62
0
370
-1
  6
ByLayer
 10
19.6899872110546212
 20
4.5755797631371262
 30
0.0
 11
19.758400040918751
 21
4.6439925930012604
 31
0.0
  0
ENDBLK
  5
9F
100
AcDbEntity
  8
0
100
AcDbBlockEnd
  0
BLOCK
  5
A0
100
AcDbEntity
  8
0
100
AcDbBlockBegin
  2
*D1
 70
0
 10
0.0
 20
0.0
 30
0.0
  3
*D1
  1

  0
LINE
  5
A1
100
AcDbEntity
100
AcDbLine
  8
0
 62
256
370
-1
  6
ByBlock
 10
20.9654838391469589
 20
14.4897942363421492
 30
0.0
 11
21.4155342254707683
 21
14.4897942363421492
 31
0.0
  0
LINE
  5
A2
100
AcDbEntity
100
AcDbLine
  8
0
 62
256
370
-1
  6
ByBlock
 10
20.9654838391469589
 20
9.6697942363421561
 30
0.0
 11
21.4155342254707683
 21
9.6697942363421561
 31
0.0
  0
LINE
  5
A3
100
AcDbEntity
100
AcDbLine
  8
0
 62
256
370
-1
  6
ByBlock
 10
21.2355342254707686
 20
14.3097942363421495
 30
0.0
 11
21.2355342254707686
 21
11.7940855927273294
 31
0.0
  0
LINE
  5
A4
100
AcDbEntity
100
AcDbLine
  8
0
 62
256
370
-1
  6
ByBlock
 10
21.2355342254707686
 20
9.8497942363421558
 30
0.0
 11
21.2355342254707686
 21
11.4880855927273302
 31
0.0
  0
MTEXT
  5
A5
100
AcDbEntity
100
AcDbMText
  8
0
 62
256
370
-1
  6
ByBlock
 10
20.6492418836157299
 20
11.5780855927273407
 30
0.0
 40
0.1304447987316704
 41
100.0
 71
7
 72
2
  1
4.82000000
  7
STANDARD
 50
0.0
 73
0
 44
1.0
  0
POINT
  5
A6
100
AcDbEntity
100
AcDbPoint
  8
DEFPOINTS
 62
0
370
-1
  6
ByBlock
 10
20.9029838391469589
 20
14.4897942363421492
 30
0.0
  0
POINT
  5
A7
100
AcDbEntity
100
AcDbPoint
  8
DEFPOINTS
 62
0
370
-1
  6
ByBlock
 10
20.9029838391469589
 20
9.6697942363421561
 30
0.0
  0
POINT
  5
A8
100
AcDbEntity
100
AcDbPoint
  8
DEFPOINTS
 62
0
370
-1
  6
ByBlock
 10
21.2355342254707686
 20
9.6697942363421561
 30
0.0
  0
ENDBLK
  5
A9
100
AcDbEntity
  8
0
100
AcDbBlockEnd
  0
BLOCK
  5
AA
100
AcDbEntity
  8
0
100
AcDbBlockBegin
  2
*D2
 70
0
 10
0.0
 20
0.0
 30
0.0
  3
*D2
  1

  0
LINE
  5
AB
100
AcDbEntity
100
AcDbLine
  8
0
 62
256
370
-1
  6
ByBlock
 10
14.5012367279415209
 20
15.3966305056434596
 30
0.0
 11
14.5012367279415209
 21
18.0974853429410807
 31
0.0
  0
LINE
  5
AC
100
AcDbEntity
100
AcDbLine
  8
0
 62
256
370
-1
  6
ByBlock
 10
17.8012367279415287
 20
15.3966305056434596
 30
0.0
 11
17.8012367279415287
 21
18.0974853429410807
 31
0.0
  0
LINE
  5
AD
100
AcDbEntity
100
AcDbLine
  8
0
 62
256
370
-1
  6
ByBlock
 10
14.6812367279415206
 20
17.917485342941081
 30
0.0
 11
15.8158700337160205
 21
17.917485342941081
 31
0.0
  0
LINE
  5
AE
100
AcDbEntity
100
AcDbLine
  8
0
 62
256
370
-1
  6
ByBlock
 10
17.621236727941529
 20
17.917485342941081
 30
0.0
 11
17.1147700707256512
 21
17.917485342941081
 31
0.0
  0
MTEXT
  5
AF
100
AcDbEntity
100
AcDbMText
  8
0
 62
256
370
-1
  6
ByBlock
 10
15.8814392530976694
 20
17.8544853429410786
 30
0.0
 40
0.1304447987316704
 41
100.0
 71
7
 72
2
  1
3.30000000
  7
STANDARD
 50
0.0
 73
0
 44
1.0
  0
POINT
  5
B0
100
AcDbEntity
100
AcDbPoint
  8
DEFPOINTS
 62
0
370
-1
  6
ByBlock
 10
14.5012367279415209
 20
15.3341305056434596
 30
0.0
  0
POINT
  5
B1
100
AcDbEntity
100
AcDbPoint
  8
DEFPOINTS
 62
0
370
-1
  6
ByBlock
 10
17.8012367279415287
 20
15.3341305056434596
 30
0.0
  0
POINT
  5
B2
100
AcDbEntity
100
AcDbPoint
  8
DEFPOINTS
 62
0
370
-1
  6
ByBlock
 10
17.8012367279415287
 20
17.917485342941081
 30
0.0
  0
ENDBLK
  5
B3
100
AcDbEntity
  8
0
100
AcDbBlockEnd
  0
BLOCK
  5
B4
100
AcDbEntity
  8
0
100
AcDbBlockBegin
  2
*D3
 70
0
 10
0.0
 20
0.0
 30
0.0
  3
*D3
  1

  0
LINE
  5
B5
100
AcDbEntity
100
AcDbLine
  8
0
 62
256
370
-1
  6
ByBlock
 10
14.6857373107581299
 20
11.2837712173076508
 30
0.0
 11
14.5057373107581302
 21
11.2837712173076508
 31
0.0
  0
LINE
  5
B6
100
AcDbEntity
100
AcDbLine
  8
0
 62
256
370
-1
  6
ByBlock
 10
14.5057373107581302
 20
11.2837712173076508
 30
0.0
 11
14.2642416520617292
 21
10.9617905431743807
 31
0.0
  0
MTEXT
  5
B7
100
AcDbEntity
100
AcDbMText
  8
0
 62
256
370
-1
  6
ByBlock
 10
14.7493257680262495
 20
11.2207712173076501
 30
0.0
 40
0.1304447987316704
 41
100.0
 71
7
 72
2
  1
%%c0.25
  7
STANDARD
 50
0.0
 73
0
 44
1.0
  0
LINE
  5
B8
100
AcDbEntity
100
AcDbLine
  8
0
 62
256
370
-1
  6
ByBlock
 10
13.9912367279415193
 20
10.7177942363421703
 30
0.0
 11
14.1712367279415208
 21
10.7177942363421703
 31
0.0
  0
LINE
  5
B9
100
AcDbEntity
100
AcDbLine
  8
0
 62
256
370
-1
  6
ByBlock
 10
14.0812367279415191
 20
10.6277942363421705
 30
0.0
 11
14.0812367279415191
 21
10.8077942363421702
 31
0.0
  0
POINT
  5
BA
100
AcDbEntity
100
AcDbPoint
  8
DEFPOINTS
 62
0
370
-1
  6
ByBlock
 10
14.1562387460235701
 20
10.8177927227488109
 30
0.0
  0
POINT
  5
BB
100
AcDbEntity
100
AcDbPoint
  8
DEFPOINTS
 62
0
370
-1
  6
ByBlock
 10
14.0062347098594699
 20
10.6177957499355298
 30
0.0
  0
ENDBLK
  5
BC
100
AcDbEntity
  8
0
100
AcDbBlockEnd
  0
BLOCK
  5
BD
100
AcDbEntity
  8
0
100
AcDbBlockBegin
  2
*D4
 70
0
 10
0.0
 20
0.0
 30
0.0
  3
*D4
  1

  0
LINE
  5
BE
100
AcDbEntity
100
AcDbLine
  8
0
 62
256
370
-1
  6
ByBlock
 10
10.3712278740380004
 20
10.4733833195775805
 30
0.0
 11
10.5512278740380001
 21
10.4733833195775805
 31
0.0
  0
LINE
  5
BF
100
AcDbEntity
100
AcDbLine
  8
0
 62
256
370
-1
  6
ByBlock
 10
10.5512278740380001
 20
10.4733833195775805
 30
0.0
 11
11.1901984144218503
 21
10.2432922082871407
 31
0.0
  0
MTEXT
  5
C0
100
AcDbEntity
100
AcDbMText
  8
0
 62
256
370
-1
  6
ByBlock
 10
9.7710547330597972
 20
10.4103833195775799
 30
0.0
 40
0.1304447987316704
 41
100.0
 71
7
 72
2
  1
%%c0.31
  7
STANDARD
 50
0.0
 73
0
 44
1.0
  0
LINE
  5
C1
100
AcDbEntity
100
AcDbLine
  8
0
 62
256
370
-1
  6
ByBlock
 10
11.4153859940698705
 20
10.1297942363421694
 30
0.0
 11
11.5953859940698703
 21
10.1297942363421694
 31
0.0
  0
LINE
  5
C2
100
AcDbEntity
100
AcDbLine
  8
0
 62
256
370
-1
  6
ByBlock
 10
11.5053859940698704
 20
10.0397942363421695
 30
0.0
 11
11.5053859940698704
 21
10.2197942363421692
 31
0.0
  0
POINT
  5
C3
100
AcDbEntity
100
AcDbPoint
  8
DEFPOINTS
 62
0
370
-1
  6
ByBlock
 10
11.3595529348297397
 20
10.1823082233614794
 30
0.0
  0
POINT
  5
C4
100
AcDbEntity
100
AcDbPoint
  8
DEFPOINTS
 62
0
370
-1
  6
ByBlock
 10
11.6512190533099993
 20
10.0772802493228504
 30
0.0
  0
ENDBLK
  5
C5
100
AcDbEntity
  8
0
100
AcDbBlockEnd
  0
BLOCK
  5
C6
100
AcDbEntity
  8
0
100
AcDbBlockBegin
  2
*D5
 70
0
 10
0.0
 20
0.0
 30
0.0
  3
*D5
  1

  0
LINE
  5
C7
100
AcDbEntity
100
AcDbLine
  8
0
 62
256
370
-1
  6
ByBlock
 10
19.8786493542020395
 20
7.3323963941189483
 30
0.0
 11
20.1476798308262985
 21
7.3323963941189483
 31
0.0
  0
LINE
  5
C8
100
AcDbEntity
100
AcDbLine
  8
0
 62
256
370
-1
  6
ByBlock
 10
19.8786493542020395
 20
7.5723963941189334
 30
0.0
 11
20.1476798308262985
 21
7.5723963941189334
 31
0.0
  0
LINE
  5
C9
100
AcDbEntity
100
AcDbLine
  8
0
 62
256
370
-1
  6
ByBlock
 10
19.9676798308262988
 20
7.1523963941189486
 30
0.0
 11
19.9676798308262988
 21
6.972396394118948
 31
0.0
  0
LINE
  5
CA
100
AcDbEntity
100
AcDbLine
  8
0
 62
256
370
-1
  6
ByBlock
 10
19.9676798308262988
 20
7.7523963941189322
 30
0.0
 11
19.9676798308262988
 21
8.3103806542648897
 31
0.0
  0
LINE
  5
CB
100
AcDbEntity
100
AcDbLine
  8
0
 62
256
370
-1
  6
ByBlock
 10
19.9676798308262988
 20
8.3103806542648897
 30
0.0
 11
20.1476798308262985
 21
8.3103806542648897
 31
0.0
  0
MTEXT
  5
CC
100
AcDbEntity
100
AcDbMText
  8
0
 62
256
370
-1
  6
ByBlock
 10
20.2072490502079489
 20
8.2473806542648909
 30
0.0
 40
0.1304447987316704
 41
100.0
 71
7
 72
2
  1
0.24
  7
STANDARD
 50
0.0
 73
0
 44
1.0
  0
POINT
  5
CD
100
AcDbEntity
100
AcDbPoint
  8
DEFPOINTS
 62
0
370
-1
  6
ByBlock
 10
19.8161493542020395
 20
7.3323963941189483
 30
0.0
  0
POINT
  5
CE
100
AcDbEntity
100
AcDbPoint
  8
DEFPOINTS
 62
0
370
-1
  6
ByBlock
 10
19.8161493542020395
 20
7.5723963941189334
 30
0.0
  0
POINT
  5
CF
100
AcDbEntity
100
AcDbPoint
  8
DEFPOINTS
 62
0
370
-1
  6
ByBlock
 10
19.9676798308262988
 20
7.5723963941189334
 30
0.0
  0
ENDBLK
  5
D0
100
AcDbEntity
  8
0
100
AcDbBlockEnd
  0
BLOCK
  5
D1
100
AcDbEntity
  8
0
100
AcDbBlockBegin
  2
*D6
 70
0
 10
0.0
 20
0.0
 30
0.0
  3
*D6
  1

  0
LINE
  5
D2
100
AcDbEntity
100
AcDbLine
  8
0
 62
256
370
-1
  6
ByBlock
 10
12.3612111674230807
 20
9.1662570789297035
 30
0.0
 11
12.1812111674230792
 21
9.1662570789297018
 31
0.0
  0
LINE
  5
D3
100
AcDbEntity
100
AcDbLine
  8
0
 62
256
370
-1
  6
ByBlock
 10
12.1812111674230792
 20
9.1662570789297018
 30
0.0
 11
11.6977535310372591
 21
9.8555320794172658
 31
0.0
  0
MTEXT
  5
D4
100
AcDbEntity
100
AcDbMText
  8
0
 62
256
370
-1
  6
ByBlock
 10
12.4247996246912003
 20
9.1032570789297029
 30
0.0
 40
0.1304447987316704
 41
100.0
 71
7
 72
2
  1
%%c0.31
  7
STANDARD
 50
0.0
 73
0
 44
1.0
  0
LINE
  5
D5
100
AcDbEntity
100
AcDbLine
  8
0
 62
256
370
-1
  6
ByBlock
 10
11.4153859940698705
 20
10.1297942363421694
 30
0.0
 11
11.5953859940698703
 21
10.1297942363421694
 31
0.0
  0
LINE
  5
D6
100
AcDbEntity
100
AcDbLine
  8
0
 62
256
370
-1
  6
ByBlock
 10
11.5053859940698704
 20
10.0397942363421695
 30
0.0
 11
11.5053859940698704
 21
10.2197942363421692
 31
0.0
  0
POINT
  5
D7
100
AcDbEntity
100
AcDbPoint
  8
DEFPOINTS
 62
0
370
-1
  6
ByBlock
 10
11.5943918693831396
 20
10.0028968204515394
 30
0.0
  0
POINT
  5
D8
100
AcDbEntity
100
AcDbPoint
  8
DEFPOINTS
 62
0
370
-1
  6
ByBlock
 10
11.4163801187565994
 20
10.2566916522327904
 30
0.0
  0
ENDBLK
  5
D9
100
AcDbEntity
  8
0
100
AcDbBlockEnd
  0
BLOCK
  5
DA
100
AcDbEntity
  8
0
100
AcDbBlockBegin
  2
*D7
 70
0
 10
0.0
 20
0.0
 30
0.0
  3
*D7
  1

  0
LINE
  5
DB
100
AcDbEntity
100
AcDbLine
  8
0
 62
256
370
-1
  6
ByBlock
 10
13.2062593032708993
 20
11.5143055847606508
 30
0.0
 11
13.3862593032709007
 21
11.5143055847606508
 31
0.0
  0
LINE
  5
DC
100
AcDbEntity
100
AcDbLine
  8
0
 62
256
370
-1
  6
ByBlock
 10
13.3862593032709007
 20
11.5143055847606508
 30
0.0
 11
13.8807149488210495
 21
10.9476115901219995
 31
0.0
  0
MTEXT
  5
DD
100
AcDbEntity
100
AcDbMText
  8
0
 62
256
370
-1
  6
ByBlock
 10
12.5820861622927005
 20
11.4513055847606502
 30
0.0
 40
0.1304447987316704
 41
100.0
 71
7
 72
2
  1
%%c0.25
  7
STANDARD
 50
0.0
 73
0
 44
1.0
  0
LINE
  5
DE
100
AcDbEntity
100
AcDbLine
  8
0
 62
256
370
-1
  6
ByBlock
 10
13.9912367279415299
 20
10.7177942363421703
 30
0.0
 11
14.1712367279415297
 21
10.7177942363421703
 31
0.0
  0
LINE
  5
DF
100
AcDbEntity
100
AcDbLine
  8
0
 62
256
370
-1
  6
ByBlock
 10
14.0812367279415298
 20
10.6277942363421705
 30
0.0
 11
14.0812367279415298
 21
10.8077942363421702
 31
0.0
  0
POINT
  5
E0
100
AcDbEntity
100
AcDbPoint
  8
DEFPOINTS
 62
0
370
-1
  6
ByBlock
 10
13.9990556709249407
 20
10.8119816764158703
 30
0.0
  0
POINT
  5
E1
100
AcDbEntity
100
AcDbPoint
  8
DEFPOINTS
 62
0
370
-1
  6
ByBlock
 10
14.16341778495811
 20
10.6236067962684793
 30
0.0
  0
ENDBLK
  5
E2
100
AcDbEntity
  8
0
100
AcDbBlockEnd
  0
BLOCK
  5
E3
100
AcDbEntity
  8
0
100
AcDbBlockBegin
  2
*X8
 70
0
 10
0.0
 20
0.0
 30
0.0
  3
*X8
  1

  0
LINE
  5
E4
100
AcDbEntity
100
AcDbLine
  8
DM
 62
256
370
-1
  6
ByLayer
 10
11.9746609823352799
 20
4.3467290664056826
 30
0.0
 11
11.62713816032179
 21
4.7517739588453516
 31
0.0
  0
ENDBLK
  5
E5
100
AcDbEntity
  8
0
100
AcDbBlockEnd
  0
BLOCK
  5
E6
100
AcDbEntity
  8
0
100
AcDbBlockBegin
  2
*X9
 70
0
 10
0.0
 20
0.0
 30
0.0
  3
*X9
  1

  0
LINE
  5
E7
100
AcDbEntity
100
AcDbLine
  8
DM
 62
256
370
-1
  6
ByLayer
 10
11.9047061827267893
 20
3.3882466444978432
 30
0.0
 11
11.6755477854253407
 21
3.165500799103429
 31
0.0
  0
ENDBLK
  5
E8
100
AcDbEntity
  8
0
100
AcDbBlockEnd
  0
BLOCK
  5
E9
100
AcDbEntity
  8
0
100
AcDbBlockBegin
  2
*X10
 70
0
 10
0.0
 20
0.0
 30
0.0
  3
*X10
  1

  0
LINE
  5
EA
100
AcDbEntity
100
AcDbLine
  8
DM
 62
256
370
-1
  6
ByLayer
 10
11.7202104118234907
 20
5.8722359856089348
 30
0.0
 11
12.4439080139435596
 21
5.5107429233482534
 31
0.0
  0
ENDBLK
  5
EB
100
AcDbEntity
  8
0
100
AcDbBlockEnd
  0
BLOCK
  5
EC
100
AcDbEntity
  8
0
100
AcDbBlockBegin
  2
*X11
 70
0
 10
0.0
 20
0.0
 30
0.0
  3
*X11
  1

  0
LINE
  5
ED
100
AcDbEntity
100
AcDbLine
  8
DM
 62
256
370
-1
  6
ByLayer
 10
11.6796847768941792
 20
7.089518512480554
 30
0.0
 11
12.2428339410926501
 21
7.5395948473558514
 31
0.0
  0
ENDBLK
  5
EE
100
AcDbEntity
  8
0
100
AcDbBlockEnd
  0
BLOCK
  5
EF
100
AcDbEntity
  8
0
100
AcDbBlockBegin
  2
*X12
 70
0
 10
0.0
 20
0.0
 30
0.0
  3
*X12
  1

  0
LINE
  5
F0
100
AcDbEntity
100
AcDbLine
  8
DM
 62
256
370
-1
  6
ByLayer
 10
14.1499471817988205
 20
14.4348771908105409
 30
0.0
 11
13.4015563065535392
 21
15.19257532835441
 31
0.0
  0
ENDBLK
  5
F1
100
AcDbEntity
  8
0
100
AcDbBlockEnd
  0
BLOCK
  5
F2
100
AcDbEntity
  8
0
100
AcDbBlockBegin
  2
power_jack
 70
0
 10
0.0
 20
0.0
 30
0.0
  3
power_jack
  1

  0
LINE
  5
F3
100
AcDbEntity
100
AcDbLine
  8
0
 62
256
370
-1
  6
ByLayer
 10
0.0
 20
0.0
 30
0.0
 11
0.363
 21
0.0
 31
0.0
  0
LINE
  5
F4
100
AcDbEntity
100
AcDbLine
  8
0
 62
256
370
-1
  6
ByLayer
 10
0.363
 20
0.0
 30
0.0
 11
0.363
 21
0.44
 31
0.0
  0
LINE
  5
F5
100
AcDbEntity
100
AcDbLine
  8
0
 62
256
370
-1
  6
ByLayer
 10
0.363
 20
0.44
 30
0.0
 11
0.0
 21
0.44
 31
0.0
  0
LINE
  5
F6
100
AcDbEntity
100
AcDbLine
  8
0
 62
256
370
-1
  6
ByLayer
 10
0.0
 20
0.44
 30
0.0
 11
0.0
 21
0.0
 31
0.0
  0
ENDBLK
  5
F7
100
AcDbEntity
  8
0
100
AcDbBlockEnd
  0
BLOCK
  5
F8
100
AcDbEntity
  8
0
100
AcDbBlockBegin
  2
usb_jack
 70
0
 10
0.0
 20
0.0
 30
0.0
  3
usb_jack
  1

  0
LINE
  5
F9
100
AcDbEntity
100
AcDbLine
  8
0
 62
256
370
-1
  6
ByLayer
 10
0.492
 20
0.0
 30
0.0
 11
0.0
 21
0.0
 31
0.0
  0
LINE
  5
FA
100
AcDbEntity
100
AcDbLine
  8
0
 62
256
370
-1
  6
ByLayer
 10
0.0
 20
0.0
 30
0.0
 11
0.0
 21
0.44
 31
0.0
  0
LINE
  5
FB
100
AcDbEntity
100
AcDbLine
  8
0
 62
256
370
-1
  6
ByLayer
 10
0.0
 20
0.44
 30
0.0
 11
0.492
 21
0.44
 31
0.0
  0
LINE
  5
FC
100
AcDbEntity
100
AcDbLine
  8
0
 62
256
370
-1
  6
ByLayer
 10
0.492
 20
0.44
 30
0.0
 11
0.492
 21
0.0
 31
0.0
  0
ENDBLK
  5
FD
100
AcDbEntity
  8
0
100
AcDbBlockEnd
  0
ENDSEC
  0
SECTION
  2
ENTITIES
  0
HATCH
  5
FE
  8
0
 62
256
370
-1
  6
ByLayer
100
AcDbEntity
100
AcDbHatch
 10
0.0
 20
0.0
 30
0.0
210
0.0
220
0.0
230
1.0
  2
SOLID
 70
1
 71
0
 91
1
 92
1
 93
1
 72
2
 10
-1.520414258717443
 20
0.42
 40
0.0432
 50
0.0
 51
360.0
 73
1
 97
0
 75
0
 76
1
 98
0
  0
LINE
  5
FF
100
AcDbEntity
100
AcDbLine
  8
0
 62
7
370
-1
  6
ByLayer
 10
-1.5944908880903956
 20
-1.3492822034197065
 30
0.0
 11
-1.0568359731137018
 21
-1.3492822034197065
 31
0.0
  0
LINE
  5
100
100
AcDbEntity
100
AcDbLine
  8
0
 62
7
370
-1
  6
ByLayer
 10
-2.3950654572645806
 20
-1.3692827500356983
 30
0.0
 11
2.3950654572645522
 21
-1.3692827500356983
 31
0.0
  0
LINE
  5
101
100
AcDbEntity
100
AcDbLine
  8
0
 62
7
370
-1
  6
ByLayer
 10
2.4550670971125079
 20
-1.4492849364996496
 30
0.0
 11
-2.4550670971125363
 21
-1.4492849364996432
 31
0.0
  0
LINE
  5
102
100
AcDbEntity
100
AcDbLine
  8
0
 62
7
370
-1
  6
ByLayer
 10
-2.3950654572645687
 20
-1.3492822034197065
 30
0.0
 11
2.3950654572645522
 21
-1.3492822034197141
 31
0.0
  0
LINE
  5
103
100
AcDbEntity
100
AcDbLine
  8
0
 62
7
370
-1
  6
ByLayer
 10
-2.12005794129476
 20
1.4600399029671194
 30
0.0
 11
2.1200579412947316
 21
1.4600399029671194
 31
0.0
  0
LINE
  5
104
100
AcDbEntity
100
AcDbLine
  8
0
 62
7
370
-1
  6
ByLayer
 10
-2.1660988188730776
 20
1.5200415428150869
 30
0.0
 11
2.166098818873047
 21
1.5200415428150869
 31
0.0
  0
LINE
  5
105
100
AcDbEntity
100
AcDbLine
  8
0
 62
7
370
-1
  6
ByLayer
 10
-2.1730593898271082
 20
0.0600016398479688
 30
0.0
 11
2.173059389827094
 21
0.0600016398479688
 31
0.0
  0
LINE
  5
106
100
AcDbEntity
100
AcDbLine
  8
0
 62
7
370
-1
  6
ByLayer
 10
-2.1979128828167713
 20
0.0
 30
0.0
 11
2.1979128828167429
 21
0.0
 31
0.0
  0
LINE
  5
107
100
AcDbEntity
100
AcDbLine
  8
0
 62
7
370
-1
  6
ByLayer
 10
-2.3950654572645687
 20
-1.3692827500356983
 30
0.0
 11
-2.4550670971125506
 21
-1.3692827500356983
 31
0.0
  0
LINE
  5
108
100
AcDbEntity
100
AcDbLine
  8
0
 62
7
370
-1
  6
ByLayer
 10
-2.4550670971125506
 20
-1.4492849364996496
 30
0.0
 11
-2.4550670971125506
 21
-1.3692827500356983
 31
0.0
  0
LINE
  5
109
100
AcDbEntity
100
AcDbLine
  8
0
 62
7
370
-1
  6
ByLayer
 10
-2.3950654572645687
 20
-1.3492822034197065
 30
0.0
 11
-2.3950654572645806
 21
-1.3692827500356983
 31
0.0
  0
LINE
  5
10A
100
AcDbEntity
100
AcDbLine
  8
0
 62
7
370
-1
  6
ByLayer
 10
-2.450987948050134
 20
0.4568208382023354
 30
0.0
 11
-2.1660988188730776
 21
1.5200415428150869
 31
0.0
  0
LINE
  5
10B
100
AcDbEntity
100
AcDbLine
  8
0
 62
7
370
-1
  6
ByLayer
 10
-2.391261443823641
 20
0.4478946523386417
 30
0.0
 11
-2.12005794129476
 21
1.4600399029671194
 31
0.0
  0
LINE
  5
10C
100
AcDbEntity
100
AcDbLine
  8
0
 62
7
370
-1
  6
ByLayer
 10
-2.1730593898271082
 20
0.0600016398479688
 30
0.0
 11
-2.3929288102632071
 21
0.2798710602840725
 31
0.0
  0
LINE
  5
10D
100
AcDbEntity
100
AcDbLine
  8
0
 62
7
370
-1
  6
ByLayer
 10
-2.1979128828167713
 20
0.0
 30
0.0
 11
-2.4520690395492566
 21
0.2541561567324838
 31
0.0
  0
LINE
  5
10E
100
AcDbEntity
100
AcDbLine
  8
0
 62
7
370
-1
  6
ByLayer
 10
-2.3950288836070857
 20
0.3400092924717988
 30
0.0
 11
-2.391261443823641
 21
0.4478946523386417
 31
0.0
  0
LINE
  5
10F
100
AcDbEntity
100
AcDbLine
  8
0
 62
7
370
-1
  6
ByLayer
 10
-2.3929288102632071
 20
0.2798710602840725
 30
0.0
 11
-2.3950288836070857
 21
0.3400092924717988
 31
0.0
  0
LINE
  5
110
100
AcDbEntity
100
AcDbLine
  8
0
 62
7
370
-1
  6
ByLayer
 10
-2.4550670971125363
 20
0.3400092924717925
 30
0.0
 11
-2.450987948050134
 21
0.4568208382023354
 31
0.0
  0
LINE
  5
111
100
AcDbEntity
100
AcDbLine
  8
0
 62
7
370
-1
  6
ByLayer
 10
-2.4520690395492566
 20
0.2541561567324838
 30
0.0
 11
-2.4550670971125363
 21
0.3400092924717925
 31
0.0
  0
LINE
  5
112
100
AcDbEntity
100
AcDbLine
  8
0
 62
7
370
-1
  6
ByLayer
 10
2.3950654572645522
 20
-1.3692827500356983
 30
0.0
 11
2.4550670971125079
 21
-1.3692827500356983
 31
0.0
  0
LINE
  5
113
100
AcDbEntity
100
AcDbLine
  8
0
 62
7
370
-1
  6
ByLayer
 10
2.3950654572645522
 20
-1.3492822034197065
 30
0.0
 11
2.3950654572645522
 21
-1.3692827500356983
 31
0.0
  0
LINE
  5
114
100
AcDbEntity
100
AcDbLine
  8
0
 62
7
370
-1
  6
ByLayer
 10
2.4550670971125079
 20
-1.4492849364996496
 30
0.0
 11
2.4550670971125079
 21
-1.3692827500356983
 31
0.0
  0
LINE
  5
115
100
AcDbEntity
100
AcDbLine
  8
0
 62
7
370
-1
  6
ByLayer
 10
2.3912614438236126
 20
0.4478946523386151
 30
0.0
 11
2.1200579412947316
 21
1.4600399029671194
 31
0.0
  0
LINE
  5
116
100
AcDbEntity
100
AcDbLine
  8
0
 62
7
370
-1
  6
ByLayer
 10
2.450987948050094
 20
0.4568208382023437
 30
0.0
 11
2.166098818873047
 21
1.5200415428150869
 31
0.0
  0
LINE
  5
117
100
AcDbEntity
100
AcDbLine
  8
0
 62
7
370
-1
  6
ByLayer
 10
2.173059389827094
 20
0.0600016398479688
 30
0.0
 11
2.3929288102631907
 21
0.2798710602840789
 31
0.0
  0
LINE
  5
118
100
AcDbEntity
100
AcDbLine
  8
0
 62
7
370
-1
  6
ByLayer
 10
2.1979128828167429
 20
0.0
 30
0.0
 11
2.4520690395492424
 21
0.2541561567324838
 31
0.0
  0
LINE
  5
119
100
AcDbEntity
100
AcDbLine
  8
0
 62
7
370
-1
  6
ByLayer
 10
2.3950288836070714
 20
0.3400092924717988
 30
0.0
 11
2.3912614438236126
 21
0.4478946523386151
 31
0.0
  0
LINE
  5
11A
100
AcDbEntity
100
AcDbLine
  8
0
 62
7
370
-1
  6
ByLayer
 10
2.3929288102631907
 20
0.2798710602840789
 30
0.0
 11
2.3950288836070714
 21
0.3400092924717988
 31
0.0
  0
LINE
  5
11B
100
AcDbEntity
100
AcDbLine
  8
0
 62
7
370
-1
  6
ByLayer
 10
2.4550670971125079
 20
0.3400092924717925
 30
0.0
 11
2.450987948050094
 21
0.4568208382023437
 31
0.0
  0
LINE
  5
11C
100
AcDbEntity
100
AcDbLine
  8
0
 62
7
370
-1
  6
ByLayer
 10
2.4520690395492424
 20
0.2541561567324838
 30
0.0
 11
2.4550670971125079
 21
0.3400092924717925
 31
0.0
  0
INSERT
  5
11D
100
AcDbEntity
100
AcDbBlockReference
  8
0
 62
256
370
-1
  6
ByLayer
  2
power_jack
 10
-0.9245
 20
0.2
 30
0.0
  0
INSERT
  5
11E
100
AcDbEntity
100
AcDbBlockReference
  8
0
 62
256
370
-1
  6
ByLayer
  2
usb_jack
 10
0.204
 20
0.2
 30
0.0
  0
MTEXT
  5
11F
100
AcDbEntity
100
AcDbMText
  8
DM
 62
8
370
-1
  6
ByLayer
 10
2.8634311189838471
 20
0.6676369137263612
 30
0.0
 40
0.1912856146234514
 41
133.2048023836648838
 71
7
 72
2
  1
1.52
  7
STANDARD
 50
0.0
 73
0
 44
1.0
  0
LINE
  5
120
100
AcDbEntity
100
AcDbLine
  8
DM
 62
8
370
-1
  6
ByLayer
 10
-0.0000000000000071
 20
-0.1250034163499235
 30
0.0
 11
-0.0000000000000071
 21
1.6450449591650109
 31
0.0
  0
LINE
  5
121
100
AcDbEntity
100
AcDbLine
  8
DM
 62
8
370
-1
  6
CONTINUOUS
 10
2.2511892141057324
 20
1.5200415428150869
 30
0.0
 11
3.4653143084473976
 21
1.5200415428150869
 31
0.0
  0
LINE
  5
122
100
AcDbEntity
100
AcDbLine
  8
DM
 62
8
370
-1
  6
CONTINUOUS
 10
2.2830032780493998
 20
0.0
 30
0.0
 11
3.4653143084473976
 21
0.0
 31
0.0
  0
LINE
  5
123
100
AcDbEntity
100
AcDbLine
  8
DM
 62
8
370
-1
  6
CONTINUOUS
 10
2.5401574923451911
 20
-1.3692827500356983
 30
0.0
 11
3.3364499163712171
 21
-1.3692827500356983
 31
0.0
  0
LINE
  5
124
100
AcDbEntity
100
AcDbLine
  8
DM
 62
8
370
-1
  6
CONTINUOUS
 10
2.4801558524972234
 20
-1.3492822034197065
 30
0.0
 11
3.3364499163712171
 21
-1.3492822034197065
 31
0.0
  0
LINE
  5
125
100
AcDbEntity
100
AcDbLine
  8
DM
 62
8
370
-1
  6
CONTINUOUS
 10
-1.9210384806029865
 20
1.9483786827144001
 30
0.0
 11
-0.4197208403219016
 21
1.9483786827144001
 31
0.0
  0
LINE
  5
126
100
AcDbEntity
100
AcDbLine
  8
DM
 62
8
370
-1
  6
CONTINUOUS
 10
-2.2100067588424475
 20
-1.826548855339434
 30
0.0
 11
-0.3692029735494657
 21
-1.826548855339434
 31
0.0
  0
LINE
  5
127
100
AcDbEntity
100
AcDbLine
  8
DM
 62
8
370
-1
  6
CONTINUOUS
 10
-1.9528525445466824
 20
-0.8694210432227414
 30
0.0
 11
-0.4106065270876701
 21
-0.8694210432227414
 31
0.0
  0
LINE
  5
128
100
AcDbEntity
100
AcDbLine
  8
DM
 62
8
370
-1
  6
CONTINUOUS
 10
-2.1979128828167713
 20
-0.0850903952326684
 30
0.0
 11
-2.1979128828167713
 21
-1.1144813814928329
 31
0.0
  0
MTEXT
  5
129
100
AcDbEntity
100
AcDbMText
  8
DM
 62
8
370
-1
  6
ByLayer
 10
-3.8208107174617578
 20
-2.031789470721006
 30
0.0
 40
0.1912856146234514
 41
133.2048023836648838
 71
7
 72
2
  1
.10
  7
STANDARD
 50
0.0
 73
0
 44
1.0
  0
LINE
  5
12A
100
AcDbEntity
100
AcDbLine
  8
DM
 62
8
370
-1
  6
CONTINUOUS
 10
-2.5401574923452079
 20
-1.4492849364996432
 30
0.0
 11
-3.2570093822072481
 21
-1.4492849364996432
 31
0.0
  0
LINE
  5
12B
100
AcDbEntity
100
AcDbLine
  8
DM
 62
8
370
-1
  6
CONTINUOUS
 10
-2.4801558524972376
 20
-1.3492822034197065
 30
0.0
 11
-3.2570093822072481
 21
-1.3492822034197065
 31
0.0
  0
LINE
  5
12C
100
AcDbEntity
100
AcDbLine
  8
DM
 62
8
370
-1
  6
CONTINUOUS
 10
-3.0119490439371712
 20
-1.6943452747697294
 30
0.0
 11
-3.0119490439371712
 21
-1.9394056130398223
 31
0.0
  0
LINE
  5
12D
100
AcDbEntity
100
AcDbLine
  8
DM
 62
8
370
-1
  6
CONTINUOUS
 10
-3.0119490439371712
 20
-1.9394056130398223
 30
0.0
 11
-3.2570093822072481
 21
-1.9394056130398223
 31
0.0
  0
LINE
  5
12E
100
AcDbEntity
100
AcDbLine
  8
DM
 62
8
370
-1
  6
CONTINUOUS
 10
-2.4550670971125363
 20
-1.5343753317323121
 30
0.0
 11
-2.4550670971125363
 21
-2.0716091936095262
 31
0.0
  0
INSERT
  5
12F
100
AcDbEntity
100
AcDbBlockReference
  8
DM
 62
8
370
-1
  6
ByLayer
  2
*X9
 10
-18.4065187044909955
 20
-4.5615897658730491
 30
0.0
 41
1.3320480238366488
 42
1.3320480238366488
 43
1.0
  0
MTEXT
  5
130
100
AcDbEntity
100
AcDbMText
  8
DM
 62
8
370
-1
  6
ByLayer
 10
-3.3435163584502114
 20
-0.3902168268556661
 30
0.0
 40
0.1847677153623697
 41
133.2048023836648838
 71
7
 72
2
  1
45%%D
  7
STANDARD
 50
0.0
 73
0
 44
1.0
  0
LINE
  5
131
100
AcDbEntity
100
AcDbLine
  8
DM
 62
8
370
-1
  6
CONTINUOUS
 10
-3.0119490439371712
 20
-1.1042218651496214
 30
0.0
 11
-3.0119490439371712
 21
-0.8591615268795285
 31
0.0
  0
MTEXT
  5
132
100
AcDbEntity
100
AcDbMText
  8
DM
 62
8
370
-1
  6
ByLayer
 10
-3.4337948836872076
 20
1.6970076195584682
 30
0.0
 40
0.1847677153623697
 41
133.2048023836648838
 71
7
 72
2
  1
15%%D
  7
STANDARD
 50
0.0
 73
0
 44
1.0
  0
LINE
  5
133
100
AcDbEntity
100
AcDbLine
  8
DM
 62
8
370
-1
  6
CONTINUOUS
 10
-2.1660988188730776
 20
1.6051319380477547
 30
0.0
 11
-2.1660988188730776
 21
2.1934390209844925
 31
0.0
  0
LINE
  5
134
100
AcDbEntity
100
AcDbLine
  8
DM
 62
8
370
-1
  6
CONTINUOUS
 10
2.1979128828167429
 20
-0.0850903952326684
 30
0.0
 11
2.1979128828167429
 21
-1.1144813814928329
 31
0.0
  0
LINE
  5
135
100
AcDbEntity
100
AcDbLine
  8
DM
 62
8
370
-1
  6
CONTINUOUS
 10
2.2100067588424168
 20
-1.826548855339434
 30
0.0
 11
0.3692029735494373
 21
-1.826548855339434
 31
0.0
  0
MTEXT
  5
136
100
AcDbEntity
100
AcDbMText
  8
DM
 62
8
370
-1
  6
ByLayer
 10
-0.3145563777741739
 20
-1.9189327130206164
 30
0.0
 40
0.1912856146234514
 41
133.2048023836648838
 71
7
 72
2
  1
4.91
  7
STANDARD
 50
0.0
 73
0
 44
1.0
  0
LINE
  5
137
100
AcDbEntity
100
AcDbLine
  8
DM
 62
8
370
-1
  6
CONTINUOUS
 10
2.4550670971125079
 20
-1.5343753317323188
 30
0.0
 11
2.4550670971125079
 21
-2.0716091936095262
 31
0.0
  0
LINE
  5
138
100
AcDbEntity
100
AcDbLine
  8
DM
 62
8
370
-1
  6
CONTINUOUS
 10
1.9210384806029583
 20
1.9483786827144001
 30
0.0
 11
0.4197208403218732
 21
1.9483786827144001
 31
0.0
  0
LINE
  5
139
100
AcDbEntity
100
AcDbLine
  8
DM
 62
8
370
-1
  6
CONTINUOUS
 10
1.9528525445466518
 20
-0.8694210432227414
 30
0.0
 11
0.4106065270876418
 21
-0.8694210432227414
 31
0.0
  0
MTEXT
  5
13A
100
AcDbEntity
100
AcDbMText
  8
DM
 62
8
370
-1
  6
ByLayer
 10
-0.3318374524488763
 20
-0.9618049009039262
 30
0.0
 40
0.1912856146234514
 41
133.2048023836648838
 71
7
 72
2
  1
4.40
  7
STANDARD
 50
0.0
 73
0
 44
1.0
  0
MTEXT
  5
13B
100
AcDbEntity
100
AcDbMText
  8
DM
 62
8
370
-1
  6
ByLayer
 10
-0.3365525343649379
 20
1.8559948250332159
 30
0.0
 40
0.1912856146234514
 41
133.2048023836648838
 71
7
 72
2
  1
4.33
  7
STANDARD
 50
0.0
 73
0
 44
1.0
  0
MTEXT
  5
13C
100
AcDbEntity
100
AcDbMText
  8
DM
 62
8
370
-1
  6
ByLayer
 10
0.8623863260274055
 20
-0.5825045342213611
 30
0.0
 40
0.1912856146234514
 41
133.2048023836648838
 71
7
 72
2
  1
.06
  7
STANDARD
 50
0.0
 73
0
 44
1.0
  0
LINE
  5
13D
100
AcDbEntity
100
AcDbLine
  8
DM
 62
8
370
-1
  6
CONTINUOUS
 10
1.6703850796708899
 20
-0.4901206765401763
 30
0.0
 11
1.425324741400813
 21
-0.4901206765401763
 31
0.0
  0
LINE
  5
13E
100
AcDbEntity
100
AcDbLine
  8
DM
 62
8
370
-1
  6
CONTINUOUS
 10
1.6703850796708899
 20
-0.2450603382700833
 30
0.0
 11
1.6703850796708899
 21
-0.4901206765401763
 31
0.0
  0
LINE
  5
13F
100
AcDbEntity
100
AcDbLine
  8
DM
 62
8
370
-1
  6
CONTINUOUS
 10
1.6703850796708899
 20
0.3050619781180551
 30
0.0
 11
1.6703850796708899
 21
0.550122316388145
 31
0.0
  0
LINE
  5
140
100
AcDbEntity
100
AcDbLine
  8
DM
 62
8
370
-1
  6
CONTINUOUS
 10
2.166098818873047
 20
1.6051319380477547
 30
0.0
 11
2.166098818873047
 21
2.1934390209844925
 31
0.0
  0
LINE
  5
141
100
AcDbEntity
100
AcDbLine
  8
DM
 62
8
370
-1
  6
CONTINUOUS
 10
3.0913895781011309
 20
-1.6143430883057912
 30
0.0
 11
3.0913895781011309
 21
-1.8594034265758763
 31
0.0
  0
MTEXT
  5
142
100
AcDbEntity
100
AcDbMText
  8
DM
 62
8
370
-1
  6
ByLayer
 10
3.4270066958001957
 20
-0.9515453845607134
 30
0.0
 40
0.1912856146234514
 41
133.2048023836648838
 71
7
 72
2
  1
.02
  7
STANDARD
 50
0.0
 73
0
 44
1.0
  0
LINE
  5
143
100
AcDbEntity
100
AcDbLine
  8
DM
 62
8
370
-1
  6
CONTINUOUS
 10
3.0913895781011309
 20
-0.8591615268795285
 30
0.0
 11
3.3364499163712171
 21
-0.8591615268795285
 31
0.0
  0
LINE
  5
144
100
AcDbEntity
100
AcDbLine
  8
DM
 62
8
370
-1
  6
CONTINUOUS
 10
3.0913895781011309
 20
-1.1042218651496214
 30
0.0
 11
3.0913895781011309
 21
-0.8591615268795285
 31
0.0
  0
LINE
  5
145
100
AcDbEntity
100
AcDbLine
  8
DM
 62
8
370
-1
  6
CONTINUOUS
 10
3.220253970177311
 20
0.2450603382700946
 30
0.0
 11
3.220253970177311
 21
0.5451067445913146
 31
0.0
  0
LINE
  5
146
100
AcDbEntity
100
AcDbLine
  8
DM
 62
8
370
-1
  6
CONTINUOUS
 10
3.220253970177311
 20
1.2749812045449935
 30
0.0
 11
3.220253970177311
 21
0.9749347982237747
 31
0.0
  0
INSERT
  5
147
100
AcDbEntity
100
AcDbBlockReference
  8
DM
 62
8
370
-1
  6
ByLayer
  2
*X8
 10
-18.4065187044909955
 20
-4.5615897658730491
 30
0.0
 41
1.3320480238366488
 42
1.3320480238366488
 43
1.0
  0
DIMENSION
  5
148
100
AcDbEntity
  8
DM
 62
8
370
-1
  6
ByLayer
100
AcDbDimension
 10
0.204
 20
1.1200445916158284
 30
0.0
 11
-0.7836489463523715
 21
1.3857206978182179
 31
0.0
 70
0
 71
5
 72
0
 41
1.0
 42
0.0
  1

  3
Standard
100
AcDbAlignedDimension
 13
-0.0000000000000071
 23
0.6399999999999999
 33
0.0
 14
0.204
 24
0.6399999999999999
 34
0.0
 50
0.0
100
AcDbRotatedDimension
  0
DIMENSION
  5
149
100
AcDbEntity
  8
DM
 62
8
370
-1
  6
ByLayer
100
AcDbDimension
 10
0.0358376042539194
 20
0.9735882488981435
 30
0.0
 11
-0.3201492646683469
 21
1.070349780383727
 31
0.0
 70
0
 71
5
 72
0
 41
1.0
 42
0.0
  1

  3
Standard
100
AcDbAlignedDimension
 13
-0.5615
 23
0.64
 33
0.0
 14
-0.0000000000000071
 24
0.6399999999999999
 34
0.0
 50
0.0
100
AcDbRotatedDimension
  0
DIMENSION
  5
14A
100
AcDbEntity
  8
DM
 62
8
370
-1
  6
ByLayer
100
AcDbDimension
 10
-0.5615
 20
0.7988799281602851
 30
0.0
 11
-0.8218757242232189
 21
1.070349780383727
 31
0.0
 70
0
 71
5
 72
0
 41
1.0
 42
0.0
  1

  3
Standard
100
AcDbAlignedDimension
 13
-0.9245
 23
0.64
 33
0.0
 14
-0.5615
 24
0.64
 34
0.0
 50
0.0
100
AcDbRotatedDimension
  0
DIMENSION
  5
14B
100
AcDbEntity
  8
DM
 62
8
370
-1
  6
ByLayer
100
AcDbDimension
 10
0.696
 20
0.7944002276285473
 30
0.0
 11
0.436024185089353
 21
0.8959401063479857
 31
0.0
 70
0
 71
5
 72
0
 41
1.0
 42
0.0
  1

  3
Standard
100
AcDbAlignedDimension
 13
0.204
 23
0.6399999999999999
 33
0.0
 14
0.696
 24
0.64
 34
0.0
 50
0.0
100
AcDbRotatedDimension
  0
DIMENSION
  5
14C
100
AcDbEntity
  8
DM
 62
8
370
-1
  6
ByLayer
100
AcDbDimension
 10
-1.1730593898271082
 20
-0.0
 30
0.0
 11
-1.4182134590084408
 21
0.1414390781221356
 31
0.0
 70
0
 71
5
 72
0
 41
1.0
 42
0.0
  1

  3
Standard
100
AcDbAlignedDimension
 13
-0.9245
 23
0.2
 33
0.0
 14
-1.1979128828167713
 24
0.0
 34
0.0
 50
90.0
100
AcDbRotatedDimension
  0
DIMENSION
  5
14D
100
AcDbEntity
  8
DM
 62
8
370
-1
  6
ByLayer
100
AcDbDimension
 10
-0.3211049341151186
 20
0.6536779015914916
 30
0.0
 11
-0.4166718787922373
 21
0.4166718787922373
 31
0.0
 70
0
 71
5
 72
0
 41
1.0
 42
0.0
  1

  3
Standard
100
AcDbAlignedDimension
 13
0.204
 23
0.2
 33
0.0
 14
0.204
 24
0.64
 34
0.0
 50
90.0
100
AcDbRotatedDimension
  0
DIMENSION
  5
14E
100
AcDbEntity
  8
DM
 62
8
370
-1
  6
ByLayer
100
AcDbDimension
 10
0.6960000000000001
 20
1.4600399029671194
 30
0.0
 11
0.7822245821404471
 21
1.069572387824693
 31
0.0
 70
0
 71
5
 72
0
 41
1.0
 42
0.0
  1

  3
Standard
100
AcDbAlignedDimension
 13
0.6960000000000001
 23
0.64
 33
0.0
 14
0.6960000000000001
 24
1.4600399029671194
 34
0.0
 50
90.0
100
AcDbRotatedDimension
  0
DIMENSION
  5
14F
100
AcDbEntity
  8
DM
 62
256
370
-1
  6
ByLayer
100
AcDbDimension
 10
2.1200579412947316
 20
1.5963766982458101
 30
0.0
 11
-0.0000000000000142
 21
1.7086219348412188
 31
0.0
 70
0
 71
5
 72
0
 41
1.0
 42
0.0
  1

  3
Standard
100
AcDbAlignedDimension
 13
-2.12005794129476
 23
1.4600399029671194
 33
0.0
 14
2.1200579412947316
 24
1.4600399029671194
 34
0.0
 50
0.0
100
AcDbRotatedDimension
  0
LINE
  5
150
100
AcDbEntity
100
AcDbLine
  8
0
 62
256
370
-1
  6
ByLayer
 10
-0.9245
 20
0.42
 30
0.0
 11
-0.9245
 21
0.42
 31
0.0
  0
LINE
  5
151
100
AcDbEntity
100
AcDbLine
  8
0
 62
256
370
-1
  6
ByLayer
 10
-1.320414258717443
 20
0.42
 30
0.0
 11
-1.520414258717443
 21
0.42
 31
0.0
  0
LINE
  5
152
100
AcDbEntity
100
AcDbLine
  8
0
 62
256
370
-1
  6
ByLayer
 10
-1.520414258717443
 20
0.42
 30
0.0
 11
-1.320414258717443
 21
0.42
 31
0.0
  0
LINE
  5
153
100
AcDbEntity
100
AcDbLine
  8
0
 62
256
370
-1
  6
ByLayer
 10
-1.620414258717443
 20
0.42
 30
0.0
 11
-1.820414258717443
 21
0.42
 31
0.0
  0
LINE
  5
154
100
AcDbEntity
100
AcDbLine
  8
0
 62
256
370
-1
  6
ByLayer
 10
-1.820414258717443
 20
0.42
 30
0.0
 11
-1.620414258717443
 21
0.42
 31
0.0
  0
CIRCLE
  5
155
100
AcDbEntity
100
AcDbCircle
  8
0
 62
256
370
-1
  6
ByLayer
 10
-1.520414258717443
 20
0.42
 30
0.0
 40
0.0
  0
CIRCLE
  5
156
100
AcDbEntity
100
AcDbCircle
  8
0
 62
256
370
-1
  6
ByLayer
 10
-1.520414258717443
 20
0.42
 30
0.0
 40
0.0
  0
LINE
  5
157
100
AcDbEntity
100
AcDbLine
  8
0
 62
256
370
-1
  6
ByLayer
 10
-1.520414258717443
 20
0.42
 30
0.0
 11
-1.520414258717443
 21
0.42
 31
0.0
  0
CIRCLE
  5
158
100
AcDbEntity
100
AcDbCircle
  8
0
 62
256
370
-1
  6
ByLayer
 10
-1.520414258717443
 20
0.42
 30
0.0
 40
0.0432
  0
ARC
  5
159
100
AcDbEntity
  8
0
 62
256
370
-1
  6
ByLayer
100
AcDbCircle
 10
-1.520414258717443
 20
0.42
 30
0.0
 40
0.1000000000000001
100
AcDbArc
 50
44.9792115228899405
 51
315.000137993211581
  0
LINE
  5
15A
100
AcDbEntity
100
AcDbLine
  8
0
 62
256
370
-1
  6
ByLayer
 10
-1.820414258717443
 20
0.42
 30
0.0
 11
-1.9204142587174431
 21
0.52
 31
0.0
  0
LINE
  5
15B
100
AcDbEntity
100
AcDbLine
  8
0
 62
256
370
-1
  6
ByLayer
 10
-1.9204142587174431
 20
0.52
 30
0.0
 11
-2.0204142587174432
 21
0.42
 31
0.0
  0
LINE
  5
15C
100
AcDbEntity
100
AcDbLine
  8
0
 62
256
370
-1
  6
ByLayer
 10
-2.0204142587174432
 20
0.42
 30
0.0
 11
-1.9204142587174431
 21
0.3200000000000001
 31
0.0
  0
LINE
  5
15D
100
AcDbEntity
100
AcDbLine
  8
0
 62
256
370
-1
  6
ByLayer
 10
-1.9204142587174431
 20
0.3200000000000001
 30
0.0
 11
-1.820414258717443
 21
0.42
 31
0.0
  0
LINE
  5
15E
100
AcDbEntity
100
AcDbLine
  8
0
 62
256
370
-1
  6
ByLayer
 10
-1.820414258717443
 20
0.42
 30
0.0
 11
-1.820414258717443
 21
0.42
 31
0.0
  0
LINE
  5
15F
100
AcDbEntity
100
AcDbLine
  8
0
 62
256
370
-1
  6
ByLayer
 10
-1.1204142587174428
 20
0.42
 30
0.0
 11
-1.2204142587174429
 21
0.52
 31
0.0
  0
LINE
  5
160
100
AcDbEntity
100
AcDbLine
  8
0
 62
256
370
-1
  6
ByLayer
 10
-1.2204142587174429
 20
0.52
 30
0.0
 11
-1.320414258717443
 21
0.42
 31
0.0
  0
LINE
  5
161
100
AcDbEntity
100
AcDbLine
  8
0
 62
256
370
-1
  6
ByLayer
 10
-1.320414258717443
 20
0.42
 30
0.0
 11
-1.2204142587174429
 21
0.3200000000000001
 31
0.0
  0
LINE
  5
162
100
AcDbEntity
100
AcDbLine
  8
0
 62
256
370
-1
  6
ByLayer
 10
-1.2204142587174429
 20
0.3200000000000001
 30
0.0
 11
-1.1204142587174428
 21
0.42
 31
0.0
  0
LINE
  5
163
100
AcDbEntity
100
AcDbLine
  8
0
 62
256
370
-1
  6
ByLayer
 10
-1.1204142587174428
 20
0.42
 30
0.0
 11
-1.1204142587174428
 21
0.42
 31
0.0
  0
LINE
  5
164
100
AcDbEntity
100
AcDbLine
  8
0
 62
256
370
-1
  6
ByLayer
 10
-1.9766642587174432
 20
0.42
 30
0.0
 11
-1.864164258717443
 21
0.42
 31
0.0
  0
LINE
  5
165
100
AcDbEntity
100
AcDbLine
  8
0
 62
256
370
-1
  6
ByLayer
 10
-1.2204142587174429
 20
0.47625
 30
0.0
 11
-1.2204142587174429
 21
0.3637500000000001
 31
0.0
  0
LINE
  5
166
100
AcDbEntity
100
AcDbLine
  8
0
 62
256
370
-1
  6
ByLayer
 10
-1.276664258717443
 20
0.42
 30
0.0
 11
-1.1641642587174428
 21
0.42
 31
0.0
  0
MTEXT
  5
167
100
AcDbEntity
100
AcDbMText
  8
0
 62
256
370
-1
  6
ByLayer
 10
-1.7464361078810029
 20
0.705598500624683
 30
0.0
 40
0.1
 41
100.0
 71
1
 72
0
  1
DC\~9V
  7
kochigothic
 50
0.0
 73
1
 44
1.0
  0
ENDSEC
  0
SECTION
  2
OBJECTS
  0
DICTIONARY
  5
C
100
AcDbDictionary
280
0
281
1
  3
ACAD_GROUP
350
D
  3
ACAD_LAYOUT
350
1A
  3
ACAD_MLINESTYLE
350
17
  3
ACAD_PLOTSETTINGS
350
19
  3
ACAD_PLOTSTYLENAME
350
E
  3
AcDbVariableDictionary
350
168
  0
DICTIONARY
  5
D
100
AcDbDictionary
280
0
281
1
  0
ACDBDICTIONARYWDFLT
  5
E
100
AcDbDictionary
281
1
  3
Normal
350
F
100
AcDbDictionaryWithDefault
340
F
  0
ACDBPLACEHOLDER
  5
F
  0
DICTIONARY
  5
17
100
AcDbDictionary
280
0
281
1
  3
Standard
350
18
  0
MLINESTYLE
  5
18
100
AcDbMlineStyle
  2
STANDARD
 70
0
  3

 62
256
 51
90.0
 52
90.0
 71
2
 49
0.5
 62
256
  6
BYLAYER
 49
-0.5
 62
256
  6
BYLAYER
  0
DICTIONARY
  5
19
100
AcDbDictionary
280
0
281
1
  0
DICTIONARY
  5
1A
100
AcDbDictionary
281
1
  3
Layout1
350
1E
  3
Layout2
350
26
  3
Model
350
22
  0
LAYOUT
  5
1E
100
AcDbPlotSettings
  1

  2
C:\Program Files\AutoCAD 2002\plotters\DWF ePlot (optimized for plotting).pc3
  4

  6

 40
0.0
 41
0.0
 42
0.0
 43
0.0
 44
0.0
 45
0.0
 46
0.0
 47
0.0
 48
0.0
 49
0.0
140
0.0
141
0.0
142
1.0
143
1.0
 70
688
 72
0
 73
0
 74
5
  7

 75
16
147
1.0
148
0.0
149
0.0
100
AcDbLayout
  1
Layout1
 70
1
 71
1
 10
0.0
 20
0.0
 11
420.0
 21
297.0
 12
0.0
 22
0.0
 32
0.0
 14
100000000000000000000.0
 24
100000000000000000000.0
 34
100000000000000000000.0
 15
-100000000000000000000.0
 25
-100000000000000000000.0
 35
-100000000000000000000.0
146
0.0
 13
0.0
 23
0.0
 33
0.0
 16
1.0
 26
0.0
 36
0.0
 17
0.0
 27
1.0
 37
0.0
 76
0
330
1B
  0
LAYOUT
  5
22
100
AcDbPlotSettings
  1

  2
C:\Program Files\AutoCAD 2002\plotters\DWF ePlot (optimized for plotting).pc3
  4

  6

 40
0.0
 41
0.0
 42
0.0
 43
0.0
 44
0.0
 45
0.0
 46
0.0
 47
0.0
 48
0.0
 49
0.0
140
0.0
141
0.0
142
1.0
143
1.0
 70
1712
 72
0
 73
0
 74
0
  7

 75
0
147
1.0
148
0.0
149
0.0
100
AcDbLayout
  1
Model
 70
1
 71
0
 10
0.0
 20
0.0
 11
12.0
 21
9.0
 12
0.0
 22
0.0
 32
0.0
 14
0.0
 24
0.0
 34
0.0
 15
0.0
 25
0.0
 35
0.0
146
0.0
 13
0.0
 23
0.0
 33
0.0
 16
1.0
 26
0.0
 36
0.0
 17
0.0
 27
1.0
 37
0.0
 76
0
330
1F
  0
LAYOUT
  5
26
100
AcDbPlotSettings
  1

  2
C:\Program Files\AutoCAD 2002\plotters\DWF ePlot (optimized for plotting).pc3
  4

  6

 40
0.0
 41
0.0
 42
0.0
 43
0.0
 44
0.0
 45
0.0
 46
0.0
 47
0.0
 48
0.0
 49
0.0
140
0.0
141
0.0
142
1.0
143
1.0
 70
688
 72
0
 73
0
 74
5
  7

 75
16
147
1.0
148
0.0
149
0.0
100
AcDbLayout
  1
Layout2
 70
1
 71
2
 10
0.0
 20
0.0
 11
12.0
 21
9.0
 12
0.0
 22
0.0
 32
0.0
 14
0.0
 24
0.0
 34
0.0
 15
0.0
 25
0.0
 35
0.0
146
0.0
 13
0.0
 23
0.0
 33
0.0
 16
1.0
 26
0.0
 36
0.0
 17
0.0
 27
1.0
 37
0.0
 76
0
330
23
  0
DICTIONARY
  5
168
100
AcDbDictionary
281
1
  3
DIMASSOC
350
16A
  3
HIDETEXT
350
169
  0
DICTIONARYVAR
  5
169
100
DictionaryVariables
280
0
  1
2
  0
DICTIONARYVAR
  5
16A
100
DictionaryVariables
280
0
  1
1
  0
ENDSEC
  0
EOF
