G75*
G70*
%OFA0B0*%
%FSLAX24Y24*%
%IPPOS*%
%LPD*%
%AMOC8*
5,1,8,0,0,1.08239X$1,22.5*
%
%ADD10C,0.1520*%
%ADD11C,0.2080*%
%ADD12OC8,0.0600*%
%ADD13C,0.0740*%
%ADD14C,0.1360*%
%ADD15C,0.0630*%
%ADD16R,0.0634X0.0634*%
%ADD17OC8,0.0634*%
%ADD18C,0.0580*%
D10*
X002931Y001855D03*
X011431Y001855D03*
X011431Y029355D03*
X002931Y029355D03*
D11*
X004181Y005105D03*
X010181Y005105D03*
D12*
X003431Y009352D03*
X003431Y010367D03*
X003431Y011367D03*
X003431Y012870D03*
X002431Y012870D03*
X002431Y009352D03*
X007431Y026605D03*
X007431Y028605D03*
X008431Y028605D03*
X008431Y026605D03*
D13*
X010898Y013355D03*
X010898Y009355D03*
D14*
X009431Y010405D03*
X004931Y010405D03*
D15*
X005431Y012905D03*
X005931Y013905D03*
X006431Y012905D03*
X006931Y013905D03*
X007431Y012905D03*
X007931Y013905D03*
X008431Y012905D03*
X008931Y013905D03*
X008681Y015605D03*
X009681Y015605D03*
X010681Y015605D03*
X007681Y015605D03*
X006681Y015605D03*
X005681Y015605D03*
X004681Y015605D03*
D16*
X003681Y015605D03*
D17*
X006681Y030355D03*
X007431Y030355D03*
X008181Y030355D03*
D18*
X003681Y024605D03*
M02*
