G75*
G70*
%OFA0B0*%
%FSLAX24Y24*%
%IPPOS*%
%LPD*%
%AMOC8*
5,1,8,0,0,1.08239X$1,22.5*
%
%ADD10C,0.0040*%
%ADD11OC8,0.0520*%
%ADD12C,0.0660*%
%ADD13C,0.0550*%
%ADD14R,0.0554X0.0554*%
%ADD15OC8,0.0554*%
%ADD16C,0.0160*%
%ADD17C,0.0320*%
%ADD18C,0.0500*%
D10*
X002591Y019565D02*
X002938Y019565D01*
X002591Y019565D02*
X002938Y019912D01*
X002938Y019999D01*
X002851Y020086D01*
X002678Y020086D01*
X002591Y019999D01*
X003107Y019999D02*
X003107Y019652D01*
X003453Y019999D01*
X003453Y019652D01*
X003367Y019565D01*
X003193Y019565D01*
X003107Y019652D01*
X003107Y019999D02*
X003193Y020086D01*
X003367Y020086D01*
X003453Y019999D01*
X003622Y019999D02*
X003622Y019652D01*
X003969Y019999D01*
X003969Y019652D01*
X003882Y019565D01*
X003709Y019565D01*
X003622Y019652D01*
X003622Y019999D02*
X003709Y020086D01*
X003882Y020086D01*
X003969Y019999D01*
X004138Y019999D02*
X004138Y019912D01*
X004225Y019826D01*
X004398Y019826D01*
X004485Y019739D01*
X004485Y019652D01*
X004398Y019565D01*
X004225Y019565D01*
X004138Y019652D01*
X004138Y019739D01*
X004225Y019826D01*
X004398Y019826D02*
X004485Y019912D01*
X004485Y019999D01*
X004398Y020086D01*
X004225Y020086D01*
X004138Y019999D01*
X004653Y019652D02*
X004740Y019652D01*
X004740Y019565D01*
X004653Y019565D01*
X004653Y019652D01*
X004911Y019652D02*
X005258Y019999D01*
X005258Y019652D01*
X005171Y019565D01*
X004998Y019565D01*
X004911Y019652D01*
X004911Y019999D01*
X004998Y020086D01*
X005171Y020086D01*
X005258Y019999D01*
X005427Y020086D02*
X005774Y020086D01*
X005774Y019999D01*
X005427Y019652D01*
X005427Y019565D01*
X005942Y019565D02*
X006029Y019565D01*
X006029Y019652D01*
X005942Y019652D01*
X005942Y019565D01*
X006200Y019652D02*
X006547Y019999D01*
X006547Y019652D01*
X006460Y019565D01*
X006287Y019565D01*
X006200Y019652D01*
X006200Y019999D01*
X006287Y020086D01*
X006460Y020086D01*
X006547Y019999D01*
X006716Y020086D02*
X007063Y020086D01*
X007063Y019999D01*
X006716Y019652D01*
X006716Y019565D01*
X006766Y021125D02*
X006766Y021386D01*
X006679Y021472D01*
X006419Y021472D01*
X006419Y021125D01*
X006251Y021299D02*
X006251Y021386D01*
X006164Y021472D01*
X005990Y021472D01*
X005904Y021386D01*
X005904Y021212D01*
X005990Y021125D01*
X006164Y021125D01*
X006251Y021299D02*
X005904Y021299D01*
X005735Y021212D02*
X005648Y021299D01*
X005475Y021299D01*
X005388Y021386D01*
X005475Y021472D01*
X005735Y021472D01*
X005735Y021212D02*
X005648Y021125D01*
X005388Y021125D01*
X004703Y021472D02*
X004616Y021472D01*
X004443Y021299D01*
X004443Y021472D02*
X004443Y021125D01*
X004274Y021299D02*
X003927Y021299D01*
X003927Y021212D02*
X003927Y021386D01*
X004014Y021472D01*
X004187Y021472D01*
X004274Y021386D01*
X004274Y021299D01*
X004187Y021125D02*
X004014Y021125D01*
X003927Y021212D01*
X003757Y021125D02*
X003583Y021125D01*
X003670Y021125D02*
X003670Y021646D01*
X003583Y021646D01*
X003413Y021125D02*
X003240Y021125D01*
X003326Y021125D02*
X003326Y021646D01*
X003240Y021646D01*
X002984Y021472D02*
X002811Y021472D01*
X002724Y021386D01*
X002724Y021212D01*
X002811Y021125D01*
X002984Y021125D01*
X003071Y021212D01*
X003071Y021386D01*
X002984Y021472D01*
X002554Y021472D02*
X002468Y021472D01*
X002294Y021299D01*
X002294Y021472D02*
X002294Y021125D01*
X006935Y021125D02*
X007195Y021125D01*
X007282Y021212D01*
X007195Y021299D01*
X007022Y021299D01*
X006935Y021386D01*
X007022Y021472D01*
X007282Y021472D01*
X007450Y021386D02*
X007450Y021212D01*
X007537Y021125D01*
X007711Y021125D01*
X007797Y021212D01*
X007797Y021386D01*
X007711Y021472D01*
X007537Y021472D01*
X007450Y021386D01*
X007966Y021472D02*
X007966Y021125D01*
X007966Y021299D02*
X008140Y021472D01*
X008226Y021472D01*
X008436Y020086D02*
X008610Y020086D01*
X008523Y020086D02*
X008523Y019652D01*
X008436Y019565D01*
X008350Y019565D01*
X008263Y019652D01*
X008094Y019565D02*
X007747Y019565D01*
X007747Y020086D01*
X008778Y019999D02*
X008778Y019652D01*
X008865Y019565D01*
X009039Y019565D01*
X009125Y019652D01*
X009125Y019999D01*
X009039Y020086D01*
X008865Y020086D01*
X008778Y019999D01*
X009085Y021125D02*
X009258Y021472D01*
X008911Y021472D02*
X009085Y021125D01*
X009427Y021212D02*
X009774Y021559D01*
X009774Y021212D01*
X009687Y021125D01*
X009514Y021125D01*
X009427Y021212D01*
X009427Y021559D01*
X009514Y021646D01*
X009687Y021646D01*
X009774Y021559D01*
X009943Y021559D02*
X010029Y021646D01*
X010203Y021646D01*
X010290Y021559D01*
X010290Y021472D01*
X009943Y021125D01*
X010290Y021125D01*
D11*
X010024Y012870D03*
X010024Y011367D03*
X010024Y010367D03*
X010024Y009352D03*
X011024Y009352D03*
X011024Y012870D03*
X006024Y026605D03*
X006024Y028605D03*
X005024Y028605D03*
X005024Y026605D03*
D12*
X002557Y013355D03*
X002557Y009355D03*
D13*
X004524Y013905D03*
X005024Y012905D03*
X005524Y013905D03*
X006024Y012905D03*
X006524Y013905D03*
X007024Y012905D03*
X007524Y013905D03*
X008024Y012905D03*
X007774Y015605D03*
X006774Y015605D03*
X005774Y015605D03*
X004774Y015605D03*
X003774Y015605D03*
X002774Y015605D03*
X008774Y015605D03*
D14*
X009774Y015605D03*
D15*
X006774Y030355D03*
X006024Y030355D03*
X005274Y030355D03*
D16*
X002581Y009355D02*
X002581Y009280D01*
X002581Y009355D02*
X006524Y009355D01*
X010024Y009352D01*
X006524Y009355D02*
X006524Y013905D01*
X002581Y009355D02*
X002557Y009355D01*
D17*
X007274Y024605D02*
X007274Y028855D01*
X006024Y029855D01*
X006024Y030355D01*
X006024Y026605D02*
X007274Y024605D01*
X009774Y024605D01*
D18*
X009774Y024605D03*
M02*
