G75*
G70*
%OFA0B0*%
%FSLAX24Y24*%
%IPPOS*%
%LPD*%
%AMOC8*
5,1,8,0,0,1.08239X$1,22.5*
%
%ADD10C,0.0040*%
%ADD11OC8,0.0520*%
%ADD12C,0.0660*%
%ADD13C,0.0550*%
%ADD14R,0.0554X0.0554*%
%ADD15OC8,0.0554*%
%ADD16C,0.0160*%
%ADD17C,0.0320*%
%ADD18C,0.0500*%
D10*
X010920Y018800D02*
X010833Y018887D01*
X010833Y019061D01*
X010920Y019147D01*
X011267Y019147D01*
X011354Y019061D01*
X011354Y018887D01*
X011267Y018800D01*
X010920Y018800D01*
X011007Y019316D02*
X011007Y019576D01*
X011094Y019663D01*
X011267Y019663D01*
X011354Y019576D01*
X011354Y019316D01*
X011527Y019316D02*
X011007Y019316D01*
X011094Y019832D02*
X011007Y019918D01*
X011007Y020092D01*
X011094Y020179D01*
X011180Y020179D01*
X011180Y019832D01*
X011094Y019832D02*
X011267Y019832D01*
X011354Y019918D01*
X011354Y020092D01*
X011354Y020347D02*
X011007Y020347D01*
X011007Y020608D01*
X011094Y020694D01*
X011354Y020694D01*
X011267Y020863D02*
X011354Y020950D01*
X011354Y021123D01*
X011267Y021210D01*
X011180Y021210D01*
X011094Y021123D01*
X011094Y020950D01*
X011007Y020863D01*
X010920Y020863D01*
X010833Y020950D01*
X010833Y021123D01*
X010920Y021210D01*
X011007Y021379D02*
X011007Y021639D01*
X011094Y021726D01*
X011267Y021726D01*
X011354Y021639D01*
X011354Y021379D01*
X011354Y021894D02*
X011007Y021894D01*
X011180Y021894D02*
X011007Y022068D01*
X011007Y022154D01*
X011007Y022324D02*
X011007Y022411D01*
X011354Y022411D01*
X011354Y022497D02*
X011354Y022324D01*
X011354Y022668D02*
X011007Y022668D01*
X011007Y022928D01*
X011094Y023015D01*
X011354Y023015D01*
X011267Y023270D02*
X011354Y023357D01*
X011267Y023270D02*
X010920Y023270D01*
X011007Y023183D02*
X011007Y023357D01*
X011094Y023527D02*
X011007Y023614D01*
X011007Y023874D01*
X011180Y023787D02*
X011180Y023614D01*
X011094Y023527D01*
X011180Y023787D02*
X011267Y023874D01*
X011354Y023787D01*
X011354Y023527D01*
X010833Y022411D02*
X010747Y022411D01*
X011007Y021379D02*
X011527Y021379D01*
D11*
X002431Y008102D03*
X003431Y008102D03*
X003431Y009117D03*
X003431Y010117D03*
X003431Y011620D03*
X002431Y011620D03*
X007431Y026605D03*
X007431Y028605D03*
X008431Y028605D03*
X008431Y026605D03*
D12*
X010898Y012105D03*
X010898Y008105D03*
D13*
X008931Y012655D03*
X008431Y011655D03*
X007931Y012655D03*
X007431Y011655D03*
X006931Y012655D03*
X006431Y011655D03*
X005931Y012655D03*
X005431Y011655D03*
X005681Y014355D03*
X006681Y014355D03*
X007681Y014355D03*
X008681Y014355D03*
X009681Y014355D03*
X010681Y014355D03*
X004681Y014355D03*
D14*
X003681Y014355D03*
D15*
X006681Y030355D03*
X007431Y030355D03*
X008181Y030355D03*
D16*
X008431Y028605D02*
X008374Y028548D01*
X008374Y026662D02*
X008431Y026605D01*
X008681Y014355D02*
X007931Y013605D01*
X007931Y012655D01*
X007431Y011655D02*
X007431Y014105D01*
X007681Y014355D01*
X006931Y014105D02*
X006931Y012655D01*
X006431Y013605D02*
X006431Y011655D01*
X005931Y012655D02*
X005931Y013105D01*
X004681Y014355D01*
X003681Y014355D02*
X005431Y012605D01*
X005431Y011655D01*
X006431Y013605D02*
X005681Y014355D01*
X006681Y014355D02*
X006931Y014105D01*
X008431Y011655D02*
X007306Y010530D01*
X003431Y010530D01*
X003374Y010530D01*
X003431Y010530D02*
X003431Y011474D01*
X003374Y011530D01*
X003431Y011587D01*
X003431Y011620D01*
X003374Y011620D01*
X003431Y010530D02*
X003431Y010117D01*
X003374Y010061D01*
X003374Y010030D01*
X003431Y009117D02*
X003374Y009061D01*
X003374Y008046D01*
X003431Y008102D01*
X003374Y008046D02*
X003374Y008030D01*
X002431Y008102D02*
X002431Y011620D01*
X008431Y011655D02*
X010499Y011655D01*
X010898Y012054D01*
X010898Y012105D01*
X008981Y012655D02*
X010681Y014355D01*
X009681Y014355D02*
X008431Y013105D01*
X008431Y011655D01*
X008931Y012655D02*
X008981Y012655D01*
D17*
X009681Y014355D02*
X009681Y028355D01*
X008181Y030355D01*
X007431Y028605D02*
X006681Y028605D01*
X006681Y030355D01*
X006681Y028605D02*
X006681Y014355D01*
X003681Y014355D02*
X003681Y024605D01*
X008374Y026662D02*
X008374Y028548D01*
D18*
X003681Y024605D03*
M02*
