G75*
G70*
%OFA0B0*%
%FSLAX24Y24*%
%IPPOS*%
%LPD*%
%AMOC8*
5,1,8,0,0,1.08239X$1,22.5*
%
%ADD10C,0.0040*%
%ADD11OC8,0.0520*%
%ADD12C,0.0660*%
%ADD13C,0.0550*%
%ADD14R,0.0554X0.0554*%
%ADD15OC8,0.0554*%
%ADD16C,0.0160*%
%ADD17C,0.0320*%
%ADD18C,0.0500*%
D10*
X004416Y019565D02*
X004330Y019652D01*
X004330Y019999D01*
X004416Y020086D01*
X004590Y020086D01*
X004677Y019999D01*
X004677Y019652D01*
X004590Y019565D01*
X004416Y019565D01*
X004932Y019652D02*
X004932Y020086D01*
X005019Y020086D02*
X004845Y020086D01*
X004932Y019652D02*
X005019Y019565D01*
X005106Y019565D01*
X005192Y019652D01*
X005361Y019565D02*
X005708Y019565D01*
X005708Y020086D01*
X005744Y021125D02*
X005658Y021212D01*
X005658Y021386D01*
X005744Y021472D01*
X005918Y021472D01*
X006005Y021386D01*
X006005Y021212D01*
X005918Y021125D01*
X005744Y021125D01*
X005489Y021125D02*
X005489Y021472D01*
X005489Y021299D02*
X005316Y021472D01*
X005229Y021472D01*
X004544Y021472D02*
X004370Y021125D01*
X004197Y021472D01*
X004028Y021559D02*
X004028Y021212D01*
X003681Y021559D01*
X003681Y021212D01*
X003768Y021125D01*
X003941Y021125D01*
X004028Y021212D01*
X004028Y021559D02*
X003941Y021646D01*
X003768Y021646D01*
X003681Y021559D01*
X003512Y021559D02*
X003426Y021646D01*
X003252Y021646D01*
X003165Y021559D01*
X003165Y021472D01*
X003512Y021125D01*
X003165Y021125D01*
X006173Y021212D02*
X006260Y021299D01*
X006434Y021299D01*
X006520Y021386D01*
X006434Y021472D01*
X006173Y021472D01*
X006173Y021212D02*
X006260Y021125D01*
X006520Y021125D01*
X006689Y021125D02*
X006689Y021386D01*
X006776Y021472D01*
X007036Y021472D01*
X007036Y021125D01*
X007205Y021299D02*
X007205Y021386D01*
X007291Y021472D01*
X007465Y021472D01*
X007551Y021386D01*
X007551Y021212D01*
X007465Y021125D01*
X007291Y021125D01*
X007205Y021299D02*
X007551Y021299D01*
X007720Y021212D02*
X007807Y021299D01*
X007980Y021299D01*
X008067Y021386D01*
X007980Y021472D01*
X007720Y021472D01*
X007720Y021212D02*
X007807Y021125D01*
X008067Y021125D01*
X008028Y020086D02*
X007681Y020086D01*
X007681Y019999D01*
X008028Y019652D01*
X008028Y019565D01*
X008197Y019652D02*
X008197Y019999D01*
X008544Y019652D01*
X008457Y019565D01*
X008284Y019565D01*
X008197Y019652D01*
X008197Y019999D02*
X008284Y020086D01*
X008457Y020086D01*
X008544Y019999D01*
X008544Y019652D01*
X008715Y019652D02*
X008715Y019565D01*
X008802Y019565D01*
X008802Y019652D01*
X008715Y019652D01*
X008970Y019652D02*
X009057Y019565D01*
X009231Y019565D01*
X009317Y019652D01*
X009317Y019739D01*
X009231Y019826D01*
X009057Y019826D01*
X008970Y019739D01*
X008970Y019652D01*
X009057Y019826D02*
X008970Y019912D01*
X008970Y019999D01*
X009057Y020086D01*
X009231Y020086D01*
X009317Y019999D01*
X009317Y019912D01*
X009231Y019826D01*
X009486Y019999D02*
X009486Y019652D01*
X009573Y019565D01*
X009746Y019565D01*
X009833Y019652D01*
X009486Y019999D01*
X009573Y020086D01*
X009746Y020086D01*
X009833Y019999D01*
X009833Y019652D01*
X010002Y019652D02*
X010002Y019999D01*
X010349Y019652D01*
X010262Y019565D01*
X010088Y019565D01*
X010002Y019652D01*
X010002Y019999D02*
X010088Y020086D01*
X010262Y020086D01*
X010349Y019999D01*
X010349Y019652D01*
X010517Y019565D02*
X010864Y019565D01*
X010517Y019912D01*
X010517Y019999D01*
X010604Y020086D01*
X010777Y020086D01*
X010864Y019999D01*
X010644Y021125D02*
X010471Y021125D01*
X010384Y021212D01*
X010384Y021386D01*
X010471Y021472D01*
X010644Y021472D01*
X010731Y021386D01*
X010731Y021212D01*
X010644Y021125D01*
X010901Y021472D02*
X010987Y021472D01*
X011161Y021299D01*
X011161Y021472D02*
X011161Y021125D01*
X010216Y021125D02*
X010042Y021125D01*
X010129Y021125D02*
X010129Y021646D01*
X010216Y021646D01*
X009872Y021646D02*
X009785Y021646D01*
X009785Y021125D01*
X009872Y021125D02*
X009698Y021125D01*
X009528Y021212D02*
X009528Y021386D01*
X009441Y021472D01*
X009268Y021472D01*
X009181Y021386D01*
X009181Y021299D01*
X009528Y021299D01*
X009528Y021212D02*
X009441Y021125D01*
X009268Y021125D01*
X009012Y021125D02*
X009012Y021472D01*
X009012Y021299D02*
X008839Y021472D01*
X008752Y021472D01*
X007513Y019652D02*
X007426Y019652D01*
X007426Y019565D01*
X007513Y019565D01*
X007513Y019652D01*
X007255Y019652D02*
X006908Y019999D01*
X006908Y019652D01*
X006995Y019565D01*
X007168Y019565D01*
X007255Y019652D01*
X007255Y019999D01*
X007168Y020086D01*
X006995Y020086D01*
X006908Y019999D01*
X006739Y020086D02*
X006392Y020086D01*
X006392Y019999D01*
X006739Y019652D01*
X006739Y019565D01*
D11*
X002431Y009352D03*
X003431Y009352D03*
X003431Y010367D03*
X003431Y011367D03*
X003431Y012870D03*
X002431Y012870D03*
X007431Y026605D03*
X007431Y028605D03*
X008431Y028605D03*
X008431Y026605D03*
D12*
X010898Y013355D03*
X010898Y009355D03*
D13*
X008931Y013905D03*
X008431Y012905D03*
X007931Y013905D03*
X007431Y012905D03*
X006931Y013905D03*
X006431Y012905D03*
X005931Y013905D03*
X005431Y012905D03*
X005681Y015605D03*
X006681Y015605D03*
X007681Y015605D03*
X008681Y015605D03*
X009681Y015605D03*
X010681Y015605D03*
X004681Y015605D03*
D14*
X003681Y015605D03*
D15*
X006681Y030355D03*
X007431Y030355D03*
X008181Y030355D03*
D16*
X006931Y013905D02*
X006931Y009355D01*
X010874Y009355D01*
X010874Y009280D01*
X010874Y009355D02*
X010898Y009355D01*
X006931Y009355D02*
X003431Y009352D01*
D17*
X003681Y024605D02*
X006181Y024605D01*
X006181Y028855D01*
X007431Y029855D01*
X007431Y030355D01*
X007431Y026605D02*
X006181Y024605D01*
D18*
X003681Y024605D03*
M02*
