%
M48
M72
T01C0.0320
T02C0.0350
T03C0.0354
T04C0.0400
T05C0.0440
T06C0.1260
T07C0.1280
T08C0.1300
%
T01
X2427Y5101
X3427Y5101
X3427Y6601
X3427Y7601
X3427Y8851
X2427Y8851
X5177Y27351
X5177Y28351
X6677Y27351
X7677Y27351
T02
X7927Y10651
X7427Y9651
X6927Y10651
X6427Y9651
X5927Y10651
X5427Y9651
X8427Y9651
X8927Y10651
T03
X7927Y29351
X7177Y29351
X6427Y29351
T04
X6677Y13101
X7677Y13101
X8677Y13101
X9677Y13101
X10677Y13101
X5677Y13101
X4677Y13101
X3677Y13101
T05
X10927Y9101
X10927Y5101
T06
X9927Y1101
X4427Y1101
T07
X4927Y7151
X9427Y7151
T08
X2427Y1601
X11927Y1601
X11927Y24601
X2427Y24601
M30
