%
M48
M72
T01C0.0236
T02C0.0320
T03C0.0350
T04C0.0354
T05C0.0440
T06C0.1280
T07C0.1440
T08C0.2000
%
T01
X3681Y24605
T02
X7431Y26605
X7431Y28605
X8431Y28605
X8431Y26605
X3431Y12870
X3431Y11367
X3431Y10367
X3431Y9352
X2431Y9352
X2431Y12870
T03
X4681Y15605
X5681Y15605
X5931Y13905
X6431Y12905
X6931Y13905
X7431Y12905
X7931Y13905
X8431Y12905
X8931Y13905
X8681Y15605
X9681Y15605
X10681Y15605
X7681Y15605
X6681Y15605
X5431Y12905
T04
X3681Y15605
X6681Y30355
X7431Y30355
X8181Y30355
T05
X10898Y13355
X10898Y9355
T06
X9431Y10405
X4931Y10405
T07
X2931Y1855
X11431Y1855
X11431Y29355
X2931Y29355
T08
X4181Y5105
X10181Y5105
M30
