G75*
G70*
%OFA0B0*%
%FSLAX24Y24*%
%IPPOS*%
%LPD*%
%AMOC8*
5,1,8,0,0,1.08239X$1,22.5*
%
%ADD10C,0.0080*%
%ADD11OC8,0.0520*%
%ADD12C,0.0660*%
%ADD13C,0.0550*%
%ADD14OC8,0.0554*%
%ADD15R,0.0600X0.0600*%
%ADD16C,0.0600*%
%ADD17C,0.0160*%
%ADD18C,0.0320*%
D10*
X011813Y017586D02*
X011966Y017586D01*
X012273Y017586D02*
X012273Y017433D01*
X012273Y017586D02*
X012887Y017586D01*
X012887Y017433D02*
X012887Y017739D01*
X012887Y018046D02*
X012273Y018046D01*
X012273Y018507D01*
X012427Y018660D01*
X012887Y018660D01*
X012734Y019121D02*
X012887Y019274D01*
X012887Y019581D02*
X012887Y020041D01*
X012734Y020195D01*
X012580Y020041D01*
X012580Y019734D01*
X012427Y019581D01*
X012273Y019734D01*
X012273Y020195D01*
X012273Y019274D02*
X012273Y018967D01*
X012120Y019121D02*
X012734Y019121D01*
X012273Y017126D02*
X012273Y016972D01*
X012580Y016665D01*
X012427Y016358D02*
X012734Y016358D01*
X012887Y016205D01*
X012887Y015745D01*
X012734Y015438D02*
X012887Y015284D01*
X012887Y014977D01*
X012734Y014824D01*
X012427Y014977D02*
X012427Y015284D01*
X012580Y015438D01*
X012734Y015438D01*
X012427Y014977D02*
X012273Y014824D01*
X012120Y014824D01*
X011966Y014977D01*
X011966Y015284D01*
X012120Y015438D01*
X012273Y015745D02*
X012273Y016205D01*
X012427Y016358D01*
X012273Y016665D02*
X012887Y016665D01*
X013194Y015745D02*
X012273Y015745D01*
X012427Y014517D02*
X012273Y014363D01*
X012273Y013903D01*
X012887Y013903D01*
X012887Y013443D02*
X012887Y013136D01*
X012734Y012982D01*
X012427Y012982D01*
X012273Y013136D01*
X012273Y013443D01*
X012427Y013596D01*
X012580Y013596D01*
X012580Y012982D01*
X012427Y012675D02*
X012734Y012675D01*
X012887Y012522D01*
X012887Y012062D01*
X012734Y011755D02*
X012887Y011601D01*
X012887Y011294D01*
X012734Y011141D01*
X012120Y011141D01*
X011966Y011294D01*
X011966Y011601D01*
X012120Y011755D01*
X012734Y011755D01*
X013194Y012062D02*
X012273Y012062D01*
X012273Y012522D01*
X012427Y012675D01*
X012427Y014517D02*
X012887Y014517D01*
D11*
X002427Y005101D03*
X003427Y005101D03*
X003427Y006601D03*
X003427Y007601D03*
X003427Y008851D03*
X002427Y008851D03*
X005177Y027351D03*
X005177Y028351D03*
X006677Y027351D03*
X007677Y027351D03*
D12*
X010927Y009101D03*
X010927Y005101D03*
D13*
X008927Y010651D03*
X008427Y009651D03*
X007927Y010651D03*
X007427Y009651D03*
X006927Y010651D03*
X006427Y009651D03*
X005927Y010651D03*
X005427Y009651D03*
D14*
X006427Y029351D03*
X007177Y029351D03*
X007927Y029351D03*
D15*
X003677Y013101D03*
D16*
X004677Y013101D03*
X005677Y013101D03*
X006677Y013101D03*
X007677Y013101D03*
X008677Y013101D03*
X009677Y013101D03*
X010677Y013101D03*
D17*
X008927Y011351D01*
X008927Y010651D01*
X008427Y009651D02*
X008427Y011851D01*
X009677Y013101D01*
X008677Y013101D02*
X007927Y012351D01*
X007927Y010651D01*
X007427Y009651D02*
X007427Y012851D01*
X007677Y013101D01*
X006927Y012851D02*
X006677Y013101D01*
X006927Y012851D02*
X006927Y010651D01*
X006927Y009351D01*
X007427Y008851D01*
X010677Y008851D01*
X010927Y009101D01*
X006927Y009351D02*
X006427Y008851D01*
X003427Y008851D01*
X003427Y007601D01*
X003427Y006601D02*
X003427Y005101D01*
X002427Y005101D02*
X002427Y008851D01*
X005427Y011351D02*
X003677Y013101D01*
X004677Y013101D02*
X005927Y011851D01*
X005927Y010651D01*
X005427Y011351D02*
X005427Y009651D01*
X006427Y009651D02*
X006427Y012351D01*
X005677Y013101D01*
D18*
X006677Y013101D02*
X006677Y025851D01*
X005177Y027351D01*
X006427Y028601D01*
X006427Y029351D01*
X007177Y029351D02*
X007177Y027851D01*
X007677Y027351D01*
X009677Y027601D02*
X007927Y029351D01*
X009677Y027601D02*
X009677Y013101D01*
M02*
